<svg width="308" height="309" xmlns="http://www.w3.org/2000/svg"><g fill="none"><circle fill="#36B24A" cx="154" cy="154.2" r="154"/><path d="M168.5 67.5c-8.7 0-15.9 4-15.9 12.8V228c0 8.7 7.1 12.8 15.9 12.8s15.9-4 15.9-12.8V80.4c-.1-8.8-7.2-12.9-15.9-12.9zm-4.1 147.4c-.5 1-.7 2.1-.7 3.2v.2c0 1.1.2 2.3.7 3.2.1.1.3.6.4.7 1 1.8 2.8 2.9 5.1 2.9h.3c1.9 0 3.3-.7 4.7-1.7.4-.3.7-.7 1.5-.7h.3c1.6.2 3 1.9 3 3.4v.4c-.1.7-.6 1.1-.9 1.4-1.9 1.8-4.3 3-7.9 3.2h-1c-7.6 0-13.1-5.9-13.1-13.1 0-7.1 5.4-13 13.1-13.1h1c3.6.2 5.9 1.4 7.9 3.2.6.5.8.8.9 1.5v.4c0 1.5-1.5 3.2-3 3.4h-.3c-.8 0-1.1-.4-1.5-.7-1.3-1.1-2.8-1.7-4.7-1.7h-.3c-2.2 0-4 1.1-5.1 2.9-.1.4-.3.9-.4 1zM144.3 81s0-4.1-.8-6.3c-.8-2.1-1.8-3.7-4-4.9-2.2-1.2-4.6-1.5-6.6-1.6-2.1-.2-6.1-.3-9.4.4-3.4.8-7.3 2.8-10 5.3s-6.9 7.6-8.5 9.9l-49.9 66.1c-1.3 2-3.8 6.3-3.6 10 .1 2.9.8 7.5 2.6 11.9.7 1.5 1.3 2.9 2 3.9.3.4 1.1 1.7 1.2 1.9 3.2 4.4 6.6 6.6 10 7.3.8.2 2.2.4 4 .4h42.1v41.3s0 2.4.2 3.5.6 2.8 1.4 4.1c.8 1.3 1.6 2.3 3 3.2 1.4 1 2.4 1.3 3.4 1.7 0 0 1.9.7 3.7.8 1.7.2 3.7.3 5.4.2 1.6-.2 3.7-.3 5.7-1 2.1-.8 3.9-1.9 5.2-3.2 1.2-1.3 2.1-2.7 2.5-4.9.4-2.2.3-4.4.3-4.4.1-.1.1-145.6.1-145.6zm-30.8 78.2H82.6l30.9-43.3v43.3zm22.5 65c0 4.4-2.6 6.9-7.2 6.9s-6.8-2.6-6.8-7v-.2c0-4.4 2.6-6.8 7.2-6.8s6.8 2.5 6.8 6.9v.2zm72.3-4.5c-2.3 0-4.3 1.4-4.3 3.1 0 1.7 2 3.1 4.3 3.1s4.3-1.4 4.3-3.1c0-1.7-2-3.1-4.3-3.1zm0-152.2c-8.7 0-15.9 4-15.9 12.8V228c0 8.7 7 12.8 15.9 12.8 8.7 0 15.9-4 15.9-12.8V80.4c.1-8.8-7.1-12.9-15.9-12.9zm11 160.2v.3c0 .6-.1 1.1-.5 1.6 0 .1-.2.3-.4.5-1.3 1.1-3.8 1-5.1-.1-.1-.1-.5-.5-.7-.8-.1-.3-.2-.7-.2-.9-1.6 1.8-3.7 2.6-6.7 2.9h-1c-4.5-.1-7.8-3.7-7.8-7.9 0-3.8 2.5-6.9 6.2-7.7.3-.1.7-.1.9-.2.7-.1 1.3-.1 2-.1 2.6 0 4.5.5 6.3 1v-.4c0-3-1.1-5.2-5.5-5-1.2.1-3 .4-3.4.5-.5.1-.9.1-1.4-.1-.1-.1-.3-.1-.4-.2-1.3-.9-1.8-3.1-1.1-4.5.1-.1.1-.2.2-.3.3-.4.9-.8 1.2-.8 1.7-.4 3.6-.7 5.8-.7 4 0 6.9 1 8.7 2.9 1.8 1.9 2.4 4.8 2.4 8.3v11.7h.5z" fill="#FFF"/></g></svg>