<svg height="90" width="208" xmlns="http://www.w3.org/2000/svg"><g clip-rule="evenodd" fill-rule="evenodd"><path d="M123.702 74.968c-1.392 1.069-2.889 2.032-4.386 2.888v-4.491c.854-.321 1.818-.749 2.674-1.069 1.924-.856 3.64 1.284 1.71 2.672zm10.159-7.488c0-.856-.214-1.498-.428-1.818-.962-1.177-8.021-2.247-14.117-.429v3.315c3.743-.32 8.127-.428 9.2.96 1.497 1.818-1.712 9.732-3.103 13.154-.428 1.07.54 1.5 1.5.75 4.812-4.064 6.844-11.444 6.951-15.295v-.635zm-14.545 10.375c-11.23 6.738-25.776 10.268-38.396 10.268-20.321 0-38.503-7.486-52.3-20-1.176-.962-.214-2.353 1.177-1.604 14.867 8.66 33.26 13.9 52.3 13.903 11.979 0 24.92-2.245 37.22-7.059v4.492zm0-12.625a16.721 16.721 0 0 0-4.6 2.247c-1.068.748-.855 1.71.21 1.604 1.177-.214 2.674-.321 4.386-.535v-3.311z" fill="#f8991d"/><path d="M204.728 35.396v-.534a2.648 2.648 0 0 0 2.673-2.674c0-1.498-1.283-2.674-2.673-2.674v-.534c1.71 0 3.21 1.39 3.21 3.208-.002 1.712-1.498 3.212-3.208 3.212zm0-2.888h.106c.214 0 .32.11.32.321 0 .11.11.96.21 1.177h.748a2.555 2.555 0 0 1-.214-.963c-.106-.428-.106-.749-.642-.855.321-.106.748-.214.748-.855 0-.963-.855-.963-1.282-.963v.535c.214 0 .53 0 .53.535 0 .214-.107.535-.534.535v.533zm0-3.529v.534c-1.497 0-2.781 1.176-2.781 2.674 0 1.5 1.28 2.67 2.78 2.674v.534c-1.819 0-3.315-1.39-3.315-3.208s1.496-3.207 3.318-3.208zm0 1.39h-1.284v3.637h.749v-1.498h.535v-.534h-.535v-1.069h.535zm-49.371 33.155v-6.417c4.601-.107 4.814-6.738 4.814-10.695 0-2.674-.107-5.883-.963-8.45-.641-2.139-1.924-2.995-3.852-3.101v-6.418c8.985.11 13.91 7.92 13.91 17.86-.002 9.627-5.456 17.117-13.906 17.221zm25.777-.641h-6.096c-.642-.107-1.177-.535-1.177-1.177V30.155c.107-.642.535-1.069 1.177-1.069h5.776c.534 0 .96.43 1.07.962v4.813h.107c1.71-4.385 4.171-6.418 8.448-6.418 2.674 0 5.45.96 7.17 3.744 1.604 2.57 1.6 6.74 1.6 9.84v19.786c-.105.534-.534 1.069-1.176 1.069h-6.203c-.534-.107-1.069-.535-1.069-1.069V44.808c0-3.53.428-8.556-3.851-8.556-1.497 0-2.888.962-3.636 2.566-.855 1.925-.963 3.851-.963 5.989v16.898c0 .645-.531 1.175-1.181 1.178zm-65.882-28.236v-4.492c0-.642.535-1.176 1.177-1.176h20.214c.642 0 1.18.53 1.18 1.176v3.851c0 .641-.534 1.497-1.497 2.888L125.84 51.866c3.851-.106 8.02.54 11.55 2.461.748.53.96 1.18 1.07 1.817v4.706c0 .641-.748 1.391-1.497 1.069-6.311-3.315-14.545-3.637-21.391 0-.748.428-1.497-.429-1.497-1.069v-4.492c0-.642 0-1.926.749-3.102l12.192-17.434h-10.588c-.641-.002-1.178-.422-1.178-1.175zm40.105-6.204v6.418c-4.597 0-4.812 6.203-4.812 10.054 0 3.957-.106 12.19 4.71 12.192h.1v6.417h-.105c-8.984 0-13.903-7.808-13.903-17.54 0-9.84 5.025-17.541 13.903-17.541.107-.003.11-.003.11 0zM94.503 62.775v-5.668c1.39-.321 2.567-1.284 3.422-2.78 1.177-2.14 1.177-4.064 1.177-6.524V46.52c-1.604 0-3.209.106-4.599.428v-4.92c1.604-.215 3.208-.321 4.599-.428v-.856c0-1.497.106-3.208-.749-4.491-.749-1.07-2.246-1.605-3.529-1.605h-.321v-6.524h1.28c2.994 0 6.84.86 9.2 3.102 2.994 2.78 2.78 6.52 2.78 10.587v9.627c0 2.89 1.18 4.17 2.25 5.67.429.53.54 1.18 0 1.604-1.176 1.07-3.423 2.995-4.706 4.064-.428.321-.962.321-1.496.11-2.033-1.711-2.354-2.46-3.529-4.064-2.035 2.136-3.752 3.306-5.782 3.951zm0-34.652v6.524c-2.247.214-4.064 1.391-4.6 3.744-.106.535-.535 1.069-1.069 1.177l-5.99-.749c-.535-.107-1.069-.428-.855-1.284C83.273 30.8 88.94 28.44 94.5 28.123zm0 13.904v4.92c-2.567.748-4.6 2.352-4.6 5.77 0 2.67 1.39 4.49 3.74 4.492.321 0 .536-.106.856-.106v5.668a17.78 17.78 0 0 1-4.385.54c-5.134 0-9.198-3.208-9.198-9.52 0-5.026 2.674-8.449 6.524-10.053 2.037-.968 4.6-1.388 7.06-1.711zM13.646 62.775v-5.668c1.392-.321 2.675-1.284 3.424-2.78 1.282-2.14 1.176-4.064 1.176-6.524V46.52c-1.604 0-3.208.106-4.6.428v-4.92c1.605-.215 3.209-.321 4.6-.428v-.856c0-1.497.106-3.208-.748-4.491-.749-1.07-2.14-1.605-3.423-1.605h-.429v-6.524h1.28c2.995 0 6.84.86 9.3 3.1 2.995 2.78 2.67 6.52 2.67 10.587v9.627c0 2.89 1.18 4.17 2.35 5.668.32.53.43 1.176-.107 1.6-1.176 1.07-3.421 2.995-4.706 4.064-.428.321-.963.321-1.497.107-2.032-1.711-2.353-2.46-3.529-4.064-2.016 2.147-3.727 3.317-5.757 3.962zm27.702.108h-6.203c-.642-.107-1.07-.535-1.07-1.069V30.262c0-.642.536-1.176 1.178-1.176h5.667c.642 0 1.18.53 1.18 1.069v4.171h.107c1.498-4.064 4.278-5.883 8.13-5.883 3.849 0 6.31 1.82 8.02 5.883 1.497-4.064 4.812-5.883 8.449-5.883 2.674 0 5.46 1.07 7.17 3.42 1.925 2.67 1.6 6.52 1.6 9.946v19.894c0 .642-.535 1.177-1.283 1.177h-6.097c-.642-.107-1.07-.535-1.07-1.177V45.021c0-1.283.107-4.706-.214-5.882-.428-2.14-1.818-2.781-3.636-2.781-1.498 0-2.995.962-3.637 2.57-.641 1.604-.641 4.278-.641 6.096v16.685c0 .642-.536 1.177-1.177 1.177h-6.204c-.534-.107-1.069-.535-1.069-1.177V45.021c0-3.529.535-8.77-3.743-8.77-4.491 0-4.279 5.134-4.279 8.77v16.685a1.19 1.19 0 0 1-1.176 1.177zm-27.702-34.76v6.524c-2.138.214-4.063 1.391-4.598 3.744-.107.535-.428 1.069-1.07 1.177l-5.989-.749c-.427-.107-1.069-.428-.855-1.284C2.417 30.8 8.19 28.44 13.65 28.123zm0 13.904v4.92c-2.566.748-4.598 2.352-4.598 5.774 0 2.67 1.39 4.49 3.74 4.492.32 0 .641-.106.854-.106v5.668a17.544 17.544 0 0 1-4.384.535C4.124 63.31.06 60.102.06 53.79c0-5.026 2.674-8.449 6.631-10.053 2.036-.967 4.499-1.387 6.959-1.71z"/></g></svg>