<svg xmlns="http://www.w3.org/2000/svg" width="213.074" height="91.873"><path fill="#FFF" d="M191.339 62.587H1.767l15.547-39.295h194.52z"/><path fill="#0075BA" d="M117.577 55.913l28.431-53.207 53.207 28.431-28.431 53.207z"/><path d="M128.729 56.808V29.572h10.78l4.805 16.984 4.804-16.984h10.78v27.236h-8.02v-8.322l.113-4.237.455-4.917h-.076l-4.955 17.477h-6.203l-4.956-17.477h-.075l.378 4.01.189 4.236v9.23h-8.019zm35.895 0V29.572h11.954c8.775 0 14.223 4.085 14.223 13.05 0 10.252-5.712 14.186-14.45 14.186h-11.727zm8.928-6.356h1.892c4.161 0 6.431-2.193 6.431-7.338 0-5.674-1.854-7.187-6.62-7.187h-1.702v14.525z" fill="#FFF"/><path d="M12.674 56.808l9.759-27.236h9.079l9.759 27.236h-8.89l-1.059-3.594h-8.889l-1.021 3.594h-8.738zM26.896 37.78l-2.761 9.76h5.636l-2.875-9.76zm12.941-8.208h8.927v16.304c0 2.686.53 4.992 4.199 4.992 3.215 0 4.161-2.043 4.161-4.992V29.572h8.927v15.396c0 8.739-4.048 12.559-13.088 12.559-8.435 0-13.125-3.215-13.125-12.597V29.572zm26.259 0h24.965v7.149h-8.019v20.086h-8.927V36.721h-8.019v-7.149z"/><path d="M118.571 43.038c0 9.268-6.241 14.488-14.299 14.488-8.548 0-14.26-5.297-14.26-14.564 0-8.549 5.787-14.109 14.26-14.109 9.722.001 14.299 6.998 14.299 14.185zm-19.632 0c0 3.48 1.06 7.83 5.333 7.83 3.858 0 5.372-3.328 5.372-7.83 0-3.707-1.514-7.641-5.447-7.527-4.048 0-5.258 4.085-5.258 7.527z"/></svg>