<svg width="467" height="78" xmlns="http://www.w3.org/2000/svg"><g fill="none" fill-rule="evenodd"><path d="M402.7 18.5c.1-.1.2-.1.3-.1 2 0 4.1-.1 6.1.1s4.1 1.3 4.6 3.8c.1.3.2.6.2.9.1.3.1.5.5.1 1.1-1.2 2.3-2.4 3.8-3.4 1.9-1.2 4-2.1 6.4-2.4 1.6-.2 3.2-.2 4.7.1 4 .6 7 2.7 8.9 6.3.5.9.5.9 1.1.1 1.6-2.2 3.7-3.8 6.1-5 1.6-.8 3.4-1.3 5.2-1.5 1.7-.2 3.3-.2 4.9.1 4.8.7 8.2 3.1 10 7.8.7 1.8 1 3.7 1.2 5.7 0 .1 0 .2.1.3v29.7h-6.1c-1.7 0-3.2-.4-4.4-1.8-.8-1-1.2-2.2-1.2-3.4V36.6c0-1.6-.1-3.2-.4-4.7-.4-1.8-1.5-3.2-3.9-3.4-3.5-.2-6 1.5-7.8 4.3-1.1 1.7-1.6 3.6-2.1 5.5-.3 1.5-.4 3-.4 4.5v17.8c0 .5-.2.6-.7.6h-10.5c-.5 0-.6-.1-.6-.6V36.1c0-1.6-.1-3.3-.8-4.8-1-2.2-2.8-2.9-5-2.8-2.5.2-4.2 1.5-5.6 3.4-1.3 1.7-2 3.7-2.5 5.8-.5 1.9-.6 3.9-.6 5.9v17c0 .5-.1.6-.6.6h-10.5c-.5 0-.6-.1-.6-.6V44.9c0-.2 0-.4.1-.5.1.1.1.2.1.3v16.1c0 .1.1 0 0 0V19.4c0-.4-.1-.7 0-.9z" fill="#0093D0"/><path d="M191.8.1c.8.3 1.7.5 2.5.9 2.5 1.5 3.9 4.5 3.4 7.4-.5 2.9-2.7 5.2-5.6 5.8-4 .8-7.7-1.7-8.4-5.7-.7-3.9 1.8-7.5 5.6-8.2.1 0 .2 0 .3-.1.7-.1 1.4-.1 2.2-.1zm-10.2 61c-3.9-.1-7.6.1-11.3-.1-2.1-.1-3.7-1.2-4.8-2.9-1.2-1.9-2.2-4-3.3-6-1.3-2.5-2.7-5-4-7.5-.4-.7-.9-1-1.7-1.1-.5-.1-1.1-.1-1.6-.1-.9 0-.8-.1-.8.7v16.5c0 .3-.1.5-.5.5h-11.4c-.4 0-.5-.1-.4-.4v-58c0-.8-.1-.7.7-.7 2.2 0 4.5-.1 6.7.1 2.6.2 4.1 1.3 4.7 3.6.2.7.2 1.5.2 2.3v24.1c0 .8 0 .8.8.8.6 0 1.3 0 1.9-.1 1-.1 1.8-.5 2.4-1.4 2.7-4.2 5.4-8.3 8-12.4.2-.3.4-.4.7-.4h13.4c-.3.5-.6 1-1 1.4l-10.5 15.6c-.6.8-1.2 1.6-1.9 2.3-.1.1-.3.2-.1.4 1.6 1.6 2.5 3.6 3.4 5.6 2.7 5.4 5.9 10.5 9 15.6.6.3 1 .9 1.4 1.6zm34.6-37.9c.7-.7 1.3-1.4 2.1-2 2.9-2.4 6.3-3.6 10.1-3.8 2.6-.1 5.2.1 7.6 1 3.9 1.5 6.4 4.3 7.6 8.3.7 2.2 1 4.4 1 6.7v26.9c0 .8.1.7-.7.7-2.1 0-4.2.1-6.2-.1-3.2-.2-5.1-2.2-5.3-5.4-.1-3.1 0-6.3-.1-9.4V35.5c0-1.1-.1-2.1-.4-3.2-.6-2.3-2.1-3.5-4.5-3.5-4.8-.2-9.1 2.6-10.5 8.3-.3 1.4-.5 2.8-.5 4.2v19.2c0 .5-.1.7-.7.7h-11c-.5 0-.6-.1-.6-.6V18.9c0-.2 0-.4.3-.4 2.2.1 4.4-.1 6.5.1 2.4.2 4.5 1.5 5 4.4.2-.1.3 0 .3.2z" fill="#00327B"/><path d="M350.3 29.6v3c0 .4-.1.5-.5.5H344c-2.1-.1-3.7-1.1-4.3-3.4-.2-.9-1-1.3-1.8-1.5-4.1-1.4-9.1-.1-11.8 3.2-1.2 1.4-2 3.1-2.4 4.9-.5 2-.5 4-.2 6 .7 3.6 2.7 6.3 6 7.9 2.5 1.2 5.2 1.5 7.9 1.1 2.7-.4 5.1-1.6 7.3-3.3.9-.7 1.8-1.4 2.6-2.3.2-.2.3-.3.5 0 1.6 2.6 3.1 5.2 4.7 7.8.2.3.1.5-.1.8-1.5 1.7-3.2 3-5.1 4.1-2.1 1.3-4.3 2.2-6.6 2.8-3.2.8-6.5.9-9.8.5-3.5-.4-6.8-1.6-9.7-3.5-3.9-2.5-6.7-6-8.3-10.3-1.1-2.9-1.5-5.8-1.4-8.8.2-5.9 2.2-11.1 6.5-15.2 2.5-2.4 5.4-4.1 8.7-5.2 2.4-.8 4.9-1.2 7.4-1.2 3.4-.1 6.7.4 9.9 1.8 2.3 1 4.4 2.4 5.6 4.7.6 1.1.9 2.3.8 3.5-.1.7-.1 1.4-.1 2.1z" fill="#0093CF"/><path d="M185.1 39.7V18.8c0-.2-.1-.5.4-.5 2.2.1 4.5-.1 6.7.1 3 .3 4.8 2.1 5.1 5 .1.5.1 1.1.1 1.6v35.4c0 .5-.1.6-.6.6h-11c-.5 0-.6-.2-.6-.6-.1-6.9-.1-13.8-.1-20.7z" fill="#00337C"/><path d="M302.4 61.5c-3.8.1-7.1-3.1-7.1-7.1 0-4 3.3-7.1 7.1-7.1 3.9 0 7.2 3.3 7.2 7.1-.1 3.8-3.3 7.2-7.2 7.1z" fill="#0093D0"/><path d="M290.5 58.9c-.1-.3-.1-.7-.1-1V19.1c0-.8 0-.8-.8-.8h-5.3c.2-.2.4-.1.5-.1h5.2c.4 0 .5.1.5.5v40.2z" fill="#002E5F"/><path d="M402.7 18.5v42.4c-.2-.3-.1-.5-.1-.7V19.3c0-.2-.1-.5.1-.8z" fill="#0084A7"/><path d="M34.3 30.4c-.4-.2-.8-.5-1.3-.7.3-.3.6-.5.8-.7 1-.8 1.9-1.6 2.6-2.6 2.3-3 3.1-6.4 2.9-10.1C39 11 36.5 7 31.9 4.4c-3.2-1.8-6.8-2.5-10.5-2.5H6.9c-2 0-3.6.8-4.8 2.4-.7.8-1 1.8-1.3 2.9v53.7h20.7c2.9 0 5.7-.4 8.5-1.3 4-1.4 7.4-3.7 9.5-7.5 2.1-3.8 2.6-7.8 1.7-12-.8-4.4-3.1-7.6-6.9-9.7zM12.2 20.2v-4.8c.1-2.3 1.2-3.6 3.5-3.7 2.3-.1 4.5-.2 6.8.1 2.8.4 4.6 2.2 5.2 4.9.5 2.4.2 4.7-1.4 6.8-1.3 1.6-3 2.2-5 2.3h-8.6c-.4 0-.5-.1-.5-.5v-5.1zm16.1 28c-1.4 1.8-3.4 2.6-5.7 2.6-3.4.1-6.7 0-10.1 0-.4 0-.4-.1-.4-.4V38.5c.1-2.4 1.4-3.6 3.8-3.6h6.4c2.7.1 5 1 6.5 3.4 1.8 2.8 1.6 7.3-.5 9.9zM290 18.3h-4c-.5 0-1.1-.1-1.6 0-2.2 0-3.8 1.1-4.7 3.1-.8-.8-1.7-1.4-2.7-2-3.7-2.1-7.7-2.6-11.9-2-7.2 1-12.1 5-14.6 11.8-2.1 5.5-2.2 11.2-.6 16.9 1.1 3.9 3.1 7.2 6.2 9.8 3.8 3.2 8.3 4.5 13.3 4.2 3.3-.2 6.3-1.1 8.8-3.2.1-.1.1-.1.3-.1.1.8 0 1.5-.1 2.3-.3 3-1.7 5.2-4.5 6.5-3 1.4-6.1 1.3-9.3.8-1.8-.3-3.4-.8-5.1-1.3-2.1-.6-3.5.1-4.4 2l-.3.6c-.7 1.8-1.4 3.6-2.2 5.5-.2.4-.1.5.3.7 3.1 1.7 6.5 2.8 10 3.4 1 .2 2 .3 3 .4h4.6c.1-.1.2-.1.3-.1 1.5-.1 2.9-.3 4.4-.7 3.8-.9 7.3-2.6 10.1-5.4 3.5-3.4 5.1-7.7 5.3-12.5V18.9c-.1-.5-.2-.7-.6-.6zm-12.3 26.1c-1.2 3.2-3.7 5-7.1 5-4.2.1-7.2-2-8.5-6-1.2-3.5-1.2-7.1.2-10.5 1.2-3.1 3.6-4.7 7-4.8 1.8-.1 3.5.1 5.1.9 2.2 1.1 3.3 3.1 3.9 5.4.3 1.4.4 2.8.5 4.4-.2 1.8-.4 3.8-1.1 5.6z" fill="#00327B" fill-rule="nonzero"/><path d="M397.7 33.9c-.4-1.8-1.1-3.5-1.9-5.1-1.9-3.6-4.6-6.4-8.1-8.3-2.8-1.6-5.8-2.4-8.9-2.8-2.2-.2-4.3-.2-6.4.1-2.3.3-4.5 1-6.6 2-3.6 1.7-6.5 4.2-8.6 7.6-2.4 3.8-3.5 7.9-3.4 12.4 0 1.1 0 2.2.2 3.3.3 2.4 1 4.8 2.1 7 1.6 3.3 3.9 5.9 6.9 8 3.2 2.2 6.9 3.4 10.8 3.8 3.9.4 7.7-.1 11.3-1.5 3.5-1.4 6.5-3.5 8.8-6.5 1.7-2.1 2.9-4.4 3.6-7 .5-1.7.8-3.4.9-5.1.1-2.9-.2-5.4-.7-7.9zm-11.4 5.4c0 3.2-.6 5.8-2.3 8-1.4 1.9-3.2 3.1-5.5 3.7-2.3.6-4.6.4-6.8-.5-2.2-1-3.8-2.6-4.8-4.8-1-2-1.4-4.2-1.3-6.5.1-3.3 1-6.3 3.5-8.7 2.2-2.1 4.9-2.9 7.9-2.6 4.3.5 7 2.9 8.5 6.9.6 1.6.9 3.2.8 4.5z" fill="#0092CF" fill-rule="nonzero"/><path d="M125.7 19.8c-5.8-2.9-12-3.2-18.1-1.2-6.3 2-10.7 6.2-13.2 12.4-1.7 4.3-2 8.8-1.1 13.4 1 5.2 3.6 9.6 7.9 12.8 4.1 3.1 8.8 4.4 13.9 4.5 1.9 0 3.9-.2 5.7-.6 6.5-1.6 11.4-5.2 14.4-11.3 2.4-4.9 2.9-10.1 1.7-15.4-1.3-6.6-5.1-11.6-11.2-14.6zm-.1 19.9c0 2.9-.7 5.7-2.5 8-2.2 2.7-5 3.8-8.4 3.6-4.8-.2-8.4-3.6-9.4-8.6-.7-3.6-.4-7.1 1.6-10.2 2.2-3.5 5.8-5.1 9.9-4.5 4.5.6 7.2 3.4 8.5 7.7.1 1.3.3 2.6.3 4zM78 19.9c-5.2-2.6-10.8-3.1-16.5-1.7-6.7 1.6-11.7 5.6-14.5 11.9-1.9 4.2-2.3 8.7-1.7 13.2.7 5 2.9 9.3 6.7 12.8 4.3 3.9 9.5 5.6 15.3 5.6 2.2 0 4.5-.3 6.6-.9 6.2-1.8 10.9-5.5 13.7-11.4 2.2-4.7 2.6-9.6 1.6-14.6C87.9 28 84.2 23 78 19.9zm-1.8 26.4c-1.7 3.1-4.3 4.7-7.8 5-5.6.5-9.7-3.1-10.9-8.2-.1-.4-.2-.8-.2-1.2-.1-.7-.2-1.5-.1-2.2 0-3 .7-5.8 2.7-8.2 2.4-2.9 5.5-3.9 9.1-3.4 4.1.5 6.8 2.9 8.1 6.7 1.2 3.8 1.1 7.7-.9 11.5z" fill="#00327B" fill-rule="nonzero"/></g></svg>