<svg width="254" height="70" xmlns="http://www.w3.org/2000/svg"><g transform="translate(2 3)" fill="none" fill-rule="evenodd"><path d="M246.77 50.17c-1.84 0-3.3-.24-3.3-4.17v-8.8c0-2.12-.5-3.98-2.93-4.08-2.6-.11-4.19 1.4-4.33 4.04-.17 3.16-.11 6.33-.07 9.49.03 2.15-.4 3.93-2.9 4-2.77.07-3.09-1.86-3.04-4.13.08-3.04.03-6.1.02-9.14-.02-2.22-.5-4.24-3.13-4.27-2.6-.02-4.08 1.57-4.19 4.22-.12 3.05-.09 6.1-.05 9.15.02 2.26-.37 4.19-3.08 4.17-2.56-.01-2.87-1.85-2.85-3.98.06-4.86.04-9.71 0-14.57 0-1.92.13-3.79 2.45-4.08 2.07-.27 2.86 1.2 3.2 3.05.79-.58 1.25-.97 2.7-1.96 3.68-1.83 7.66.12 9.8 2.6.18.2 1.34-1.12 1.8-1.47 4.21-3.3 9.9-1.6 11.67 1.01.44.86.75 1.26.9 2.49.12.98.13 3.08.14 6 .01 2.92.15 5.4 0 7.83-.04.56-.43 2.6-2.81 2.6zM10.54 20.1c3.99-.87 7.83-.58 11.4 1.57a8.6 8.6 0 0 1 3.41 3.48c.8 1.6 1.1 3.28-.49 4.47-1.7 1.29-3.38.68-4.58-.93-1.27-1.7-2.52-3.36-4.82-3.63-2.87-.34-5.26.65-6.77 3.1-2.55 4.18-2.51 8.6-.42 12.93 1.28 2.64 3.71 3.66 6.54 3.59 2.3-.06 3.79-1.53 4.99-3.33 1.32-2 3.05-3.16 5.17-1.43 2 1.65.9 3.68-.25 5.3-2.85 3.96-7.02 5.11-11.6 4.79-5.1-.36-8.2-2.19-11.03-6.64a16.2 16.2 0 0 1-1.81-5.25 26.2 26.2 0 0 1 0-7.5c.75-4.57 4.4-9.23 10.26-10.52z" fill="#1AA56E"/><ellipse fill="#1AA56E" cx="148.85" cy="7.92" rx="7.63" ry="7.92"/><path d="M147.57 47.03c.12 4.61-.74 9.04-2.1 13.38-.73 2.32-1.85 4.3-4.57 3.34-2.57-.92-2.23-3.1-1.52-5.28a36.9 36.9 0 0 0 .44-21.87c-2.19-7.76-6.66-13.79-13.05-18.39-1.24-.88-2.5-1.74-3.64-2.76-1.39-1.24-2.23-2.78-1.1-4.67 1.12-1.9 2.85-2.31 4.76-1.55 1.18.47 2.36 1.14 3.32 1.98 10.78 9.38 17.4 20.93 17.46 35.82m1.93-.33c.21-14.76 6.8-26.21 17.46-35.54a8.51 8.51 0 0 1 4.26-2.23c1.65-.25 3 .32 3.86 1.8.9 1.55.5 3.08-.66 4.23-1.16 1.14-2.53 2.05-3.84 3.02-12.9 9.57-17.74 24.52-13 40.2.16.52.37 1.03.48 1.57.39 1.83 0 3.43-1.86 4.04-1.9.62-3.36-.12-4.1-2.14a40.59 40.59 0 0 1-2.6-14.96" fill="#FF8564"/><path d="M121.14 46.76c-5.45 3.14-10.23 2.68-13.03-1.08-2.94-3.94-2.33-11.91 1.18-15.36 3.36-3.31 7.8-3.22 11.84.28.55-1.73 1.44-3.08 3.47-2.63 2.16.47 1.99 2.28 1.99 3.95l-.02 15.9c0 4.02-1.14 7.45-4.98 9.24-4.12 1.93-8.23 1.56-12.06-.82-1.55-.96-2.66-2.56-1.26-4.44 1.16-1.57 2.72-1.15 3.95 0 1.93 1.82 4.06 2.65 6.48 1.41 2.46-1.26 2.17-3.8 2.44-6.45zm-9.18-8.54c-.08 3.85 1.49 6.07 4.3 6.13 2.93.07 4.56-2 4.6-5.85.05-3.91-1.5-6.16-4.28-6.18-2.87-.03-4.54 2.1-4.62 5.9zm-64-.88c.01 3.16-.02 6.33.28 9.47.13 1.47.4 2.74-1.07 3.46-1.54.76-3.23.54-4.03-1-.83-1.62-1.3-1.4-2.5-.49a8.97 8.97 0 0 1-8.04 1.54c-2.85-.78-4.51-2.75-4.6-5.8-.1-2.86 1.2-4.95 3.89-6 2.26-.87 4.63-1.04 7-1.33 1.44-.17 3.4-.24 3.09-2.53-.27-1.97-1.96-2.1-3.55-2.16a5.57 5.57 0 0 0-4.35 1.9c-1.3 1.33-2.85 2.06-4.2.36-1.36-1.7-.25-3.23 1.03-4.38a10.34 10.34 0 0 1 6.6-2.5c8.35.08 10.41 2.24 10.45 9.46zM36.7 46.86c3.52.37 5.7-2.32 5.22-6.3-1.95.37-3.92.67-5.85 1.16-1.38.34-2.55 1.22-2.33 2.85.22 1.6 1.57 2.14 2.96 2.29zm164.56 3.82c-6.83-.23-10.68-4.66-10.4-11.98.24-6.75 4.79-11.07 11.35-10.8 6.39.25 10.45 4.99 10.25 11.95-.2 6.97-4.44 11.07-11.2 10.83zm4.84-11.5c0-4.25-1.72-6.8-4.66-6.86-3.02-.07-4.8 2.33-4.87 6.6-.08 4.37 1.74 7.28 4.64 7.34 1.72.03 3.04-.8 3.87-2.45a9.38 9.38 0 0 0 1.02-4.62zM88.37 30.9c1.81-1.78 3.82-2.95 6.37-3.01 4.37-.11 7.32 2.32 7.56 6.67.22 3.95.07 7.93.06 11.9 0 1.96-1.07 3-3.03 2.96-2-.03-2.85-1.18-2.82-3.14.05-3.1.02-6.21 0-9.32 0-2.28-.72-4.13-3.4-4.18-2.7-.06-4.33 1.4-4.48 4.05-.16 3-.09 6-.08 9 0 2.1-.66 3.65-3.1 3.6-2.29-.06-2.77-1.57-2.75-3.53.05-4.6 0-9.21.02-13.82 0-1.7-.29-3.62 2.07-4.12 2.3-.49 2.82 1.38 3.58 2.95m80.84 8.76c.02-8.8 7.16-13.94 15.2-10.92 1.58.6 3.04 1.47 3.88 3.01.75 1.37.98 2.94-.44 3.96-1.3.93-2.8.78-3.81-.64-1.4-1.98-3.11-2.88-5.44-2-2.4.91-3.22 2.95-3.37 5.34-.17 2.63-.21 5.39 2.45 6.86 2.14 1.18 4.31.94 5.9-1.27 1.15-1.63 2.68-2.83 4.4-1.25 1.8 1.64.74 3.52-.58 5.04-2.45 2.81-7.87 3.71-12.12 2.08-4.04-1.55-6.08-4.98-6.07-10.21M59.17 31.53c1.28-1.47 1.88-2.93 3.4-3.43 1.3-.42 2.48-.26 3.46.72.81.83.93 1.86.57 2.98a2.4 2.4 0 0 1-2.64 1.78c-3.14-.25-3.98 1.86-4.17 4.4-.2 2.77-.16 5.57-.12 8.36.03 2-.83 3.07-2.72 3.09-1.88.01-2.85-1.09-2.86-3.03-.01-4.94 0-9.88-.02-14.82 0-1.74.28-3.4 2.23-3.64 2.17-.25 2.86 1.28 2.87 3.59m17.78 7.02c0 2.47-.05 4.93.02 7.4.05 2-.55 3.42-2.74 3.47-2.12.05-2.99-1.2-2.98-3.26V31.04c0-1.88.79-3.12 2.78-3.16 2.14-.04 2.98 1.2 2.93 3.28-.05 2.46 0 4.93 0 7.4" fill="#1AA56E"/><ellipse fill="#1AA56E" cx="74.11" cy="23.13" rx="2.86" ry="2.85"/></g></svg>