<svg width="211" height="18" xmlns="http://www.w3.org/2000/svg"><path d="M9.28 4.66a3.33 3.33 0 0 1 2.86 1.77.76.76 0 0 0 1 .33l2.76-1.35a.74.74 0 0 0 .39-.46.76.76 0 0 0-.06-.61 7.63 7.63 0 0 0-7-4.07A8.39 8.39 0 0 0 .5 8.83a8.38 8.38 0 0 0 8.78 8.55 7.69 7.69 0 0 0 7-4.08.73.73 0 0 0 .07-.61.72.72 0 0 0-.4-.47l-2.75-1.33a.76.76 0 0 0-1 .34A3.26 3.26 0 0 1 9.28 13a3.93 3.93 0 0 1-3.94-4.17 3.93 3.93 0 0 1 3.94-4.17zM25.12.27a8.31 8.31 0 0 0-8.62 8.56 8.31 8.31 0 0 0 8.62 8.55 8.32 8.32 0 0 0 8.65-8.55A8.32 8.32 0 0 0 25.12.27zm0 12.73c-2.26 0-3.78-1.68-3.78-4.17s1.52-4.17 3.78-4.17 3.81 1.67 3.81 4.17S27.37 13 25.12 13zM48.64.72h-3.21a.77.77 0 0 0-.77.77V8.6L39.08 1a.74.74 0 0 0-.62-.31h-3.29a.76.76 0 0 0-.77.77v15.08a.76.76 0 0 0 .77.77h3.2a.76.76 0 0 0 .77-.77V9.08L44.93 17a.75.75 0 0 0 .62.32h3.09a.76.76 0 0 0 .77-.77v-15a.76.76 0 0 0-.77-.77V.72zm9.01 5.76c-.89-.21-2.39-.57-2.39-.9 0-.67 1-.75 1.38-.75a5.69 5.69 0 0 1 3.85 1.45.78.78 0 0 0 1.14-.1l1.78-2.35a.77.77 0 0 0-.09-1A9.07 9.07 0 0 0 56.93.52c-3.75 0-6.48 2.25-6.48 5.35 0 4 3.69 4.85 6.13 5.43 1.19.28 2.54.6 2.54 1.07 0 .47-.64.9-1.85.9A5.82 5.82 0 0 1 53 11.45a.77.77 0 0 0-1.18.09L50.12 14a.77.77 0 0 0 .08 1 9.41 9.41 0 0 0 6.91 2.62c5 0 6.8-2.89 6.8-5.6 0-4-3.77-4.9-6.26-5.5v-.04zM78.82.87h-3.27a.77.77 0 0 0-.77.77v8.93a2.76 2.76 0 0 1-5.52 0V1.64a.76.76 0 0 0-.77-.77h-3.25a.76.76 0 0 0-.77.77v9.05c0 4.41 2.83 7 7.56 7 4.73 0 7.56-2.64 7.56-7.07v-9a.76.76 0 0 0-.77-.77v.02zm19.35-.2h-4.52a.76.76 0 0 0-.71.48L90 8.46l-2.94-7.31a.77.77 0 0 0-.72-.48h-4.49a.77.77 0 0 0-.77.77v15.05a.78.78 0 0 0 .77.77h3.2a.78.78 0 0 0 .78-.77V9.93l2.75 6.84a.77.77 0 0 0 .72.49h1.4a.77.77 0 0 0 .71-.49l2.76-6.84v6.56c0 .425.345.77.77.77h3.23a.78.78 0 0 0 .77-.77v-15a.77.77 0 0 0-.77-.77V.67zm13.49 0H101a.77.77 0 0 0-.77.77v15.05a.78.78 0 0 0 .77.77h10.66a.78.78 0 0 0 .77-.77v-2.82a.77.77 0 0 0-.77-.77H105V11h6.52a.77.77 0 0 0 .77-.77V7.44a.77.77 0 0 0-.77-.77H105V5h6.68a.78.78 0 0 0 .77-.77V1.44a.77.77 0 0 0-.77-.77h-.02zM127.22 16l-2.84-4.81a5.13 5.13 0 0 0 2.93-4.88 5.48 5.48 0 0 0-5.83-5.62h-7a.77.77 0 0 0-.77.77v15.03a.78.78 0 0 0 .77.77h3.21a.78.78 0 0 0 .77-.77v-4.58h1.12l2.73 4.95a.78.78 0 0 0 .68.4h3.69a.77.77 0 0 0 .77-.77.75.75 0 0 0-.19-.51l-.04.02zm-8.76-11.02H121c.72 0 1.48.33 1.48 1.26 0 .93-.76 1.26-1.48 1.26h-2.59l.05-2.52zm18.99-4.2a.17.17 0 0 0-.16-.11h-2.14a.19.19 0 0 0-.16.11L128.47 17a.15.15 0 0 0 0 .16.18.18 0 0 0 .15.07h1.63a.17.17 0 0 0 .16-.1l1.41-3.54a.18.18 0 0 1 .18-.12h8.44a.18.18 0 0 1 .18.12l1.38 3.57c.03.06.092.1.16.1h1.64a.16.16 0 0 0 .14-.07.18.18 0 0 0 0-.16L137.45.78zm-1.39 1.82a.19.19 0 0 1 .17-.12.2.2 0 0 1 .18.12l3.59 9.13a.22.22 0 0 1 0 .18.21.21 0 0 1-.16.08h-7.2a.21.21 0 0 1-.16-.08.22.22 0 0 1 0-.18l3.58-9.13zM155.18.67h-10.4a.17.17 0 0 0-.17.18v16.24a.16.16 0 0 0 .17.17h1.39a.16.16 0 0 0 .17-.17V9.72a.19.19 0 0 1 .19-.19H155a.18.18 0 0 0 .17-.18V8.2A.18.18 0 0 0 155 8h-8.47a.19.19 0 0 1-.19-.19V2.37a.19.19 0 0 1 .19-.19h8.65a.18.18 0 0 0 .17-.18V.85a.18.18 0 0 0-.17-.18zM167 9.36V8.2c0-.1-.08-.18-.18-.18h-8.47a.19.19 0 0 1-.19-.19V2.37a.19.19 0 0 1 .19-.19H167a.18.18 0 0 0 .17-.18V.85a.18.18 0 0 0-.17-.18h-10.39a.18.18 0 0 0-.18.18v16.24a.17.17 0 0 0 .18.17H158a.16.16 0 0 0 .17-.17V9.72a.19.19 0 0 1 .19-.19h8.47a.18.18 0 0 0 .18-.17H167zm7-8.58a.19.19 0 0 0-.16-.11h-2.14a.19.19 0 0 0-.16.11L165 17a.18.18 0 0 0 0 .16.17.17 0 0 0 .15.07h1.63a.17.17 0 0 0 .16-.1l1.41-3.54a.18.18 0 0 1 .18-.12H177a.18.18 0 0 1 .17.12l1.41 3.54c.03.06.092.1.16.1h1.64a.15.15 0 0 0 .14-.07.18.18 0 0 0 0-.16L174 .78zm-1.39 1.82a.19.19 0 0 1 .17-.12.19.19 0 0 1 .17.12l3.59 9.13a.19.19 0 0 1 0 .18.18.18 0 0 1-.15.08h-7.2a.21.21 0 0 1-.16-.08.22.22 0 0 1 0-.18l3.58-9.13zM183.48.67h-1.39a.17.17 0 0 0-.17.18v16.24a.16.16 0 0 0 .17.17h1.39a.17.17 0 0 0 .17-.17V.85a.18.18 0 0 0-.17-.18zm9.87 9.67a4.47 4.47 0 0 0 4.23-4.74 4.76 4.76 0 0 0-5.13-4.93H186c-.1 0-.18.08-.18.18v16.24a.17.17 0 0 0 .18.17h1.38a.17.17 0 0 0 .18-.17v-6.38a.19.19 0 0 1 .18-.19h3.39a.17.17 0 0 1 .16.09l4.22 6.57a.16.16 0 0 0 .14.08h1.62a.17.17 0 0 0 .16-.09.17.17 0 0 0 0-.17l-4.21-6.36a.19.19 0 0 1 0-.19.21.21 0 0 1 .15-.11h-.02zm-5.77-8a.18.18 0 0 1 .18-.19h4.46a3.34 3.34 0 0 1 3.57 3.42A3.35 3.35 0 0 1 192.2 9h-4.46a.18.18 0 0 1-.18-.19l.02-6.47zm17.09 5.43c-2.17-.59-4.22-1.15-4.22-3s1.51-2.89 3.68-2.89a6.8 6.8 0 0 1 4.76 1.81.24.24 0 0 0 .13 0 .2.2 0 0 0 .13-.06l.81-1a.18.18 0 0 0 0-.24 7.93 7.93 0 0 0-5.67-2.07c-3.32 0-5.64 1.86-5.64 4.52 0 3.12 2.8 3.88 5.5 4.62 2.24.6 4.55 1.23 4.55 3.39 0 1.44-1.09 3.12-4.18 3.12a7.26 7.26 0 0 1-5.19-2.18.16.16 0 0 0-.14-.05.15.15 0 0 0-.12.07l-.8 1a.17.17 0 0 0 0 .23 8.23 8.23 0 0 0 6.16 2.41c5.63 0 6.07-3.67 6.07-4.8 0-3.42-3-4.23-5.83-5v.12z" fill="#0B6BA1"/></svg>