<svg width="254" height="195" xmlns="http://www.w3.org/2000/svg"><g fill="none" fill-rule="evenodd"><path d="M4.7 140.1c-3.5 0-4.2-1.5-4.2-4.2v-26.2c0-1.1 0-2.3 1.1-3.2 1-.7 2.3-.8 3.3-.8h7.2c3.9 0 9.2.1 13.1 4.4 3.1 3.4 4.4 8 4.4 12.6 0 4.2-1.1 8.4-3.7 11.8-4 5.3-9.6 5.5-14 5.6H4.7zm3.6-28v21.7H12c2 0 4.2 0 6-1.3 2.8-1.9 3.6-6.3 3.6-9.8 0-2.8-.4-5-1.2-6.5-1.9-3.9-5.2-4-9.3-4.1H8.3zm30.6 17.6c.1 1.2.4 2.6 1.6 3.9 1.6 1.7 3.4 1.7 4 1.7 2 0 2.9-.7 3.5-1.2.3-.3.5-.6.9-.8.7-.6 1.5-.8 2.1-.8 1.7 0 3.2 1.5 3.2 3.2 0 1-.5 2.1-2 3.1-2.2 1.6-5.1 2.2-7.9 2.2-9.5 0-12.8-7.1-12.8-13.2 0-7.5 4.9-13.4 12.9-13.4 9 0 11.6 7.2 11.6 12 0 3.3-1.8 3.3-3.1 3.4h-14v-.1zm10.3-5.4c-.2-.8-.3-1.7-.9-2.5-.9-1.4-2.4-2-4.1-2-3.9 0-4.7 2.9-5.3 4.5h10.3zm31.4 10.8c0 1.9-.1 5.4-3.6 5.4-2.3 0-2.9-1.7-3.3-2.9-.5.5-.8.8-1.5 1.3-2 1.3-4.2 1.9-6.4 1.9-5.4 0-8.8-3.2-8.8-8 0-1.4.3-2.4.5-3 .7-1.8 1.9-2.6 2.6-3.1 2-1.2 4-1.6 9.5-2.5 2.5-.4 3.5-.7 3.5-2 0-2.2-3.1-2.2-4-2.2-2.9 0-3.5.8-4.2 1.8-.3.4-1.2 1.4-2.6 1.4-1.6 0-3.2-1.2-3.2-3 0-2.3 2.6-5.7 10.6-5.7 4.5 0 6.7 1.1 8 2.3 2.8 2.4 2.8 5.6 2.8 8v10.3h.1zm-7.1-7.2c-1 .4-1.4.6-4.7 1.2-2 .4-4.5 1-4.5 3.4 0 1.7 1.4 2.7 3.4 2.7.7 0 1.8-.1 3-.7 1.9-.9 2.5-2 2.9-2.6v-4h-.1zm17.4 8.2c0 1 0 4.3-3.6 4.3s-3.6-2.9-3.6-4.3v-26.8c0-1.1.1-2.4 1.2-3.4.6-.5 1.4-.8 2.3-.8.2 0 .8 0 1.5.3 2 .8 2 2.7 2.1 4v26.7h.1zm11.1-6.4c.1 1.2.4 2.6 1.6 3.9 1.6 1.7 3.4 1.7 4 1.7 2 0 2.9-.7 3.5-1.2.3-.3.5-.6.9-.8.7-.6 1.5-.8 2.1-.8 1.7 0 3.2 1.5 3.2 3.2 0 1-.5 2.1-2 3.1-2.2 1.6-5.1 2.2-7.9 2.2-9.5 0-12.8-7.1-12.8-13.2 0-7.5 4.9-13.4 12.9-13.4 9 0 11.6 7.2 11.6 12 0 3.3-1.8 3.3-3.1 3.4h-14v-.1zm10.3-5.4c-.2-.8-.3-1.7-.9-2.5-.9-1.4-2.4-2-4.1-2-3.9 0-4.7 2.9-5.3 4.5h10.3zm9.1-5.2c0-1.2 0-2.5 1.1-3.6.4-.4 1.2-.9 2.4-.9.6 0 1.2.1 1.5.3 1.9.9 1.9 3.1 1.9 4v.6c.2-.8.5-1.5 1-2.2 1.1-1.9 3-2.9 5.1-2.9 2.6 0 3.6 1.6 3.6 3.3 0 .9-.3 1.8-.8 2.3-.7.7-1.7.9-2.6.9-.7 0-1.3 0-2 .1-3.8.6-3.8 4.5-3.9 7.2v7.7c0 1.1 0 2.6-1 3.6-.6.6-1.6 1-2.6 1-.3 0-.7 0-1.3-.2-2.4-.7-2.5-2.9-2.5-4.4v-16.8h.1z" fill="#E36F1E" fill-rule="nonzero"/><path d="M155.7 105.7c3.4 0 6.8.1 9.6 2.4 3 2.4 3.1 5.8 3.1 6.9 0 3.6-1.3 6.7-4.6 8-.6.2-1.2.4-1.9.6.6.1 1.3.3 1.9.6 2.1 1.1 2.7 3.4 3.2 6.4.1.9.2 1.8.4 2.7.1.6.2 1.2.4 1.8.1.4.3.8.4 1.2.2.6.2.9.2 1.1 0 1.6-1.2 3.2-3.6 3.2-4 0-4.6-3.7-5-6.3l-.3-2.4c-.6-4-2.1-4.3-5.5-4.4h-5.3v8.3c0 1.1 0 2.3-.8 3.4-1 1.4-2.4 1.4-3 1.4-.6 0-1.1-.1-1.6-.2-2.3-.9-2.3-3.2-2.3-4.5v-25c0-1.3 0-2.9 1.1-4 1.1-1.2 2.8-1.2 4-1.2h9.6zm-7.1 6.4v9.1h5.5c1.6 0 3.3 0 4.7-.9 1.2-.7 2-2 2-3.9 0-.6 0-1.9-.9-2.9-1.2-1.4-3.1-1.5-5.7-1.5h-5.6v.1zm44.8 23c0 1.9-.1 5.4-3.6 5.4-2.3 0-2.9-1.7-3.3-2.9-.5.5-.8.8-1.5 1.3-2 1.3-4.2 1.9-6.4 1.9-5.4 0-8.8-3.2-8.8-8 0-1.4.3-2.4.5-3 .7-1.8 1.9-2.6 2.6-3.1 2-1.2 4-1.6 9.5-2.5 2.5-.4 3.5-.7 3.5-2 0-2.2-3.1-2.2-4-2.2-2.9 0-3.5.8-4.2 1.8-.3.4-1.2 1.4-2.6 1.4-1.6 0-3.2-1.2-3.2-3 0-2.3 2.6-5.7 10.6-5.7 4.5 0 6.7 1.1 8 2.3 2.8 2.4 2.8 5.6 2.8 8v10.3h.1zm-7.1-7.2c-1 .4-1.4.6-4.7 1.2-2 .4-4.5 1-4.5 3.4 0 1.7 1.4 2.7 3.4 2.7.7 0 1.8-.1 3-.7 1.9-.9 2.5-2 2.9-2.6v-4h-.1zm18.5-13.1c2.1 0 2.5 0 3.2.3.4.2 1.4.9 1.4 2.4 0 .5-.1.9-.3 1.3-.7 1.4-1.7 1.4-4.2 1.4v12.1c0 2.1.8 2.4 2.5 2.4 2 0 2.4 1.5 2.4 2.5 0 3-3.4 3.2-5.3 3.2-6.6 0-6.7-3.9-6.7-6.8v-13.5c-.8 0-1.6 0-2.3-.3-.2-.1-1.3-.7-1.3-2.4 0-.4 0-.9.2-1.2.7-1.5 2.1-1.5 3.4-1.5v-3.5c0-1.1 0-2.4.9-3.4.2-.2 1-1.1 2.6-1.1.5 0 1 .1 1.4.2 2.1.8 2.1 2.9 2.1 4.3v3.6zm13.2 14.9c.1 1.2.4 2.6 1.6 3.9 1.6 1.7 3.4 1.7 4 1.7 2 0 2.9-.7 3.5-1.2.3-.3.5-.6.9-.8.7-.6 1.5-.8 2.1-.8 1.7 0 3.2 1.5 3.2 3.2 0 1-.5 2.1-2 3.1-2.2 1.6-5.1 2.2-7.9 2.2-9.5 0-12.8-7.1-12.8-13.2 0-7.5 4.9-13.4 12.9-13.4 9 0 11.6 7.2 11.6 12 0 3.3-1.8 3.3-3.1 3.4h-14v-.1zm10.2-5.4c-.2-.8-.3-1.7-.9-2.5-.9-1.4-2.4-2-4.1-2-3.9 0-4.7 2.9-5.3 4.5h10.3zm9.1-5.2c0-1.2 0-2.5 1.1-3.6.4-.4 1.2-.9 2.4-.9.6 0 1.2.1 1.5.3 1.9.9 1.9 3.1 1.9 4v.6c.2-.8.5-1.5 1-2.2 1.1-1.9 3-2.9 5.1-2.9 2.6 0 3.6 1.6 3.6 3.3 0 .9-.3 1.8-.8 2.3-.7.7-1.7.9-2.6.9-.7 0-1.3 0-2 .1-3.8.6-3.8 4.5-3.9 7.2v7.7c0 1.1 0 2.6-1 3.6-.6.6-1.6 1-2.6 1-.3 0-.7 0-1.3-.2-2.4-.7-2.5-2.9-2.5-4.4v-16.8h.1z" fill="#002D62" fill-rule="nonzero"/><path d="M122.5 6.6c-51.2 0-92.7 41.3-93.1 92.3h9.3c.4-45.9 37.8-83 83.8-83s83.4 37.1 83.8 83h9.3c-.4-51.1-42-92.3-93.1-92.3z" stroke="#BEC0C2" stroke-width="4" fill="#BEC0C2" fill-rule="nonzero"/><path d="M122.5 183.6c-25.2 0-47.7-11.1-63.1-28.7h-12c17 23 44.3 38 75.1 38 30.8 0 58.1-15 75.1-38h-12c-15.4 17.6-38 28.7-63.1 28.7z" stroke="#BEC0C2" stroke-width="3" fill="#BEC0C2" fill-rule="nonzero"/><path d="M238.5 1.6c2.1 2.2-.2 3.5-1.6 4.2-2.7 1.6-4.8 2.9-7.6 4.4-13.7 7.2-24.6 14.2-36.6 23.6-3.4 2.7-13.4 11.2-16.9 14.1-1.9 1.6-13.8 13.3-16.2 15.7-8.8 8.8-16 17-23.4 27.5-2.5 3.5-5.7 9.5-9.4 10.9-6.4 2.4-9.4-3.8-11.6-7.5-6.6-10.9-17.1-20.1-29-25.7-2.4-1.2-5.1-2.1-7.9-3-4-1.3-7.3-2.3-10.3-4.5-.9-.7-2-2.8-1.7-4.5.5-3.4 7-3.7 11.6-3.4 10.4.6 19 4.9 26.2 9.7 7.4 5 13.1 11.5 18.7 17.2 5.4-5.4 10.3-11.5 15.7-17.2 4.6-4.9 9.4-9.6 14.2-14.6.6-.6 4.3-4.2 5.6-5.4 3.9-3.6 7.8-7.3 12.2-10.7 5.6-4.4 11.8-8.3 18.2-12.2 9-5.4 19.6-11.3 30.5-15.4 5.7-2.4 12.6-5.9 19.3-3.2z" fill="#E36F1E"/><path d="M210.1 148.7c2.9 0 5.1 2.2 5.1 5.1 0 2.9-2.2 5.2-5.2 5.2-2.9 0-5.2-2.2-5.2-5.2 0-2.8 2.3-5.1 5.3-5.1zm-.1.9c-2.3 0-4.1 1.9-4.1 4.2 0 2.4 1.8 4.2 4.1 4.2s4-1.9 4-4.2c.1-2.3-1.6-4.2-4-4.2zm-.9 7h-1v-5.3c.5-.1 1.1-.2 1.9-.2.9 0 1.3.2 1.7.4.3.2.5.6.5 1.2s-.5 1.1-1 1.2v.1c.4.2.7.6.9 1.3.2.8.3 1.1.4 1.3h-1c-.2-.2-.3-.7-.4-1.4-.1-.6-.5-.9-1.2-.9h-.6v2.3h-.2zm0-3h.7c.7 0 1.4-.2 1.4-.8 0-.5-.4-.9-1.3-.9-.4 0-.6 0-.8.1v1.6z" fill="#002D62" fill-rule="nonzero"/></g></svg>