<svg width="244" height="29" xmlns="http://www.w3.org/2000/svg" xmlns:xlink="http://www.w3.org/1999/xlink"><defs><path id="a" d="M0 0h123.57v27.149H0"/><path id="c" d="M0 0h123.57v27.149H0"/><path id="e" d="M0 0h123.57v27.149H0z"/><path id="g" d="M0 0h123.57v27.149H0"/></defs><g fill="none" fill-rule="evenodd"><g fill="#FFF" fill-rule="nonzero"><path d="M71.407 8.665c0 1.454-.524 2.319-1.492 3.406l-8.664 9.795v3.945H75.17v-3.342H64.998l7.393-8.156c1.888-2.072 2.778-3.3 2.778-5.613 0-2.04-.664-3.75-1.92-4.944-1.238-1.178-2.968-1.801-5.004-1.801-1.79 0-3.46.55-4.698 1.548-1.265 1.022-2.039 2.499-2.242 4.276h3.807c.343-1.558 1.507-2.484 3.133-2.484 1.92 0 3.162 1.323 3.162 3.37zm1.914 6.57l-5.345 5.896h8.477v6.018H59.966v-5.807l9.005-10.178c.797-.895 1.152-1.468 1.152-2.5 0-1.31-.667-2.031-1.878-2.031-1.143 0-1.811.61-1.932 1.763l-.075.721H59.94l.038-.846c.115-2.434 1.077-4.449 2.783-5.826 1.463-1.179 3.41-1.828 5.484-1.828 2.362 0 4.392.744 5.87 2.15 1.53 1.456 2.339 3.507 2.339 5.933 0 2.885-1.24 4.46-3.133 6.534v.001zm19.857 6.117v4.456h-3.19v-4.456h-9.795V17.35L87.96 2.575h5.217v15.307h2.777v3.47h-2.777.001zm1.293-4.812V1.234h-7.278l-8.238 15.668-.056.106v5.684h9.796v4.456h5.776v-4.456h2.777v-6.153h-2.777v.001zM57.675 1.851H39.144v4.936h6.769v20.979h5.424V6.786h6.767V1.852l-.429-.001zM27.133 19.207h5.678l-2.842-9.079-2.836 9.079zm8.242 8.559l-1.188-4.001h-8.409l-1.209 4H18.96l8.99-25.914h4.038l8.99 25.915h-5.603zM0 27.766V1.851h16.514v4.936H5.392v5.548h9.502v4.935H5.392v5.56h11.122v4.936H0z"/><path d="M87.527 16.526h-2.438l2.438-5.282v5.282zm1.158-7.435v-1.07h-.983l-4.52 9.872h5.504V9.091h-.001z"/></g><path d="M205.879.617h-4.343a.442.442 0 0 0-.435.45v9.948h-4.404V1.067a.443.443 0 0 0-.434-.45h-4.344a.443.443 0 0 0-.434.45v25.631c0 .25.194.45.434.45h4.344c.24 0 .434-.2.434-.45V16.399h4.404v10.3c0 .248.194.45.435.45h4.343c.24 0 .434-.202.434-.45V1.067a.442.442 0 0 0-.433-.45" fill="#FFF" fill-rule="nonzero"/><g transform="translate(120.43 .617)"><mask id="b" fill="#fff"><use xlink:href="#a"/></mask><path d="M50.227 0h-4.48c-.242 0-.438.175-.438.39v18.003c0 .856-.198 1.537-.587 2.025-.361.453-.842.674-1.471.674-.629 0-1.11-.22-1.472-.674-.389-.488-.586-1.17-.586-2.025v-.028l-.009-6.26V.39c0-.214-.196-.389-.437-.389h-4.473c-.241 0-.437.175-.437.39v18.051c0 2.379.569 4.487 1.909 5.914 1.36 1.449 3.285 2.175 5.505 2.175 2.22 0 4.145-.726 5.505-2.175 1.34-1.427 1.91-3.535 1.91-5.914V.389c0-.214-.197-.389-.439-.389" fill="#FFF" fill-rule="nonzero" mask="url(#b)"/></g><g transform="translate(120.43 .617)"><mask id="d" fill="#fff"><use xlink:href="#c"/></mask><path d="M7.414 0C5.194 0 3.27.732 1.91 2.19.57 3.629 0 5.752 0 8.149V19c0 2.397.57 4.52 1.91 5.958 1.36 1.46 3.284 2.191 5.504 2.191 2.22 0 4.146-.732 5.505-2.19 1.34-1.438 1.91-3.562 1.91-5.958v-5.97a.454.454 0 0 0-.45-.458H7.876a.468.468 0 0 0-.467.458v4.43c0 .254.218.46.467.46h1.697v1.002c0 .91-.206 1.636-.614 2.156-.38.482-.885.717-1.545.717-.66 0-1.164-.235-1.544-.717-.408-.52-.632-1.245-.632-2.155V8.199c0-.91.224-1.636.632-2.155.38-.483.885-.71 1.544-.71.66 0 1.165.227 1.545.71.408.52.614 1.245.614 2.155v1.006c0 .217.196.392.438.392h4.38c.241 0 .438-.175.438-.392V8.148c0-2.396-.57-4.52-1.91-5.957C11.56.73 9.634 0 7.414 0zm55.472 20.447c-.356.464-.863.688-1.552.688h-2.468v-5.473h2.468c.65 0 1.149.234 1.525.713.393.503.584 1.158.584 2.004 0 .89-.187 1.585-.557 2.068zm-4.02-15.048h2.17c.635 0 1.108.196 1.444.597.343.411.517 1.037.517 1.861 0 .853-.18 1.509-.536 1.947-.346.425-.812.633-1.425.633h-2.17V5.399zm7.199 7.428c.8-.745 2.071-2.65 2.071-4.97 0-2.706-.975-4.441-1.796-5.424C65.028.866 63.145.003 61.036.003L57.04 0h-2.857a.44.44 0 0 0-.428.45v25.632c0 .249.192.45.428.45h7.151c2.247 0 4.31-.959 5.647-2.702.772-1.008 1.602-2.772 1.602-5.451 0-3.09-1.812-4.968-2.518-5.551v-.001zm-39.164-2.44c-.422.501-.99.745-1.738.745h-2.085V5.4h2.085c.747 0 1.316.243 1.738.745.437.518.649 1.199.649 2.082 0 .922-.218 1.65-.649 2.16zm2.656 4.72l-.002-.002a7.33 7.33 0 0 0 1.22-1.147c.884-1.05 1.938-2.895 1.938-5.732 0-2.768-1.052-4.6-1.941-5.656C29.467 1.025 27.644.137 25.606.023v-.02h-.387c-.02 0-.037-.003-.056-.003v.003h-6.815a.44.44 0 0 0-.43.45v25.629c0 .249.193.45.43.45h4.3a.44.44 0 0 0 .43-.45V16.53h1.536l2.723 9.677c.049.188.217.32.412.324h4.567a.425.425 0 0 0 .347-.182.467.467 0 0 0 .065-.4l-3.17-10.842h-.001z" fill="#FFF" fill-rule="nonzero" mask="url(#d)"/></g><g transform="translate(120.43 .617)"><mask id="f" fill="#fff"><use xlink:href="#e"/></mask><path d="M117.88 20.447c-.356.464-.863.688-1.552.688h-2.468v-5.473h2.468c.65 0 1.149.234 1.524.713.394.503.585 1.158.585 2.004 0 .89-.187 1.585-.557 2.068zm-4.02-15.048h2.17c.635 0 1.108.196 1.444.597.343.411.517 1.037.517 1.861 0 .853-.18 1.509-.536 1.947-.346.425-.812.633-1.425.633h-2.17V5.399zm7.199 7.428c.8-.745 2.071-2.65 2.071-4.97 0-2.706-.975-4.441-1.796-5.424-1.312-1.567-3.195-2.43-5.304-2.43L112.034 0h-2.857a.44.44 0 0 0-.428.45v25.632c0 .249.192.45.428.45h7.151c2.247 0 4.31-.959 5.647-2.702.772-1.008 1.602-2.772 1.602-5.451 0-3.09-1.812-4.968-2.518-5.551v-.001z" fill="#FFF" fill-rule="nonzero" mask="url(#f)"/></g><g transform="translate(120.43 .617)"><mask id="h" fill="#fff"><use xlink:href="#g"/></mask><path d="M104.6 0h-4.48c-.242 0-.438.175-.438.39v18.003c0 .856-.198 1.537-.587 2.025-.361.453-.842.674-1.471.674-.629 0-1.11-.22-1.472-.674-.389-.488-.586-1.17-.586-2.025v-.028l-.009-6.26V.39c0-.214-.196-.389-.437-.389h-4.473c-.241 0-.437.175-.437.39v18.051c0 2.379.569 4.487 1.909 5.914 1.36 1.449 3.285 2.175 5.505 2.175 2.22 0 4.145-.726 5.505-2.175 1.34-1.427 1.91-3.535 1.91-5.914V.389c0-.214-.197-.389-.439-.389" fill="#FFF" fill-rule="nonzero" mask="url(#h)"/></g><path d="M108.83 1.617V27.5" stroke="#FFF" stroke-width="2" stroke-linecap="square"/></g></svg>