<svg xmlns="http://www.w3.org/2000/svg" id="svg8092" width="138" height="40" viewBox="0 0 79 23" class="header b2p-yellow-header"><style/><g id="logo" transform="translate(0 .001)" fill="#00355f"><g id="g8095"><g id="g8097"><path id="path8099" d="M37.812 17.422h-2.443c-.011 0-.018-.002-.024-.01l-2.105-2.57-2.106 2.57c-.005.008-.014.01-.023.01h-1.957c-.012 0-.021-.006-.03-.019-.004-.007-.003-.021.004-.03l3.102-3.809-3.065-3.772a.037.037 0 0 1-.005-.036c.005-.007.017-.018.026-.018h2.445c.007 0 .017.004.023.014l1.847 2.29 1.879-2.291a.027.027 0 0 1 .023-.013h1.992c.012 0 .024.011.029.018a.034.034 0 0 1-.005.036l-2.909 3.494 3.324 4.087c.007.01.011.023.004.03a.03.03 0 0 1-.026.019z"/><path id="path8101" d="M54.583 14.061a.037.037 0 0 1-.027.015h-5.592c.117 1.302.962 2.043 2.33 2.043.843 0 1.738-.288 3.002-.96.023-.013.047.006.047.03l-.003 1.72c-.002.014-.008.023-.018.026-1.177.496-2.358.834-3.286.834-2.408 0-4.154-1.755-4.154-4.172s1.746-4.171 4.154-4.171c2.196 0 3.607 1.48 3.607 3.516 0 .329-.058 1.095-.06 1.119zm-3.548-2.969c-1.082 0-1.822.656-2.032 1.798h3.681v-.074c0-.913-.673-1.724-1.649-1.724z"/><path id="path8103" d="M64.937 17.422c-.02 0-.032-.012-.032-.031v-7.62c0-.016.011-.028.024-.032h2.02c.017.004.025.016.025.032v7.62c0 .02-.013.031-.029.031h-2.008zm1.004-9.27c-.686 0-1.244-.55-1.244-1.225 0-.696.558-1.26 1.244-1.26.686 0 1.244.564 1.244 1.26a1.235 1.235 0 0 1-1.244 1.225z"/><path id="path8105" d="M42.055 9.427a5.32 5.32 0 0 0-1.749.312h-2.01c-.017 0-.028.014-.028.032v12.496a4.641 4.641 0 0 0 2.073-.813v-3.801c.495.07.904.117 1.3.117 2.751 0 4.533-1.65 4.533-4.205-.002-2.437-1.696-4.138-4.119-4.138zm-.55 6.847c-.364 0-.737-.052-1.165-.166l.004-4.89c.502-.159.939-.235 1.371-.235 1.4 0 2.339 1.033 2.339 2.567 0 1.656-1.001 2.724-2.549 2.724z"/><path id="path8107" d="M61.26 5.704v3.989a5.84 5.84 0 0 0-1.633-.247c-2.396 0-4.204 1.807-4.204 4.205 0 2.387 1.595 4.119 3.791 4.119.76 0 1.472-.191 2.309-.622l-.002.688a4.58 4.58 0 0 0 1.812-.77V4.888a4.46 4.46 0 0 0-2.073.816zm0 9.938c-.63.33-1.192.487-1.72.487-1.247 0-1.994-.881-1.994-2.356 0-1.707.954-2.811 2.429-2.811.407 0 .804.1 1.285.318v4.362z"/><path id="path8109" d="M76.047 9.646a.087.087 0 0 0-.087-.085l-1.631.003a.09.09 0 0 0-.09.087v.279h-.041c-.754-.331-1.397-.484-2.029-.484-2.258 0-4.029 1.875-4.029 4.273 0 2.424 1.585 4.05 3.943 4.05.63 0 1.439-.043 2.196-.914v.98a4.701 4.701 0 0 0 1.766-.772l.002-7.417zm-2.075 5.98c-.609.351-1.131.521-1.597.521-1.334 0-2.134-.878-2.134-2.359 0-1.681.942-2.81 2.342-2.81.375 0 .83.144 1.389.439v4.209z"/><path id="path8111" d="M23.565 15.515l5.07-.001a4.574 4.574 0 0 1-.708 1.906h-4.351l-.866-.001-.058.001c-.646 0-1.177-.5-1.24-1.133-.003-.009-.007-.019-.008-.027v-10c0-.008.005-.019.008-.024a1.256 1.256 0 0 1 1.24-1.136l.058.002 5.914-.001a4.648 4.648 0 0 1-.709 1.919h-4.35v2.723h4.307a.03.03 0 0 1 .031.03v1.888a.03.03 0 0 1-.031.03h-4.307v3.824z"/></g><g id="g8113"><path id="path8115" d="M17.218 15.738a.939.939 0 0 0-.952.969c0 .55.396.965.952.965a.936.936 0 0 0 .947-.965.938.938 0 0 0-.947-.969zm0 1.84c-.501 0-.811-.392-.811-.871 0-.514.355-.871.811-.871.452 0 .806.357.806.871 0 .513-.354.871-.806.871z"/><path id="path8117" d="M17.668 16.462c0-.231-.142-.329-.418-.329h-.435v1.146h.189v-.49h.176l.297.49h.212l-.321-.503c.174-.022.3-.106.3-.314zm-.677.165v-.353h.238c.121 0 .263.017.263.164 0 .175-.132.188-.281.188h-.22z"/></g><g id="g8119"><path id="path8121" d="M77.714 9.167a.939.939 0 0 0-.952.969c0 .55.396.965.952.965a.937.937 0 0 0 .946-.965.938.938 0 0 0-.946-.969zm0 1.84c-.501 0-.812-.392-.812-.871 0-.514.355-.872.812-.872.451 0 .805.358.805.872.001.513-.354.871-.805.871z"/><path id="path8123" d="M78.164 9.891c0-.231-.143-.33-.418-.33h-.435v1.146h.188v-.49h.177l.297.49h.212l-.32-.503c.171-.02.299-.105.299-.313zm-.678.165v-.352h.238c.121 0 .263.017.263.163 0 .175-.132.188-.28.188h-.221z"/></g><g id="g8125"><path id="path8127" d="M10.678 7.012l-.367-1.041-3.119-4.167.56-.14 5.377 4.648 3.164-.906a4.59 4.59 0 0 1 1.115-.114A9.098 9.098 0 0 0 12.192.531C7.442-1.162 2.22 1.32.53 6.071A9.104 9.104 0 0 0 .104 10.5l7.579-2.632 2.995-.856z"/><path id="path8129" d="M17.742 6.114c-.278.18-.686.417-1.091.547l-3.171.905-2.116 6.792-.55.179.448-5.187-.25-1.078-2.97.848-7.854 1.849a9.128 9.128 0 0 0 5.881 6.766c4.75 1.693 9.97-.789 11.66-5.538a9.096 9.096 0 0 0 .013-6.083z"/><path id="path8131" d="M11.013 8.271l.25 1.078-.448 5.187.55-.179 2.116-6.792 3.171-.905c.405-.129.813-.367 1.091-.547a9.274 9.274 0 0 0-.333-.821 4.59 4.59 0 0 0-1.115.114l-3.164.906-5.379-4.648-.56.14 3.119 4.167.367 1.041-2.995.856L.104 10.5c.024.157.051.314.083.469L8.042 9.12l2.971-.849z" fill="#fff"/></g></g></g></svg>