<svg width="920" height="257" xmlns="http://www.w3.org/2000/svg"><g fill="#FFF"><path d="M190.7 42.6c4.1-4.8 6.8-9.9 6.8-15.2 0-8.9-7.4-14.6-16.4-14.6-8.4 0-15.4 5.4-16.7 14.6l-12.3-3c2.4-15 14.6-24.4 29-24.4 16.1 0 29 11 29 27.3 0 8.9-4.1 17.1-10.1 23.9-11.9 14.1-12.1 14.7-25 29.8h35.3v12.7h-57.1V88l37.5-45.4z"/><path d="M153.2 156l.1-46.4h100.8c1 6.5 1.5 13.1 1.5 19.8 0 70.3-57.2 127.5-127.5 127.5S.6 199.7.6 129.4 57.8 1.9 128.1 1.9v45c-45.5 0-82.5 37-82.5 82.5s37 82.5 82.5 82.5c36.2 0 67.1-23.4 78.2-56l-53.1.1zm196.7-32.1c0-33.6 2.1-47.2 7.6-55.5 7-10.3 20.4-15.9 38-15.9 15.5 0 28.5 4.5 35.3 12.6 5.2 5.8 7.4 13.8 7.4 26.4v7.6h-28.5c-.4-14.4-.8-16.9-2.9-20-2.3-3.5-6.6-5.6-11.8-5.6-5.6 0-10.3 2.5-12.2 6.2-2.9 5.8-3.7 16.3-3.7 44.1 0 22.9 1 36.3 2.9 41.9 1.6 4.7 6.4 7.4 12.6 7.4 11.1 0 14.2-5.6 15.1-26.8h28.5c-.2 17.9-1.2 25.2-5 32.2-5.2 10.1-19 15.7-38.8 15.7-23.1 0-37.1-8.5-41.7-25-1.7-6.8-2.8-22.8-2.8-45.3zm104.8-69.3h44.1c21.2 0 25 .8 32.4 6.8 6.6 5.4 9.9 14.4 9.9 27.6 0 11.1-2.3 19.6-6.6 25.4-3.7 5-8.2 7.2-17.9 9.3 18.4 2.3 24.8 10.9 25 34 0 3.7.4 11.3.8 20.8.4 6.6.6 7.8 2.3 13.6h-30.3c-1.2-8.9-1.2-9.1-1.2-26 0-16.5-1.2-24.8-4.5-28.5-2.3-2.5-4.7-3.1-12-3.1h-13.8V192h-28V54.6h-.2zm39.6 59.6c12.8 0 17.5-5.4 17.5-19.8 0-7.6-2.1-13.8-5.4-16.7-2.5-2.1-4.3-2.5-11.3-2.5h-12.4v39h11.6zm64.6 9.1c0-32 1.4-43.1 7-52.8 6.6-11.8 20.2-17.9 39.6-17.9 21.5 0 36.1 8 41.7 23.1 2.9 7.4 4.1 21.9 4.1 48.3 0 28.9-1.4 42.5-5.4 50.3-6.6 13-20.6 20-40.2 20s-33-6-39.8-17.9c-5.6-9.6-7-21-7-53.1zm46.2 49.9c8.5 0 13.6-4.1 15.3-12.2 1-5.2 1.9-23.1 1.9-42.3 0-20.6-1-32.8-3.1-37.7-1.9-4.5-7.2-7.4-14-7.4-7.8 0-13.2 3.5-14.8 9.5-1.4 5.8-2.3 20-2.3 41.9 0 18.2.6 30.1 1.6 35.9 1.6 8.1 6.7 12.3 15.4 12.3zm55.5-118.6h28.7l9.3 50.1c3.3 18.2 4.1 34.7 5.6 66.4 5.8-42.1 7.6-53.8 10.3-66.4l10.9-50.1h32.2l10.3 50.1c4.7 22.9 5.8 38.4 7.2 66.4 1.9-23.3 3.7-40.4 8.2-66.4l8.9-50.1h25.2l-27.6 137.6h-31.1l-13-63.9c-2.3-11.1-5-37.1-5.6-51.2-4.1 30.9-4.3 35.3-7.6 51.2l-13.4 63.9h-31.8L660.6 54.6zm168.9 0h38.4c22.3 0 29.1 1.2 36.1 6.2 8.7 6.4 13 17.5 14.9 39.2.6 8.5 1 19.4 1 29.1 0 24.8-1.7 36.9-5.8 45-5.8 11.6-19 18.2-36.1 18.2h-48.5V54.6zm41 115.9c9.9 0 15.3-2.3 17.3-7.4 2.1-5.4 2.7-13.4 2.7-35.9 0-24.5-.8-35.3-3.1-42.1-2.1-5.8-7.6-8.9-16.1-8.9h-12.8v94.3h12zM299.2.5h9.1v253.8h-9.1V.5z"/></g></svg>