<svg width="733" height="237" xmlns="http://www.w3.org/2000/svg"><defs><style>.cls-1{fill:#fff}</style><mask id="mask" x="592.62" y="0" width="289" height="260" maskUnits="userSpaceOnUse"><g id="svg_1" filter="url(#luminosity-invert-noclip)"><path class="cls-1" d="M658.93 163.74h47v6.79h-55.1V75.41h8.1v88.33z" id="svg_2"/><path class="cls-1" d="M756.49 170.54a37 37 0 0 1-1.5-9.87 27.25 27.25 0 0 1-10.49 8.26 32.13 32.13 0 0 1-13.5 2.91q-10.19 0-16.5-5.68a18.51 18.51 0 0 1-6.3-14.37 18.92 18.92 0 0 1 8.59-16.33q8.59-6 23.94-6h14.18v-8q0-7.58-4.67-11.92t-13.62-4.34q-8.17 0-13.52 4.18t-5.36 10.06l-7.84-.06q0-8.43 7.84-14.6T737 98.54q11.82 0 18.65 5.91t7 16.5v33.45q0 10.26 2.16 15.35v.78h-8.36l.04.01zm-24.61-5.63a26.24 26.24 0 0 0 14-3.79 22.29 22.29 0 0 0 9-10.13v-15.54h-14q-11.7.13-18.29 4.28t-6.6 11.4a12.64 12.64 0 0 0 4.41 9.87q4.47 3.92 11.52 3.92l-.04-.01z" id="svg_3"/><path class="cls-1" d="M832.81 135.91q0 16.53-7.32 26.23a23.37 23.37 0 0 1-19.67 9.7q-14.77 0-22.34-11l-.33 9.67h-7.32V70.18h7.77v39.92q7.45-11.56 22.08-11.56 12.54 0 19.83 9.57t7.28 26.62v1.18h.02zm-7.81-1.37q0-14-5.42-21.59t-15.29-7.61a21.52 21.52 0 0 0-12.77 3.66 22.44 22.44 0 0 0-7.91 10.81v31.88Q789.5 165 804.39 165a17.55 17.55 0 0 0 15.13-7.64q5.48-7.6 5.48-22.82z" id="svg_4"/></g></mask></defs><path class="cls-1" d="M101.292 113.33c-17.492 0-26.238-5.474-26.238-18.691S83.8 75.71 101.292 75.71h27.394c18.185 0 26.02 7.477 26.02 26.905 0 49.321-29.692 84.954-76.428 84.954C32.916 187.585 0 149.965 0 93.667 0 36.12 32.454 0 82.644 0c36.371 0 60.324 19.428 60.324 36.796 0 9.964-7.141 18.927-15.887 18.927-11.045 0-23.028-17.19-45.58-17.19-25.095 0-41.213 20.178-41.213 54.31 0 34.868 16.58 56.047 40.982 56.047 19.573 0 32.644-13.702 33.148-35.618h-13.126v.059zm121.6 38.21c18.185 0 29.923-12.702 38.22-12.702 8.746 0 14.5 6.226 14.5 15.189 0 15.44-23.028 32.88-54.557 32.88-35.677 0-62.853-29.436-62.853-69.5s26.251-70.25 61.003-70.25 59.168 29.893 59.168 65.026c0 13.452-5.754 15.94-17.954 15.94h-64.921c1.605 14.718 11.738 23.417 27.394 23.417m20.035-49.071a23.232 25.139 0 0 0-23.477-23.417c-12.241 0-21.871 8.963-24.401 23.417h47.878zm50.326-13.703c-12.894 0-20.484-6.726-20.484-16.94 0-10.716 7.372-16.691 21.872-17.442V37.34c0-19.133 5.753-28.641 18.185-28.641 12.242 0 17.954 9.463 17.954 28.641v17.118h3.224c14.5 0 22.797 6.726 22.797 17.44 0 10.966-7.59 16.942-23.015 16.942h-2.992v69.5c0 19.133-5.522 28.656-17.954 28.656s-18.186-9.464-18.186-28.657V88.913h-1.36l-.04-.147zm81.61 79.965c-3.685 11.95-9.901 17.941-17.954 17.941-10.364 0-17.682-7.977-17.682-19.134a28.93 31.306 0 0 1 1.836-11.774L383.57 30.908c5.985-17.662 14.73-26.154 28.563-26.154 12.664 0 22.334 8.228 27.394 23.417l41.445 127.298a37.255 40.313 0 0 1 2.53 12.702c0 11.466-8.053 18.928-18.417 18.928-9.67 0-15.887-6.476-19.573-19.678l-4.61-16.44h-60.556l-5.481 17.75zm55.25-55.062l-18.92-65.614-20.252 65.762h39.132l.04-.148zm74.266 123.34c-12.432 0-18.185-9.464-18.185-28.642V76.535c0-19.134 5.753-28.391 18.185-28.391 7.141 0 12.895 3.988 17.26 12.451 7.373-8.713 17.493-13.452 29.925-13.452 30.386 0 55.25 28.642 55.25 69 0 39.606-25.326 70.5-55.767 70.5a41.825 45.259 0 0 1-28.564-11.466v33.381c0 19.134-5.753 28.642-18.185 28.642m41.43-87.191c13.82 0 23.94-12.952 23.94-33.381 0-19.929-10.596-32.88-23.94-32.88s-23.938 12.45-23.938 32.88c0 20.605 10.133 33.38 23.939 33.38m84.466 87.192c-12.432 0-18.185-9.464-18.185-28.642V76.535c0-19.134 5.753-28.391 18.185-28.391 7.141 0 12.895 3.988 17.26 12.451 7.373-8.713 17.493-13.452 29.925-13.452 30.386 0 55.25 28.642 55.25 69 0 39.606-25.326 70.5-55.767 70.5a41.812 45.244 0 0 1-28.564-11.466v33.381c0 19.134-5.753 28.642-18.185 28.642m41.444-87.191c13.806 0 23.94-12.952 23.94-33.381 0-19.929-10.596-32.88-23.94-32.88s-23.939 12.45-23.939 32.88c0 20.605 10.133 33.38 23.94 33.38" id="svg_5"/></svg>