<svg width="121" height="24" xmlns="http://www.w3.org/2000/svg"><path d="M121 5.548a.413.413 0 0 0-.212-.336c-.274-.138-.674-.232-1.488-.232-1.837 0-3.462.912-4.171 2.438V5.554a.292.292 0 0 0-.292-.293h-2.751a.292.292 0 0 0-.292.293V18.12c0 .161.13.292.292.292h2.882c.161 0 .292-.13.292-.292v-5.652c0-2.525 1.756-3.78 4.04-3.78.533 0 1.065.118 1.332.206.183.06.368-.09.368-.283V5.548zm-18.415 9.78c-1.97 0-3.493-1.393-3.493-3.497s1.524-3.498 3.493-3.498c1.969 0 3.492 1.394 3.492 3.498s-1.523 3.498-3.492 3.498v-.001zm0-10.389c-4.044 0-7.063 2.789-7.063 6.892s3.02 6.891 7.063 6.891c4.042 0 7.062-2.788 7.062-6.89 0-4.104-3.02-6.893-7.062-6.893zm-16.034 10.39c-1.97 0-3.493-1.394-3.493-3.498s1.523-3.498 3.493-3.498c1.969 0 3.491 1.394 3.491 3.498s-1.522 3.498-3.491 3.498zm0-10.39c-4.044 0-7.064 2.789-7.064 6.892s3.02 6.891 7.064 6.891c4.042 0 7.062-2.788 7.062-6.891s-3.02-6.892-7.062-6.892zM70.539 15.361c-1.969 0-3.44-1.394-3.44-3.524 0-2.131 1.471-3.525 3.44-3.525 1.944 0 3.44 1.342 3.44 3.525 0 2.156-1.496 3.524-3.44 3.524zM77.048.001h-2.882a.292.292 0 0 0-.292.292v6.862c-.893-1.263-2.363-2.237-4.41-2.237-3.204 0-5.935 2.474-5.935 6.919 0 4.445 2.73 6.917 5.986 6.917 1.917 0 3.414-.842 4.36-2.183v1.549c0 .161.13.292.29.292h2.883c.16 0 .291-.13.291-.292V.293c0-.16-.13-.291-.291-.292zM61.62 14.431c0 3-2.179 4.288-5.67 4.288-2.413 0-4.488-.65-5.675-1.996a.3.3 0 0 1-.007-.38l1.666-2.166a.287.287 0 0 1 .437-.017c.88.903 2.234 1.455 3.92 1.455.97 0 1.758-.262 1.758-.999 0-.71-.708-.868-2.914-1.342-1.943-.394-4.359-1.288-4.359-4.155 0-2.657 2.102-4.182 5.54-4.182 2.263 0 3.89.684 5.036 1.76.11.103.12.277.027.396l-1.581 2.056a.283.283 0 0 1-.414.046c-.775-.693-2.064-1.128-3.33-1.128-1.076 0-1.68.342-1.68.92 0 .658.71.816 3.046 1.316 2.283.5 4.2 1.367 4.2 4.129v-.001zm-13.326.008c0 2.999-2.18 4.288-5.671 4.288-2.412 0-4.487-.65-5.674-1.997a.3.3 0 0 1-.008-.379l1.666-2.167a.288.288 0 0 1 .437-.016c.881.902 2.235 1.455 3.92 1.455.971 0 1.759-.262 1.759-1 0-.71-.709-.867-2.914-1.341-1.944-.395-4.36-1.289-4.36-4.155 0-2.657 2.102-4.182 5.541-4.182 2.262 0 3.888.683 5.035 1.76.11.103.12.276.028.396l-1.582 2.056c-.1.13-.29.156-.413.046-.776-.693-2.064-1.129-3.33-1.129-1.077 0-1.681.343-1.681.921 0 .658.71.816 3.046 1.316 2.284.499 4.2 1.367 4.2 4.128h.001zm-17.273-1.34c0 1.446-1.18 2.709-3.019 2.709-1.208 0-1.864-.553-1.864-1.395 0-.736.552-1.289 1.628-1.447l3.255-.394v.527zm-2.283-8.128c-2.75 0-4.821.922-5.747 2.745a.298.298 0 0 0 .095.372l2.101 1.504c.132.094.318.063.397-.08.584-1.052 1.89-1.411 3.154-1.411 1.549 0 2.283.552 2.283 1.315v.21c0 .316-.183.474-.682.527l-3.597.315c-2.415.236-4.2 1.736-4.2 4.129 0 2.42 1.837 4.103 4.436 4.103 2.048 0 3.361-.999 4.043-2.051v1.496c0 .162.13.293.292.293h2.882c.161 0 .292-.13.292-.292V10.31c0-3.656-1.917-5.339-5.75-5.339h.001zM20.164.292v17.827c0 .161-.13.292-.292.292h-2.908a.292.292 0 0 1-.292-.292V.287c0-.159.128-.287.286-.287h2.914c.161 0 .292.13.292.292zM7.01 15.347c-1.97 0-3.44-1.394-3.44-3.524s1.471-3.525 3.44-3.525c1.97 0 3.413 1.342 3.413 3.525 0 2.156-1.444 3.524-3.413 3.524zm6.508-10.1H10.64a.296.296 0 0 0-.296.296v1.546c-.735-1.184-2.258-2.158-4.279-2.158C2.809 4.931 0 7.378 0 11.771c0 4.365 2.678 6.758 6.17 6.758 1.89 0 3.36-.789 4.227-2.025v.842c0 1.893-.92 3.393-3.86 3.393-1.478 0-2.665-.493-3.706-1.416a.286.286 0 0 0-.438.061l-1.305 2.192c-.169.283-.146.443-.04.536C2.39 23.279 4.134 24 6.669 24c5.513 0 7.141-3.076 7.141-6.47V5.54a.292.292 0 0 0-.292-.293z" fill="#FFF" fill-rule="evenodd"/></svg>