<svg width="85" height="14" xmlns="http://www.w3.org/2000/svg"><path d="M13.5 6.88a6.19 6.19 0 0 1-1.15 3.85 6.91 6.91 0 0 1-5.6 3 6.47 6.47 0 0 1-4.86-2.09A6.84 6.84 0 0 1 0 6.68 6.32 6.32 0 0 1 2 2a6.57 6.57 0 0 1 4.8-2 6.79 6.79 0 0 1 6.34 4.52H9.52a3.54 3.54 0 0 0-2.7-1.28 3.42 3.42 0 0 0-3.45 3.44 3.61 3.61 0 0 0 3.45 3.71 3.38 3.38 0 0 0 3-1.75H6V6h7.5a3.62 3.62 0 0 0 0 .88zm.81 6.55V.2h4.38A5.08 5.08 0 0 1 22 .94a4.09 4.09 0 0 1 1.76 3.72 4.08 4.08 0 0 1-3 4.25L24 13.43h-4l-2.45-4.25v4.25h-3.24zm3.84-7.09c1.62 0 2.37-.4 2.37-1.62 0-1.22-.68-1.55-2.1-1.55h-.87v3.17h.6zM26.25 2a6.86 6.86 0 0 1 9.52 0 6.45 6.45 0 0 1 2 4.73 6.93 6.93 0 0 1-1.89 4.86 6.93 6.93 0 0 1-9.78 0 7.05 7.05 0 0 1-1.89-4.86A6.92 6.92 0 0 1 26.25 2zM31 10.39a3.47 3.47 0 0 0 3.45-3.64 3.45 3.45 0 0 0-6.89 0A3.59 3.59 0 0 0 31 10.39zM41.91.27v8.1c0 1.48.47 2.23 1.55 2.23s1.69-.75 1.69-2.23V.27h3.24V8.5c0 3.24-2 5.13-4.93 5.13-2.93 0-4.79-1.82-4.79-5.13V.2l3.24.07zm7.36 13.16V.2h4.38A5.08 5.08 0 0 1 57 .94a4.1 4.1 0 0 1 1.75 3.72 4.39 4.39 0 0 1-2.09 3.91 6.49 6.49 0 0 1-3.24.61h-.94v4.25h-3.21zm3.91-7.09c1.62 0 2.36-.4 2.36-1.62 0-1.22-.67-1.55-2.16-1.55h-.87v3.17h.67zm8-4.38A6.38 6.38 0 0 1 66 .07a6.66 6.66 0 0 1 4.73 2 6.45 6.45 0 0 1 2 4.73 6.93 6.93 0 0 1-1.89 4.86 6.85 6.85 0 0 1-9.78.07 7.1 7.1 0 0 1-1.89-4.93A6.62 6.62 0 0 1 61.21 2l-.03-.04zM66 10.39a3.46 3.46 0 0 0 3.44-3.64 3.44 3.44 0 0 0-6.88 0A3.54 3.54 0 0 0 66 10.39zm7.36 3V.2h2.9l4.86 7.29V.2h3.24v13.16h-2.83L76.6 6.07v7.36l-3.24-.04z" fill="#53A318"/></svg>