<svg width="579" height="117" xmlns="http://www.w3.org/2000/svg"><defs><linearGradient x1="7.659%" y1="57.072%" x2="103.106%" y2="39.114%" id="a"><stop stop-color="#FFF" stop-opacity="0" offset="0%"/><stop stop-color="#FFF" stop-opacity=".141" offset="14.1%"/><stop stop-color="#FFF" offset="100%"/></linearGradient></defs><g fill="none"><path d="M156.6 79.7V61.8h-16.1v18.1c0 .7-.5 1.3-1.3 1.3h-7.5c-.7 0-1.3-.5-1.3-1.3V36.3c0-.7.5-1.3 1.3-1.3h7.5c.7 0 1.3.5 1.3 1.3v16.6h16.1V36.3c0-.7.5-1.3 1.3-1.3h7.5c.7 0 1.3.5 1.3 1.3v43.4c0 .7-.5 1.3-1.3 1.3h-7.5c-.8.1-1.3-.4-1.3-1.3zm30.9 2.1c-10.5 0-16.6-4.4-16.6-18.1 0-14.1 6.2-18.2 15.8-18.2 9.1 0 14.6 3.4 15 19.3 0 .7-.5 1.3-1.3 1.3l-19.5 2c.5 4.3 2.5 5.9 6.6 5.9 3.3 0 6.1-.5 8.9-2 .7-.3 1.6 0 1.8.7l2 4.3c.2.5 0 1.3-.5 1.6-3.8 2.2-7.6 3.2-12.2 3.2zm4.5-21.4c-.2-5.2-2-7.2-5.6-7.2-3.9 0-6.1 2.5-6.1 8v1.1l11.7-1.9zm34.8 20.4c-.5-1.3-.9-2.6-1.3-4.1-2 3.3-4.8 5.2-10 5.2-8.7 0-12.2-4.3-12.2-10.7 0-6.8 4.1-10.4 20.9-11.5-.2-5-2.7-6.3-6.6-6.3-2.8 0-5.7.7-8.4 1.8-.7.3-1.5 0-1.8-.7l-2-4.6c-.2-.7 0-1.5.5-1.6 3.9-2 8.2-2.7 13-2.7 9.1 0 14.6 5.4 14.6 13.8V68c0 3.6 0 7.4.7 10.9.2.7-.3 1.5-.8 1.5l-5.2 1.3c-.4-.1-1.1-.4-1.4-.9zM224.3 66c-8.2.5-11.3 2-11.3 4.8 0 2.5 1.3 3.6 5 3.6 3.3 0 5-1.8 6.3-4.6V66zm18.8 15.1c-.5 0-1.1-.3-1.3-.8-.9-3-1.1-6.9-1.1-11V36.2c0-.7.5-1.3 1.3-1.3l6.9-.9c.7-.2 1.5.5 1.5 1.3v34.5c0 3 0 6.8.5 9.8.2.7-.5 1.5-1.3 1.5H243h.1zm24.8.9c-.3.3-1.1.3-1.5 0-5.7-3.8-6.6-10.5-6.6-16.9V53.2H256c-.7 0-1.3-.5-1.3-1.3v-4.4c0-.7.5-1.3 1.3-1.3h3.8v-8.7c0-.7.5-1.3 1.1-1.3l6.9-.9c.7-.2 1.5.5 1.5 1.3v9.7h5.7c.7 0 1.5.7 1.3 1.5l-.5 4.4c0 .7-.7 1.1-1.3 1.1h-5.2v12c0 4.8.7 8.4 3.4 11.6.5.5.3 1.5-.2 2l-4.6 3.1zm34.7-.9c-.7 0-1.3-.5-1.3-1.3V61.9c0-5.9-1.3-8.6-5-8.6-3.4 0-5 1.5-6.4 4.1v22.3c0 .7-.5 1.3-1.3 1.3h-6.9c-.7 0-1.3-.5-1.3-1.3V35.9c0-.7.5-1.3 1.1-1.3l6.9-.9c.7-.2 1.5.5 1.5 1.3v15c1.8-3.4 4.8-4.8 9.5-4.8 10.2 0 11.5 8 11.5 15v19.3c0 .7-.5 1.3-1.3 1.3h-6.9l-.1.3zm15.9 4.5c2.8-1.3 4.8-2.8 5.9-5.4l-10.7-31.4c-.2-.7.2-1.6 1.1-1.8l7.7-1.1c.7-.2 1.3.3 1.5 1.1l6.6 26.1 6.8-26.3c.2-.7.7-1.1 1.5-1.1l6.8.7c.9 0 1.5.9 1.1 1.8l-9.3 27.9c-2.3 6.9-6.6 13-15 15.9-.5.2-1.3 0-1.6-.5l-2.5-4.1c-.7-.5-.6-1.5.1-1.8zm70.3-5.9V61.8h-16.1v18.1c0 .7-.5 1.3-1.3 1.3h-7.5c-.7 0-1.3-.5-1.3-1.3V36.3c0-.7.5-1.3 1.3-1.3h7.5c.7 0 1.3.5 1.3 1.3v16.6h16.1V36.3c0-.7.5-1.3 1.3-1.3h7.5c.7 0 1.3.5 1.3 1.3v43.4c0 .7-.5 1.3-1.3 1.3H390c-.5.1-1.2-.4-1.2-1.3zm30.9 2.1c-10.5 0-16.6-4.4-16.6-18.1 0-14.1 6.2-18.2 15.8-18.2 9.1 0 14.6 3.4 15 19.3 0 .7-.5 1.3-1.3 1.3l-19.5 2c.5 4.3 2.5 5.9 6.6 5.9 3.3 0 6.1-.5 8.9-2 .7-.3 1.6 0 1.8.7l2 4.3c.2.5 0 1.3-.5 1.6-3.6 2.2-7.5 3.2-12.2 3.2zm4.7-21.4c-.2-5.2-2-7.2-5.6-7.2-3.9 0-6.1 2.5-6.1 8v1.1l11.7-1.9zm34.8 20.4c-.5-1.3-.9-2.6-1.3-4.1-2 3.3-4.8 5.2-10 5.2-8.7 0-12.2-4.3-12.2-10.7 0-6.8 4.1-10.4 20.9-11.5-.2-5-2.7-6.3-6.6-6.3-2.8 0-5.7.7-8.4 1.8-.7.3-1.5 0-1.8-.7l-2-4.6c-.2-.7 0-1.5.5-1.6 3.9-2 8.2-2.7 13-2.7 9.1 0 14.6 5.4 14.6 13.8V68c0 3.6 0 7.4.7 10.9.2.7-.3 1.5-.9 1.5l-5.2 1.3c-.3-.1-1.1-.4-1.3-.9zM456.6 66c-8.2.5-11.3 2-11.3 4.8 0 2.5 1.3 3.6 5 3.6 3.3 0 5-1.8 6.3-4.6V66zm17.2 15.1c-.7 0-1.3-.5-1.3-1.3V59.6c0-3.6 0-7.4-.7-10.9-.2-.7.3-1.5.9-1.5l5.2-1.3c.7-.2 1.3.2 1.6.7.5 1.6 1.3 3.4 1.6 5 1.6-2.8 4.1-5.2 8.7-6.1.7-.2 1.5.3 1.6 1.1l1.1 8.7h-1.3c-4.8 0-7.5 1.5-9.3 5.2v19.1c0 .7-.5 1.3-1.3 1.3h-6.8v.2zm21.7-43.5c0-3.4 2.1-4.8 5.7-4.8s5.7 1.5 5.7 4.8c0 3.6-2.1 4.8-5.7 4.8-3.6-.1-5.7-1.5-5.7-4.8zm3.4 43.5c-.5 0-1.1-.3-1.3-.8-.8-3-1.1-6.9-1.1-11V48.7c0-.7.5-1.3 1.3-1.3l6.9-.9c.7-.2 1.5.5 1.5 1.3v22c0 3 0 6.8.5 9.8.2.7-.5 1.5-1.3 1.5h-6.6.1zm36.3 0c-.7 0-1.3-.5-1.3-1.3V61.9c0-5.9-1.3-8.6-5-8.6-3.4 0-5 1.5-6.4 4.1v22.3c0 .7-.5 1.3-1.3 1.3h-6.9c-.7 0-1.3-.5-1.3-1.3V59.5c0-3.6 0-7.4-.7-10.9-.2-.7.3-1.5.9-1.5l5.2-1.3c.7-.2 1.3.2 1.6.8.5 1.3.9 2.7 1.3 4.1 2-3.3 4.8-5.2 10.2-5.2 11.3 0 12.3 8 12.3 15v19.1c0 .7-.5 1.3-1.3 1.3h-7.4.1v.2zm26.1 2.8c4.4 0 7.5-1.6 7.5-8.4v-2c-2 3.6-4.6 5.2-9.5 5.2-7.5 0-12.2-4.6-12.2-16.6 0-12.3 5.7-16.6 16.3-16.6 5.2 0 9.7.5 14.1 1.8.5.2.8.7.8 1.3v26.6c0 10.7-6.4 16.8-16.6 16.8-2.6 0-5.7-.3-8.7-1.5-.7-.2-1.1-.9-.9-1.6l1.3-5c.2-.7.8-1.1 1.6-.9 2 .8 4.1.9 6.3.9zm7.5-29.9c-1.8-.7-3.8-.7-5.6-.7-4.3 0-6.6 2.3-6.6 9.1 0 5.6.8 8.9 5.9 8.9 3 0 4.6-1.5 6.3-3.9V54z" fill="#30436A"/><path d="M30.4 107.1c-2.5 1.1-9.7 4.1-12.7 5.4-.7.3-1.5-.2-1.1-.8 1.8-3.3 3.8-9.1 4.6-11.5l.9-3.8c.2-.7 0-1.5-.5-1.8-11.3-9.5-18.2-23.4-18.2-39C3.4 25.5 29 3.4 54.7 3.4c26.5 0 50.6 22 50.6 52.2 0 26.6-22.9 50.6-51 50.6-5.4 0-10.4-.7-15.2-2.3-.3-.2-.8-.2-1.3 0l-7.4 3.2z" fill="#F0F2F7"/><path d="M57.8 18.9c-12.3-.9-24.5 7.9-26.6 20.4-.5 3.3-.5 6.6.2 9.9.8 3.4 9.7 32.4 9.7 32.9 0 .7.3 2.3.8 3.9 1.1 2.8 2.5 5 5 6.4 5.6 3.3 14.6 3.3 19.3-3 4.3-5.9 2.7-12 5.6-17.7 3-6.1 8.2-10.7 10.7-17.1 2-5.2 2-11.7.3-16.1-3.7-11.3-14.1-19-25-19.6z" fill="url(#a)" transform="translate(-1 -1)"/><g fill="#2F426A"><path d="M68.3 51.1c.7.3 1.8-2 2-3 .8-3.6.7-7.9-1.1-11.3-2.5-5-8.4-7.9-13.8-7.5-4.4.2-8.7 2.8-11.3 6.6-3.3 4.8-2.8 11.3.2 16.1 2.8 4.4 4.6 3 7.2.2 2.5-2.8 5.9-.3 6.8 2.6.5 1.6-1.1 2.8-2.1 3.8-2 1.6-3 3.3-3.6 5.9-.3 1.8-.5 6.9-3.4 6.9-1.5 0-2.1-1.6-2.3-2.7-1.3-6.9-1.1-6.8-1.3-7.2v-.2c-.5-.7-1.6-.2-1.6.7.2 1.8.3 4.1.3 4.4.3 3.3 1.6 11 6.6 9.3 4.3-1.6 4.1-7.2 4.8-10.9.8-4.4 4.4-5.2 6.2-9.3 1.8-4.1.5-8.6-2.8-9.9-5-2.1-7.5 2.5-10.2 5-.7.5-1.6.3-2-.5-1.5-4.3-.5-10 3-13 3.8-3.4 10-3.3 14.1-.5 3.6 2.5 5.7 6.9 4.6 11.3-.3 1.5-1.1 2.8-.3 3.2z"/><path d="M33.4 46.5C32.1 34.2 39.3 23.8 51.8 22c10.5-1.6 21.2 4.1 25 14.3 1.8 4.8 1.6 10.2-.3 15-2.3 5.4-6.8 9.1-9.7 14.1-4.3 7.7-1.8 26.3-15.6 24.7-1.6-.2-3-.3-4.4-1.3-2.5-1.5-4.1-3.6-5-6.8-.2-.5-.5-1.8-1.3-1.8-.3 0-.5.3-.5.7 0 .7.3 2.3.8 3.9 1.1 2.8 2.5 5 5 6.4 5.6 3.3 14.6 3.3 19.3-3 4.3-5.9 2.6-12 5.6-17.7 3-6.1 8.2-10.7 10.7-17.1 2-5.2 2-11.7.3-16.1-3.8-10.9-14.1-18.6-25-19.3-12.3-1.1-24.5 7.7-26.6 20.2-.5 3.3-.5 6.6.2 9.9.8 3.4 1.6 5 2.5 5.4.7.3 2.3-.2 1.8-1.8-.6-2.1-1.1-4.1-1.2-5.2z"/></g><path d="M54.9 0C25 .3.5 24.8 0 54.7c-.2 16.1 6.3 30.6 17 40.9.5.5.7 1.1.5 1.8-.2 1.3-.7 3.6-2 6.8-.5 1.3-1.5 3.6-2 5-.5 1.1-1.5 3-1.6 4.1-.2.7-.2 1.5.2 2.1.5.7 1.5 1.1 2.3 1.1 1.3 0 3.6-.5 5.9-1.5 2.5-.9 5.4-2.1 7.9-3 2.1-.9 6.2-2.5 8.9-3.4.3-.2.7-.2 1.1 0 5.6 1.8 11.3 2.8 17.4 2.8 30.7 0 55.6-24.8 55.6-55.6C111.4 24.6 85.9-.6 54.9 0zM30.4 107.1c-2.5 1.1-9.7 4.1-12.7 5.4-.7.3-1.5-.2-1.1-.8 1.8-3.3 3.8-9.1 4.6-11.5l.9-3.8c.2-.7 0-1.5-.5-1.8-11.3-9.5-18.2-23.4-18.2-39C3.4 25.5 29 3.4 54.7 3.4c26.5 0 50.6 22 50.6 52.2 0 26.6-22.9 50.6-51 50.6-5.4 0-10.4-.7-15.2-2.3-.3-.2-.8-.2-1.3 0l-7.4 3.2z" fill="#2F426A"/></g></svg>