<svg width="281" height="134" xmlns="http://www.w3.org/2000/svg"><g fill="none"><path d="M280.9 46.5V54c-1.5 2-.8 4.3-.8 6.5-.7 7.7-.9 15.6-2.1 23.2-2.2 14.1-11.8 22.8-24.4 22.8H232c-1.2 0-2.3.4-3.9.6.8 3.9 1.2 7.5 2.3 10.7 1.2 3.2 2.8 6.3 4.7 9.1 1.8 2.6 4.2 4.7 6.3 7-3.8 0-7.1-.7-10.3-1.8-12.5-4.3-23.2-12.1-32.6-22.3-2.2-2.4-4.4-3.4-7.4-3.4-38.8.1-77.6.1-116.4.1-14.4 0-28.8-.1-43.2.1-6.4.1-11.6-2.6-15.9-7.6-5.3-6.1-8.4-13.5-9.2-22.1-.4-4.6-.9-9.1-1.3-13.7-1-11.1-2.2-22.4-3.4-33.6 0-1.5.8-3.2-.8-4.3v-6.4c.3-1.1.6-2.2.8-3.3.5-1.5.8-3.1 1.4-4.5C6.2 3.9 11.3-.1 18.4.1c7.6.3 15.3 1.4 22.9 2.1C50.2 3.1 59 4 67.9 4.9c9.2.9 18.4 1.7 27.6 2.5 9.8.9 19.6 1.9 29.4 2.9 8.7.8 17.4 1.6 26.1 2.5 9 .9 18 1.9 27 2.8 9.2.9 18.4 1.6 27.5 2.5 9.2.9 18.3 1.9 27.5 2.8 9 .9 18.1 1.7 27.1 2.5 9.5.8 15.5 6.7 18.9 16.5.4 1.1.7 2.3 1 3.5.4 1 .7 2 .9 3.1zM234 53c-.2-.2-.4-.4-.6-.5-.4-.7-.7-1.9-1.1-1.9-1.9-.2-4-.8-5.8.5v27.1h7.6c0-4.2-.1-8.1 0-12 .2-6 1.2-7.3 6.3-8.7V50c-3.1-1-4.6 1.5-6.4 3zM113.9 78.4c0-3.2-.1-6.2 0-9.2.1-2.5.1-5 .7-7.3.4-1.5 1.6-3 2.7-4.1 1.4-1.3 2.8-.6 3.1 1.4.2 1.6.2 3.2.2 4.8v14.4h8c0-7.3.2-14.4-.1-21.4-.2-4.4-2.9-6.9-6.8-7.2-3.6-.3-6.2 1.6-8.6 4.2-4.1-5.7-7.9-5.8-14.3-.7-.9-3.6-1.9-3.9-7.4-2.3v27.3h7.8c0-4.4-.1-8.5 0-12.5.1-1.9.5-3.8 1.1-5.6.7-1.9 2.1-3.4 4-2.8 2 .6 1.5 2.8 1.5 4.5v16.5h8.1zM59.7 40.5h-8.2v14H39.4V40.4h-7.8v37.9h8.1V63h12.1v15.2h7.9V40.5zm117.6.2c-4.6-2-8.9-1.6-13.1 0-4.2 1.6-6.6 5.3-7 10.3-.4 4.6 1.8 8.3 6.2 10.7 1.5.8 3.2 1.5 4.7 2.3 1.5.8 2.8 2 2.5 4-.3 2.2-1.8 3.3-3.7 3.2-2.6-.1-5.2-.4-8-.6v7.9c5.1 1.6 10 1.5 14.6-1.2 3.9-2.3 5.9-6.1 5.9-11.2 0-4.9-2.6-7.7-6.2-9.7-1.7-.9-3.4-1.7-5.1-2.5-1.4-.7-2.2-2-1.9-3.8.3-1.9 1.5-2.6 3-2.6h7.2c.3-2.1.6-4.2.9-6.8zm-89 23.2c0-5.2-1-10.1-5.5-12.6-4.6-2.6-9.4-2.5-13.9.7-5.2 3.7-7.3 11.6-5.3 18.9 1.1 4.1 3.5 6.4 7 7.8 7.2 2.8 17.9-2.3 17.7-14.8zm124.9-3.7c-1.8.4-3.7.7-5.4 1.3-1.9.7-3.8 1.6-5.4 2.9-3.1 2.6-3.9 7.4-2.2 10.9 1.6 3.3 5.4 4.9 9 3.6 1.7-.6 3.2-1.8 4.8-2.8 1.1 2.9 1.7 3.1 7.6 1.8V62.7c0-1.9-.2-3.9-.4-5.8-.4-3.8-2.6-6.2-5.7-6.8-4.7-.9-9.6-1.2-14.2 1.4.2 2.2.3 4.3.4 6.4 9.6-1.7 10.2-1.6 11.5 2.3zm-59.5 10.9c-10.6 2-11.6 1.6-13.8-4.5h15.2c-.2-3.3.1-6-.5-8.5-1.5-5.8-5.4-8.8-11-8.5-5.6.3-10 3.9-11 10.1-.5 3.1-.4 6.3-.1 9.4.4 4.6 2.9 7.7 6.8 9.2 5 1.9 9.8 1.1 14.8-1.1-.1-1.9-.2-3.8-.4-6.1zm38-31.4c-2.9.8-5.1 1.5-7.5 2.1-.1 2.6-.2 5.1-.3 7.6-1.2.4-2.3.8-3.4 1.2v6c1.3.4 2.4.8 3.6 1.2v12.5c.1 7 2.2 9.3 8.3 9 1.6-.1 3.2-.7 5-1v-3.7c0-1-.2-2-.3-3-4.7.1-5.1-.2-5.2-5.1-.1-3 0-5.9 0-8.9 2-.3 3.7-.5 5.2-.8v-6.2c-1.8-.3-3.5-.6-5.3-.9-.1-3.2-.1-6.1-.1-10zm51 38.9c4.1 1.4 7.9 1 11.6-.7.3-.1.6-.3.8-.5 2.7-1.6 4.1-4.2 4.2-7.7.1-3.6-1.6-5.9-4.2-7.6-1.8-1.2-4.3-1.2-5.1-3.8 2-3.4 4.7-1.2 7.2-1.6v-6.9c-4-.2-7.7-.7-11.2 1.5-2.7 1.7-4.1 4.4-4.2 7.7-.1 3.5 1.5 6 4.3 7.5 1.3.7 2.6 1.3 3.8 2.1.5.3 1 1.2.9 1.6-.2.7-.9 1.6-1.5 1.7-2.1.2-4.3.1-6.6.1v6.6z" fill="#03ADEE"/><path d="M280.9 60.4c-.3 0-.5.1-.8.1-.1-2.2-.7-4.5.8-6.5v6.4zM1.7 29.6c-.3 0-.5 0-.8-.1v-4.3c1.6 1.2.9 2.9.8 4.4zm-.8-14c.3 0 .6 0 .8-.1-.3 1.1-.6 2.2-.8 3.3v-3.2zm279.2 27.7c.3 0 .6.1.8.1v3.2c-.2-1.2-.5-2.2-.8-3.3zM234 53c-.2.2-.3.4-.5.6 0-.4-.1-.7-.1-1.1.2.1.4.2.6.5z" fill="#ABDEF7"/><path d="M80 66c0 .2-.1 1.5-.5 2.6-.7 2.1-2.7 3.5-4.3 3.3-1.7-.2-3.4-1.9-3.7-4.2-.2-1.7-.2-3.5-.1-5.3.4-3.2 2.1-4.8 4.7-4.6 2.4.1 3.5 1.6 3.8 5 .1.8.1 1.5.1 3.2zm132.2 1.5c-.2 3.8-.9 5.2-2.8 5.5-.9.1-2.2-.4-2.6-1.2-.8-1.3-.2-2.8 1.1-3.4 1.2-.5 2.7-.6 4.3-.9zM147.8 61h-6.4c.5-3.2 1.4-4.4 3.3-4.3 2.2.2 3.3 1.5 3.1 4.3z" fill="#03ADEE"/></g></svg>