<svg xmlns="http://www.w3.org/2000/svg" width="1200" height="267" viewBox="0 0 1472 328" shape-rendering="geometricPrecision" text-rendering="geometricPrecision" image-rendering="optimizeQuality" fill-rule="evenodd" clip-rule="evenodd"><style>.fil0{fill:#f27349}</style><path class="fil0" d="M208 119c-6-11-9 9-9-31 0-12-1-24 2-36l72 1-2 222-71-1c-3-12-2-26-2-38 0-32 2-16 8-28l-42-45 43-44zM53 52l71 1c3 12 2 26 2 38 0 32-2 16-8 28l42 45-43 44c8 15 4-8 8 13 1 3 0 14 0 18 0 12 1 24-2 36l-72-1 1-222zM0 39v250c0 18 21 39 39 39h247c20 0 39-22 39-44V45c0-22-19-44-39-44H39C21 1 0 22 0 40z"/><path d="M52 275l72 1c3-12 2-25 2-36v-18c-4-21 0 2-8-13l43-44-42-45c6-12 8 4 8-28 0-13 1-26-2-38l-71-1-1 222zm156-156l-43 44 42 45c-6 12-9-4-8 28 0 13-1 26 2 38l71 1 2-222-72-1c-3 12-2 25-2 36-1 40 3 19 9 31z" fill="#fffefe"/><path class="fil0" d="M970 213h29l15-42 18 42h29c8-33 39-99 21-99-24 0-25-6-36 42l-15-42h-29l-13 41c-19-29 6-41-39-41-21 0 19 72 21 99zm273-52h-13v-18h13c13 0 13 18 0 18zm-47-39v83c0 10 7 8 26 8 12 0 8-16 8-29 15 4 15 29 29 29 28 0 41 4 10-31 8-12 18-14 18-34 0-38-55-34-83-34-6 0-8 2-8 8zm-806 0v83c0 10 7 8 26 8 11 0 8-11 8-36h26c0 42-5 36 26 36 6 0 8-2 8-8v-83c0-10-7-8-26-8-11 0-8 10-8 34h-26c0-39 5-34-26-34-6 0-8 2-8 8zm1030 60h-8v-36c26 0 26 6 26 23 0 8-9 13-18 13zm-42-60v83c0 10 7 8 26 8 32 0 68-12 68-42 0-57-32-57-86-57-6 0-8 2-8 8zm-590 0c0 111-17 91 81 91 9-37-2-29-49-29v-8c48 0 47 7 47-26h-47v-8h49c0-37 12-29-73-29-6 0-8 2-8 8z"/><path class="fil0" d="M1118 166c0-33 39-29 39-3 0 30-39 23-39 3zm10 47h18c56 0 56-99 0-99h-18c-56 0-56 99 0 99zm-584-28c-25 0-25-42 0-42 24 0 24 42 0 42zm-52-23c0 71 104 69 104 0 0-62-104-63-104 0z"/><path class="fil0" d="M601 143c0 44 46 23 52 44l-42-10-16 20c24 16 26 16 55 16 21 0 36-11 36-34 0-34-47-20-52-39l34 7 17-22c-27-9-8-11-53-11-14 0-31 14-31 29zm88-21c0 24-4 21 29 21v62c0 10 7 8 26 8 6 0 8-2 8-8v-62c32 0 29 4 29-21 0-6-2-8-8-8h-75c-6 0-8 2-8 8zm187 0v83c0 6 2 8 8 8h62c11 0 8-8 8-29h-44v-62c0-10-7-8-26-8-6 0-8 2-8 8zm419 0v83c0 6 2 8 8 8h62c11 0 8-8 8-29h-44v-62c0-10-7-8-26-8-6 0-8 2-8 8z"/></svg>