<svg width="170" height="37" xmlns="http://www.w3.org/2000/svg"><path d="M29 11.22V6.1h-3.43v1.74L17.55 0 0 17.2v2h2.4v17.17h9.88l3.75-3 1.5-1.21 1.54 1.21 3.75 3h9.88V19.25h2.46v-2L29 11.22zM17.48 28.39s-4.36-3.31-5.11-5a3 3 0 0 1 .52-3.45 2.7 2.7 0 0 1 .45-.37A3.1 3.1 0 0 1 15 19a3.27 3.27 0 0 1 2.55 1.36 9.82 9.82 0 0 1 .33-.37 2.89 2.89 0 0 1 3.81-.5c.189.12.366.257.53.41a2 2 0 0 1 .41.49 3.09 3.09 0 0 1 .1 2.92c-.47 1.13-5.25 5.08-5.25 5.08zm12.19 4.95H24l-4.14-3.14c4.82-4 5.34-5.22 5.54-5.67a6 6 0 0 0-.25-5.53 5 5 0 0 0-1-1.18 6.66 6.66 0 0 0-1-.73 5.93 5.93 0 0 0-3.18-.94 5.65 5.65 0 0 0-2.52.6 5.73 5.73 0 0 0-2.54-.6 6 6 0 0 0-3.23 1 5.64 5.64 0 0 0-.94.76 5.9 5.9 0 0 0-1.04 6.61c.84 1.93 3.72 4.39 5.41 5.72l-3.63 3H5.43V16.4L17.55 4.28l12.12 12.13v16.93zM43 31.3V14.68h3.11V31.3H43zm14.45 0v-6.13c0-1.78-1-3.14-2.83-3.14a3.08 3.08 0 0 0-3 3.28v6h-2.87V19.57h2.59l.19 1.59a5.28 5.28 0 0 1 3.85-1.76c2.76 0 5 2.07 5 5.75v6.15h-2.93zm14.01 0v-6.13c0-1.78-1-3.14-2.83-3.14a3.08 3.08 0 0 0-3 3.28v6h-2.86V19.57h2.59l.19 1.59a5.28 5.28 0 0 1 3.85-1.76c2.76 0 5 2.07 5 5.75v6.15h-2.94zm15.44-1.5a6 6 0 0 1-4.51 1.85c-3.4 0-6.22-2-6.22-6.2s2.83-6.2 6.22-6.2A5.56 5.56 0 0 1 86.61 21l-1.83 1.92a3.56 3.56 0 0 0-2.35-.92 3.29 3.29 0 0 0-3.37 3.47 3.19 3.19 0 0 0 3.33 3.42 3.52 3.52 0 0 0 2.57-1l1.94 1.91zm4.16-15.1v16.6h-2.88V14.7h2.88zm5.51 4.89v6.13c0 1.78 1 3.14 2.83 3.14a3.08 3.08 0 0 0 3-3.28v-6h2.87v11.74h-2.59l-.19-1.59a5.22 5.22 0 0 1-4 1.76c-2.8 0-4.85-2.11-4.85-5.75v-6.15h2.93zm18.9 3.11a4 4 0 0 0-2.9-1c-1.38 0-2.14.43-2.14 1.16s.69 1.19 2.19 1.28c2.21.14 5 .64 5 3.75 0 2.07-1.69 3.85-5 3.85a6.85 6.85 0 0 1-5.42-2.09l1.42-2.07a6.43 6.43 0 0 0 4 1.64c1.09 0 2.11-.55 2.11-1.4 0-.85-.67-1.14-2.33-1.23-2.21-.17-4.85-1-4.85-3.63s2.8-3.66 4.94-3.66a6.29 6.29 0 0 1 4.56 1.54l-1.58 1.86zm7.18-6.41a1.71 1.71 0 1 1-3.42 0 1.71 1.71 0 0 1 3.42 0zm-3.16 3.25V31.3h2.9V19.54h-2.9zm17.64.03l-5 11.78H129l-5-11.78h3.16l1.62 3.87 1.81 4.94 1.78-4.89 1.63-3.92h3.13zm3.87 6.91c.19 1.45 1.45 2.49 3.49 2.49a4.83 4.83 0 0 0 3.13-1.09l1.85 1.83a7.19 7.19 0 0 1-5 1.9c-4 0-6.44-2.49-6.44-6.25a5.86 5.86 0 0 1 6.22-6.13c3.92 0 6.37 2.42 5.91 7.24l-9.16.01zm6.37-2.4c-.19-1.52-1.38-2.28-3-2.28a3.15 3.15 0 0 0-3.28 2.28h6.28zm5.88 2.84h2.47a1.21 1.21 0 0 1 1.35 1.19 1 1 0 0 1-.81 1.07c.54.112.921.598.9 1.15a1.23 1.23 0 0 1-1.36 1.26h-2.54l-.01-4.67zm2.25 1.88a.5.5 0 0 0 .55-.51.5.5 0 0 0-.55-.51h-1.25v1l1.25.02zm0 1.95c.38 0 .6-.2.6-.54a.55.55 0 0 0-.6-.55h-1.29v1.09h1.29zm2.4-3.83h3.32v.88h-2.32v1h2.27v.88h-2.27v1.06h2.32v.88h-3.32v-4.7zm5.18.88h-1.37v-.88h3.74v.88h-1.36v3.81h-1l-.01-3.81zm5.5 3.02h-2l-.29.79h-1.14l1.81-4.69h1.25l1.8 4.69h-1.14l-.29-.79zm-1.73-.88h1.46l-.73-2-.73 2z" fill="#414344"/></svg>