<svg width="161" height="22" xmlns="http://www.w3.org/2000/svg"><g fill="none"><path d="M15.7 3.1h-3.3v-3h3.3v3zm-3.3 1.5h3.3V17h-3.3V4.6zm16.4.7c.8.7 1.2 1.8 1.2 3.3v8.3h-3.3V9.4c0-.7-.1-1.2-.3-1.5-.3-.6-.9-1-1.8-1-1.1 0-1.8.5-2.2 1.4-.2.5-.3 1.1-.3 1.9v6.7h-3.2V4.5H22v1.8c.4-.6.8-1.1 1.2-1.4.7-.5 1.5-.8 2.5-.8 1.3.2 2.3.5 3.1 1.2zm6.5 7.7c.1.6.2 1 .4 1.2.4.4 1.1.6 2.2.6.6 0 1.1-.1 1.5-.3.4-.2.6-.5.6-.9s-.2-.6-.5-.8c-.3-.2-1.4-.5-3.4-1-1.4-.3-2.4-.8-3-1.3-.6-.5-.9-1.3-.9-2.2 0-1.1.5-2.1 1.4-3 .9-.9 2.2-1.2 3.8-1.2 1.5 0 2.8.3 3.8.9 1 .6 1.5 1.7 1.7 3.2h-3.2c0-.4-.2-.7-.4-1-.4-.4-1-.7-1.8-.7-.7 0-1.2.1-1.5.3-.3.2-.5.5-.5.8 0 .4.2.6.5.8.3.2 1.4.5 3.4.9 1.3.3 2.3.8 2.9 1.4.6.6 1 1.4 1 2.3 0 1.2-.5 2.2-1.4 3-.9.8-2.3 1.2-4.2 1.2-2 0-3.4-.4-4.3-1.2a4.1 4.1 0 0 1-1.4-3.1h3.3v.1zm13.1-9.9h-3.3v-3h3.3v3zm-3.3 1.5h3.3V17h-3.3V4.6zm12.7.2c.6.3 1.1.8 1.4 1.4V.3h3.3V17h-3.1v-1.7c-.5.7-1 1.3-1.6 1.6-.6.3-1.3.5-2.2.5-1.4 0-2.7-.6-3.7-1.8-1-1.2-1.5-2.7-1.5-4.5 0-2.1.5-3.8 1.5-5 1-1.2 2.3-1.8 3.9-1.8.8 0 1.4.2 2 .5zm.8 8.8c.5-.7.7-1.6.7-2.6 0-1.5-.4-2.6-1.1-3.3-.5-.4-1-.6-1.6-.6-.9 0-1.6.4-2.1 1.1-.4.7-.7 1.6-.7 2.7s.2 2.1.7 2.7c.5.7 1.1 1 2.1 1 .9 0 1.6-.3 2-1zm15.2-8.8c.9.4 1.6 1 2.1 1.8.5.7.8 1.6 1 2.6.1.6.1 1.4.1 2.5h-9c.1 1.2.5 2.1 1.3 2.6.5.3 1.1.5 1.8.5s1.3-.2 1.8-.6c.3-.2.5-.5.7-.9h3.3c-.1.7-.5 1.5-1.2 2.2-1.1 1.2-2.7 1.8-4.7 1.8-1.6 0-3.1-.5-4.4-1.5-1.3-1-1.9-2.7-1.9-5 0-2.1.6-3.8 1.7-4.9 1.1-1.1 2.6-1.7 4.4-1.7 1.2.1 2.1.2 3 .6zm-4.9 2.8c-.5.5-.7 1.1-.9 1.9h5.6c-.1-.9-.3-1.5-.9-2-.5-.4-1.2-.7-1.9-.7-.8.1-1.4.4-1.9.8zm16.7-3.3h.3v3.3H85c-1.3 0-2.2.4-2.6 1.3-.2.5-.4 1.2-.4 2.2V17h-3.3V4.6h3.1v2.2c.5-.8.9-1.4 1.3-1.7.6-.5 1.4-.8 2.4-.8h.1z" fill="#174558"/><path d="M90.1 21.7h-1.4V4.9h1.4V7c.2-.4.5-.7.8-1 .3-.3.7-.6 1-.8.4-.2.8-.4 1.2-.5.4-.1.8-.2 1.2-.2 1 0 1.8.2 2.5.5s1.2.8 1.7 1.3c.4.6.8 1.2 1 2 .2.8.3 1.6.3 2.5 0 .8-.1 1.6-.3 2.4-.2.8-.5 1.5-1 2-.4.6-1 1-1.7 1.4-.7.3-1.5.5-2.4.5-.9 0-1.7-.2-2.5-.6-.8-.4-1.4-.9-1.9-1.7v6.9h.1zm0-10.7c0 .7.1 1.3.3 1.9.2.6.5 1.1.8 1.6.3.5.8.8 1.3 1.1.5.3 1.1.4 1.7.4.7 0 1.3-.1 1.9-.4.5-.3 1-.7 1.3-1.2.3-.5.6-1.1.7-1.7.2-.7.2-1.4.2-2.1 0-.8-.1-1.4-.3-2-.2-.6-.5-1.1-.9-1.5-.4-.4-.8-.7-1.3-.9-.5-.2-1-.3-1.6-.3-.7 0-1.2.1-1.7.4-.5.3-.9.6-1.3 1.1-.4.5-.6 1-.8 1.6-.2.6-.3 1.3-.3 2zm17.5-1.1c.3 0 .6-.1.9-.1.4-.1.7-.1.9-.3.2-.1.4-.3.4-.5.1-.3.1-.5.1-.7 0-.7-.2-1.3-.7-1.8-.5-.5-1.2-.7-2.3-.7-.5 0-.9 0-1.3.1s-.8.2-1.1.4c-.3.2-.6.5-.7.8-.2.3-.3.8-.4 1.3H102c0-.7.2-1.3.5-1.8s.6-.9 1.1-1.2c.4-.3 1-.6 1.5-.7.6-.1 1.2-.2 1.9-.2.6 0 1.2.1 1.7.2s1 .3 1.4.6c.4.3.7.7.9 1.2.2.5.3 1.1.3 1.8v6.6c0 .5.1.9.3 1 .2.1.6.1 1.2-.1v1.1c-.1 0-.3.1-.5.1-.2.1-.4.1-.6.1-.2 0-.4 0-.6-.1-.2 0-.4-.1-.6-.2-.1-.1-.3-.3-.3-.4-.1-.2-.1-.3-.2-.5v-.6c-.6.7-1.3 1.1-2 1.5-.8.3-1.6.5-2.5.5-.5 0-1-.1-1.5-.2s-.9-.4-1.3-.7c-.4-.3-.7-.7-.9-1.1-.2-.4-.3-.9-.3-1.5 0-2 1.4-3.3 4.2-3.6l1.9-.3zm2.4.7c-.6.2-1.2.4-1.8.5-.6.1-1.2.1-1.8.2-1.1.1-1.9.3-2.5.7-.6.4-.9 1-.9 1.8 0 .4.1.7.2 1 .1.3.3.5.6.7.2.2.5.3.8.4.3.1.6.1 1 .1.6 0 1.1-.1 1.6-.2s1-.4 1.4-.6c.4-.3.7-.7 1-1.1.2-.4.4-1 .4-1.6v-1.9zm13.6-5.7h1.4v10.9c0 .8-.1 1.6-.2 2.3-.2.7-.5 1.4-.9 1.9-.4.6-1 1-1.7 1.3-.7.3-1.7.5-2.8.5-.9 0-1.6-.1-2.3-.3-.7-.2-1.2-.5-1.6-.8-.4-.3-.7-.7-.9-1.1-.2-.4-.3-.8-.3-1.2h1.5c.1.5.3.8.5 1.1.2.3.5.5.8.7.3.2.7.3 1.1.3.4.1.8.1 1.2.1.9 0 1.7-.2 2.3-.5.6-.3 1-.8 1.3-1.3.3-.5.5-1.1.6-1.8.1-.7.1-1.4.1-2-.5.7-1.1 1.3-1.9 1.7-.8.4-1.6.6-2.5.6-.9 0-1.7-.2-2.4-.5s-1.2-.8-1.7-1.4c-.4-.6-.8-1.3-1-2-.2-.8-.3-1.6-.3-2.4 0-.9.1-1.7.3-2.5.2-.8.5-1.4 1-2 .4-.6 1-1 1.7-1.3.7-.3 1.5-.5 2.5-.5.4 0 .8.1 1.2.2.4.1.8.3 1.2.5.4.2.7.5 1 .8.3.3.6.7.8 1V4.9zm0 6.1c0-.7-.1-1.4-.3-2-.2-.6-.4-1.2-.8-1.6-.4-.4-.8-.8-1.3-1.1-.5-.3-1.1-.4-1.7-.4-.6 0-1.1.1-1.6.3-.5.2-.9.5-1.3.9s-.7.9-.9 1.5c-.2.6-.3 1.3-.3 2 0 .8 0 1.5.2 2.1.2.7.4 1.2.7 1.7.3.5.8.9 1.3 1.2.5.3 1.2.4 1.9.4.6 0 1.2-.1 1.7-.4.5-.3.9-.6 1.3-1.1.3-.5.6-1 .8-1.6.2-.6.3-1.2.3-1.9zm17.6 2.2c.2 1 .6 1.8 1.2 2.2.6.4 1.4.6 2.4.6.5 0 1-.1 1.3-.2.4-.1.7-.3.9-.5.2-.2.4-.4.5-.7.1-.3.2-.5.2-.8 0-.6-.2-1-.6-1.3-.4-.3-.9-.5-1.4-.7-.6-.2-1.2-.3-1.9-.4-.7-.1-1.3-.3-1.9-.5-.6-.2-1.1-.6-1.4-1-.4-.4-.6-1-.6-1.8 0-1 .4-1.8 1.1-2.5.7-.6 1.8-1 3.1-1s2.4.3 3.2.9c.8.6 1.3 1.6 1.5 2.9h-1.4c-.1-.9-.5-1.6-1.1-2-.6-.4-1.3-.6-2.2-.6-.9 0-1.6.2-2 .6-.5.4-.7.9-.7 1.5 0 .5.2 1 .6 1.2.4.3.9.5 1.4.7.6.2 1.2.3 1.9.5.7.1 1.3.3 1.9.6.6.3 1.1.6 1.4 1 .4.4.6 1 .6 1.8 0 .6-.1 1.1-.4 1.5-.2.4-.6.8-1 1.1-.4.3-1 .5-1.5.7-.6.1-1.3.2-2 .2s-1.3-.1-1.9-.3c-.6-.2-1-.5-1.4-.9-.4-.4-.7-.8-.9-1.3-.2-.5-.3-1-.4-1.6h1.5v.1zm9.1-9.8v-.8h4.1v.8h-1.6v4h-1v-4h-1.5zm6.3-.8l1.2 3.4 1.2-3.4h1.4v4.8h-.9V3.5l-1.3 3.9h-.8l-1.3-3.9v3.9h-.9V2.6h1.4z" fill="#FF7200"/><path fill="#2EC6FF" d="M9.1 8.8H.4l8.7 7.9z"/><path d="M128.9 12.8c.1.6.4 1.1.7 1.5.3.5.7.8 1.2 1.1.5.3 1.1.4 1.8.4 1.1 0 1.9-.3 2.5-.8.6-.6 1-1.3 1.3-2.2h1.5c-.3 1.4-.9 2.4-1.7 3.2-.8.7-2 1.1-3.5 1.1-.9 0-1.8-.2-2.5-.5s-1.3-.8-1.7-1.4c-.4-.6-.8-1.3-1-2-.2-.7-.3-1.6-.3-2.4 0-.8.1-1.6.3-2.3.2-.8.5-1.4 1-2 .4-.6 1-1.1 1.7-1.4.7-.4 1.5-.5 2.5-.5s1.8.2 2.5.6c.7.4 1.2.9 1.7 1.5.4.6.7 1.4.9 2.2.2.8.3 1.6.2 2.5h-9.3c0 .3.1.9.2 1.4zm7.3-4.5c-.2-.5-.4-1-.8-1.4-.3-.4-.7-.7-1.2-1-.5-.2-1-.4-1.6-.4-.6 0-1.1.1-1.6.4-.5.2-.9.6-1.2 1-.3.4-.6.9-.8 1.4-.2.5-.3 1.1-.4 1.6h7.8c.1-.5 0-1-.2-1.6z" fill="#FF7200"/></g></svg>