<svg width="226" height="41" xmlns="http://www.w3.org/2000/svg"><g fill="#FFF"><path d="M147.844 40.337l2.393-7.52-8.204-24.612h2.051c3.931 0 5.298 3.76 5.298 3.76l3.76 12.819 3.76-12.99c1.196-3.76 4.273-3.418 5.64-3.418h1.538l-9.571 28.372c-1.708 4.443-6.665 3.589-6.665 3.589zm31.449-9.23v-11.11c0-2.222.342-4.102 1.026-5.64.684-1.538 1.538-2.735 2.735-3.589 1.026-.855 2.393-1.538 3.76-1.88 1.538-.342 2.906-.684 4.444-.684h1.026v5.982h-2.051c-1.709 0-2.906.342-3.76 1.196-.855.855-1.196 2.051-1.196 3.76v6.837s.171 4.957-4.957 4.957l-1.027.171zm-3.247-6.153c-1.709 0-2.906-.342-3.76-1.196-.855-.855-1.196-2.051-1.196-3.76v-5.811h1.88c5.128 0 5.298-5.982 5.298-5.982h-7.008V6.153c0-4.273-3.76-4.615-4.444-4.615h-1.538v17.776c0 2.222.342 4.102 1.026 5.64.684 1.538 1.538 2.735 2.735 3.589 1.025.855 2.393 1.538 3.76 1.88 1.538.342 2.906.684 4.444.684h1.026v-6.153h-2.223zM72.64 30.936v-11.11c0-2.222.342-4.102 1.026-5.64.684-1.538 1.538-2.735 2.735-3.589 1.026-.855 2.222-1.538 3.76-1.88 1.538-.342 2.906-.684 4.444-.684h1.026v6.153H83.58c-1.709 0-2.906.342-3.76 1.196-.855.855-1.196 2.051-1.196 3.76v6.837s.171 4.957-4.957 4.957H72.64zm69.906-14.699c0-.171 0-.171 0 0 0-.513 0-.855-.171-1.196 0-.171 0-.513-.171-.684 0-.171-.171-.513-.171-.684 0-.171-.171-.342-.171-.513 0-.171-.171-.342-.171-.342 0-.171-.171-.342-.171-.513 0-.171-.171-.171-.171-.342s-.171-.342-.171-.342c0-.171-.171-.171-.171-.342-.171-.171-.171-.342-.342-.342l-.171-.171-.342-.342-.171-.171c-.171-.171-.342-.342-.684-.513-2.051-1.196-4.102-1.88-6.495-1.88h-1.026c-1.026 0-2.051.171-3.077.342-1.196.342-2.393.855-3.247 1.709a8.515 8.515 0 0 0-3.247-1.709c-1.026-.171-2.051-.342-3.077-.342h-1.026c-2.393 0-4.444.684-6.495 1.88a2.36 2.36 0 0 1-.684.513l-.171.171-.342.342-.171.171-.342.342c0 .171-.171.171-.171.342s-.171.342-.171.342c0 .171-.171.171-.171.342s-.171.342-.171.513c0 .171-.171.171-.171.342s-.171.342-.171.513c0 .171 0 .342-.171.342 0 .342-.171.513-.171.855 0 .342-.171.684-.171 1.026v14.87h1.538c3.931 0 4.444-3.077 4.444-3.931V16.237s.171-2.222 1.367-3.077c.855-.684 1.709-1.026 2.735-1.026 1.026 0 1.88.342 2.735 1.026.855.684 1.196 1.709 1.196 3.077v14.699h5.982V16.409c0-1.367.342-2.393 1.196-3.077.855-.684 1.709-1.026 2.735-1.026 1.026 0 1.88.342 2.735 1.026 1.196 1.196 1.367 3.077 1.367 3.077v10.597c0 .855.513 3.931 4.444 3.931h1.538V17.605c.176-.513.176-1.026.176-1.368zM27.86 16.066c-.171-3.247-1.196-5.469-3.077-6.495-1.88-1.196-3.931-1.709-6.153-1.88h-1.368c-2.222.171-4.273.684-6.153 1.88-1.88 1.026-2.906 3.247-3.077 6.495v14.699h1.709c3.76 0 4.102-3.589 4.102-4.444V16.066c0-1.367.342-2.393 1.196-3.077.855-.684 1.709-1.026 2.735-1.026 1.026 0 1.88.342 2.735 1.026.855.684 1.196 1.709 1.196 3.077v10.255c0 .855.342 4.444 4.102 4.444h1.709v-13.16c.344-.513.344-1.026.344-1.539zm23.245 7.008c.171 3.247 1.196 5.469 3.077 6.495 1.88 1.196 3.931 1.709 6.153 1.88h1.368c2.222-.171 4.273-.684 6.153-1.88 1.88-1.026 2.906-3.247 3.077-6.495V8.204h-1.709c-3.76 0-4.102 3.589-4.102 4.444v10.255c0 1.367-.342 2.393-1.196 3.077-.855.684-1.709 1.026-2.735 1.026-1.026 0-1.88-.342-2.735-1.026-.855-.684-1.196-1.709-1.196-3.077V12.648c0-.855-.342-4.444-4.102-4.444h-1.709v13.332c-.344.512-.344 1.025-.344 1.538zM199.291 7.691c.684-.684 1.026-4.957-.342-6.666-.684-.684-1.367-.855-2.222-.855s-1.709.342-2.222.855c-.684.684-1.026 1.367-1.026 2.222s.342 1.709.855 2.222c.684.513 4.444 2.735 4.957 2.222zm-5.64.513v23.074-.171h5.982V14.186c0-3.076-2.564-5.982-5.982-5.982zM.513 7.691C0 7.008-.513 2.564 1.026.855 1.538.342 2.393 0 3.247 0c.854 0 1.709.342 2.222.855.684.684 1.026 1.367 1.026 2.222s-.342 1.709-.855 2.221c-.683.684-4.444 2.906-5.127 2.393zm5.64.513s.171 0 0 0c.171 0 .171 0 0 0v22.903H.171V14.186c.171-3.076 2.564-5.982 5.982-5.982zm98.962 15.725h1.538c-.684 2.393-1.88 4.273-3.589 5.469-1.709 1.367-3.931 2.051-6.666 2.051-3.247 0-5.811-1.026-7.691-3.247-1.88-2.051-2.735-4.957-2.735-8.888 0-3.589.855-6.495 2.735-8.546 1.88-2.051 4.444-3.247 7.691-3.247 3.418 0 6.153 1.026 8.033 3.077 1.709 1.88 2.393 3.077 2.564 6.495 0 2.393.171 4.273-2.735 4.273H92.979s-.684.171-.513 1.538c.342 2.222 2.906 3.418 4.444 3.418 1.367.171 1.88-.171 3.247-1.026 1.881-1.367 3.078-1.367 4.958-1.367zM92.98 17.263h8.033c.513 0 .171-4.615-4.444-4.615-1.196 0-2.222.342-3.077 1.196-.684.684-1.026 1.538-1.196 2.564-.171.855.684.855.684.855zm114.344 17.092c0 3.931-3.418 4.444-4.273 4.444h-1.538V17.434c0-3.931 1.196-6.666 3.589-8.204 2.393-1.538 4.957-2.222 7.691-2.222 1.367 0 2.906.342 4.273.855 1.367.513 2.564 1.367 3.418 2.393 1.709 2.222 2.564 5.128 2.564 8.546 0 3.589-.855 6.495-2.564 8.717-1.709 2.222-3.931 3.247-6.666 3.247-1.367 0-2.735-.342-3.76-.855-1.196-.513-2.051-1.538-2.735-2.735v7.179h.001zm9.913-15.212c0-2.222-.513-3.931-1.367-5.128s-2.051-1.88-3.76-1.88c-1.538 0-2.735.684-3.589 1.88-.855 1.026-1.196 2.735-1.196 5.128 0 2.222.513 3.76 1.367 4.957s2.051 1.88 3.76 1.88c1.538 0 2.735-.684 3.589-1.88.684-1.368 1.196-2.906 1.196-4.957zm-188.01 4.273h5.811c0 1.196.513 2.051 1.367 2.564.855.513 2.051.855 3.418.855 1.026 0 1.88-.171 2.735-.684.684-.342 1.026-1.026 1.026-1.709 0-1.026-1.196-1.88-3.589-2.393-1.026-.171-1.88-.342-2.393-.513-3.077-.684-5.128-1.709-6.153-2.735-1.196-1.026-1.709-2.393-1.709-4.102 0-2.222.855-3.931 2.564-5.469 1.709-1.367 3.931-2.051 6.666-2.051 2.906 0 5.298.684 7.179 2.051 1.709 1.367 2.564 3.247 2.735 5.64h-3.76c-1.026 0-1.88-.513-2.564-1.538l-.684-.684c-.684-.513-1.709-.855-2.906-.855s-2.051.171-2.564.513c-.513.342-.855.855-.855 1.538 0 .855 1.538 1.709 4.444 2.393.342.171.684.171.855.342h.684c2.906.684 4.957 1.538 6.153 2.564 1.026 1.026 1.709 2.393 1.709 4.102 0 2.564-.855 4.444-2.735 5.811-1.709 1.196-4.273 1.88-7.691 1.88-3.247 0-5.64-.684-7.349-2.051-1.709-1.367-2.564-3.247-2.564-5.811v.342h.17zM222.194 7.349c-1.88 0-3.589-1.538-3.589-3.589 0-1.88 1.538-3.589 3.589-3.589 1.88 0 3.589 1.538 3.589 3.589 0 1.88-1.538 3.589-3.589 3.589zm0-6.494c-1.709 0-2.906 1.367-2.906 2.906 0 1.709 1.367 2.906 2.906 2.906 1.709 0 2.906-1.367 2.906-2.906.171-1.71-1.197-2.906-2.906-2.906z"/><path d="M221.852 4.102v1.367h-.513V2.051h1.026c.513 0 .684 0 1.026.171.171.171.342.342.342.684s-.171.684-.684.855l1.026 1.538h-.684l-.855-1.367h-.684v.17zm0-.513h.342c.342 0 .513 0 .513-.171.171-.171.171-.171.171-.513 0-.171 0-.342-.171-.342s-.342-.171-.513-.171h-.342v1.197zm-10.084 21.878v-.513.513zm-.171 0s.171 0 0 0v-1.026 1.026z"/></g></svg>