<svg xmlns="http://www.w3.org/2000/svg" viewBox="0 0 841.9 253.1"><path d="M142 146.6c0-12.1-4.7-23.1-12.4-31.5 7.5-8.3 12.1-19.2 12.1-31.1v-7.9h-.1c-.3-1.8-2-3.2-3.9-3.2h-24c-2 0-3.6 1.4-3.9 3.2l-.5 7.9c0 8.5-7.1 15.4-15.8 15.4v.1h-8.1c-5.6 0-10.9 1-15.9 2.7V33.6c0-2.1-1.8-3.9-4-3.9h-24c-2.2 0-4 1.8-4 3.9v145.3c0 2.1 1.8 3.9 4 3.9h24c2.2 0 4-1.8 4-3.9v-32.3h.2c0-8.5 7.1-15.4 15.8-15.4H94c8.7 0 15.8 6.9 15.8 15.4v7.9h.1v24.4c0 2.1 1.8 3.9 4 3.9h24c2.2 0 4-1.8 4-3.9l.4-24.4v-7.9zm119.8-43.2c0-2.1-1.8-3.9-4-3.9h-24c-2.2 0-4 1.8-4 3.9v58.5c0 8.5-7.2 15.4-16 15.4h-8.5c-8.7 0-15.8-6.9-15.8-15.4l-.1-58.5c0-2.1-1.8-3.9-4-3.9h-24c-2.2 0-4 1.8-4 3.9l-.1 58.5c0 26 21.3 47.1 47.9 47.1h8.5c26.6 0 48-21.1 48-47.1l.1-58.5zm16.2 76.3c0 2.1 1.8 3.9 4 3.9h24c2.2 0 4-1.8 4-3.9v-58.5c0-8.5 7.2-15.4 15.9-15.4h8.5c8.7 0 15.8 6.9 15.8 15.4l.1 58.5c0 2.1 1.8 3.9 4 3.9h24c2.2 0 4-1.8 4-3.9l.1-58.5c0-25.9-21.3-47.1-47.9-47.1H326c-26.6 0-47.9 21.1-47.9 47.1l-.1 58.5zm224.8-76.3c0-2.1-1.8-3.9-4-3.9h-24c-2.2 0-4 1.8-4 3.9v58.5c0 8.5-7.2 15.4-15.9 15.4h-8.5c-8.7 0-15.8-6.9-15.8-15.4l-.1-58.5c0-2.1-1.8-3.9-4-3.9h-24c-2.2 0-4 1.8-4 3.9v58.5c0 26 21.3 47.1 47.9 47.1h8.5c26.6 0 47.9-21.1 47.9-47.1v-58.5zm241 0c0-2.1-1.8-3.9-4-3.9h-24c-2.2 0-4 1.8-4 3.9v58.5c0 8.5-7.2 15.4-15.9 15.4h-8.5c-8.7 0-15.8-6.9-15.8-15.4l-.1-58.5c0-2.1-1.8-3.9-4-3.9h-24c-2.2 0-4 1.8-4 3.9l-.1 58.5c0 26 21.3 47.1 47.9 47.1h8.5c26.6 0 47.9-21.1 47.9-47.1l.1-58.5zm-224.7 75.5c0 2.2 1.8 3.9 4 3.9h24c2.2 0 4-1.7 4-3.9v-58.5c0-8.5 7.2-15.4 15.9-15.4h8.5c8.7 0 15.8 6.9 15.8 15.4l.1 58.5c0 2.2 1.8 3.9 4 3.9h24c2.2 0 4-1.7 4-3.9l.1-58.5c0-26-21.3-47.1-47.9-47.1H567c-26.6 0-47.9 21.1-47.9 47.1v58.5zM765 38.5c-1.6-1.6-4.3-1.6-5.9 0l-1.6 1.5c-1.6 1.6-1.6 4.2 0 5.8l9.6 9.4c1.3 1.3 1.2 3.4-.1 4.6l-1.2 1.2a3.32 3.32 0 0 1-4.7 0l-9.7-9.4c-5-4.8-5-12.7-.1-17.6l1.6-1.5c5-4.8 13-4.8 18 .1l9 8.8.6.6c1.3 1.3 1.3 3.3 0 4.6l-1.2 1.2c-1.3 1.3-3.5 1.4-4.8.1l-9.5-9.4zm43.9 7.4c1.6-1.6 1.6-4.2 0-5.7l-1.6-1.6c-1.6-1.6-4.3-1.6-5.9 0l-9.6 9.4c-1.3 1.3-3.4 1.2-4.7-.1l-1.2-1.2c-1.3-1.3-1.3-3.3-.1-4.6l9.6-9.5c5-4.8 13-4.9 18-.1L815 34c5 4.9 4.9 12.7 0 17.6l-9 8.8-.6.6a3.32 3.32 0 0 1-4.7 0l-1.2-1.2c-1.3-1.3-1.4-3.4-.1-4.6l9.5-9.3zm-51.4 35.6c-1.6 1.6-1.6 4.2 0 5.8l1.6 1.6c1.6 1.6 4.3 1.6 5.9 0l9.6-9.4c1.3-1.3 3.4-1.2 4.7.1l1.2 1.2c1.3 1.3 1.3 3.3.1 4.6l-9.7 9.4c-5 4.9-13 4.9-18 .1l-1.6-1.5c-5-4.8-4.9-12.7.1-17.5l9-8.8.6-.6c1.3-1.3 3.4-1.3 4.7 0l1.2 1.2c1.3 1.3 1.4 3.4.1 4.6l-9.5 9.2zm43.8 7.3c1.6 1.6 4.3 1.6 5.9 0l1.6-1.5c1.6-1.6 1.7-4.2 0-5.8l-9.6-9.4c-1.3-1.3-1.2-3.3.1-4.6l1.2-1.2c1.3-1.3 3.4-1.3 4.7-.1l9.7 9.4c5 4.8 5 12.7.1 17.6l-1.6 1.5c-5 4.9-13 4.8-18-.1l-9-8.8-.6-.6c-1.3-1.3-1.3-3.3 0-4.6l1.2-1.2c1.3-1.3 3.5-1.4 4.8-.1l9.5 9.5z"/></svg>