<svg width="143" height="20" xmlns="http://www.w3.org/2000/svg" xmlns:xlink="http://www.w3.org/1999/xlink"><defs><path id="a" d="M0 .295h23.804v14.496H0z"/><path id="c" d="M.374.27H14.7v14.902H.374z"/></defs><g fill="none" fill-rule="evenodd"><g transform="translate(0 .165)"><mask id="b" fill="#fff"><use xlink:href="#a"/></mask><path d="M11.291.295c1.847 0 3.086.807 3.716 2.42C16.293 1.103 17.85.296 19.68.296c1.164 0 2.177.347 3.04 1.04.861.692 1.209 1.666 1.043 2.92L21.427 14.79h-4.135c.139-.579.443-1.783.912-3.611.468-1.829.816-3.238 1.043-4.229.552-2.122.053-3.183-1.496-3.183-.735 0-1.355.274-1.858.822-.503.548-.865 1.265-1.083 2.15-.668 2.686-1.346 5.37-2.035 8.05H8.652c.219-.894.552-2.24.998-4.038.446-1.797.78-3.143.998-4.037.499-1.974-.013-2.965-1.536-2.974-.735 0-1.357.27-1.865.81-.507.539-.862 1.212-1.063 2.019-.91 3.762-1.593 6.502-2.048 8.22H0L3.492.65h4.15c-.15.571-.286 1.146-.408 1.724.394-.413.729-.735 1.005-.967.275-.232.695-.476 1.26-.73a4.313 4.313 0 0 1 1.792-.382" fill="#FFF" fill-rule="nonzero" mask="url(#b)"/></g><path d="M32.014 3.565c-1.646 0-2.836.943-3.571 2.828h6.066a2.09 2.09 0 0 0 .092-.565c0-.632-.208-1.167-.624-1.605-.416-.439-1.07-.658-1.963-.658zm-1.26 11.746c-2.171 0-3.834-.616-4.99-1.848-1.155-1.232-1.733-2.79-1.733-4.676 0-1.289.3-2.559.9-3.808.6-1.25 1.547-2.32 2.842-3.21C29.07.88 30.583.435 32.316.435s3.172.527 4.32 1.579c1.146 1.052 1.72 2.521 1.72 4.406 0 .755-.132 1.605-.394 2.552h-9.979c.07 2.07 1.064 3.105 2.98 3.105.5 0 .97-.09 1.412-.27.442-.18.779-.364 1.01-.553.233-.188.52-.453.861-.795.297.227 1.195.854 2.692 1.88-1.26 1.456-2.405 2.316-3.434 2.579-1.028.263-1.945.394-2.75.394v-.001zM46.448 3.96c-1.47 0-2.481 1.087-3.033 3.262-.07.307-.394 1.6-.971 3.88-.578 2.28-.902 3.565-.972 3.854h-4.083L40.855.816h4.149c-.193.64-.329 1.17-.407 1.591 1.321-1.28 2.647-1.92 3.978-1.92 1.33 0 2.361.4 3.092 1.197.73.798 1.035 1.828.913 3.091-.036.465-.318 1.824-.847 4.078a170.03 170.03 0 0 1-1.543 6.103h-4.11c1.436-4.525 2.149-7.633 2.14-9.326 0-.578-.168-1.001-.505-1.27-.337-.267-.76-.4-1.267-.4zm10.298 11.18c-1.278 0-2.298-.34-3.06-1.02-.76-.678-1.142-1.602-1.142-2.768.15-1 .78-3.84 1.891-8.524l.512-2.012h4.11L56.93 9.945c-.158.552-.081.977.23 1.275.31.299.848.448 1.542.448h2.301L63.652.816h4.122L64.27 15.14h-7.524z" fill="#FFF" fill-rule="nonzero"/><path d="M74.922 12.076c1.111 0 2.044-.544 2.796-1.632.753-1.087 1.13-2.275 1.13-3.564 0-.772-.217-1.496-.65-2.17-.434-.676-1.097-1.013-1.99-1.013-.892 0-1.805.438-2.737 1.315-.932.877-1.398 2.223-1.398 4.038 0 .991.29 1.743.873 2.256.582.513 1.24.77 1.976.77M77.665.486c1.436 0 2.686.527 3.75 1.58 1.063 1.052 1.594 2.648 1.594 4.787 0 2.14-.73 4.08-2.192 5.82-1.462 1.742-3.256 2.612-5.383 2.612-1.847 0-3.265-.701-4.254-2.105a585.912 585.912 0 0 1-1.589 6.459h-4.083L70.129.816h3.9a42.6 42.6 0 0 1-.17.724c-.08.324-.136.565-.171.723C74.904 1.079 76.23.487 77.665.487m10.3 8.603c0 .876.234 1.58.702 2.11.468.532 1.122.797 1.963.797 1.199 0 2.18-.568 2.941-1.704.761-1.136 1.142-2.265 1.142-3.387 0-1.122-.273-1.92-.82-2.394-.547-.473-1.198-.71-1.95-.71-1.094.035-2.03.566-2.81 1.591-.779 1.026-1.168 2.259-1.168 3.697m.932 6.195c-1.41 0-2.615-.535-3.617-1.605-1.003-1.07-1.503-2.539-1.503-4.406 0-2.42.752-4.499 2.258-6.235C87.54 1.303 89.282.435 91.26.435c1.978 0 3.444.71 4.399 2.13L96.144.62h4.136l-3.57 14.336h-4.123l.328-1.263c-1.269 1.062-2.608 1.592-4.017 1.592m17.269-4.235c1.164 0 2.105-.512 2.823-1.533s1.076-2.032 1.076-3.032-.264-1.714-.794-2.144a2.843 2.843 0 0 0-1.844-.645c-1.165 0-2.105.531-2.823 1.592s-1.077 2.052-1.077 2.973c0 .92.238 1.616.716 2.084.476.47 1.118.705 1.923.705m-5.304 3.67c.508 1.27 1.864 1.907 4.07 1.907 1.855 0 3.098-1.382 3.729-4.144-.648.553-1.272.965-1.871 1.237-.6.272-1.32.407-2.16.407-.84 0-1.641-.162-2.403-.486-.761-.325-1.429-.91-2.002-1.756-.573-.847-.86-1.888-.86-3.124 0-2.158.735-4.089 2.206-5.795 1.47-1.705 3.252-2.558 5.344-2.558 1.811 0 3.203.72 4.175 2.157.07-.289.218-.872.446-1.749h4.044c-.946 3.936-1.904 7.869-2.875 11.799-.718 2.534-1.71 4.358-2.974 5.472-1.265 1.113-3.08 1.67-5.442 1.67-3.423 0-5.637-1.215-6.644-3.643.718-.325 1.79-.79 3.217-1.395m21.865-11.154c-1.645 0-2.836.943-3.571 2.828h6.066a2.09 2.09 0 0 0 .092-.565c0-.632-.209-1.167-.624-1.605-.416-.439-1.07-.658-1.963-.658m-1.26 11.746c-2.171 0-3.834-.616-4.99-1.848-1.155-1.232-1.733-2.79-1.733-4.676 0-1.289.3-2.559.9-3.808.6-1.25 1.547-2.32 2.842-3.21 1.296-.89 2.81-1.335 4.543-1.335s3.173.527 4.32 1.579c1.146 1.052 1.72 2.521 1.72 4.406 0 .755-.132 1.605-.394 2.552h-9.979c.07 2.07 1.064 3.105 2.98 3.105.5 0 .97-.09 1.412-.27.442-.18.779-.364 1.011-.553.232-.188.519-.453.86-.795.298.227 1.195.854 2.692 1.88-1.261 1.456-2.405 2.316-3.434 2.579-1.028.263-1.945.394-2.75.394" fill="#00A99D" fill-rule="nonzero"/><g transform="translate(127.926 .165)"><mask id="d" fill="#fff"><use xlink:href="#c"/></mask><path d="M10.38 3.787a3.8 3.8 0 0 0-1.773-.414c-.648 0-1.116.108-1.405.322-.29.216-.433.476-.433.783 0 .307.144.553.433.737.289.184.796.412 1.523.684.726.272 1.308.502 1.746.69.438.19 1.033.531 1.785 1.026.753.496 1.13 1.406 1.13 2.73 0 1.333-.582 2.47-1.746 3.413-1.165.943-2.714 1.414-4.648 1.414-2.687 0-4.893-1.043-6.618-3.13l2.85-2.105c1.006 1.333 2.35 2 4.03 2 .5 0 .961-.1 1.385-.297.425-.197.637-.515.637-.953 0-.439-.512-.86-1.536-1.263-2.004-.772-3.352-1.488-4.044-2.15C3.005 6.61 2.66 5.85 2.66 4.99c0-1.271.514-2.376 1.543-3.315C5.23.738 6.707.27 8.633.27c1.287 0 2.477.261 3.57.783 1.095.521 1.927 1.168 2.496 1.94L12.047 5.07c-.578-.578-1.134-1.006-1.668-1.283" fill="#00A99D" fill-rule="nonzero" mask="url(#d)"/></g></g></svg>