<svg width="155" height="35" xmlns="http://www.w3.org/2000/svg"><g fill="none"><path d="M30.7.1c-9.5 0-17.2 7.7-17.2 17.2s7.7 17.2 17.2 17.2 17.2-7.7 17.2-17.2S40.2.1 30.7.1zm0 21.5c-2.4 0-4.3-1.9-4.3-4.3s1.9-4.3 4.3-4.3 4.3 1.9 4.3 4.3c0 2.3-2 4.3-4.3 4.3zM.5 17.3c0-2.4 1.9-4.3 4.3-4.3s4.3 1.9 4.3 4.3-1.9 4.3-4.3 4.3-4.3-2-4.3-4.3z" fill="#DA3743"/><path d="M88.9 14c2.6 0 4.5 1.9 4.5 4.5v.6c0 .3-.3.4-.5.4h-6.3c0 1.2 1 2.3 2.4 2.3 1 0 1.7-.4 2.1-.7.2-.2.5-.2.6 0l.8 1.1c.2.2.2.4 0 .6-.9.7-2.1 1.3-3.7 1.3-2.9 0-5-2.3-5-5.1.2-2.7 2.2-5 5.1-5zm1.8 3.9c0-1-.8-1.7-1.9-1.7-1.2 0-2 .7-2.1 1.7h4zm23.8-7.7h-10c-.2 0-.4.2-.4.4v1.7c0 .2.2.4.4.4h3.6v10.9c0 .2.2.4.4.4h2c.2 0 .4-.2.4-.4V12.7h3.6c.2 0 .4-.2.4-.4v-1.7c0-.2-.1-.4-.4-.4zm15.1 3.8c-1 0-2 .2-2.4.4v-3.7c0-.2-.2-.5-.5-.5H125c-.2 0-.5.2-.5.5v12.9c0 .3.2.5.5.5h.9c.3 0 .5-.2.5-.5v-.7s1.1 1.5 3.3 1.5c2.7 0 4.6-2.3 4.6-5.1 0-3.1-1.8-5.3-4.7-5.3zm-.3 7.8c-1.3 0-2-.8-2.2-1.4V17s.8-.6 2-.6c1.6 0 2.4 1.3 2.4 2.7.2 1.4-.6 2.7-2.2 2.7zM146 14c2.6 0 4.5 1.9 4.5 4.5v.6c0 .3-.3.4-.5.4h-6.3c0 1.2 1 2.3 2.4 2.3 1 0 1.7-.4 2.1-.7.2-.2.5-.2.6 0l.8 1.1c.2.2.2.4 0 .6-.9.7-2.1 1.3-3.7 1.3-2.9 0-5-2.3-5-5.1.1-2.7 2.2-5 5.1-5zm1.8 3.9c0-1-.8-1.7-1.9-1.7-1.2 0-2 .7-2.1 1.7h4zM77.7 14c-2 0-3.1 1.4-3.2 1.5v-.8c0-.3-.2-.5-.5-.5h-1c-.3 0-.5.2-.5.5v12.9c0 .2.2.5.5.5h1.7c.2 0 .5-.2.5-.5v-3.7c.4.2 1.4.4 2.4.4 2.9 0 4.9-2.3 4.9-5.1-.1-3.1-2.1-5.2-4.8-5.2zm-.5 7.8c-1.2 0-2-.6-2-.6v-3.5c.2-.6.9-1.4 2.2-1.4 1.5 0 2.3 1.3 2.3 2.7 0 1.5-.9 2.8-2.5 2.8zm23.4-7.8c-1.9 0-2.8 1-3.2 1.4v-.7c0-.3-.2-.5-.5-.5h-1.1c-.2 0-.5.2-.5.5v8.9c0 .3.2.5.5.5h1.6c.5 0 .6-.1.6-.5V18c.2-.7.9-1.5 2.1-1.5 1.2 0 1.7.8 1.7 2.1v5.1c0 .3.2.5.5.5h1.7c.2 0 .5-.2.5-.5v-5.1c.1-2.5-.8-4.6-3.9-4.6zm17.9 0c-1.6 0-3.1.4-3.4.5-.2.1-.4.2-.3.6l.2 1.1c0 .3.2.5.6.4.6-.2 1.9-.4 2.8-.4 1 0 1.4.6 1.4 1.8 0 0-.9-.3-1.9-.3-2.5 0-3.9 1.3-3.9 3.1 0 2.1 1.4 3.4 3.3 3.4 1.5 0 2.5-.7 3.1-1.2v.5c0 .3.2.5.5.5h1c.3 0 .5-.2.5-.5v-5.3c-.2-2.6-.9-4.2-3.9-4.2zm1.1 7.2c-.1.4-.9 1-1.8 1s-1.4-.6-1.4-1.4c0-.9.6-1.4 1.7-1.4.8 0 1.4.3 1.4.3v1.5h.1zm-56.1-11c-3.9 0-7 3.2-7 7.1 0 3.9 3.1 7 7 7 4 0 7.1-3.1 7.1-7s-3.2-7.1-7.1-7.1zm0 2.7c2.3 0 4.3 2 4.3 4.3 0 2.4-1.9 4.3-4.3 4.3s-4.3-1.9-4.3-4.3c0-2.3 2-4.3 4.3-4.3zM139.3 24c.3 0 .5-.2.5-.5v-1.7c0-.3-.2-.5-.5-.5h-.1c-.2 0-.4-.2-.4-.4V10.7c0-.2-.2-.5-.5-.5h-1.7c-.2 0-.5.2-.5.5v11.6c0 .8.8 1.7 1.7 1.7h1.5zm11.8-9.7h-.7V14h1.7v.3h-.7V16h-.4v-1.7h.1zm1.4-.3h.5l.3.7.2.5.2-.5.3-.7h.5v2h-.4v-1.6l-.5 1.3h-.3l-.5-1.3V16h-.4v-2h.1z" fill="#212120"/></g></svg>