<svg width="182" height="35" xmlns="http://www.w3.org/2000/svg"><g fill="#FFF"><path d="M107.6 33.7l14.3-32.3c.2-.5-.1-.9-.6-.9h-10c-.6 0-1.2.4-1.4.9L95.8 33.8c-.2.5.1.9.6.9h9.8c.5-.1 1.2-.5 1.4-1zm48-33.4l-5.9 9.4h10.2l-22.6 24.8h27.5l10.2-9.7h-15.7L181.5.3h-25.9zM63.9.3H46.7c-1 0-2.1.7-2.4 1.6l-13.5 31c-.4.9.1 1.6 1.1 1.6h8.5c1 0 2.1-.7 2.4-1.6l3.9-8.8h4c1.2-.1 1.8.4 1.1 1.8l-3 6.9c-.4.9.1 1.6 1.1 1.6h8.5c1 0 2.1-.7 2.4-1.6l3.9-9c1.2-2.9-.5-5.2-3.1-5.3 2.3-.8 4.3-3.1 5.3-5.1l2-4.7c2.3-5.3.6-8.5-5-8.4zm-5 9.8l-2.1 4.7c-.5 1.1-1.2 1.2-1.9 1.2H50l3.2-7.3h4.6c1.2 0 1.5.4 1.1 1.4zM97.3.3H79.1c-.7 0-1.5.5-1.7 1.1l-14 32c-.3.6.1 1.1.8 1.1h19.5c6.2-.1 9.7-1.5 12.5-8l2-4.4c1.6-3.7 0-5.4-2.9-5.8 2.4-.8 4.3-3.1 5.1-5.1l1.6-3.5c2-4.5.4-7.4-4.7-7.4zm-8.9 21.5l-1.2 2.5c-.6 1.7-1.7 2.2-3.2 2.2h-5.7l2.7-6.4h5.7c1.6 0 2.2.4 1.7 1.7zm3.3-11.5l-.9 2-.1.3c-.4 1-1.2 1.3-2 1.3h-5L86 8.7h5c1 0 1.1.6.7 1.6zM125 .3l-4.2 9.5h6c.4 0 .6.3.4.7l-10.6 23.4c-.2.4 0 .7.4.7h10.8c.4 0 .9-.3 1-.7l10.3-23.5c.2-.4.6-.7 1-.7h6.2l5.8-9.5H125v.1z"/><path d="M125 .3l-4.2 9.5h6c.4 0 .6.3.4.7l-10.6 23.4c-.2.4 0 .7.4.7h10.8c.4 0 .9-.3 1-.7l10.3-23.5c.2-.4.6-.7 1-.7h6.2l5.8-9.5H125v.1zM32.8.3H20.1c-5.2-.1-9.6 2.9-12 8.4L4 20.2H.3l7.1 9.6L19 20.1h-3l3.7-8.4c.5-1.3 1.5-1.9 2.5-2h2c.4 0 .7.1.9.3l6.6-5.5 4.2 7.1 1.2-2.7c2.7-6 1-8.7-4.3-8.6z"/><path d="M31.3 7.5l-11.6 9.6h3.2L20.3 23c-.6 1.2-1.4 1.8-2.4 1.8h-1.5L7 32.5l-5-6.9c-2.7 6-2.2 8.7 3.1 8.8h12.5c5.2-.1 9.7-2.8 12.2-8.4l3.9-9H37l-5.7-9.5z"/></g></svg>