<svg width="563" height="107" xmlns="http://www.w3.org/2000/svg"><path d="M26.38 65.21h-6.83v39.23H0V1.61h24.5c18.75 0 29.19 8.7 29.19 31.46.01 23.93-9.77 32.14-27.31 32.14zm-3.75-49.95h-3.08v35.48h4.28c6 0 9.64-4.95 9.64-17.54.01-13.11-3.21-17.94-10.84-17.94zM90 106.31c-23.43 0-30.4-12.72-30.4-51.55C59.62 14.86 66.05 0 89.22 0s26.24 14.86 26.24 31.46a66.27 66.27 0 0 1-.54 8.31l-18.21.54c.27-2.69.4-6.16.4-8 0-12.72-1.47-19.42-7.9-19.42-7.77 0-9.37 7-9.37 41.11 0 32.27.94 39 10 39 7.5 0 8.7-8.17 8.7-20.35A101.53 101.53 0 0 0 98.06 62l17.81.54a63.55 63.55 0 0 1 .53 8.7c0 23.43-6.16 35.07-26.4 35.07zm90.37-1.87V57.71c0-15.53.27-18.88.4-28.65-1.07 9.77-1.34 17-3.21 28.65-2.54 15.67-7.9 46.73-7.9 46.73h-16.45s-5.36-31.06-7.9-46.73a268.06 268.06 0 0 1-3.48-28.65c.4 10.17.4 13.12.4 28.65v46.73h-17.81V1.61h25c3.35 19 6.43 39.64 9 53.29 1.07 6.16 1.47 8.84 2.81 17.14 1.21-8.17 1.88-11.65 2.81-17 2.54-13.65 5.89-34.68 9.37-53.42h24.79v102.82h-17.83zm64.06 0L241 85.56h-14.89l-3.21 18.88h-18.62L224 1.2h19.82l21.29 103.24h-20.68zm-9.51-59.71c-.8-6.3-1.34-12.32-1.61-15.8-.27 3.48-.67 9.5-1.47 15.66-1.61 12.72-3.35 26.79-3.35 26.79h9.91s-1.85-14.07-3.46-26.65h-.02zm81.28 59.71l-4.42-7.9c-3.35 5.63-6.7 9.77-16.07 9.77-20 0-29.06-10.84-29.06-49.94 0-45 8.17-56.37 30.26-56.37 20 0 25.58 11.51 25.58 31.2 0 1.74-.13 5-.27 6.29L303.9 38a49.84 49.84 0 0 0 .27-6.42c0-11.79-1.61-18.75-7.5-18.75-8.7 0-9.77 7.1-9.77 43 0 32.94 2.14 37.09 9.77 37.09 8.57 0 10.58-6.69 10.58-20.75 0-1.87 0-3.22-.13-6.7h-10.18V50.61h27.18v53.83h-7.92zm16.33 0V81.67h21.29v22.77h-21.29zm57.31 1.87c-23.44 0-30.4-12.72-30.4-51.55 0-39.9 6.43-54.76 29.6-54.76s26.25 14.86 26.25 31.46a66.61 66.61 0 0 1-.54 8.31l-18.21.54c.27-2.69.41-6.16.41-8 0-12.72-1.48-19.42-7.9-19.42-7.77 0-9.38 7-9.38 41.11 0 32.27.94 39 10 39 7.49 0 8.7-8.17 8.7-20.35A102.61 102.61 0 0 0 397.9 62l17.81.54a62.62 62.62 0 0 1 .54 8.7c0 23.43-6.16 35.07-26.38 35.07h-.03zm62 0c-20.76 0-29.86-9.5-29.86-53.16C422 11 431.1 0 451.86 0c20.76 0 30 11.38 30 53.16 0 42.72-9.25 53.15-30 53.15h-.02zm0-93.46c-9 0-9.64 10-9.64 40.31 0 31.34.94 39.77 9.64 39.77 9 0 9.77-8.43 9.77-39.77.03-30.26-.78-40.31-9.75-40.31h-.02zm93.33 91.59V57.71c0-15.53.27-18.88.4-28.65-1.07 9.77-1.34 17-3.22 28.65-2.54 15.67-7.9 46.73-7.9 46.73H518s-5.36-31.06-7.9-46.73a269.09 269.09 0 0 1-3.48-28.65c.4 10.17.4 13.12.4 28.65v46.73h-17.8V1.61h25c3.35 19 6.43 39.64 9 53.29 1.08 6.16 1.48 8.83 2.78 17.1 1.2-8.17 1.87-11.65 2.81-17 2.54-13.65 5.89-34.68 9.38-53.42H563v102.86h-17.83z" fill="#EB2B2E"/></svg>