<svg width="211" height="57" xmlns="http://www.w3.org/2000/svg"><g fill="none"><path d="M68.57 27.913v10.202h-5.535v-26.77h8.413c1.87 0 3.468.194 4.797.58 1.33.39 2.417.927 3.266 1.616.85.69 1.47 1.51 1.865 2.464.393.953.59 2.002.59 3.145 0 .886-.126 1.726-.378 2.52a7.427 7.427 0 0 1-1.098 2.167 7.896 7.896 0 0 1-1.772 1.734c-.7.505-1.507.91-2.417 1.218.358.197.693.434 1.007.71.313.278.593.606.84.987l6.235 9.63h-5c-.935 0-1.61-.354-2.03-1.068l-5.09-8.21c-.21-.32-.44-.554-.693-.7-.253-.15-.626-.223-1.117-.223H68.57v-.002zm0-3.893h2.84c.9 0 1.673-.113 2.326-.34.652-.23 1.187-.542 1.605-.94.42-.4.727-.87.923-1.413.196-.54.295-1.13.295-1.77 0-1.267-.422-2.25-1.264-2.952-.843-.7-2.125-1.052-3.847-1.052H68.57v8.467zM98.2 38.115c-.478 0-.845-.066-1.097-.202-.253-.136-.46-.418-.618-.85l-.406-1.198c-.48.418-.944.784-1.394 1.098-.45.314-.917.578-1.402.793a7.454 7.454 0 0 1-1.55.49 9.252 9.252 0 0 1-1.817.164c-.837 0-1.6-.11-2.288-.332a4.937 4.937 0 0 1-1.78-.986c-.5-.436-.884-.98-1.154-1.633-.27-.653-.406-1.403-.406-2.253 0-.7.178-1.398.535-2.093.356-.694.968-1.33 1.835-1.9.868-.572 2.023-1.048 3.468-1.43 1.445-.382 3.257-.597 5.434-.646v-.978c0-1.193-.252-2.068-.757-2.63-.504-.56-1.23-.84-2.177-.84-.7 0-1.285.084-1.752.25a8.685 8.685 0 0 0-1.228.536l-.987.534s-.663.25-1.07.25c-.356 0-.654-.09-.894-.27-.24-.177-.44-.39-.6-.636l-.904-1.623c1.08-.983 2.34-1.75 3.708-2.26 1.353-.497 2.816-.747 4.392-.747 1.13 0 2.143.186 3.034.554.892.37 1.648.883 2.27 1.54a6.786 6.786 0 0 1 1.43 2.354c.332.911.498 1.907.498 2.99v11.954H98.2zm-6.697-3.136c.836 0 1.568-.152 2.195-.453.628-.3 1.248-.766 1.863-1.394v-2.95c-1.24.048-2.274.152-3.1.312-.826.16-1.478.36-1.964.6s-.83.517-1.033.83a1.846 1.846 0 0 0-.305 1.023c0 .738.206 1.262.618 1.568.414.31.99.463 1.727.463l-.001.001zm18.93 3.431c-.86 0-1.623-.126-2.288-.377a4.581 4.581 0 0 1-1.68-1.08 4.556 4.556 0 0 1-1.032-1.697c-.234-.664-.35-1.414-.35-2.25v-10.26h-1.79a.989.989 0 0 1-.692-.258c-.19-.172-.285-.43-.285-.774V19.72l3.044-.552 1.032-4.926c.136-.555.512-.83 1.127-.83h2.654v5.793h4.907v3.542h-4.906v9.927c0 .528.126.947.378 1.254.254.31.61.46 1.08.46.246 0 .455-.026.627-.08.17-.058.32-.118.442-.187.123-.065.236-.128.34-.183a.68.68 0 0 1 .324-.083c.147 0 .27.033.37.1.097.07.196.184.294.343l1.53 2.436c-.7.553-1.493.972-2.38 1.255-.884.282-1.8.422-2.747.422l.001-.001zm15.24-19.61c1.217 0 2.34.192 3.365.58a7.473 7.473 0 0 1 2.658 1.688c.744.738 1.322 1.645 1.733 2.72.412 1.077.617 2.305.617 3.683a6.5 6.5 0 0 1-.055.94 1.7 1.7 0 0 1-.185.592.677.677 0 0 1-.35.305 1.68 1.68 0 0 1-.572.083h-11.42c.158 1.782.665 3.087 1.52 3.91s1.977 1.237 3.367 1.237c.7 0 1.307-.083 1.818-.25.51-.166.96-.35 1.346-.553.388-.203.738-.388 1.053-.555.31-.167.622-.25.93-.25.394 0 .7.148.923.444l1.477 1.844a8.086 8.086 0 0 1-1.79 1.56c-.65.413-1.33.737-2.03.978-.7.24-1.408.406-2.12.498-.716.093-1.403.14-2.067.14-1.328 0-2.568-.22-3.717-.656a8.394 8.394 0 0 1-3.008-1.937c-.855-.853-1.53-1.915-2.02-3.183-.49-1.266-.737-2.736-.737-4.408 0-1.293.212-2.51.637-3.655a8.726 8.726 0 0 1 1.835-2.988c.8-.85 1.77-1.52 2.916-2.02 1.143-.5 2.436-.748 3.875-.748l.001.001zm.092 3.58c-1.218 0-2.172.346-2.86 1.04-.69.695-1.138 1.677-1.347 2.943h7.934c0-.53-.07-1.033-.21-1.513a3.54 3.54 0 0 0-.676-1.272 3.245 3.245 0 0 0-1.163-.877c-.467-.214-1.026-.32-1.678-.32v-.001z" fill="#3D9A9E"/><path d="M151.272 27.82c.202.455.396.923.58 1.402.186-.49.382-.97.59-1.44.21-.466.432-.915.665-1.345l7.436-14.226c.11-.208.23-.37.352-.488.113-.112.248-.2.396-.258.142-.055.302-.09.48-.102.18-.012.39-.02.637-.02h4.207v26.772h-4.89V21.677c0-.33.01-.694.028-1.09.018-.392.047-.798.084-1.216l-7.64 14.522c-.418.8-1.063 1.198-1.937 1.198h-.775c-.43 0-.81-.102-1.144-.304a2.14 2.14 0 0 1-.793-.895l-7.693-14.557c.037.418.067.827.092 1.227.025.4.037.77.037 1.116v16.438h-4.89v-26.77h4.208c.233 0 .444.008.628.02s.347.047.488.102c.14.055.27.142.387.258.117.117.23.28.342.49l7.492 14.28c.22.43.43.872.635 1.326l-.002-.002zm43.088-3.1c0 1.957-.327 3.756-.985 5.397-.658 1.643-1.586 3.054-2.785 4.234-1.2 1.183-2.643 2.105-4.327 2.77-1.684.665-3.556.995-5.608.995H170.36v-26.77h10.295c2.053 0 3.924.333 5.608.997 1.684.664 3.127 1.59 4.327 2.776 1.2 1.187 2.127 2.6 2.785 4.233.658 1.638.986 3.428.986 5.37l-.001-.002zm-5.68 0c0-1.4-.186-2.66-.555-3.78-.369-1.12-.897-2.066-1.587-2.842a6.946 6.946 0 0 0-2.52-1.79c-.99-.42-2.11-.627-3.365-.627h-4.723v18.102h4.723c1.254 0 2.377-.207 3.366-.62a6.791 6.791 0 0 0 2.518-1.788c.69-.78 1.218-1.732 1.587-2.852.369-1.12.554-2.386.554-3.8l.002-.003zm20.238-1.714c-.136.21-.272.36-.415.45-.14.094-.336.14-.58.14-.246 0-.5-.062-.758-.185a32.368 32.368 0 0 0-.867-.395 9.596 9.596 0 0 0-1.098-.397 5.054 5.054 0 0 0-1.43-.184c-.824 0-1.465.17-1.92.508-.454.338-.682.783-.682 1.337 0 .38.13.7.388.96.26.257.6.48 1.024.673.424.19.906.368 1.447.534.542.166 1.098.348 1.67.544.572.198 1.13.425 1.67.685.542.258 1.023.58 1.45.968.423.388.763.855 1.022 1.4.257.55.387 1.21.387 1.985 0 .922-.17 1.774-.508 2.555a5.589 5.589 0 0 1-1.486 2.02c-.652.566-1.465 1.01-2.435 1.328-.973.32-2.093.48-3.36.48a10.84 10.84 0 0 1-3.763-.674c-.58-.213-1.12-.463-1.624-.746a7.263 7.263 0 0 1-1.31-.923l1.18-1.9c.137-.222.305-.394.51-.517.2-.123.463-.185.783-.185.307 0 .59.077.848.23.26.155.548.32.867.5.32.177.7.344 1.136.497.438.154.98.23 1.633.23.49 0 .915-.055 1.272-.166.356-.11.646-.26.867-.45.411-.346.647-.858.643-1.395 0-.42-.13-.76-.396-1.024a3.568 3.568 0 0 0-1.032-.69 10.158 10.158 0 0 0-1.47-.536 36.1 36.1 0 0 1-1.687-.535 13.923 13.923 0 0 1-1.678-.7 5.645 5.645 0 0 1-1.458-1.024 4.745 4.745 0 0 1-1.034-1.522c-.265-.602-.396-1.334-.396-2.194 0-.787.154-1.534.46-2.24a5.29 5.29 0 0 1 1.386-1.874c.614-.54 1.38-.973 2.297-1.292.916-.32 1.977-.48 3.182-.48 1.354 0 2.584.223 3.69.665 1.106.443 2.018 1.02 2.73 1.734l-1.16 1.806.005-.001zM69.98 45.814c0 .628-.1 1.2-.298 1.714-.198.514-.48.956-.842 1.322-.362.367-.797.65-1.305.85a4.493 4.493 0 0 1-1.685.304h-3.136V41.62h3.136c.616 0 1.178.1 1.685.3.507.203.942.486 1.305.855.363.37.644.81.842 1.325.198.515.3 1.088.3 1.714h-.002zm-1.164 0c0-.515-.07-.976-.21-1.38a2.91 2.91 0 0 0-.597-1.03 2.548 2.548 0 0 0-.937-.643 3.26 3.26 0 0 0-1.223-.223h-1.995v6.546h1.995c.448 0 .856-.074 1.223-.22.367-.15.68-.364.936-.644.256-.278.455-.62.595-1.027.14-.404.21-.863.21-1.38l.003.001zm10.472 0c0 .628-.1 1.204-.298 1.73-.2.524-.48.976-.843 1.354-.363.377-.798.67-1.308.88a4.43 4.43 0 0 1-1.69.313 4.37 4.37 0 0 1-1.684-.313 3.775 3.775 0 0 1-1.304-.88 3.94 3.94 0 0 1-.842-1.354c-.2-.524-.298-1.1-.298-1.73 0-.626.1-1.203.298-1.728.2-.525.48-.977.842-1.357s.797-.676 1.304-.887a4.367 4.367 0 0 1 1.685-.314c.615 0 1.18.105 1.69.315.508.212.944.507 1.307.888s.644.832.843 1.357c.198.525.298 1.103.298 1.73v-.004zm-1.164 0c0-.515-.07-.977-.21-1.387a2.92 2.92 0 0 0-.597-1.038c-.257-.283-.57-.5-.936-.654a3.205 3.205 0 0 0-1.227-.227c-.45 0-.856.075-1.223.226-.367.153-.68.37-.94.653-.26.283-.458.627-.6 1.037-.14.41-.21.872-.21 1.387 0 .516.07.976.21 1.384.14.407.34.752.6 1.035.26.283.573.5.94.65.367.15.774.224 1.223.224.452 0 .862-.074 1.228-.225.368-.15.68-.366.937-.65.258-.282.457-.627.597-1.034.14-.408.21-.868.21-1.384l-.002.003zm8.599 2.456c.062 0 .12.026.17.077l.444.485a3.59 3.59 0 0 1-1.25.93c-.488.224-1.078.334-1.77.334-.604 0-1.15-.104-1.643-.313-.492-.21-.91-.5-1.258-.877a3.961 3.961 0 0 1-.807-1.355 5.017 5.017 0 0 1-.288-1.735c0-.632.103-1.21.307-1.737.204-.526.49-.98.862-1.356.37-.38.814-.673 1.33-.88a4.513 4.513 0 0 1 1.712-.314c.616 0 1.147.096 1.594.286.446.19.843.45 1.19.778l-.368.52a.42.42 0 0 1-.094.098.287.287 0 0 1-.312-.018 6.476 6.476 0 0 1-.203-.138 4.657 4.657 0 0 0-.274-.176 2.873 2.873 0 0 0-.877-.314 3.44 3.44 0 0 0-.66-.054c-.45 0-.86.076-1.232.23a2.754 2.754 0 0 0-.962.658c-.27.285-.48.632-.63 1.04-.15.41-.224.87-.224 1.376 0 .522.075.988.225 1.397.15.41.355.757.614 1.04.259.283.566.5.92.647.355.146.738.22 1.147.22.25 0 .474-.013.673-.043.2-.028.383-.075.553-.137.17-.062.327-.14.474-.237a3.91 3.91 0 0 0 .442-.342c.067-.057.13-.087.193-.087l.002-.003zm7.792-6.65v.953h-2.71v7.43h-1.134v-7.43h-2.72v-.952h6.565l-.001-.001zm8.383 4.194c0 .628-.1 1.204-.298 1.73-.2.524-.48.976-.843 1.354-.363.377-.8.67-1.308.88a4.43 4.43 0 0 1-1.69.313 4.37 4.37 0 0 1-1.684-.313 3.76 3.76 0 0 1-1.305-.88c-.37-.39-.656-.85-.842-1.354-.2-.524-.298-1.1-.298-1.73 0-.626.1-1.203.298-1.728.2-.525.48-.977.843-1.357s.798-.676 1.306-.887a4.36 4.36 0 0 1 1.685-.314c.617 0 1.18.105 1.69.315.508.212.943.507 1.307.888.362.38.644.832.843 1.357.198.525.298 1.103.298 1.73l-.002-.004zm-1.164 0c0-.515-.07-.977-.21-1.387-.14-.41-.34-.756-.598-1.038-.257-.283-.57-.5-.936-.654a3.22 3.22 0 0 0-1.23-.227c-.448 0-.855.075-1.222.226-.367.153-.68.37-.94.653-.258.28-.458.627-.6 1.037-.142.41-.208.873-.208 1.387 0 .516.07.976.21 1.384.142.407.342.752.6 1.035.26.283.573.5.94.65.366.15.773.224 1.223.224.452 0 .86-.074 1.23-.225a2.55 2.55 0 0 0 .935-.65c.258-.282.457-.627.597-1.034.14-.408.21-.868.21-1.384l-.001.003zm3.936.69v3.5h-1.128V41.62h2.37c.53 0 .987.054 1.374.16.386.107.705.263.956.466.25.202.438.447.56.734.12.286.18.607.18.962 0 .296-.047.573-.14.83-.093.257-.23.49-.406.694-.177.203-.394.38-.65.523-.272.15-.564.26-.868.326.14.083.266.2.375.356l2.444 3.33h-1.005c-.208 0-.36-.08-.457-.24l-2.177-2.996a.602.602 0 0 0-.216-.2.793.793 0 0 0-.352-.063h-.86v.002zm0-.824h1.19c.33 0 .622-.04.873-.12.252-.08.462-.193.633-.34.17-.145.297-.32.384-.522.084-.203.127-.428.127-.673 0-.5-.164-.876-.493-1.13-.33-.253-.82-.38-1.472-.38h-1.24v3.165h-.002zm10.56-2.75a.45.45 0 0 1-.11.133.245.245 0 0 1-.153.043c-.066 0-.143-.033-.23-.1a3.813 3.813 0 0 0-.334-.22 2.717 2.717 0 0 0-.484-.218c-.19-.067-.42-.1-.69-.1-.253 0-.478.034-.673.102-.195.068-.357.16-.488.277-.132.117-.23.255-.296.413-.066.158-.1.33-.1.513 0 .233.057.428.173.582a1.5 1.5 0 0 0 .456.395c.19.108.404.203.644.283.24.08.485.162.737.25.252.085.498.182.736.29.24.106.455.24.644.405.19.163.34.364.457.603.115.238.174.53.174.878 0 .368-.062.712-.188 1.032-.12.316-.307.602-.548.84-.24.238-.534.426-.882.562-.35.136-.746.204-1.19.204-.544 0-1.037-.1-1.483-.296a3.494 3.494 0 0 1-1.145-.797l.328-.54a.385.385 0 0 1 .113-.107.26.26 0 0 1 .15-.044c.08 0 .173.044.278.132.105.088.238.185.396.29.158.104.348.2.572.288.225.088.498.132.822.132.27 0 .51-.037.72-.11.21-.074.39-.18.534-.313a1.36 1.36 0 0 0 .338-.48c.077-.19.115-.397.115-.628 0-.252-.057-.46-.172-.62a1.415 1.415 0 0 0-.453-.41c-.187-.107-.4-.2-.64-.276-.24-.076-.486-.153-.737-.234a7.504 7.504 0 0 1-.738-.277 2.357 2.357 0 0 1-.64-.41 1.817 1.817 0 0 1-.453-.63c-.116-.25-.173-.56-.173-.93 0-.298.056-.585.172-.862.114-.276.28-.522.5-.736.218-.215.487-.387.81-.516.322-.127.69-.19 1.11-.19.466 0 .894.074 1.28.222a2.92 2.92 0 0 1 1.012.644l-.274.534.003-.003zm7.348 3.74v3.334h-1.13V46.67l-3.07-5.05h.995a.35.35 0 0 1 .24.076c.058.05.108.112.15.187l1.92 3.26c.077.136.143.264.195.386.053.12.1.238.145.355.04-.12.09-.242.14-.363.052-.12.114-.246.194-.38l1.912-3.26c.034-.06.08-.12.142-.177a.333.333 0 0 1 .236-.084h1.008l-3.078 5.05h.001zm11.425-.856c0 .628-.1 1.204-.3 1.73-.198.524-.48.976-.84 1.354-.364.377-.8.67-1.31.88-.537.213-1.11.32-1.688.313a4.39 4.39 0 0 1-1.686-.313 3.77 3.77 0 0 1-1.305-.88c-.37-.39-.656-.85-.843-1.354-.197-.524-.3-1.1-.3-1.73 0-.626.103-1.203.3-1.728.2-.525.48-.977.843-1.357s.798-.676 1.304-.887a4.36 4.36 0 0 1 1.685-.314c.615 0 1.178.105 1.688.315.51.212.945.507 1.31.888.36.38.642.832.84 1.357.2.525.3 1.103.3 1.73l.002-.004zm-1.166 0c0-.515-.068-.977-.21-1.387a2.95 2.95 0 0 0-.597-1.038 2.59 2.59 0 0 0-.936-.654 3.217 3.217 0 0 0-1.23-.227c-.447 0-.854.075-1.222.226-.367.153-.68.37-.94.653a2.9 2.9 0 0 0-.598 1.037 4.25 4.25 0 0 0-.21 1.387c0 .516.07.976.21 1.384.14.407.34.752.6 1.035.26.283.57.5.938.65.368.15.774.224 1.223.224.453 0 .86-.074 1.23-.225.37-.151.68-.366.935-.65.268-.3.472-.652.598-1.034.14-.408.21-.868.21-1.384l-.001.003zm5.953 3.288c.345 0 .655-.058.93-.175.27-.116.503-.28.69-.49.19-.212.335-.464.435-.756.1-.292.15-.613.15-.965V41.62h1.128v5.095c0 .484-.077.934-.232 1.346a3.063 3.063 0 0 1-.66 1.075 3.047 3.047 0 0 1-1.048.71 3.598 3.598 0 0 1-1.393.257c-.517 0-.98-.085-1.394-.256a3.091 3.091 0 0 1-1.053-.71 3.08 3.08 0 0 1-.664-1.075 3.759 3.759 0 0 1-.232-1.345V41.62h1.13v5.09c0 .35.05.673.148.964.1.293.242.545.433.756.187.21.42.375.695.494.273.12.586.178.934.178h.003zm13.4-.832c.063 0 .12.026.17.077l.445.485c-.344.397-.76.708-1.25.93-.49.224-1.08.334-1.77.334-.604 0-1.15-.104-1.644-.313-.49-.21-.91-.5-1.257-.877a3.93 3.93 0 0 1-.807-1.355 5.064 5.064 0 0 1-.287-1.735c0-.632.103-1.21.306-1.737.205-.526.492-.98.863-1.356.37-.38.813-.673 1.33-.88a4.506 4.506 0 0 1 1.712-.314c.615 0 1.146.096 1.594.286.445.19.842.45 1.19.778l-.37.52a.36.36 0 0 1-.092.098.29.29 0 0 1-.313-.018 8.415 8.415 0 0 1-.2-.138 4.444 4.444 0 0 0-.276-.176 2.936 2.936 0 0 0-.877-.314 3.6 3.6 0 0 0-.662-.054c-.447 0-.857.076-1.23.23a2.767 2.767 0 0 0-.963.658c-.27.285-.48.632-.63 1.04-.15.41-.224.87-.224 1.376 0 .522.074.988.225 1.397.151.409.355.757.615 1.04.26.283.566.5.92.647.355.146.738.22 1.148.22.25 0 .473-.013.672-.043.2-.028.383-.075.554-.137.17-.062.327-.14.473-.237.147-.096.294-.21.442-.342.067-.057.13-.087.193-.087v-.003zm8.98 1.734h-.878a.381.381 0 0 1-.245-.076.464.464 0 0 1-.14-.193l-.785-2.025h-3.762l-.783 2.025a.46.46 0 0 1-.14.187.376.376 0 0 1-.247.083h-.878l3.353-8.383h1.152l3.353 8.382zm-5.493-3.113h3.13l-1.316-3.41a6.75 6.75 0 0 1-.252-.788c-.068.269-.15.534-.245.794l-1.316 3.405-.001-.001zm7.339-5.234c.065.04.121.093.166.155l4.856 6.318a5.45 5.45 0 0 1-.03-.572V41.62h.995v8.383h-.573a.481.481 0 0 1-.226-.048.567.567 0 0 1-.18-.158l-4.85-6.312c.018.181.027.363.025.545v5.974h-.994V41.62h.584c.102 0 .176.013.226.037h.001zm15.956-.037v.953h-2.71v7.43h-1.135v-7.43h-2.72v-.952h6.565v-.001zm2.415 4.884v3.5h-1.128V41.62h2.368c.53 0 .988.054 1.375.16.385.107.704.263.955.466.252.202.438.447.56.734.12.286.18.607.18.962 0 .296-.046.573-.14.83-.093.26-.23.49-.406.694-.178.203-.393.38-.65.523a3.21 3.21 0 0 1-.867.326c.14.083.265.2.373.356l2.445 3.33h-1.005c-.208 0-.358-.08-.457-.24l-2.176-2.996a.602.602 0 0 0-.216-.2.756.756 0 0 0-.35-.063h-.86l-.001.002zm0-.824h1.188c.33 0 .622-.04.873-.12.252-.08.463-.193.633-.34.17-.145.298-.32.384-.522.086-.202.13-.428.13-.673 0-.5-.166-.876-.495-1.13-.33-.253-.82-.38-1.472-.38h-1.24v3.165h-.001zm9.279 3.422c.348 0 .656-.058.93-.175a1.94 1.94 0 0 0 .693-.49c.189-.21.333-.464.433-.756.1-.292.148-.613.148-.965V41.62H195v5.095c0 .484-.076.934-.23 1.346-.145.4-.37.765-.66 1.075a3.04 3.04 0 0 1-1.052.71 3.593 3.593 0 0 1-1.392.257c-.515 0-.98-.085-1.393-.256a3.081 3.081 0 0 1-1.053-.71 3.08 3.08 0 0 1-.664-1.075c-.154-.41-.23-.86-.23-1.345V41.62h1.128v5.09c0 .35.05.673.15.964.1.293.243.545.433.756.188.21.42.375.695.494.275.119.586.178.934.178zm9.552-6.172a.45.45 0 0 1-.11.133.248.248 0 0 1-.153.043c-.065 0-.143-.033-.23-.1a3.813 3.813 0 0 0-.334-.22 2.641 2.641 0 0 0-.483-.218c-.19-.067-.418-.1-.688-.1-.255 0-.48.034-.675.102-.195.068-.357.16-.488.277-.13.117-.23.255-.295.413-.065.158-.1.33-.1.513 0 .233.057.428.174.582.113.153.267.285.455.395.19.108.405.203.645.283.24.08.486.162.737.25.252.085.498.182.736.29.24.106.455.24.645.405.19.163.34.364.457.603.113.238.172.53.172.878 0 .368-.062.712-.188 1.032-.12.316-.307.602-.547.84a2.56 2.56 0 0 1-.883.562c-.35.136-.746.204-1.19.204-.543 0-1.037-.1-1.483-.296a3.5 3.5 0 0 1-1.144-.797l.328-.54c.03-.042.07-.08.114-.107a.26.26 0 0 1 .15-.044c.08 0 .174.044.28.132.106.088.236.185.395.29.158.104.348.2.572.288.225.088.498.132.822.132.27 0 .51-.037.72-.11.212-.074.39-.18.534-.313.148-.134.26-.294.34-.48.077-.19.115-.397.115-.628 0-.252-.058-.46-.173-.62a1.415 1.415 0 0 0-.453-.41c-.187-.107-.4-.2-.64-.276a97.656 97.656 0 0 1-.738-.234 7.504 7.504 0 0 1-.738-.277 2.357 2.357 0 0 1-.64-.41 1.83 1.83 0 0 1-.453-.63c-.115-.25-.172-.56-.172-.93a2.22 2.22 0 0 1 .673-1.598c.22-.215.488-.387.81-.516.323-.127.692-.19 1.11-.19.467 0 .895.074 1.28.222.387.147.724.362 1.013.644l-.275.534-.004-.003zm7.594-1.31v.953h-2.71v7.43h-1.134v-7.43h-2.72v-.952h6.564v-.001z" fill="gray"/><path d="M28.533 54.854c-14.452 0-26.21-11.757-26.21-26.207 0-14.453 11.758-26.21 26.21-26.21 14.45 0 26.208 11.757 26.208 26.21 0 14.45-11.756 26.207-26.207 26.207h-.001z" fill="#52A2A6"/><path d="M28.533 4.453c13.36 0 24.19 10.834 24.19 24.193 0 13.36-10.83 24.19-24.19 24.19-13.36 0-24.192-10.83-24.192-24.19 0-13.36 10.833-24.193 24.193-24.193h-.001zm.001-4.035C12.97.418.307 13.081.307 28.648c0 15.562 12.663 28.224 28.227 28.224 15.563 0 28.226-12.66 28.226-28.225C56.758 13.081 44.096.417 28.533.417l.001.001z" fill="#3D9A9E"/><path d="M28.105 51.75c-.873 0-1.483-.676-1.81-2.01l-6.05-24.547-2.33 10.1c-.27 1.166-.944 1.954-1.85 2.158-.906.204-1.853-.218-2.596-1.157l-.797-1.006c-.67-.853-2.27-1.626-3.354-1.626H4.863s-.145-.598-.238-1.22c-.093-.625-.163-1.267-.163-1.267h4.857c1.836 0 4.167 1.13 5.307 2.568l.796 1.01c.017.022.033.043.05.06.007-.02.013-.05.02-.075l2.902-12.577c.312-1.348.922-2.035 1.814-2.043h.012c.886 0 1.503.68 1.833 2.016l5.99 24.31 7.634-36.473c.285-1.363.88-2.06 1.77-2.074.898-.037 1.506.663 1.836 2.014l4.786 19.62c.213.876 1.195 1.647 2.098 1.647h6.407s-.08.784-.145 1.204c-.062.42-.235 1.283-.235 1.283H46.17c-2.046 0-4.03-1.56-4.515-3.547l-4.12-16.883-7.63 36.444c-.283 1.363-.878 2.06-1.768 2.076h-.032v-.005z" fill="#FFF"/></g></svg>