<svg width="133" height="31" xmlns="http://www.w3.org/2000/svg"><g fill="none"><path d="M13.38 11.41c-2.43-.27-4.44 0-5.82 1.47S6 16.13 6 18v11.6H0V6h5.77v2.34a7.9 7.9 0 0 1 7.61-2.79v5.86zm17.39 3.8a5.92 5.92 0 0 0-5.91-4.49A6 6 0 0 0 19 15.21h11.77zm-11.83 4.95a6 6 0 0 0 5.91 4.67 5.49 5.49 0 0 0 5-2.75h6.46c-1.37 4.81-5.54 8.07-11.41 8.07-6.739-.071-12.15-5.581-12.1-12.32-.061-6.76 5.34-12.305 12.1-12.42 7 0 12.74 5.41 11.87 14.75H18.94zM59.2 29.6h-6V15.81c0-1.37-.41-4.67-4.4-4.67a4.48 4.48 0 0 0-4.58 4.67V29.6h-6V6h5.68v2.3A7.79 7.79 0 0 1 50 5.41c5.54 0 9.21 4.17 9.21 10.4L59.2 29.6zM60.47 6V0h6v6H71v5.36h-4.48v8.34c0 3.3 1.51 4.54 4.54 4.35v5.5c-6.92.73-10.58-3.44-10.58-9.9V6h-.01z" fill="#1D1D1B"/><path d="M72.32 6h6.05v23.6h-6.05V6zm28.4 23.6h-6V15.81c0-1.37-.41-4.67-4.4-4.67a4.48 4.48 0 0 0-4.58 4.67V29.6h-6V6h5.77v2.3a7.79 7.79 0 0 1 6.09-2.89c5.55 0 9.21 4.17 9.21 10.4l-.09 13.79zm13.46.55A12 12 0 0 1 102 17.83a12.09 12.09 0 0 1 12.18-12.42c5.68 0 10 3.21 11.36 8.52h-6.46a5.64 5.64 0 0 0-4.9-3c-3.34 0-6 3.12-6 6.92s2.7 6.78 6 6.78a5.56 5.56 0 0 0 4.95-3h6.46c-1.37 5.36-5.68 8.52-11.41 8.52zm11.04-3.62a3.47 3.47 0 0 1 .28-1.4 3.79 3.79 0 0 1 .79-1.15c.33-.333.72-.6 1.15-.79a3.62 3.62 0 0 1 2.8 0 3.8 3.8 0 0 1 1.93 1.93 3.58 3.58 0 0 1 0 2.8 3.79 3.79 0 0 1-1.93 1.93 3.6 3.6 0 0 1-2.8 0 3.8 3.8 0 0 1-1.93-1.93 3.47 3.47 0 0 1-.28-1.4l-.01.01z" fill="#B1B1B1"/></g></svg>