<svg width="76" height="80" xmlns="http://www.w3.org/2000/svg"><g fill="none"><path d="M76 6.4c-.1-.9-.7-1.7-1.6-1.9l-.9-.3C73.3 4.2 57.6 0 37.7 0 17.9 0 2.6 4.2 2.5 4.2l-1.2.4C.6 4.9.1 5.6 0 6.4v62c.1.8.5 1.5 1.2 1.8L38 80l36.8-9.8c.7-.3 1.2-1 1.2-1.8v-62zm-3.4 61.1l-34.6 9-34.5-9V7.6c1.3-.4 15.8-4.1 34.3-4.1 18.5 0 33.5 3.7 34.8 4.1v59.9z" fill="#00A8E1"/><path d="M3.5 7.6v59.9l34.5 9 34.5-8.9v-60c-1.3-.4-16.3-4.1-34.8-4.1-18.5 0-33 3.8-34.2 4.1z" fill="#FFF"/><path d="M27.6 40.7c0-6.1-3-9.1-9.2-9.1h-8V65H16V52.9h2.3c6.1 0 9.2-3 9.2-9.1v-3.1h.1zM22 44.1c0 2.5-1.2 3.7-3.7 3.7h-2.1V36.7h2.1c2.5 0 3.7 1.2 3.7 3.7v3.7zm36.7-12.5h-5.6v33.6h11.8v-5.1h-6.2V31.6zm-24.2 0l-7.7 33.6h5.5l1.1-5.6.2-1.1.2-.9h8.5l.2.9.2 1.1 1.2 5.6h5.7l-7.7-33.6h-7.4zm.4 21l3.2-14.9 3.2 14.9h-6.4zm-22-31.7h1.8c1.3 0 1.8.6 1.8 1.8v3.8h2.4v-3.9c0-1.6-.6-2.5-1.9-2.8 1.2-.5 1.9-1.4 1.9-3.3v-1c0-2.6-1.3-3.9-3.9-3.9h-4.5v14.8h2.4v-5.5zm0-7.1h2c1.1 0 1.6.5 1.6 1.6V17c0 1.2-.6 1.8-1.8 1.8h-1.8v-5zm15.6 10.5h-4.3v-4.2h4.1v-2.2h-4.1v-4h4.3v-2.2h-6.7v14.8h6.7v-2.2zm5.3-2.5h1.8c2.6 0 3.9-1.3 3.9-3.9v-2.4c0-2.6-1.3-3.9-3.9-3.9h-4.2v14.8h2.4v-4.6zm0-8h1.7c1.1 0 1.6.5 1.6 1.6V18c0 1.1-.5 1.6-1.6 1.6h-1.7v-5.8zM43 24l.1-.6h3.7l.1.6.5 2.4h2.4l-3.3-14.9h-3.1l-3.3 14.9h2.3L43 24zm1.9-9.7l1.4 7h-2.8l1.4-7zm6.8-2.6h2.4v14.8h-2.4V11.7zm11.7 8.1c1.2-.5 1.9-1.4 1.9-3.3v-1c0-2.6-1.3-3.9-3.9-3.9h-4.5v14.8h2.4v-5.6H61c1.3 0 1.8.6 1.8 1.8v3.8h2.4v-3.9c.1-1.5-.5-2.3-1.8-2.7zm-.5-2.8c0 1.2-.6 1.8-1.8 1.8h-1.8v-4.9h2c1.1 0 1.6.5 1.6 1.6V17z" fill="#002F87"/></g></svg>