<svg width="188" height="28" xmlns="http://www.w3.org/2000/svg" xmlns:xlink="http://www.w3.org/1999/xlink"><defs><path id="a" d="M0 0h187.9v27.8H0z"/><linearGradient x1="-30.782%" y1="-20.012%" x2="103.471%" y2="116.066%" id="c"><stop stop-color="#ED3193" offset="0%"/><stop stop-color="#AE509E" offset="100%"/></linearGradient></defs><g fill="none" fill-rule="evenodd"><mask id="b" fill="#fff"><use xlink:href="#a"/></mask><path d="M0 8.4h4.1c1.5 0 3 .1 4.3.7 1.3.7 2.1 1.8 2.1 3.4 0 1.6-.8 2.8-2 3.5-.5.3-1.1.5-1.7.6l4.9 6.5H9.3l-4.7-6.3H2v6.3H0V8.4zm4.6 6.8c1.3 0 2.3-.2 3-.7.6-.4.9-1 .9-1.8 0-.9-.4-1.7-1.2-2.1-.8-.4-1.8-.5-3.3-.5H2v5.1h2.6zm10 3.4c.3 2 1.8 3 3.8 3 1.4 0 2.6-.5 3.6-1.2v1.9c-.9.6-2.4.9-3.7.9-3.2 0-5.6-2.1-5.6-5.2s2.4-5.2 5.2-5.2c2.5 0 4.7 1.7 4.7 4.8 0 .3 0 .7-.1.9h-7.9v.1zm.1-1.4h6.1c-.2-2-1.7-2.7-2.9-2.7-1.4 0-2.9.9-3.2 2.7zm10.8 3.4c1.2.7 2.7 1.1 4 1.1 1.4 0 2.4-.4 2.4-1.4 0-1.2-1.5-1.2-3.1-1.5-2-.3-3.5-.9-3.5-2.9 0-2.1 1.9-3.1 4.3-3.1 1.2 0 2.7.3 3.7.8v1.8c-1.2-.6-2.6-1-3.8-1-1.3 0-2.3.4-2.3 1.3 0 1.1 1.5 1.1 3 1.4 2 .3 3.6.9 3.6 2.9 0 2.3-2.2 3.2-4.4 3.2-1.3 0-2.8-.3-3.9-.8v-1.8zm12.6-2c.3 2 1.8 3 3.8 3 1.4 0 2.6-.5 3.6-1.2v1.9c-.9.6-2.4.9-3.7.9-3.2 0-5.6-2.1-5.6-5.2s2.4-5.2 5.2-5.2c2.5 0 4.7 1.7 4.7 4.8 0 .3 0 .7-.1.9h-7.9v.1zm0-1.4h6.1c-.2-2-1.7-2.7-2.9-2.7-1.4 0-2.9.9-3.2 2.7zm11.2-9.6h1.9v15.5h-1.9V7.6zm5.7 0h1.9v15.5H55V7.6zm7 11c.3 2 1.8 3 3.8 3 1.4 0 2.6-.5 3.6-1.2v1.9c-.9.6-2.4.9-3.7.9-3.2 0-5.6-2.1-5.6-5.2s2.4-5.2 5.2-5.2c2.5 0 4.7 1.7 4.7 4.8 0 .3 0 .7-.1.9H62v.1zm0-1.4h6.1c-.2-2-1.7-2.7-2.9-2.7-1.4 0-2.8.9-3.2 2.7zm11.2-4.1h1.9v1.5c.7-1 1.9-1.6 3.1-1.6.2 0 .4 0 .7.1v1.8c-.3-.1-.5-.1-.7-.1-1.4 0-2.4.7-3.1 1.8v6.5h-1.9v-10zm8.5-4.7h4.8c1.8 0 3.5.2 4.7 1 1.1.7 1.8 1.8 1.8 3.5 0 1.9-1.1 3.4-3.1 4.1l4.3 6.2h-3.9l-3.9-5.8h-1.5v5.8h-3.4V8.4h.2zm5 6.5c.9 0 1.6-.1 2.1-.3.6-.3.9-.8.9-1.5s-.3-1.1-.9-1.4c-.5-.3-1.3-.4-2.5-.4H85V15h1.7v-.1zm14.9 7.6c-.7.5-1.7.8-2.9.8-.9 0-1.7-.2-2.4-.6-.8-.5-1.2-1.3-1.2-2.3 0-1.1.5-1.9 1.3-2.4s1.8-.7 2.9-.7c.6 0 1.2.1 1.8.2V17c0-.5-.2-.9-.4-1.1-.3-.3-.8-.4-1.6-.4-1.2 0-2.3.1-3 .5v-2.3c.8-.4 2.1-.8 3.6-.8 1.4 0 2.6.3 3.5 1 .8.6 1.2 1.5 1.2 2.8v6.5h-2.7v-.7h-.1zm-.5-3.3c-.3-.1-.8-.1-1.1-.1-.8 0-1.6.2-1.6 1 0 .6.6 1 1.3 1 .5 0 1.1-.2 1.5-.4v-1.5h-.1zm12.8 3.6c-.5.3-1.4.5-2.3.5-1.1 0-2-.3-2.7-1-.5-.6-.9-1.4-.9-3v-3.7h-1.7V13h1.7v-2.6l3.2-.5V13h2.7v2.6h-2.7V19c0 1 .2 1.7 1.2 1.7.5 0 1.1-.2 1.5-.4v2.5zm4-14.6c1 0 1.9.8 1.9 1.8s-.8 1.8-1.9 1.8c-1 0-1.9-.8-1.9-1.8.1-1 .9-1.8 1.9-1.8zm-1.6 4.9h3.2v10h-3.2v-10zm6.4 0h3.2v.9c.8-.6 1.9-1.2 3.2-1.2 1.1 0 2.1.4 2.7 1 .6.6.9 1.5.9 3V23h-3.2v-5.7c0-.8-.1-1.1-.4-1.4-.3-.3-.7-.4-1.1-.4-.8 0-1.6.4-2.2.8V23h-3.2v-9.9h.1zm14 11c1.1.6 2.3 1 3.4 1 1.6 0 2.5-.8 2.5-2.3v-.5c-.6.4-1.6.7-2.4.7-2.5 0-4.8-1.9-4.8-4.9 0-2.9 2.2-5.2 5.4-5.2 1 0 1.9.2 2.6.6l2.5-.4V23c0 3.1-2.2 4.9-5.5 4.9-1.3 0-2.6-.3-3.5-.7v-3.1h-.2zm5.9-8.2c-.4-.2-1-.4-1.6-.4-1.7 0-2.5 1.2-2.5 2.5 0 1.5.9 2.5 2.4 2.5.6 0 1.2-.2 1.6-.4v-4.2h.1zm6.1 3.9c1.4.8 3.1 1.2 4.1 1.2.9 0 1.4-.2 1.4-.8 0-.8-1.2-.7-2.7-1.1-2-.5-3.1-1.3-3.1-2.9 0-2.1 2-3.3 4.5-3.3 1.2 0 2.8.2 4 .8v2.7c-1.4-.8-3-1.1-3.9-1.1-.8 0-1.3.2-1.3.7 0 .7 1.1.7 2.7 1 2 .5 3.2 1.2 3.2 2.9 0 2.2-2 3.4-4.7 3.4-1.2 0-2.8-.2-4.1-.8v-2.7h-.1z" fill="#333334" fill-rule="nonzero" mask="url(#b)"/><path d="M175.3 0c-7 0-12.6 5.5-12.6 12.2 0 2.3.7 4.4 1.8 6.2l-2.2 4.5 4.7-1.6c2.2 1.9 5.1 3.1 8.4 3.1 7 0 12.6-5.5 12.6-12.2-.1-6.7-5.7-12.2-12.7-12.2zm-1.2 18.4l-5.4-4.9 1.6-2.3 3.3 2.5 6.3-7.7 1.9 1.2-7.7 11.2z" fill="url(#c)" fill-rule="nonzero"/></g></svg>