<svg width="650" height="219" xmlns="http://www.w3.org/2000/svg" xmlns:xlink="http://www.w3.org/1999/xlink"><linearGradient y2="-1.604" x2="-.491" y1=".433" x1=".488" id="c"><stop stop-opacity="0" offset="0"/><stop stop-opacity=".4" offset="1"/></linearGradient><linearGradient y2=".903" x2=".496" y1=".033" x1=".554" id="d"><stop stop-color="#FFF" stop-opacity=".65" offset="0"/><stop stop-color="#FFF" stop-opacity="0" offset="1"/></linearGradient><linearGradient y2="-.084" x2=".763" y1=".661" x1=".348" id="f"><stop stop-opacity="0" offset="0"/><stop stop-opacity=".4" offset="1"/></linearGradient><linearGradient y2="1.076" x2=".559" y1=".216" x1=".378" id="g"><stop stop-opacity="0" offset="0"/><stop stop-opacity=".4" offset="1"/></linearGradient><linearGradient y2=".919" x2=".341" y1=".052" x1=".847" id="h"><stop stop-color="#B8D26E" offset="0"/><stop stop-color="#7FB525" offset="1"/></linearGradient><linearGradient y2=".482" x2=".398" y1=".431" x1="1.33" id="i"><stop stop-color="#B4E034" offset="0"/><stop stop-color="#60A927" offset="1"/></linearGradient><linearGradient y2="1.62" x2=".229" y1=".42" x1=".537" id="j"><stop stop-color="#1D1D1B" stop-opacity=".5" offset="0"/><stop stop-color="#1D1D1B" stop-opacity=".455" offset=".09"/><stop stop-color="#1D1D1B" stop-opacity="0" offset="1"/></linearGradient><linearGradient y2="1.62" x2=".229" y1=".42" x1=".537" id="k"><stop stop-color="#FFF" offset="0"/><stop stop-color="#CECEEB" offset="1"/></linearGradient><linearGradient y2=".474" x2="1.964" y1=".515" x1="-.915" id="l"><stop stop-color="#1D1D1B" stop-opacity=".5" offset="0"/><stop stop-color="#1D1D1B" stop-opacity=".484" offset=".038"/><stop stop-color="#1D1D1B" stop-opacity=".319" offset=".424"/><stop stop-color="#1D1D1B" stop-opacity="0" offset="1"/></linearGradient><linearGradient y2=".636" x2=".316" y1="-.031" x1="1.032" id="m"><stop stop-opacity="0" offset="0"/><stop stop-opacity=".4" offset="1"/></linearGradient><linearGradient y2=".551" x2=".404" y1="-.019" x1=".955" id="n"><stop stop-opacity="0" offset="0"/><stop stop-opacity=".4" offset="1"/></linearGradient><linearGradient y2=".91" x2=".516" y1=".572" x1=".469" id="o"><stop stop-opacity="0" offset="0"/><stop stop-opacity=".4" offset="1"/></linearGradient><linearGradient y2=".921" x2=".515" y1=".041" x1=".407" id="p"><stop stop-color="#FFF" stop-opacity=".5" offset="0"/><stop stop-color="#FFF" stop-opacity=".455" offset=".09"/><stop stop-color="#FFF" stop-opacity="0" offset="1"/></linearGradient><linearGradient y2="1.062" x2=".554" y1=".139" x1=".365" id="q"><stop stop-opacity="0" offset="0"/><stop stop-opacity=".4" offset="1"/></linearGradient><linearGradient y2=".753" x2=".292" y1=".159" x1="1.015" id="r"><stop stop-color="#FFF" stop-opacity=".5" offset="0"/><stop stop-color="#FFF" stop-opacity="0" offset="1"/></linearGradient><linearGradient y2=".508" x2="1.484" y1=".491" x1="-.611" id="s"><stop stop-color="#1D1D1B" stop-opacity=".5" offset="0"/><stop stop-color="#1D1D1B" stop-opacity=".455" offset=".09"/><stop stop-color="#1D1D1B" stop-opacity="0" offset="1"/></linearGradient><linearGradient y2=".211" x2=".798" y1=".053" x1=".96" id="t"><stop stop-color="#FFF" stop-opacity=".4" offset="0"/><stop stop-color="#FFF" stop-opacity="0" offset="1"/></linearGradient><linearGradient y2=".752" x2=".477" y1=".987" x1=".43" id="u"><stop stop-color="#1D1D1B" stop-opacity=".5" offset="0"/><stop stop-color="#1D1D1B" stop-opacity=".455" offset=".09"/><stop stop-color="#1D1D1B" stop-opacity="0" offset="1"/></linearGradient><linearGradient y2=".513" x2="2.393" y1=".496" x1="-.497" id="v"><stop stop-color="#1D1D1B" stop-opacity=".5" offset="0"/><stop stop-color="#1D1D1B" stop-opacity="0" offset="1"/></linearGradient><linearGradient y2=".803" x2=".427" y1=".004" x1=".548" id="w"><stop stop-color="#FFF" stop-opacity=".5" offset="0"/><stop stop-color="#FFF" stop-opacity="0" offset="1"/></linearGradient><linearGradient y2=".803" x2=".427" y1=".004" x1=".548" id="x"><stop stop-color="#FFF" stop-opacity=".5" offset="0"/><stop stop-color="#FFF" stop-opacity="0" offset="1"/></linearGradient><linearGradient y2="1.282" x2=".009" y1=".05" x1=".829" id="y"><stop stop-color="#FFF" stop-opacity=".5" offset="0"/><stop stop-color="#FFF" stop-opacity=".455" offset=".09"/><stop stop-color="#FFF" stop-opacity="0" offset="1"/></linearGradient><linearGradient y2=".143" x2=".622" y1="-.058" x1=".69" id="z"><stop stop-opacity="0" offset="0"/><stop stop-opacity=".4" offset="1"/></linearGradient><linearGradient y2=".352" x2=".522" y1=".268" x1=".534" id="A"><stop stop-opacity="0" offset="0"/><stop stop-opacity=".4" offset="1"/></linearGradient><linearGradient y2=".903" x2=".484" y1=".033" x1=".694" id="B"><stop stop-color="#FFF" stop-opacity=".65" offset="0"/><stop stop-color="#FFF" stop-opacity="0" offset="1"/></linearGradient><linearGradient y2="-.084" x2=".843" y1=".661" x1=".345" id="D"><stop stop-opacity="0" offset="0"/><stop stop-opacity=".4" offset="1"/></linearGradient><image transform="translate(-24 130)" xlink:href="F03FE8D652899525.png" height="105" width="247" opacity=".05"/><image transform="translate(-16 133)" xlink:href="F03FE8D652899527.png" height="100" width="234" opacity=".12"/><linearGradient y2=".753" x2=".5" y1=".67" x1=".5" id="a"><stop stop-opacity="0" offset="0"/><stop stop-opacity=".52" offset="1"/></linearGradient><path d="M120.779 66.802c-1.085-.213-3.673-5.885-3.941-5.821 0 0-63.395 18.479-64.25 19.502-.937 1.123-27.779 96.036-27.779 96.036l98.371 18.432-2.401-128.149z" fill="url(#a)"/><linearGradient y2=".753" x2=".5" y1=".669" x1=".5" id="b"><stop stop-opacity="0" offset="0"/><stop stop-opacity=".52" offset="1"/></linearGradient><path d="M148.252 64.48s-.144-.777-.583-1.061a2.412 2.412 0 0 0-.922-.339l-13.884-1.034-10.218-10.152c-.38-.297-.831-.47-1.289-.559l1.823 143.621 53.3-11.536-28.227-118.94z" fill="url(#b)"/><path fill="url(#c)" d="M123.184 194.941l56.489 1.086 22.18-12.609-25.255-.018z"/><path d="M123.328 70.732c2.107.725 4.189-.655 4.647-3.081.459-2.423-.877-4.977-2.985-5.7-2.109-.726-4.19.652-4.648 3.079-.458 2.426.878 4.981 2.986 5.702z" fill="#FFF" opacity=".3"/><path d="M81.303 78.899c-.141 0-.285-.01-.432-.031-1.663-.233-3.053-1.736-3.106-3.357-.052-1.587-1.019-38.963 20.899-47.465 5.532-2.146 10.557-1.664 14.933 1.435 5.262 3.724 9.098 11.077 11.404 21.855 1.629 7.62 1.893 14.185 1.905 14.46.061 1.623-1.238 2.757-2.9 2.532-1.663-.225-3.061-1.723-3.123-3.345-.262-6.771-2.606-25.515-10.206-30.891-2.435-1.721-5.38-1.874-9.005-.468-18.788 7.287-17.896 42.378-17.884 42.732.046 1.478-1.035 2.543-2.485 2.543z" fill="#595961" opacity=".62"/><path d="M81.303 78.899c-.141 0-.285-.01-.432-.031-1.663-.233-3.053-1.736-3.106-3.357-.052-1.587-1.019-38.963 20.899-47.465 5.532-2.146 10.557-1.664 14.933 1.435 5.262 3.724 9.098 11.077 11.404 21.855 1.629 7.62 1.893 14.185 1.905 14.46.061 1.623-1.238 2.757-2.9 2.532-1.663-.225-3.061-1.723-3.123-3.345-.262-6.771-2.606-25.515-10.206-30.891-2.435-1.721-5.38-1.874-9.005-.468-18.788 7.287-17.896 42.378-17.884 42.732.046 1.478-1.035 2.543-2.485 2.543z" fill="#595961" opacity=".62"/><path d="M112.548 29.604c-3.976-2.814-8.683-3.247-13.822-1.253-8.904 3.454-15.242 12.653-18.327 26.604-2.285 10.334-2.019 19.584-2.007 19.973.016.491.227.979.594 1.375.368.396.846.653 1.345.724.092.013.183.02.272.02.915 0 1.583-.684 1.554-1.59-.012-.36-.935-36.1 18.449-43.619 3.924-1.521 7.35-1.309 10.117.65 8.076 5.714 10.525 24.969 10.788 31.907.039 1.013.914 1.951 1.955 2.092 1.046.137 1.847-.589 1.809-1.583-.044-1.105-1.16-27.113-12.727-35.3z" fill="#B2B2C2" opacity=".46"/><path d="M80.407 75.933a.998.998 0 0 1-.162-.012c-.624-.087-1.146-.651-1.166-1.259-.012-.384-.281-9.525 1.992-19.805 3.041-13.749 9.252-22.802 17.966-26.181 4.92-1.909 9.321-1.528 13.081 1.133 11.2 7.927 12.296 33.533 12.337 34.62.023.608-.463 1.031-1.087.949-.622-.084-1.147-.646-1.17-1.254-.011-.253-1.086-25.447-11.176-32.585-3.018-2.136-6.67-2.395-10.858-.771-19.776 7.67-18.838 43.846-18.827 44.21.019.555-.386.955-.93.955z" fill="#B2B2C2" opacity=".46"/><path d="M88.468 47.26a46.544 46.544 0 0 0 2.279-4.584c-.311.521-2.278 5.734-8.429 4.935-.001-.001 3.643 1.095 6.15-.351zm-2.204 6.463a48.591 48.591 0 0 0 1.644-4.924c-.238.567-1.229 5.979-7.575 6.021 0 0 3.676.671 5.931-1.097zM84.84 60.25a50.52 50.52 0 0 0 1.123-5.141c-.177.597-.307 6.086-6.819 6.819 0 0 3.664.328 5.696-1.678zm36.518-19.408a69.787 69.787 0 0 0-2.617-5.262c.273.64 3.309 6.27-.055 10.359.001-.001 2.639-2.033 2.672-5.097zm-5.489-9.054a75.742 75.742 0 0 0-4.848-3.571c.555.458 5.92 4.154 5.611 9.785-.001-.001.883-3.311-.763-6.214zm8.114 18.213a64.936 64.936 0 0 0-1.62-5.488c.15.659 2.124 6.576-2.097 9.809.001 0 3.08-1.422 3.717-4.321zm2.142 9.345a60.67 60.67 0 0 0-.936-5.527c.068.658 1.306 6.645-3.39 9.253 0 0 3.305-.994 4.326-3.726zm-42.274 8.253c.248-1.762.399-3.551.47-5.344-.1.625-.034 6.323-5.805 7.713 0 0 3.602-.096 5.335-2.369zm7.528-25.812a45.226 45.226 0 0 0 3.256-3.877c-.423.431-3.713 4.488-9.571 2.982 0 0 3.475 1.761 6.315.895zm3.714-4.545a45.935 45.935 0 0 0 3.997-3.138c-.507.338-4.571 3.642-10.251 1.192 0 0 3.214 2.282 6.254 1.946zm5.435-3.341a49.887 49.887 0 0 0 4.943-1.731c-.61.165-5.668 2.029-10.691-1.798 0 .001 2.582 2.981 5.748 3.529zm4.859-1.795c1.425.201 2.845.331 4.248.4-.509-.081-4.883-.43-7.44-4.418 0-.001.995 2.699 3.192 4.018zm5.787 2.183a57.84 57.84 0 0 0 3.268 3.211c-.368-.404-3.778-3.675-3.039-7.819 0 .001-1.116 2.291-.229 4.608z" fill="#595961" opacity=".62"/><path d="M123.269 63.825c-.04-1.074-1.125-26.38-12.047-34.111-2.065-1.462-4.364-2.204-6.832-2.204-1.792 0-3.709.391-5.694 1.161-8.569 3.323-14.688 12.267-17.694 25.863-2.254 10.193-1.993 19.296-1.98 19.679.01.303.271.585.583.629a.587.587 0 0 0 .082.006.452.452 0 0 0 .465-.478c-.012-.368-.952-36.873 19.108-44.654 4.35-1.688 8.232-1.389 11.414.862 10.374 7.341 11.456 32.837 11.466 33.095.011.303.274.584.585.627.024.002.05.004.076.004a.452.452 0 0 0 .468-.479z" fill="url(#d)" opacity=".74"/><linearGradient y2="1.123" x2=".959" y1=".362" x1=".506" id="e"><stop stop-opacity="0" offset="0"/><stop stop-opacity=".4" offset="1"/></linearGradient><path d="M125 51.336c-2.306-10.778-6.142-18.132-11.404-21.855-2.854-2.02-5.985-2.92-9.351-2.713 2.666.169 5.174 1.068 7.497 2.713 5.262 3.724 9.099 11.077 11.403 21.855 1.629 7.62 1.894 14.185 1.905 14.46.043 1.159-.608 2.065-1.588 2.409.177.055.358.098.543.123 1.662.225 2.961-.909 2.9-2.532-.011-.275-.275-6.84-1.905-14.46z" fill="url(#e)"/><path d="M99.818 33.624C81.03 40.911 81.921 76.002 81.933 76.356c.036 1.152-.613 2.05-1.587 2.392.171.053.346.095.525.12.147.021.291.031.432.031 1.45 0 2.531-1.065 2.485-2.543-.012-.354-.903-35.445 17.884-42.732 1.268-.492 2.452-.789 3.561-.898-1.617-.178-3.413.121-5.415.898z" fill="url(#f)"/><path d="M81.303 78.899c-.141 0-.285-.01-.432-.031-1.663-.233-3.053-1.736-3.106-3.357-.052-1.587-1.019-38.963 20.899-47.465 5.532-2.146 10.557-1.664 14.933 1.435 5.262 3.724 9.098 11.077 11.404 21.855 1.629 7.62 1.893 14.185 1.905 14.46.061 1.623-1.238 2.757-2.9 2.532-1.663-.225-3.061-1.723-3.123-3.345-.262-6.771-2.606-25.515-10.206-30.891-2.435-1.721-5.38-1.874-9.005-.468-18.788 7.287-17.896 42.378-17.884 42.732.046 1.478-1.035 2.543-2.485 2.543z" fill="url(#g)"/><path d="M128.291 42.273L43.52 68.523s-3.637 1.033-4.492 2.057c-.937 1.123-1.117 4.155-1.117 4.155L24.808 175.806l98.371 18.431 7.574-152.049c-1.085-.213-2.193.021-2.462.085z" fill="url(#h)"/><path d="M157.65 55.338s-.143-.777-.584-1.061a2.405 2.405 0 0 0-.921-.339l-13.884-1.035-10.218-10.152a3.016 3.016 0 0 0-1.29-.559l-7.574 152.048 53.3-11.536L157.65 55.338z" fill="url(#i)"/><path d="M92.336 125.723c-1.508-2.031-3.262-3.814-5.117-5.395-1.827-1.557-3.748-2.914-5.628-4.119-1.341-.838-2.503-1.644-3.489-2.436-.978-.784-1.785-1.557-2.421-2.33-.633-.769-1.098-1.542-1.396-2.334a6.121 6.121 0 0 1-.392-2.446c.049-1.142.303-2.175.737-3.088a7.146 7.146 0 0 1 1.835-2.38c.786-.67 1.739-1.208 2.837-1.6 1.108-.396 2.367-.642 3.756-.724a27.098 27.098 0 0 1 4.365.101 29.5 29.5 0 0 1 3.976.693c1.249.307 2.402.673 3.438 1.057a30.92 30.92 0 0 1 2.747 1.172l6.561-19.55c-.976-.499-2.159-.956-3.526-1.343a31.409 31.409 0 0 0-4.56-.909 41.23 41.23 0 0 0-5.367-.316c-1.886.009-3.88.137-5.957.41-4.479.587-8.522 1.825-12.056 3.59-3.437 1.718-6.416 3.946-8.868 6.59a29.122 29.122 0 0 0-5.672 8.958c-1.339 3.32-2.138 7.008-2.312 11.008-.104 2.393.137 4.591.656 6.618a21.597 21.597 0 0 0 2.356 5.653c1.035 1.752 2.299 3.366 3.724 4.858 1.444 1.51 3.057 2.898 4.77 4.178 1.397 1.021 2.577 1.982 3.56 2.915.99.939 1.776 1.848 2.38 2.754.607.911 1.027 1.819 1.284 2.757.258.938.353 1.905.307 2.93-.044 1.026-.265 1.986-.656 2.837a5.98 5.98 0 0 1-1.668 2.17c-.716.58-1.592 1.008-2.619 1.239-1.018.229-2.182.269-3.484.076-1.475-.218-2.962-.643-4.409-1.197a32.203 32.203 0 0 1-4.115-1.946 40.901 40.901 0 0 1-6.289-4.347l-4.494 14.907c.745.954 1.693 1.906 2.808 2.827 1.127.93 2.429 1.83 3.868 2.667a37.066 37.066 0 0 0 4.765 2.324c1.731.7 3.573 1.3 5.482 1.764l.097.021.096.021.096.022c.033.007.064.015.097.021 4.07.899 8.02 1.118 11.702.626 3.793-.509 7.277-1.77 10.287-3.802 3.079-2.079 5.632-4.948 7.485-8.601 1.875-3.697 3.008-8.156 3.233-13.327.138-3.163-.3-6.034-1.161-8.636-.855-2.582-2.123-4.884-3.649-6.938z" fill="url(#j)" opacity=".47"/><path d="M93.277 126.748c-1.507-2.029-3.263-3.813-5.117-5.394-1.827-1.558-3.748-2.915-5.628-4.119-1.341-.837-2.503-1.645-3.489-2.435-.978-.785-1.785-1.558-2.421-2.33-.633-.77-1.099-1.543-1.396-2.335a6.107 6.107 0 0 1-.393-2.446c.05-1.142.303-2.175.737-3.088a7.162 7.162 0 0 1 1.836-2.38c.786-.669 1.739-1.208 2.836-1.601 1.108-.395 2.367-.642 3.756-.724a27.086 27.086 0 0 1 4.364.101c1.406.146 2.738.39 3.976.693a31.289 31.289 0 0 1 6.185 2.229l6.561-19.551c-.974-.499-2.158-.956-3.525-1.342a31.436 31.436 0 0 0-4.56-.909 41.07 41.07 0 0 0-5.368-.316 47.71 47.71 0 0 0-5.957.409c-4.478.587-8.521 1.825-12.055 3.59-3.437 1.718-6.417 3.947-8.868 6.59a29.122 29.122 0 0 0-5.672 8.958c-1.339 3.32-2.139 7.009-2.313 11.009-.104 2.392.137 4.59.657 6.618a21.553 21.553 0 0 0 2.355 5.651c1.036 1.754 2.3 3.367 3.726 4.858 1.443 1.511 3.056 2.9 4.77 4.178 1.397 1.021 2.577 1.982 3.559 2.916.991.939 1.776 1.848 2.381 2.754.606.912 1.026 1.818 1.284 2.757.258.938.352 1.904.307 2.931-.044 1.025-.265 1.984-.656 2.835a5.965 5.965 0 0 1-1.668 2.171c-.717.581-1.592 1.007-2.618 1.239-1.019.229-2.183.269-3.485.076-1.475-.218-2.963-.644-4.409-1.197a32.326 32.326 0 0 1-4.114-1.946 40.663 40.663 0 0 1-3.548-2.237 39.176 39.176 0 0 1-2.742-2.109l-4.493 14.907c.744.953 1.692 1.905 2.807 2.825 1.128.93 2.429 1.83 3.868 2.668a37.195 37.195 0 0 0 4.765 2.324 39.416 39.416 0 0 0 5.578 1.785c.033.008.065.016.097.022.032.008.064.015.097.021l.096.022c4.071.899 8.02 1.118 11.702.625 3.792-.507 7.278-1.768 10.287-3.801 3.079-2.079 5.632-4.948 7.484-8.6 1.875-3.698 3.009-8.156 3.234-13.328.138-3.163-.3-6.034-1.162-8.636-.854-2.581-2.122-4.882-3.648-6.938z" fill="url(#k)"/><path d="M145.644 165.872L142.26 52.896l-.58-.566 1.609 111.977s-14.1 21.391-16.226 20.769c-3.115-.911 6.075-141.246 6.075-141.246l-1.042-1.037c-.393-.324-.864-.506-1.344-.6l-7.468 149.911-.106 2.138 2.634-3.326 19.832-25.044z" fill="url(#l)" opacity=".41"/><path d="M107.319 48.772c-1.194 4.733-2.739 9.142-3.801 11.76-.66 1.623.073 3.121 1.636 3.345 1.562.225 3.364-.909 4.024-2.532.112-.276 2.764-6.84 4.52-14.46l.021-.095-6.4 1.982z" fill="url(#m)"/><path d="M62.152 62.758c-1.408 3.01-2.82 5.634-3.85 7.382-.891 1.508-.386 3.097 1.128 3.549 1.512.452 3.461-.406 4.352-1.915.134-.228 2.98-5.075 5.616-11.26l-7.246 2.244z" fill="url(#n)"/><path fill="url(#o)" opacity=".32" d="M123.209 194.238l22.426-28.364 30.931 16.831z"/><path fill="url(#p)" opacity=".19" d="M123.18 194.25l22.177-28.366 31.209 16.821z"/><path fill="url(#q)" opacity=".19" d="M123.18 194.25l22.177-28.366 31.209 16.821z"/><path d="M101.395 115.033c11.6 15.745 19.368 32.739 23.276 49.25l6.082-122.09c-1.085-.213-2.193.021-2.462.085l-84.77 26.249s-.812.231-1.758.582c21.429 7.42 42.941 23.267 59.632 45.924z" fill="url(#r)" opacity=".6"/><path d="M157.121 54.331c.473.411.53 1.031.53 1.031l18.637 127.343-30.645-16.833-3.383-112.968 13.699 1.021s.689-.006 1.162.406z" fill="url(#s)"/><path d="M154.874 54.607s.635.05 1.108.46c.473.411.584.977.584.977l18.336 125.899 1.386.762-18.637-127.343s-.057-.621-.53-1.031c-.473-.411-1.162-.406-1.162-.406l-13.699-1.021 12.614 1.703z" fill="url(#t)"/><path fill="url(#u)" d="M24.808 175.812l98.371 18.429 4.842-104.287-93.005.7z"/><ellipse ry="3.817" rx="4.674" cy="71.461" cx="60.795" fill="#FFF" opacity=".3" transform="rotate(110.089 60.793 71.457)"/><ellipse ry="3.817" rx="4.674" cy="70.349" cx="60.795" opacity=".89" transform="rotate(110.089 60.793 70.344)"/><path d="M142.26 52.896l-10.164-10.104c-.393-.324-.864-.506-1.344-.6l-7.574 152.048 22.465-28.369-3.383-112.975z" fill="url(#v)"/><path d="M128.291 42.278l-84.77 26.249s-3.637 1.033-4.492 2.058a2.3 2.3 0 0 0-.18.255l85.492-23.639c.698-.159 2.441-.814 2.175 4.139l-5.182 142.556 1.846.345 7.574-152.048c-1.086-.213-2.194.02-2.463.085z" fill="url(#w)"/><path d="M128.291 42.278l-84.77 26.249s-3.637 1.033-4.492 2.058a2.3 2.3 0 0 0-.18.255l19.807-5.477 68.077-21.08c.268-.064 1.375-.298 2.462-.085l-7.461 149.772 1.446.271 7.574-152.048c-1.086-.213-2.194.02-2.463.085z" fill="url(#x)"/><path d="M150.141 168.338l-4.506-2.464-22.456 28.365 1.243-.27s19.822-25.463 21.612-26.294c1.197-.555 4.107.663 4.107.663z" fill="url(#y)" opacity=".32"/><path d="M123.179 194.241l22.457-28.367c-.001 0-14.261 15.502-22.457 28.367z" fill="url(#z)" opacity=".57"/><path d="M176.566 182.705l-30.931-16.831s3.532.597 30.931 16.831z" fill="url(#A)" opacity=".46"/><ellipse ry="3.817" rx="4.674" cy="61.15" cx="105.678" fill="#FFF" opacity=".3" transform="rotate(110.089 105.674 61.145)"/><ellipse ry="3.817" rx="4.674" cy="60.037" cx="105.678" opacity=".89" transform="rotate(110.089 105.674 60.034)"/><path d="M60.607 73.707a2.966 2.966 0 0 1-2.941-3.388c.228-1.587 5.851-38.964 29.268-47.465 5.91-2.146 10.85-1.663 14.681 1.434 4.605 3.725 7.145 11.078 7.549 21.856.286 7.62-.607 14.185-.646 14.46a2.967 2.967 0 0 1-5.878-.813c.932-6.771 1.892-25.515-4.76-30.89-2.13-1.721-5.049-1.874-8.922-.469C68.887 35.718 63.591 70.81 63.54 71.164a2.968 2.968 0 0 1-2.933 2.543z" fill="#595961"/><path d="M100.544 24.411c-3.479-2.813-8.111-3.247-13.601-1.253-9.514 3.453-17.473 12.653-23.018 26.604-4.108 10.334-5.473 19.583-5.529 19.973-.071.49.054.979.352 1.375a1.84 1.84 0 0 0 1.486.744c.915 0 1.703-.683 1.834-1.59.052-.36 5.431-36.1 26.141-43.619 4.19-1.521 7.58-1.309 10.002.65 7.068 5.714 6.122 24.969 5.162 31.907a1.856 1.856 0 0 0 1.585 2.091 1.862 1.862 0 0 0 2.088-1.583c.153-1.103 3.622-27.112-6.502-35.299z" fill="#B2B2C2" opacity=".46"/><path d="M60.234 70.74a1.112 1.112 0 0 1-1.103-1.271c.055-.384 1.398-9.524 5.483-19.804 5.465-13.749 13.273-22.802 22.582-26.181 5.257-1.91 9.591-1.528 12.881 1.133 9.803 7.927 6.384 33.534 6.234 34.62a1.113 1.113 0 0 1-2.204-.305c.035-.254 3.401-25.446-5.429-32.585-2.641-2.136-6.249-2.395-10.722-.771-21.128 7.67-26.57 43.846-26.622 44.21-.08.554-.556.954-1.1.954z" fill="#B2B2C2" opacity=".81"/><path d="M73.351 42.067a58.414 58.414 0 0 0 3.087-4.584c-.403.522-3.29 5.735-9.3 4.935 0 0 3.452 1.095 6.213-.351zm-3.343 6.463a58.44 58.44 0 0 0 2.511-4.923c-.337.567-2.282 5.979-8.636 6.021 0-.001 3.558.671 6.125-1.098zm-2.575 6.528a58.978 58.978 0 0 0 2.03-5.141c-.282.597-1.381 6.086-8.022 6.819-.001 0 3.606.328 5.992-1.678z" fill="#595961" opacity=".42"/><path d="M107.373 35.649a58.617 58.617 0 0 0-1.689-5.262c.16.64 2.202 6.271-1.882 10.359 0 0 2.997-2.032 3.571-5.097zm-3.894-9.054a58.41 58.41 0 0 0-4.218-3.571c.475.458 5.188 4.154 3.886 9.785 0 0 1.467-3.31.332-6.214zm4.904 18.215a58.527 58.527 0 0 0-.652-5.488c.034.659.964 6.576-3.826 9.809 0-.001 3.33-1.423 4.478-4.321zm.494 9.343c.103-1.845.11-3.694.039-5.526-.048.658.134 6.645-5.022 9.253-.001 0 3.481-.994 4.983-3.727z" fill="#595961" opacity=".62"/><path d="M65.148 62.406a58.816 58.816 0 0 0 1.412-5.344c-.21.625-1.149 6.324-7.166 7.714.001 0 3.62-.096 5.754-2.37zm12.08-25.812a58.608 58.608 0 0 0 3.939-3.877c-.5.431-4.504 4.488-10.097 2.982 0 .001 3.163 1.762 6.158.895zm4.514-4.545a58.304 58.304 0 0 0 4.55-3.137c-.566.338-5.213 3.642-10.461 1.191.001 0 2.812 2.282 5.911 1.946z" fill="#595961" opacity=".42"/><path d="M87.766 28.709a58.702 58.702 0 0 0 5.249-1.731c-.638.165-6.026 2.029-10.373-1.798 0 0 2.055 2.98 5.124 3.529zm5.177-1.795c1.389.202 2.787.331 4.177.4-.495-.081-4.809-.431-6.661-4.418 0 0 .519 2.699 2.484 4.018zm5.402 2.183a44.359 44.359 0 0 0 2.701 3.21c-.297-.404-3.13-3.674-1.659-7.818 0 0-1.521 2.29-1.042 4.608z" fill="#595961" opacity=".62"/><path d="M105.23 58.632c.149-1.073 3.527-26.38-6.032-34.111-1.808-1.462-3.976-2.204-6.442-2.204-1.793 0-3.778.391-5.899 1.161-9.155 3.324-16.85 12.267-22.255 25.863-4.051 10.193-5.395 19.296-5.45 19.678a.558.558 0 0 0 .553.636c.274 0 .51-.206.549-.477.053-.369 5.55-36.874 26.982-44.654 4.647-1.688 8.478-1.39 11.262.861 9.08 7.341 5.666 32.838 5.63 33.095a.558.558 0 0 0 .55.631.555.555 0 0 0 .552-.479z" fill="url(#B)"/><linearGradient y2="1.123" x2=".82" y1=".362" x1=".535" id="C"><stop stop-opacity="0" offset="0"/><stop stop-opacity=".4" offset="1"/></linearGradient><path d="M109.165 46.144c-.405-10.778-2.944-18.131-7.549-21.856-2.498-2.02-5.471-2.92-8.874-2.712 2.637.169 4.986 1.069 7.02 2.712 4.604 3.725 7.145 11.078 7.548 21.856.286 7.62-.607 14.185-.644 14.46a2.966 2.966 0 0 1-2.014 2.409 2.967 2.967 0 0 0 3.867-2.409c.039-.276.932-6.84.646-14.46z" fill="url(#C)"/><path d="M87.105 28.432C67.033 35.718 61.737 70.81 61.686 71.164a2.967 2.967 0 0 1-2.009 2.392 2.988 2.988 0 0 0 .931.152 2.968 2.968 0 0 0 2.933-2.543c.051-.354 5.347-35.445 25.419-42.732 1.355-.492 2.591-.789 3.719-.898-1.586-.179-3.433.119-5.574.897z" fill="url(#D)"/><g opacity=".45"><linearGradient y2=".339" x2=".495" y1="-1.527" x1=".329" id="E"><stop stop-opacity="0" offset="0"/><stop stop-opacity=".4" offset="1"/></linearGradient><path d="M60.302 69.547c-1.021-.372-1.747-1.232-2.094-2.309a63.06 63.06 0 0 0-.542 3.081 2.965 2.965 0 0 0 2.941 3.388 2.968 2.968 0 0 0 2.933-2.543 57.3 57.3 0 0 1 .443-2.466c-1.071.932-2.444 1.302-3.681.849z" fill="url(#E)"/><linearGradient y2="1.347" x2=".593" y1="-.48" x1=".425" id="F"><stop stop-opacity="0" offset="0"/><stop stop-opacity=".4" offset="1"/></linearGradient><path d="M104.872 58.326c-.843-.307-1.486-.948-1.88-1.769a63.308 63.308 0 0 1-.351 3.233 2.966 2.966 0 1 0 5.878.813c.017-.119.192-1.408.363-3.443-1.109 1.161-2.642 1.667-4.01 1.166z" fill="url(#F)"/></g><path d="M206.941 141.628c3.742 1.945 10.477 4.639 16.912 4.49 5.836 0 8.979-3.143 8.979-7.035 0-3.74-2.245-6.285-8.531-9.877-7.782-4.49-13.619-10.775-13.619-19.006 0-14.518 12.421-24.844 30.53-24.844 7.932 0 14.068 1.497 17.36 3.442l-4.789 14.667c-2.843-1.347-7.483-2.844-12.871-2.844-5.837 0-9.578 2.694-9.578 6.884 0 3.293 2.694 5.688 7.932 8.531 8.082 4.639 14.816 10.926 14.816 19.756 0 16.461-13.319 25.74-31.877 25.59-8.531-.148-16.463-2.395-20.354-5.088l5.09-14.666zm51.333 18.408l20.054-105.509h20.653l-7.932 41.455.3.149c5.537-6.585 12.721-10.925 21.85-10.925 10.775 0 16.912 7.034 16.912 18.707 0 3.592-.6 8.98-1.497 13.471l-8.081 42.652H299.88l7.782-41.307c.599-2.844.898-6.285.898-9.129 0-4.49-1.797-7.633-6.436-7.633-6.585 0-13.619 8.381-16.313 22l-6.884 36.068h-20.653v.001zm146.517-45.945c0 25.592-16.463 47.441-40.857 47.441-18.557 0-28.434-12.871-28.434-28.885 0-24.992 16.461-47.441 41.305-47.441 19.306.001 27.986 14.068 27.986 28.885zM356.602 132.2c0 7.482 2.992 13.469 10.027 13.469 10.924 0 17.061-19.455 17.061-32.178 0-6.135-2.395-12.421-9.729-12.421-11.225 0-17.359 19.306-17.359 31.13zm43.252 57.168l14.367-75.576c1.646-8.531 3.293-19.905 4.191-27.388h18.258l-1.197 11.075h.299c5.537-7.782 13.619-12.272 21.85-12.272 15.115 0 21.252 12.422 21.252 26.339 0 25.143-15.863 49.986-40.107 49.986-5.09 0-9.729-1.197-12.123-2.693h-.449l-5.688 30.529h-20.653zm29.482-46.392c2.246 1.795 4.789 2.992 8.531 2.992 11.523 0 19.455-19.006 19.455-32.326 0-5.537-1.945-11.374-8.23-11.374-7.184 0-13.918 8.53-16.312 21.401l-3.444 19.307zm50.137 17.06l13.92-73.183h20.801l-14.066 73.183h-20.655zm26.789-82.162c-5.836 0-9.727-4.19-9.727-10.327 0-6.735 5.238-11.973 11.822-11.973 6.285 0 10.326 4.34 10.326 10.327-.148 7.632-5.688 11.973-12.121 11.973h-.3zm11.822 82.162l10.926-57.769h-9.578l2.992-15.564h9.578l.6-3.442c1.646-8.681 4.938-17.36 11.973-23.347 5.537-4.789 12.869-6.885 20.203-6.885 5.088 0 8.83.749 11.225 1.796l-4.041 16.163c-1.795-.599-3.891-1.047-6.584-1.047-6.885 0-11.076 6.286-12.273 13.32l-.748 3.442h14.367l-2.844 15.564h-14.217l-10.926 57.769h-20.653zm74.23-73.183l3.293 32.925c.898 7.332 1.496 12.57 1.797 17.359h.299c1.646-4.938 3.143-9.578 6.137-17.51l12.57-32.775h21.551l-25.293 54.175c-8.979 18.559-17.658 32.178-27.088 41.008-7.332 6.883-16.014 10.326-20.203 11.225l-5.688-17.512c3.443-1.197 7.783-2.992 11.674-5.836 4.789-3.293 8.83-7.781 11.225-12.422.598-1.047.748-1.945.449-3.441l-12.422-67.197h21.699v.001z" fill="#FFF"/><image transform="matrix(.24 0 0 .24 1647.95 -323.223)" xlink:href="F03FE8D652899525.jpg" height="10" width="101"/></svg>