<svg width="400" height="76.25" xmlns="http://www.w3.org/2000/svg" display="block"><g fill-rule="evenodd"><path d="M29.552 12.532c-.25.121-1.094 1.649-2.702 4.892-1.517 3.061-2.445 4.75-2.643 4.813-.167.053-.864.175-1.547.27-2.023.282-3.512.495-4.577.653-.55.083-1.562.224-2.25.316-3.124.415-3.224 1.073-.552 3.661.991.959 2.692 2.611 3.779 3.669l1.976 1.925-.102.676a212.53 212.53 0 0 1-.577 3.51c-1.448 8.513-1.591 8.292 3.56 5.505.641-.347 2.104-1.117 3.25-1.712 1.146-.594 2.154-1.147 2.241-1.229.387-.361.767-.217 4.092 1.555.596.317 1.721.908 2.5 1.312.779.404 1.454.776 1.5.826.316.347 2.07 1.011 2.43.921.909-.228.902-.433-.284-7.345-.154-.897-.454-2.682-.591-3.511-.08-.482.13-.718 3.667-4.146 5.151-4.989 5.158-5.065.486-5.749l-2.374-.348c-.641-.094-1.635-.24-2.208-.326a115.49 115.49 0 0 0-1.856-.26c-.447-.057-.917-.143-1.044-.192-.127-.049-1.281-2.22-2.566-4.826-2.223-4.51-2.687-5.24-3.213-5.047-.016.006-.194.09-.395.187" fill="#fff"/><path d="M111.5 1.333c0 .092-.117.167-.259.167-.788 0-2.908 1.589-2.908 2.179 0 .093-.15.329-.333.526-.183.197-.333.489-.333.65 0 .161-.075.338-.167.395-.092.057-.167.804-.167 1.667 0 .862.075 1.61.167 1.666.092.057.167.286.167.51 0 .224.075.407.166.407.092 0 .167.133.167.297 0 .163.15.404.333.536.184.132.334.319.334.414 0 .096.192.318.426.494.235.176.618.485.852.686.234.201.735.462 1.115.581.379.119.761.279.848.354.228.198 3.551.172 3.675-.029.057-.091.249-.166.427-.166s.323-.075.323-.167c0-.092.15-.167.334-.167.183 0 .333-.075.333-.166 0-.092.114-.167.254-.167.336 0 1.913-1.57 1.913-1.904 0-.145.075-.263.166-.263.092 0 .167-.15.167-.333 0-.183.075-.333.167-.333.091 0 .166-.263.166-.584 0-.321.075-.583.167-.583.094 0 .167-.472.167-1.083s-.073-1.084-.167-1.084c-.092 0-.167-.262-.167-.583 0-.321-.075-.583-.166-.583-.092 0-.167-.134-.167-.297 0-.163-.15-.405-.333-.537-.184-.132-.334-.339-.334-.461 0-.217-.724-1.039-.916-1.039-.054 0-.258-.149-.453-.331-.196-.182-.605-.378-.91-.435-.305-.057-.554-.171-.554-.252 0-.082-1.013-.148-2.25-.148-1.389 0-2.25.063-2.25.166m79.333 0c0 .092-.12.167-.266.167-.724 0-2.9 1.628-2.9 2.169 0 .098-.15.339-.334.536-.183.197-.333.489-.333.65 0 .161-.075.338-.167.395-.41.254-.059 4.25.374 4.25.07 0 .126.112.126.248 0 .137.132.407.292.6.699.844 1.188 1.319 1.359 1.319.1 0 .183.061.183.135 0 .192 1.302.865 1.672.865.17 0 .354.075.411.166.137.222 3.583.222 3.583 0 0-.091.225-.166.5-.166s.5-.075.5-.167c0-.092.113-.167.25-.167.138 0 .25-.075.25-.166 0-.092.109-.167.243-.167.452 0 2.082-1.7 2.192-2.286.056-.301.169-.547.251-.547.081 0 .148-.263.148-.584 0-.321.075-.583.166-.583.093 0 .167-.441.167-.99 0-.545-.075-1.037-.167-1.093-.091-.057-.166-.319-.166-.584 0-.264-.075-.526-.167-.583-.092-.057-.167-.233-.167-.393 0-.159-.131-.461-.291-.671-.809-1.06-1.092-1.353-1.307-1.353-.129 0-.235-.058-.235-.13 0-.206-.931-.703-1.317-.703-.192 0-.35-.075-.35-.167 0-.103-.861-.166-2.25-.166s-2.25.063-2.25.166m55.334 28.086v28.253l4.958-.045 4.958-.044.047-1.875c.027-1.064.117-1.875.209-1.875.088 0 .161.073.161.161 0 .234 1.886 2.006 2.135 2.006.081 0 .282.15.448.333.166.184.403.334.526.334s.224.075.224.166c0 .092.15.167.334.167.183 0 .333.058.333.13 0 .17 1.806.703 2.383.703.248 0 .45.075.45.167 0 .092.413.167.917.167s.917.075.917.166c0 .103.833.167 2.166.167 1.334 0 2.167-.064 2.167-.167 0-.091.412-.166.917-.166.504 0 .916-.065.916-.144 0-.079.424-.187.941-.24.517-.053 1.019-.176 1.116-.273a.666.666 0 0 1 .404-.177c.363 0 2.43-1.035 2.726-1.365.148-.166.392-.301.541-.301.15 0 .272-.07.272-.156 0-.085.162-.207.36-.269.463-.147 3.974-3.621 3.974-3.932 0-.13.15-.345.333-.477.183-.132.333-.336.333-.453 0-.117.066-.213.147-.213.21 0 1.353-2.37 1.353-2.804 0-.2.075-.363.167-.363.092 0 .167-.183.167-.407 0-.224.075-.453.166-.51.092-.056.167-.281.167-.5 0-.218.075-.443.167-.5.091-.056.166-.356.166-.666 0-.31.075-.61.167-.667.092-.057.167-.544.167-1.083 0-.54.075-1.027.166-1.084.098-.06.167-1.026.167-2.333 0-1.307-.069-2.273-.167-2.333-.091-.057-.166-.544-.166-1.084 0-.539-.075-1.026-.167-1.083-.092-.057-.167-.399-.167-.76s-.075-.657-.166-.657c-.092 0-.167-.225-.167-.5s-.075-.5-.167-.5c-.091 0-.166-.225-.166-.5s-.075-.5-.167-.5c-.092 0-.167-.122-.167-.27 0-.381-.848-2.23-1.022-2.23-.08 0-.144-.112-.144-.25 0-.137-.075-.25-.167-.25-.092 0-.167-.133-.167-.296 0-.163-.15-.405-.333-.537-.183-.132-.333-.336-.333-.453 0-.118-.075-.214-.167-.214-.092 0-.167-.081-.167-.181 0-.241-3.168-3.319-3.416-3.319-.054 0-.259-.15-.455-.333-.197-.183-.457-.333-.577-.333-.12 0-.218-.061-.218-.136 0-.074-.263-.238-.584-.364-.321-.126-.583-.29-.583-.365 0-.074-.15-.135-.333-.135-.184 0-.334-.071-.334-.157 0-.086-.337-.207-.75-.269-.412-.062-.75-.179-.75-.26 0-.081-.225-.148-.5-.148s-.5-.075-.5-.166c0-.092-.3-.167-.666-.167-.367 0-.667-.075-.667-.167 0-.096-.528-.166-1.25-.166s-1.25-.071-1.25-.167c0-.096-.524-.167-1.24-.167-.682 0-1.287.075-1.343.167-.057.092-.586.167-1.177.167-.604 0-1.073.072-1.073.166 0 .092-.3.167-.667.167-.367 0-.667.075-.667.167 0 .091-.187.166-.416.166-.229 0-.417.075-.417.167 0 .092-.195.167-.433.167-.533 0-1.557.462-1.92.866-.148.165-.356.3-.462.3-.106 0-.685.488-1.287 1.084-.602.595-1.125 1.083-1.163 1.083-.037 0-.068-5.25-.068-11.667V1.167h-10v28.252m42.5-.002v28.25h10.166l.023-2.125c.013-1.169.054-1.965.092-1.769.081.41 1.584 1.894 1.92 1.894.124 0 .333.15.465.333.132.183.33.333.44.333.11 0 .224.057.255.125.08.18 1.46.875 1.738.875.129 0 .234.07.234.155 0 .085.413.206.919.269.505.064.96.182 1.01.262.05.081.457.148.904.148.448 0 .86.075.917.166.06.097.974.167 2.177.167 1.271 0 2.073-.064 2.073-.167 0-.091.408-.166.907-.166.499 0 .947-.065.996-.145.049-.08.539-.196 1.088-.258s1.043-.184 1.097-.272c.054-.087.281-.159.505-.159.224 0 .407-.075.407-.166 0-.092.15-.167.333-.167.184 0 .334-.075.334-.167 0-.091.15-.166.333-.166.183 0 .333-.075.333-.167 0-.092.113-.167.25-.167.138 0 .25-.075.25-.166 0-.092.134-.167.297-.167.163 0 .405-.15.537-.333.132-.184.355-.336.495-.339.435-.009 3.671-2.964 3.671-3.352 0-.08.225-.381.5-.669.275-.288.5-.624.5-.748s.075-.226.167-.226c.092 0 .167-.112.167-.25 0-.137.066-.25.147-.25.196 0 1.019-1.753 1.019-2.171 0-.181.075-.329.167-.329.092 0 .167-.15.167-.333 0-.183.075-.333.166-.333.092 0 .167-.225.167-.5s.075-.5.167-.5c.091 0 .166-.258.166-.574 0-.315.075-.62.167-.676.092-.057.167-.432.167-.834 0-.401.075-.776.166-.833.103-.063.167-1.418.167-3.51 0-2.16-.061-3.407-.167-3.407-.091 0-.166-.37-.166-.823 0-.453-.075-.87-.167-.927-.092-.056-.167-.323-.167-.593 0-.269-.075-.49-.166-.49-.092 0-.167-.221-.167-.49 0-.27-.075-.537-.167-.593-.091-.057-.166-.286-.166-.51 0-.224-.075-.407-.167-.407-.092 0-.167-.12-.167-.266 0-.264-.48-1.406-.658-1.567-.051-.046-.204-.309-.341-.584-.137-.275-.38-.621-.541-.769-.161-.148-.293-.365-.293-.481 0-.116-.132-.332-.294-.48-.161-.148-.514-.57-.784-.936-.557-.756-1.39-1.584-1.593-1.584-.075 0-.362-.225-.637-.5s-.58-.5-.679-.5c-.099 0-.18-.075-.18-.166 0-.092-.112-.167-.25-.167-.137 0-.25-.075-.25-.167 0-.091-.098-.166-.218-.166s-.364-.134-.542-.298c-.436-.401-1.841-1.046-2.521-1.156-.304-.05-.552-.155-.552-.235 0-.079-.225-.145-.5-.145s-.5-.075-.5-.166c0-.092-.3-.167-.667-.167-.366 0-.666-.075-.666-.167 0-.095-.497-.166-1.157-.166-.636 0-1.203-.075-1.26-.167-.057-.092-.661-.167-1.343-.167-.716 0-1.24.071-1.24.167 0 .096-.528.167-1.25.167-.723 0-1.25.07-1.25.166 0 .092-.3.167-.667.167-.367 0-.667.075-.667.167 0 .091-.187.166-.416.166-.229 0-.417.069-.417.152 0 .084-.3.203-.667.265-.366.062-.666.181-.666.265 0 .083-.15.152-.334.152-.183 0-.333.075-.333.166 0 .092-.096.167-.213.167-.117 0-.322.15-.454.333-.132.184-.334.334-.449.334-.303 0-1.838 1.522-1.932 1.916-.044.184-.089-5.01-.099-11.541l-.02-11.875h-10.166v28.25M128.625 6.847c-.27.157-.292.674-.292 7.078v6.908h-6.666v8h6.664l.043 14.375.043 14.375h10.166l.043-14.375.043-14.375h7.498v-8h-7.5V7.186l-.371-.26c-.445-.311-9.15-.383-9.671-.079M88.75 20c-.057.092-.586.167-1.177.167-.604 0-1.073.072-1.073.166 0 .092-.3.167-.667.167-.366 0-.666.075-.666.167 0 .091-.225.166-.5.166s-.5.075-.5.167c0 .092-.162.167-.359.167-.442 0-1.974.736-2.446 1.175-.191.179-.422.325-.513.325-.258 0-2.849 2.602-2.849 2.861 0 .128-.15.34-.333.472-.184.132-.334.336-.334.453 0 .118-.075.214-.166.214-.092 0-.167.135-.167.3 0 .165-.077.377-.171.471-.094.094-.217.559-.273 1.033-.056.474-.167.862-.246.862-.187 0-.188 4.287 0 4.402.078.049.186.514.24 1.034.054.52.177 1.024.274 1.121.097.097.176.312.176.477 0 .165.075.3.167.3.091 0 .166.093.167.208 0 .397 2.397 2.958 2.768 2.958.053 0 .3.145.549.323.249.177.654.372.901.434.246.062.448.18.448.261 0 .082.15.149.333.149.184 0 .334.075.334.167 0 .091.113.166.252.166s.401.075.583.167l.662.333c.182.092.446.167.586.167.14 0 .385.068.544.15.159.083.627.241 1.039.351.413.11.913.263 1.112.34.198.077.819.191 1.378.254.56.064 1.058.181 1.107.26.049.08.348.145.663.145.316 0 .574.075.574.167 0 .091.262.166.583.166.321 0 .583.075.583.167 0 .092.225.167.5.167s.5.075.5.166c0 .092.122.167.27.167.35 0 1.564 1.214 1.564 1.564 0 .148.075.269.166.269.092 0 .167.183.167.407 0 .224-.075.453-.167.51-.091.057-.166.231-.166.387s-.261.582-.58.948c-.32.366-.582.721-.584.79-.002.069-.153.125-.336.125-.184 0-.334.075-.334.167 0 .091-.183.166-.406.166-.224 0-.454.075-.51.167-.059.095-.891.167-1.927.167-1.104 0-1.823-.066-1.823-.167 0-.092-.188-.167-.417-.167-.229 0-.417-.056-.417-.126 0-.069-.243-.231-.541-.359-.627-.27-2.459-2.047-2.459-2.386 0-.126-.093-.431-.208-.677l-.208-.449-4.625-.001-4.625-.002v1.334c0 .777.069 1.333.166 1.333.092 0 .167.218.167.484 0 .267.143.773.317 1.125.174.353.524 1.072.777 1.599.253.527.523.959.6.959.077 0 .139.076.139.17 0 .253 2.282 2.496 2.539 2.496.122 0 .329.15.461.334.132.183.374.333.537.333.163 0 .297.075.297.167 0 .091.112.166.25.166.137 0 .25.075.25.167 0 .092.15.167.333.167.183 0 .333.075.333.166 0 .092.15.167.334.167.183 0 .333.058.333.13 0 .17 1.806.703 2.383.703.248 0 .45.075.45.167 0 .092.441.167.99.167.545 0 1.037.075 1.094.166.06.098 1.001.167 2.26.167 1.326 0 2.156-.064 2.156-.167 0-.094.473-.166 1.084-.166.596 0 1.083-.065 1.083-.143 0-.079.465-.192 1.034-.251.569-.06 1.109-.183 1.2-.274.091-.091.339-.166.549-.166.211 0 .384-.075.384-.166 0-.092.11-.167.245-.167s.566-.191.959-.424c.392-.233.844-.467 1.004-.519.16-.053.292-.162.292-.243 0-.081.115-.147.257-.147.785 0 4.087-4.082 4.079-5.042-.002-.16.072-.292.164-.292.091 0 .166-.262.166-.583 0-.321.075-.583.167-.583.103 0 .167-.83.167-2.157 0-1.258-.07-2.2-.167-2.26-.092-.057-.167-.357-.167-.667 0-.31-.075-.61-.166-.666-.092-.057-.167-.249-.167-.427s-.075-.323-.167-.323c-.091 0-.166-.188-.166-.417 0-.229-.069-.417-.154-.417-.084 0-.199-.21-.256-.467-.056-.257-.25-.574-.43-.704-.18-.129-.327-.326-.327-.436 0-.217-1.446-1.726-1.654-1.726-.07 0-.345-.187-.612-.416-.266-.23-.578-.417-.692-.417-.115 0-.209-.075-.209-.167 0-.092-.143-.167-.319-.167-.176 0-.345-.056-.375-.125-.09-.203-1.478-.875-1.808-.875-.167 0-.328-.074-.359-.165-.03-.09-.524-.214-1.097-.273-.573-.06-1.042-.173-1.042-.252 0-.079-.258-.143-.573-.143-.316 0-.62-.075-.677-.167-.056-.091-.361-.166-.676-.166-.316 0-.574-.075-.574-.167 0-.092-.258-.167-.573-.167-.316 0-.62-.075-.677-.166-.056-.092-.361-.167-.676-.167-.316 0-.574-.075-.574-.167 0-.091-.212-.166-.471-.166-.26 0-.841-.188-1.292-.416-.451-.229-.919-.417-1.04-.417-.706-.002-1.618-2.387-1.048-2.739.081-.051.199-.294.261-.542.117-.465.859-1.219 1.201-1.219.107-.001.226-.094.264-.207.136-.41 4.093-.269 4.844.173 1.151.675 1.889 1.628 1.977 2.55l.054.567 4.792.044 4.792.044v-1.419c0-.781-.065-1.419-.144-1.419-.079 0-.186-.365-.239-.81-.091-.769-.985-2.71-1.302-2.829-.082-.031-.149-.153-.149-.273 0-.242-1.88-2.255-2.106-2.255-.079 0-.362-.188-.628-.417-.266-.229-.542-.416-.613-.416-.071 0-.234-.106-.363-.234-.247-.247-1.632-.766-2.045-.766-.135 0-.245-.075-.245-.167 0-.092-.22-.167-.49-.167-.269 0-.536-.075-.593-.166-.057-.092-.399-.167-.76-.167s-.657-.075-.657-.167c0-.096-.527-.166-1.25-.166-.722 0-1.25-.071-1.25-.167 0-.096-.524-.167-1.24-.167-.682 0-1.286.075-1.343.167m74.667 0c-.057.092-.661.167-1.344.167-.715 0-1.24.07-1.24.166 0 .092-.3.167-.666.167-.367 0-.667.075-.667.167 0 .091-.263.166-.583.166-.321 0-.584.075-.584.167 0 .092-.187.167-.415.167-.475 0-1.751.514-1.751.706 0 .07-.15.127-.334.127-.183 0-.333.075-.333.167 0 .091-.15.166-.333.166-.184 0-.334.075-.334.167 0 .092-.112.167-.248.167-.137 0-.343.15-.457.333-.115.183-.34.333-.501.333-.162 0-.294.07-.294.156 0 .085-.162.207-.36.269-.695.221-3.973 3.72-3.973 4.241 0 .144-.15.369-.333.501-.184.132-.334.336-.334.453 0 .118-.075.214-.166.214-.092 0-.167.15-.167.333 0 .183-.075.333-.167.333-.091 0-.166.15-.166.334 0 .183-.075.333-.167.333-.092 0-.167.15-.167.333 0 .184-.075.334-.166.334-.092 0-.167.183-.167.406 0 .224-.072.452-.159.506-.087.054-.21.546-.271 1.093-.062.547-.178.995-.258.995-.08 0-.145.375-.145.833 0 .458-.075.833-.167.833-.105 0-.167 1.191-.167 3.24 0 1.981.065 3.281.167 3.344.092.056.167.473.167.926 0 .453.075.824.166.824.092 0 .167.202.167.45 0 .577.533 2.383.704 2.383.071 0 .129.188.129.417 0 .229.075.416.167.416.092 0 .167.15.167.334 0 .183.075.333.166.333.092 0 .167.116.167.257 0 .141.15.418.333.615.184.197.334.456.334.576 0 .12.075.219.166.219.092 0 .167.1.167.224 0 .781 4.191 4.721 5.542 5.209.16.058.291.154.291.212 0 .059.411.294.912.523.502.228.915.471.917.54.003.069.15.125.328.125.178 0 .37.075.427.167.056.091.286.166.51.166.223 0 .406.069.406.154 0 .084.488.205 1.084.269.595.064 1.083.182 1.083.263 0 .081.45.148 1 .148.556 0 1 .074 1 .166 0 .104.941.167 2.49.167 1.48 0 2.532-.068 2.593-.167.057-.091.586-.166 1.177-.166.59 0 1.073-.065 1.073-.144 0-.079.411-.185.912-.237a7.949 7.949 0 0 0 2.812-.808c.353-.171.784-.311.959-.311.174 0 .317-.075.317-.167 0-.092.15-.167.334-.167.183 0 .333-.075.333-.166 0-.092.112-.167.25-.167.137 0 .25-.063.25-.139 0-.077.394-.339.876-.583.854-.432 1.936-1.27 2.726-2.111 1.233-1.314 1.731-1.949 1.731-2.209 0-.16.075-.291.167-.291.092 0 .167-.113.167-.25 0-.138.066-.25.147-.25.201 0 .341-.594.234-1-.048-.185-.227-.334-.401-.334-.172 0-.315-.056-.316-.125-.001-.068-.489-.35-1.083-.625-.595-.275-1.081-.542-1.081-.594 0-.051-.263-.196-.584-.322-.321-.126-.583-.29-.583-.365 0-.074-.15-.135-.333-.135-.184 0-.334-.075-.334-.167 0-.092-.15-.167-.333-.167-.183 0-.333-.069-.333-.153 0-.084-.225-.203-.5-.263-.275-.061-.5-.179-.5-.264 0-.084-.113-.153-.25-.153-.138 0-.25-.075-.25-.167 0-.294-.838-.184-.952.125-.264.715-2.35 2.709-2.835 2.709-.117 0-.213.075-.213.166 0 .092-.15.167-.334.167-.183 0-.333.075-.333.167 0 .091-.15.166-.333.166-.184 0-.334.075-.334.167 0 .092-.187.167-.416.167-.229 0-.417.075-.417.166 0 .092-.3.167-.667.167-.366 0-.666.075-.666.167 0 .102-.803.166-2.074.166-1.202 0-2.117-.07-2.176-.166-.057-.092-.399-.167-.76-.167s-.657-.075-.657-.167c0-.091-.135-.166-.3-.166-.373 0-1.197-.373-1.199-.542 0-.069-.119-.125-.263-.125-.144 0-.374-.113-.512-.25a.935.935 0 0 0-.571-.25c-.177 0-.322-.073-.322-.162 0-.09-.337-.5-.75-.913-.412-.412-.75-.81-.75-.884 0-.074-.15-.242-.333-.374-.183-.132-.333-.374-.333-.537 0-.163-.065-.297-.145-.297-.079 0-.22-.356-.311-.791-.092-.436-.222-.923-.29-1.083-.116-.275.63-.293 13.77-.333l13.892-.043-.023-3.416c-.024-3.478-.14-4.958-.409-5.242-.083-.087-.151-.406-.151-.708 0-.303-.075-.55-.167-.55-.091 0-.166-.151-.166-.336 0-.324-.06-.485-.474-1.287-.106-.205-.193-.486-.193-.625s-.075-.252-.167-.252c-.091 0-.166-.15-.166-.334 0-.183-.057-.334-.125-.335-.069 0-.273-.338-.454-.75-.181-.411-.375-.748-.431-.748-.055 0-.207-.204-.337-.453-.401-.768-2.539-3.066-3.299-3.547a4.893 4.893 0 0 1-.613-.458c-.12-.115-.281-.209-.359-.209-.078 0-.25-.15-.382-.333-.132-.183-.374-.333-.537-.333-.163 0-.297-.075-.297-.167 0-.092-.143-.167-.319-.167-.176 0-.345-.059-.375-.131-.102-.241-1.916-1.035-2.364-1.035-.243 0-.442-.075-.442-.167 0-.092-.183-.167-.406-.167-.224 0-.454-.075-.51-.166-.057-.092-.436-.167-.844-.167-.407 0-.74-.075-.74-.167 0-.096-.527-.166-1.25-.166-.722 0-1.25-.071-1.25-.167 0-.098-.58-.167-1.406-.167-.774 0-1.454.075-1.51.167m55.916-.013c0 .113-.466.18-1.25.18-.722 0-1.25.07-1.25.166 0 .092-.3.167-.666.167-.367 0-.667.075-.667.167 0 .091-.263.166-.583.166-.321 0-.584.067-.584.148 0 .082-.276.2-.613.264-.576.108-2.037.708-2.22.913-.046.051-.29.199-.542.329-.252.13-.458.298-.458.374 0 .077-.133.139-.297.139-.163 0-.404.15-.536.333-.132.184-.334.334-.449.334-.276 0-3.718 3.436-3.718 3.712 0 .118-.15.322-.333.454-.184.132-.334.337-.334.454 0 .117-.061.213-.135.213-.166 0-.698 1.084-.698 1.422 0 .135-.075.245-.167.245-.091 0-.166.15-.166.333 0 .183-.075.333-.167.333-.092 0-.167.146-.167.324 0 .178-.075.37-.166.426-.092.057-.167.249-.167.427s-.075.323-.167.323c-.091 0-.166.221-.166.49 0 .27-.075.537-.167.594-.092.056-.167.346-.167.643 0 .297-.068.611-.152.698-.507.526-.502 8.742.005 8.742.081 0 .147.3.147.667 0 .366.075.666.167.666.092 0 .167.189.167.419 0 .231.066.549.147.709.142.28.245.518.713 1.664.121.298.278.542.347.542.069 0 .126.11.126.244 0 .338.532 1.422.698 1.422.074 0 .135.096.135.214 0 .117.15.321.334.453.183.132.333.341.333.465 0 .506 4.19 4.368 4.739 4.368.143 0 .261.063.261.139 0 .076.206.245.458.375.252.129.496.273.542.319.227.228 1.571.834 1.849.834.175 0 .318.075.318.167 0 .091.172.166.383.166.211 0 .458.075.549.166.091.091.631.214 1.2.274.569.059 1.034.172 1.034.251 0 .078.563.143 1.25.143.723 0 1.25.07 1.25.166s.5.167 1.167.167 1.167-.071 1.167-.167c0-.094.472-.166 1.083-.166.596 0 1.083-.065 1.083-.143 0-.079.466-.192 1.035-.251.569-.06 1.109-.183 1.2-.274.091-.091.338-.166.549-.166.211 0 .383-.075.383-.166 0-.092.15-.167.333-.167.184 0 .334-.075.334-.167 0-.091.15-.166.333-.166.183 0 .333-.075.333-.167 0-.092.113-.167.25-.167.138 0 .25-.062.25-.138 0-.076.207-.245.459-.375.763-.394 2.041-1.537 2.041-1.826 0-.088.073-.161.162-.161.091 0 .181.811.208 1.875l.047 1.875 4.958.044 4.959.045V20.833h-10v1.834c0 1.111-.066 1.833-.167 1.833-.092 0-.167-.099-.167-.22 0-.21-.727-.947-.934-.947-.054 0-.309-.225-.566-.5-.257-.275-.587-.5-.733-.5-.147 0-.267-.061-.267-.135 0-.206-1.261-.836-1.919-.959-.319-.06-.581-.176-.581-.258 0-.081-.183-.148-.406-.148-.224 0-.454-.075-.51-.166-.057-.092-.361-.167-.677-.167-.315 0-.573-.069-.573-.153 0-.084-.544-.198-1.209-.252-3.37-.277-3.625-.285-3.625-.108m129.5.013c-.137.089-.793.163-1.458.164-.693.002-1.208.074-1.208.169 0 .092-.3.167-.667.167-.367 0-.667.075-.667.167 0 .091-.262.166-.583.166-.321 0-.583.066-.583.145 0 .08-.268.189-.596.242-.703.114-1.571.475-1.571.654 0 .069-.15.126-.333.126-.184 0-.334.075-.334.167 0 .091-.15.166-.333.166-.183 0-.333.075-.333.167 0 .092-.099.167-.219.167s-.379.15-.576.333c-.197.183-.404.333-.46.333-.056 0-.201.094-.322.209a7.538 7.538 0 0 1-.697.538c-1.466 1.016-4.56 4.819-4.56 5.607 0 .08-.075.146-.166.146-.092 0-.167.15-.167.334 0 .183-.075.333-.167.333-.091 0-.166.188-.166.417 0 .229-.059.416-.131.416-.071 0-.226.357-.344.792-.118.435-.287.926-.375 1.09-.089.165-.208.898-.265 1.631-.056.733-.166 1.371-.244 1.42-.185.114-.185 5.734.001 5.734.078 0 .192.654.254 1.454.061.799.185 1.527.274 1.616.09.09.163.336.163.547 0 .211.075.383.167.383.091 0 .166.225.166.5s.075.5.167.5c.092 0 .167.15.167.333 0 .184.061.334.135.334.075 0 .239.262.365.583.126.321.29.583.364.583.075 0 .136.15.136.334 0 .183.067.333.148.333.082 0 .196.188.253.417.058.229.179.416.269.416.089 0 .163.095.163.21 0 .748 4.694 5.124 5.496 5.124a.17.17 0 0 1 .171.166c0 .092.15.167.333.167.183 0 .333.075.333.167 0 .091.15.166.334.166.183 0 .333.075.333.167 0 .092.113.167.25.167s.25.075.25.166c0 .092.146.167.323.167.178 0 .37.075.427.167.057.091.271.166.477.166.205 0 .452.08.549.177.097.097.6.22 1.117.273.517.053.94.161.94.24 0 .079.488.144 1.084.144.611 0 1.083.072 1.083.166 0 .104.913.167 2.407.167 1.425 0 2.449-.068 2.51-.167.056-.091.586-.166 1.176-.166.591 0 1.074-.066 1.074-.145 0-.08.523-.197 1.163-.26.639-.063 1.206-.185 1.259-.272.054-.086.244-.157.423-.157.315 0 .477-.06 1.277-.474.205-.106.487-.192.625-.192.139 0 .253-.075.253-.167 0-.092.15-.167.333-.167.183 0 .333-.075.333-.166 0-.092.113-.167.25-.167.138 0 .25-.075.25-.167 0-.091.15-.166.334-.166.183 0 .333-.061.333-.136 0-.075.244-.258.542-.407.901-.451 2.667-2.036 3.375-3.027.183-.257.427-.566.541-.687.115-.121.209-.321.209-.445 0-.123.15-.333.333-.465.183-.132.333-.336.333-.453 0-.118.075-.214.167-.214.248 0 .202-.488-.071-.762-.131-.131-.356-.238-.5-.238-.144 0-.262-.067-.262-.15 0-.082-.338-.289-.75-.458-.412-.17-.749-.365-.75-.433 0-.069-.15-.125-.334-.125-.183 0-.333-.075-.333-.167 0-.092-.15-.167-.333-.167-.184 0-.334-.075-.334-.166 0-.092-.112-.167-.25-.167-.137 0-.25-.075-.25-.167 0-.091-.15-.166-.333-.166-.183 0-.333-.057-.333-.125 0-.069-.487-.35-1.082-.625-.594-.275-1.082-.557-1.083-.625-.005-.301-.87-.112-.954.208-.048.183-.148.333-.223.333-.075 0-.189.169-.255.375-.136.428-1.199 1.459-1.505 1.459-.112 0-.229.063-.259.141-.079.201-1.603 1.025-1.895 1.025-.134 0-.244.075-.244.167 0 .092-.183.167-.407.167-.224 0-.453.075-.51.166-.057.092-.361.167-.677.167-.315 0-.573.075-.573.167 0 .102-.806.166-2.083.166-1.278 0-2.084-.064-2.084-.166 0-.092-.337-.167-.75-.167-.412 0-.75-.059-.75-.13 0-.072-.337-.23-.75-.352-.412-.122-.75-.288-.75-.37 0-.081-.118-.148-.262-.148-.144 0-.374-.113-.511-.25-.138-.138-.379-.25-.535-.25-.157 0-.395-.161-.53-.358a9.156 9.156 0 0 0-.787-.911c-.298-.304-.541-.596-.541-.649 0-.053-.15-.257-.334-.454-.183-.197-.333-.456-.333-.576 0-.12-.075-.219-.167-.219-.091 0-.166-.225-.166-.5s-.075-.5-.167-.5c-.092 0-.167-.262-.167-.583v-.583h27.537l-.06-4.326c-.044-3.166-.116-4.381-.269-4.533-.114-.114-.208-.418-.208-.675 0-.256-.075-.466-.166-.466-.092 0-.167-.225-.167-.5s-.075-.5-.167-.5c-.091 0-.166-.188-.166-.417 0-.229-.075-.417-.167-.417-.092 0-.167-.15-.167-.333 0-.183-.075-.333-.166-.333-.092 0-.167-.15-.167-.334 0-.183-.075-.333-.167-.333-.091 0-.166-.15-.166-.333 0-.184-.067-.334-.149-.334-.082 0-.196-.187-.253-.416-.058-.229-.178-.417-.268-.417-.09 0-.165-.094-.167-.208-.003-.232-.591-.993-1.539-1.993-.344-.363-.719-.791-.833-.952-.114-.161-.545-.511-.956-.778-.766-.498-1.206-.827-1.592-1.194a.819.819 0 0 0-.481-.208c-.144 0-.262-.063-.262-.14 0-.216-2.583-1.36-3.069-1.36-.237 0-.431-.075-.431-.167 0-.092-.183-.167-.407-.167-.224 0-.453-.075-.51-.166-.057-.092-.394-.167-.75-.167s-.693-.075-.75-.167c-.057-.091-.661-.166-1.343-.166-.716 0-1.24-.071-1.24-.167 0-.216-2.5-.216-2.834 0m43.25 0c-.056.092-.437.167-.845.167s-.892.075-1.074.166l-.662.334c-.182.091-.444.166-.583.166-.139 0-.252.075-.252.167 0 .092-.134.167-.297.167-.385 0-1.034.504-2.282 1.77-1.514 1.538-2.088 2.354-2.088 2.971 0 .142-.075.259-.167.259-.091 0-.166.112-.166.25 0 .137-.075.25-.167.25-.092 0-.167.15-.167.333 0 .183-.075.333-.166.333-.106 0-.167-1.194-.167-3.25v-3.25h-10v36.834h10V50.26c0-4.758.06-7.444.167-7.51.093-.057.166-.832.166-1.75 0-.906.066-1.688.147-1.738.081-.05.2-.729.265-1.51.065-.78.187-1.419.27-1.419.083 0 .152-.183.152-.406 0-.224.075-.454.166-.51.092-.057.167-.286.167-.51 0-.224.075-.407.167-.407.091 0 .166-.15.166-.333 0-.184.075-.334.167-.334.092 0 .167-.118.167-.262 0-.144.093-.356.208-.472a7.46 7.46 0 0 0 .542-.673c.594-.824 1.551-1.759 1.8-1.759.133 0 .336-.113.45-.25a.76.76 0 0 1 .51-.25c.167 0 .35-.075.406-.167.057-.092.324-.167.594-.167.269 0 .49-.075.49-.166 0-.103.83-.167 2.156-.167 1.259 0 2.2.069 2.26.167.057.091.361.166.677.166.315 0 .573.075.573.167 0 .092.183.167.407.167.224 0 .453.075.51.166.425.688 1.25-.207 1.25-1.356 0-.343.075-.67.167-.727.091-.057.166-.432.166-.833 0-.402.07-.774.155-.826.085-.052.207-.769.271-1.593.065-.824.183-1.498.262-1.498.08 0 .145-.506.144-1.125-.001-1.186-.278-1.542-1.198-1.542-.165 0-.3-.075-.3-.166 0-.092-.225-.167-.5-.167s-.5-.075-.5-.167c0-.094-.469-.166-1.074-.166-.59 0-1.12-.075-1.176-.167-.057-.092-.582-.167-1.167-.167-.585 0-1.11.075-1.167.167M108.667 39.252v18.42l5.041-.045 5.042-.044.042-18.375.043-18.375h-10.168v18.419M188 41.407c0 13.536-.057 20.609-.167 20.676-.091.057-.166.361-.166.677 0 .315-.075.573-.167.573-.092 0-.167.108-.167.239 0 .465-1.027 1.899-1.433 2.001-.22.055-.4.174-.4.264 0 .089-.15.163-.333.163-.184 0-.334.075-.334.167 0 .091-.37.166-.823.166-.453 0-.87.075-.927.167-.061.099-1.113.167-2.593.167H178v9h5.083c3.278 0 5.084-.06 5.084-.167 0-.092.3-.167.666-.167.367 0 .667-.075.667-.166 0-.092.199-.167.442-.167.447 0 2.262-.795 2.364-1.036.03-.072.147-.131.259-.131.112 0 .473-.243.804-.541l.907-.817c.565-.507 1.241-1.331 1.427-1.738.101-.222.243-.404.316-.404.073 0 .182-.262.242-.583.06-.321.176-.583.258-.583.081 0 .148-.15.148-.334 0-.183.075-.333.166-.333.092 0 .167-.225.167-.5s.075-.5.167-.5c.091 0 .166-.263.166-.583 0-.321.075-.584.167-.584.092 0 .167-.295.167-.656 0-.362.075-.704.166-.76.092-.057.167-.732.167-1.5 0-.769.075-1.444.167-1.5.109-.068.166-7.113.166-20.594v-20.49H188v20.574m-21.167-12.74c0 .091.263.166.584.166.32 0 .583.075.583.167 0 .092.225.167.5.167s.5.075.5.166c0 .092.112.167.25.167.137 0 .25.057.25.126s.208.218.462.331c.689.304 2.371 1.992 2.371 2.378 0 .091.075.165.167.165.092 0 .167.112.167.25 0 .137.075.25.166.25.092 0 .167.146.167.323 0 .178.075.37.167.427.091.057.166.249.166.427 0 .177.075.323.167.323.092 0 .167.3.167.667v.666h-17.834v-.406c0-.224.071-.451.157-.504.087-.054.209-.444.273-.868.064-.424.237-.916.385-1.093l.643-.768c.207-.244.375-.504.375-.577.001-.173.78-.95.953-.95.074 0 .337-.188.584-.417.247-.229.565-.417.706-.417.142 0 .258-.075.258-.166 0-.092.15-.167.333-.167.183 0 .333-.075.333-.167 0-.091.188-.166.417-.166.229 0 .417-.075.417-.167 0-.092.3-.167.666-.167.367 0 .667-.075.667-.166 0-.102.75-.167 1.917-.167 1.166 0 1.916.065 1.916.167m185.5 0c0 .091.189.166.419.166.231 0 .549.07.709.156.159.086.533.254.831.374.298.12.541.275.541.344 0 .07.112.126.249.126.277 0 .901.48 1.664 1.278.93.974 1.192 1.313 1.431 1.853.131.295.294.536.364.536.069 0 .126.225.126.5s.067.5.149.5c.082 0 .178.3.213.667l.063.666h-17.946l.117-.791c.064-.436.181-.817.26-.848.079-.03.144-.199.144-.375 0-.175.056-.319.126-.319.069 0 .232-.241.363-.536.241-.544.499-.869 1.46-1.842.653-.66.842-.807 1.426-1.108.252-.131.458-.299.458-.375 0-.077.15-.139.333-.139.184 0 .334-.075.334-.167 0-.091.187-.166.416-.166.23 0 .417-.075.417-.167 0-.092.3-.167.667-.167.366 0 .666-.075.666-.166 0-.102.778-.167 2-.167 1.223 0 2 .065 2 .167m-85.75 1c.057.091.474.166.927.166.453 0 .823.075.823.167 0 .092.142.167.315.167.172 0 .529.112.791.249.263.137.592.249.733.25.14 0 .363.151.495.334.132.183.373.333.536.333.164 0 .297.073.297.163 0 .211 1.46 1.671 1.671 1.671.089 0 .162.15.162.333 0 .183.058.333.128.333.154 0 .706 1.237.706 1.585 0 .137.066.249.148.249.357 0 .689 5.085.376 5.742-.09.188-.296.81-.459 1.383-.162.573-.356 1.041-.43 1.041-.075 0-.135.134-.135.297 0 .163-.15.405-.334.537-.183.132-.333.357-.333.5 0 .143-.163.37-.363.505-.199.134-.592.488-.873.786-.282.298-.572.542-.645.542-.073 0-.294.15-.491.333-.197.184-.456.334-.576.334-.12 0-.219.07-.219.156s-.338.207-.752.269c-.413.062-.793.179-.843.261-.05.081-.42.147-.821.147-.402 0-.777.075-.834.167-.128.207-1.625.221-1.841.017-.087-.083-.459-.187-.825-.233-.769-.095-2.128-.46-2.25-.604-.046-.054-.306-.21-.579-.347-.94-.475-3.088-2.54-3.088-2.97 0-.074-.131-.283-.292-.465-.445-.507-.708-1.025-.708-1.396 0-.185-.075-.336-.167-.336-.091 0-.166-.262-.166-.583 0-.321-.075-.583-.167-.583-.102 0-.167-.806-.167-2.084 0-1.277.065-2.083.167-2.083.092 0 .167-.225.167-.5s.075-.5.166-.5c.092 0 .167-.187.167-.417 0-.229.075-.416.167-.416.091 0 .166-.15.166-.334 0-.183.075-.333.167-.333.092 0 .167-.116.167-.258 0-.141.187-.445.416-.674.23-.229.417-.473.417-.543 0-.221 1.119-1.358 1.336-1.358.115 0 .33-.135.478-.3.148-.166.569-.432.936-.592.367-.16.797-.363.956-.45.159-.087.436-.158.615-.158s.372-.075.429-.167c.057-.092.436-.167.843-.167s.74-.075.74-.166c0-.092.371-.167.824-.167.453 0 .87.075.926.167m42.667 0c.057.091.436.166.843.166s.74.075.74.167c0 .092.207.169.459.172.252.003.604.115.782.25.177.135.459.245.625.245.165 0 .301.075.301.166 0 .092.117.167.26.167.339 0 2.907 2.568 2.907 2.907 0 .143.075.26.166.26.092 0 .167.135.167.301 0 .166.11.447.245.625.134.178.247.488.25.689.003.201.08.411.172.468.091.057.166.436.166.843s.075.74.167.74c.097 0 .167.556.167 1.334 0 .777-.07 1.333-.167 1.333-.092 0-.167.337-.167.75 0 .412-.075.75-.166.75-.092 0-.167.225-.167.5s-.072.5-.159.5c-.088 0-.208.262-.269.583-.06.321-.176.584-.257.584-.082 0-.148.103-.148.229 0 .314-2.605 2.937-2.916 2.937-.138 0-.251.075-.251.167 0 .092-.15.167-.333.167-.184 0-.334.068-.334.152 0 .083-.299.202-.665.264-.367.062-.709.181-.76.265-.052.084-.423.152-.825.152-.401 0-.776.075-.833.167-.057.091-.469.166-.917.166-.447 0-.86-.075-.916-.166-.057-.092-.432-.167-.834-.167-.401 0-.771-.066-.821-.147-.05-.082-.43-.199-.843-.261-.414-.062-.752-.183-.752-.269 0-.086-.113-.156-.25-.156-.138 0-.25-.063-.25-.139 0-.076-.206-.245-.457-.375-.252-.13-.698-.461-.991-.736l-.752-.701c-.316-.291-.52-.574-.787-1.091-.13-.252-.299-.458-.375-.458-.076 0-.138-.15-.138-.334 0-.183-.075-.333-.167-.333-.092 0-.167-.146-.167-.323 0-.178-.075-.37-.166-.427-.092-.057-.167-.286-.167-.51 0-.224-.075-.407-.167-.407-.091 0-.166-.375-.166-.833 0-.458-.075-.833-.167-.833-.094 0-.167-.469-.167-1.074 0-.59.075-1.12.167-1.176.092-.057.167-.436.167-.844 0-.407.075-.74.166-.74.092 0 .167-.135.167-.3 0-.372.373-1.197.542-1.198.068-.001.125-.152.125-.335 0-.183.075-.333.166-.333.092 0 .167-.107.167-.237 0-.277 2.222-2.597 2.487-2.597.099 0 .18-.075.18-.166 0-.092.112-.167.25-.167.137 0 .25-.072.25-.159 0-.088.262-.208.583-.269.321-.06.583-.176.583-.257 0-.082.225-.148.5-.148s.5-.075.5-.167c0-.092.375-.167.834-.167.458 0 .833-.075.833-.166 0-.092.371-.167.823-.167.453 0 .87.075.927.167m-84.956.322c.159.086.758.287 1.331.448.573.161 1.042.354 1.042.428 0 .074.112.135.25.135.137 0 .25.075.25.167 0 .091.112.166.25.166.137 0 .25.063.25.139 0 .076.206.244.458.374.517.265 1.091.85 1.503 1.529.152.252.336.458.408.458.072 0 .132.094.134.209.002.114.151.396.33.625.179.229.328.548.33.708.002.16.078.292.17.292.092 0 .167.218.167.486 0 .267.09.516.201.553.146.049.202.737.202 2.461 0 1.724-.056 2.412-.202 2.46-.111.037-.201.286-.201.554 0 .267-.075.486-.167.486-.092 0-.167.187-.167.416 0 .23-.075.417-.166.417-.092 0-.167.112-.167.25 0 .137-.075.25-.167.25-.091 0-.166.112-.166.25 0 .137-.07.25-.156.25-.085 0-.205.157-.266.35-.124.39-1.323 1.65-1.571 1.65-.087 0-.346.188-.576.417-.229.229-.532.416-.674.416-.141 0-.257.075-.257.167 0 .092-.113.167-.25.167-.138 0-.25.066-.25.147 0 .081-.412.199-.914.262-.503.063-.958.184-1.01.269-.124.2-4.36.204-4.483.004-.052-.083-.469-.203-.927-.266-.458-.063-.833-.182-.833-.265 0-.083-.15-.151-.333-.151-.184 0-.334-.075-.334-.167 0-.092-.133-.167-.296-.167-.163 0-.405-.15-.537-.333-.132-.183-.302-.333-.378-.333-.075 0-.317-.169-.536-.375a21.536 21.536 0 0 0-.904-.792c-.278-.229-.508-.469-.51-.533-.003-.064-.268-.552-.588-1.084-.321-.531-.583-1.098-.584-1.258 0-.16-.075-.292-.167-.292-.091 0-.166-.225-.166-.5s-.075-.5-.167-.5c-.103 0-.167-.833-.167-2.166 0-1.334.064-2.167.167-2.167.092 0 .167-.225.167-.5s.075-.5.166-.5c.092 0 .167-.181.167-.403 0-.221.056-.428.125-.458.184-.082.708-1.07.708-1.336 0-.126.162-.34.359-.475.197-.134.682-.563 1.079-.953.396-.39.781-.708.854-.708.074 0 .243-.15.375-.334.132-.183.374-.333.537-.333.163 0 .296-.075.296-.167 0-.091.132-.167.292-.167.16-.001.506-.113.769-.25s.652-.249.865-.249c.213 0 .434-.075.491-.167.131-.212 4.151-.222 4.544-.011" fill="#2f2f2e"/><path d="M25.765 1.309c-.048.078-.596.189-1.218.247-1.134.106-1.416.153-1.88.313-1.234.425-2.509.798-2.731.798-.148 0-.269.075-.269.166 0 .092-.15.167-.334.167-.183 0-.333.075-.333.167 0 .091-.187.166-.417.166-.229 0-.416.075-.416.167 0 .092-.15.167-.334.167-.183 0-.333.075-.333.166 0 .092-.12.167-.266.167-.294 0-1.285.511-1.373.708-.03.069-.129.125-.22.125-.09 0-.491.225-.891.5s-.779.5-.844.5c-.064 0-.238.132-.387.292-.148.16-.47.404-.714.542-1.355.763-4.715 4.13-5.942 5.954-.233.346-.484.654-.56.685-.075.03-.136.129-.136.22 0 .09-.225.491-.5.891-.275.399-.5.8-.5.891 0 .09-.057.189-.125.22C4.844 15.616 4 17.266 4 17.564c0 .148-.075.269-.167.269-.091 0-.166.188-.166.417 0 .229-.075.417-.167.417-.092 0-.167.113-.167.252s-.086.42-.192.625c-.415.802-.474.963-.474 1.287 0 .185-.075.336-.167.336-.092 0-.167.258-.167.573 0 .316-.075.62-.166.677-.092.056-.167.356-.167.666 0 .31-.061.602-.135.647-.411.254-.411 11.619 0 11.873.074.046.135.379.135.74s.075.657.167.657c.091 0 .166.221.166.49 0 .27.075.537.167.593.092.057.167.324.167.594 0 .269.075.49.166.49.092 0 .167.145.167.323 0 .178.075.37.167.427.091.056.166.248.166.426s.075.324.167.324c.092 0 .167.145.167.323 0 .178.075.37.166.427.092.056.167.249.167.427 0 .379.836 1.989 1.033 1.989.073 0 .134.15.134.334 0 .183.075.333.166.333a.17.17 0 0 1 .167.174c0 .095.15.334.333.531.184.197.334.456.334.576 0 .121.056.219.125.219.068 0 .35.357.625.792.659 1.043 4.207 4.875 4.514 4.875.062 0 .402.262.758.583.355.321.741.583.858.583.117 0 .321.15.453.334.132.183.322.333.422.333.1 0 .331.131.513.292.689.606 3.778 2.208 4.257 2.208.169 0 .308.075.308.167 0 .091.15.166.333.166.184 0 .334.075.334.167 0 .092.187.167.416.167.23 0 .417.075.417.166 0 .092.213.167.472.167.26 0 .526.054.592.119.201.201 1.625.53 2.816.649.622.063 1.17.178 1.218.256.049.079.819.143 1.712.143s1.699.075 1.791.167c.343.343 35.301.134 35.368-.211.039-.202-1.698-2.048-5.54-5.886-5.829-5.825-5.75-5.735-5.346-6.07.138-.114.25-.277.25-.361 0-.084.15-.314.334-.511.183-.197.333-.456.333-.576 0-.121.075-.219.167-.219.091 0 .166-.098.166-.219 0-.12.15-.379.334-.576.183-.197.333-.473.333-.615 0-.141.075-.257.167-.257.091 0 .166-.135.166-.301 0-.166.11-.447.245-.625s.247-.453.25-.61c.003-.158.155-.554.339-.88.183-.327.333-.742.333-.922 0-.181.075-.328.167-.328.091 0 .166-.225.166-.5s.075-.5.167-.5c.092 0 .167-.183.167-.407 0-.224.075-.453.166-.51.092-.057.167-.384.167-.727 0-.342.068-.694.151-.781.502-.529.804-8.106.402-10.075a93.215 93.215 0 0 1-.48-2.629c-.065-.392-.183-.753-.262-.802-.079-.049-.144-.31-.144-.579 0-.27-.075-.49-.167-.49-.092 0-.167-.225-.167-.5s-.075-.5-.166-.5c-.092 0-.167-.188-.167-.417 0-.229-.075-.417-.167-.417-.091 0-.166-.145-.166-.323 0-.178-.075-.37-.167-.427-.092-.056-.167-.217-.167-.357 0-.346-1.522-3.393-1.695-3.393-.076 0-.138-.112-.138-.25 0-.137-.057-.25-.126-.25s-.226-.226-.349-.503c-.123-.277-.31-.598-.416-.713a23.629 23.629 0 0 1-.773-.954l-.834-1.07c-.904-1.16-4.189-4.18-4.898-4.505a2.315 2.315 0 0 1-.624-.458c-.148-.163-.354-.297-.458-.297-.104 0-.189-.075-.189-.166 0-.092-.112-.167-.25-.167-.137 0-.25-.075-.25-.167 0-.091-.112-.166-.25-.166-.137 0-.25-.075-.25-.167 0-.092-.15-.167-.333-.167-.183 0-.333-.061-.333-.137 0-.153-1.816-1.029-2.133-1.029-.11 0-.201-.075-.201-.167 0-.092-.15-.167-.333-.167-.183 0-.333-.075-.333-.166 0-.092-.183-.167-.407-.167-.224 0-.453-.075-.51-.167-.057-.091-.249-.166-.427-.166-.177 0-.323-.075-.323-.167 0-.092-.225-.167-.5-.167s-.5-.075-.5-.166c0-.092-.23-.167-.511-.167s-.652-.076-.825-.168c-.173-.093-.883-.216-1.578-.275-.695-.059-1.303-.171-1.351-.249-.115-.185-8.355-.185-8.47.001m4.978 11.115c.179.136 1.379 2.365 2.667 4.953l2.34 4.706.917.111c.839.102 2.917.389 5.916.817.642.092 1.648.233 2.235.315 3.138.436 2.92 1.14-1.798 5.802l-3.833 3.789.4 2.25c.221 1.237.481 2.737.579 3.333.226 1.377.451 2.595.687 3.72.274 1.307-.193 2.113-1.224 2.113-.294 0-3.036-1.36-6.046-2.998-.458-.249-1.443-.777-2.188-1.172l-1.354-.718-1.062.55c-.584.303-1.512.792-2.062 1.088-.55.296-1.75.935-2.667 1.419-.917.485-2.056 1.095-2.533 1.356-1.506.827-3.364-.01-2.636-1.188.062-.1.189-.648.281-1.218l.305-1.869c.293-1.799.955-5.594 1.092-6.262.077-.377-.265-.776-2.863-3.333-4.619-4.548-4.729-4.667-4.729-5.108 0-.949.531-1.349 2.066-1.555 1.042-.139 2.195-.302 5.267-.745a107.97 107.97 0 0 1 2.667-.355c.846-.094 1.5-.419 1.5-.745 0-.323 4.243-8.705 4.552-8.993.407-.38 1.069-.407 1.524-.063" fill="#f16a1d"/><path d="M29.219 12.487c-.309.288-4.552 8.67-4.552 8.993 0 .326-.654.651-1.5.745-.505.056-1.705.216-2.667.355-3.072.443-4.225.606-5.267.745-1.535.206-2.066.606-2.066 1.555 0 .441.11.56 4.729 5.108 2.598 2.557 2.94 2.956 2.863 3.333-.137.668-.799 4.463-1.092 6.262l-.305 1.869c-.092.57-.219 1.118-.281 1.218-.728 1.178 1.13 2.015 2.636 1.188.477-.261 1.616-.871 2.533-1.356.917-.484 2.117-1.123 2.667-1.419.55-.296 1.478-.785 2.062-1.088l1.062-.55 1.354.718c.745.395 1.73.923 2.188 1.172 3.01 1.638 5.752 2.998 6.046 2.998 1.031 0 1.498-.806 1.224-2.113a85.602 85.602 0 0 1-.687-3.72c-.098-.596-.358-2.096-.579-3.333l-.4-2.25 3.833-3.789c4.718-4.662 4.936-5.366 1.798-5.802-.587-.082-1.593-.223-2.235-.315a400.622 400.622 0 0 0-5.916-.817l-.917-.111-2.34-4.706c-2.683-5.394-3.112-5.895-4.191-4.89m1.183.007c.344.131.863 1.053 2.758 4.898 1.285 2.606 2.439 4.777 2.566 4.826.127.049.597.135 1.044.192.447.058 1.282.174 1.856.26.573.086 1.567.232 2.208.326l2.374.348c2.746.402 3.144.516 3.306.943.288.756-.043 1.175-3.792 4.806-3.537 3.428-3.747 3.664-3.667 4.146.137.829.437 2.614.591 3.511 1.186 6.912 1.193 7.117.284 7.345-.36.09-2.114-.574-2.43-.921-.046-.05-.721-.422-1.5-.826-.779-.404-1.904-.995-2.5-1.312-3.325-1.772-3.705-1.916-4.092-1.555-.087.082-1.095.635-2.241 1.229a278.421 278.421 0 0 0-3.25 1.712c-2.813 1.522-3.371 1.762-3.828 1.648-.913-.229-.914-.203.268-7.153.291-1.714.479-2.854.577-3.51l.102-.676-1.976-1.925a2223.53 2223.53 0 0 0-3.779-3.669c-2.672-2.588-2.572-3.246.552-3.661.688-.092 1.7-.233 2.25-.316 1.065-.158 2.554-.371 4.577-.653.683-.095 1.38-.217 1.547-.27.198-.063 1.126-1.752 2.643-4.813 2.129-4.294 2.467-4.849 3.097-5.079.017-.007.222.061.455.149" fill="#f8b996"/></g></svg>