<svg width="1528" height="299" xmlns="http://www.w3.org/2000/svg"><path d="M157.82.5c2.91 11.62 5.78 23.25 8.73 34.86 7.207 28.367 14.433 56.73 21.68 85.09a4.17 4.17 0 0 0 .84 2.08c.92-.55 1-1.54 1.36-2.36 6.78-15.61 16.73-28.52 31.73-37.08A67.25 67.25 0 0 1 252 74.5c13.21-.76 25.94 1.19 38 6.76 6.74 3.12 12.66 7.35 16.13 14.28 2.35 4.69 2.78 9.79 2.78 14.85.073 60.827.073 121.65 0 182.47 0 2.27-.15 4.5-2.61 5.64h-21.23c-2.51-1.19-2.36-3.48-2.36-5.71v-73.8c0-1.1.58-2.69-.54-3.18-.86-.38-1.73 1-2.54 1.71-10.6 8.89-22.41 14.72-36.56 15.29-15.9.65-29.81-3.7-41-15.38a2.32 2.32 0 0 0-2.65-.61c-15.798 4-31.605 7.966-47.42 11.9a54940.652 54940.652 0 0 0-95 23.94c-1.78.45-2.26 0-2.64-1.59-1-4.19-2.12-8.34-3.18-12.52A803333.728 803333.728 0 0 0 2.78 48.39c-.65-2.56-.89-5.28-2.29-7.63v-.46a2.87 2.87 0 0 1 .42-.18C48.337 28.2 95.763 16.273 143.19 4.34c4.74-1.2 9.59-2 14.16-3.83l.47-.01zm-49.35 233.8c5.12-.35 10.35-.46 15.54-1.32 23.32-3.86 48.77-22.27 50.72-53.28.7-11.12-1.05-21.63-6.24-31.49-6-11.48-15.39-19.73-26.44-26.15-10.67-6.2-22.12-10.82-33.2-16.19-8-3.86-16-7.63-23-13.25-12.63-10.18-14.83-25.85-9.62-38.36 8.81-21.12 40.63-25 54.61-8.47 3.55 4.19 6.55 8.76 9.72 13.22a23.23 23.23 0 0 0 5.37 5.69c6.77 4.81 15.26 2.63 18.88-4.85 2.74-5.68 1.4-10.94-1.68-16a47 47 0 0 0-18.75-17.08c-16.88-8.89-34.8-10.81-53.36-7.17a57.56 57.56 0 0 0-25.92 12c-10.69 8.81-16.52 20.23-18.12 33.94-1.87 16.06 1.9 30.41 12.64 42.7a72.92 72.92 0 0 0 23.57 17.58c11.09 5.35 22.42 10.21 33.51 15.57 8.51 4.11 16.41 9.18 22.45 16.69 10.23 12.73 10.79 32 1.05 44.21-7 8.77-16.6 12.36-27.56 12.88-13.24.63-23.89-4.21-31.79-14.93a81.19 81.19 0 0 1-5.67-9c-1.6-2.9-3-5.91-4.79-8.69-3.81-6-10.13-8.65-16.24-7.06-7.9 2-12.35 9.84-10 18.27 2.83 10.32 9.11 18.46 17.28 25.11 13.65 11.18 29.77 14.95 47.04 15.43zm174.23-81.85c-.24-11.75.49-26.33-.32-40.89-.38-6.81-2.9-12.86-8.74-16.83-7.41-5-15.8-6-24.36-4.28-15.13 3.08-26.08 11.76-32.43 25.9a91.61 91.61 0 0 0-6.75 55c1.75 9.61 4.89 18.78 10.67 26.82 7.92 11 18.68 16 32.18 14.62 10.55-1.1 19.45-5.93 27.34-12.88a6.41 6.41 0 0 0 2.45-5.35c-.09-13.06-.03-26.19-.03-42.11h-.01zm1244.81 73.4c-.95 3-3.07 3.74-6 3.62-5.08-.2-10.18 0-15.27-.06-4.21 0-5-.77-5-5v-98.55c0-8.24-1.75-16.09-7-22.74-6.89-8.73-16.16-11.71-26.9-10.43-12.08 1.43-22 7.39-31.08 15.15-1.25 1.07-1.33 2.28-1.33 3.7v110.34c0 7-.56 7.53-7.44 7.53h-13.88c-3.5 0-4.7-1.26-4.81-4.75V11.81c0-5.44 1.13-6.55 6.68-6.55h14.81c3.67 0 4.65 1 4.65 4.68v77.73a15.08 15.08 0 0 0 0 1.85c.11.87-.51 2.1.47 2.5.79.33 1.36-.8 2-1.35a65 65 0 0 1 12.46-9.13c10.18-5.63 21.15-7.68 32.68-7.49 8.22.14 16.08 1.66 23.26 5.8 11.45 6.6 17.51 17 20.25 29.56.65 3 1 6 1.53 9.07l-.08 107.37zM991.76 65.98l-12 29.12-53 128.73a29.2 29.2 0 0 0-1.36 3.43c-1.16 4.3-7.37 4.15-9.2.84a45.7 45.7 0 0 1-2.26-4.54c-21.427-51.427-42.857-102.85-64.29-154.27-.43-1-.59-2.23-1.76-3.11a6.64 6.64 0 0 0-.27 3v156.39c-.1 2.6-1.22 3.83-3.85 3.87-4.86.07-9.72.06-14.57 0-2.16 0-3.73-.89-3.78-3.4 0-1.07-.21-2.15-.21-3.22V28.72c.1-5.08.91-5.88 6-5.88 6.55 0 13.11.15 19.66-.06 3.28-.1 5.13 1.18 6.39 4.11 7.92 18.547 15.887 37.073 23.9 55.58l41 95.21c.33.77.72 1.51 1.16 2.42 1.14-1 1.38-2.35 1.86-3.5 20.5-49.887 40.993-99.78 61.48-149.68 1.53-3.72 2.07-4.07 6-4.07h22.44c3.49 0 4.28.75 4.28 4.13v198.26c0 3.39-.83 4.21-4.23 4.23h-17.58c-4.57 0-5.24-.67-5.24-5.17V68.83a4 4 0 0 0-.57-2.85zm184.06 88.58c-.16 19.26-4.67 37.22-16.21 53-10.72 14.61-25.16 23.17-43.23 25.07-27.73 2.92-51.66-10.34-64.35-35.36a92.53 92.53 0 0 1-10.14-48.69c1.39-20.72 7.84-39.67 22.16-55.27a57.06 57.06 0 0 1 35.38-18.25c14.68-2 28.55.09 41.29 7.92 11.73 7.21 19.91 17.58 25.77 29.86a94.58 94.58 0 0 1 9.33 41.72zm-107-5.14a99.42 99.42 0 0 0 3.31 26.72c2.94 11 7.49 21.21 15.73 29.37 11.67 11.57 27.94 13.19 40.58 4 7-5.06 11.41-12.09 14.22-20.08a102.52 102.52 0 0 0 3.49-57c-2.42-11-6.43-21.41-13.94-30.06-9-10.35-20.24-14.35-33.6-10.68-10 2.74-16.55 9.81-21.26 18.69-6.54 12.19-8.51 25.42-8.58 39.04h.05zm-618.04-7.13v52.29a72.39 72.39 0 0 1-.94 12.64c-1.19 6.62-4.86 11.36-10.4 14.85-7.77 4.9-16.46 7.12-25.36 8.74a133 133 0 0 1-32.91 1.79c-11.75-.8-23-3.33-32.47-11-7.59-6.2-11.67-14.33-13-23.95a84.16 84.16 0 0 1-.64-12V81.3a2.91 2.91 0 0 1 3.07-3.3c6.63-.107 13.26-.107 19.89 0a3.21 3.21 0 0 1 3.32 3.43v102.26a60.41 60.41 0 0 0 .6 9.68c1.73 10.53 8 17.39 18.05 20.42a49.72 49.72 0 0 0 29.8-.34c9-2.85 13.51-9.45 14.65-18.6.387-3.68.544-7.38.47-11.08V84.29c0-5.17 1.19-6.38 6.39-6.4h13.42c4.75.07 6 1.35 6 6.1.053 19.427.073 38.86.06 58.3zm859.3.21v53a65.58 65.58 0 0 1-1 12 20.92 20.92 0 0 1-9.36 14c-7.23 4.89-15.42 7.23-23.83 8.93a133 133 0 0 1-35.63 2.25c-11.75-.81-23-3.38-32.43-11.15-7.67-6.35-11.74-14.65-13-24.48a101.998 101.998 0 0 1-.6-12.69V81.41a3 3 0 0 1 3.28-3.37c6.55-.08 13.11-.1 19.66 0 2.14 0 3.34 1.4 3.35 3.63v100.4a73.07 73.07 0 0 0 .61 11.06c1.76 11.37 8.67 18.3 19.58 21.14a51 51 0 0 0 26.49-.23c10-2.72 15.44-9.29 16.5-19.57.292-3.068.426-6.148.4-9.23V82.53c.24-3 1.7-4.49 4.73-4.54 4.93-.08 9.87-.09 14.8 0 4.93.09 6.27 1.28 6.27 6.3v51.59c.12 2.16.18 4.367.18 6.62zm-565.02 90.34c-27.35 0-49.34-16-58.23-42.28-4.73-14-6-28.37-5.27-43 .62-12.23 2.55-24.17 7.42-35.48 8.72-20.24 23.71-32.94 45.57-36.72 15.07-2.61 29.77-1.12 42.92 7.36 14.09 9.09 21.74 22.48 24.41 38.88a22.67 22.67 0 0 1 .16 7.57c-.58 3.35-2.47 5.42-5.85 6-6.833 1.08-13.67 2.127-20.51 3.14a10738.08 10738.08 0 0 1-37 5.44c-10.953 1.6-21.91 3.187-32.87 4.76-1.26.18-2.24.36-2.09 2 1.2 13.46 3.81 26.52 11 38.22 6.06 9.83 14.32 17 25.76 19.65 14.09 3.3 26.5-.24 37.18-9.95 6.28-5.72 11.08-12.6 15.39-19.84 1.32-2.21 2.81-3.75 5.66-3.55 2.85.2 4.19 1.3 4.92 4 1 3.61.12 7.07-.95 10.43-6.44 20.33-19.06 34.73-39.9 41.11a59 59 0 0 1-17.72 2.26zM743.54 90.6c-13.56.08-23.8 5.49-30.58 15.59-5.54 8.26-7.81 17.63-9.13 27.31-.21 1.56.86 1.39 1.77 1.25 2.58-.39 5.15-.88 7.73-1.29a44960.53 44960.53 0 0 1 59.19-9.3c1.53-.24 1.86-.92 1.64-2.35a40.75 40.75 0 0 0-4.49-13.74C763.7 97.35 754.88 91 743.55 90.61l-.01-.01zM572.8 158.71v44.64a33.47 33.47 0 0 1-1.61 9.29 18.57 18.57 0 0 1-8.52 10.81c-6.53 4-13.8 6-21.24 7.35a121.75 121.75 0 0 1-31.29 1.8c-11.7-.86-22.83-3.64-31.85-11.84-6.38-5.8-9.71-13.17-10.77-21.64-2.29-18.33 5.69-31.54 20.63-41.24 10.84-7 23-11.06 35.23-14.7 7.367-2.187 14.75-4.32 22.15-6.4 1.49-.42 2.14-1 2.12-2.64-.11-6.55 0-13.11-.1-19.66a33.31 33.31 0 0 0-3.19-14.07c-3.28-6.69-8.78-10.1-16.1-10.73-15.65-1.35-23.19 8.07-27.17 17.42-.87 2.05-1.57 4.18-2.46 6.22-3 7-10.67 9.8-17.05 6.33a10.58 10.58 0 0 1-5.77-9.36c-.47-9.48 4.09-16.52 10.93-22.38 7.3-6.27 16-9.81 25.26-11.79a76.09 76.09 0 0 1 30.71-.56c15.7 3.06 25.05 12.6 28.65 28a69.57 69.57 0 0 1 1.58 15.82v39.33h-.14zm-25.2 17.18v-23.58c0-2.72 0-2.72-2.68-1.93l-9.28 2.77c-9.46 2.81-18.79 5.95-27 11.58-9.8 6.7-15.81 15.48-14.49 27.93 1.1 10.33 5.84 18.22 15.78 22.32 6.12 2.53 12.55 2.84 19.06 2.23 10.66-1 18.56-5.77 18.64-19.34 0-7.37-.03-14.66-.03-21.98zm792.66-31.83V92.94c0-2-.54-2.7-2.57-2.65-4.62.11-9.25.07-13.88 0-3.26 0-3.92-.75-4-4 0-1.7-.07-3.4 0-5.09.12-2.47 1-3.31 3.44-3.34 4.86-.07 9.72-.1 14.57 0 1.8 0 2.41-.51 2.37-2.36-.12-5.32 0-10.64 0-16a11.51 11.51 0 0 1 4.26-9.52c5.16-4.29 10.11-8.81 15.17-13.22a12.27 12.27 0 0 1 2.06-1.48c2.07-1.15 3.66-.47 4.12 1.84a23 23 0 0 1 .45 4.35c0 11.26.07 22.52 0 33.77 0 2.08.63 2.61 2.63 2.58 8-.1 16-.05 24.06 0 3.19 0 3.4.2 3.54 3.39.09 2-.1 4 0 6 .13 2.36-1 3.1-3.19 3.08-7.48-.06-15 0-22.44 0-4.56 0-4.56 0-4.56 4.51v96.23a37.11 37.11 0 0 0 1.47 10.71c3.56 11.94 11.84 16.36 23.22 15.63 1.46-.09 2.92-.2 4.38-.2 2.82 0 4.4 1 5.26 3.27a5.61 5.61 0 0 1-1.75 6.65c-2.69 2.21-5.94 3.16-9.28 3.86-9.22 1.94-18.33 1.94-27.27-1.4-12.17-4.56-18.83-13.63-21.15-26.15a63.52 63.52 0 0 1-.94-11.72c.04-15.86.05-31.733.03-47.62zm-741.79 17.32v-60.59a42.76 42.76 0 0 1 .51-6.67 12.58 12.58 0 0 1 6.28-9.21c6.15-3.7 12.92-5.74 19.82-7.38a114.13 114.13 0 0 1 28.58-3.25c5.76.11 11.53.5 17.11 2.24a23.24 23.24 0 0 1 7.22 3.53 13.71 13.71 0 0 1 3.92 17.2 11.37 11.37 0 0 1-16.75 4.28 37.35 37.35 0 0 1-6.36-6c-6-6.56-13.37-8.77-22-6.81-6.71 1.53-10.75 6.08-11.75 12.93a47.34 47.34 0 0 0-.47 6.9v115.17c0 4.7-1 5.72-5.65 5.73h-15c-4.53 0-5.43-.9-5.43-5.37-.02-20.9-.03-41.8-.03-62.7z" fill="#2B2727"/></svg>