<svg xmlns="http://www.w3.org/2000/svg" width="483" height="85.69"><defs><clipPath id="a"><path d="M60.11.43a1.61 1.61 0 0 0-1.48 0L30.42 16.71a1.62 1.62 0 0 0-.74 1.29v32.55a1.67 1.67 0 0 1-.74 1.29L.75 68.12a.45.45 0 0 0 0 .86l28.19 16.28a1.67 1.67 0 0 0 1.48 0L58.62 69a1.66 1.66 0 0 0 .74-1.29V35.13a1.62 1.62 0 0 1 .74-1.28l28.2-16.28a.45.45 0 0 0 0-.86z" fill="none"/></clipPath></defs><path d="M96.37 64.13l3.9-6.53a19.47 19.47 0 0 0 11.85 4.75c3.91 0 5.75-1.49 5.75-3.62 0-5.6-20.29-1-20.29-14.47 0-5.75 5-10.79 14-10.79a21.84 21.84 0 0 1 13.76 4.68l-3.61 6.39a14.79 14.79 0 0 0-10.15-4c-3.27 0-5.4 1.42-5.4 3.33 0 5 20.37.78 20.37 14.62 0 6.32-5.39 10.93-14.9 10.93-5.91.03-11.65-1.96-15.28-5.29zM155 68.6v-4.33a16.31 16.31 0 0 1-12 5.18c-7.53 0-11.07-4.12-11.07-10.79V34.32h9v20.79c0 4.76 2.48 6.32 6.31 6.32a10.11 10.11 0 0 0 7.81-3.9V34.32h9V68.6zm25.63-4.4v17.45h-9V34.32h9v4.33a13.27 13.27 0 0 1 10.57-5.18c8.8 0 15.19 6.53 15.19 18s-6.39 18-15.19 18a13.19 13.19 0 0 1-10.57-5.27zm16.46-12.78c0-5.89-3.55-9.93-8.73-9.93a10 10 0 0 0-7.73 3.9v12.07a10.14 10.14 0 0 0 7.73 4c5.18-.03 8.73-4.08 8.73-10.04zm12.96 0c0-9.93 7.38-18 17.74-18S245 41.13 245 52.28v2.12h-25.52c.64 4.19 4.05 7.67 9.87 7.67 2.91 0 6.88-1.21 9.08-3.34l4 6c-3.41 3.13-8.8 4.76-14.13 4.76-10.38-.04-18.25-7.07-18.25-18.07zm17.74-10.57c-5.61 0-8 3.9-8.38 7.31h16.89c-.3-3.26-2.55-7.31-8.51-7.31zm22.54 27.75V34.32h9v4.61a15 15 0 0 1 10.93-5.46v8.8a11.7 11.7 0 0 0-2.49-.21c-3 0-7 1.7-8.44 3.9V68.6zm66.43 0V47c0-3.19-1.42-5.46-5.11-5.46a9.11 9.11 0 0 0-7.09 4V68.6h-9.09V47c0-3.19-1.41-5.46-5.1-5.46-3.13 0-5.75 2.13-7.1 4V68.6h-9V34.32h9v4.4a15.38 15.38 0 0 1 11.21-5.25c5 0 8.3 2.34 9.51 6.17a14.69 14.69 0 0 1 11.78-6.17c6.32 0 10.08 3.34 10.08 10.36V68.6zm14.64-17.18c0-9.72 6.81-18 18.1-18s18.16 8.23 18.16 18-6.81 18-18.16 18-18.1-8.27-18.1-18zm26.9 0c0-5.32-3.13-9.93-8.8-9.93s-8.73 4.61-8.73 9.93 3.12 10 8.73 10 8.8-4.6 8.8-10zm38.1 17.18V47.88c0-4.76-2.48-6.39-6.32-6.39a10 10 0 0 0-7.8 4V68.6h-9V34.32h9v4.4a16.05 16.05 0 0 1 12-5.25c7.59 0 11.21 4.26 11.21 10.93v24.2zm14.52-17.18c0-9.93 7.38-18 17.74-18s17.17 7.66 17.17 18.81v2.17h-25.47c.64 4.19 4 7.67 9.86 7.67 2.91 0 6.89-1.21 9.09-3.34l4 6c-3.41 3.13-8.8 4.76-14.12 4.76-10.39-.04-18.27-7.07-18.27-18.07zm17.74-10.57c-5.6 0-8 3.9-8.37 7.31h16.89c-.29-3.26-2.56-7.31-8.52-7.31zm21.77 36.55l4-6.46c2.49 3 6.67 4.18 10.29 4.18 5.82 0 9.23-4 9.23-8.79v-3.55A16.32 16.32 0 0 1 461.92 68c-7.52 0-11.07-4.12-11.07-10.79V34.32h9v19.3c0 4.76 2.48 6.32 6.31 6.32A10.11 10.11 0 0 0 474 56V34.32h9v32c0 10.29-7.31 16.18-18.24 16.18a20.69 20.69 0 0 1-14.33-5.1z" fill="#fff"/><g clip-path="url(#a)" fill="#fff"><path d="M59.36 0L29.68 17.14l29.68 17.13 29.69-17.13L59.36 0zM29.68 51.41L0 68.55l29.68 17.14 29.68-17.14-29.68-17.14z"/><path opacity=".33" d="M29.68 17.14l29.68 17.13v34.28L29.68 51.41V17.14z"/></g></svg>