<svg width="99" height="33" xmlns="http://www.w3.org/2000/svg"><path d="M39.535 23.92c-.27-.129-.514-.08-.618.118-.429 1.126-1.543 4.068-3.138 5.13-.674.45-1.356.397-1.811.273-.716-.196-1.296-.687-1.547-1.099 5.791-4.116 4.935-12.011 1.374-12.098-.965 0-1.945.621-2.754 1.735-1.115 1.541-1.808 3.944-1.808 6.276 0 1.118.163 2.224.469 3.292-1.618.616-2.097.337-2.337-.026-.631-.738-.562-3.382-.487-6.182l.047-2.722c0-.854-.196-1.459-.582-1.801-.294-.263-.687-.368-1.17-.314-1.54.148-3.391 3.054-5.503 8.577.025-.905.085-3.208.085-3.208 4.588-6.428 5.7-15.776 4.021-17.383-.514-.494-1.223-.645-2-.428-3.084.867-4.064 17.03-4.072 17.194-.211 2.226-2.159 5.037-3.762 6.062-.519.33-.96.446-1.274.334-.949-.337-1.411-1.965-1.426-2.959v-.268c0-2.826.539-7.395 1-10.77 4.698-.399 5.346-.46 5.427-.46.646-.033.625-1.384.625-1.384 0-.48-.273-.552-.391-.563-1.109.184-2.79.359-5.397.524l.366-2.436.257-1.631c0-.607-.862-.881-1.38-.991 0 0-.291-.079-.339.226-.018.08-.734 4.506-.802 4.945-4.593.253-9.341.383-10.366.383H.191l-.087.038-.069.073a.403.403 0 0 0-.034.17c0 .483.608 1.389.614 1.399.317.462.574.666.812.639 0 0 8.025-.691 8.833-.762C8.546 22.927 6.161 28.355 2.97 30.4c-1.541.942-2.171 1.303-1.757 1.541.827.395 2.604.341 3.104.054 1.981-1.271 3.518-3.57 4.962-7.332.165 3.515 2.032 4.525 2.856 4.791.914.245 1.827.082 2.719-.48 1.256-.792 2.26-2.255 2.859-3.465-.023.373-.243 5.28-.243 5.28 0 .245.003.324.102.386.24.232 1.523.251 1.689-.08.165-.328.857-2.554 1.065-3.217 3.327-8.93 4.481-9.345 4.677-9.355.075.002.115.023.125.148.001.202-.221 6.229-.221 6.229 0 2.542.571 4.177 1.698 4.858.934.564 2.265.434 3.842-.359 1.48 1.94 4.041 2.87 6.018 1.628 2.16-1.423 3.444-6.558 3.444-6.558.086-.188-.127-.428-.371-.545l-.003-.004zM22.08 5.956c.068-.176.175-.313.404-.273.197.033.398.161.418.495-.018 5.354-2.149 10.378-3.134 12.362.192-2.218 1.001-9.161 2.312-12.584zm9.494 20.507a9.78 9.78 0 0 1-.228-1.983c0-2.296.713-5.153 2.31-6.365.016-.013.155-.116.273-.08.112.034.184.186.227.307.174.62.265 1.289.265 1.985 0 2.349-1.046 4.562-2.848 6.137l.001-.001zM98.451 9.82l-.038-.022-.048.009c-1.762.402-5.22.87-7.871 1.197.033-.271.446-3.553.446-3.553v-.03c0-.096-.069-.299-.831-.841-.753-.535-.981-.546-1.109-.487l-.045.022-.059.069-.026.084c-.005.023-.514 4.526-.565 5.001-3.622.422-6.746.729-7.528.78-.115.045-.201.121-.201.346 0 .134.032.323.1.585.135.496.451 1.314 1.046 1.253 0 0 5.561-.768 6.327-.875l-.454 3.208c-.348 1.788-.728 3.196-1.128 4.188-.786 2.39-1.853 3.167-2.421 3.412a1.474 1.474 0 0 1-.594.144c.062-.47.1-.93.1-1.371 0-2.12-.708-3.82-1.946-4.514-.757-.391-1.501-.409-2.156-.054-.659.397-1.051 1.242-1.051 2.265l.004.137c.048 1.453.928 3.434 3.208 4.684-.362 1.433-1.023 2.536-1.927 2.991-.857.436-1.68.296-2.031.146-1.823-.783-2.111-2.508-2.027-3.736.216-3.21 1.273-5.459 3.545-6.758.095-.062.137-.186.155-.346.039-.389-.191-1.034-.552-1.26-.136-.087-.21-.11-.34-.033-1.225.656-3.401 2.418-4.549 6.225-.637 2.453-1.98 5.864-2.89 5.837-.116-.011-.56-.107-.56-2.352l.102-5.375c0-2.017-.237-3.444-1.39-3.852-2.262-.66-4.293 2.69-5.321 4.791.165-1.062.551-3.509.551-3.509v-.032c0-.262-.154-.432-.426-.558-.437-.202-1.157-.287-1.379.068-.006.002-2.344 10.826-6.341 10.71-2.768-.165-4.076-4.084-4.855-5.435 5.148-2.212 7.852-5.83 7.878-5.865 0 0 .471-.452-.429-1.508-.306-.351-.622-.478-.863-.353-2.073 3.206-5.287 5.03-7.139 5.88.03-.378.419-5.071.419-5.071 2.311-4.197 4.075-9.652 4.075-12.994 0-1.237-.245-2.184-.788-2.667-.505-.404-1.125-.503-1.711-.271-.522.204-2.051.798-2.753 5.651l-.659 6.485-.294 3.32c-.873 1.398-3.211 4.591-3.234 4.618-.073.375.056.671.357.933.297.253.84.515 1.051.453.054-.03.112-.086 1.676-2.414-.062.673-1.191 12.315-1.191 12.315 0 .25.334.324.659.366.058.007 1.447.186 1.552-.318.003-.015.391-4.819.462-5.714 1.469 2.151 2.6 4.62 5.621 4.802 1.618.098 3.044-.596 4.118-2.006l1.081-1.671c-.1.429-.964 4.064-1.055 4.56-.08.532 1.276.612 1.626.45.216-.18.437-.753 1.173-2.717l.824-2.181c.992-2.611 2.326-5.271 3.319-6.618.48-.653.785-.998.98-1.173.242-.241.357-.166.426.111.33 1.747-1.311 11.022 2.27 11.213h.003c1.162 0 2.131-.996 3.048-3.066.457 1.135 1.531 2.929 4.049 3.217 3.998.323 4.95-3.487 5.262-4.71l.026-.096c.335.048.749.08 1.367-.026.816-.144 1.793-.771 2.5-1.528v.157l.048 2.043c.146 2.722.712 5.244 3.861 5.317 1.513.034 3.963-1.047 5.886-4.214.151-.239-.391-1.451-.511-1.642-.043-.062-.137-.21-.302-.193l-.054.006-.079.054-.053.082c-.738 1.658-2.933 3.929-4.847 3.9-.579-.009-1.543-.021-1.719-3.418l-.048-1.921c0-2.135.154-4.557.485-7.624 0 0 .432-3.443.485-3.885 2.85-.411 7.59-1.108 8.052-1.243.273-.103.367-.548.397-.901.008-.075.015-.175.015-.286 0-.304-.044-.676-.248-.8l.001.002zM52 5.787c.573-3.784 1.151-3.93 1.423-3.891.29.041.644.681-.016 4.039-.66 3.358-1.534 5.218-2.134 6.643.161-1.575.152-3.008.727-6.791zm29.999 18.202c-.125-.062-2.309-1.472-2.074-3.777.151-.77.849-.646 1.022-.586 1.046.368 1.371 2.24 1.052 4.363z"/></svg>