<svg width="151" height="41" xmlns="http://www.w3.org/2000/svg"><g fill="none"><circle fill="#53B50A" cx="116.925" cy="4.78" r="3.927"/><path d="M40.322 40.319c-5.657 0-8.519-3.261-8.519-8.652V17.424h-5.124v-5.59h5.125V4.713l6.788-1.664v8.852h7.055v5.59h-7.055v13.71c0 2.2 1 3.061 3.128 3.061a37.506 37.506 0 0 0 4.392-.266v5.653a28.081 28.081 0 0 1-5.79.67zm24.159-22.495c-4.792 0-7.254 3.394-7.254 7.986v14.176h-6.789V11.835h5.724l.6 4.193c1.331-3.261 4.659-4.592 7.986-4.592.732 0 1.4.067 2.13.133v6.522a16.46 16.46 0 0 0-2.397-.267zm24.291 22.162l-.466-3.66c-1.331 2.729-4.459 4.392-8.053 4.392-5.99 0-9.717-4.06-9.717-10.049V11.834h6.788v17.237c0 3.328 1.331 5.324 4.858 5.324a4.629 4.629 0 0 0 3.461-1.4c1.6-1.531 2.063-4.06 2.063-6.323V11.834h6.788v28.152h-5.722zm17.771.333c-4.592 0-7.654-2.2-7.654-7.587V.853h6.788V31.6c0 1.6.4 2.729 2.729 2.729.6 0 .732-.067 1.131-.067v5.657a11.97 11.97 0 0 1-2.994.4zm6.987-.333V11.834h6.855v28.152h-6.855zm33.676.4a4.489 4.489 0 0 1-4.792-3.927c-1.331 2.263-4.526 4.193-8.519 4.193-6.722 0-10.183-4.193-10.183-8.852 0-5.324 4.193-8.452 9.517-8.852l8.253-.6v-1.73c0-2.662-.932-4.459-4.792-4.459-3.128 0-4.991 1.4-5.125 3.993h-6.522c.4-6.323 5.391-9.118 11.713-9.118 4.792 0 8.918 1.531 10.582 5.724.628 1.817.9 3.737.8 5.657v10.45c0 1.331.466 1.8 1.6 1.8.293-.003.585-.047.865-.133v4.991a5.844 5.844 0 0 1-3.397.863zm-5.657-12.911l-7.121.532c-2.063.133-4.06 1.4-4.06 3.66 0 2.2 1.863 3.527 3.993 3.527 4.193 0 7.188-2.263 7.188-6.456v-1.263z" fill="#40455F"/><path d="M11.039.853C4.783.92.79 5.046.79 11.368c0 5.191 3.394 9.65 5.324 16.439a63.568 63.568 0 0 1 2 12.179h5.724a77.23 77.23 0 0 1 2-12.179c1.93-6.788 5.324-11.247 5.324-16.439C21.222 5.046 17.229.92 11.039.853zm0 16.039a4.659 4.659 0 1 1 4.659-4.659 4.63 4.63 0 0 1-4.659 4.659z" fill="#53B50A"/></g></svg>