<svg width="63" height="19" xmlns="http://www.w3.org/2000/svg"><path d="M5.83 18.68L.19 1.41H2.6l2.69 8.51c.75 2.3 1.4 4.4 1.8 6.46h.05c.48-2 1.2-4.18 1.97-6.43l2.92-8.54h2.39L8.25 18.68H5.83zM16.34 1.63c1.12-.23 2.74-.36 4.28-.36 2.38 0 3.9.4 5 1.41.87.8 1.4 1.9 1.4 3.3 0 2.28-1.44 3.8-3.25 4.41v.08c1.33.5 2.1 1.7 2.5 3.49.56 2.4 1 4.1 1.3 4.74h-2.31c-.28-.51-.67-1.97-1.15-4.12-.51-2.39-1.43-3.28-3.46-3.36h-2.1v7.48h-2.23V1.63h.02zm2.23 7.87h2.28c2.39 0 3.9-1.31 3.9-3.28 0-2.23-1.62-3.2-3.97-3.23-1.08 0-1.84.1-2.2.21v6.3h-.01zm11.56-7.87c.98-.21 2.51-.36 4.07-.36 2.23 0 3.7.4 4.7 1.25.9.7 1.4 1.7 1.4 3 0 1.67-1.1 3.13-2.92 3.8v.05c1.64.4 3.6 1.8 3.6 4.33 0 1.49-.59 2.61-1.46 3.46-1.2 1.1-3.15 1.62-5.97 1.6-1.54 0-2.72-.11-3.46-.21l.04-16.92zm2.23 7.08h2.03c2.36 0 3.75-1.23 3.75-2.9 0-2.02-1.54-2.82-3.8-2.82-1.02 0-1.62.08-1.97.15l-.01 5.57zm0 8.28c.43.1 1.1.1 1.9.1 2.31 0 4.44-.85 4.44-3.35 0-2.36-2.02-3.33-4.46-3.33H32.4l-.04 6.58zm26.42-7.13c0 5.95-3.62 9.1-8.03 9.1-4.56 0-7.77-3.54-7.77-8.77 0-5.48 3.41-9.07 8.02-9.07 4.73-.02 7.8 3.58 7.8 8.78m-13.42.24c0 3.7 2 7 5.5 7 3.54 0 5.54-3.25 5.54-7.18 0-3.43-1.79-7.02-5.51-7.02-3.69-.04-5.51 3.46-5.51 7.16M60.91.6c1.1 0 1.9.8 1.9 1.92 0 1.09-.86 1.93-1.96 1.93s-1.97-.84-1.97-1.93C58.93 1.4 59.8.6 60.9.6h.01zm-.02.38c-.84 0-1.47.69-1.47 1.53 0 .8.6 1.5 1.5 1.5.84 0 1.46-.68 1.46-1.53C62.37 1.7 61.8 1 60.9.98h-.01zm-.3 2.52h-.44V1.6c.18-.04.42-.07.73-.07.36 0 .5.1.7.15.11.1.2.2.2.41 0 .22-.16.38-.4.46v.02c.19.1.3.2.3.47.06.3.1.4.1.47h-.48c-.06-.07-.09-.23-.15-.46-.03-.21-.15-.31-.4-.31h-.21v.76h.05zm.01-1.07h.21c.24 0 .45-.08.45-.28 0-.17-.13-.29-.41-.29-.12 0-.2.01-.25.02v.55z" fill="#323F4D"/></svg>