<svg width="110" height="26" xmlns="http://www.w3.org/2000/svg"><g fill="none"><path d="M105.57 2.42C102.39-.09 96.36.04 96.36.04H86c-1.21 0-1.63.08-1.55.6a.79.79 0 0 0 .65.41 1.52 1.52 0 0 1 1.33 1.36c0 .86.13 3.56.13 4.5v16.22c0 1.04.84 1.884 1.88 1.89h6.18a21.53 21.53 0 0 0 7.68-1.49 12.37 12.37 0 0 0 7.61-11.61 12 12 0 0 0-4.34-9.5zM95.11 22.83h-.24c-1.44 0-2.93 0-3.71-.77a2.44 2.44 0 0 1-.59-1.81V8.76c0-2.37-.06-3.48 0-6.14a29.88 29.88 0 0 1 4.3-.29c2.73 0 5.58.37 8 3a10.09 10.09 0 0 1 2.42 7c-.01 6.43-4 10.5-10.18 10.5zm-10.7 1.25a2.21 2.21 0 0 1-1.33-1.59c0-.45-.47-20.49-.47-20.49 0-1 0-1.79-.25-1.89a11.8 11.8 0 0 0-2.13-.1 3.58 3.58 0 0 0-1.74.17 9.27 9.27 0 0 0-.87 1.89l-1.83 4.07L74 9.56l-2.78 5.39a.91.91 0 0 1-1.77 0l-2.88-5.31-1.8-3.31-2-4.3a10.93 10.93 0 0 0-.85-1.88A5 5 0 0 0 60 0h-2.46c-1.21 0-1.76 0-1.68.52a.78.78 0 0 0 .65.41c.62.277 1.015.9 1 1.58 0 .45 0 18.71-.1 19.51 0 .13 0 .27-.07.41A1.88 1.88 0 0 1 56 24.08a.78.78 0 0 0-.65.41c-.08.51.48.53 1.69.53h4c1.21 0 1.77 0 1.7-.53a.78.78 0 0 0-.65-.41 1.91 1.91 0 0 1-1.33-1.59 11.79 11.79 0 0 1-.19-1.38c0-1-.06-2.74-.05-3.77v-.35c0-1 0-2.74.06-3.77l.1-4.09c0-1 .45-1.14.94-.23l2.7 5c.49.91 3.08 5.81 3.54 6.73a1.43 1.43 0 0 0 1.7 1.13c1.36 0 1.36-.36 1.92-1.56.41-.88 6.2-12.27 6.2-12.27.47-.92.88-.83.91.2 0 0 .07 13.88 0 14.51v.21a1.79 1.79 0 0 1-1.23 1.23.79.79 0 0 0-.65.41c-.08.51.48.53 1.69.53h5c1.22 0 1.77 0 1.7-.53a.82.82 0 0 0-.69-.41z" fill="#231F20"/><path d="M30 2.55A3.13 3.13 0 0 1 31.08.98 1.27 1.27 0 0 0 32 .47C32.09.1 31.76 0 30.44 0h-4c-1.21 0-1.77 0-1.69.53a.79.79 0 0 0 .65.41c1.15.32 1.92.91 1.56 2.11-.36 1.2-5.36 15.91-5.36 15.91-.19.53-.68.68-.83-.11L18.18 6.47c-.22-1-.46-2.32-.55-2.89a1.1 1.1 0 0 0-1.11-.82 1.17 1.17 0 0 0-1.09.67c-.33.69-1 2-1.46 2.95L7.38 19.04c-.27.47-.61.33-.66-.23L5.9 5.98c0-1-.1-3-.09-3.32A1.77 1.77 0 0 1 7.16.95a.85.85 0 0 0 .68-.44c.08-.51-.51-.5-1.72-.5h-5C.32.03-.06.12 0 .54a.79.79 0 0 0 .65.41c.516.14.94.508 1.15 1 .076.176.143.357.2.54v.17a.87.87 0 0 0 0 .1 28.72 28.72 0 0 1 .49 3.45l1.09 15.68a12.1 12.1 0 0 0 .35 3.19c.31.65 1.77.61 2.35-.26.16-.25 8.39-15.7 8.39-15.7.48-.92 1-.84 1.25.18l2.58 12.73c.159.948.383 1.883.67 2.8.35.92 2.11.76 2.58-.14A24.49 24.49 0 0 0 23 21.86s6.72-18.5 7-19.31zm21.69 6c-3.21 0-6.14 2.93-8.07 5.15.103-.639.26-1.268.47-1.88l3-10A1.33 1.33 0 0 0 45.76.01h-2.53c-1.21 0-1.77 0-1.7.53a.79.79 0 0 0 .65.41c1.2.34 1.6 1.68 1.28 3.14 0-.12-3 11.88-3 11.88a7.92 7.92 0 0 1-1.89 3.15s-3.63 4.43-7.29 4.43a2.66 2.66 0 0 1-2.92-2.79 11.33 11.33 0 0 1 .28-2.67c3.82-.36 10.66-2.12 10.66-7 0-2-1.89-2.54-3.5-2.54-5.18 0-10.29 6.32-10.29 12 0 2.39 1.11 4.82 4.4 4.82 6.18 0 9.54-6 9.73-6.23a16.58 16.58 0 0 0-.3 2.41c0 2.61 1.9 3.82 4.25 3.82a10.4 10.4 0 0 0 5.23-1.64 15.38 15.38 0 0 0 3.6-3 12.15 12.15 0 0 0 3.35-7.65c-.01-2.66-1.19-4.49-4.05-4.49l-.03-.04zM35 9.76a1.39 1.39 0 0 1 1.47 1.54c0 3.9-4.32 5.61-7.61 5.83.53-2.37 3.36-7.37 6.14-7.37zm16.28 8.48a16.94 16.94 0 0 1-3 4.28 6.09 6.09 0 0 1-4.06 2c-1.64 0-2.18-1.57-2.18-3 0-4 4.36-11.44 8.79-11.44 1.64 0 2.14 1.14 2.14 2.5a13.69 13.69 0 0 1-1.72 5.64l.03.02z" fill="#0080C5"/><path d="M107.24 1.54a1.23 1.23 0 1 1 2.46 0 1.23 1.23 0 0 1-2.46 0zm1.23 1.52a1.51 1.51 0 1 0-1.54-1.52 1.51 1.51 0 0 0 1.54 1.51v.01zm-.32-1.4h.3l.46.76h.3l-.5-.77a.45.45 0 0 0 .45-.48.49.49 0 0 0-.62-.5h-.66v1.74h.27v-.75zm0-.22V.89h.36c.19 0 .38 0 .38.26s-.2.28-.43.28h-.31v.01z" fill="#231F20"/></g></svg>