<svg width="1156" height="256" xmlns="http://www.w3.org/2000/svg"><g fill="none"><path fill="#000" d="M337.69 147.66v48.46h-26.83v-48.46l-36.39-66.57h31.18l22.15 43.76 21.79-43.76h24.16zm44.93 10.06l-.17 4.19c-.34 10.06 5.7 18.28 16.43 18.28 7.55 0 15.1-5.53 15.1-13.42l22.8 1.69c0 4.19-9.89 29.34-38.73 29.34-25.49 0-42.05-17.8-42.05-43.1 0-25.16 14.91-45.45 41.41-45.45 11.9 0 24.15 5.37 31.18 15.09 7.03 9.72 8.9 21.8 8.72 33.37l-54.69.01zm15.75-32.36c-10.89 0-15.09 8-15.93 17.77h30.19c-.51-9.22-3.53-17.77-14.26-17.77zm50.45-44.27h24.64v115.03h-24.64zm38.56 0h24.65v115.03h-24.65zm74.95 116.71c-26.16 0-40.41-19.79-40.41-44.43 0-24.83 14.42-44.11 40.41-44.11 26.67 0 41.08 19.79 41.08 44.94 0 24.32-15.92 43.6-41.08 43.6m11.9-64.56c-2-5.54-6-7.72-11.73-7.72-13.25 0-14.09 15.61-14.09 25.32s-.17 30.51 13.91 30.51c13.91 0 14.59-16.76 14.59-27 0-6.71-.33-14.75-2.69-21.13m124.27 62.9h-22.14l-13.25-54.66h-.34l-13.24 54.66h-21.13l-26.32-85.18h26.32l13.59 52.15h.33l12.91-52.15h22.64l12.25 52.32h.32l14.26-52.32h19.45zm191.13-.38c-1.33-5.35-1.45-11.16-1.45-16.68V146c0-8.74 0-19.62-6.72-27.16-6.4-7-16.84-8-25.2-8-7.49 0-31.75 1.54-35.29 21l9.81 1.61c2.51-9.76 10.89-14.93 24.3-14.93 16 0 22.9 6.56 22.9 21.91v5h-12.34c-10 0-22.62.57-32.18 4.92-9.12 4.23-15 13.06-15 22.48 0 17 14.27 24.55 28.41 24.55 13.71 0 23.1-5.53 28.71-16.9l2-4L878 181l1.4 14.79 10.22-.05zM878 159.62c0 8.63-10.58 30.11-28.27 30.11-9.09 0-19.71-4.25-19.71-16.2 0-20.73 27-20.73 35.81-20.73H878v6.82zm86.94 27.51c-5.76-2.16-14.75-2.53-22-2.84l-2.61-.11c-1.75-.09-3.67-.12-5.65-.17-4.87-.1-10.4-.21-14.69-1.19-4.67-1.06-7.36-4.14-7.36-8.46 0-5.06 5.65-9.15 10.33-9.15a35.8 35.8 0 0 1 5.46.64 38.77 38.77 0 0 0 6.11.71c8.23 0 15.44-2.17 20.87-6.28 6.5-5.13 10.39-12.72 10.39-20.29a30.3 30.3 0 0 0-7.88-20.1l-.41-.45.09-.59C959.1 108.86 966.2 108 974 108l-.12-8.08-2.16-.11h-2.13c-10.11 0-14.34 3.6-16.18 13.77l-.29 1.63-1.5-.7a39.59 39.59 0 0 0-16.73-3.57c-15.61 0-31.42 9.52-31.42 27.73 0 8.7 3.55 15.93 10.58 21.48l1.63 1.28-1.88.88c-7 3.23-11 6.57-11 14.1 0 5.15 2.28 8.85 7.64 12.35l2.14 1.42-2.42.85c-8 2.82-12.06 8.25-12.06 16.07 0 9.9 7.5 15 13.8 17.6 7 2.87 16.33 3.26 24.5 3.26 27.09 0 40.81-7.82 40.81-23.21a18.77 18.77 0 0 0-12.26-17.59m-50.45-48.31c0-11.62 8.58-20.05 20.39-20.05a19.85 19.85 0 0 1 20.22 19.88c0 12.1-8.12 20.23-20.22 20.23-12.38 0-20.39-7.88-20.39-20.06m44.58 77.61c-5.59 2.65-15.34 3.83-22.5 3.83-13.59 0-28.11-3.95-28.11-15 0-7.17 5.33-10.56 10-12.72l.33-.17.37.06c6.14.78 14.86 1 21.22 1.09 3.2.07 5.89.14 7.56.25 6.24.35 19.29 1.09 19.29 11.49 0 6.56-4.11 9.35-8.11 11.2m80.07-43.86c-4.18 10.35-12.73 16.26-23.6 16.26-9.65 0-18.87-5.48-22.94-13.61-3.38-6.77-3.66-13.28-3.66-19.86v-1.28h61.91c.14-13.76-4-25.95-11.42-33.59-6.22-6.4-14.48-9.64-24.55-9.64-26.2 0-38.13 22.55-38.13 43.5 0 21.41 11.68 43 37.79 43 15.78 0 29.48-9.08 34.55-22.74l-9.95-2.04zm-50-27c.49-13.19 10-27.21 25.74-27.21a22.74 22.74 0 0 1 16.64 6.54c4.9 5 7.82 12.31 7.71 20.73V147h-50.16l.07-1.37zm129.01 8.49c-4.91-3.33-11.08-4.49-17-5.62l-12.64-2.23c-6.5-1.15-16.32-2.89-16.32-13.65 0-9.44 9.75-13.69 19.39-13.69 10.93 0 19.1 4.8 22.58 13.23l9.69-2c-5.24-16.68-22.28-19.22-32.1-19.22-14.13 0-30.6 6.2-30.6 23.72 0 12 8.05 19.54 23.94 22.4l13.93 2.51c5.27 1 17.64 3.21 17.64 14.16 0 11.33-11.31 15.37-21.89 15.37-11.21 0-24.06-4.93-26.66-15.71l-10.16 2c4.13 13.85 17.4 22.07 35.81 22.07 15.73 0 34.1-6.56 34.1-25.06a21.4 21.4 0 0 0-9.66-18.23M804.81 90.65c-7.87-6.52-18-7.41-26.84-7.41h-37.3v112.49h11.87v-46.78h27.11c12.14 0 20.4-2.78 26.78-9a33.19 33.19 0 0 0 9.67-23.41c0-9.92-4.43-20.06-11.28-25.86m-7.5 42.69c-5.94 5.76-12.73 6.25-19.18 6.25h-25.6V92.77h26.6c5.57 0 11 .35 16.39 4.65 5.39 4.3 8.53 11.22 8.53 19.1a23.84 23.84 0 0 1-6.75 16.83"/><path d="M190 250.53c-55.22 26-154.86-46-180.83-101.22s5.94-110.07 61.16-136C89 4.5 108.55 0 127.29 0c36.79 0 70.41 17.36 87.62 54 25.98 55.18 30.33 170.55-24.91 196.53z" fill="#FFCD00"/><path d="M64.74 57.28h35.48c11.86 0 31.84 2 42.65 23.91l52.83 111.08a13.56 13.56 0 0 1-20.7-1.76L129.52 126A20.3 20.3 0 0 0 99 122.9L86.1 135c-5.546 5.186-14.207 5.035-19.57-.34l-1.39-1.39 11.94-16.07a33.9 33.9 0 0 0 1.39-38.42l-13.73-21.5zm20.53 116.15a18.84 18.84 0 0 0-2.2 10.37c.47 7.23 9.54 13.54 9.54 13.54l33.33-56.27a9.25 9.25 0 0 0-.23-9c-7.12-11.2-17-7.67-17-7.67l-23.44 49.03zm1049.12-62.52h-2.27V98.55h-4.26v-1.78h10.8v1.78h-4.27v12.36zm20.72 0h-2.18V99.66l-4.49 11.25h-1.57l-4.55-11.25v11.25h-2V96.77h3.11l4.35 10.72 4.22-10.72h3.07l.04 14.14z" fill="#000"/></g></svg>