<svg width="981" height="222" xmlns="http://www.w3.org/2000/svg"><g fill="#B12643"><path d="M586.59 41.37a110.86 110.86 0 0 0-46.61-21c-48.14-9.49-94.81 15.2-111.15 58.91-19.73 52.82 8.91 110.5 62.18 125.23 52.27 14.45 104.7-18.78 114.11-72.45 1.14-6.54 1.29-13.24 2.08-19.85.5-4.2-1.18-5.33-5.29-5.31-32.16.15-64.33.09-96.49.09h-6.24V94.45h120.87c1 17.8.27 35.28-4.87 52.41C590 230.58 491.65 241 440.8 190.94c-32.71-32.24-41.13-71.72-26.05-114.52 14.74-41.81 46.87-64 90.28-69.55 29.16-3.72 56.7 2.13 81.86 17.83 6.07 3.78 6.06 3.82 2.9 10.35-.94 1.95-1.94 3.84-3.2 6.32zM186.64 215.56l10.19-20.22c32.18-63.747 64.38-127.49 96.6-191.23.8-1.58 2.42-2.75 3.66-4.11a24.27 24.27 0 0 1 3.24 4 237035.96 237035.96 0 0 1 104.32 205.23c.88 1.75 1.72 3.52 3.05 6.24-5.71 0-10.62.17-15.5-.15-1-.06-2.23-1.78-2.84-3a134706.929 134706.929 0 0 1-80.1-161.55c-3.91-7.87-7.88-15.72-12.32-24.58-1.58 3.12-2.73 5.35-3.85 7.61A376811.734 376811.734 0 0 0 211.53 198c-2.15 4.33-4.51 8.58-6.29 13.05-1.49 3.72-3.77 5-7.65 4.62-3.25-.37-6.59-.11-10.95-.11zM729.53 26.09c-3.71 7.36-6.94 13.7-10.1 20.07a103209.48 103209.48 0 0 0-80.82 163.38c-2.36 4.8-5.06 6.77-10.21 6.08-2.57-.35-5.22-.06-8.73-.06 1.12-2.51 1.84-4.28 2.69-6 34.62-68.667 69.27-137.333 103.95-206C727 2.2 728.6 1.2 729.77 0c1.11 1.33 2.52 2.51 3.28 4 24 47.173 47.963 94.363 71.89 141.57 10.847 21.367 21.693 42.743 32.54 64.13.82 1.62 1.59 3.26 2.81 5.79-5.45 0-10.37.21-15.24-.16-1.16-.09-2.52-2-3.19-3.32a59512.66 59512.66 0 0 1-59.68-120.36c-10.64-21.44-21.35-42.86-32.65-65.56zM0 215.08c27.08-50.85 53.72-100.85 80.78-151.67H13.63V50.15h90C76.45 101 49.51 151.39 22.1 202.69h145.71v12.39H0z"/><path d="M147.9 24.07H13.66V11.15H170L88.44 163.58h79.37v13.1H66.38zm426.92 105.12c-1.52 27.9-21.77 48.61-49.89 51.55-35.61 3.72-65.17-18.14-71.55-52.9-6.81-37.16 13.11-70.7 47.95-79.15 25.07-6.07 48.17-.55 68.94 14.82 2.78 2.06 3.57 3.93 1.66 7-1.56 2.53-2.64 5.35-4.18 8.54-1.85-1.49-3.46-2.81-5.1-4.1C548.7 64 532.87 58.68 515.17 59.87c-41 2.76-62.82 48.38-40.57 84.62 14.68 23.91 40.23 29.11 63.12 19.55 9.89-4.12 17-11.31 21.09-22.61h-59.67v-12.24h75.68zm248.49-65.98V50.12h64.27v165.41c-3.9 0-7.69.14-11.44-.12-.86-.06-2-1.4-2.34-2.37a16.19 16.19 0 0 1-.14-4.47V63.21h-50.35zm107.24 152.11h-13.7V50.15h64V63h-50.3zM981 11.14V23.5H823.5V11.14zM729.55 85.5l36.24 74.34H692.6c12.3-24.73 24.34-48.97 36.95-74.34zM747 149.29c-5.87-13.22-11.43-25.77-17.54-39.54-6.38 13.92-12.13 26.49-18.12 39.54H747zM296.87 85.44c12.27 25.18 24.13 49.56 36.27 74.43H260l36.87-74.43zm-18.08 63.69h35.59l-17.48-39.35-18.11 39.35zm80.93 66.42c-5.32 0-9.47.19-13.59-.12a6 6 0 0 1-3.68-2.47 17.06 17.06 0 0 1-2.79-5.81c-2.11-9.15-7.88-11-16.71-10.7-19.95.71-39.95.32-59.92.14-3.52 0-5.61 1-6.8 4.27a52.35 52.35 0 0 1-2.62 5.38c-5.16 10.37-7.33 11.34-19.88 8.51 4.81-9.74 9.49-19.41 14.41-29 .49-.95 2.37-1.66 3.61-1.67 29.8-.087 59.597-.087 89.39 0 1.36 0 3.42.86 4 1.93 4.86 9.45 9.42 18.99 14.58 29.54zm306.37.01c5.16-10.61 9.79-20.32 14.66-29.91.47-.93 2.45-1.54 3.73-1.54 29.8-.087 59.6-.087 89.4 0 1.33 0 3.32.91 3.87 2 4.87 9.42 9.48 19 14.62 29.41-5.29 0-9.88.22-14.41-.15-1.19-.1-2.59-1.85-3.27-3.16-2.13-4.13-3.76-8.54-6.05-12.59a6.21 6.21 0 0 0-4.43-2.81c-23.333-.18-46.64-.18-69.92 0-1.65 0-3.86 1.61-4.79 3.1a73.69 73.69 0 0 0-5.84 11.56c-1.35 3.35-3.43 4.43-6.88 4.14-3.24-.27-6.51-.05-10.69-.05z"/></g></svg>