<svg width="145" height="27" xmlns="http://www.w3.org/2000/svg"><path d="M84.4 4.9h-4.8L79 7.2l-.6-2.3h-1.1c-.9 0-1.6-.7-1.6-1.6 0-.9.7-1.6 1.6-1.6h7.1c.9 0 1.6.7 1.6 1.6 0 .9-.7 1.6-1.6 1.6zm0-4.5h-7.1c-1.6 0-2.9 1.3-2.9 2.9 0 1.6 1.3 2.9 2.9 2.9h.3L79 9.8l1.4-3.6h4.1c1.6 0 2.9-1.3 2.9-2.9-.1-1.6-1.4-2.9-3-2.9zm53 3.7h4.2V9h3.4v2.8h-3.4v5.9c0 1 .3 1.3 1.4 1.3.7 0 1.4 0 2-.1v2.8c-.8.1-2.3.2-3.3.2-4 0-4.3-1.5-4.3-3.8v-6.4h-2.6V9h2.6V4.1zM31.3 14.5c0-1.8-.9-2.6-2.8-2.6s-3.6 1-3.6 3.7v6.1h-4.2V9h4v1.8c.8-1.1 2.7-2.2 5.2-2.2 2.2 0 5.4.8 5.4 4.6v8.5h-4.2v-7.2h.2zm14.4 4.1c1.8 0 4-.6 4-3.5s-2.2-3.5-4-3.5c-1.8 0-4 .6-4 3.5s2.2 3.5 4 3.5zM49.9 9h4v11.7c0 4.4-2.8 6.1-8.1 6.1-3.1 0-7.4-.4-7.8-4.2h4.4c.3 1 1.1 1.6 3.5 1.6 2.1 0 3.8-.5 3.8-3.6v-1c-1.2 1.3-3 1.9-5.1 1.9-5 0-7.2-3.1-7.2-6.3 0-3.5 2.2-6.3 7.6-6.3 1.8 0 3.7.5 4.8 1.9V9h.1zm6.5-4.5h4.2v2.9h-4.2V4.5zm0 4.5h4.2v12.7h-4.2V9zm66.8 8.8c.2 1.1.9 1.8 3.1 1.8 1.9 0 3-.5 3-1.4 0-.7-.4-1-2.4-1.3l-3.8-.5c-2.7-.4-4.2-1.2-4.2-3.6 0-3.4 3.5-4.3 6.9-4.3 5.8 0 7.2 1.9 7.5 4.3h-4.6c-.2-1.3-1.6-1.7-2.8-1.7-1.1 0-2.7.1-2.7 1.3 0 .6.3 1 2.1 1.2l2.9.3c4.2.4 5.6 1.7 5.6 3.9 0 3.8-4.2 4.3-7.8 4.3-4.8 0-7.2-1.4-7.5-4.4h4.7v.1zM74.9 14c0-.7-.9-2.9-3.9-2.9-3.3 0-4 2.5-4 2.8h7.9v.1zm4.1 3.9c-1.2 3-4.1 4.3-7.9 4.3-5 0-8.4-2-8.4-6.8s3.4-6.8 8.4-6.8c5.5 0 8.1 2.8 8.1 7.6v.4H67c0 1.2 1.2 3.1 4.1 3.1 1.7 0 2.9-.6 3.5-1.7H79v-.1zm5.9-.1c.2 1.1.9 1.8 3.1 1.8 1.9 0 3-.5 3-1.4 0-.7-.4-1-2.4-1.3l-3.8-.5c-2.7-.4-4.2-1.2-4.2-3.6 0-3.4 3.5-4.3 6.9-4.3 5.8 0 7.2 1.9 7.5 4.3h-4.6c-.2-1.3-1.6-1.7-2.8-1.7-1.1 0-2.7.1-2.7 1.3 0 .6.3 1 2.1 1.2l3 .4c4.2.4 5.6 1.7 5.6 3.9 0 3.8-4.2 4.3-7.8 4.3-4.8 0-7.2-1.4-7.5-4.4h4.6zM112.2 9h4.2v12.7h-4.2V9zm0-4.5h4.2v2.9h-4.2V4.5zm-7.4-1.9h4.2v19.2h-4.2V2.6zM10.2 8.5l-2.6 6.7h5.3l-2.7-6.7zm3.9 9.7H6.3l-1.4 3.5H0L7.4 4.9h5.5l7.4 16.9h-4.9l-1.3-3.6z" fill="#309F3B"/></svg>