<svg width="443" height="128" xmlns="http://www.w3.org/2000/svg"><path d="M394.1 127.46c26.84-.237 48.422-22.16 48.239-49-.184-26.842-22.063-48.467-48.905-48.338-26.841.13-48.51 21.966-48.434 48.808 0 27.04 22 48.53 49.1 48.53zm-233.3-.37c42.87 0 75.62-53 77.83-95.49H207c-3.49 27.41-12.32 46.92-23.92 56.67-.92.92-1.47.37-1.47-.37l-4.23-56.3h-31.1l8.28 90.71c.37 3.68 3.31 4.78 6.25 4.78h-.01zm102.86 0c42.87 0 75.62-53 77.82-95.49h-31.65c-3.5 27.41-12.33 46.92-23.92 56.67-.92.92-1.47.37-1.47-.37l-4.23-56.3h-31.1l8.28 90.71c.37 3.68 3.31 4.78 6.26 4.78h.01zM90.89 40.29c.92-.92 1.84-.73 1.84.37l2.76 37h-35.7c10.68-16.2 21.9-29.46 31.1-37.37zm303 59.25c-10.85 0-19.69-8.83-19.69-20.61s8.84-20.79 19.69-20.79c10.85 0 19.87 9 19.87 20.79s-9 20.61-19.87 20.61zm-294.74 27h34.22L122.72 5.88c-.37-5-4-6.44-10.3-5.71C70.1 5.33 17.85 75.61 0 126.58h34.4a191.32 191.32 0 0 1 9.75-21.71h53.36l1.64 21.67z" fill="#213448"/></svg>