<svg width="743" height="129" xmlns="http://www.w3.org/2000/svg"><path d="M38.9 41.2c4.1 4.2 8.2 8.5 12.2 12.7.4.4.8.5 1.3.3 4.6-1.9 9.2-3.7 13.8-5.5.6-.2.9-.6 1-1.2.8-4.9 1.6-9.8 2.3-14.7.1-.9.3-1.8.4-2.8-.2.1-.3.1-.4.1-5.3 1.8-10.6 3.5-15.9 5.3-.5.2-1.1.2-1.5.1l-7.2-1.8c-2.3-.6-4.5-1.1-6.8-1.7 0 .2-.1.2-.1.3.1 2.7.2 5.4.4 8.1 0 .2.3.6.5.8z"/><path d="M9.5 53.8c0 .2.1.4.1.5.7 4.2 1.3 8.5 2 12.7.9 6.2 1.7 11.7 2.7 17.8l.7 4.9c.3 2.1.7 4.1.9 6.1.1.9.4 1.4 1.3 1.8 7.7 3.2 16.9 7.4 26.1 11.3.3.1.5.2.7.4 0 0 1.5.6 2.4.1.5-.2.6-.4.9-.6l15-8.9 1.7-7.6c4.4-1 12.4-4.1 12.4-13.1 0-7.1-5.4-12.3-14.1-11.1 0 0 2.3-2.1 7.3-2.4.2 0 .3-.1.5-.1l.8-3.5c.1-.6.4-1 1-1.3 1.1-.5 3.5-1.6 4.6-2.2.2-.1.5-.2.5-.4.4-1.1.7-2.2 1.1-3.4-3.4 1.5-6.6 2.8-9.8 4.2-5.5 2.4-11.1 4.7-16.6 7.1-.5.2-.7.2-1.1-.2-.5-.7-1.1-1.4-1.7-2.1-5.5-6.7-11-13.3-16.5-20-1.4-1.7-2.8-3.3-4.2-5-8.5 4.6-17.6 9.4-26.1 14 .2.9.5 1.7.7 2.5 2.3-.4 4.5-1 6.7-1.5zm49.2 33.6c.7-.7 2.7-1.2 3.5-1.2.6 0 2.3-.1 3.3-.3L68 75c2 1.4 3.1 3.5 3.1 7.1 0 4.1-3.9 6-6.3 6.8-.4.1-.9.3-1.6.4-.7.2-1.4.3-2.1.2H61c-2-.1-3.3-.9-3.3-.9s.3-.5 1-1.2zM12.5 55.2c4.9-2.5 10.4-5.1 15.2-7.7.6-.3.9.1 1.2.4 4.3 4 8.6 8.1 13 12.1l4.3 4c.3.3.5.8.5 1.1-.2 5-.5 10.1-.8 15.1L45.3 91c-.2 4.9-.5 9.8-.7 14.7v1.1L18.7 95.7c-.5-.2-.7-.3-.9-.5-.2-.3-.3-.7-.4-.9-.4-2.6-.7-5.2-1.1-7.8l-2-14.5c-.6-4.6-1.3-9.3-1.9-13.9l-.3-2c-.1-.5 0-.7.4-.9z"/><path d="M30.1 75.8c2 .8 4.1 1.5 6.3 2.4v-5.9c0-.2-.2-.6-.4-.7-2-.8-4-1.5-6.1-2.2h-.2v5.7c0 .2.2.6.4.7zm5.9 4c-2-.8-4-1.5-6.1-2.3v2.8c0 1.1-.1 2.4.3 3 .5.7 1.8.9 2.7 1.3 1.1.4 2.2.8 3.5 1.4v-5.6c-.1-.2-.3-.5-.4-.6zM22.6 73c1.7.7 3.5 1.3 5.1 1.9V69c0-.2-.2-.5-.3-.5-1.8-.7-3.6-1.3-5.5-2 .1 2.1.3 4.1.4 6.1 0 .1.2.3.3.4zm-.2 1.8c.1 1.9.2 3.6.4 5.3 0 .2.2.6.4.6 1.6.7 3.2 1.3 4.8 1.9v-5.4c0-.2-.3-.5-.5-.6-1.6-.5-3.2-1.1-5.1-1.8zm51.7 16.3c4.3 3 6.8 5.9 6.8 10.6 0 9.8-18 18.3-40.2 18.3-22.2 0-38.9-8.5-38.9-18.3 0-2.3.9-4.5 2.4-6.5-2.4 2.6-3.8 5.4-3.8 8.4 0 11.4 18.3 21.5 42.5 21.5 25.6 0 43.7-10 43.8-21.4-.2-5.9-5.4-10.9-12.6-12.6zM56 23c-.2 2.3-1 4-1.9 5.1-.9 1.3-.7 1.5-.5 1.7.2.2 1.3.6 3.9-.9 1.8-1.1 3.5-3.3 3.8-6.9.8-9.9-11.8-9-10.9-18.7.1-1.3.5-1.8 0-2.2-.5-.5-1.4.3-1.4.3-1 .9-2 2.4-2.2 4.7-.9 10.6 9.6 11.5 9.2 16.9z"/><path d="M49.4 25.2c0 1.7-.6 1.7-.3 2 .3.3.7.2 1-.1.7-.6 1.4-1.4 1.5-2.8.2-4.8-5.5-4.1-6.1-8.4 0 0 0-.5-.4-.5s-.8.3-.8 1.7c0 5.4 5.2 4.7 5.1 8.1zm383.4 92.4c.8 0 1.5-.1 2.2-.2.6-.1 1.2-.4 1.7-.6.5-.3.9-.6 1.2-1 .3-.4.6-.9.7-1.4.2-.5.2-1.1.2-1.7 0-.7-.1-1.3-.2-1.7-.1-.5-.4-.9-.8-1.3s-1-.8-1.7-1.1c-.7-.3-1.6-.7-2.8-1-.1 0-.4-.1-.9-.2s-.8-.2-.9-.3c-2.8-.8-4.8-1.8-6-3-1.3-1.2-1.9-3-1.9-5.3 0-1.6.4-3 1.3-4.2.8-1.2 2-2 3.4-2.6 1.4-.6 3.1-.8 4.9-.8 3.9 0 6.9 1 8.9 3l-1.9 2.6c-.7-.7-1.6-1.2-2.7-1.7-1.2-.5-2.4-.7-3.8-.7-1.8 0-3.3.4-4.4 1.1-1.1.7-1.6 1.8-1.6 3.2 0 1 .1 1.7.4 2.3.3.6.7 1 1.4 1.4.7.4 1.7.8 3.1 1.3 0 0 .3.1.7.2.5.1.8.2.9.3 1.7.5 3.1 1 4.2 1.6 1.1.5 2 1.2 2.6 1.9.7.7 1.1 1.5 1.4 2.3.3.8.4 1.9.4 3.1 0 1.3-.3 2.5-.8 3.6-.5 1-1.2 1.9-2.1 2.5-.9.6-1.9 1.1-3.1 1.5-1.2.3-2.4.5-3.8.5-2.2 0-4.1-.4-5.8-1.1-1.7-.7-2.9-1.4-3.7-2.2l1.7-2.7c.8.7 2 1.3 3.3 1.9 1.3.2 2.8.5 4.3.5zm23.8 3.2c-1.5 0-2.9-.3-4.1-.9-1.2-.6-2.3-1.3-3.1-2.3-.8-1-1.4-2.1-1.8-3.4-.4-1.3-.6-2.6-.6-4.1 0-2 .4-3.8 1.2-5.4.8-1.6 1.9-2.9 3.4-3.9s3.2-1.4 5.1-1.4c1.4 0 2.8.4 3.9 1.1 1.2.7 2.1 1.6 2.7 2.7V100h3.6v20.3h-3.6v-3.5c-.6 1.2-1.4 2.2-2.6 2.9-1.2.7-2.6 1.1-4.1 1.1zm.5-3c2 0 3.6-.7 4.6-2.1 1.1-1.4 1.6-3.3 1.6-5.7 0-2.2-.5-4.1-1.6-5.5-1.1-1.4-2.6-2.1-4.6-2.1-2.1 0-3.7.7-4.8 2.1-1.1 1.4-1.7 3.2-1.7 5.5s.6 4.1 1.7 5.6 2.7 2.2 4.8 2.2zm21.8 2.5l-8.5-20.3h4c.5 1.2 1.2 3 2 5.2.9 2.2 1.7 4.3 2.4 6.1.7 1.8 1.4 3.6 2 5.2.6-1.7 1.2-3.4 1.9-5.3.7-1.8 1.5-3.9 2.3-6.1.9-2.2 1.5-4 2-5.2h3.9l-8.5 20.3h-3.5v.1zm24.7.5c-3.3 0-5.9-1-7.7-2.9-1.9-2-2.8-4.5-2.8-7.7s.9-5.8 2.8-7.8 4.5-3 7.7-3c3.3 0 5.8 1 7.7 2.9 1.8 2 2.7 4.6 2.7 7.8 0 3.1-.9 5.7-2.8 7.7-1.8 2-4.3 3-7.6 3zm0-3c2.1 0 3.8-.7 4.9-2.1 1.1-1.4 1.7-3.2 1.7-5.5s-.6-4.2-1.7-5.6c-1.1-1.4-2.8-2.1-4.9-2.1-2.1 0-3.8.7-4.9 2.1-1.2 1.4-1.7 3.3-1.7 5.6s.6 4.1 1.7 5.5c1.1 1.4 2.8 2.1 4.9 2.1zm16 2.5V105c0-.4 0-1.1-.1-1.9 0-.8-.1-1.6-.1-2.2l-.1-.9h3.9v3.2c1.2-2.4 3-3.6 5.4-3.6.8 0 1.4.1 2.1.2v3.2c-.8-.2-1.5-.3-2.2-.3-1.6 0-2.8.5-3.8 1.6s-1.4 2.7-1.4 4.7v11.3h-3.7zm28.4 8.6l-1.5-2.5c3.3-1.1 5.3-2.8 6.1-5.2l.3-1-8.3-20.2h3.8l6.3 16.3 5.9-16.3h3.7l-8.2 21.4c-.7 1.9-1.8 3.5-3.2 4.8-1.4 1.3-3 2.2-4.9 2.7zm29.5-8.1c-3.3 0-5.9-1-7.7-2.9-1.9-2-2.8-4.5-2.8-7.7s.9-5.8 2.8-7.8 4.5-3 7.7-3c3.3 0 5.8 1 7.7 2.9 1.8 2 2.7 4.6 2.7 7.8 0 3.1-.9 5.7-2.8 7.7-1.8 2-4.4 3-7.6 3zm0-3c2.1 0 3.8-.7 4.9-2.1 1.1-1.4 1.7-3.2 1.7-5.5s-.6-4.2-1.7-5.6c-1.1-1.4-2.8-2.1-4.9-2.1-2.1 0-3.8.7-4.9 2.1-1.2 1.4-1.7 3.3-1.7 5.6s.6 4.1 1.7 5.5c1 1.4 2.7 2.1 4.9 2.1zm23.4 3c-2.6 0-4.6-.7-5.9-2.2-1.3-1.5-2-3.5-2-6V100h3.6v12.6c0 1.7.4 3.1 1.2 3.9.8.9 2 1.3 3.6 1.3 1.8 0 3.2-.5 4.2-1.5s1.5-2.3 1.5-3.9V100h3.6v15.3c0 1.8.1 3.5.2 5h-3.7l-.1-3.3c-.6 1-1.4 1.9-2.4 2.6-.9.8-2.2 1.2-3.8 1.2zm17-.5V105c0-.4 0-1.1-.1-1.9 0-.8-.1-1.6-.1-2.2l-.1-.9h3.9v3.2c1.2-2.4 3-3.6 5.4-3.6.8 0 1.4.1 2.1.2v3.2c-.8-.2-1.5-.3-2.2-.3-1.6 0-2.8.5-3.8 1.6s-1.4 2.7-1.4 4.7v11.3h-3.7zm34.5.5c-1.8 0-3.3-.3-4.7-.8-1.3-.5-2.4-1.1-3.1-1.7l1-2.7c.8.6 1.7 1.1 2.9 1.5 1.2.4 2.4.7 3.6.7 2.7 0 4-1 4-3 0-.8-.3-1.5-.9-1.9-.6-.4-1.8-.9-3.6-1.5l-1.7-.6c-.7-.2-1.2-.5-1.7-.7-.5-.2-.9-.5-1.4-.8-.5-.3-.9-.7-1.2-1.1-.3-.4-.5-.8-.7-1.4-.2-.5-.3-1.1-.3-1.8 0-1 .2-1.8.6-2.6.4-.7 1-1.3 1.7-1.8.7-.4 1.5-.8 2.3-1 .8-.2 1.8-.3 2.7-.3 2.7 0 4.9.6 6.8 1.8l-1 2.6c-1.8-1-3.6-1.4-5.4-1.4-1.3 0-2.3.2-3 .7-.7.4-1.1 1.1-1.1 1.9 0 .7.2 1.3.6 1.6.4.4 1.3.8 2.6 1.2 1.2.4 1.8.6 2 .7.8.3 1.5.5 2 .8.5.2 1 .5 1.6.8.6.4 1 .7 1.3 1.1.3.4.6.9.8 1.4.2.6.3 1.2.3 2 0 1.1-.2 2-.6 2.8-.4.8-1 1.4-1.7 1.9s-1.5.8-2.3 1c-.6.4-1.5.6-2.4.6zm23.1-.5h-1.7c-2.9 0-4.9-.5-5.9-1.5-1.1-1-1.6-2.8-1.6-5.5v-10.9h-3.9V100h4v-5.2l3.6-1.1v6.3h5.5v2.4H670v11.1c0 .7 0 1.3.1 1.8.1.4.3.8.5 1.1.2.3.5.5 1 .7.5.1 1 .2 1.6.3.6.1 1.4.1 2.4.1v2.8h-.1zm13.6.5c-1.5 0-2.9-.3-4.1-.9-1.2-.6-2.3-1.3-3.1-2.3-.8-1-1.4-2.1-1.8-3.4-.4-1.3-.6-2.6-.6-4.1 0-2 .4-3.8 1.2-5.4.8-1.6 1.9-2.9 3.4-3.9s3.2-1.4 5.1-1.4c1.4 0 2.8.4 3.9 1.1 1.2.7 2.1 1.6 2.7 2.7V100h3.6v20.3h-3.6v-3.5c-.6 1.2-1.4 2.2-2.6 2.9-1.2.7-2.6 1.1-4.1 1.1zm.5-3c2 0 3.6-.7 4.6-2.1 1.1-1.4 1.6-3.3 1.6-5.7 0-2.2-.5-4.1-1.6-5.5-1.1-1.4-2.6-2.1-4.6-2.1-2.1 0-3.7.7-4.8 2.1-1.1 1.4-1.7 3.2-1.7 5.5s.6 4.1 1.7 5.6 2.7 2.2 4.8 2.2zm17.2 11.1l-1.5-2.5c3.3-1.1 5.3-2.8 6.1-5.2l.3-1-8.3-20.2h3.8l6.3 16.3 5.9-16.3h3.7l-8.2 21.4c-.7 1.9-1.8 3.5-3.2 4.8-1.3 1.3-3 2.2-4.9 2.7zM108 71.8V29.6h11.7c1.2 0 2.3 0 3.3.1 1 0 2.1.2 3.3.3 1.2.2 2.3.4 3.3.7.9.3 1.9.7 2.9 1.3 1 .5 1.8 1.2 2.4 1.9.6.7 1.1 1.7 1.5 2.8.4 1.1.6 2.4.6 3.8 0 4.2-1.9 7.2-5.6 9 2.5.7 4.4 1.9 5.6 3.8 1.3 1.9 1.9 4.1 1.9 6.6 0 1.6-.3 3.1-1 4.5-.6 1.4-1.6 2.7-2.8 3.8-1.2 1.1-2.9 2-4.9 2.7-2 .6-4.3 1-6.9 1H108v-.1zm7.4-24.7h6.3c1 0 1.9-.1 2.7-.3.8-.2 1.6-.5 2.4-.9.7-.4 1.3-1 1.8-1.8.4-.8.6-1.7.6-2.8 0-2.1-.7-3.5-2.2-4.3-1.4-.8-3.7-1.1-6.8-1.1h-4.8v11.2zm.1 18.4h6.6c5.9 0 8.9-2 8.9-5.9 0-2.5-.7-4.2-2-5.1-1.3-.9-3.7-1.4-7.1-1.4h-6.5v12.4h.1zm45.6 7c-5 0-8.9-1.4-11.8-4.3-2.9-2.9-4.3-6.6-4.3-11.2 0-2.1.3-4.1 1-5.9.7-1.9 1.7-3.5 2.9-5 1.3-1.4 2.9-2.6 4.8-3.4 1.9-.8 4.1-1.3 6.4-1.3 2.4 0 4.4.4 6.2 1.2 1.8.8 3.1 1.9 4.2 3.4 1 1.5 1.8 3.1 2.3 4.9.5 1.8.7 3.8.7 6 0 .6 0 1-.1 1.3h-20.9c.1 2.9 1 5 2.7 6.4 1.7 1.4 3.8 2.1 6.6 2.1 3.2 0 6.3-1.1 9.4-3.2l1.9 5.2c-1.9 1.3-3.8 2.2-5.7 2.9-1.9.6-4 .9-6.3.9zm-8.5-19.1h14.8c-.3-2.1-1.1-3.7-2.3-4.8-1.2-1.1-2.7-1.7-4.5-1.7-2.1 0-3.8.6-5.2 1.7-1.4 1.1-2.3 2.8-2.8 4.8zm40.5 19.1c-3.8 0-7.1-1.4-9.7-4.2-2.6-2.8-3.9-6.5-3.9-11.2 0-2.1.3-4.1.9-6 .6-1.9 1.5-3.5 2.6-5s2.6-2.6 4.4-3.5c1.8-.9 3.9-1.3 6.2-1.3 2 0 3.8.4 5.2 1.3 1.4.8 2.4 1.7 3 2.6V29.6h7.1v34.3l.3 7.9h-7.4l-.1-3.8c-.2.4-.5.9-.9 1.4-.4.5-.9.9-1.6 1.4-.7.5-1.6.9-2.6 1.2-1 .3-2.2.5-3.5.5zm1.5-5.8c1.3 0 2.5-.3 3.4-.8 1-.5 1.8-1.3 2.3-2.2.6-.9 1-2 1.3-3.1.3-1.1.4-2.3.4-3.6 0-2.9-.6-5.3-1.9-7.1-1.3-1.8-3.1-2.7-5.6-2.7-1.7 0-3.1.5-4.2 1.4-1.1.9-2 2.1-2.5 3.5s-.7 3-.7 4.9c0 1.3.1 2.6.4 3.7.3 1.1.7 2.2 1.3 3.1.6.9 1.4 1.7 2.3 2.2 1.1.4 2.2.7 3.5.7zm35.1 5.7c-2.9 0-5.4-.7-7.5-2-2.1-1.4-3.8-3.2-4.9-5.6-1.1-2.3-1.7-5-1.7-8 0-4.6 1.3-8.3 3.9-11.2 2.6-2.9 6-4.3 10.3-4.3 2.3 0 4.3.6 6.1 1.7 1.8 1.1 3.1 2.6 4 4.3V42h4.1v29.7h-4.1v-5.6c-.9 1.9-2.2 3.5-4 4.6-1.7 1.2-3.8 1.7-6.2 1.7zm.5-3.3c3.1 0 5.6-1.1 7.3-3.3 1.7-2.2 2.6-5.2 2.6-9 0-3.6-.9-6.5-2.6-8.7-1.7-2.2-4.2-3.3-7.3-3.3-3.2 0-5.8 1.1-7.6 3.3-1.8 2.2-2.7 5.1-2.7 8.7 0 3.7.9 6.7 2.7 9 1.8 2.1 4.3 3.3 7.6 3.3zm24.5 2.7V48.3c0-.8 0-1.8-.1-2.8 0-1-.1-1.9-.1-2.5l-.1-.9h4.1l.2 5.3c1-1.9 2.5-3.4 4.4-4.5 2-1.1 4.1-1.6 6.5-1.6 7.2 0 10.8 4.4 10.8 13.1v17.4h-4.1V54.4c0-3.3-.6-5.7-1.7-7.3-1.1-1.6-3-2.4-5.5-2.4-2.6 0-4.8.7-6.7 2.2-1.9 1.5-3.1 3.4-3.6 5.8v19.1h-4.1zm46.8.6c-4 0-7.3-1.4-9.8-4.2-2.5-2.8-3.7-6.6-3.7-11.3 0-4.7 1.2-8.4 3.7-11.3 2.5-2.8 5.8-4.3 10-4.3 2.5 0 4.6.6 6.5 1.8 1.9 1.2 3.3 2.7 4 4.5V28.3h4.1V64c0 1.3.1 3.9.2 7.7h-4.1l-.1-6c-.7 1.9-2 3.5-3.9 4.8-2 1.3-4.3 1.9-6.9 1.9zm.3-3.3c3.2 0 5.8-1.1 7.6-3.3 1.8-2.2 2.8-5.2 2.8-9 0-3.6-.9-6.5-2.8-8.7-1.9-2.2-4.4-3.3-7.6-3.3-3.1 0-5.5 1.1-7.2 3.3-1.7 2.2-2.6 5.1-2.6 8.8 0 3.7.8 6.7 2.5 8.9 1.9 2.2 4.2 3.3 7.3 3.3zm25 2.7V29.6h11.7c1.2 0 2.3 0 3.3.1 1 0 2.1.2 3.3.3 1.2.2 2.3.4 3.3.7.9.3 1.9.7 2.9 1.3 1 .5 1.8 1.2 2.4 1.9.6.7 1.1 1.7 1.5 2.8.4 1.1.6 2.4.6 3.8 0 4.2-1.9 7.2-5.6 9 2.5.7 4.4 1.9 5.6 3.8 1.3 1.9 1.9 4.1 1.9 6.6 0 1.6-.3 3.1-1 4.5-.6 1.4-1.6 2.7-2.8 3.8-1.2 1.1-2.9 2-4.9 2.7-2 .6-4.3 1-6.9 1h-15.3v-.1zm7.4-24.7h6.3c1 0 1.9-.1 2.7-.3.8-.2 1.6-.5 2.4-.9.7-.4 1.3-1 1.8-1.8.4-.8.6-1.7.6-2.8 0-2.1-.7-3.5-2.2-4.3-1.4-.8-3.7-1.1-6.8-1.1h-4.8v11.2zm0 18.4h6.6c5.9 0 8.9-2 8.9-5.9 0-2.5-.7-4.2-2-5.1-1.3-.9-3.7-1.4-7.1-1.4h-6.5v12.4h.1zm31.1 6.3V49.6c0-1.2 0-2.4-.1-3.6-.1-1.3-.2-2.2-.3-2.9l-.1-1h7.6V46c1.2-1.5 2.4-2.7 3.5-3.5 1.2-.8 2.5-1.2 4-1.2.9 0 1.9.1 3 .4V48c-1.3-.4-2.5-.6-3.6-.6-2 0-3.6.6-4.9 1.9-1.3 1.3-1.9 3.2-1.9 5.6v16.8h-7.2v.1zm36.9.7c-5 0-8.9-1.4-11.8-4.3-2.9-2.9-4.3-6.6-4.3-11.2 0-2.1.3-4.1 1-5.9.7-1.9 1.7-3.5 2.9-5 1.3-1.4 2.9-2.6 4.8-3.4 1.9-.8 4.1-1.3 6.4-1.3 2.4 0 4.4.4 6.2 1.2 1.8.8 3.1 1.9 4.2 3.4 1 1.5 1.8 3.1 2.3 4.9.5 1.8.7 3.8.7 6 0 .6 0 1-.1 1.3h-20.9c.1 2.9 1 5 2.7 6.4 1.7 1.4 3.8 2.1 6.6 2.1 3.2 0 6.3-1.1 9.4-3.2l1.9 5.2c-1.9 1.3-3.8 2.2-5.7 2.9-1.9.6-4 .9-6.3.9zm-8.5-19.1h14.8c-.3-2.1-1.1-3.7-2.3-4.8-1.2-1.1-2.7-1.7-4.5-1.7-2.1 0-3.8.6-5.2 1.7-1.4 1.2-2.3 2.8-2.8 4.8zm41.6 19.1c-2.4 0-4.6-.4-6.5-1.3-1.9-.9-3.4-2-4.6-3.5-1.2-1.4-2-3.1-2.6-4.8-.6-1.8-.9-3.6-.9-5.6 0-2.1.3-4 .9-5.9.6-1.9 1.5-3.6 2.7-5.1 1.2-1.5 2.8-2.7 4.7-3.6 2-.9 4.2-1.3 6.6-1.3 3.6 0 6.4 1.3 8.3 3.9v-3.2h7v29.7h-7.2v-4.1c-2.1 3.2-4.9 4.8-8.4 4.8zm.9-5.8c2.8 0 4.8-.9 6.1-2.7 1.3-1.8 1.9-4.1 1.9-7.1s-.7-5.4-2-7.2c-1.3-1.7-3.4-2.6-6.1-2.6-2.7 0-4.7.9-6.1 2.6-1.4 1.8-2.1 4.1-2.1 7.1s.7 5.3 2.1 7.1c1.3 1.9 3.4 2.8 6.2 2.8zm22.5 5.1V29.6h7.2v24.6l10.7-12.1h9.9l-14.2 14.4 15.1 15.4h-9.5l-12-12.9v12.9h-7.2v-.1zm34.4 0V46.9h-5.5v-4.8h5.5v-1.2c0-1.4 0-2.5.1-3.4.1-.9.2-1.8.4-2.7.2-.9.5-1.7.8-2.3.4-.6.8-1.1 1.4-1.7.6-.5 1.4-.9 2.2-1.2.9-.3 2-.5 3.2-.7 1.2-.2 2.7-.2 4.3-.2h1.5l-.3 5.6c-1.1 0-2 0-2.6.1-.6 0-1.2.1-1.8.3-.6.2-1 .4-1.2.6-.3.2-.5.6-.6 1.2-.2.6-.3 1.1-.3 1.7 0 .6-.1 1.4-.1 2.5v1.2h6.7v4.8h-6.7v24.9h-7v.2zm33.6.7c-2.4 0-4.6-.4-6.5-1.3-1.9-.9-3.4-2-4.6-3.5-1.2-1.4-2-3.1-2.6-4.8-.6-1.8-.9-3.6-.9-5.6 0-2.1.3-4 .9-5.9.6-1.9 1.5-3.6 2.7-5.1 1.2-1.5 2.8-2.7 4.7-3.6 2-.9 4.2-1.3 6.6-1.3 3.6 0 6.4 1.3 8.3 3.9v-3.2h7v29.7h-7.2v-4.1c-2.1 3.2-4.9 4.8-8.4 4.8zm.9-5.8c2.8 0 4.8-.9 6.1-2.7 1.3-1.8 1.9-4.1 1.9-7.1s-.7-5.4-2-7.2c-1.3-1.7-3.4-2.6-6.1-2.6-2.7 0-4.7.9-6.1 2.6-1.4 1.8-2.1 4.1-2.1 7.1s.7 5.3 2.1 7.1c1.4 1.9 3.4 2.8 6.2 2.8zm33.9 5.8c-2.6 0-5-.4-7.2-1.1-2.2-.7-3.9-1.6-5.2-2.6l1.8-5.2c1.2.9 2.8 1.7 4.6 2.3 1.9.6 3.6.9 5.4.9 1.6 0 2.8-.3 3.6-.8.8-.5 1.2-1.4 1.2-2.6v-.5c0-.6-.2-1.1-.7-1.6-.5-.4-1.6-.9-3.3-1.5l-4.2-1.4c-1.1-.3-2-.7-2.7-1-.7-.3-1.4-.7-2.2-1.1-.7-.5-1.3-1-1.7-1.5-.4-.6-.8-1.2-1-2-.3-.8-.4-1.7-.4-2.8 0-1.5.3-2.8.9-4 .6-1.1 1.4-2 2.4-2.7 1-.7 2.2-1.1 3.5-1.5 1.3-.3 2.7-.5 4.2-.5 1.9 0 3.8.2 5.7.7 1.9.5 3.6 1.2 5 2.1l-1.9 4.9c-1.2-.6-2.5-1.1-4.1-1.6-1.6-.4-3-.6-4.2-.6-1.6 0-2.8.2-3.6.6-.7.4-1.1 1.1-1.1 2 0 .6.1 1.1.3 1.4.2.3.7.7 1.4 1.1.7.4 1.9.8 3.5 1.4l3.9 1.3c1.5.5 2.8 1.1 3.7 1.7.9.6 1.7 1.5 2.3 2.6.6 1.1.9 2.6.9 4.3 0 1.3-.2 2.5-.7 3.6-.4 1.1-1 1.9-1.7 2.6-.7.7-1.5 1.2-2.5 1.7-1 .4-1.9.8-2.9.9-.9.4-1.9.5-3 .5zm34.3-.7h-2.9c-1.2 0-2.2 0-3-.1-.9-.1-1.7-.2-2.6-.4-.9-.2-1.7-.4-2.3-.8-.6-.3-1.2-.7-1.8-1.3-.6-.5-1-1.2-1.4-2-.3-.8-.6-1.7-.8-2.7-.2-1.1-.3-2.3-.3-3.6v-14h-6.2v-4.8h6.5v-7l6.9-2.1v9.1h7.8v4.8h-7.8v14.5c0 .9.1 1.7.2 2.2.1.6.4 1 .7 1.4.3.4.8.7 1.5.8.7.2 1.4.3 2.2.3.8.1 2 .1 3.4.1v5.6h-.1zm6.7 0v-5.7h5.7v5.7h-5.7zm28.3.6c-4.6 0-8.2-1.4-11-4.2-2.7-2.8-4.1-6.5-4.1-11 0-4.8 1.4-8.6 4.2-11.5 2.8-2.9 6.5-4.4 11.1-4.4 1.9 0 3.6.3 5.3.9 1.7.6 3 1.4 4.1 2.4l-1.4 2.8c-2.1-1.8-4.7-2.7-7.8-2.7-3.4 0-6.1 1.1-8.2 3.3-2 2.2-3.1 5.3-3.1 9.2 0 3.6 1 6.5 3 8.7 2 2.1 4.7 3.2 8.1 3.2 3.2 0 6.1-1 8.7-2.9l1.3 2.9c-1.2 1.1-2.7 1.9-4.5 2.5-1.8.5-3.7.8-5.7.8zm30 0c-4.7 0-8.4-1.4-11.1-4.2-2.7-2.8-4.1-6.5-4.1-11.2 0-4.7 1.4-8.5 4.1-11.4 2.7-2.9 6.4-4.3 11.1-4.3 4.7 0 8.4 1.4 11.1 4.3 2.7 2.9 4 6.7 4 11.4 0 4.6-1.4 8.4-4.1 11.2-2.6 2.8-6.3 4.2-11 4.2zm0-3.3c3.5 0 6.1-1.1 8-3.3 1.9-2.2 2.9-5.1 2.9-8.8 0-3.8-1-6.8-2.9-9s-4.6-3.3-8-3.3c-3.5 0-6.2 1.1-8.1 3.3-1.9 2.2-2.9 5.2-2.9 9 0 3.7 1 6.6 2.9 8.8 2 2.2 4.7 3.3 8.1 3.3zm20.9 2.7V48.1c0-1.7-.1-3.7-.2-6h4.1l.2 5.4c.9-2 2.3-3.5 4.1-4.5 1.8-1.1 3.9-1.6 6.2-1.6 2.4 0 4.3.6 5.9 1.8 1.6 1.2 2.7 2.9 3.4 5.2 1-2.3 2.5-4 4.5-5.2 2-1.2 4.1-1.8 6.6-1.8 3.3 0 5.9 1.1 7.6 3.2 1.7 2.1 2.6 5.2 2.6 9.2v18.1h-4.1v-18c0-3-.5-5.2-1.6-6.8-1.1-1.6-2.6-2.4-4.8-2.4-2.7 0-4.9.9-6.7 2.6-1.8 1.7-2.8 4-3.2 7v17.6h-4.1V53.7c0-2.8-.5-5-1.6-6.6-1.1-1.6-2.7-2.4-4.9-2.4-2.6 0-4.8.7-6.5 2.2-1.7 1.5-2.8 3.5-3.3 6v18.9h-4.2zm58.6-28.5c-.1-.1-.1-.2-.2-.3-.1-.1-.1-.2-.2-.4l-.3-.3c-.1-.1-.2-.2-.4-.3.3 0 .5-.1.6-.2.2-.1.3-.2.4-.3.1-.1.2-.3.2-.4 0-.1.1-.3.1-.4 0-.4-.2-.6-.4-.8-.3-.2-.7-.3-1.2-.3h-2v.5l.4.1v3.5l-.4.1v.4h1.7v-.4l-.4-.1v-1.5h.4c.2.1.3.2.4.3.1.1.2.3.3.4.1.1.1.3.2.5s.1.3.2.4c.1.1.2.2.2.3.1.1.2.1.4.1h.8v-.4c-.1 0-.2 0-.3-.1-.3-.2-.4-.3-.5-.4zm-1.5-1.7h-.7V40h.9c.1 0 .2.1.3.2.1.1.2.2.2.3 0 .1.1.2.1.4 0 .1 0 .2-.1.3 0 .1-.1.2-.2.3-.1.1-.2.1-.3.2 0-.1-.1-.1-.2-.1z"/><path d="M742.6 40.7c-.1-.3-.2-.7-.4-1-.2-.3-.4-.6-.6-.8-.2-.2-.5-.5-.8-.6-.3-.2-.6-.3-1-.4-.3-.1-.7-.1-1.1-.1-.4 0-.7 0-1.1.1-.3.1-.7.2-1 .4-.3.2-.6.4-.8.6-.2.2-.5.5-.6.8-.2.3-.3.6-.4 1-.1.3-.1.7-.1 1.1 0 .4 0 .7.1 1.1.1.3.2.7.4 1 .2.3.4.6.6.8.2.2.5.5.8.6.3.2.6.3 1 .4.3.1.7.1 1.1.1.4 0 .7 0 1.1-.1.3-.1.7-.2 1-.4.3-.2.6-.4.8-.6.2-.2.5-.5.6-.8.2-.3.3-.6.4-1 .1-.3.1-.7.1-1.1 0-.4 0-.7-.1-1.1zm-.6 2c-.1.3-.2.6-.3.8-.1.3-.3.5-.5.7-.2.2-.4.4-.7.6-.3.2-.5.3-.8.4-.3.1-.6.1-.9.1-.3 0-.6 0-.9-.1-.3-.1-.6-.2-.8-.4-.3-.2-.5-.3-.7-.6-.2-.2-.4-.5-.5-.7-.1-.3-.3-.5-.3-.8-.1-.3-.1-.6-.1-.9 0-.3 0-.6.1-.9.1-.3.2-.6.3-.8.1-.3.3-.5.5-.7.2-.2.4-.4.7-.6.3-.2.5-.3.8-.4.3-.1.6-.1.9-.1.3 0 .6 0 .9.1.3.1.6.2.8.4.3.2.5.3.7.6.2.2.4.5.5.7.1.3.3.5.3.8.1.3.1.6.1.9 0 .3 0 .6-.1.9z"/></svg>