<svg width="129" height="39" xmlns="http://www.w3.org/2000/svg"><g fill="none"><path d="M.6 5.8c.5-.1 1.1-.1 1.8-.2s1.5-.1 2.5-.1c.9 0 1.7.1 2.5.2s1.5.4 2.1.8c.6.3 1.1.8 1.4 1.4.3.6.5 1.3.5 2.2 0 .5-.1 1-.2 1.5l-.6 1.2c-.3.3-.6.6-.9.8-.3.2-.6.4-1 .4.3 0 .7.1 1.2.3.4.2.9.4 1.3.8.4.3.7.8 1 1.3.3.6.4 1.2.4 2 0 1.1-.2 1.9-.6 2.6-.4.7-.9 1.2-1.6 1.6-.7.4-1.5.6-2.3.8-.9.1-1.8.2-2.8.2-.8 0-1.5 0-2.2-.1-.7 0-1.6-.1-2.5-.2V5.8zm4.5 7.1c.4 0 .8 0 1.1-.1.3-.1.6-.2.9-.4.3-.2.5-.4.6-.8.2-.3.3-.7.3-1.2s-.1-.9-.3-1.1c-.2-.3-.4-.5-.6-.7-.3-.2-.6-.3-.9-.3-.3-.1-.7-.1-1-.1-.4 0-.8 0-1.1.1V13l1-.1zm-1 7.7c.2 0 .5.1.8.1h.8c.3 0 .7 0 1.1-.1.4-.1.7-.2 1-.4.3-.2.6-.4.8-.8.2-.3.3-.8.3-1.3s-.1-.9-.3-1.3c-.2-.3-.4-.6-.7-.8-.3-.2-.6-.3-1.1-.4-.4-.1-.9-.1-1.4-.1H4.1v5.1zm15.9 3c-1 0-1.9-.2-2.7-.5-.8-.3-1.4-.8-1.9-1.4-.5-.6-.9-1.3-1.1-2.1-.2-.8-.3-1.6-.3-2.6s.1-1.8.4-2.6c.3-.8.6-1.5 1.1-2.1.5-.6 1.1-1.1 1.9-1.4.8-.3 1.6-.5 2.7-.5 1 0 1.9.2 2.7.5.8.3 1.4.8 1.9 1.4.5.6.9 1.3 1.1 2.1.3.8.4 1.7.4 2.6 0 .9-.1 1.8-.4 2.6-.3.8-.6 1.5-1.1 2.1-.5.6-1.1 1.1-1.9 1.4-.9.3-1.8.5-2.8.5zm0-2.6c.9 0 1.6-.3 2-1 .4-.7.6-1.6.6-2.9 0-1.3-.2-2.2-.6-2.9-.4-.7-1.1-1-2-1-.9 0-1.5.3-1.9 1-.4.7-.6 1.6-.6 2.9 0 1.3.2 2.2.6 2.9.4.6 1 1 1.9 1zm13.4 2.6c-1 0-1.9-.2-2.7-.5-.8-.3-1.4-.8-1.9-1.4-.5-.6-.9-1.3-1.1-2.1-.3-.8-.4-1.6-.4-2.6s.1-1.8.4-2.6c.3-.8.6-1.5 1.1-2.1.5-.6 1.1-1.1 1.9-1.4.8-.3 1.6-.5 2.7-.5 1 0 1.9.2 2.7.5.8.3 1.4.8 1.9 1.4.5.6.9 1.3 1.1 2.1.3.8.4 1.7.4 2.6 0 .9-.1 1.8-.4 2.6-.3.8-.6 1.5-1.1 2.1-.5.6-1.1 1.1-1.9 1.4-.8.3-1.7.5-2.7.5zm0-2.6c.9 0 1.6-.3 2-1 .4-.7.6-1.6.6-2.9 0-1.3-.2-2.2-.6-2.9-.4-.7-1.1-1-2-1-.9 0-1.5.3-1.9 1-.4.7-.6 1.6-.6 2.9 0 1.3.2 2.2.6 2.9.3.6 1 1 1.9 1zm7.8-15.6c.6-.1 1.1-.1 1.7-.1.6 0 1.1.1 1.7.1v17.7c-.6.1-1.1.1-1.7.1-.6 0-1.1-.1-1.7-.1V5.4zm3.3 11.2l3.1-6c.6-.1 1.3-.1 1.9-.1.6 0 1.2.1 1.8.1l-3.2 5.8 3.7 6.8c-.7.1-1.3.1-1.9.1-.6 0-1.2-.1-1.8-.1l-3.6-6.6zm15.1-1.5c0-.4-.1-.7-.2-.9-.1-.3-.3-.4-.5-.6-.2-.1-.5-.2-.8-.3-.3-.1-.7-.1-1.1-.1-.9 0-1.8.2-2.8.5-.2-.4-.4-.8-.5-1.2-.1-.4-.2-.8-.2-1.3.7-.2 1.4-.4 2.1-.5.7-.1 1.4-.2 2-.1 1.7 0 3 .4 3.9 1.3.9.8 1.4 2.1 1.4 3.9l-.1 7.3c-.6.2-1.3.3-2.1.5s-1.7 0-2.7 0c-.8 0-1.6-.1-2.3-.3-.7-.1-1.3-.4-1.8-.8-.5-.3-.9-.8-1.1-1.3-.3-.5-.4-1.2-.4-2s.2-1.4.5-2c.3-.5.8-.9 1.3-1.3.5-.3 1.1-.5 1.8-.7.6-.1 1.3-.2 2-.2.5 0 1 0 1.6.1zm-.1 2.5c-.2 0-.4-.1-.6-.1h-.6c-.8 0-1.4.1-1.9.4-.5.3-.7.7-.7 1.4 0 .4.1.8.3 1 .2.2.4.4.6.5.3.1.5.2.8.2.3 0 .5 0 .8.1.3 0 .5 0 .7-.1.3 0 .4-.1.6-.1v-3.3zm6.5-4.1h-1.6l-.1-.5 4.5-5.8h.6v3.7h2.9c.1.3.1.5.1.6v1.2c0 .2-.1.4-.1.7h-2.9v4.9c0 .5 0 .9.1 1.2.1.3.2.6.4.7.2.2.3.3.6.4.2.1.5.1.8.1.3 0 .5 0 .7-.1.2 0 .4-.1.6-.1l.3.9c.1.3.1.6.1.9v.8c-.8.2-1.5.3-2.3.3-1.5 0-2.6-.3-3.4-1-.8-.7-1.2-1.8-1.2-3.3l-.1-5.6zm15.2 1.6c0-.4-.1-.7-.2-.9-.1-.2-.3-.4-.5-.6-.2-.1-.5-.2-.8-.3-.3-.1-.7-.1-1.1-.1-.9 0-1.8.2-2.8.5-.2-.4-.4-.8-.5-1.2-.1-.4-.2-.8-.2-1.3.7-.2 1.4-.4 2.1-.5.7-.1 1.4-.2 2-.1 1.7 0 3 .4 3.9 1.3.9.8 1.4 2.1 1.4 3.9l-.1 7.3c-.6.2-1.3.3-2.1.5s-1.7.2-2.7.2c-.8 0-1.6-.1-2.3-.3-.7-.1-1.3-.4-1.8-.8-.5-.3-.9-.8-1.1-1.3-.3-.5-.4-1.2-.4-2s.2-1.4.5-2c.3-.5.8-.9 1.3-1.3.5-.3 1.1-.5 1.8-.7.7-.2 1.3-.2 2-.2.5 0 1 0 1.6.1v-.2zm0 2.5c-.2 0-.4-.1-.6-.1H80c-.8 0-1.4.1-1.9.4-.5.3-.7.7-.7 1.4 0 .4.1.8.3 1 .2.2.4.4.6.5.3.1.5.2.8.2.3 0 .5 0 .8.1.3 0 .5 0 .7-.1.3 0 .4-.1.6-.1v-3.3zm5.8-12c.6-.1 1.1-.1 1.7-.1.6 0 1.1.1 1.7.1V12c.3-.4.6-.8 1.2-1.1.6-.3 1.2-.4 2-.4.7 0 1.4.1 2 .4.6.3 1.2.6 1.6 1.2.4.5.8 1.2 1.1 2 .3.8.4 1.7.4 2.8 0 1.1-.2 2-.5 2.8-.3.8-.8 1.5-1.4 2.1-.6.6-1.4 1-2.3 1.3-.9.3-1.9.5-3 .5-.4 0-.7 0-1.1-.1-.4 0-.8-.1-1.2-.1-.4-.1-.8-.1-1.2-.2-.4-.1-.7-.2-1-.3V5.6zm3.4 15c.2.1.4.1.6.1h.7c1.1 0 1.9-.3 2.5-.9.6-.6.9-1.6.9-2.9 0-1.2-.2-2.1-.6-2.7-.4-.6-1-.9-1.9-.9-.6 0-1.2.2-1.6.6-.4.4-.6 1.1-.6 2v4.7zm10.2-14.9c.6-.1 1.1-.1 1.7-.1.6 0 1.1.1 1.7.1v12.7c0 .5 0 .9.1 1.2.1.3.1.6.3.7.1.2.3.3.5.4.2.1.4.1.7.1h.4c.2 0 .3 0 .4-.1.2.7.3 1.3.3 2v.4c0 .1 0 .2-.1.4-.3.1-.6.1-.9.2-.3.1-.7.1-1 .1-1.3 0-2.2-.3-3-1-.8-.7-1.1-1.8-1.1-3.3V5.7zm9.9 12.4c.1 1 .4 1.7 1 2.1.6.4 1.4.6 2.4.6.6 0 1.1-.1 1.7-.2.6-.1 1.1-.3 1.6-.4.2.3.3.7.5 1.2.1.4.2.9.2 1.5-1.3.5-2.7.7-4.3.7-1.2 0-2.2-.2-3-.5-.8-.3-1.5-.8-2-1.3-.5-.6-.9-1.3-1.2-2.1-.3-.8-.4-1.6-.4-2.6 0-.9.1-1.8.4-2.6.3-.8.6-1.5 1.1-2.1.5-.6 1.1-1.1 1.9-1.4.8-.3 1.6-.5 2.6-.5.9 0 1.6.2 2.3.5.7.3 1.3.7 1.7 1.3.5.5.8 1.2 1.1 1.9.3.7.4 1.5.4 2.4v.9c0 .3-.1.5-.1.7l-7.9-.1zm5-2.4c0-.8-.3-1.4-.6-1.9s-.9-.7-1.7-.7c-.8 0-1.4.2-1.8.7-.4.4-.7 1.1-.8 1.9h4.9z" fill="#FFF"/><path d="M122.1 4.9s-1.7-3.9-2.8-3.5c-4.7 1.8 2.7 11.9 2.7 11.9s7.8-6.4 5.7-9.8c-.6-.9-3.1-1.2-3.1-1.2l-2.5 2.6z" fill="#CE2029"/><path d="M122.5 5.9c-.2.2-.6.1-.6.1-.3-.1-.4-.3-.6-.9-.2-.8-.8-2.8-1.6-3-.1 0-.3-.1-.6.1-.4.3-.7.7-.8 1.4-.3 2.7 2.7 7.6 3.7 9 .1 0 .1-.1.1-.1 1.5-1.4 6.2-5.5 4.8-8.6-.2-.5-.6-.7-.9-.8-1-.3-2.8.3-3.6 2.7l-.1.2.2-.1zm-.5 7.9c-.8-.3-4.3-5.9-4.7-9.4-.2-2 .6-3 1.3-3.4.5-.3 1-.4 1.5-.2 1.1.4 1.7 1.8 2.1 3 1.1-1.8 3-2.5 4.4-2.1.7.2 1.3.7 1.6 1.4 1.8 4-3.2 8.4-5 10l-.4.4c-.1.1-.6.5-.8.3z" fill="#050509"/><path d="M67.7 35.5v.8h-.8v-7.4h.8v3.2c.3-.5 1-.9 1.7-.9 1.3 0 2.3 1 2.3 2.5v.1c0 1.5-.9 2.6-2.3 2.6-.8 0-1.4-.4-1.7-.9zm3.2-1.6c0-1.3-.7-2-1.5-2-.9 0-1.6.6-1.6 1.9v.1c0 1.3.7 1.9 1.7 1.9.8 0 1.4-.7 1.4-1.9zm3.5 1.9l-2-4.5h.9l1.5 3.6 1.4-3.6h.8l-2.8 6.8h-.8l1-2.3zm6.6-6.3h1.2l2.1 5.4 2.1-5.4h1.2v6.9h-.8v-5.8l-2.3 5.8h-.3l-2.4-5.8v5.8H81v-6.9zm8.1.2c0-.3.2-.5.5-.5s.5.2.5.5-.2.5-.5.5-.5-.2-.5-.5zm.2 1.6h.8v5h-.8v-5zm2.2 2.6c0-1.6 1.1-2.7 2.4-2.7 1 0 2 .5 2.2 1.8h-.8c-.1-.8-.7-1.1-1.4-1.1-.9 0-1.6.7-1.6 1.9v.1c0 1.2.7 1.9 1.6 1.9.7 0 1.4-.4 1.4-1.2h.7c-.1 1.1-1 1.9-2.2 1.9-1.3-.1-2.3-1.1-2.3-2.6zm6-5h.8v3.2c.2-.5.8-.9 1.6-.9 1 0 1.8.6 1.8 2v3.1h-.8v-3.1c0-.9-.4-1.3-1.2-1.3-.7 0-1.4.5-1.4 1.4v3h-.8v-7.4zm5.5 5c0-1.6 1-2.7 2.4-2.7 1.2 0 2.3.7 2.3 2.5v.3h-3.8c0 1.1.6 1.8 1.6 1.8.8 0 1.2-.3 1.3-.9h.8c-.2 1-1 1.5-2.1 1.5-1.5 0-2.5-1-2.5-2.5zm3.8-.6c-.1-1-.6-1.5-1.4-1.5-.8 0-1.4.6-1.5 1.5h2.9zm2.2-4.4h.8v7.4h-.8v-7.4zm2.5.8c0-.3.2-.5.5-.5s.5.2.5.5-.2.5-.5.5-.5-.2-.5-.5zm.1 1.6h.8v5h-.8v-5zm2.6 0h.8v.8c.2-.5.8-.9 1.6-.9 1 0 1.8.6 1.8 2v3.1h-.8v-3.1c0-.9-.4-1.3-1.2-1.3-.7 0-1.4.5-1.4 1.4v3h-.8v-5z" fill="#FFF"/></g></svg>