<svg width="191" height="40" viewBox="180 19 191 40" xmlns="http://www.w3.org/2000/svg"><path d="M276.338 29.933l2.778-4.33 3.152 3.487c-.959 1.229-2.631 2.572-3.564 3.272 1.033 1.407 1.65 2.689 1.65 4.656 0 2.62-1.182 5.113-3.23 6.31 1.279 1.105 2.707 2.846 2.707 5.642-.038 5.092-3.881 9.559-9.367 9.559-4.26-.068-7.26-2.535-7.26-5.834 0-3.876 3.695-6.744 8.178-5.74 0 0 .06 2.765 0 4.02-1.842-.237-3.79.546-3.79 1.66 0 .843.61 1.63 3.478 1.63 2.525 0 4.415-2.197 4.453-5.062 0-2.422-1.291-3.568-2.597-4.305-.619.098-1.233.19-1.913.2-4.786-.007-9.024-3.25-9.093-7.825-.06-4.761 3.86-8.72 9.102-8.728 2.219-.003 4.132.562 5.316 1.388zm-91.205-5.747c-1.132.03-2.306.3-3.575.577l-1.154-4.122c10.75-3.543 20.998-.959 21.126 4.025.069 2.657-1.164 4.724-3.681 6.605 4.12 1.29 6.674 3.94 7.215 8.418.984 8.358-7.319 16.576-22.42 13.704.164-1.606.396-4.27.396-4.27.933.127 1.802.361 2.681.403l-.588-25.34zm150.124 7.95c.096-3.824.048-5.66.115-7.367-1.599-.09-4.64-.735-4.64-.735V20.16l9.255.302s-1.283 21.48-1.39 24.16c-.107 2.68.202 4.262 1.143 4.353.993.075 1.846-2.375 1.846-2.375l3.377 2.436s-2.665 4.197-5.17 4.064c-1.932-.14-3.678-1.023-4.303-3.414-1.457 1.59-3.424 2.433-5.856 2.365-4.787-.134-8.646-4.389-8.635-11.054.011-6.399 4.073-11.433 8.616-11.567 2.41 0 4.573 1.212 5.642 2.708zM287.705 23.9c-2.412.121-3.913.326-3.913.326l-.813-4.338s14.82-.832 24.54-.289c-.223 2.685.35 9.054.35 9.054l-4.53.256s-.178-2.605-.144-5.098c-2.15-.35-6.342-.344-10.828-.167l.143 8.71 4.15-.048-.066-4.332 4.451-.048.367 13.737-4.579.175-.125-5.234-4.246.144.095 10.872c2.086.051 4.271.23 6.506.363l.367 3.733s-13.239.365-14.807.495c-.225-1.468-.27-4.722-.27-4.722s1.557-.055 3.871-.023l-.519-23.566zm55.653 17.059c.012-6.442 4.177-11.49 9.663-11.546 6.322-.064 10.366 4.217 10.417 11.409.043 6.107-4.667 11.443-10.196 11.309-5.529-.135-9.897-4.462-9.884-11.172zM212.195 29.824l.038 1.72s1.139-2.04 5.005-2.04c2.828 0 5.178 1.808 5.178 4.7 0 1.607-.976 3.47-3.002 3.493-1.797.02-3.15-1.311-3.183-2.616-.032-.911.118-1.81.696-2.213-1.035-.328-4.427 1.293-4.252 5.537.174 4.243.175 7.737.24 9.348 1.344-.05 4.056.572 4.056.572l.005 3.566-11.638.178-.053-3.782s2.178-.42 3.25-.438c.114-2.192-.142-13.65-.142-13.65-1.692-.21-3.652-.815-3.652-.815l.274-3.522 7.18-.038zm34.536 2.23l-.372-2.413-8.737.358.193 3.314c1.752.737 4.715.972 4.715.972l.168 13.157s-2.72.24-3.504.71l-.043 3.723s9.305-.292 10.83.024l.085-3.73c-.614-.306-2.685-.637-2.685-.637l-.115-8.45c-.002-3.174 2.44-5.83 4.953-5.948 2.163-.042 2.076 2.824 2.19 5.054 0 2.23-.1 8.377-.422 13.788 3.142.019 7.816.025 7.816.025l.294-3.805s-2.294-.518-3.158-.472c.19-2.565.111-6.532.025-10.185-.129-5.505-2.027-9.003-5.736-9.01-4.1.082-6.497 3.525-6.497 3.525zm74.963 19.905l-12.426-.048s-.114-2.382.048-3.695c1.44-.482 3.644-.83 3.644-.83l-.144-13.034s-4.093-.555-4.827-.941l.096-3.467 9.102-.175s.078 15.718.24 17.49c1.767.108 4.267.765 4.267.765v3.935zm-83.559-.069l-12.903.115s-.085-2.603.076-3.916c1.44-.482 3.502-.801 3.502-.801l.018-13s-4.14-.67-4.875-1.056v-3.6l9.297-.128s.03 15.846.191 17.618c.865-.083 4.656.727 4.656.727l.038 4.041zm-48.004-2.518c6.263-.501 11.213-3.804 10.77-8.703-.497-5.519-5.279-6.887-8.858-5.738-.952.48-1.464.672-2.11.947l.198 13.494zm157.49-8.696c.007-4.384 2.57-6.823 5.71-6.914 3.445.047 6.07 2.345 5.973 7.138-.083 4.155-2.398 6.7-5.92 6.609-3.285-.092-5.773-2.268-5.764-6.833zm-21.9.243c.006-4.26 1.83-6.66 4.326-6.75 2.755.048 4.605 3.024 4.53 7.06-.075 3.514-1.558 6.265-4.489 6.176-2.646.007-4.374-2.477-4.367-6.486zm41.09 5.399c-1.502-.5-2.795-2.112-2.2-3.74.593-1.628 2.394-1.946 3.83-1.474 1.433.471 2.45 1.902 1.917 3.468-.532 1.566-2.046 2.246-3.547 1.746zm-100.263-9.065c-.029-1.916 1.46-4.327 4.619-4.331 2.962-.004 4.853 1.94 4.852 4.38 0 2.189-1.673 3.633-4.812 3.678-2.632-.004-4.625-1.54-4.659-3.727zm102.338 1.043c-1.535.41-3.51-.225-3.913-1.92-.402-1.693.932-2.956 2.396-3.353 1.464-.398 3.108.24 3.527 1.847.42 1.608-.474 3.016-2.01 3.426zM189.92 31.585c3.673-1.326 6.56-4.622 6.56-6.136 0-1.514-2.518-2.166-6.61-1.835l.05 7.97zm176.772-1.474c-.912 1.335-2.857 2.155-4.29 1.115-1.435-1.04-1.244-2.898-.378-4.176.865-1.277 2.556-1.875 3.945-.914 1.39.96 1.635 2.64.723 3.975zm-6.713-4.55c-.229 1.613-1.62 3.221-3.38 2.921-1.76-.3-2.416-2.065-2.204-3.606.212-1.54 1.473-2.835 3.158-2.586 1.685.249 2.655 1.657 2.426 3.27zm-133.532-1.547c-.154-1.833 1.06-3.675 3.028-3.744 2.119-.075 3.31 1.542 3.415 3.23.1 1.608-1.042 3.513-3.005 3.553-1.962.041-3.282-1.178-3.438-3.039zm84.143.095c-.126-2.2 1.165-3.867 3.056-3.953 2.033-.04 3.204 1.5 3.377 3.392.126 1.703-1.347 3.255-2.967 3.372-1.62.117-3.34-.944-3.466-2.81z" fill="#01B1E7" fill-rule="evenodd"/></svg>