<svg width="163" height="40" xmlns="http://www.w3.org/2000/svg"><path d="M46.724 28.103c-.066-.261-.362-.524-.689-.358-.788.358-2.297.749-3.442.749-5.445 0-7.74-4.26-7.74-9.048 0-4.098 1.641-8.13 6.265-8.13 1.704 0 2.72.422 2.915 1.506l.332 1.803c.064.294.261.426.489.426h1.282c.294 0 .458-.165.458-.459V9.575c0-.262-.197-.521-.428-.587-1.18-.328-3.213-.528-4.328-.528-6.95 0-12.164 4.464-12.164 11.642 0 6.691 4.854 11.576 11.77 11.576 2.232 0 4.463-.72 5.412-1.115.231-.099.294-.427.231-.687l-.363-1.773zm13.017-2.066c0 1.277-1.018 2.655-2.821 2.655-1.54 0-2.62-.982-2.62-2.391 0-1.77 1.309-3.179 5.144-3.179.229 0 .297.063.297.291v2.624zm6.295 3.019c-.029-.329-.228-.431-.491-.364-.261.069-.526.136-.758.136-.554 0-.849-.395-.849-1.021v-7.803c0-4.46-2.556-6.164-6.653-6.164-2.005 0-4.103.36-5.608.984-.329.097-.395.357-.329.656l.392 1.965c.064.428.396.428.724.261a7.608 7.608 0 0 1 3.608-.917c2.099 0 3.706.757 3.706 2.821v.656c0 .167-.067.458-.332.458-5.047 0-9.311 1.606-9.311 6.165 0 2.724 1.902 4.69 4.853 4.69 2.593 0 4.034-1.183 5.051-2.265h.134c.129 1.347.85 2.265 2.62 2.265 1.147 0 2.624-.297 3.149-.49.197-.066.328-.198.294-.526l-.2-1.507zm8.037-9.281c0-1.64 1.343-2.654 3.015-2.654 2.69 0 3.835 2.687 3.835 5.541 0 2.751-1.014 5.935-4.227 5.935-1.74 0-2.623-.821-2.623-2.163v-6.659zm2.489 17.999c.295 0 .462-.159.462-.455v-.789c0-.228-.134-.456-.429-.489l-1.963-.266c-.299-.063-.56-.359-.56-1.019v-3.638c.361.035 1.244.101 1.804.101 6.194 0 9.641-3.838 9.641-9.544 0-4.722-2.723-7.805-6.525-7.805-2.459 0-4.036 1.312-5.181 2.494h-.134l-.198-1.834c-.031-.329-.193-.558-.558-.491l-5.343.52c-.296.036-.459.2-.459.495v.823c0 .226.1.425.427.489l1.509.23c.523.094.69.653.69 1.112v17.049c0 .659-.264.956-.561 1.019l-1.374.266c-.295.064-.429.262-.429.489v.788c0 .297.164.456.46.456h8.721v-.001zm22.367-9.342c-.035-.329-.264-.424-.556-.362-.656.197-1.312.362-2.003.362-1.834 0-2.753-1.245-2.753-3.02v-7.836c0-.229.163-.358.459-.358h4.1c.128 0 .228-.197.228-.294v-2.035c0-.13-.1-.261-.228-.261h-4.2a.364.364 0 0 1-.359-.361v-3.473c0-.365-.101-.593-.524-.462l-3.217.954c-.358.132-.456.392-.456.75v2.071c0 .259-.036.522-.429.522H86.99c-.129 0-.228.164-.228.294l-.198 1.868c-.033.265.032.428.231.428h2.163c.167 0 .36.13.36.358V26.4c0 3.312 2.296 5.215 5.511 5.215 1.31 0 3.013-.33 4.063-.82.198-.103.328-.297.3-.622l-.263-1.741zm12.13-9.772c0 2.326-2.196 3.083-4.36 3.083-.458 0-.951-.033-1.344-.068-.325-.031-.394-.101-.394-.426-.065-2.062.952-5.15 3.611-5.15 1.341.002 2.487 1.119 2.487 2.561m3.477 9.212a.466.466 0 0 0-.686-.293c-.821.428-2.001.95-3.74.95-2.292 0-4.821-1.507-4.981-4.066-.036-.329.13-.395.391-.36.688.031 1.411.064 2.165.064 3.441 0 7.606-1.506 7.606-5.279 0-3.309-3.017-5.146-6.165-5.146-4.721 0-8.624 3.671-8.624 8.95 0 5.345 2.984 8.984 8.916 8.984 1.806 0 3.84-.457 5.219-1.28a.595.595 0 0 0 .297-.653l-.398-1.871zm12.231 3.348c.296 0 .46-.167.46-.458v-.788c0-.23-.095-.429-.427-.495l-1.967-.261c-.296-.032-.558-.36-.558-1.017v-7.574c0-1.703 1.477-2.754 3.082-2.754.624 0 1.475.133 2.001.328.327.098.623-.098.657-.328l.654-3.083c.067-.36 0-.558-.228-.655-.427-.198-1.018-.265-1.542-.265-2.134 0-3.64 1.379-4.853 3.216h-.135l-.291-2.493c-.034-.361-.163-.589-.526-.555l-5.345.555c-.294.033-.457.197-.457.493v.789c0 .226.097.425.426.489l1.574.265c.523.065.69.652.69 1.111v10.461c0 .657-.264.953-.559 1.018l-1.379.26c-.295.066-.425.264-.425.495v.786c0 .292.167.459.461.459l8.687.001zm14.592 0c.296 0 .461-.167.461-.458v-.788c0-.23-.096-.429-.428-.495l-1.965-.261c-.297-.032-.561-.36-.561-1.017v-7.574c0-1.703 1.479-2.754 3.084-2.754.622 0 1.478.133 2.002.328.326.098.618-.098.655-.328l.657-3.083c.067-.36 0-.558-.229-.655-.428-.198-1.017-.265-1.54-.265-2.136 0-3.643 1.379-4.854 3.216h-.135l-.292-2.493c-.036-.361-.167-.589-.528-.555l-5.344.555c-.292.033-.457.197-.457.493v.789c0 .226.096.425.424.489l1.577.265c.523.065.686.652.686 1.111v10.461c0 .657-.262.953-.56 1.018l-1.375.26c-.295.066-.425.264-.425.495v.786c0 .292.162.459.461.459l8.686.001zm15.284-5.183c0 1.277-1.019 2.655-2.823 2.655-1.539 0-2.623-.982-2.623-2.391 0-1.77 1.311-3.179 5.149-3.179.229 0 .297.063.297.291v2.624zm6.293 3.019c-.032-.329-.23-.431-.489-.364-.264.069-.526.136-.756.136-.558 0-.853-.395-.853-1.021v-7.803c0-4.46-2.556-6.164-6.657-6.164-2.001 0-4.1.36-5.608.984-.329.097-.392.357-.329.656l.394 1.965c.069.428.397.428.724.261a7.624 7.624 0 0 1 3.608-.917c2.097 0 3.702.757 3.702 2.821v.656c0 .167-.062.458-.325.458-5.051 0-9.312 1.606-9.312 6.165 0 2.724 1.903 4.69 4.855 4.69 2.586 0 4.029-1.183 5.047-2.265h.131c.13 1.347.854 2.265 2.627 2.265 1.145 0 2.619-.297 3.146-.49.198-.066.324-.198.293-.526l-.198-1.507z" fill="#FFF"/><path d="M.445 18.924h5.758a.434.434 0 0 0 .422-.334c.553-2.331 2.612-3.96 5.008-3.96s4.455 1.629 5.008 3.96a.435.435 0 0 0 .421.334h5.764a.433.433 0 0 0 .432-.434c0-.052-.04-.339-.043-.357C22.898 14.22 19.866 7.137 11.886.142c-.163-.142-.417-.103-.58.039-.081.07-8.227 7.074-10.797 15.964-.158.466-.275.894-.359 1.3 0 0-.033.146-.066.399-.009.046-.069.592-.069.592a.433.433 0 0 0 .43.488z" fill="#88BDDF"/><path d="M22.825 21.185h-5.758c-.2 0-.375.136-.421.332a5.13 5.13 0 0 1-5.008 3.962 5.132 5.132 0 0 1-5.009-3.962.43.43 0 0 0-.421-.332H.444a.433.433 0 0 0-.433.433c0 .051.04.34.042.357.317 3.912 3.351 10.996 11.329 17.99.165.143.417.104.581-.037.081-.072 8.226-7.075 10.797-15.964.157-.468.274-.896.359-1.302 0 0 .032-.145.067-.398l.067-.594a.433.433 0 0 0-.428-.485z" fill="#59A3D2"/></svg>