<svg width="434" height="402" xmlns="http://www.w3.org/2000/svg" xmlns:xlink="http://www.w3.org/1999/xlink"><defs><path id="a" d="M.615.445h433.437v233.776H.615z"/></defs><g fill="none" fill-rule="evenodd"><g fill-rule="nonzero"><path d="M0 389.999c0 6.628 5.372 12 12 12h409.437c6.628 0 12-5.372 12-12V180.224c0-6.628-5.372-12-12-12H12c-6.628 0-12 5.372-12 12v209.775z" fill="#EFEFF0"/><path fill="#ABADAD" d="M280.928 32.107h-129.09V0h129.09z"/><path d="M433.438 232.77H0V64.212h121.074l-.004-32.106L151.838 0l.01 64.213h129.076L280.932 0l32.106 32.107-.008 32.106h120.408z" fill="#E3E4E5"/></g><g transform="matrix(1 0 0 -1 -2.615 402.444)"><mask id="b" fill="#fff"><use xlink:href="#a"/></mask><g mask="url(#b)" fill-rule="nonzero"><path d="M216.85 224.798s109.368 4.923 167.333-104.988h-176.63s-33.357 1.096-61.795-39.373c-8.2-16.955-16.947-34.455-7.106-68.9-14.218 24.056-75.465 130.69-75.465 130.69s43.203 78.2 153.663 82.571" fill="#E14C40"/><path d="M378.486-54.264s-50.434-97.162-174.606-92.388C219.2-120.14 292.215 6.3 292.215 6.3s17.63 28.336-3.183 73.196c-10.58 15.582-21.36 31.91-56.116 40.618 27.952.275 150.915-.018 150.915-.018s46.107-76.52-5.345-174.36" fill="#FFD24D"/><path d="M55.995-55.005s-58.929 92.27 7.302 197.413l88.281-152.99s15.724-29.433 64.985-33.84c18.783 1.371 38.31 2.54 63.227 28.28-13.733-24.338-75.479-130.683-75.479-130.683s-89.318-1.666-148.316 91.82" fill="#00AA60"/><path d="M133.64 37.482c0 45.697 37.048 82.75 82.755 82.75 45.704 0 82.748-37.053 82.748-82.75 0-45.71-37.044-82.759-82.748-82.759-45.707 0-82.755 37.048-82.755 82.759" fill="#FFF"/><path d="M151.504 37.482c0 35.833 29.053 64.886 64.89 64.886 35.829 0 64.886-29.053 64.886-64.886 0-35.839-29.057-64.89-64.885-64.89-35.838 0-64.891 29.051-64.891 64.89" fill="#577FC0"/><path d="M216.848 224.798s72.204 3.25 130.369-54.485c-.956 0-198.612-.636-262.112-.636 22.967 22.99 65.123 52.482 131.743 55.121" fill="#D6483E"/></g></g></g></svg>