<svg width="708" height="103" xmlns="http://www.w3.org/2000/svg"><path d="M441 29.37c-16.79 0-23.33 4.52-23.33 9.71a9.86 9.86 0 0 0 2.91 7c2.21-1.42 8.47-5 18.55-5 12.69 0 17.16 6 17.16 12.49v1.93C427 58.6 411.9 64.14 411.9 81.71c0 12 9 21 21.65 21 12.65 0 19.9-6.62 23.1-9.54v8.06h12.82V53.12c0-15.65-11.3-23.75-28.47-23.75zm15.29 52.55C450.43 88 444.44 91 436.77 91c-7.45 0-11.36-4.76-11.36-9.75 0-7.23 5.77-13.31 30.92-15.74l-.04 16.41zm215.28-52.55c-16.79 0-23.33 4.52-23.33 9.71a9.86 9.86 0 0 0 2.91 7c2.21-1.42 8.47-5 18.55-5 12.69 0 17.16 6 17.16 12.49v1.93c-29.37 3.1-44.43 8.64-44.43 26.21 0 12 9 21 21.65 21 12.65 0 19.9-6.62 23.1-9.54v8.06H700V53.12c0-15.65-11.3-23.75-28.43-23.75zm15.29 52.55C681 88 675 91 667.3 91c-7.45 0-11.36-4.76-11.36-9.75 0-7.23 5.77-13.31 30.92-15.74v16.41zM257.48 16.68a8.38 8.38 0 0 1-8.41-8.27A8.51 8.51 0 0 1 257.48 0a8.38 8.38 0 0 1 8.27 8.41 8.25 8.25 0 0 1-8.27 8.27zm-6.64 84.58V30.85H264v70.41h-13.16zM119.39 71.8c19.55 0 45.43-3 45.43-23.61 0-10.32-8.61-18.82-23.06-18.82-24.39 0-36.13 17.14-36.13 37.78 0 19.8 12.78 35.58 35.58 35.58 12.69 0 22.17-3.45 22.17-10.66a10.38 10.38 0 0 0-2.66-6.55A33.63 33.63 0 0 1 142 91c-14.93 0-21.1-9.65-22.61-19.2zm-.09-10.2c.57-10.36 7.27-21 21.81-21 6.5 0 10.4 3.71 10.4 8.2 0 10.07-18.33 12.8-32.21 12.8zm115.5 37.57a80.8 80.8 0 0 1-23.55 3.58c-27.1 0-37.56-15.12-37.56-35.44 0-25.68 14.61-38 31.15-38a37.89 37.89 0 0 1 17 3.71V1.66h13l-.04 97.51zM221.82 45a30.12 30.12 0 0 0-14.61-3.94c-12.14 0-20.47 8.43-20.47 25.84 0 15.5 7.79 24.07 24.51 24.07a37.38 37.38 0 0 0 10.57-1.51V45zM13.74 66c0-16.38 8.54-24.9 21.46-24.9a34.06 34.06 0 0 1 18.29 5 10 10 0 0 0 2.9-7c0-4.66-5.51-9.71-21.72-9.71C15.77 29.37 0 42.07 0 66.13c0 23.47 14.33 36.61 33.22 36.61a54.83 54.83 0 0 0 23-5V84.69C53.36 86.66 44.09 91 35.39 91 23 91 13.74 82.53 13.74 66zm371.65-.65a113.33 113.33 0 0 0 21.45-35l-12.14-4.48c-7.74 20.34-19.32 34-33.29 45.32V1.66h-13.14v99.6h13.13v-14.7a144.55 144.55 0 0 0 14.52-11.79l12 20.29c3 5 7 7.68 13 7.68a12.15 12.15 0 0 0 6.09-1.47l-21.62-35.92zM80.52 39.81c0-6.92-3.89-10.43-9.15-10.43a10.86 10.86 0 0 0-3.77.7v71.18h13.15V59.63c3.73-8.84 12.55-17 24.21-17V29.37c-12.46 0-19.59 6-24.43 15l-.01-4.56zm418 0c0-6.92-3.89-10.43-9.15-10.43a10.86 10.86 0 0 0-3.77.7v71.18h13.14V59.63c3.73-8.84 12.55-17 24.21-17V29.37c-12.46 0-19.59 6-24.43 15v-4.56zm45.9.29v-.29c0-6.92-3.67-10.43-8.92-10.43a10.86 10.86 0 0 0-3.77.7v71.18h13.14V52.55c3.91-5.29 11.82-11.47 18.75-11.47 7.68 0 11.51 5 11.51 12.2v48h13.14V52.55c4.53-6.12 11.82-11.47 18.75-11.47 7.68 0 11.51 5 11.51 12.2v48h13.14V52.55c0-13.26-6-23.18-22.24-23.18-9.89 0-17.2 5.3-23.13 11.77-2-4.74-6.47-11.77-20.31-11.77-9.35 0-16.24 4.98-21.53 10.73h-.04zM280.16 13.88v68.18c0 13.52 8.42 20.68 20.82 20.68a43.82 43.82 0 0 0 12.41-1.94V89.62a32.64 32.64 0 0 1-9.52 1.4c-7.25 0-10.57-4.52-10.57-10.46V41.92h18.24V30.85H293.3v-7.24c0-6.92-4.12-10.43-9.38-10.43a10.86 10.86 0 0 0-3.76.7zM690.79 16h6.48v1.34h-2.4v7.39h-1.68v-7.39h-2.4V16zm15.29 8.74a40.39 40.39 0 0 0-.67-7.13 14.49 14.49 0 0 0-2.14 5.26h-1a13.86 13.86 0 0 0-2.11-5.26 38 38 0 0 0-.67 7.13h-1.69a37.14 37.14 0 0 1 1-8.74h1.49a15.68 15.68 0 0 1 2.45 4.44 15.35 15.35 0 0 1 2.48-4.44h1.51a38.6 38.6 0 0 1 1 8.74h-1.65z" fill="#3DDB93"/></svg>