<svg xmlns="http://www.w3.org/2000/svg" width="106" height="50"><path d="M10.685 9.272c1.417.017 2.834.04 4.25.049 5.267.03 10.534.082 15.8.066 1.439-.004 2.877-.218 4.316-.333.322-.024.644-.035 1.05-.056l-.527 8.631c-.46 0-.895.033-1.32-.021-.131-.017-.29-.251-.34-.416-.331-1.089-.577-2.208-.958-3.278-.729-2.043-1.529-2.563-3.697-2.563-2.798 0-5.596-.003-8.394.001-.965.001-1.105.143-1.105 1.079-.003 3.404.01 6.808-.013 10.212-.004.569.146.79.74.759 1.976-.102 3.953-.166 5.93-.249.975-.042 1.534-.578 1.759-1.502.183-.746.408-1.483.536-2.238.092-.543.314-.775.872-.711.338.039.684.008.934.008v10.987c-.53 0-.997.048-1.445-.023-.17-.027-.372-.301-.431-.501-.184-.623-.289-1.269-.457-1.897-.331-1.231-.983-1.76-2.247-1.799-1.839-.059-3.68-.078-5.519-.146-.528-.019-.675.162-.671.679.021 2.937.001 5.876.014 8.813.006 1.743.842 2.693 2.573 2.73 2.725.056 5.456.067 8.18-.021 1.86-.061 3.073-1.195 3.829-2.837.448-.971.866-1.956 1.294-2.937.512-1.172.511-1.172 1.934-.977l-1.076 8.986H10.685v-1.68c.933-.184 1.871-.344 2.797-.558 1.115-.256 1.53-.786 1.561-1.902.039-1.394.099-2.787.107-4.183.022-3.583.04-7.166.024-10.749-.011-2.396-.075-4.79-.129-7.184-.026-1.136-.363-1.732-1.23-1.952-1.028-.261-2.084-.412-3.129-.61l-.001-1.677zm84.63 11.471c-3.07 1.211-2.607.792-3.921 3.873-2.124 4.987-4.199 9.996-6.338 14.977-1.078 2.516-2.398 4.894-4.401 6.821-1.36 1.312-2.932 2.205-4.831 2.456-.084.01-.155.083-.233.13h-2.518c-.84-.251-1.686-.487-2.521-.756-.57-.183-.729-.503-.567-1.161.367-1.486.615-3.005.863-4.519.065-.408.198-.581.602-.565.208.008.422-.004.626-.046.445-.089.625.093.699.53.151.918.328 1.831.533 2.738.231 1.02.731 1.422 1.774 1.414 1.571-.014 2.873-.698 4.009-1.729 1.189-1.077 2.078-2.385 2.786-3.814a.97.97 0 0 0 .018-.711 5974.381 5974.381 0 0 0-7.198-17.632c-.296-.721-.684-1.354-1.504-1.637-1.112-.381-1.103-.416-.889-1.653h10.147c0 .287.043.632-.019.957-.032.166-.228.373-.396.432-.436.152-.912.196-1.348.348-.897.314-1.284.99-.966 1.863 1.497 4.107 3.028 8.2 4.551 12.297.022.059.088.102.186.216.117-.225.228-.411.311-.608 1.6-3.816 3.205-7.632 4.791-11.457.442-1.065.107-1.788-.971-2.228-.151-.061-.31-.107-.463-.159-1.18-.39-1.18-.39-.994-1.777h8.184c-.002.467-.002.933-.002 1.4zm-38.88 12.426c.165-.05.209-.072.253-.074 1.231-.074 1.229-.074 1.676 1.084.259.674.505 1.35.793 2.014 1.011 2.32 4.699 3.174 6.644 1.546 1.439-1.202 1.39-3.617-.187-4.916-.729-.599-1.598-1.039-2.44-1.475-1.012-.525-2.085-.93-3.093-1.457-1.754-.918-3.198-2.138-3.483-4.25-.458-3.378 1.199-5.763 4.542-6.521 2.748-.625 5.462-.267 8.152.408.338.084.476.24.435.637-.147 1.389-.225 2.786-.372 4.173-.021.193-.289.502-.452.509-.406.017-.956.372-1.198-.278-.242-.653-.5-1.31-.648-1.988-.284-1.318-1.156-1.963-2.401-2.043-.909-.059-1.883-.041-2.745.215-1.949.581-2.56 2.724-1.193 4.231.634.702 1.515 1.22 2.359 1.682 1.224.669 2.535 1.174 3.773 1.815 1.612.834 3.031 1.934 3.5 3.785.805 3.173-.41 5.992-3.75 7.2-3.328 1.203-6.606.597-9.853-.415-.131-.04-.295-.246-.298-.375-.02-1.828-.014-3.663-.014-5.507zm-14.244-11.18h-3.64c-.042-.179-.081-.309-.102-.441-.11-.688.077-1.049.87-1.206 2.55-.505 3.943-2.302 4.792-4.61.224-.608.407-1.242.513-1.88.084-.517.33-.649.797-.604.317.03.642.005 1.038.005v6.314h6.51l-.286 2.667-6.219-.447v.8c0 3.496-.008 6.992.006 10.486.003.673.046 1.354.16 2.015.364 2.108 1.85 3.047 3.872 2.358.832-.281 1.566-.844 2.4-1.309.845.703.894 1.008.071 1.957-1.409 1.626-3.295 2.099-5.344 2.084a7.313 7.313 0 0 1-1.794-.225c-2.293-.601-3.634-2.425-3.64-4.927-.012-4.032-.003-8.063-.003-12.095l-.001-.942z" fill="#D56627"/></svg>