<svg width="176" height="48" xmlns="http://www.w3.org/2000/svg"><g fill="#FFF"><path d="M52.906 23.97C52.906 11.08 41.037.585 26.455.585S.004 11.08.004 23.97c0 12.892 11.869 23.396 26.45 23.396 14.583 0 26.452-10.494 26.452-23.396zM40.23 42.14c-1.257-.608-3.059-.712-4.054-.754-.167-.01-.314-.021-.419-.021-1.76-.136-3.74.304-5.196.618-.576.125-1.131.251-1.382.262-.86.041-1.928-.21-1.938-.21l-.168-.042-.168.032c-.66.125-.743.104-2.901-.796l-.241-.095c-2.933-1.214-7.333-3.089-7.993-3.445-.545-.293-3.876-3.456-5.468-5.048-.933-.942-2.525-2.586-2.525-2.586l-.073-.074-.095-.052a6.241 6.241 0 0 1-.87-.597l-.03-.345c-.011-.137.157-.252.23-.294.356-.21.964-.262 1.372.021.566.388 1.289.953 1.938 1.445.712.555 1.132.87 1.362 1.006.293.167 1.959 1.047 2.986 1.592-.283.45-.472.953-.367 1.529.115.67.618 1.256 1.519 1.8.754.556 3.258 1.593 6.233 1.32l.639.116c2.22.377 6.83 1.162 8.433 2.23a.744.744 0 0 0 .43.136.781.781 0 0 0 .43-1.435c-1.876-1.246-6.538-2.042-9.042-2.47l-.848-.148-.105.01a9.69 9.69 0 0 1-2.975-.167l-.021-.261c-.052-.765 0-1.98.063-2.87l.01-.157c1.247-.094 2.87 0 4.882.471 3.97.922 6.359-.24 7.26-.68.104-.053.178-.084.23-.105.052-.021 5.563-1.79 8.8-1.215 2.86.513 5.866 2.492 7.95 3.906-1.958 2.933-4.661 5.477-7.888 7.373zm-23.203-9.352a5 5 0 0 1 .859.094c-.042.65-.063 1.393-.053 2.021a6.36 6.36 0 0 1-1.298-.167c-.702-.42-.797-.68-.807-.744-.032-.199.262-.597.534-.932a3.02 3.02 0 0 1 .493-.251c.083-.01.178-.021.272-.021zm23.392-3.508c-3.667-.66-9.512 1.246-9.564 1.267-.095.031-.23.094-.42.188-.837.409-2.796 1.362-6.222.566-4.148-.974-7.029-.534-8.517.272-1.1-.586-3.058-1.613-3.341-1.78-.147-.084-.692-.513-1.174-.88-.66-.513-1.403-1.089-2-1.497-.87-.597-2.137-.629-3.06-.074-.502.304-.837.744-.953 1.236-.135.135-.23.306-.272.492-.052.262-.188.953 1.823 2.158.325.335 1.645 1.707 2.472 2.523.052.053 4.819 4.776 5.835 5.33.817.44 5.835 2.556 8.14 3.51l.24.104c2.138.89 2.609 1.089 3.636.921.345.074 1.141.23 1.927.23.105 0 .21 0 .314-.01.388-.02.933-.146 1.635-.293 1.35-.293 3.205-.702 4.735-.586.115.01.272.02.46.031.524.032 1.394.073 2.2.22-3.52 1.676-7.553 2.629-11.827 2.629-13.723 0-24.88-9.792-24.88-21.814C1.607 12 12.733 2.156 26.456 2.156s24.88 9.792 24.88 21.814c0 3.372-.87 6.556-2.43 9.404-2.19-1.476-5.343-3.54-8.486-4.094h-.001z"/><circle cx="25.753" cy="12.754" r="1.435"/><path d="M74.625 14.959h-9.97a.915.915 0 0 0-.899.923v14.42c0 .513.41.924.898.924a.92.92 0 0 0 .924-.924v-6.235h8.02a.832.832 0 0 0 .835-.834.832.832 0 0 0-.834-.834h-8.02v-5.772h9.06c.461 0 .833-.398.833-.86a.847.847 0 0 0-.847-.808zm8.688 3.964c-3.298 0-5.71 2.77-5.71 6.209v.051c0 3.695 2.669 6.21 5.941 6.21 2.028 0 3.362-.72 4.491-1.797.18-.166.283-.372.283-.577a.772.772 0 0 0-.783-.757.741.741 0 0 0-.5.205c-.873.809-1.964 1.386-3.427 1.386-2.117 0-3.94-1.45-4.196-4.041h8.61a.832.832 0 0 0 .835-.834c-.013-3.169-2.015-6.055-5.544-6.055zm-3.914 5.567c.231-2.321 1.797-4.053 3.876-4.053 2.374 0 3.618 1.898 3.798 4.066h-7.674v-.013zm18.569-5.465c-1.502 0-3.221 1.206-4.094 3.182v-2.232a.885.885 0 1 0-1.771 0v10.353c0 .513.398.898.899.898.513 0 .872-.411.872-.898v-4.054c0-3.438 1.887-5.17 4.197-5.44.462-.064.782-.41.782-.898-.013-.526-.359-.91-.885-.91v-.001zm9.06 1.72c.436 0 .808-.347.808-.783 0-.41-.372-.783-.808-.783h-3.08v-2.81a.91.91 0 0 0-.898-.897c-.5 0-.873.41-.873.898v2.81h-.962a.794.794 0 0 0-.783.782c0 .41.372.783.783.783h.962v7.196c0 2.425 1.45 3.374 3.362 3.374.693 0 1.245-.115 1.745-.32.296-.116.514-.372.514-.693a.767.767 0 0 0-.757-.757c-.142 0-.462.167-1.078.167-1.194 0-2.002-.526-2.002-1.989v-6.966h3.067v-.012zm4.979-6.248c-.578 0-1.04.372-1.04.95v.294c0 .552.462.95 1.04.95.603 0 1.065-.385 1.065-.95v-.295c-.013-.577-.475-.949-1.065-.949zm0 4.567c-.488 0-.873.41-.873.898v10.353c0 .513.398.898.898.898.514 0 .873-.398.873-.898V19.962c0-.5-.398-.898-.898-.898zm6.173-4.914c-.488 0-.873.411-.873.899v15.279c0 .513.397.898.898.898.513 0 .873-.398.873-.898v-15.28a.9.9 0 0 0-.899-.897l.001-.001zm6.172 4.914c-.488 0-.873.41-.873.898v10.353c0 .513.398.898.898.898.514 0 .873-.398.873-.898V19.962c0-.5-.398-.898-.898-.898zm0-4.567c-.578 0-1.04.372-1.04.95v.294c0 .552.462.95 1.04.95.603 0 1.065-.385 1.065-.95v-.295c-.013-.577-.475-.949-1.065-.949zm10.612 6.248c.437 0 .809-.347.809-.783 0-.41-.372-.783-.809-.783h-3.08v-2.81a.91.91 0 0 0-.898-.897c-.513 0-.872.41-.872.898v2.81h-.963a.794.794 0 0 0-.783.782c0 .41.373.783.783.783h.963v7.196c0 2.425 1.45 3.374 3.362 3.374.693 0 1.245-.115 1.745-.32.295-.116.513-.372.513-.693a.767.767 0 0 0-.757-.757c-.141 0-.462.167-1.078.167-1.193 0-2.002-.526-2.002-1.989v-6.966h3.067v-.012zm13.526-1.681c-.462 0-.719.295-.847.667l-3.683 9.39-4.145-9.364c-.167-.398-.41-.693-.898-.693-.5 0-.899.398-.899.872 0 .167.052.321.116.488l4.979 10.57-.09.18c-.641 1.45-1.283 2.117-2.4 2.117-.603 0-.95-.09-1.296-.205a1.261 1.261 0 0 0-.436-.09.77.77 0 0 0-.757.77c0 .41.282.641.552.757.59.205 1.168.346 1.95.346 1.797 0 2.952-.898 3.991-3.374l4.659-11.123c.05-.14.09-.295.09-.436a.893.893 0 0 0-.886-.872zm5.415-4.221a.915.915 0 0 0-.898.924v14.535c0 .513.41.924.898.924a.92.92 0 0 0 .924-.924V15.767a.92.92 0 0 0-.924-.924zM175.4 22.99c0-4.452-3.298-8.3-8.2-8.3-4.902 0-8.251 3.9-8.251 8.35v.052c0 4.452 3.297 8.313 8.2 8.313 1.976 0 3.708-.641 5.068-1.706l1.566 1.411c.205.18.41.295.693.295.513 0 .898-.41.898-.898 0-.32-.14-.551-.372-.757l-1.514-1.295a8.551 8.551 0 0 0 1.912-5.427v-.038zm-1.886.09c0 1.616-.488 3.065-1.36 4.22l-2.465-2.258c-.205-.18-.385-.295-.693-.295a.915.915 0 0 0-.898.924c0 .32.141.526.398.744l2.438 2.104c-1.014.757-2.297 1.206-3.734 1.206-3.683 0-6.352-3.002-6.352-6.671v-.052c0-3.669 2.63-6.62 6.313-6.62s6.353 3.003 6.353 6.672v.026z"/></g></svg>