<svg width="113" height="21" xmlns="http://www.w3.org/2000/svg"><path d="M11.625.959h-9.97a.915.915 0 0 0-.899.923v14.42c0 .513.41.924.898.924a.92.92 0 0 0 .924-.924v-6.235h8.02a.832.832 0 0 0 .835-.834.832.832 0 0 0-.834-.834h-8.02V2.627h9.06c.461 0 .833-.398.833-.86a.847.847 0 0 0-.847-.808zm8.688 3.964c-3.298 0-5.71 2.77-5.71 6.209v.051c0 3.695 2.669 6.21 5.941 6.21 2.028 0 3.362-.72 4.491-1.797.18-.166.283-.372.283-.577a.772.772 0 0 0-.783-.757.741.741 0 0 0-.5.205c-.873.809-1.964 1.386-3.427 1.386-2.117 0-3.94-1.45-4.196-4.041h8.61a.832.832 0 0 0 .835-.834c-.013-3.169-2.015-6.055-5.544-6.055zm-3.914 5.567c.231-2.321 1.797-4.053 3.876-4.053 2.374 0 3.618 1.898 3.798 4.066h-7.674v-.013zm18.569-5.465c-1.502 0-3.221 1.206-4.094 3.182V5.975a.885.885 0 0 0-.898-.898c-.488 0-.873.41-.873.898v10.353c0 .513.398.898.899.898.513 0 .872-.411.872-.898v-4.054c0-3.438 1.887-5.17 4.197-5.44.462-.064.782-.41.782-.898-.013-.526-.359-.91-.885-.91zm9.06 1.72c.436 0 .808-.347.808-.783 0-.41-.372-.783-.808-.783h-3.08V2.37a.91.91 0 0 0-.898-.897c-.5 0-.873.41-.873.898v2.81h-.962a.794.794 0 0 0-.783.782c0 .41.372.783.783.783h.962v7.196c0 2.425 1.45 3.374 3.362 3.374.693 0 1.245-.115 1.745-.32.296-.116.514-.372.514-.693a.767.767 0 0 0-.757-.757c-.142 0-.462.167-1.078.167-1.194 0-2.002-.526-2.002-1.989V6.757h3.067v-.012zM49.007.497c-.578 0-1.04.372-1.04.95v.294c0 .552.462.95 1.04.95.603 0 1.065-.385 1.065-.95v-.295c-.013-.577-.475-.949-1.065-.949zm0 4.567c-.488 0-.873.41-.873.898v10.353c0 .513.398.898.898.898.514 0 .873-.398.873-.898V5.962c0-.5-.398-.898-.898-.898zM55.18.15c-.488 0-.873.411-.873.899v15.279c0 .513.397.898.898.898.513 0 .873-.398.873-.898V1.048a.9.9 0 0 0-.899-.897zm6.172 4.914c-.488 0-.873.41-.873.898v10.353c0 .513.398.898.898.898.514 0 .873-.398.873-.898V5.962c0-.5-.398-.898-.898-.898zm0-4.567c-.578 0-1.04.372-1.04.95v.294c0 .552.462.95 1.04.95.603 0 1.065-.385 1.065-.95v-.295c-.013-.577-.475-.949-1.065-.949zm10.612 6.248c.437 0 .809-.347.809-.783 0-.41-.372-.783-.809-.783h-3.08V2.37a.91.91 0 0 0-.898-.897c-.513 0-.872.41-.872.898v2.81h-.963a.794.794 0 0 0-.783.782c0 .41.373.783.783.783h.963v7.196c0 2.425 1.45 3.374 3.362 3.374.693 0 1.245-.115 1.745-.32.295-.116.513-.372.513-.693a.767.767 0 0 0-.757-.757c-.141 0-.462.167-1.078.167-1.193 0-2.002-.526-2.002-1.989V6.757h3.067v-.012zM85.49 5.064c-.462 0-.719.295-.847.667l-3.683 9.39-4.145-9.364c-.167-.398-.41-.693-.898-.693-.5 0-.899.398-.899.872 0 .167.052.321.116.488l4.979 10.57-.09.18c-.641 1.45-1.283 2.117-2.4 2.117-.603 0-.95-.09-1.296-.205a1.261 1.261 0 0 0-.436-.09.77.77 0 0 0-.757.77c0 .41.282.641.552.757.59.205 1.168.346 1.95.346 1.797 0 2.952-.898 3.991-3.374l4.659-11.123c.05-.14.09-.295.09-.436a.893.893 0 0 0-.886-.872zM90.905.843a.915.915 0 0 0-.898.924v14.535c0 .513.41.924.898.924a.92.92 0 0 0 .924-.924V1.767a.92.92 0 0 0-.924-.924zM112.4 8.99c0-4.452-3.298-8.3-8.2-8.3-4.902 0-8.251 3.9-8.251 8.35v.052c0 4.452 3.297 8.313 8.2 8.313 1.976 0 3.708-.641 5.068-1.706l1.566 1.411c.205.18.41.295.693.295.513 0 .898-.41.898-.898 0-.32-.14-.551-.372-.757l-1.514-1.295a8.551 8.551 0 0 0 1.912-5.427V8.99zm-1.886.09c0 1.616-.488 3.065-1.36 4.22l-2.465-2.258c-.205-.18-.385-.295-.693-.295a.915.915 0 0 0-.898.924c0 .32.141.526.398.744l2.438 2.104c-1.014.757-2.297 1.206-3.734 1.206-3.683 0-6.352-3.002-6.352-6.671v-.052c0-3.669 2.63-6.62 6.313-6.62s6.353 3.003 6.353 6.672v.025z" fill="#F68C71" fill-rule="evenodd"/></svg>