<svg width="300" height="21" xmlns="http://www.w3.org/2000/svg"><g fill="none"><path d="M25.1 5.7h-7.6c-.1 0-.2.1-.2.2v3.5h8.9c0 1.1-.9 2-2 2h-6.9v4.5c0 1.1-.9 2-2 2V5.7c0-1.1.9-2 2-2H27c0 1.1-.8 1.9-1.9 2zm6 12.1c-1.1 0-2-1-1.9-2.1V3.6c1.1 0 2 .9 2 2.1v9.8c0 .1.1.2.2.3h7.2c1.1 0 2 .9 2 2.1h-9.5v-.1zm13.8.1c-1.1 0-2-.9-2-2V3.6c1.1 0 2 .9 2 2v12.3zm13.6-6.4c-1.2.6-2.6 1-4 .9h-4.1c0-1.1.8-2 1.9-2.1h2.3c1 .1 2.1-.2 3-.6.6-.3 1-1 1-1.7 0-.6 0-2.2-4-2.2H50c-.1 0-.2.1-.3.2v10c0 1.1-.9 2-2 2V5.6c0-1 .9-1.9 1.9-1.9h4.7c5.2 0 6 2.7 6 4.3.2 1.4-.6 2.8-1.8 3.5z" fill="#872526"/><path d="M62.6 17.9V3.6c1.1 0 2 .9 2 2v10.3c0 1.1-.9 2-2 2zm13.8-.6c-.4.6-1.2.8-1.8.4L65.8 12c-.5-.3-.8-.8-.8-1.4 0-.5.2-1.1.7-1.4l8.4-5.4c.6-.3 1.4-.1 1.8.4l.3.6-8.8 5.8 9.3 6.1c-.1.2-.1.4-.3.6zM89.3 5.7h-8.6c-.1 0-.2.1-.2.2v3.5h9.3c0 1.1-.9 2-2 2h-7.3v4.1c0 .1.1.2.2.2H89c1.1 0 2 .9 2 2H80.5c-1.1 0-2-.9-2-2v-10c0-1.1.9-2 2-2h10.8c-.1 1.1-.9 1.9-2 2zm12.5 7.5v4.7h-.1c-1.1 0-2-.9-2-2v-2.8L92.6 4c.8-.7 2-.6 2.8.2l5.4 6.9 5.4-6.9c.7-.8 1.9-.9 2.8-.2l-7.2 9.2zm9.9-9.9c.3 0 .6.1.8.2.3.1.5.4.6.6.3.5.3 1.2 0 1.7-.1.3-.4.5-.6.6-.5.3-1.2.3-1.7 0-.3-.1-.5-.4-.6-.6-.3-.5-.3-1.2 0-1.7.1-.3.4-.5.6-.6.4-.1.6-.2.9-.2zm0 .3c-.2 0-.5.1-.7.2-.2.1-.4.3-.5.5-.3.4-.3 1 0 1.4.1.2.3.4.5.5.4.3 1 .3 1.4 0 .2-.1.4-.3.5-.5.2-.4.2-1 0-1.4-.1-.2-.3-.4-.5-.5-.2-.2-.4-.2-.7-.2zm-.7 2.3V4.1h1.1c.1 0 .2.1.2.2.1.1.1.2.1.3 0 .1 0 .3-.1.4-.1.1-.2.2-.4.2.1 0 .1.1.2.1.1.1.2.2.3.4l.2.4h-.4l-.2-.3c-.1-.2-.2-.3-.3-.4-.1 0-.1-.1-.2-.1h-.2v.8l-.3-.2zm.3-1h.3c.1 0 .3 0 .4-.1.1-.1.1-.2 0-.3l-.1-.1h-.6v.5zM8.4 3v-.7c0-.2.2-.4.4-.4h.8c.2 0 .4.2.4.4v1.4L8.4 3zm-2.1-.3c-.2-.1-.5-.1-.7 0L1.9 5.4v3.3c0 .6.4 1 1 1h1.5v1h.8v.9l-.5.7.9.7-.8.6v1.1l.4.6v1.1l-.4.6 1.1 1.2h.7l.9-1.1V9.6H9c.6 0 1-.4 1-1V5.3L6.3 2.7zM4.5 7.4c0-.5.4-.9.9-.9h1.1c.5 0 .9.4.9.9V9H4.5V7.4z" fill="#CF772A"/><path d="M11.4 5.5c-.1 0-.2 0-.3-.1L6.4 2.1C6.3 2 6.1 2 6 2c-.1 0-.3 0-.4.1L.9 5.4c-.3.2-.7.1-.8-.2-.1-.3-.1-.6.2-.8L5 1.1c.3-.1.6-.3 1-.3s.8.1 1.1.3l4.7 3.3c.3.2.3.6.1.8-.1.2-.3.3-.5.3z" fill="#CF772A"/><path d="M120.4 11.7v1.1h.9v5h1.2v-5h1.1v-1.1h-1.1v-.4c0-.5.1-.9.3-1.4.2-.3.6-.4 1-.4.2 0 .4 0 .6.1V8.4c-.3-.1-.6-.1-.9-.1-.6 0-1.1.3-1.5.7-.5.6-.7 1.4-.6 2.2v.4h-1v.1zm4.2 0v6.1h1.2v-3.2c0-.5.1-.9.4-1.3.2-.3.6-.5 1-.6.5 0 .9.3 1.2.6l.6-1.1c-.4-.4-.9-.6-1.4-.7-.6 0-1.2.5-1.8 1.4l-.1.1v-1.4h-1.1v.1zm5.6.9c-1.2 1.2-1.2 3.2 0 4.4.6.6 1.4.9 2.3.9.9 0 1.7-.3 2.4-.9.6-.6 1-1.4.9-2.2 0-.8-.3-1.7-.9-2.3-.6-.6-1.5-.9-2.3-.9-.9.1-1.8.4-2.4 1zm3.8.8c.4.4.6.9.6 1.4 0 .5-.2 1.1-.6 1.4-.4.4-.9.6-1.5.6-.5 0-1.1-.2-1.5-.6-.4-.4-.6-.9-.6-1.4 0-.5.2-1.1.6-1.5.4-.4.9-.6 1.4-.6.6.1 1.2.3 1.6.7zm9.5-.8c.3 0 .7.1.9.4.2.3.3.8.3 1.2v3.6h1.2v-3.6c.1-.7-.1-1.4-.6-2-.4-.4-.9-.7-1.5-.6-.8.1-1.5.5-2 1.1-.3-.7-1-1.1-1.8-1.1-.7.1-1.4.4-1.8.9v-.8H137v6.1h1.2v-4.4c.2-.2.4-.4.7-.6.2-.1.4-.2.7-.2.4-.1.8.1 1 .4.2.4.3.9.3 1.4v3.4h1.2v-4.4c.3-.5.8-.7 1.4-.8z" fill="#000"/><path d="M248.6 6.9h3.6c1-.1 2.1.2 3 .7.7.5 1.1 1.3 1 2.1 0 .6-.2 1.3-.6 1.7-.4.5-1 .8-1.7.9.3.1.5.2.8.5.3.4.5.8.6 1.2l1.5 3.8h-2.3l-1.2-3.3c-.1-.4-.4-.7-.7-1-.4-.2-.8-.3-1.2-.3h-.7v4.6h-2.1V6.9zm2.2 1.5v3.3h1.1c.6 0 1.1-.1 1.6-.4.4-.3.6-.7.6-1.2s-.2-1-.6-1.2c-.5-.3-1.2-.4-1.8-.4l-.9-.1zm14.2 5.4v.6h-5.6c0 .6.3 1.2.8 1.6.5.4 1.2.6 1.8.6.4 0 .8-.1 1.2-.1.4-.1.8-.2 1.1-.4v1.6c-.4.2-.8.3-1.3.4-.5.1-1 .1-1.4.1-1.2.1-2.3-.4-3.1-1.1-.8-.9-1.2-2-1.1-3.2 0-1.1.3-2.1 1.1-2.9.8-.8 1.8-1.2 2.9-1.1 1-.1 2 .3 2.7 1.1.6.6 1 1.7.9 2.8zm-1.9-.7c0-.6-.2-1.1-.6-1.6-.3-.4-.8-.6-1.3-.6s-1 .2-1.3.6c-.4.4-.6 1-.6 1.6h3.8zm10.7 0v4.7h-2.1v-4.3c0-.6-.1-1.1-.4-1.6-.3-.4-.7-.6-1.2-.5-.5 0-1.1.2-1.4.7-.4.5-.5 1.2-.5 1.8v4h-2v-8h1.9v1.4c.3-.5.7-.9 1.2-1.2.5-.3 1.1-.4 1.7-.4.8-.1 1.6.3 2.1.9.6.7.8 1.6.7 2.5zm4.7-5.8v2.6h1.9v1.5h-1.9v3.5c0 .4.1.9.3 1.3.2.3.6.4.9.4h.4l.4-.1v1.4c-.2.1-.5.1-.7.1h-.7c-.7.1-1.5-.2-2-.7-.5-.7-.7-1.5-.6-2.3v-3.6h-1.6V9.9h1.7V8l1.9-.7zm10 6v4.5h-1.8v-1.3c-.3.5-.7.8-1.2 1.1-.5.3-1 .4-1.5.4-.7 0-1.4-.2-1.9-.7-.5-.5-.8-1.1-.7-1.8 0-.8.4-1.6 1-2 1-.5 2.1-.7 3.1-.7h1v-.1c0-.5-.2-.9-.5-1.3-.4-.3-.9-.5-1.5-.5-.4 0-.7.1-1.1.2-.4.1-.8.3-1.2.5v-1.5c.5-.2.9-.3 1.4-.4.5-.1.9-.1 1.4-.1 1-.1 1.9.2 2.6.9.7.8 1 1.8.9 2.8zm-2.7.7c-.6 0-1.3.1-1.9.4-.4.2-.6.6-.6 1 0 .3.1.6.4.9.3.2.6.3.9.3.5 0 1-.2 1.4-.5.4-.4.6-1 .5-1.5V14h-.7zm4.7-7.9h2v11.8h-2V6.1zm9.1 4l-.1 1.5c-.3-.2-.7-.3-1-.4-.3-.1-.7-.1-1-.1-.3 0-.6 0-.9.2-.2.1-.3.3-.3.5 0 .4.4.7 1.2 1.1l.2.1c.7.3 1.3.6 1.8 1.1.3.4.5.9.5 1.4 0 .7-.3 1.4-.9 1.8-.7.5-1.6.7-2.5.7-.4 0-.9 0-1.3-.1l-1.2-.3.1-1.6c.4.2.8.3 1.2.4.4.1.8.1 1.2.1.3 0 .7 0 .9-.2.2-.1.3-.3.3-.6 0-.4-.5-.9-1.6-1.4-.6-.3-1.1-.6-1.6-1.1-.3-.3-.4-.8-.4-1.2 0-.7.3-1.3.9-1.7.7-.5 1.5-.7 2.3-.7.3 0 .6 0 .9.1.3.1.8.2 1.3.4zm-79-2.6c0 .6.4 1 1 1s1-.4 1-1-.4-1-1-1-1 .5-1 1z" fill="#1D1D1B"/><path d="M175 7.5l-1.4.5v1.9H172v1.3h1.6v4.1c0 1.9.7 2.7 2.3 2.7.4 0 .8-.1 1.2-.2h.1v-1.3h-.1c-.2.1-.5.1-.8.2-.8 0-1-.4-1-1.6v-3.9h1.8V9.9h-1.9V7.5h-.2zm5 3.6V9.8h-1.5v8h1.6v-4c0-1.7.7-2.6 2-2.6.2 0 .4 0 .6.1h.1l.1-1.6-.7-.1c-1 .1-1.8.7-2.2 1.5zm11.6-1.4c-1.1 0-2.1.6-2.7 1.5V9.9h-1.5V21h1.6v-4.3c.6.8 1.5 1.2 2.5 1.2 2 0 3.4-1.7 3.4-4.3-.1-2.3-1.4-3.9-3.3-3.9zm-.5 7c-1.3 0-2.1-1.1-2.1-2.8 0-1.7.8-2.8 2.1-2.8s2 1 2 2.8c0 1.8-.7 2.8-2 2.8z" fill="#000"/><path d="M199.6 9.7c-.9 0-1.8.2-2.6.6v1.4l.1-.1c.6-.4 1.4-.6 2.1-.6.9-.1 1.7.6 1.8 1.5v.4h-.9c-2.7 0-4.1 1-4.1 2.7 0 1.3 1 2.4 2.4 2.4h.2c1 0 2-.4 2.6-1.3v1.1h1.5V13c-.1-2.2-1.1-3.3-3.1-3.3zm1.4 4.8c.1 1.1-.6 2.1-1.7 2.2h-.4c-.7.1-1.3-.4-1.3-1.1v-.1c0-1 .9-1.5 2.6-1.5h.8v.5zm8.4-8.4V11c-.6-.8-1.5-1.3-2.5-1.3-2 0-3.3 1.6-3.3 4s1.3 4.2 3.3 4.2c1.1 0 2.1-.6 2.6-1.5v1.4h1.5V6.1h-1.6zm-2.1 10.5c-1.2 0-2-1.1-2-2.8 0-1.7.8-2.9 2-2.9s2.1 1.1 2.1 2.9c0 1.8-.8 2.8-2.1 2.8zm10.9-6.7l-2.3 4.6-2.1-4.6H212l3.9 7.9 4-7.9h-1.7zm4 0h-1.5v7.9h1.6V9.9h-.1zm2 2c0 1.1.8 1.7 2.2 2.4.9.4 1.4.7 1.4 1.3 0 .6-.6 1-1.5 1-.7 0-1.4-.2-2-.5l-.1-.1-.1 1.4h.1c.7.3 1.4.4 2.1.4 2 0 3.2-.9 3.2-2.4 0-1.2-.8-1.8-2.2-2.5-1-.5-1.4-.8-1.4-1.3s.5-.8 1.2-.8 1.3.2 1.9.4l.1.1.1-1.4h-.1c-.6-.2-1.3-.3-2-.3-1.7.1-2.9 1-2.9 2.3zm10.3-2.2c-2.4 0-3.9 1.6-3.9 4.2s1.5 4.2 3.9 4.2 3.9-1.6 3.9-4.2-1.4-4.2-3.9-4.2zm0 7c-1.3 0-2.2-1.1-2.2-2.9 0-1.8.9-2.9 2.2-2.9 1.3 0 2.2 1.1 2.2 2.9 0 1.8-.8 2.9-2.2 2.9zm6.9-5.6V9.8H240v8h1.6v-4c0-1.7.7-2.6 2-2.6.2 0 .4 0 .6.1h.1l.1-1.6-.7-.1c-1 .1-1.8.7-2.3 1.5z" fill="#1D1D1B"/><path d="M185.8 9.9h-1.6v7.9h1.7V9.9h-.1zm-1.7-2.4c0 .6.4 1 1 1s1-.4 1-1-.4-1-1-1-1 .5-1 1zm-25.9 10.7l-1.3-2 .9-2.3h.9l.9 2.3-1.4 2z" fill="#000"/><path d="M161.5 8.9c-2.6.9-3.9 3.8-3 6.4.9 2.6 3.8 3.9 6.4 3 2.6-.9 3.9-3.8 3-6.4v-.1c-1-2.6-3.8-3.9-6.4-2.9 0-.1 0-.1 0 0zm0 8.2c-1-.4-1.7-1.2-2.1-2.2-.8-2.1.3-4.4 2.4-5.1 2.1-.7 4.4.3 5.1 2.4.7 2.1-.3 4.4-2.4 5.1-.9.3-2 .3-3-.2z" fill="#000"/><path d="M148.3 13.5c0 2.8 2.2 5 5 5s5-2.2 5-5-2.2-5-5-5-5 2.2-5 5zm1 0c0-2.2 1.8-4 4-4s4 1.8 4 4-1.8 4-4 4-4-1.8-4-4z" fill="#000"/><path d="M154.1 13.5c0 .5-.4.8-.8.8-.5 0-.8-.4-.8-.8s.4-.8.8-.8c.4-.1.7.3.8.8zm9.9 0c0 .5-.4.8-.8.8-.5 0-.8-.4-.8-.8 0-.5.4-.8.8-.8.4-.1.8.3.8.8z" fill="#1D1D1B"/><path d="M150.8 13.5c0 1.4 1.1 2.4 2.5 2.4s2.4-1.1 2.4-2.5c0-1.3-1.1-2.4-2.4-2.4-1.4 0-2.5 1.1-2.5 2.5zm.8 0c0-.9.7-1.6 1.6-1.6.9 0 1.6.7 1.6 1.6 0 .9-.7 1.6-1.6 1.6-.9 0-1.6-.8-1.6-1.6zm9.1 0c0 1.4 1.1 2.4 2.5 2.4s2.4-1.1 2.4-2.5c0-1.3-1.1-2.4-2.4-2.4-1.4 0-2.5 1.1-2.5 2.5zm.9 0c0-.9.7-1.6 1.6-1.6.9 0 1.6.7 1.6 1.6 0 .9-.7 1.6-1.6 1.6-.9 0-1.6-.8-1.6-1.6zm-11.7-3.7l.6.6c4.2-3.6 10.4-3.8 14.8-.4l.6-.7c-2.2-1.8-4.9-2.7-7.7-2.6-3.1-.1-6 1-8.3 3.1z" fill="#000"/><path d="M167.1 11.3c.1-1 .4-1.9 1-2.7h-3.4l2.4 2.7zm-17.7 0c-.1-1-.4-1.9-1-2.7h3.4l-2.4 2.7z" fill="#000"/></g></svg>