<svg width="596" height="75" xmlns="http://www.w3.org/2000/svg"><path d="M171.3 1.8h-14.2c-1 0-1.8.7-1.8 1.7v36.4c0 5.9-2.4 9-7.9 9s-7.9-3.1-7.9-9V3.5c0-1-.6-1.7-1.8-1.7h-14.2c-1 0-1.8.7-1.8 1.7v40c0 12.4 9 22.3 25.5 22.3 16.7 0 25.9-9.9 25.9-22.3v-40c0-.9-.8-1.7-1.8-1.7zm103.1 25.5l-10.3-3.6c-3-1.1-3.4-2.8-3.4-3.8 0-1.6 1.5-3.2 4.6-3.2 3.3 0 8.1.9 12.7 4.5.7.5 1.6.4 2.1-.2l8-10.1c.5-.7.4-1.6-.2-2.2C281.1 3 272.8 1 265 1c-14.9 0-23.7 9.2-23.7 19.2 0 7.9 4.6 15.1 14.3 18.4l9.1 3.1c4.5 1.5 5.2 2.7 5.2 4.6 0 1.7-1.8 3.7-5.4 3.7-5.1 0-11-3-15-6.3-.6-.5-1.5-.5-2 .2l-8.2 10.8c-.5.7-.4 1.7.2 2.2 5.9 5.1 14.7 8.9 25.8 8.9 14 0 24.1-8.1 24.1-20.2.1-8.4-5.1-14.9-15-18.3zm-51.1 13.8c7.6-3.8 11.5-9.7 11.5-18.4 0-11.1-8.9-20.9-24-20.9h-27.3c-.9 0-1.6.9-1.6 1.8v59.3c0 .9.7 1.6 1.6 1.6h14.7c.9 0 1.6-.7 1.6-1.6V43.7h5.8L216 63.1c.4.8 1.5 1.4 2.4 1.4h16.9c.9 0 1.3-.6.8-1.4l-12.8-22zm-14.1-12.6h-9.3V17.6h9.3c5.2 0 7.2 2.3 7.2 5.5 0 3.1-2 5.4-7.2 5.4zM45.4 1.8H2.6c-1.3 0-2 1-2 1.9v59.1c0 1 .7 1.8 1.8 1.8h14.4c.9 0 1.6-1 1.6-1.8V43.7h18.3c.9 0 1.8-.7 1.9-1.6L41.4 29c.2-.8-.2-1.6-1.3-1.6H18.4v-9.5h24c.9 0 1.8-.7 1.9-1.6l2.6-12.4c.4-1.1-.2-2.1-1.5-2.1zm545.5 16c.9 0 1.8-.7 1.9-1.6l2.6-12.4c.2-1.1-.1-2.1-1.5-2.1h-43c-1.2 0-1.9 1-1.9 1.9v59.1c0 1 .7 1.8 1.8 1.8h39.1c.9 0 1.8-.7 1.9-1.6l2.6-12.4c.2-1.1-.1-2.1-1.5-2.1h-26v-7.2H585c.9 0 1.8-.7 1.9-1.6l2.8-13.1c.2-.8-.2-1.6-1.3-1.6h-21.5v-7.2h24v.1zm-128-14.6c-.2-.8-1.1-1.4-1.9-1.4h-19.6c-.8 0-1.7.6-1.9 1.4l-18 59.8c-.2.8.2 1.5 1.1 1.5h16.1c.8 0 1.7-.7 1.9-1.5l2.5-9h16.1l2.8 9c.2.8 1.1 1.5 1.9 1.5h16c.8 0 1.3-.7 1.1-1.5L462.9 3.2zm-11.8 34.2h-5.8l5.8-19.2 5.8 19.2h-5.8zM416.4 1.8h-14.2c-1 0-1.8.7-1.8 1.7v36.4c0 5.9-2.4 9-7.9 9s-7.9-3.1-7.9-9V3.5c0-1-.6-1.7-1.8-1.7h-14.3c-1 0-1.8.7-1.8 1.7v40c0 12.4 9 22.3 25.5 22.3 16.7 0 25.9-9.9 25.9-22.3v-40c.1-.9-.7-1.7-1.7-1.7zm112.3 39.3c7.6-3.8 11.5-9.7 11.5-18.4 0-11.1-8.9-20.9-24-20.9h-27.3c-.9 0-1.6.9-1.6 1.8v59.3c0 .9.7 1.6 1.6 1.6h14.7c.9 0 1.6-.7 1.6-1.6V43.7h5.8l10.4 19.4c.4.8 1.5 1.4 2.4 1.4h16.9c.9 0 1.3-.6.8-1.4l-12.8-22zm-14.1-12.6h-9.3V17.6h9.3c5.2 0 7.2 2.3 7.2 5.5 0 3.1-2 5.4-7.2 5.4zM359.4 56.8c-2 .8-5.7 1.7-10.1.8.6-.6 1.3-1.1 1.8-1.7 8.4-9 10.8-22.4 6.7-33.8-4.3-11.9-15.6-19.9-28.3-20.9-12.7-1-25.6 5.2-31.8 16.3-6.4 11.6-5.2 27 3.5 37.1 7.6 8.8 19.4 12.5 30.6 10.9.2.1.3.3.5.5 6.2 5.8 16.2 9 24.7 9l3.5-17.2c.1-.7-.3-1.3-1.1-1zm-32.7-7.6c-8.2 0-13.8-7.1-13.8-15.9s5.6-15.9 13.8-15.9c8.2 0 13.7 7.1 13.7 15.9.1 8.8-5.5 15.9-13.7 15.9zM84.4 1C71.7 0 58.8 6.2 52.6 17.3c-6.4 11.6-5.2 27 3.5 37.1 12.5 14.5 36.6 15.1 49.9 1.3 8.5-9 10.8-22.4 6.7-33.8C108.4 10.1 97.1 2.1 84.4 1zm-2.8 48.2c-8.2 0-13.7-7.1-13.7-15.9s5.6-15.9 13.7-15.9c8.2 0 13.7 7.1 13.7 15.9.1 8.8-5.5 15.9-13.7 15.9z" fill="#0732A2"/></svg>