<svg id="Layer_1" data-name="Layer 1" xmlns="http://www.w3.org/2000/svg" viewBox="0 0 174.23 38.78"><defs><style>.cls-1{fill:#fff}.cls-2{fill:#f0c61c}</style></defs><path class="cls-1" d="M99.3 6.89l-.12 1.43h-.58a1.4 1.4 0 0 0-1.42 1.47V13h-1.66V6.89h1.57v.77a1.79 1.79 0 0 1 1.61-.77zM87.82 13h-1.65V9.78c0-.68-.06-1.53-1-1.53s-1.29.66-1.29 1.44V13h-1.67V6.89h1.54v.78a2.08 2.08 0 0 1 1.85-.93c1.67 0 2.2 1.19 2.2 2.43zm-6.33-1.41L81.37 13a4.3 4.3 0 0 1-1.18.14c-1.56 0-2-.72-2-2.15V5.16h1.66v1.73h1.65l-.11 1.43h-1.55v2.53c0 .58.16.89.75.89a2.72 2.72 0 0 0 .9-.15zm-3.85-4.7l-.13 1.43h-.45a1.38 1.38 0 0 0-1.4 1.47V13H74V6.89h1.57v.77a1.79 1.79 0 0 1 1.62-.77zm-11.1 5.45a7 7 0 0 1-3.73.9c-2.75-.08-4.73-1.79-4.73-4.67a4.55 4.55 0 0 1 4.73-4.75A5.13 5.13 0 0 1 66.4 5l-1.16 1.19a3.61 3.61 0 0 0-2.53-.76 2.84 2.84 0 0 0-2.78 3 2.9 2.9 0 0 0 2.9 3.19 4.36 4.36 0 0 0 2-.32V9.44h-1.9l.13-1.56h3.48zm28.24-1.8h-4.54a1.5 1.5 0 0 0 1.51 1.28 2 2 0 0 0 1.71-.76l1.08.82a3.31 3.31 0 0 1-2.74 1.29A3.1 3.1 0 0 1 88.57 10a3.08 3.08 0 0 1 3.16-3.22c2 0 3 1.19 3 3.31zm-1.66-1.28A1.29 1.29 0 0 0 91.69 8a1.46 1.46 0 0 0-1.45 1.23zM73 9v4h-1.49v-.6a2.39 2.39 0 0 1-1.92.75c-1.13 0-2.19-.56-2.22-1.85 0-2 2.29-2.18 3.75-2.18h.29v-.06c0-.67-.45-1-1.28-1a2.41 2.41 0 0 0-1.64.65l-1-1a4.15 4.15 0 0 1 2.73-1C72.13 6.74 73 7.62 73 9zm-1.59 1.34h-.23c-.78 0-2.16 0-2.16.86 0 1.15 2.39.79 2.39-.61zM57.75 22.3h1.7v1.4a3.48 3.48 0 0 1 3.3-1.64c3.18 0 4.76 2.52 4.76 5.44s-1.51 5.38-4.67 5.38a4 4 0 0 1-3.34-1.62v5.34h-1.7zm4.8 1.26c-2.28 0-3.16 2-3.16 3.9s.92 3.92 3.26 3.92 3.1-2 3.1-4-.99-3.82-3.2-3.82zm15.83 5.8A4.17 4.17 0 0 1 74 32.88c-3.3 0-4.86-2.28-5-5.44s2-5.38 4.86-5.38c3.66 0 4.78 3.42 4.68 5.92h-7.75a3 3 0 0 0 3.21 3.4 2.49 2.49 0 0 0 2.68-2zm-1.64-2.88a3 3 0 0 0-5.94 0zm13.18 2.88a4.17 4.17 0 0 1-4.42 3.52c-3.3 0-4.86-2.28-5-5.44s2-5.38 4.86-5.38c3.66 0 4.78 3.42 4.68 5.92h-7.71a3 3 0 0 0 3.22 3.4 2.49 2.49 0 0 0 2.68-2zm-1.64-2.88a3 3 0 0 0-3-2.92 2.94 2.94 0 0 0-3 2.92zm4.29-4.18h1.6v2.18A3.76 3.76 0 0 1 98 22.06v1.8c-2.74 0-3.74 1.56-3.74 4.18v4.6h-1.7z"/><path class="cls-2" d="M101.31 20.42v-2.06h.76v2.06zm0 12.22V22.36h.76v10.28zm4.18-10.28h.76v2.2a3.81 3.81 0 0 1 3.75-2.44c3.62 0 3.66 2.9 3.66 4.16v6.36h-.76v-6.5c0-1.06-.12-3.36-2.92-3.36-2.3 0-3.7 1.78-3.7 4.3v5.56h-.76zm11.44 6.86a3.14 3.14 0 0 0 3.4 3c1.34 0 3.26-.4 3.26-2.18s-1.76-2-3.52-2.36-3.54-.82-3.54-2.92 2-2.64 3.72-2.64c2.18 0 3.8.94 3.8 3.28h-.76c0-1.86-1.32-2.62-3-2.62-1.4 0-3 .52-3 2 0 1.64 1.76 1.9 3.42 2.26 2 .38 3.64.86 3.64 3s-2.22 2.84-4 2.84c-2.34 0-4.1-1.26-4.16-3.66zm10.44-8.8v-2.06h.76v2.06zm0 12.22V22.36h.76v10.28zm12.18-10.28v9.74c0 .8 0 4.6-4.44 4.46-2.2 0-3.9-.82-4-3.2h.76c.16 1.82 1.6 2.54 3.28 2.54a3.32 3.32 0 0 0 3.66-3.62v-2.36a3.86 3.86 0 0 1-3.81 2.34c-3 0-4.44-2.22-4.44-5.08s1.54-5.06 4.44-5.06a3.85 3.85 0 0 1 3.72 2.38v-2.14zm-8.2 4.82c0 2.42 1.26 4.42 3.68 4.42s3.74-2.1 3.74-4.42-1.22-4.4-3.74-4.4-3.68 2.22-3.68 4.4zm11.7-8.82v6.2a3.81 3.81 0 0 1 3.68-2.44c3.62 0 3.66 2.9 3.66 4.16v6.36h-.76v-6.5c0-1.06-.12-3.36-2.92-3.36-2.3 0-3.7 1.78-3.7 4.3v5.56h-.76V18.36zm14.2 4.64H155v7.2c0 1.66.78 1.82 2.22 1.78v.66c-1.56.1-3.06-.12-3-2.44V23h-1.9v-.66h1.9v-3.2h.78v3.2h2.24zm2.56 6.22a3.14 3.14 0 0 0 3.4 3c1.34 0 3.26-.4 3.26-2.18s-1.76-2-3.52-2.36-3.54-.82-3.54-2.92 2-2.64 3.72-2.64c2.18 0 3.8.94 3.8 3.28h-.76c0-1.86-1.32-2.62-3-2.62-1.4 0-3 .52-3 2 0 1.64 1.76 1.9 3.42 2.26 2 .38 3.64.86 3.64 3s-2.22 2.84-4 2.84c-2.34 0-4.1-1.26-4.16-3.66z"/><path class="cls-1" d="M168.85 29.75h2.3V30h-1v2.67h-.28V30h-1zm2.57 0h.41l1 2.54 1-2.54h.41v2.9H174v-2.51l-1 2.51h-.26l-1-2.51v2.51h-.28z"/><path class="cls-2" d="M31.78 23.15l4.23-2.16 4.18 2.26-.75-4.69 3.44-3.28-4.69-.74-2.05-4.28-2.16 4.23-4.71.63 3.37 3.36-.86 4.67zm-14.64 0l4.23-2.16 4.18 2.26-.75-4.69 3.45-3.28-4.7-.74-2.05-4.28-2.15 4.23-4.71.63L18 18.48l-.86 4.67zm-14.64 0l4.24-2.16 4.17 2.26-.74-4.69 3.44-3.28-4.7-.74-2.05-4.28-2.15 4.23-4.71.63 3.36 3.36-.86 4.67z"/><path d="M10.33 8.45A20.43 20.43 0 0 1 26.67.83c10.77 0 19.5 7.52 19.5 16.79a15.25 15.25 0 0 1-3.88 10l3.88 9.45-10.11-4.74a21.92 21.92 0 0 1-9.4 2.08c-7.08 0-13.27-3.24-16.69-8.1" fill="none" stroke="#9075b4" stroke-linecap="round" stroke-miterlimit="10" stroke-width="1.66"/></svg>