<svg width="674" height="144" xmlns="http://www.w3.org/2000/svg"><path d="M66.7 86.4h-.3c-3.3 14.5-18.2 23-32.2 23C11.3 109.4 0 91.2 0 70.2 0 48.2 12.1 30 35.2 30c15.6 0 27.9 10.4 31.1 23.8h.3V31.9h3.2v79.3c0 22.3-12.8 32.8-34.1 32.8-16.6 0-30.8-7.5-31.3-25.8h3.2c.6 16.3 13.1 22.6 27.9 22.6 19.8 0 31.1-9.4 31.1-29.7V86.4h.1zM35.2 33.2c-21.2 0-32.1 17.1-32.1 37 0 20.3 10.8 36.1 30.8 36.1 21.1 0 32.6-16.3 32.6-36.1.2-18.9-10.7-37-31.3-37zm80.6-3.2c23.9 0 36.8 20.6 36.8 42.9 0 22.5-12.9 42.9-37 42.9-23.9 0-36.9-20.4-36.9-42.9.1-22.3 13-42.9 37.1-42.9zm0 82.6c21.8 0 33.6-19 33.6-39.7 0-20.4-11.8-39.7-33.6-39.7C93.6 33.2 82 52.5 82 72.9c0 20.7 11.6 39.7 33.8 39.7zM194.6 30c23.9 0 36.8 20.6 36.8 42.9 0 22.5-12.9 42.9-37 42.9-23.9 0-36.8-20.4-36.8-42.9 0-22.3 12.9-42.9 37-42.9zm0 82.6c21.9 0 33.6-19 33.6-39.7 0-20.4-11.8-39.7-33.6-39.7-22.2 0-33.8 19.3-33.8 39.7-.1 20.7 11.6 39.7 33.8 39.7zM304.4 0h3.2v113.9h-3.2v-23h-.3c-4.1 14.3-16.1 24.9-32.8 24.9-21.7 0-34.9-18-34.9-42.7 0-23 12.3-43.1 34.9-43.1 17.4 0 29 10.1 32.8 24.9h.3V0zm-33.1 33.2c-22.5 0-31.7 20.9-31.7 39.9 0 21 10.5 39.5 31.7 39.5 21.1 0 33.2-18.3 33.2-39.5-.1-25.4-13.3-39.9-33.2-39.9zm51.8-1.6h9.2v19.3h.3c5.1-13.2 16.3-21.1 31.1-20.4v10c-18.2-1-30.6 12.4-30.6 29.5v43.9H323V31.6h.1zm49.3 43.8c.1 14.7 7.8 32.4 27.1 32.4 14.7 0 22.6-8.6 25.8-21h10.1c-4.3 18.7-15.2 29.5-35.9 29.5-26.1 0-37.1-20.1-37.1-43.5 0-21.7 11-43.5 37.1-43.5 26.5 0 37 23.1 36.2 46.2h-63.3v-.1zm53.2-8.4c-.5-15.1-9.9-29.4-26.2-29.4-16.3 0-25.4 14.4-27 29.4h53.2zm18.7-10.2c.9-19.3 14.5-27.6 33.3-27.6 14.5 0 30.3 4.5 30.3 26.5v43.7c0 3.8 1.9 6.1 5.9 6.1 1.1 0 2.4-.3 3.2-.6v8.4c-2.2.5-3.8.6-6.6.6-10.2 0-11.8-5.7-11.8-14.4h-.3c-7 10.7-14.2 16.7-30 16.7-15.1 0-27.6-7.5-27.6-24.1 0-23.1 22.5-23.9 44.2-26.5 8.3-1 12.9-2.1 12.9-11.2 0-13.6-9.7-16.9-21.6-16.9-12.4 0-21.7 5.8-22 19.2h-9.9v.1zm53.6 12.1h-.3c-1.3 2.4-5.8 3.2-8.5 3.7-17.1 3-38.3 2.9-38.3 19 0 10.1 8.9 16.3 18.3 16.3 15.3 0 28.9-9.7 28.7-25.8V68.9h.1zm98.6 45h-9.2V98.2h-.3c-4.3 10.7-17.4 18-29.3 18-25.1 0-37-20.2-37-43.5s11.9-43.5 37-43.5c12.3 0 24.2 6.2 28.5 18h.3V0h10v113.9zm-38.9-6.1c21.4 0 28.9-18 28.9-35.1s-7.5-35.1-28.9-35.1c-19.1 0-27 18-27 35.1s7.8 35.1 27 35.1zm103.3-52.2c-.5-12.4-10-18-21.5-18-8.9 0-19.4 3.5-19.4 14.2 0 8.9 10.2 12.1 17.1 13.9l13.4 3c11.5 1.8 23.4 8.5 23.4 22.8 0 17.9-17.7 24.7-33 24.7-19.1 0-32.2-8.9-33.8-29h10c.8 13.5 10.9 20.6 24.3 20.6 9.4 0 22.5-4.1 22.5-15.6 0-9.6-8.9-12.7-18-15L633 74.3c-13.1-3.5-23-8-23-22 0-16.7 16.4-23.1 30.9-23.1 16.4 0 29.5 8.6 30.1 26.5h-10.1v-.1z" fill="#372213"/></svg>