<svg width="250" height="72" xmlns="http://www.w3.org/2000/svg"><g fill="#FFF" fill-rule="nonzero"><path d="M53.5 25.5H28.1V33h18c-.9 10.6-9.7 15.1-18 15.1-10.6 0-19.9-8.4-19.9-20.1C8.2 16.6 17 7.8 28.1 7.8c8.5 0 13.6 5.4 13.6 5.4L47 7.7S40.2.2 27.9.2C12.2.3 0 13.6 0 27.9 0 42 11.4 55.7 28.3 55.7 43.1 55.7 54 45.5 54 30.5c0-3.2-.5-5-.5-5zM74.3 20.1c-10.4 0-17.9 8.1-17.9 17.7s7.2 17.9 18 17.9c9.7 0 17.7-7.5 17.7-17.7.1-11.9-9.2-17.9-17.8-17.9zm.1 7c5.1 0 10 4.1 10 10.8 0 6.5-4.8 10.8-10 10.8-5.7 0-10.2-4.5-10.2-10.8 0-6.2 4.5-10.8 10.2-10.8zM113.2 20.1c-10.4 0-17.9 8.1-17.9 17.7s7.2 17.9 18 17.9c9.7 0 17.7-7.5 17.7-17.7.1-11.9-9.2-17.9-17.8-17.9zm.1 7c5.1 0 10 4.1 10 10.8 0 6.5-4.8 10.8-10 10.8-5.7 0-10.2-4.5-10.2-10.8.1-6.2 4.5-10.8 10.2-10.8zM151.4 20.1c-9.6 0-17.1 8.4-17.1 17.8 0 10.7 8.7 17.8 16.9 17.8 5.1 0 7.8-2 9.8-4.3v3.5c0 6.1-3.7 9.8-9.4 9.8-5.4 0-8.2-4-9.1-6.3l-6.8 2.9c2.4 5.1 7.3 10.5 16 10.5 9.5 0 16.8-6 16.8-18.6v-32H161v3c-2.3-2.5-5.4-4.1-9.6-4.1zm.7 7c4.7 0 9.5 4 9.5 10.8 0 7-4.8 10.8-9.6 10.8-5.1 0-9.8-4.1-9.8-10.7-.1-6.9 4.9-10.9 9.9-10.9zM201.6 20c-9 0-16.6 7.2-16.6 17.8 0 11.2 8.4 17.9 17.5 17.9 7.5 0 12.2-4.1 14.9-7.8l-6.2-4.1c-1.6 2.5-4.3 4.9-8.7 4.9-5 0-7.3-2.7-8.7-5.4l23.9-9.9-1.2-2.9c-2.4-5.7-7.8-10.5-14.9-10.5zm.3 6.9c3.3 0 5.6 1.7 6.6 3.8l-15.9 6.7c-.7-5.2 4.2-10.5 9.3-10.5zM173.7 54.6h7.8V2.2h-7.8zM250 28.2h-9.6v-9.6h-7.8v9.6H223V36h9.6v9.6h7.8V36h9.6z"/></g></svg>