<svg width="880" height="177" xmlns="http://www.w3.org/2000/svg"><defs><linearGradient x1="91.408%" y1="4.985%" x2="-38.351%" y2="71.906%" id="a"><stop stop-color="#00A0FF" offset="0%"/><stop stop-color="#00A1FF" offset=".7%"/><stop stop-color="#00BEFF" offset="26%"/><stop stop-color="#00D2FF" offset="51.2%"/><stop stop-color="#00DFFF" offset="76%"/><stop stop-color="#00E3FF" offset="100%"/></linearGradient><linearGradient x1="107.44%" y1="50.085%" x2="-130.45%" y2="50.085%" id="b"><stop stop-color="#FFE000" offset="0%"/><stop stop-color="#FFBD00" offset="40.9%"/><stop stop-color="orange" offset="77.5%"/><stop stop-color="#FF9C00" offset="100%"/></linearGradient><linearGradient x1="86.225%" y1="17.928%" x2="-50.138%" y2="194.843%" id="c"><stop stop-color="#FF3A44" offset="0%"/><stop stop-color="#C31162" offset="100%"/></linearGradient><linearGradient x1="-18.809%" y1="-54.267%" x2="42.083%" y2="24.769%" id="d"><stop stop-color="#32A071" offset="0%"/><stop stop-color="#2DA771" offset="6.9%"/><stop stop-color="#15CF74" offset="47.6%"/><stop stop-color="#06E775" offset="80.1%"/><stop stop-color="#00F076" offset="100%"/></linearGradient></defs><g fill="none"><path d="M421.6 71.2c-18.7 0-33.9 14.2-33.9 33.8 0 19.5 15.2 33.8 33.9 33.8s33.9-14.3 33.9-33.8c0-19.5-15.2-33.8-33.9-33.8zm0 54.3c-10.2 0-19.1-8.5-19.1-20.5 0-12.2 8.8-20.5 19.1-20.5s19.1 8.3 19.1 20.5c-.1 12-8.9 20.5-19.1 20.5zm90.8-46.7h-.5c-3.3-4-9.7-7.6-17.8-7.6-16.9 0-32.4 14.9-32.4 33.9 0 18.9 15.5 33.7 32.4 33.7 8.1 0 14.5-3.6 17.8-7.7h.5v4.9c0 12.9-6.9 19.8-18 19.8-9.1 0-14.7-6.5-17-12l-12.9 5.4c3.7 9 13.6 20 30 20 17.4 0 32.1-10.2 32.1-35.2V73.3h-14.1l-.1 5.5zm-17 46.7c-10.2 0-18.8-8.6-18.8-20.4 0-11.9 8.6-20.6 18.8-20.6 10.1 0 18 8.7 18 20.6 0 11.9-7.9 20.4-18 20.4zM347.6 71.2c-18.7 0-33.9 14.2-33.9 33.8 0 19.5 15.2 33.8 33.9 33.8s33.9-14.3 33.9-33.8c0-19.5-15.2-33.8-33.9-33.8zm0 54.3c-10.2 0-19.1-8.5-19.1-20.5 0-12.2 8.8-20.5 19.1-20.5 10.2 0 19.1 8.3 19.1 20.5-.1 12-8.9 20.5-19.1 20.5zm-88.1-44v14.3h34.3c-1 8.1-3.7 14-7.8 18.1-5 5-12.8 10.5-26.5 10.5-21.1 0-37.6-17-37.6-38.1s16.5-38.1 37.6-38.1c11.4 0 19.7 4.5 25.9 10.2l10.1-10.1c-8.6-8.2-20-14.5-36-14.5-28.9 0-53.3 23.6-53.3 52.5s24.3 52.5 53.3 52.5c15.6 0 27.4-5.1 36.6-14.7 9.5-9.5 12.4-22.8 12.4-33.5 0-3.3-.3-6.4-.8-9l-48.2-.1zm360 11.3c-2.8-7.6-11.4-21.5-28.9-21.5-17.4 0-31.9 13.7-31.9 33.8 0 18.9 14.3 33.8 33.5 33.8 15.5 0 24.5-9.5 28.2-15l-11.5-7.7c-3.8 5.6-9.1 9.3-16.6 9.3-7.5 0-12.9-3.5-16.4-10.2l45.2-18.7-1.6-3.8zm-46 11.2c-.4-13.1 10.1-19.7 17.7-19.7 5.9 0 10.9 2.9 12.5 7.2L573.5 104zm-36.8 32.8h14.8V37.5h-14.8v99.3zm152.4-99.3h-35.5v99.3h14.8V99.2h20.7c16.4 0 32.6-11.9 32.6-30.9 0-18.9-16.2-30.8-32.6-30.8zm.4 47.7h-21.1v-34h21.1c11.1 0 17.4 9.2 17.4 17 0 7.8-6.3 17-17.4 17zm40.4 51.6h14.8V37.5h-14.8v99.3zM781.1 71c-10.7 0-21.9 4.7-26.5 15.2l13.2 5.5c2.8-5.5 8-7.3 13.5-7.3 7.7 0 15.5 4.6 15.6 12.8v1c-2.7-1.5-8.4-3.8-15.5-3.8-14.2 0-28.6 7.8-28.6 22.4 0 13.3 11.6 21.8 24.7 21.8 10 0 15.5-4.5 18.9-9.7h.5v7.7h14.3V98.5c.1-17.6-13.1-27.5-30.1-27.5zm-1.8 54.5c-4.9 0-11.6-2.4-11.6-8.4 0-7.7 8.4-10.6 15.7-10.6 6.5 0 9.6 1.4 13.5 3.3-1.1 9.2-9 15.7-17.6 15.7zm84.1-52.3l-17 43.1h-.5l-17.6-43.1h-16l26.4 60.2-15.1 33.6h15.5l40.8-93.7h-16.5v-.1z" fill="#000" opacity=".54"/><path d="M3.5 3.5C1.5 5.6.3 8.9.3 13.1v151.3c0 4.2 1.2 7.5 3.2 9.6l.5.5 84.8-84.8v-2L4 2.9l-.5.6z" fill="url(#a)"/><path d="M117 118L88.8 89.7v-2l28.3-28.3.6.4 33.5 19c9.6 5.4 9.6 14.3 0 19.8l-33.5 19-.7.4z" fill="url(#b)"/><path d="M117.7 117.6L88.8 88.7 3.5 174c3.1 3.3 8.4 3.8 14.2.4l100-56.8" fill="url(#c)"/><path d="M117.7 59.9L17.7 3.1C11.8-.2 6.6.2 3.5 3.5l85.3 85.3 28.9-28.9z" fill="url(#d)"/><path d="M117 117l-99.3 56.4c-5.6 3.2-10.5 3-13.7.1l-.5.5.5.5c3.2 2.9 8.2 3.1 13.7-.1l100-56.8-.7-.6z" fill="#000" opacity=".2"/><path d="M3.5 173c-2-2.1-3.2-5.4-3.2-9.6v1c0 4.2 1.2 7.5 3.2 9.6l.5-.5-.5-.5zm147.6-75.4L117 117l.6.6 33.5-19c4.8-2.7 7.2-6.3 7.2-9.9-.4 3.3-2.8 6.4-7.2 8.9z" fill="#000" opacity=".12"/><path d="M17.7 4l133.4 75.8c4.3 2.5 6.8 5.6 7.2 8.9 0-3.6-2.4-7.2-7.2-9.9L17.7 3C8.1-2.4.3 2.1.3 13v1C.3 3.1 8.1-1.4 17.7 4z" fill="#FFF" opacity=".25"/></g></svg>