<svg width="1325" height="193" xmlns="http://www.w3.org/2000/svg"><g fill="none" fill-rule="evenodd"><path d="M118.4 36c-5.3-5.3-11.3-9.6-17.7-12.8l-7.2 7.9c7.3 3.2 14 8 19.8 14.3 20.1 22.3 20 57-.2 79.1-23.4 25.6-63.6 25.6-87.1 0-20.3-22.1-20.4-56.9-.3-79.1 5.7-6.3 12.5-11.1 19.8-14.4l-7.2-7.9C32 26.4 26 30.7 20.6 36c-27 27-27 70.7 0 97.7l48.9 42.8 48.9-42.8c27-27 27-70.7 0-97.7z" fill="#000"/><path d="M69.5 42.2l-22.9-29 9-9H52l-9 9 26.5 29zm0 5.7l31.8-34.8L88.6.4H50.4L37.7 13.1l31.8 34.8zm0 139.3c17.8 0 32.2 1.3 32.2 2.9 0 1.6-14.4 2.9-32.2 2.9-17.8 0-32.2-1.3-32.2-2.9 0-1.6 14.4-2.9 32.2-2.9z" fill="#000"/><path d="M281.2 40L280 56.8c-4.9-2.7-9.7-4.7-14.6-5.9-4.9-1.2-10.3-1.9-16.3-1.9-9.6 0-18.1 1.9-25.5 5.8-7.4 3.9-13.1 9.3-17.2 16.4-4 7-6.1 15-6.1 23.8 0 9.2 2 17.5 6.2 24.7 4.1 7.2 9.9 12.8 17.4 16.8 7.5 3.9 16.1 5.9 25.8 5.9 5.1 0 10.5-.8 16.4-2.5v-35.1h-26V90.1h43.3v61.4c-6.1 2-11.9 3.5-17.4 4.3-5.5.9-11.3 1.3-17.3 1.3-10.1 0-19.3-1.4-27.5-4.3-8.2-2.8-15.3-7-21.3-12.5s-10.5-12.1-13.5-19.7-4.6-16.2-4.6-25.8c0-12.6 2.9-23.5 8.7-32.6 5.8-9.2 13.8-16.1 23.8-20.8 10-4.7 21.3-7.1 33.7-7.1 12.1-.1 23.2 1.9 33.2 5.7zm94.7 27.5v55.9c0 4.9.4 15.8 1.2 32.8h-15.3l-.7-13.8c-3.6 5-7.9 8.8-12.9 11.3s-10.7 3.8-17 3.8c-12.3 0-20.9-3.8-25.7-11.5-4.8-7.7-7.2-18.1-7.2-31.3v-47h16.5v41.2c0 3.2.1 6.6.2 10.1.2 3.5.4 6.2.7 8.2.3 2 .7 3.8 1.3 5.4 1.6 3.9 3.9 6.9 6.9 8.9 3 2 6.5 3.1 10.6 3.1 3.8 0 7.2-.8 10.3-2.3 3.1-1.5 5.7-3.7 7.9-6.5s3.9-6.2 5-10.2c1.2-4 1.8-8.3 1.8-13V67.5h16.4zm32-39.7V46h-18V27.8h18zm-.4 39.5v88.9h-16.6V67.3h16.6zm92.7-42v89.5c0 4.6.2 11.6.4 20.9.3 9.3.6 16.2.8 20.6h-16.1v-15c-3.6 5.5-7.9 9.6-12.9 12.3-5 2.6-10.9 4-17.8 4-7.8 0-14.6-1.8-20.5-5.5s-10.5-8.9-13.6-15.8c-3.2-6.9-4.7-14.9-4.7-24 0-6.9.9-13.2 2.7-18.7 1.8-5.6 4.5-10.5 8-14.7 3.6-4.3 7.7-7.5 12.4-9.6 4.7-2.2 10-3.2 15.7-3.2 12.6 0 22.4 5.1 29.5 15.4 0-.9 0-2.1-.1-3.7s-.2-3.2-.3-4.7c-.1-1.6-.1-2.8-.1-3.7V25.3h16.6zm-41.5 54.6c-3.7 0-7.1.8-10.2 2.3-3.1 1.5-5.8 3.8-8.1 6.7-2.3 2.9-4.1 6.3-5.3 10.4-1.2 4-1.9 8.3-1.9 12.8 0 9.2 2.3 16.8 7 22.7 4.7 5.9 10.6 8.8 17.9 8.8 4.9 0 9.3-1.4 13.2-4.1 3.9-2.7 7-6.6 9.2-11.4 2.2-4.9 3.4-10.2 3.4-16.1 0-5.9-1.1-11.3-3.3-16.2-2.2-4.9-5.3-8.7-9.1-11.5-3.9-3.1-8.2-4.4-12.8-4.4zm67.8 36.1c1.2 8.8 4.4 15.8 9.7 20.9 5.3 5.1 11.9 7.7 19.9 7.7 4.7 0 9.3-.7 13.8-2 4.5-1.4 9.1-3.5 13.9-6.3V152c-5.4 2.4-10.3 4.1-14.6 5.1-4.4 1-9 1.5-13.8 1.5-6.9 0-13.1-1.1-18.7-3.4-5.6-2.2-10.4-5.5-14.4-9.7-4-4.2-7-9.3-9.1-15.2-2.1-5.9-3.2-12.5-3.2-19.6 0-9.1 1.7-17 5.1-24 3.4-6.9 8.4-12.3 14.8-16.1 6.4-3.8 13.7-5.7 21.9-5.7 9.6 0 17.2 2.4 22.9 7.1 5.7 4.7 9.8 10.9 12.2 18.6 2.4 7.7 3.6 16.2 3.6 25.4h-64zm.2-12.9H574c-.6-4.9-1.7-9.1-3.4-12.8-1.6-3.7-4.1-6.7-7.4-8.9-3.3-2.2-7.3-3.4-12-3.4-6.5 0-11.9 2.2-16.3 6.7-4.2 4.5-7 10.6-8.2 18.4zm117.8-33.7l-1.2 13.8c-5.8-2.9-11.8-4.4-18-4.4-4.6 0-8.2 1-10.9 3.1-2.7 2.1-4 4.7-4 8 0 3.4 1.3 6.1 4 7.9 2.7 1.8 7.4 4.5 14.3 7.9 6.8 3.4 12 6.9 15.6 10.5 3.6 3.6 5.3 8.4 5.3 14.4 0 4-.8 7.7-2.3 11.1-1.5 3.4-3.7 6.2-6.6 8.6-2.9 2.4-6.4 4.2-10.4 5.5-4.1 1.3-8.4 1.9-13.1 1.9-8.2 0-15.9-1.7-23.1-5.1v-14.8c4.3 2.1 8 3.6 11.3 4.5 3.3.9 6.5 1.4 9.6 1.4 3.3 0 6.2-.5 8.8-1.5 2.6-1 4.7-2.4 6.1-4.2 1.5-1.8 2.2-3.8 2.2-5.9 0-3.4-1.4-6-4.2-7.9-2.8-1.9-7.6-4.6-14.3-8.1-6.7-3.5-11.9-7-15.3-10.7-3.5-3.6-5.2-8.3-5.2-13.9 0-5.1 1.3-9.7 3.8-13.6 2.6-3.9 6.2-6.9 10.9-9 4.7-2.1 10.1-3.2 16.2-3.2 6.4.1 13.3 1.3 20.5 3.7zm95.2-43.3v13.8c-3.1-.7-5.9-1.1-8.5-1.1-6.6 0-10.9 2.1-12.8 6.3-1.9 4.2-2.8 10.2-2.8 18v4.6h24.1v12.9h-24.1v75.6h-16.5V80.6h-20.9V67.7h20.9c0-8.2.7-15.4 2-21.7 1.3-6.3 4.1-11.4 8.3-15.5 4.2-4 10.3-6 18.3-6 3.8.1 7.8.6 12 1.6zm89 85.9c0 9-1.9 17-5.8 24.1-3.9 7.1-9.3 12.6-16.3 16.6-7 3.9-14.9 5.9-23.7 5.9-8.6 0-16.4-2-23.3-6-6.9-4-12.3-9.6-16.2-16.8-3.9-7.2-5.9-15.1-5.9-23.8 0-6.9 1.1-13.2 3.3-18.9 2.2-5.7 5.4-10.7 9.5-14.9 4.1-4.2 9-7.5 14.6-9.8 5.6-2.3 11.6-3.5 18.1-3.5 6.5 0 12.6 1.1 18.2 3.4 5.6 2.2 10.5 5.5 14.7 9.8 4.1 4.3 7.3 9.3 9.5 15.1 2.2 5.8 3.3 12 3.3 18.8zm-17.5.4c0-4.9-.7-9.4-2.1-13.8-1.4-4.3-3.3-8-5.9-11.1-2.5-3.1-5.5-5.4-8.9-7.1-3.4-1.7-7.1-2.5-11.1-2.5-8.1 0-14.8 3.2-20.2 9.6-5.4 6.4-8 14.5-8 24.3 0 6.5 1.2 12.3 3.6 17.4 2.4 5.2 5.7 9.2 10 12 4.3 2.8 9.1 4.3 14.6 4.3 5.3 0 10-1.4 14.3-4.2 4.3-2.8 7.6-6.8 10-11.9 2.5-5 3.7-10.7 3.7-17zm26-45.1h15.3l.8 15.8c2.7-5.6 6.1-9.8 10.4-12.7 4.3-2.9 9.3-4.3 15-4.3 3 0 5.9.4 9 1.2v15.1c-2.8-1-5.4-1.5-7.8-1.5-5.7 0-10.5 1.7-14.3 5-3.8 3.3-6.5 7.6-8.3 12.8-1.7 5.2-2.6 10.6-2.6 16.2v41.3h-16.3V102c-.1-8.7-.5-20.3-1.2-34.7zm79.2-32.4h28.7c5.7 0 9.5 0 11.3.1 1.9.1 4 .3 6.2.6 9.1 1.2 16.4 4.6 21.7 10 5.3 5.4 8 12.2 8 20.3 0 7.8-2.3 14.1-6.9 18.7-4.6 4.7-10.9 8-19.1 9.9 9 1.2 16.2 4.2 21.5 8.9 5.3 4.7 7.9 11.4 7.9 20.1 0 5.9-1.5 11.3-4.4 16.2-2.9 4.9-7 8.7-12.2 11.5-3.3 1.8-7.2 3-11.5 3.8-4.4.7-10 1.1-16.9 1.1h-34.5V34.9h.2zm17.3 15v36.7H946c19.4 0 29.1-6.1 29.1-18.4 0-4.2-1-7.6-3.1-10.2-2.1-2.6-4.7-4.5-8-5.6-3.2-1.2-6.5-1.9-9.7-2.1-3.2-.3-7.1-.4-11.7-.4h-8.9zm0 50.9v40.7h13.2c8.6 0 16-1.3 22-4s9.1-7.8 9.1-15.4c0-8.9-3.3-14.6-10-17.3-6.7-2.7-15.1-4-25.3-4h-9zm73.8-33.5h15.3l.8 15.8c2.7-5.6 6.1-9.8 10.4-12.7 4.3-2.9 9.3-4.3 15-4.3 3 0 6 .4 9 1.2v15.1c-2.8-1-5.5-1.5-7.8-1.5-5.7 0-10.5 1.7-14.3 5-3.8 3.3-6.5 7.6-8.3 12.8-1.7 5.2-2.6 10.6-2.6 16.2v41.3h-16.3V102c-.1-8.7-.4-20.3-1.2-34.7zm75.3-39.5V46h-18V27.8h18zm-.4 39.5v88.9h-16.6V67.3h16.6zm92.7-42v89.5c0 4.6.2 11.6.4 20.9.3 9.3.6 16.2.8 20.6h-16.1v-15c-3.6 5.5-7.9 9.6-12.9 12.3-5 2.6-10.9 4-17.9 4-7.8 0-14.6-1.8-20.5-5.5s-10.5-8.9-13.6-15.8c-3.2-6.9-4.7-14.9-4.7-24 0-6.9.9-13.2 2.7-18.7 1.8-5.6 4.5-10.5 8-14.7 3.5-4.3 7.7-7.5 12.4-9.6 4.7-2.2 10-3.2 15.7-3.2 12.6 0 22.4 5.1 29.5 15.4 0-.9-.1-2.1-.1-3.7-.1-1.6-.2-3.2-.3-4.7-.1-1.6-.1-2.8-.1-3.7V25.3h16.7zm-41.5 54.6c-3.7 0-7.1.8-10.2 2.3-3.1 1.5-5.8 3.8-8.1 6.7-2.3 2.9-4.1 6.3-5.3 10.4-1.2 4-1.9 8.3-1.9 12.8 0 9.2 2.3 16.8 7 22.7 4.7 5.9 10.6 8.8 17.9 8.8 4.9 0 9.3-1.4 13.2-4.1 3.9-2.7 7-6.6 9.2-11.4 2.2-4.9 3.4-10.2 3.4-16.1 0-5.9-1.1-11.3-3.3-16.2-2.2-4.9-5.3-8.7-9.1-11.5-3.9-3.1-8.1-4.4-12.8-4.4zm67.8 36.1c1.2 8.8 4.4 15.8 9.7 20.9 5.3 5.1 11.9 7.7 19.9 7.7 4.7 0 9.3-.7 13.8-2 4.5-1.4 9.1-3.5 13.9-6.3V152c-5.4 2.4-10.3 4.1-14.6 5.1-4.4 1-9 1.5-13.8 1.5-6.9 0-13.1-1.1-18.7-3.4-5.6-2.2-10.4-5.5-14.4-9.7-4-4.2-7-9.3-9.1-15.2-2.1-5.9-3.2-12.5-3.2-19.6 0-9.1 1.7-17 5.2-24 3.4-6.9 8.4-12.3 14.8-16.1 6.4-3.8 13.7-5.7 21.9-5.7 9.6 0 17.2 2.4 22.9 7.1 5.7 4.7 9.8 10.9 12.2 18.6 2.4 7.7 3.6 16.2 3.6 25.4h-64.1zm.2-12.9h47.3c-.6-4.9-1.7-9.1-3.4-12.8-1.7-3.7-4.1-6.7-7.4-8.9-3.2-2.2-7.3-3.4-12-3.4-6.5 0-11.9 2.2-16.3 6.7-4.2 4.5-7 10.6-8.2 18.4zm117.8-33.7l-1.2 13.8c-5.8-2.9-11.8-4.4-18-4.4-4.6 0-8.2 1-10.9 3.1-2.7 2.1-4 4.7-4 8 0 3.4 1.3 6.1 4 7.9 2.7 1.8 7.4 4.5 14.2 7.9 6.8 3.4 12 6.9 15.6 10.5 3.6 3.6 5.3 8.4 5.3 14.4 0 4-.8 7.7-2.3 11.1-1.5 3.4-3.7 6.2-6.6 8.6-2.9 2.4-6.4 4.2-10.4 5.5-4.1 1.3-8.4 1.9-13.1 1.9-8.2 0-15.9-1.7-23.1-5.1v-14.8c4.3 2.1 8 3.6 11.3 4.5 3.3.9 6.5 1.4 9.6 1.4 3.3 0 6.2-.5 8.8-1.5 2.6-1 4.6-2.4 6.1-4.2 1.5-1.8 2.2-3.8 2.2-5.9 0-3.4-1.4-6-4.2-7.9-2.8-1.9-7.6-4.6-14.3-8.1-6.7-3.5-11.8-7-15.3-10.7-3.5-3.6-5.2-8.3-5.2-13.9 0-5.1 1.3-9.7 3.8-13.6 2.6-3.9 6.2-6.9 10.9-9 4.7-2.1 10.1-3.2 16.2-3.2 6.5.1 13.4 1.3 20.6 3.7z" fill="#333" fill-rule="nonzero"/></g></svg>