<svg width="499" height="71" xmlns="http://www.w3.org/2000/svg"><g fill="none"><path d="M234.911 53.338c-8.684 0-14.837-6.325-14.837-18.345 0-12.364 6.153-18.402 14.837-18.402 8.799 0 14.952 6.383 14.952 18.402 0 12.076-6.153 18.345-14.952 18.345zm35.213-18.057C270.124 15.796 254.328 0 234.843 0s-35.281 15.796-35.281 35.281 15.918 35.281 35.403 35.281c7.068 0 13.285-2.086 19.285-5.664v.03c-6-2.933-13.013-6.616-18.361-9.616h-.978c-12.537 0-20.646-7.916-20.646-20.338 0-12.537 8.34-20.52 20.646-20.52 12.71 0 20.192 7.882 20.192 20.535 0 9.891-5.853 17.142-13.853 18.867v.173c5 2.395 11.81 5.213 17.126 7.06 6.91-6.44 11.748-15.617 11.748-25.808z" fill="#0F4777"/><path d="M28.073 44.38c0 1.666.09 3.604.18 4.957l-.135.179c-2.298.767-6.804 1.757-10.86 1.757C6.534 51.273 0 45.776 0 35.277c0-9.914 6.444-15.998 17.123-15.998 5.002 0 9.193 1.308 10.635 2.073-.45 1.172-.811 2.614-1.126 4.236l-.812.09c-1.126-2.704-4.055-4.416-8.471-4.416-7.165 0-12.032 4.506-12.032 14.015 0 8.471 4.236 13.744 12.347 13.744 2.343 0 4.642-.406 6.038-1.127 0-4.01-.135-7.66-.495-10.68.946.045 1.802.09 2.613.09.811 0 1.802-.045 2.524-.09-.226 2.48-.27 5.137-.27 7.166h-.001zM74.8 37.304c0 2.75-.451 5.273-1.217 7.165-1.667 4.19-5.317 6.94-11.581 6.94-8.832 0-12.843-3.605-12.843-12.797 0-2.795.135-5.724.135-7.976 0-4.957-.09-8.111-.27-10.725.811.044 1.803.09 2.614.09.856 0 1.893-.046 2.839-.09-.316 3.154-.676 9.328-.676 15.906 0 7.887 1.037 13.248 9.193 13.248 5.001 0 7.48-2.477 8.606-6.398.586-1.893.676-3.966.676-6.669 0-6.624-.225-12.392-.63-16.087.72.044 1.306.09 1.802.09.495 0 1.261-.046 1.802-.09-.315 4.1-.45 8.877-.45 17.393zm25.455 13.339c-.811 0-1.802.045-2.613.09.225-3.604.36-9.553.36-13.61v-4.505c0-4.055-.135-9.102-.36-12.707.81.044 1.802.09 2.613.09.811 0 1.803-.046 2.614-.09-.225 3.605-.36 8.652-.36 12.707v4.506c0 4.01.135 10.004.36 13.609a51.363 51.363 0 0 0-2.614-.09zm30.009-.046c-1.172 0-3.785.091-4.821.136.225-3.604.36-9.553.36-13.61v-4.505c0-4.055-.135-9.102-.36-12.707.81.044 1.802.09 2.613.09.811 0 1.802-.046 2.613-.09-.224 3.605-.36 8.652-.36 12.707v4.506c0 4.056.09 9.464.18 11.4 3.786 0 8.292-.179 12.032-.765-.045.765-.045 1.216-.045 1.532 0 .27 0 .721.045 1.442-3.65-.045-8.426-.136-12.257-.136zm41.05.136c-2.165 0-5.59-.09-7.617-.09-1.216 0-3.29.045-4.822.09.225-3.74.36-8.652.36-12.707v-5.408c0-4.055-.135-8.967-.36-12.707 1.262.044 3.38.09 4.822.09 2.163 0 5.363-.09 7.616-.09 10.68 0 16.358 3.876 16.358 14.78 0 11.897-8.517 16.041-16.358 16.041l.001.001zm-1.038-28.884c-2.208 0-4.46.18-6.263.45-.18 2.704-.225 7.255-.225 10.274v5.363c0 2.884.044 7.75.225 10.409 1.262.27 3.335.405 5.317.405 6.173 0 13.023-2.388 13.023-14.06 0-10.273-5.182-12.841-12.077-12.841zm138.33 15.455c0 2.75-.45 5.273-1.217 7.165-1.667 4.19-5.317 6.94-11.58 6.94-8.833 0-12.843-3.605-12.843-12.797 0-2.795.135-5.724.135-7.976 0-4.957-.09-8.111-.27-10.725.81.044 1.802.09 2.613.09.856 0 1.892-.046 2.839-.09-.315 3.154-.676 9.328-.676 15.906 0 7.887 1.037 13.248 9.192 13.248 5.003 0 7.481-2.477 8.608-6.398.585-1.893.676-3.966.676-6.669 0-6.624-.226-12.392-.632-16.087.721.044 1.307.09 1.803.09s1.262-.046 1.802-.09c-.315 4.1-.45 8.877-.45 17.393zm45.418 13.428a80.68 80.68 0 0 0-3.063-.09c-.676 0-1.578.046-2.524.09-.811-2.928-2.433-7.57-3.92-11.625-1.578-.045-3.966-.045-5.859-.045-1.847 0-3.65 0-5.407.045-1.758 4.236-3.47 8.877-4.236 11.626-.57-.053-1.14-.083-1.712-.09-.631 0-1.352.045-1.848.09l-.135-.09c5.002-10.544 9.778-20.864 14.195-31.093h2.253c3.695 10.004 10.094 26.136 12.391 31.093l-.135.09v-.001zM339.29 25.229c-1.353 2.884-3.876 8.562-5.183 11.76 1.262.046 3.154.046 4.642.046 1.622 0 3.695 0 5.001-.045-.9-2.479-3.064-8.336-4.46-11.761zm38.884 25.37c-1.172 0-3.786.09-4.822.135.225-3.604.36-9.553.36-13.61v-4.505c0-4.055-.135-9.102-.36-12.707.811.044 1.803.09 2.614.09.811 0 1.803-.046 2.614-.09-.226 3.605-.362 8.652-.362 12.707v4.506c0 4.056.091 9.464.18 11.4 3.786 0 8.293-.179 12.032-.765-.044.765-.044 1.216-.044 1.532 0 .27 0 .721.044 1.442-3.65-.045-8.426-.136-12.256-.136v.001zm35.01.045c-.811 0-1.803.045-2.614.09.225-3.604.36-9.553.36-13.61v-4.505c0-4.055-.135-9.102-.36-12.707.811.044 1.803.09 2.614.09.811 0 1.802-.046 2.613-.09-.226 3.605-.36 8.652-.36 12.707v4.506c0 4.01.134 10.004.36 13.609-.81-.045-1.802-.09-2.613-.09zm36.321-28.48c-.09 1.803-.135 4.102-.135 5.318v9.643c0 4.01.135 10.004.361 13.609a51.498 51.498 0 0 0-2.613-.09c-.811 0-1.803.045-2.614.09.225-3.604.36-9.553.36-13.61v-9.642c0-1.262-.045-3.56-.135-5.318-2.93 0-7.165.316-9.282.632.044-.676.044-1.082.044-1.487 0-.406 0-.767-.044-1.397 2.793.135 7.84.18 11.625.18 3.876 0 8.922-.045 11.717-.18-.046.63-.046.991-.046 1.397 0 .405 0 .81.046 1.487-2.073-.316-6.31-.632-9.284-.632zm37.985 15.412v1.802c0 4.055.09 7.751.36 11.355a46.452 46.452 0 0 0-2.568-.09c-.811 0-1.803.046-2.658.09.27-3.604.36-7.3.36-11.355v-1.441c-2.344-4.146-7.93-13.654-10.725-17.935l.135-.09c1.217.044 2.389.09 3.244.09.902 0 1.758-.046 2.524-.09 1.983 4.146 5.317 10.184 8.157 15.096h.135c2.613-4.462 6.398-11.536 7.885-15.096.54.044 1.172.09 1.667.09.541 0 1.578-.046 1.984-.09l.135.09c-2.524 3.605-8.562 13.563-10.635 17.574z" fill="#010101"/></g></svg>