<svg width="502" height="75" xmlns="http://www.w3.org/2000/svg"><g fill="none"><path d="M490.986 56.022h4.108v.837h-1.598v4.335h-.912V56.86h-1.598v-.837zm10.421 0v5.172h-.912V57.24l-1.37 3.195h-.912l-1.37-3.195v3.955h-.912v-5.172h1.293l1.445 3.347 1.445-3.347h1.293zM122.67 29.779c-2.282 0-6.238.456-9.204 3.499V17.912a2.89 2.89 0 0 0-2.89-2.89h-.381a2.89 2.89 0 0 0-2.89 2.89V58.38a2.89 2.89 0 0 0 2.89 2.89h.456a2.89 2.89 0 0 0 2.89-2.89V44.003c0-4.868 3.424-8.291 8.292-8.291s7.607 2.967 7.607 8.14V58.38a2.89 2.89 0 0 0 2.89 2.89h.457a2.89 2.89 0 0 0 2.89-2.89V42.178c0-7.379-5.248-12.4-13.007-12.4zm42.065 13.235h-16.963c.989-4.716 4.184-7.53 8.672-7.53 4.411-.076 7.53 2.814 8.29 7.53zm-8.14-13.235c-8.9 0-15.365 6.77-15.365 16.05 0 9.432 6.466 16.05 15.67 16.05 4.412 0 7.911-1.065 10.954-3.347.532-.38.912-.989.989-1.673.076-.685-.077-1.446-.533-1.978-.989-1.293-2.738-1.598-4.032-.76-2.13 1.368-4.64 2.129-7.074 2.129-5.096 0-8.671-3.119-9.508-8.14h21.07c1.37 0 2.435-1.14 2.435-2.433-.076-9.28-6.086-15.898-14.605-15.898zm34.307 26.243c-5.629 0-9.737-4.26-9.737-10.193 0-5.857 4.108-10.117 9.737-10.117 5.629 0 9.66 4.26 9.66 10.117 0 5.933-4.031 10.193-9.66 10.193zm12.703-25.635h-.456a2.89 2.89 0 0 0-2.89 2.89v.305c-2.587-2.51-6.01-3.803-9.966-3.803-8.823 0-15.441 6.922-15.441 16.05 0 9.204 6.618 16.05 15.441 16.05 3.956 0 7.379-1.293 9.965-3.803v.228a2.89 2.89 0 0 0 2.89 2.89h.457a2.89 2.89 0 0 0 2.89-2.89V33.202c0-1.522-1.292-2.815-2.89-2.815zm13.388-15.365h-.456a2.89 2.89 0 0 0-2.891 2.89V58.38a2.89 2.89 0 0 0 2.89 2.89h.457a2.89 2.89 0 0 0 2.89-2.89V17.912a2.89 2.89 0 0 0-2.89-2.89zm28.981 40.087c-1.369.609-2.738.913-4.031.913-3.271 0-5.097-2.054-5.097-5.857V36.168h9.66a2.89 2.89 0 0 0 2.891-2.89 2.89 2.89 0 0 0-2.89-2.89h-9.66v-6.466a2.89 2.89 0 0 0-2.891-2.891h-.457a2.89 2.89 0 0 0-2.89 2.89v6.466h-3.5a2.89 2.89 0 0 0-2.89 2.89 2.89 2.89 0 0 0 2.89 2.891h3.5v14.073c0 7.53 3.88 11.714 10.877 11.714 2.51 0 4.869-.608 7.075-1.673.684-.38 1.217-.99 1.445-1.75.228-.76.076-1.597-.304-2.358-.837-1.217-2.358-1.674-3.728-1.065zm24.342-25.33c-2.282 0-6.238.456-9.204 3.499V17.912a2.89 2.89 0 0 0-2.89-2.89h-.457a2.89 2.89 0 0 0-2.89 2.89V58.38a2.89 2.89 0 0 0 2.89 2.89h.456a2.89 2.89 0 0 0 2.89-2.89V44.003c0-4.868 3.424-8.291 8.292-8.291s7.607 2.967 7.607 8.14V58.38a2.89 2.89 0 0 0 2.89 2.89h.457a2.89 2.89 0 0 0 2.89-2.89V42.178c.076-7.379-5.172-12.4-12.931-12.4zM314.359 45.6c0 5.78-4.032 9.888-9.585 9.888-5.553 0-9.584-4.183-9.584-9.888s4.031-9.89 9.584-9.89 9.585 4.185 9.585 9.89zm2.89-15.214h-.456a2.89 2.89 0 0 0-2.89 2.89v.229c-2.435-2.51-5.782-3.803-9.737-3.803-8.9 0-15.29 6.694-15.29 15.822 0 9.204 6.466 15.898 15.29 15.898 3.955 0 7.226-1.294 9.736-3.728v1.217c0 6.086-3.803 9.66-10.117 9.66-2.814 0-5.553-.684-8.063-2.053-.684-.38-1.369-.456-2.13-.228-.76.228-1.369.684-1.673 1.37l-.076.151c-.76 1.37-.228 3.119 1.14 3.88 3.044 1.673 6.999 2.662 10.878 2.662 10.117 0 16.43-6.01 16.43-15.67V33.278c-.151-1.598-1.444-2.89-3.042-2.89zm27.308-.38a18.073 18.073 0 0 0-2.966-.228c-3.195 0-6.01 1.217-8.14 3.575a2.89 2.89 0 0 0-2.89-2.89h-.38a2.89 2.89 0 0 0-2.89 2.89v25.102a2.89 2.89 0 0 0 2.89 2.89h.456a2.89 2.89 0 0 0 2.89-2.89V44.231c0-5.02 2.891-8.443 7.227-8.443.913 0 1.826.076 2.738.304 1.598.38 3.195-.608 3.575-2.13l.077-.228c.228-.837.076-1.673-.38-2.434-.61-.685-1.37-1.141-2.207-1.293zm19.93 26.015c-5.63 0-9.737-4.26-9.737-10.193 0-5.857 4.108-10.117 9.737-10.117 5.629 0 9.66 4.26 9.66 10.117.076 5.933-4.031 10.193-9.66 10.193zm12.78-25.635h-.457a2.89 2.89 0 0 0-2.89 2.89v.305c-2.587-2.51-6.01-3.803-9.966-3.803-8.823 0-15.441 6.922-15.441 16.05 0 9.204 6.618 16.05 15.441 16.05 3.956 0 7.379-1.293 9.965-3.803v.228a2.89 2.89 0 0 0 2.89 2.89h.457a2.89 2.89 0 0 0 2.89-2.89V33.202c0-1.522-1.293-2.815-2.89-2.815zM411.8 45.905c0 5.933-4.032 10.193-9.661 10.193s-9.737-4.26-9.737-10.193c0-5.857 4.108-10.117 9.737-10.117 5.553-.076 9.66 4.184 9.66 10.117zm3.042-30.883h-.456a2.89 2.89 0 0 0-2.89 2.89v15.67c-2.587-2.51-6.01-3.803-9.966-3.803-8.823 0-15.441 6.922-15.441 16.05 0 9.204 6.618 16.05 15.441 16.05 3.956 0 7.379-1.293 9.965-3.803v.228a2.89 2.89 0 0 0 2.89 2.89h.457a2.89 2.89 0 0 0 2.89-2.89V17.836c0-1.521-1.292-2.814-2.89-2.814zM473.11 43.09l-3.424-.456c-4.716-.532-5.248-2.13-5.248-3.347 0-2.358 2.434-3.88 6.161-3.88 2.434 0 5.097.61 7.455 1.674 1.445.609 3.043.076 3.803-1.217.38-.685.457-1.445.228-2.206-.228-.76-.76-1.293-1.445-1.673-2.89-1.37-6.466-2.13-10.117-2.13-7.606 0-12.55 3.803-12.55 9.736 0 3.5 1.825 7.835 10.42 8.9l3.423.38c5.477.685 5.477 2.815 5.477 3.5 0 2.51-2.662 4.031-7.378 4.031-3.195 0-5.857-.608-8.063-1.902-1.37-.76-2.967-.38-3.804.99a2.589 2.589 0 0 0-.304 2.13c.152.76.685 1.368 1.37 1.749 4.183 2.282 8.595 2.662 10.877 2.662 8.367 0 13.768-3.88 13.768-9.889-.152-3.575-1.978-7.91-10.65-9.052zm-26.015-.076h-16.963c.989-4.716 4.183-7.53 8.671-7.53 4.412-.076 7.53 2.814 8.292 7.53zm-8.14-13.235c-8.9 0-15.365 6.77-15.365 16.05 0 9.432 6.466 16.05 15.67 16.05 4.412 0 7.91-1.065 10.953-3.347.533-.38.913-.989.99-1.673.075-.685-.077-1.446-.533-1.978-.99-1.217-2.739-1.598-4.032-.76-2.13 1.368-4.64 2.129-7.074 2.129-5.097 0-8.672-3.119-9.508-8.14h20.994c1.37 0 2.434-1.14 2.434-2.433 0-9.28-6.01-15.898-14.529-15.898z" fill="#626366"/><g transform="translate(-.102 -.268)" fill="#0202EA"><path d="M64.277 27.764a4.438 4.438 0 0 0 3.118 1.294c1.141 0 2.206-.457 3.12-1.294l15.669-15.67c1.673-1.673 1.673-4.487 0-6.16-1.674-1.674-4.488-1.674-6.162 0l-15.67 15.669a4.21 4.21 0 0 0-.075 6.161z"/><path d="M78.425 35.219c-1.673-1.673-4.26-1.673-6.01-.152L49.9 57.583c-1.293 1.293-3.347 1.293-4.564 0-1.293-1.293-1.293-3.347 0-4.564l8.063-8.063v-.076l8.367-8.368c1.674-1.673 1.674-4.488 0-6.161-1.673-1.674-4.488-1.674-6.161 0l-4.868 4.868-.761.76c-1.293 1.294-3.27 1.294-4.564 0-1.293-1.292-1.293-3.27 0-4.563l3.347-3.347 16.126-16.126c1.674-1.674 1.674-4.488 0-6.162-1.673-1.673-4.488-1.673-6.161 0l-9.66 9.432c-.838.837-1.979 1.294-3.043 1.294a4.4 4.4 0 0 1-2.967-1.141l-9.052-9.052c-7.683-7.683-20.158-7.683-27.84 0C2.433 10.04.38 14.985.38 20.234c0 5.248 2.054 10.193 5.781 13.92l36.513 36.512c0 .076.076.076.076.152a4.438 4.438 0 0 0 3.118 1.294c1.141 0 2.206-.457 3.12-1.294l29.361-29.361a4.431 4.431 0 0 0 .076-6.238z"/><circle cx="83.522" cy="29.058" r="4.336"/></g></g></svg>