<svg width="459" height="72" xmlns="http://www.w3.org/2000/svg"><g fill="none"><path d="M124.6 54.1v-19h-16.9v19H96.4V8.6h11.3V26h16.9V8.6h11.3v45.6h-11.3zm32.7.8c-10.8 0-18.1-6.7-18.1-17.8 0-11 7.2-17.7 18-17.7s18.1 6.6 18.1 17.7-7.3 17.8-18 17.8zm0-27.4c-4.7 0-6.8 4.3-6.8 9.5s2.1 9.6 6.7 9.6c4.7 0 6.8-4.3 6.8-9.6 0-5.2-2.1-9.5-6.7-9.5zm62.9 26.6V34.6c0-3.6-.9-6.1-4.4-6.1-3.6 0-5.2 3.7-5.5 5.9v19.7h-11V34.6c0-3.6-.9-6.1-4.4-6.1-3.6 0-5.2 3.7-5.5 5.9v19.7h-11v-34h10.4l.6 5.2c2.4-3.7 5.5-6 10-6 4.7 0 8.2 2 9.8 6.3 2.7-3.7 6-6.3 11.1-6.3 7 0 11 4.4 11 12.8v22h-11.1zm25.3-14.3c.2 5 4.1 7 8.4 7 4.3 0 8.5-2 9.8-3.2l3.6 6.4s-4.7 4.8-15 4.8-17.9-6.3-17.9-17.7c0-11.5 7.6-17.8 17.8-17.8 10.2 0 16 7.2 16 17.6v2.9h-22.7zm6.3-13.2c-4.2 0-6.2 3.2-6.5 6.5h12.6c-.1-3.5-2-6.5-6.1-6.5z" fill="#F58220"/><path d="M303.2 54.2L299 42.6h-19.7l-4.2 11.7h-5.3l16.5-44.2h6L309 54.2h-5.8zm-14-39.2l-8.4 23.2h16.8L289.2 15zm44.3 39.2l-.8-5.1c-.1.2-3.1 5.7-10.9 5.7-8.4 0-13.6-7.1-13.6-16.6 0-9.5 5.9-16.6 14.3-16.6 7.2 0 9.9 5.3 10.2 6.1v-19h5.1v45.6h-4.3v-.1zm-10.1-28.4c-6 0-9.9 5.6-9.9 12.5 0 6.7 3.6 12.5 9.5 12.5 6 0 9.9-5.6 9.9-12.5 0-6.8-3.6-12.5-9.5-12.5zm34.8 28.4h-5.4l-12.2-31.9h5.4l9.5 26.9 9.5-26.9h5.4zm17.9-38.9c-2 0-3.7-1.5-3.7-3.5s1.6-3.6 3.6-3.6 3.7 1.5 3.7 3.5-1.6 3.6-3.6 3.6zm-2.6 38.9V22.4h5.1v31.9h-5.1v-.1zm29.3-2.3c-1.9 1.7-4.8 2.9-9 2.9-6.7 0-11.1-4.2-12.2-5.6l3-3.1c1.7 1.9 5.3 4.7 9.4 4.7 4.1 0 6.8-1.7 6.8-4.8 0-3.1-3.3-4.2-5.1-4.9-1.8-.6-4.7-1.5-6.2-2.2-1.5-.6-6.3-2.6-6.3-8.1s4.7-9.2 11.3-9.2c6.7 0 10.7 4 10.9 4.2l-2.4 3.5c-1.7-1.7-4.9-3.7-8.5-3.7-3.6 0-6.5 1.5-6.5 4.5 0 3.1 3.1 4.1 5.2 4.9 2.1.8 4.5 1.5 6 2.1 1.5.6 6.5 2.7 6.5 8.1 0 2.8-1.2 5.1-2.9 6.7zm19.9 3c-9 0-15.1-6.5-15.1-16.6 0-10.1 6.1-16.6 15.1-16.6s15.1 6.5 15.1 16.6c0 10-6.1 16.6-15.1 16.6zm0-29.1c-6.3 0-9.8 5.2-9.8 12.5 0 7.4 3.5 12.5 9.8 12.5 6.3 0 9.8-5.1 9.8-12.5s-3.6-12.5-9.8-12.5zM458 27s-.8-.4-2.2-.4c-1.5 0-3 .3-4.7 1.5-1.8 1.3-4 3.9-4.6 7.7v18.4h-5.1V22.4h4.7l.4 6.4c1.7-3.7 5.4-7.1 9.8-7.1 1.5 0 2.5.3 2.5.3l-.8 5zM57.1 35.2l-1.4-1.4-21.9-21.9-19 19v18.4c0 2.7 2.2 4.9 4.9 4.9h22.4l17.1 17.1V54.2h9.6c2.7 0 4.9-2.2 4.9-4.9v-14H57.1v-.1z" fill="#5D6770"/><path fill="#F58220" d="M59 .7H29.6L0 30.3h8.4L33.8 4.9l25.4 25.4h29.4z"/></g></svg>