<svg width="156" height="30" xmlns="http://www.w3.org/2000/svg"><g fill-rule="nonzero" fill="none"><path d="M17.928 5.518l-6.97 7.755L0 7.676v3.352l1.47.78v11.64l11.62 5.933 11.626-5.907v-11.22l1.465.742V9.72L17.93 5.518h-.002zm1.91 17.16v-5.303l-2.897 1.46v5.296l-3.844 1.93-8.747-4.387v-8.507l7.25 3.7 7.016-7.73 3.916 2.01.013 10.174-2.707 1.357z" fill="#F7841B"/><path d="M10.038 4.587V1.563L6.96 0 5.02 2.164v3.45l2.83 1.43 2.188-2.457zM108.16 22.52c0 .852-.684 1.54-1.528 1.54-.845 0-1.53-.688-1.53-1.54 0-.85.685-1.54 1.53-1.54.844 0 1.528.69 1.528 1.54z" fill="#F7841B"/><path d="M30.64 6.485h2.996v6.854h7.787V6.484h2.995v17.233h-2.996v-7.773h-7.788v7.773H30.64V6.485zm15.262 10.981c0-3.813 2.275-6.564 6.252-6.564s6.252 2.75 6.252 6.564c0 3.838-2.275 6.59-6.252 6.59s-6.252-2.752-6.252-6.59zm9.773 0c0-2.148-1.078-4.392-3.52-4.392-2.445 0-3.522 2.244-3.522 4.392 0 2.172 1.077 4.417 3.52 4.417 2.444 0 3.52-2.245 3.52-4.417h.002zm4.287-6.226h2.587v1.74h.072c.815-1.23 1.844-2.075 3.81-2.075 1.508 0 2.922.65 3.472 2.075.91-1.28 2.084-2.075 3.88-2.075 2.61 0 4.145 1.157 4.145 4.2v8.612h-2.733v-7.29c0-1.98-.12-3.355-2.25-3.355-1.846 0-2.636 1.232-2.636 3.33v7.314h-2.73v-8.01c0-1.715-.528-2.632-2.184-2.632-1.413 0-2.707 1.158-2.707 3.234v7.407H59.96V11.24h.002zm22.253 6.95c0 1.956 1.054 3.694 3.33 3.694 1.58 0 2.54-.7 3.018-2.076h2.587c-.6 2.727-2.898 4.248-5.604 4.248-3.88 0-6.06-2.727-6.06-6.565 0-3.547 2.298-6.588 5.988-6.588 3.904 0 6.3 3.548 5.845 7.29h-9.105l.001-.003zm6.372-1.81c-.096-1.738-1.27-3.306-3.114-3.306-1.892 0-3.186 1.448-3.258 3.306h6.372zm6.156 3.33c.146 1.594 1.342 2.173 2.803 2.173 1.03 0 2.826-.22 2.755-1.64-.072-1.45-2.06-1.618-4.047-2.076-2.013-.434-3.977-1.16-3.977-3.693 0-2.728 2.923-3.572 5.174-3.572 2.54 0 4.84 1.06 5.173 3.837h-2.85c-.24-1.304-1.317-1.666-2.515-1.666-.79 0-2.25.193-2.25 1.28 0 1.35 2.01 1.544 4.023 2.002 1.99.458 4.004 1.183 4.004 3.645 0 2.97-2.97 4.055-5.532 4.055-3.113 0-5.436-1.4-5.485-4.344h2.726l-.002-.001zm24.313-4.536c-.407-1.858-1.533-2.993-3.493-2.993-2.9 0-4.336 2.656-4.336 5.31 0 2.657 1.437 5.31 4.336 5.31 1.868 0 3.4-1.47 3.593-3.547h1.51c-.41 2.992-2.348 4.827-5.103 4.827-3.785 0-5.845-3.017-5.845-6.59 0-3.57 2.06-6.588 5.845-6.588 2.634 0 4.67 1.424 5.006 4.272h-1.514l.001-.001zm14.064 2.316c0 3.572-2.06 6.59-5.846 6.59-3.785 0-5.845-3.018-5.845-6.59 0-3.57 2.06-6.588 5.844-6.588 3.785 0 5.845 3.017 5.845 6.59l.002-.002zm-10.182 0c0 2.655 1.437 5.31 4.336 5.31 2.9 0 4.336-2.655 4.336-5.31 0-2.654-1.437-5.31-4.336-5.31-2.9 0-4.337 2.656-4.337 5.31h.001zm11.71-6.226h1.388v2.1h.073c.79-1.497 2.083-2.462 4.047-2.462 1.63 0 3.09.796 3.546 2.437.743-1.642 2.3-2.438 3.93-2.438 2.707 0 4.096 1.424 4.096 4.368v8.447h-1.507v-8.374c0-2.054-.766-3.162-2.923-3.162-2.61 0-3.353 2.173-3.353 4.49v7.048h-1.512V15.27c.024-1.687-.67-3.09-2.587-3.09-2.61 0-3.665 1.98-3.69 4.586v6.95h-1.51V11.265l.002-.001zm20.464-.329c-.018.84-.7 1.51-1.532 1.51-.834 0-1.515-.67-1.533-1.51 0-.843.68-1.503 1.546-1.503.4-.007.787.148 1.072.43.286.284.447.67.447 1.073zm-2.683 0c0 .67.5 1.2 1.163 1.2.646.01 1.136-.53 1.136-1.19 0-.66-.49-1.212-1.156-1.212-.645 0-1.145.542-1.145 1.202h.002zm.917.78H153V10.21c.19-.028.382-.044.574-.045.283 0 .41.046.51.12.102.073.16.193.155.32 0 .184-.137.302-.31.357v.018c.146.046.218.164.263.367.02.127.056.25.11.366h-.364c-.046-.055-.073-.184-.12-.366-.026-.156-.117-.23-.308-.23h-.164v.598zm.01-.844h.163c.19 0 .346-.063.346-.22 0-.136-.1-.228-.32-.228a.94.94 0 0 0-.19.018v.43h.001z" fill="#FFF"/></g></svg>