<svg width="240" height="47" xmlns="http://www.w3.org/2000/svg"><g fill="none"><path d="M1.893 7.162c0-.636-.513-1.151-1.146-1.151H.451A.452.452 0 0 1 0 5.558V1.872c0-.25.202-.453.451-.453h4.145a2.76 2.76 0 0 1 2.755 2.766v4.392c0 .823-.063 1.393-.063 1.393h.063c.915-1.615 2.808-2.597 4.953-2.597 3.282 0 5.838 1.52 5.838 6.113v4.892c-.019 4.214 1.427 4.074 1.427 4.614 0 .708-.855 2.101-2.958 2.101-3.006 0-3.927-2.252-3.927-3.779V14.5c0-1.521-.6-2.154-1.799-2.154-1.672 0-2.776.981-3.25 2.407-.22.634-.284 1.331-.284 2.091v6.768a.453.453 0 0 1-.452.454H2.345a.452.452 0 0 1-.451-.454V7.162h-.001zm27.518 12.723c1.988 0 3.692-1.489 3.692-3.927 0-2.471-1.704-4.023-3.692-4.023-1.988 0-3.691 1.552-3.691 4.023 0 2.438 1.704 3.927 3.691 3.927zM29.38 7.374c5.143 0 9.213 3.453 9.213 8.584 0 5.099-4.07 8.488-9.182 8.488-5.111 0-9.182-3.39-9.182-8.488 0-5.132 4.071-8.584 9.151-8.584zm12.038 11.313a.783.783 0 0 1 1.143-.165c.847.693 2.438 1.774 4.13 1.774.789 0 1.23-.222 1.23-.792 0-1.362-8.14-1.805-8.14-7.095 0-3.516 3.25-5.036 6.689-5.036 2.651 0 6.311.76 6.311 3.706v1.14a.79.79 0 0 1-.789.792h-3.156a.79.79 0 0 1-.789-.792c0-.443-.693-.76-1.482-.76-.757 0-1.452.253-1.452.76 0 1.679 8.236 1.457 8.236 6.937 0 3.294-2.872 5.29-6.658 5.29-3.456 0-5.737-1.63-6.689-2.478a.795.795 0 0 1-.127-1.047l1.543-2.234zm14.694-6.657h-.67a.707.707 0 0 1-.706-.709V8.463c0-.391.316-.709.706-.709h.828c.39 0 .706-.317.706-.709V4.06c0-.392.316-.709.706-.709h3.889c.39 0 .706.317.706.709v2.985c0 .391.317.709.706.709h1.996c.39 0 .706.317.706.709v2.858c0 .39-.315.708-.706.709h-1.996a.707.707 0 0 0-.706.709v4.581c0 1.837 1.862 2.09 2.903 2.09h.013a.71.71 0 0 1 .713.709v3.37a.707.707 0 0 1-.656.708c-.23.015-.51.028-.827.028-2.587 0-7.604-.696-7.604-6.177v-5.309a.709.709 0 0 0-.707-.709zm20.708 1.552a.541.541 0 0 0 .504-.73c-.27-.742-.928-1.362-1.936-1.362-1.206 0-1.881.534-2.247 1.302-.175.365.073.79.476.79h3.203zm-1.289-6.208c4.795 0 7.51 3.357 7.51 7.887 0 .306-.041.794-.076 1.16a.537.537 0 0 1-.534.487h-9.053a.543.543 0 0 0-.497.749c.619 1.535 2.056 2.229 3.565 2.229 1.658 0 3.141-.862 3.861-1.362a.533.533 0 0 1 .766.167l1.643 2.772a.54.54 0 0 1-.126.696c-.852.689-3.195 2.288-6.587 2.288-5.805 0-8.929-4.212-8.929-8.552.001-4.784 3.219-8.521 8.457-8.521zm9.67-.063c0-.718-.579-1.299-1.294-1.299a.6.6 0 0 1-.599-.601v-3.39a.6.6 0 0 1 .599-.601h3.85a2.908 2.908 0 0 1 2.903 2.914v13.841c0 .717.579 1.298 1.293 1.298a.6.6 0 0 1 .599.602v3.389a.6.6 0 0 1-.599.602h-3.85a2.908 2.908 0 0 1-2.902-2.914V7.311z" fill="#86BC25"/><path d="M102.936 19.972c1.704 0 3.187-1.393 3.187-3.896 0-2.438-1.293-4.022-3.187-4.022-1.641 0-3.187 1.203-3.187 4.022 0 1.964 1.042 3.896 3.187 3.896zM94.448 7.366c0-.717-.579-1.299-1.294-1.299a.6.6 0 0 1-.599-.601V2.077a.6.6 0 0 1 .599-.601h3.85a2.908 2.908 0 0 1 2.903 2.913V7.62c0 .824-.063 1.394-.063 1.394h.063s1.515-1.583 4.386-1.583c4.417 0 7.32 3.484 7.32 8.552 0 5.162-3.25 8.52-7.573 8.52-2.997 0-4.448-1.678-4.448-1.678h-.063s.031.412.031.918v.381h-4.512a.6.6 0 0 1-.599-.602V7.366h-.001zm27.366 12.575c1.988 0 3.692-1.489 3.692-3.927 0-2.471-1.704-4.023-3.692-4.023-1.988 0-3.691 1.552-3.691 4.023 0 2.438 1.704 3.927 3.691 3.927zm-.031-12.512c5.143 0 9.214 3.452 9.214 8.584 0 5.099-4.07 8.488-9.182 8.488-5.111 0-9.182-3.389-9.182-8.488 0-5.131 4.07-8.584 9.15-8.584zm19.469 12.512c1.988 0 3.692-1.489 3.692-3.927 0-2.471-1.704-4.023-3.692-4.023-1.987 0-3.691 1.552-3.691 4.023 0 2.438 1.704 3.927 3.691 3.927zm-.031-12.512c5.143 0 9.214 3.452 9.214 8.584 0 5.099-4.07 8.488-9.182 8.488-5.111 0-9.182-3.389-9.182-8.488-.001-5.131 4.07-8.584 9.15-8.584zm45.11 6.303c0-.717-.579-1.298-1.293-1.298-.331 0-.6-.27-.6-.602V8.443a.6.6 0 0 1 .6-.601h3.628a2.908 2.908 0 0 1 2.903 2.914v.032c0 .507-.063.823-.063.823h.063c.694-2.217 2.745-4.055 5.174-4.055.316 0 .631.064.631.064v4.705a.6.6 0 0 1-.641.6 6.439 6.439 0 0 0-.464-.016c-1.293 0-3.407.412-4.196 2.85-.19.602-.283 1.33-.283 2.217v5.575a.6.6 0 0 1-.6.601h-4.26a.6.6 0 0 1-.599-.601v-9.819zm13.63 5.042a.784.784 0 0 1 1.143-.165c.847.694 2.437 1.774 4.13 1.774.789 0 1.23-.222 1.23-.793 0-1.362-8.14-1.805-8.14-7.095 0-3.516 3.25-5.036 6.689-5.036 2.651 0 6.311.76 6.311 3.706v1.14a.79.79 0 0 1-.789.792h-3.156a.79.79 0 0 1-.789-.792c0-.443-.693-.76-1.482-.76-.758 0-1.452.253-1.452.76 0 1.678 8.236 1.457 8.236 6.936 0 3.294-2.872 5.29-6.658 5.29-3.455 0-5.737-1.63-6.689-2.478a.795.795 0 0 1-.127-1.047l1.543-2.232zm-22.68-5.104a.541.541 0 0 0 .504-.73c-.27-.741-.928-1.361-1.936-1.361-1.206 0-1.882.534-2.247 1.301-.175.365.073.79.476.79h3.203zm-1.289-6.209c4.796 0 7.51 3.357 7.51 7.887 0 .305-.041.793-.076 1.159a.538.538 0 0 1-.535.488h-9.053a.542.542 0 0 0-.497.749c.619 1.534 2.056 2.228 3.565 2.228 1.657 0 3.14-.862 3.861-1.362a.534.534 0 0 1 .767.167l1.642 2.773a.54.54 0 0 1-.126.696c-.852.689-3.195 2.288-6.587 2.288-5.805 0-8.929-4.213-8.929-8.552.002-4.783 3.22-8.521 8.458-8.521z" fill="#FFF"/><path d="M165.302 18.995l-1.041-2.127c-.568-1.108-1.231-1.362-1.231-1.362v-.063s.599-.317 1.199-1.363l3.158-5.364a.602.602 0 0 0-.517-.908h-4.526c-.22 0-.421.12-.526.314l-2.48 4.564c-.284.507-.821.507-1.294.507h-.252a.6.6 0 0 1-.6-.601V4.389c0-1.609-1.3-2.914-2.903-2.914h-3.85a.6.6 0 0 0-.6.602v3.389a.6.6 0 0 0 .6.601c.715 0 1.293.582 1.293 1.3V23.52a.6.6 0 0 0 .6.601h4.26a.6.6 0 0 0 .599-.601v-5.734h.473c.41 0 .903-.063 1.339.541 0 0 1.03 1.431 2.29 4.558.065.161.002 0 .002 0l-.002.005c.529 1.043 1.684 2.298 4.036 2.298 2.333 0 2.94-1.926 2.94-2.234.002-.492-1.122-.051-2.967-3.959" fill="#FFF"/><path d="M231.802 7.802a3.996 3.996 0 0 0 2.597-5.008 3.975 3.975 0 0 0-4.988-2.609 3.997 3.997 0 0 0-2.597 5.008 3.972 3.972 0 0 0 4.988 2.609m-7.205 15.755c4.08-1.291 6.346-5.659 5.06-9.756-1.286-4.097-5.636-6.372-9.717-5.081-4.08 1.29-6.346 5.658-5.06 9.756 1.285 4.097 5.637 6.372 9.717 5.081m-34.571 9.573c-3.724 1.178-5.791 5.164-4.617 8.903 1.173 3.74 5.143 5.815 8.866 4.637 3.724-1.178 5.791-5.164 4.618-8.903-1.174-3.739-5.144-5.814-8.867-4.637" fill="#86BC25"/><path d="M201.832 37.4a2.529 2.529 0 0 0-1.644 3.17 2.515 2.515 0 0 0 3.158 1.651 2.528 2.528 0 0 0 1.644-3.17 2.514 2.514 0 0 0-3.158-1.651" fill="#A4C954"/><path d="M205.833 35.468a1.422 1.422 0 0 0-.23 2.614c.334.175.723.209 1.081.096a1.421 1.421 0 0 0-.851-2.71" fill="#BDD684"/><path d="M202.768 36.007a4.516 4.516 0 0 0 2.936-5.662 4.493 4.493 0 0 0-5.639-2.95c-2.369.749-3.684 3.285-2.936 5.663a4.494 4.494 0 0 0 5.639 2.949" fill="#D5E4B1"/><path d="M217.414 23.851a1.57 1.57 0 0 0-1.021 1.97 1.563 1.563 0 0 0 1.962 1.026 1.571 1.571 0 0 0-.941-2.996m19.134.579a2.08 2.08 0 0 0 1.352-2.608 2.069 2.069 0 0 0-2.597-1.358 2.081 2.081 0 0 0-.336 3.827 2.068 2.068 0 0 0 1.581.139" fill="#BDD684"/><path d="M233.451 25.856a1.605 1.605 0 0 0-.258 2.952c.376.196.814.235 1.219.107a1.606 1.606 0 0 0 .259-2.952 1.597 1.597 0 0 0-1.22-.107" fill="#D5E4B1"/><path d="M238.284 18.793a2.466 2.466 0 0 0 .398-4.532 2.453 2.453 0 0 0-1.873-.166 2.466 2.466 0 0 0-.397 4.533 2.45 2.45 0 0 0 1.872.165m-16.263 6.404a3.634 3.634 0 0 0-2.362 4.555 3.613 3.613 0 0 0 4.536 2.372 3.634 3.634 0 0 0 2.363-4.555 3.615 3.615 0 0 0-4.537-2.372" fill="#A4C954"/><path d="M211.011 26.487c-2.961.937-4.606 4.107-3.672 7.08.933 2.974 4.091 4.625 7.052 3.687 2.961-.936 4.606-4.107 3.673-7.08-.934-2.973-4.091-4.624-7.053-3.687m28.115-17.715a2.65 2.65 0 0 0-3.327-1.739 2.663 2.663 0 0 0-1.732 3.339 2.649 2.649 0 0 0 3.325 1.74 2.665 2.665 0 0 0 1.734-3.34" fill="#76B82A"/></g></svg>