<svg width="716" height="186" xmlns="http://www.w3.org/2000/svg"><g fill="none" fill-rule="evenodd"><path d="M700.53 18.5a15.29 15.29 0 0 1 7.35 1.94 13.77 13.77 0 0 1 5.6 5.53 15.32 15.32 0 0 1 2 7.5 15.14 15.14 0 0 1-2 7.44 14 14 0 0 1-5.48 5.54 15.07 15.07 0 0 1-14.9 0 14.08 14.08 0 0 1-5.54-5.54 14.91 14.91 0 0 1 0-14.94 13.83 13.83 0 0 1 5.6-5.53 15.32 15.32 0 0 1 7.36-1.94h.01zm-.01 2.47a12.84 12.84 0 0 0-6.14 1.62 11.65 11.65 0 0 0-4.67 4.62 12.49 12.49 0 0 0 0 12.46 11.7 11.7 0 0 0 4.64 4.62 12.46 12.46 0 0 0 12.42 0 11.68 11.68 0 0 0 4.62-4.62 12.49 12.49 0 0 0 0-12.46 11.51 11.51 0 0 0-4.67-4.62 12.9 12.9 0 0 0-6.19-1.59l-.01-.03zM694 41.72V25.66h5.52a13.49 13.49 0 0 1 4.1.44 4 4 0 0 1 2 1.56 4.12 4.12 0 0 1 .75 2.34 4.32 4.32 0 0 1-1.26 3.07 5 5 0 0 1-3.34 1.47c.504.195.968.48 1.37.84a19.06 19.06 0 0 1 2.37 3.2l2 3.14h-3.19l-1.42-2.53a13.51 13.51 0 0 0-2.69-3.73 3.27 3.27 0 0 0-2.07-.57h-1.52v6.83H694zm2.6-9h3.14a5.07 5.07 0 0 0 3.08-.68 2.28 2.28 0 0 0 .43-3 2.34 2.34 0 0 0-1.09-.83 7.94 7.94 0 0 0-2.61-.28h-2.95v4.79z" fill="#A1A1A1" fill-rule="nonzero"/><path d="M673.27 32c-2.39-2.76-5.61-4.14-9.93-4.14-4.32 0-7.64 1.47-9.93 4.51s-3.5 7.35-3.5 13.15v41.97a57.48 57.48 0 0 0-16.46-13 39.57 39.57 0 0 0-12.22-3.68 61.41 61.41 0 0 0-8.46-.55c-14.067 0-25.467 4.967-34.2 14.9-8.64 9.93-13 23.72-13 41.47a79.37 79.37 0 0 0 3.35 23.37 56.25 56.25 0 0 0 9.56 18.75 45.13 45.13 0 0 0 15.08 12.33 42.13 42.13 0 0 0 18.85 4.31 45.13 45.13 0 0 0 8.82-.83 34.78 34.78 0 0 0 5.34-1.29 45.74 45.74 0 0 0 12-6.24 70.86 70.86 0 0 0 11.31-10.67v2.76c0 5.24 1.29 9.19 3.78 12a13.33 13.33 0 0 0 19.31.19c2.48-2.76 3.77-6.8 3.77-12.23v-125c0-5.24-1.2-9.29-3.5-12m-28.56 115.64a27.25 27.25 0 0 1-9.84 11.86 25.21 25.21 0 0 1-13.61 3.86h-.09a24.61 24.61 0 0 1-13.61-4 27.85 27.85 0 0 1-9.84-12.14c-2.39-5.42-3.59-12-3.59-19.68a49.09 49.09 0 0 1 3.4-19.13 28.32 28.32 0 0 1 9.5-12.73 22.84 22.84 0 0 1 14-4.41h.28a23.38 23.38 0 0 1 13.52 4.33 29.56 29.56 0 0 1 9.93 12.41c2.48 5.42 3.67 11.95 3.67 19.49 0 8.09-1.19 14.81-3.67 20.14m-87.86 1.19a10.34 10.34 0 0 0-7.09-2.39 9.48 9.48 0 0 0-6.16 1.84c-3.58 3.31-6.43 6-8.64 7.91a79.89 79.89 0 0 1-7.36 5.43 29.1 29.1 0 0 1-8.08 3.68 33.06 33.06 0 0 1-9.29 1.19 15.78 15.78 0 0 1-2.12-.09 25.33 25.33 0 0 1-11.76-3.68 27.18 27.18 0 0 1-10.12-10.94 39.12 39.12 0 0 1-3.87-17.1h55.45c7.44 0 13.23-1.1 17.28-3.12 4.14-2.21 6.16-6.81 6.16-13.89a48 48 0 0 0-6-22.71 46.26 46.26 0 0 0-17.84-18.11c-7.91-4.69-17.38-7-28.5-7h-.82a64.46 64.46 0 0 0-22.44 4A49.6 49.6 0 0 0 468 85.75a52.75 52.75 0 0 0-10.85 18.48 71 71 0 0 0-3.77 23.35c0 17.84 5.06 31.81 15.17 42.21 9.57 9.84 22.8 15 39.63 15.54.92.09 1.93.09 2.94.09a65 65 0 0 0 21.15-3.13 52.65 52.65 0 0 0 15.27-7.81 37.59 37.59 0 0 0 9.1-9.93c2-3.41 3-6.44 3-8.92a8.38 8.38 0 0 0-2.75-6.71M490.66 97c4.51-4.91 10.34-7.3 17.34-7.3h.09c7.36 0 13.33 2.39 17.83 7.17 4.5 4.78 7.19 12 7.82 21.79h-51.4c.92-9.57 3.68-16.82 8.28-21.7m-54.29 49.56a9.58 9.58 0 0 0-6.25 1.84c-3.49 3.31-6.43 6-8.64 7.91a78.13 78.13 0 0 1-7.26 5.43 29.73 29.73 0 0 1-8.18 3.68 32.61 32.61 0 0 1-9.29 1.19 15.79 15.79 0 0 1-2.12-.09 25.32 25.32 0 0 1-11.77-3.68 27 27 0 0 1-10-10.94 37.76 37.76 0 0 1-4-17.1h55.54c7.36 0 13.15-1.1 17.29-3.12 4-2.21 6.07-6.81 6.07-13.89A47.84 47.84 0 0 0 441.85 95 46.83 46.83 0 0 0 424 76.92c-7.91-4.69-17.46-7-28.5-7h-.92a64.82 64.82 0 0 0-22.44 4 48.39 48.39 0 0 0-17.66 11.77 51.62 51.62 0 0 0-10.94 18.48 71 71 0 0 0-3.77 23.35c0 17.84 5.15 31.81 15.26 42.21 9.57 9.84 22.71 15 39.54 15.54 1 .09 1.93.09 2.94.09a64.63 64.63 0 0 0 21.15-3.13 52.66 52.66 0 0 0 15.27-7.81 36 36 0 0 0 9.1-9.93c2-3.41 3-6.44 3-8.92a8.66 8.66 0 0 0-2.66-6.71 10.67 10.67 0 0 0-7.08-2.39M377.11 97c4.51-4.87 10.31-7.27 17.38-7.27h.1c7.35 0 13.33 2.39 17.83 7.17 4.5 4.78 7.17 12 7.91 21.79h-51.5c1-9.57 3.77-16.82 8.28-21.7M59.07 166.57V98.89c1.93.19 3.77.28 5.7.28A48.9 48.9 0 0 0 90 92.28v74.29c0 6.34-1.47 11-4.32 14.16a14.51 14.51 0 0 1-11.22 4.69 14.18 14.18 0 0 1-11-4.78c-2.84-3.12-4.32-7.81-4.32-14.07M326.17 32a12.36 12.36 0 0 0-9.84-4.14c-4.32 0-7.64 1.47-9.93 4.5-2.29 3.03-3.49 7.36-3.49 13.15v41.98a57.66 57.66 0 0 0-16.46-13 40.47 40.47 0 0 0-12.23-3.68 61.25 61.25 0 0 0-8.46-.55c-14.07 0-25.56 5-34.2 14.9-8.64 9.9-13 23.72-13 41.47a82.63 82.63 0 0 0 3.25 23.37 56.7 56.7 0 0 0 9.66 18.75 45.14 45.14 0 0 0 15.08 12.33 42.12 42.12 0 0 0 18.85 4.31 46.45 46.45 0 0 0 8.82-.83 34.57 34.57 0 0 0 5.33-1.29 45.64 45.64 0 0 0 12-6.24 75.72 75.72 0 0 0 11.32-10.67v2.76c0 5.24 1.28 9.19 3.76 12a13.22 13.22 0 0 0 19.21.19c2.48-2.76 3.68-6.8 3.68-12.23v-125c0-5.24-1.11-9.29-3.41-12m-28.5 115.67c-2.48 5.333-5.79 9.287-9.93 11.86a24.85 24.85 0 0 1-13.52 3.86h-.09a24.58 24.58 0 0 1-13.61-4 27.25 27.25 0 0 1-9.84-12.14c-2.39-5.42-3.59-12-3.59-19.68a50.75 50.75 0 0 1 3.31-19.13c2.3-5.51 5.42-9.75 9.56-12.69a22.59 22.59 0 0 1 13.89-4.41h.36a22.92 22.92 0 0 1 13.43 4.33 29 29 0 0 1 10 12.41 48.16 48.16 0 0 1 3.68 19.49c0 8.09-1.29 14.81-3.68 20.14M135.29 85.74v3.49c5.05-6.62 10.48-11.4 16.36-14.52a44.55 44.55 0 0 1 20.51-4.6 41.14 41.14 0 0 1 20 4.87 30.79 30.79 0 0 1 13.15 13.79 32.16 32.16 0 0 1 3.69 11.32c.616 5.093.893 10.22.83 15.35v52.69c0 5.7-1.38 10-4 12.87a13.92 13.92 0 0 1-20.41-.1c-2.67-2.95-4-7.26-4-12.78V121c0-9.387-1.287-16.56-3.86-21.52-2.58-5-7.82-7.45-15.54-7.45-4.96 0-9.79 1.58-13.79 4.51a26.11 26.11 0 0 0-9.19 12.5c-1.38 4.23-2 12-2 23.72v35.4c0 5.79-1.37 10-4 13a13.48 13.48 0 0 1-10.3 4.31 12.75 12.75 0 0 1-10.11-4.5c-2.67-2.95-4-7.26-4-12.78V86.2c0-5.42 1.2-9.47 3.59-12 2.39-2.53 5.52-4 9.66-4a12.86 12.86 0 0 1 6.71 1.75 12.56 12.56 0 0 1 4.87 5.34 18.89 18.89 0 0 1 1.75 8.55M59.25 4.37c19.12-6.9 40.92-6.52 57.29 7.63 3 2.85 6.52 6.44 7.9 10.67 1.66 5.34-5.79-.55-6.8-1.28A73 73 0 0 0 101 12.92c-32.19-9.92-62.62 8-81.57 35.86C11.53 61.1 6.38 74.07 2.15 88.32a22.71 22.71 0 0 1-1.66 5C-.34 94.85.13 89 .13 88.87a121 121 0 0 1 3.31-17.28C12.17 41.24 31.48 16 59.25 4.37" fill="#297DF6"/><path d="M84.16 79.68c-11.48 5.835-25.518 1.26-31.354-10.22-5.837-11.481-1.262-25.519 10.218-31.356 11.48-5.837 25.518-1.263 31.356 10.216a23.23 23.23 0 0 1-10.22 31.36" fill="#297DF6"/></g></svg>