<svg width="1000" height="409" xmlns="http://www.w3.org/2000/svg"><g fill="#8200FF" stroke="#000"><path d="M5.061 237.5v25.972c0 86.459 60.089 144.853 144.909 144.853 85.907 0 145.522-59.403 145.522-145.352V125.124h-84.657v142.843c0 31.27-20.407 60.234-60.672 60.234-38.299 0-60.414-26.642-60.414-60.195v-30.505L5.061 237.5z" stroke-width=".05"/><path d="M503.326 62.235c-90.51 0-169.33 75.366-169.33 173.793 0 94.11 74.984 172.295 169.47 172.295 71.591 0 138.53-36.945 159.372-112.891h-90.4c-11.08 21.098-34.238 38.504-69.97 38.504-44.082 0-74.317-30.393-82.3-65.475H669.33l1.233-25.55c0-116.003-77.452-180.676-167.238-180.676h.001zm-.484 74.403c40.15 0 72.886 25.021 82.534 62.9H421.104c9.01-29.883 35.932-62.9 81.738-62.9z" stroke-width=".05" stroke-linejoin="round"/><path d="M999.468 236.003v27.47c0 86.458-60.09 144.852-144.909 144.852-85.907 0-145.522-59.403-145.522-145.352V17.243h84.657v70.423h121.138v79.412H793.694v100.89c0 31.269 20.406 60.233 60.672 60.233 38.298 0 60.413-26.642 60.413-60.195v-32.003h84.689z" stroke-width=".05"/><path d="M299.922 47.341c0 25.854-20.959 46.812-46.812 46.812-25.854 0-46.812-20.958-46.812-46.812C206.298 21.488 227.256.53 253.11.53c25.853 0 46.812 20.958 46.812 46.811zm-205.764 0c0 25.854-20.959 46.812-46.812 46.812C21.492 94.153.534 73.195.534 47.341.534 21.488 21.492.53 47.346.53c25.853 0 46.812 20.958 46.812 46.811z" stroke-width=".07" stroke-linejoin="round"/></g></svg>