<svg width="265" height="32" xmlns="http://www.w3.org/2000/svg"><path d="M85.6 13.1c-.6.7-1.5 1.1-2.7 1.1h-2l-.1-7.6 2.1-.2c1.3 0 2.2.3 2.8.9.6.6.9 1.6.9 3 0 1.2-.3 2.1-.9 2.9l-.1-.1zm10.7 12.7h-.6c-.6 0-1.1-.1-1.4-.4-.3-.3-.4-.7-.4-1.4v-1.1c0-2-.3-3.6-1-4.7s-2-1.8-3.8-2v-.1c1.8-.3 3-1 3.8-2.3.8-1.2 1.2-2.9 1.2-4.9 0-1.1-.1-2.2-.4-3.2-.3-1-.8-1.8-1.4-2.5-.7-.7-1.5-1.3-2.5-1.7-1-.4-2.3-.6-3.8-.6h-9.3V.7v.2L72.3.8l.6 10 .3 9.9-.1 10.3 8.6-.3-.9-12h2.9c.5 0 .9.1 1.2.2.3.1.6.4.8.7.2.3.4.7.4 1.3.1.6.1 1.3.1 2.1v2s.1 2.3.4 3c.2.8.6 1.3 1.1 1.7.5.4 1.2.6 2 .7.8.1 1.8.2 2.9.2h2.1c.9 0 1.6-.1 2.3-.2l-.6-5-.1.4zm128.4.6h-.8c-.9 0-1.7-.7-1.7-1.6l-.6-10.7c0-.9.7-1.7 1.6-1.8h.8c.9 0 1.7.7 1.8 1.6l.6 10.7c0 .9-.7 1.7-1.6 1.8h-.1zm8.6-11.6c-.2-1.4-.6-2.7-1.2-3.8-.6-1.1-1.6-1.9-2.9-2.6-1.3-.6-3-.9-5.2-.9-2.1 0-3.8.3-5.1 1-1.3.7-2.2 1.6-2.9 2.7-.7 1.1-1.1 2.4-1.3 3.8-.2 1.4-.3 2.9-.3 4.4 0 1.6.1 3.2.3 4.6.2 1.4.6 2.7 1.2 3.8.6 1.1 1.6 1.9 2.9 2.5 1.3.6 3 .9 5.2.9 2.1 0 3.8-.3 5.1-1 1.3-.7 2.2-1.5 2.9-2.6.7-1.1 1.1-2.4 1.3-3.8.2-1.4.3-2.9.3-4.4 0-1.6-.1-3.2-.3-4.6zm-31.3-1c.2-.5.4-.9.7-1.1.3-.2.9-.3 1.3-.3.8 0 1.4.3 1.7 1 .2.4.3.8.4 1.4.1.6.1 1.3.1 2.2h6.7c0-1.4-.1-2.7-.4-3.9-.3-1.2-.7-2.1-1.4-3-.7-.8-1.5-1.5-2.6-1.9-1.1-.5-2.5-.7-4.1-.7-1.4 0-2.7.1-4 .4-1.2.3-2.3.9-3.2 1.7-.9.9-1.6 2.1-2.1 3.7s-.8 3.8-.8 6.4c0 2.5.2 4.4.7 5.9.5 1.5 1.1 2.6 2 3.5.8.8 1.9 1.4 3 1.6 1.2.2 2.5.4 4 .4 3.2 0 5.5-.7 6.9-2.2.7-.8 1.2-1.8 1.5-3.1.3-1.3.5-1.9.5-3.7l-6.7-.8v1.5c0 1.4-.2 2.4-.6 2.9-.4.5-.9.8-1.6.8-.4 0-1-.1-1.3-.3-.3-.2-.5-.6-.7-1.1-.2-.5-.1-1.3-.2-2.2-.1-.9-.1-2.1-.1-3.4 0-1.4 0-2.5.1-3.5.1-.9 0-1.6.2-2.2zm-15.9 8.6v8.2h7.8l-.9-7.9-6.9-.4v.1zm78.2-11.7c-.3-.8-.7-1.4-1.2-1.9s-1.1-.8-1.8-1c-.7-.2-1.5-.3-2.3-.3-1.2 0-2.2.3-3.3.8-1 .5-1.8 1.4-2.4 2.7-.5-1.2-1.1-2-1.9-2.6-.8-.6-2-.8-3.5-.8-2.6 0-4.4 1.1-5.4 3.3h-.7l.6-2.8h-7.2v22.1l8.3.8-.8-15.2c0-.9.1-1.6.4-2 .3-.4.8-.6 1.4-.6.7 0 1.1.2 1.4.6.3.4.4 1.1.4 2v14.6h7.5V14.6c0-.8.7-1.5 1.5-1.5h.7c.8 0 1.5.7 1.5 1.5v1.2l-.2 4-.5 10.6 8.2.6V13.7c0-1.2-.2-2.2-.5-3h-.2zm-100.1.1c-.3-.8-.7-1.4-1.2-1.9s-1.1-.8-1.8-1c-.7-.2-1.5-.3-2.3-.3-1.2 0-2.2.3-3.2.8s-1.8 1.4-2.4 2.7c-.5-1.2-1.1-2-1.9-2.6-.8-.6-2-.9-3.5-.9-2.6 0-4.4 1.1-5.4 3.3h-.4l.3-2.8h-7.2v22.6h8.3l-.8-14.9c0-1 .1-1.6.4-2 .3-.4.8-.6 1.4-.6.6 0 1.1.2 1.4.6.3.4.4 1.1.4 2v14.9l7.5-.8V14.5c0-.8.7-1.5 1.5-1.5h.7c.8 0 1.5.7 1.5 1.5v1.2l-.2 4-.5 10.9h8.2v-17c0-1.2-.2-2.2-.5-3l-.3.2zm-104.7 3c.1-1.1 1-1.9 2.1-1.9h.9c1.1.1 1.9 1 1.8 2.1l-.1 2.7h-4.8l.2-2.9h-.1zm-.4 8.8v-1.9h12v-2.3c0-2.1-.2-3.8-.6-5.2-.4-1.4-.9-2.5-1.7-3.3-.8-.8-1.7-1.5-2.8-1.8-1.1-.4-2.4-.5-3.9-.5-1.7 0-3.1.2-4.3.6-1.2.4-2.2 1.1-3 2.1-.8.9-1.3 2.2-1.7 3.7-.4 1.5-.5 3.3-.5 5.5 0 2.1.2 4 .5 5.5s.8 2.7 1.6 3.7c.8.9 1.7 1.6 3 2 1.2.4 2.7.6 4.5.6 3.1 0 5.3-.7 6.7-2.1 1.4-1.4 2.1-2.7 2.1-5.4l-6.7-.9c0 1.5-.2 2.6-.6 3.1v.1c-.1.2-.2.3-.4.4l-.1.1c-.3.2-.7.4-1.2.4h-.9c-1.1 0-1.9-.7-1.9-1.7v-2.4l-.1-.3zm-8.2 3.1c-.6 0-1.1-.1-1.4-.4-.3-.3-.4-.7-.4-1.4V13.1h2.7l1.4-5.6-4.8.7.8-7.6-7.5.8v7.5l-2.5.3v3.9h2.5v12.1c0 1.3.1 2.3.3 3 .2.8.6 1.4 1.1 1.7.5.4 1.2.6 2 .7.8.1 1.8.2 2.9.2.6 0 1.4.1 2.1 0 .7-.1 2.1-.1 2.9-.2l-.8-5H51l-.1.1zm-19.7-3.5c0 1.4-.2 2.4-.6 3.1-.4.7-1.1 1-2 1-.6 0-1.1-.2-1.5-.7-.4-.5-.6-1.1-.6-2 0-.8.1-1.5.4-2 .2-.5.7-.9 1.3-1.2.6-.3 1.2-.4 1.7-.5.5-.1 1.2-.1 1.2.4v2l.1-.1zm8.6 3.5c-.6 0-1.1-.1-1.4-.4-.3-.3-.4-.7-.4-1.4v-9.2c0-1.5-.2-2.7-.6-3.6-.4-.9-1-1.7-1.8-2.2-.8-.6-1.7-.9-2.8-1.1-1.1-.2-2.3-.3-3.6-.3-.9 0-1.8.1-2.8.3-1 .2-1.9.5-2.8 1.1-.9.6-1.6 1.3-2.2 2.3-.6 1-.9 1.5-.9 3.1l6.5.9c0-1.2.2-2 .6-2.5.3-.4.9-.6 1.6-.6 1.3 0 1.9.7 1.9 2.1 0 .7-.2 1.2-.5 1.6-.3.4-.9.7-1.7.9l-3 .7c-1.2.3-2.2.6-3 1-.8.4-1.5.9-1.9 1.5-.5.6-.8 1.2-1 2-.2.8-.3 1.7-.3 2.8 0 1 .1 1.9.3 2.7.2.8.6 1.5 1.1 2.1.5.6 1.1 1 1.9 1.3.8.3 1.8.4 2.9.4 1.2 0 2.2-.2 3.1-.8.9-.5 1.6-1.3 2-2.3h.4v.1c.2.8.6 1.3 1.1 1.7.5.4 1.2.6 2 .7.8.1 1.4.2 2.5.2.6 0 1.4.1 2 0 .7-.1.9 0 1.6-.1l-.3-5.1h-.4l-.1.1zM8.2 24.4L9.1 0 .5.8v29.9h18.3l-.8-7.1-9.7.7-.1.1zm117.4.7c-.1.9-.8 1.6-1.7 1.6h-.8c-.9 0-1.6-.8-1.6-1.8l.6-10.7c.1-.9.8-1.6 1.8-1.6h.8c.9 0 1.6.8 1.6 1.8l-.6 10.7h-.1zM107 26.7h-.8c-.9.1-1.7-.7-1.7-1.6l-.6-10.7c0-.9.7-1.7 1.6-1.8h.8c.9 0 1.7.7 1.8 1.6l.6 10.7c.1.9-.7 1.7-1.6 1.8h-.1zm26.1-11.6c-.2-1.4-.6-2.7-1.2-3.8-.6-1.1-1.6-1.9-2.9-2.6-1.3-.6-3-.9-5.2-.9-2.1 0-3.8.4-5.1 1-1.3.7-2.2 1.6-2.9 2.7-.3.5-.5.9-.7 1.4-.2-.6-.4-1.1-.7-1.6-.6-1.1-1.6-1.9-2.9-2.6-1.3-.6-3-.9-5.2-.9-2.1 0-3.8.4-5.1 1-1.3.7-2.2 1.6-2.9 2.7-.7 1.1-1.1 2.4-1.3 3.8-.2 1.4-.3 2.9-.3 4.3 0 1.6.1 3.2.3 4.6.2 1.4.6 2.7 1.2 3.8.6 1.1 1.6 1.9 2.9 2.5 1.3.6 3 .9 5.2.9 2.1 0 3.8-.3 5.1-1 1.3-.6 2.2-1.5 2.9-2.6.3-.4.5-.9.7-1.4.2.6.4 1.1.7 1.6.6 1.1 1.6 1.9 2.9 2.5 1.3.6 3 .9 5.2.9 2.1 0 3.8-.3 5.1-1 1.3-.6 2.2-1.5 2.9-2.6.7-1.1 1.1-2.4 1.3-3.8.2-1.4.3-2.9.3-4.3 0-1.6-.1-3.2-.3-4.6zm50.1 5.4c-.6-.9-1.2-1.6-2-2.1s-1.7-.9-2.6-1.2c-.9-.3-1.8-.5-2.6-.8-.8-.2-1.5-.5-2-.9-.5-.3-.8-.8-.8-1.4 0-.6.2-1 .6-1.3.4-.3.8-.5 1.4-.5.7 0 1.2.2 1.5.5.4.3.5 1 .5 2l6.4-.3c0-4.7-2.8-6.8-8.5-6.8-1.5 0-2.9.2-4 .5-1.1.4-2.1.9-2.8 1.5-.7.6-1.3 1.4-1.6 2.2-.4.9-.6 1.8-.6 2.8 0 1.4.3 2.6.8 3.5.5.9 1.2 1.6 2 2.1s1.7.9 2.6 1.3c.9.3 1.8.6 2.6.9.8.3 1.5.6 2 1s.8.9.8 1.5-.2 1.1-.6 1.4c-.4.3-.9.5-1.5.5-.7 0-1.2-.3-1.6-.8-.2-.2-.3-.6-.4-1-.1-.4-.1-.8-.1-1.2v-.2l-6.6-.8v1.3c0 2.5.7 4 2.1 5.3 1.4 1.3 3.6 1.9 6.8 1.9 1.4 0 2.7-.2 3.8-.5 1.1-.3 2.1-.8 2.8-1.5.8-.7 1.4-1.5 1.8-2.4.4-.9.6-1.9.6-3.1 0-1.5-.3-2.6-.8-3.5v.1z"/></svg>