<svg width="161" height="30" xmlns="http://www.w3.org/2000/svg"><g fill="none"><path d="M32.2 29c-1.3-.7-2.6-1.3-3.8-1.9-.7-.4-1.3-.4-2 0-6.9 3.5-15.7 2.4-21.2-2.6C2.3 21.8.7 18.6.7 14.6c0-4.2 1.9-7.5 5-10.1C9.8 1.1 14.5-.2 19.8.3c4.3.4 8 2 11.1 5.1 3 3.1 4.4 6.7 3.8 11.1-.4 2.7-1.5 5-3.3 7-.3.4-.4.7-.3 1.2.4 1.3.7 2.5 1.1 3.8-.1 0-.1.2 0 .5zM13.6 10.7c-1.6-1.4-3.3-1.8-5.1-.9-.2.1-.3.1-.5 0-.4-.4-.8-.5-1.3-.3s-.6.7-.6 1.3v7.6c0 .8.4 1.3 1.1 1.3.7 0 1.1-.5 1.1-1.4v-4.5c0-1.3.9-2.2 2.1-2.2 1.2 0 2.1.9 2.1 2.2v4.5c0 .8.5 1.3 1.1 1.3.7 0 1.1-.5 1.1-1.3v-4.5c0-1.2.9-2.2 2-2.3 1.3-.1 2.3.9 2.3 2.2v4.7c0 .6.4 1 .9 1.1.5.1 1-.1 1.2-.5.2-.5.3-1.1 0-1.6-1-1.6-1.1-3.3-.3-5.1.1-.3.1-.5 0-.7-.8-1.4-2.1-2.2-3.7-2.3-1.4 0-2.5.4-3.5 1.4zm12.2-1.2c-2.3 0-4.3 1.4-5 3.6-.7 2 .1 4.2 1.9 5.5 1.8 1.3 4.4 1.3 6.2 0 .5-.4.7-1.1.3-1.5-.3-.5-1-.6-1.5-.3-.2.1-.5.3-.7.4-1.3.5-2.8.2-3.6-.9-.8-1-.8-2.3 0-3.3.8-1.1 2.6-1.9 4.4-.6.6.4 1.2.2 1.5-.3.3-.5.2-1.1-.3-1.5-1-.7-2.1-1.1-3.2-1.1z" fill="#F05B4D"/><path d="M46.5 12.7c1.6-1.5 3.6-1.1 4.6 0 .5.6.9 1.3.9 2.1v3.4c0 .6-.3 1-.8 1s-.8-.4-.9-.9v-3.2c0-1-.6-1.7-1.5-1.7s-1.5.7-1.5 1.7v3.1c0 .6-.3 1-.8 1s-.8-.4-.8-1v-3.1c0-1-.6-1.6-1.5-1.7-.9 0-1.5.6-1.5 1.6v3.1c0 .6-.3 1-.8 1s-.8-.4-.8-1v-5.3c0-1 .5-1.3 1.4-.8.1.1.2.1.4 0 1.2-.5 2.5-.3 3.6.7zm28.5-.6c.6-.2 1.1-.4 1.6-.4 1.7 0 3.2 1.4 3.2 3.1v3.4c0 .6-.3.9-.8.9s-.8-.4-.8-.9v-3.1c0-1-.6-1.7-1.5-1.7S75.1 14 75 15v3c0 .7-.3 1-.8 1.1-.5 0-.9-.4-.9-1.1V9.7c0-.6.3-1 .9-1 .5 0 .8.4.8 1v2.4zm11.4.2c.5-.6.8-.7 1.2-.5.3.2.4.5.4.9V18c0 .5 0 .9-.5 1.1-.5.2-.8-.1-1.1-.5-1.7 1-3.7.6-4.9-1-1-1.4-.9-3.4.3-4.7.9-1 2.7-1.7 4.6-.6zm-1.9 1.1c-1.1 0-1.9.9-1.9 2.1 0 1.2.8 2.1 1.9 2.1 1.1 0 2-.9 2-2.1-.1-1.2-.9-2.1-2-2.1z" fill="#37A7DF"/><path d="M128.1 16c.2 1 1 1.6 2 1.6.5 0 1-.1 1.4-.4.3-.2.7-.3 1-.1.4.3.4.8-.1 1.2-2.2 1.8-5.6.6-6.2-2.2-.4-2 .9-3.9 2.9-4.4 1.9-.4 3.8.8 4.3 2.8.3 1.1 0 1.5-1.1 1.5h-4.2zm4-1.3c-.3-.9-1.4-1.6-2.3-1.5-.9.1-1.7.7-1.7 1.5h4z" fill="#F05B4D"/><path d="M55.1 16c.4 1.4 2 2 3.3 1.3l.6-.3c.3-.1.6 0 .8.3.2.3.1.6-.1.8-1 1-3 1.2-4.3.5-1.4-.8-2.2-2.4-1.9-3.9.3-1.6 1.6-2.8 3.1-3 1.7-.2 3.2.6 3.8 2.1.2.4.3.8.3 1.2 0 .6-.2.9-.9.9h-3.9c-.3.1-.5.1-.8.1zm4-1.3c-.1-.9-1.5-1.6-2.3-1.5-.9.1-1.6.7-1.8 1.5h4.1zm30.3.7v-2.6c0-.4 0-.8.4-1 .4-.2.7-.1 1 .1.2.2.3.1.5 0 2.2-.9 4.3.6 4.4 3v3.2c0 .6-.3 1-.8 1s-.8-.4-.8-.9v-3.1c0-1.1-.6-1.7-1.5-1.7s-1.5.7-1.5 1.7v3c0 .7-.3 1.1-.8 1.1s-.8-.4-.8-1.1c-.1-.9-.1-1.8-.1-2.7z" fill="#37A7DF"/><path d="M116 15.5c.1-1.5.7-2.6 2-3.3 1.4-.7 2.7-.6 4 .2.5.3.6.8.4 1.2-.3.4-.7.5-1.2.2-.7-.5-1.5-.6-2.3-.2-1 .4-1.5 1.6-1.1 2.6.4 1.1 1.6 1.7 2.7 1.4.3-.1.6-.3.9-.4.4-.2.9-.1 1.1.3.2.4.1.8-.3 1.1-1.3.9-2.6 1-4 .4-1.4-.9-2.2-2-2.2-3.5zm-11.2 2c.5 0 .9-.2 1.4-.4.5-.3 1-.2 1.2.2.2.4.1.9-.4 1.2-1.4.9-3.1.9-4.5-.1-1.2-.9-1.8-2.4-1.5-3.9.4-1.5 1.7-2.7 3.4-2.8.9-.1 1.8.2 2.6.7.5.3.6.8.3 1.2-.3.4-.7.4-1.2.1-.8-.5-1.7-.6-2.5-.1s-1.2 1.4-1 2.3c.4 1 1.2 1.6 2.2 1.6z" fill="#F05B4D"/><path d="M69.4 11.8c.8 0 1.5.2 2.2.7.5.3.6.8.4 1.2-.3.4-.7.5-1.3.2-1.3-.8-2.8-.4-3.3.9-.3.8-.3 1.5.3 2.2.6.7 1.4.9 2.3.7.3-.1.6-.2.8-.4.4-.2.8-.2 1.1.2.3.4.1.8-.3 1.1-1.2.8-2.6 1-3.9.4-1.4-.7-2.2-1.8-2.2-3.3 0-1.5.7-2.6 2-3.3.7-.5 1.3-.7 1.9-.6zm28.4-.1v-2c0-.6.4-1 .8-1 .5 0 .8.4.8 1v1.9c.6.1 1.2.2 1.2.9s-.6.8-1.2.8v3.8c0 .2.2.2.3.3.4.2.6.6.4 1.1-.2.5-.6.6-1 .5-.8-.2-1.4-.8-1.4-1.6v-4c-.6-.1-1.3-.1-1.2-1 .1-.6.6-.7 1.3-.7z" fill="#37A7DF"/><path d="M113.3 12.4c.6-.3 1.1-.6 1.7-.7.7-.1 1.1.2 1.2.7.1.5-.3.8-1 .9-1 .1-2 1.4-2 2.5v2.3c0 .7-.3 1-.8 1s-.8-.4-.8-1.1v-5.2c0-.5 0-1 .6-1.2.6 0 .9.3 1.1.8z" fill="#F05B4D"/><path d="M63 12.5c.7-.5 1.4-.8 2.1-.7.5 0 .8.2.8.7 0 .5-.3.8-.7.8-1.3.2-2.2 1.4-2.2 2.7v2.2c0 .6-.3.9-.8.9s-.8-.4-.8-.9v-5.6c0-.4.2-.8.6-.9.4 0 .8.3 1 .8z" fill="#37A7DF"/><path d="M125.5 13.9v4.2c0 .7-.3 1.1-.9 1.1-.5 0-.8-.4-.8-1.1V9.7c0-.7.3-1 .9-1 .5 0 .8.4.8 1v4.2z" fill="#F05B4D"/><path d="M151.7 15.3c.6-.5 1.3-.7 2-.4.8.3 1.2.9 1.2 1.7v2c0 .4-.1.6-.5.6s-.5-.3-.5-.6v-1.8c0-.6-.4-1-.8-1-.5 0-.9.4-.9 1v1.6c0 .4 0 .8-.5.8s-.5-.5-.5-.8v-1.6c0-.6-.4-1-.9-1s-.9.4-.9 1v1.7c0 .4-.1.6-.5.7-.4 0-.5-.3-.5-.6v-3.1c0-.6.2-.7.8-.5.1 0 .2.1.3.1.8-.5 1.5-.3 2.2.2z" fill="#37A7DF"/><path d="M110.4 15.4v2.7c0 .6-.3 1-.8 1s-.8-.4-.8-1v-5.5c0-.6.4-1 .9-1s.8.4.8 1c-.1 1-.1 1.9-.1 2.8z" fill="#F05B4D"/><path d="M147.8 17c0 1.2-1 2.2-2.1 2.2-1.2 0-2.1-1-2.1-2.2 0-1.2 1-2.2 2.2-2.2 1 0 2 1 2 2.2zm-1 0c0-.7-.5-1.3-1.2-1.3s-1.1.5-1.1 1.2.4 1.3 1.1 1.3c.7 0 1.2-.5 1.2-1.2zm-7.5-.1c0-.8.4-1.5 1.2-1.9.8-.4 1.6-.3 2.4.2.2.2.4.4.2.7-.2.3-.4.3-.7.1-.4-.2-.8-.4-1.3-.2-.7.3-1 .9-.8 1.5.3.7 1 1 1.7.8.1 0 .2-.1.3-.1.3-.2.6-.2.8.1.2.3 0 .6-.3.7-.7.5-1.5.5-2.3.1-.7-.4-1.2-1-1.2-2zm20.6-3.4c-.1.2-.2.5-.3.7-.1.1-.1.3-.3.3-.2 0-.3-.1-.4-.3-.1-.2-.1-.5-.4-.6-.2.2-.1.4-.1.6 0 .2-.1.3-.3.3-.2 0-.3-.1-.3-.3v-1.3c0-.2 0-.5.3-.5s.5 0 .7.3c.1.3.2.7.4.9.5-.3.2-1.5 1.4-1.2.1.7 0 1.3 0 2-.5.1-.5.1-.7-.9zm-24.6 4.7c0-.5.5-1 1-1s1 .4 1 1c0 .5-.5 1-1 1-.6-.1-1-.5-1-1z" fill="#37A7DF"/><path d="M110.4 9.7c0 .6-.3.9-.8.9s-.9-.4-.8-1c0-.6.4-.9.9-.9.5.1.8.4.7 1z" fill="#F05B4D"/><path d="M157.6 12.8c-.2 0-.4 0-.7.1v1.3c0 .2 0 .4-.3.4-.2 0-.3-.1-.3-.3v-.6c0-.4 0-.8-.6-.8-.1 0-.2-.1-.2-.2s.1-.2.2-.2h1.7c.2-.1.2.1.2.3z" fill="#37A7DF"/><path d="M13.6 10.7c.9-.9 2-1.4 3.3-1.4 1.7.1 2.9.8 3.7 2.3.1.2.1.4 0 .7-.8 1.7-.7 3.5.3 5.1.3.5.3 1.1 0 1.6-.2.5-.7.6-1.2.5-.5-.1-.9-.5-.9-1.1v-4.7c0-1.4-1-2.3-2.3-2.2-1.1.1-2 1-2 2.3v4.5c0 .8-.4 1.3-1.1 1.3-.7 0-1.1-.5-1.1-1.3v-4.5c0-1.3-.9-2.2-2.1-2.2-1.2 0-2.1.9-2.1 2.2v4.5c0 .8-.4 1.3-1.1 1.4-.7 0-1.1-.5-1.1-1.3v-7.6c0-.5.1-1 .6-1.3.5-.2.9-.1 1.3.3.2.2.3.1.5 0 2.1-.9 3.8-.5 5.3.9z" fill="#FDFDFE"/><path d="M25.8 9.5c1.1 0 2.2.4 3.1 1 .5.4.6 1 .3 1.5s-1 .7-1.5.3c-1.8-1.3-3.6-.5-4.4.6-.7 1-.7 2.3 0 3.3.8 1.1 2.3 1.5 3.6.9.2-.1.5-.2.7-.4.6-.3 1.2-.2 1.5.3.3.5.2 1.1-.3 1.5-1.8 1.3-4.4 1.3-6.2 0-1.8-1.3-2.5-3.5-1.9-5.5.8-2.1 2.8-3.5 5.1-3.5z" fill="#FDFDFE"/></g></svg>