<svg xmlns="http://www.w3.org/2000/svg" xmlns:xlink="http://www.w3.org/1999/xlink" version="1.0" width="574.387" height="230.399"><defs><path d="M18.5 75.332c-31.792 50.341-21.593 113.85 22.793 141.892 44.372 27.996 106.118 9.918 137.907-40.441 31.777-50.336 37.086-138.434-7.293-166.446C127.527-17.684 50.277 24.986 18.5 75.332z" id="a"/></defs><radialGradient cx="106.385" cy="113.559" r="127.066" id="b" gradientUnits="userSpaceOnUse"><stop offset=".271" stop-color="#fff"/><stop offset=".461" stop-color="#f8f8f8"/><stop offset=".644" stop-color="#edebea"/><stop offset=".822" stop-color="#d9d9d8"/><stop offset=".998" stop-color="#c2c2c0"/><stop offset="1" stop-color="#c1c1bf"/></radialGradient><use width="574.387" height="230.399" xlink:href="#a" fill="url(#b) #000" overflow="visible"/><path d="M101.329 74.625C125.075 37.017 174.196 3.683 216.036.92 172.395-1.316 117.418 34.204 91.844 74.7c-31.777 50.347-21.574 113.851 22.801 141.89 15.781 9.957 33.742 14.067 51.785 12.98-14.793-.628-29.297-4.855-42.305-13.062-44.378-28.027-54.582-91.554-22.796-141.884z" fill="#fff"/><defs><path d="M254.747 9.628c-11.223-7.09-24.555-9.642-38.711-8.707-41.84 2.762-90.961 36.096-114.707 73.704-31.786 50.33-21.582 113.857 22.796 141.884 13.008 8.207 27.512 12.434 42.305 13.063 35.692 1.535 73.121-17.906 95.594-53.5 31.789-50.336 37.094-138.442-7.277-166.444z" id="c"/></defs><radialGradient cx="189.219" cy="115.197" r="118.908" id="d" gradientUnits="userSpaceOnUse"><stop offset=".19" stop-color="#f9e400"/><stop offset=".38" stop-color="#f6c418"/><stop offset=".811" stop-color="#ee7223"/><stop offset="1" stop-color="#ec4324"/></radialGradient><use width="574.387" height="230.399" xlink:href="#c" fill="url(#d) #000" overflow="visible"/><path d="M186.778 73.89C210.54 36.287 259.648 2.953 301.488.187c-43.632-2.229-98.616 33.287-124.179 73.78-31.793 50.347-21.582 113.855 22.793 141.894 15.773 9.965 33.746 14.058 51.793 12.984-14.809-.633-29.3-4.851-42.324-13.074-44.371-28.02-54.574-91.54-22.793-141.88z" fill="#fff"/><defs><path d="M340.188 8.902c-11.223-7.092-24.555-9.656-38.7-8.715-41.84 2.766-90.948 36.1-114.71 73.703-31.781 50.342-21.578 113.861 22.793 141.881 13.023 8.223 27.515 12.441 42.324 13.074 35.688 1.524 73.102-17.93 95.578-53.5 31.777-50.336 37.09-138.441-7.285-166.443z" id="e"/></defs><radialGradient cx="274.523" cy="114.464" r="118.864" id="f" gradientUnits="userSpaceOnUse"><stop offset=".271" stop-color="#fff"/><stop offset=".461" stop-color="#f8f8f8"/><stop offset=".644" stop-color="#edebea"/><stop offset=".822" stop-color="#d9d9d8"/><stop offset=".998" stop-color="#c2c2c0"/><stop offset="1" stop-color="#c1c1bf"/></radialGradient><use width="574.387" height="230.399" xlink:href="#e" fill="url(#f) #000" overflow="visible"/><path fill="#012d6b" d="M456.95 120.505l7.695-.066.066 6.75-7.714.059-.047-6.743zm28.492 2.989l6.86.691c-.376 1.336-.981 2.48-1.837 3.473-.84.976-1.933 1.746-3.277 2.289-1.32.554-3.05.828-5.11.863-1.98.012-3.64-.156-4.98-.484-1.324-.336-2.469-.88-3.445-1.653a8.713 8.713 0 0 1-2.258-2.71c-.547-1.051-.84-2.422-.86-4.153-.015-1.812.313-3.305.958-4.512.476-.894 1.129-1.68 1.957-2.39a9.378 9.378 0 0 1 2.586-1.586c1.379-.555 3.175-.836 5.37-.852 3.044-.031 5.419.469 7.028 1.473 1.602 1.016 2.762 2.492 3.426 4.441l-6.793.899c-.203-.746-.61-1.332-1.164-1.711-.563-.399-1.305-.578-2.254-.578-1.168.007-2.121.422-2.848 1.238-.722.805-1.097 2.016-1.086 3.644.024 1.446.41 2.54 1.149 3.282.738.758 1.672 1.12 2.781 1.12.953-.015 1.723-.241 2.379-.695.637-.457 1.129-1.152 1.418-2.09zm14.555 5.007c1.89 1.41 4.3 2.11 7.347 2.079 3.38-.02 6.035-.914 7.918-2.633 1.914-1.762 2.848-3.973 2.824-6.672-.02-2.39-.804-4.41-2.367-6.047-1.945-2.004-4.793-3.012-8.55-2.977-3.294.028-5.899.922-7.81 2.668-1.933 1.754-2.859 3.973-2.839 6.637.023 2.89 1.2 5.195 3.477 6.945zm4.742-10.46c.687-.758 1.535-1.157 2.586-1.165.984 0 1.808.368 2.488 1.11.668.742 1.004 1.851 1.035 3.383.008 1.64-.328 2.816-.992 3.547-.629.738-1.477 1.12-2.5 1.132-1.04.012-1.875-.351-2.55-1.097-.669-.739-1.036-1.88-1.04-3.465-.023-1.531.32-2.68.973-3.445zm18.586-5.508l6.75-.063.011 2.547c.98-1.078 1.946-1.844 2.922-2.312.977-.454 2.164-.692 3.57-.704 1.493-.015 2.672.223 3.579.72.855.487 1.574 1.21 2.152 2.187 1.121-1.153 2.152-1.938 3.055-2.36.937-.414 2.094-.644 3.469-.664 2.003-.015 3.585.54 4.722 1.64 1.153 1.122 1.719 2.84 1.754 5.24l.094 10.987-7.258.055-.09-9.969c0-.789-.164-1.37-.508-1.754-.476-.59-1.066-.902-1.793-.886-.836 0-1.515.297-2.023.867-.512.574-.758 1.5-.738 2.758l.07 9.039-7.238.05-.106-9.64c0-.77-.043-1.293-.14-1.582a2.323 2.323 0 0 0-.801-1.063 2.39 2.39 0 0 0-1.336-.382c-.824 0-1.488.304-2.031.894-.5.582-.79 1.543-.778 2.875l.094 8.953-7.246.047-.156-17.48zM192.27 90.79l-1.727 5.293c1.825-2.113 3.782-3.712 5.872-4.779a14.782 14.782 0 0 1 6.726-1.619c2.98-.021 5.223.656 6.762 2.053 1.539 1.404 2.297 3.191 2.27 5.33-.012 2.144-.688 5.73-1.989 10.766l-10.426 40.32-17.488.144 10.316-39.87c1.032-3.954 1.532-6.372 1.508-7.237-.023-.858-.617-1.299-1.793-1.28-1.191.012-2.078.508-2.652 1.51-.586.998-1.434 3.674-2.566 8.01l-10.06 38.906-17.491.157 14.898-57.557 17.84-.146zm45.258 20.055l1.105-4.236c.778-3.002 1.102-4.93 1.004-5.803-.105-.867-.617-1.297-1.582-1.29-1.219.01-2.055.386-2.52 1.128-.472.752-1.136 2.756-1.992 5.994l-1.085 4.24 5.07-.033zm15.074 9.156l-22.555.196-3.214 12.445c-.684 2.617-.93 4.29-.766 5.031.172.754.793 1.125 1.848 1.114 1.289-.012 2.277-.524 2.996-1.52.683-1 1.414-2.941 2.148-5.805l1.961-7.601 16.613-.14-1.093 4.245c-.918 3.559-1.852 6.278-2.786 8.2-.953 1.914-2.52 3.96-4.714 6.14-2.192 2.172-4.696 3.828-7.497 4.938-2.785 1.093-6.101 1.664-9.91 1.691-3.675.04-6.77-.473-9.332-1.5-2.558-1.05-4.37-2.504-5.453-4.36-1.082-1.847-1.64-3.886-1.672-6.132-.027-2.219.504-5.48 1.621-9.754l4.336-16.781c1.301-5.02 2.996-8.987 5.106-11.905 2.113-2.918 4.906-5.162 8.379-6.726 3.5-1.57 7.234-2.38 11.222-2.412 4.883-.045 8.688.863 11.387 2.697 2.723 1.832 4.3 4.287 4.777 7.348.493 3.07.016 7.379-1.418 12.966l-1.984 7.625zm69.805-30.328l-21.918 57.61-18.79.164c.79-7.016 1.993-16.317 3.602-27.899-1.949 5.125-4 10.258-6.183 15.414l-5.032 12.543-18.785.18 7.5-57.502 14.922-.133c-.21 1.49-1.77 12.508-4.691 33.06.836-2.194 5.011-13.241 12.539-33.124l14.265-.125-4.941 33.062c3.11-9.726 7.293-20.765 12.555-33.12l14.957-.13zm21.886 20.141l1.09-4.232c.778-3.002 1.121-4.938 1.008-5.807-.098-.871-.617-1.3-1.562-1.293-1.215.018-2.075.387-2.54 1.137-.476.74-1.12 2.742-1.96 6.002l-1.11 4.228 5.074-.035zm15.075 9.156l-22.551.2-3.25 12.437c-.656 2.621-.91 4.293-.738 5.035.171.742.789 1.125 1.851 1.11 1.285 0 2.297-.508 2.988-1.512.704-1.004 1.415-2.946 2.157-5.809l1.965-7.601 16.613-.137-1.102 4.242c-.922 3.55-1.843 6.293-2.777 8.207-.953 1.906-2.531 3.953-4.73 6.14-2.192 2.173-4.696 3.829-7.497 4.926-2.804 1.114-6.093 1.672-9.902 1.708-3.684.03-6.781-.47-9.34-1.52-2.543-1.043-4.367-2.496-5.457-4.34-1.074-1.867-1.64-3.89-1.668-6.133-.023-2.23.524-5.484 1.617-9.765l4.356-16.77c1.293-5.02 3.004-8.998 5.097-11.912 2.102-2.918 4.918-5.15 8.387-6.74 3.473-1.565 7.219-2.373 11.211-2.406 4.902-.036 8.688.855 11.395 2.697 2.703 1.834 4.289 4.271 4.78 7.351.481 3.073.005 7.393-1.433 12.967l-1.972 7.625zm31.785-14.771c.672-2.63.953-4.313.82-5.037-.117-.715-.707-1.069-1.703-1.069-1.02.014-1.855.434-2.477 1.264-.64.828-1.265 2.453-1.894 4.885l-5.012 19.369c-.664 2.574-.949 4.238-.84 5.012.121.757.692 1.144 1.707 1.128 1.133-.02 2.012-.476 2.61-1.406.601-.937 1.312-3.035 2.164-6.3l4.625-17.846zm21.437-15.414l-11.488 44.357c-1.559 6-2.695 9.875-3.437 11.625-.735 1.742-2.184 3.59-4.372 5.578-2.16 1.969-4.878 3.473-8.132 4.524-3.258 1.054-7.125 1.609-11.63 1.644-5.577.051-9.796-.863-12.687-2.734-2.883-1.88-3.652-5.598-2.328-11.153l16.969-.156c-.676 2.602-.082 3.89 1.789 3.88 1.332-.009 2.316-.411 2.976-1.22.63-.8 1.282-2.457 1.934-4.98l1.145-4.399c-1.864 1.383-3.692 2.418-5.543 3.137-1.84.707-3.676 1.059-5.489 1.086-3.144.02-5.586-.594-7.285-1.84-1.71-1.258-2.672-2.898-2.898-4.968-.254-2.047.125-4.985 1.136-8.805l5.403-20.875c1.414-5.457 3.402-9.389 6-11.809 2.582-2.412 5.883-3.635 9.863-3.668 2.188-.017 4.07.42 5.629 1.297 1.586.883 2.84 2.22 3.82 4l2.344-4.385 16.281-.136zm24.528 15.025c.683-2.64.949-4.309.828-5.035-.117-.727-.688-1.07-1.703-1.068-1.024.007-1.848.42-2.485 1.253-.62.832-1.25 2.461-1.879 4.895l-5.015 19.361c-.672 2.567-.942 4.239-.82 5.008.101.762.667 1.14 1.69 1.129 1.13-.008 1.99-.46 2.583-1.398.61-.938 1.336-3.04 2.187-6.313l4.614-17.832zm21.441-15.41l-11.492 44.36c-1.535 6.003-2.692 9.866-3.422 11.6-.742 1.763-2.191 3.618-4.355 5.579-2.192 1.977-4.895 3.484-8.153 4.547-3.242 1.055-7.12 1.597-11.625 1.633-5.597.054-9.804-.868-12.683-2.735-2.891-1.87-3.66-5.586-2.332-11.156l16.953-.148c-.66 2.597-.075 3.894 1.812 3.875 1.317-.012 2.309-.418 2.95-1.22.652-.8 1.285-2.456 1.953-4.976l1.14-4.406c-1.855 1.383-3.703 2.43-5.55 3.14-1.829.704-3.665 1.071-5.489 1.09-3.152.012-5.582-.59-7.277-1.832-1.711-1.257-2.68-2.921-2.895-4.968-.23-2.07.145-5 1.121-8.809l5.395-20.883c1.418-5.45 3.43-9.386 6.012-11.808 2.593-2.416 5.87-3.64 9.894-3.664 2.168-.026 4.04.406 5.613 1.3 1.559.883 2.848 2.211 3.805 3.998l2.371-4.386 16.254-.131z"/><path d="M565.38 95.192c1.47 0 2.907.377 4.309 1.132a8.049 8.049 0 0 1 3.275 3.24c.782 1.406 1.173 2.871 1.173 4.397 0 1.51-.385 2.962-1.155 4.355a8.146 8.146 0 0 1-3.241 3.247c-1.39.77-2.844 1.156-4.361 1.156-1.518 0-2.972-.386-4.362-1.156a8.184 8.184 0 0 1-3.246-3.247c-.775-1.393-1.162-2.845-1.162-4.355 0-1.526.393-2.991 1.18-4.396a8.086 8.086 0 0 1 3.28-3.241c1.402-.755 2.838-1.132 4.31-1.132h0zm0 1.451c-1.232 0-2.43.316-3.595.947a6.79 6.79 0 0 0-2.736 2.706c-.658 1.173-.987 2.395-.987 3.665 0 1.262.323 2.472.97 3.63a6.88 6.88 0 0 0 2.712 2.706c1.162.646 2.373.97 3.636.97 1.262 0 2.473-.324 3.635-.97a6.841 6.841 0 0 0 2.706-2.706c.643-1.158.964-2.368.964-3.63 0-1.27-.327-2.492-.981-3.665a6.743 6.743 0 0 0-2.735-2.706c-1.17-.631-2.366-.947-3.59-.947h0zm-3.845 12.161v-9.431h3.24c1.108 0 1.91.087 2.405.261.495.175.89.478 1.185.912.294.434.44.894.44 1.382 0 .69-.245 1.29-.737 1.8-.491.512-1.144.798-1.957.86.333.14.6.306.802.5.38.371.844.995 1.393 1.87l1.15 1.846h-1.858l-.836-1.486c-.658-1.17-1.189-1.901-1.592-2.196-.278-.216-.685-.325-1.22-.325h-.893v4.007h-1.522zm1.522-5.308h1.846c.883 0 1.485-.131 1.806-.395.322-.263.482-.611.482-1.045 0-.279-.077-.528-.232-.75a1.385 1.385 0 0 0-.644-.493c-.275-.108-.785-.162-1.528-.162h-1.73v2.845z" font-size="23.787" font-weight="400" fill="#012d6b" stroke="#012d6b" stroke-width=".5" font-family="Bitstream Vera Sans"/></svg>