<svg width="198" height="28" xmlns="http://www.w3.org/2000/svg"><g fill="none"><path d="M0 10.18A2.23 2.23 0 0 0 .43 10l5-3.09a3.1 3.1 0 0 0 .25-.21V.07h5.33v3.42L16.77 0l16.78 10.28-2.76 4.52-2.87-1.75h-.09a.11.11 0 0 0 0 .06v13.41c-.56.14-20.1.19-22 .07-1.9-.12 0 0 0-.06V13.17l-.06-.12-3.02 1.74L1.62 13c-.48-.78-1-1.56-1.45-2.34a1 1 0 0 0-.17-.21v-.27zm150.68 17.01l-1.27-.26a9.06 9.06 0 0 1-7.06-5.77 12.19 12.19 0 0 1-.63-6.79 10.51 10.51 0 0 1 1.43-3.88 9.12 9.12 0 0 1 6.15-4.2 11.39 11.39 0 0 1 6 .33 9.07 9.07 0 0 1 5.7 5.14 12 12 0 0 1-.19 10.24 8.54 8.54 0 0 1-5.66 4.7c-.69.19-1.41.27-2.11.41a.66.66 0 0 0-.2.11l-2.16-.03zm6-10.62c0-.52 0-1-.08-1.55a4.63 4.63 0 0 0-.12-.73c-.53-2.29-1.89-3.78-4.08-4a4.53 4.53 0 0 0-4.86 2.57 9.56 9.56 0 0 0-.22 7c.86 2.64 3.15 3.67 5.78 3a4.37 4.37 0 0 0 3.1-3 9.1 9.1 0 0 0 .48-3.29z" fill="#00B340"/><path d="M113.69 27.19a.36.36 0 0 0 0-.11H116v.11h-2.31z" fill="#62D088"/><path d="M75.34 27.19a.36.36 0 0 1 0-.11h2.2a.36.36 0 0 1 0 .11h-2.2zm97.21 0v-.11h2.21v.11h-2.21z" fill="#6DD390"/><path d="M129.77 27.08a.43.43 0 0 0 0 .11h-1.89v-.11h1.89z" fill="#6ED391"/><path d="M48 .07c3.547 6.12 7.09 12.24 10.63 18.36h.1V.08h4.83v26.53h-5.85l-10.5-17.8h-.11v17.7a34.59 34.59 0 0 1-4.83.05V.07H48zm81.77 27.01h-1.93a7.9 7.9 0 0 1-6.36-4.16 11.9 11.9 0 0 1-1.48-5.05 14.5 14.5 0 0 1 .3-4.41 9.89 9.89 0 0 1 2.58-4.93A8.11 8.11 0 0 1 128 6.1a8 8 0 0 1 4.75.85c.556.344 1.09.721 1.6 1.13V.15a33.44 33.44 0 0 1 5.07-.06v26.52h-4.93v-1.93a7.29 7.29 0 0 1-4.72 2.4zm-4.51-10.44a8.89 8.89 0 0 0 .57 3.58 4.4 4.4 0 0 0 7.34 1.37 5.26 5.26 0 0 0 1-1.88c.51-1.704.59-3.508.23-5.25a6.32 6.32 0 0 0-.88-2.3 4 4 0 0 0-3.41-2 4.31 4.31 0 0 0-4.39 3.08 8.8 8.8 0 0 0-.46 3.4zM77.52 27.08h-2.2a9.11 9.11 0 0 1-8.59-7.17 13.27 13.27 0 0 1 .46-8.12A8.46 8.46 0 0 1 74 6.24a10.81 10.81 0 0 1 5.12.24 8.37 8.37 0 0 1 5.4 4.79 13.84 13.84 0 0 1 1.08 6.6h-14c.16 1.89.62 3.55 2.35 4.54a5.73 5.73 0 0 0 3.73.54 4.83 4.83 0 0 0 3.54-2.42 3.29 3.29 0 0 1 .21-.28l4.12 2.1a9.77 9.77 0 0 1-8.03 4.73zm-5.94-12.75h8.73a4.06 4.06 0 0 0-4-4.39c-2.58-.1-4.4 1.29-4.73 4.39zm103.16 12.75h-2.21a9.44 9.44 0 0 1-8.84-7.7 12.25 12.25 0 0 1 .31-6.63 9.15 9.15 0 0 1 7.45-6.49 10.76 10.76 0 0 1 7.12.93 9.28 9.28 0 0 1 4.79 5.88 12.26 12.26 0 0 1-.25 8 9 9 0 0 1-7 5.86 12.87 12.87 0 0 1-1.37.15zm-6-10.62a9.48 9.48 0 0 0 .53 3.5 4.64 4.64 0 0 0 6.22 2.7 4.5 4.5 0 0 0 2.74-3.28c.35-1.303.452-2.66.3-4a7.53 7.53 0 0 0-.69-2.65 4.23 4.23 0 0 0-2.47-2.26 4.69 4.69 0 0 0-6.15 2.81 8.56 8.56 0 0 0-.49 3.18h.01zm-82.23-9.9h5.58l3.76 6.1 3.8-6.1h5.29c-1 1.56-2 3.05-3 4.54l-3 4.58 6.94 10.94h-5.54l-4.64-7.68-4.58 7.69h-5.43l6.88-10.76-6.06-9.31zM116 27.08h-2.33a5.86 5.86 0 0 1-2-.44 4.6 4.6 0 0 1-2.93-4 16.17 16.17 0 0 1-.11-2.09V10.32h-2.68V6.56h2.66v-5h5.07v5c1.67.06 3.3 0 5 0v3.74h-4.93v10.17c.004.403.047.805.13 1.2a1.41 1.41 0 0 0 1.1 1.15c.434.09.878.12 1.32.09.93-.08 1.85-.23 2.8-.35v3.9a9.15 9.15 0 0 1-3.1.62zm75-.46h-5v-20h4.91v2.6l.11.05.48-.67a6 6 0 0 1 3.36-2.33 6.39 6.39 0 0 1 2.82 0v4.95h-1.53a7.72 7.72 0 0 0-1.52.2 4.46 4.46 0 0 0-3.26 3.5 10.6 10.6 0 0 0-.31 2.8v9l-.06-.1z" fill="#00B340"/></g></svg>