<svg width="913" height="120" xmlns="http://www.w3.org/2000/svg"><g fill="none"><path d="M75.939 95.316l37.198 20.774V76.25L75.939 55.476v39.84zm-75.13 0l37.198 20.774V76.25L.809 55.476v39.84z" fill="#FFF"/><path d="M38.007 76.252v39.833l37.934-20.767v-39.84L38.007 76.252zm75.131 0v39.833l37.927-20.767v-39.84l-37.927 20.774zM75.785 13.4L98.294.779H53.426L75.785 13.4z" fill="#0AF"/><path fill="#FFF" d="M.809 55.476l37.36-20.977L.808 13.691z"/><path d="M151.167 55.476l-37.359-20.977 37.361-20.808-.002 41.785zm65.963 32.729c-13.269 0-20.419-12.855-20.419-25.71 0-18.204 10.082-25.835 20.807-25.835 11.994 0 20.294 10.055 20.294 25.71 0 16.292-9.319 25.835-20.682 25.835zm1.663-59.608c-16.976 0-22.207 12.559-22.207 12.559h-.256s.184-1.827.184-4.627v-6.763h-8.563v90.011l9.516-4.962V89.223c0-3.306-.756-6.316-.756-6.316h.256s5.619 12.579 21.057 12.579c16.594 0 28.72-13.144 28.72-33.379 0-19.86-10.719-33.51-27.951-33.51zm324.049 39.947V36.276h15.463v-6.747h-15.463V9.087l-8.696 4.985v15.456h-8.696v6.747h8.696v33.162c0 21.549 14.969 23.986 22.43 23.986 2.316 0 3.657-.26 3.657-.26v-7.822s-1.108.254-2.91.254c-4.884 0-14.481-1.922-14.481-17.051zm-207.705 0V36.276H350.6v-6.747h-15.463V9.087l-8.696 4.985v15.456h-8.696v6.747h8.696v33.162c0 21.549 14.969 23.986 22.43 23.986 2.316 0 3.657-.26 3.657-.26v-7.822s-1.108.254-2.91.254c-4.884 0-14.481-1.922-14.481-17.051zM296.17 53.325h3.752v-1.742c0-12.998-7.102-17.42-16.751-17.42-11.122 0-19.028 6.432-19.028 6.432l-4.288-6.968s8.844-7.638 23.986-7.638c16.214 0 25.193 8.978 25.193 25.862V95h-8.71v-7.37c0-3.35.268-5.628.268-5.628h-.268s-5.628 14.606-22.512 14.606c-11.256 0-22.915-6.566-22.915-19.966 0-22.781 29.615-23.317 41.273-23.317zm-16.885 35.511c12.864 0 20.636-13.4 20.636-25.059v-2.948h-3.886c-10.586 0-31.758.402-31.758 15.276 0 6.299 4.958 12.731 15.008 12.731zm86.707-61.239h9.112V95h-9.112V27.597zm55.01-1.608c18.626 0 28.14 14.338 28.14 31.088 0 1.608-.268 4.69-.268 4.69H397.15c.401 17.286 12.194 26.666 26.13 26.666 12.328 0 20.503-8.174 20.503-8.174l4.153 6.968s-9.781 9.38-24.924 9.38c-20.101 0-35.243-14.472-35.243-35.243 0-22.109 15.009-35.375 33.233-35.375zm18.894 28.274c-.536-14.07-9.112-20.636-19.162-20.636-11.256 0-21.038 7.102-23.183 20.636h42.345zm20.641-26.666h8.979v10.05c0 2.948-.269 5.36-.269 5.36h.269c2.412-6.164 10.989-17.018 26.935-17.018 16.616 0 22.512 9.514 22.512 26.13V95h-9.112V54.531c0-10.586-1.608-19.966-14.606-19.966-11.524 0-21.441 7.906-24.523 19.028-.805 2.814-1.072 5.896-1.072 9.112V95h-9.112V27.597h-.001z" fill="#0AF"/><path d="M590.187 36.039h-8.442v-7.638h8.442v-3.216c0-22.245 15.679-25.059 23.316-25.059 2.546 0 4.154.268 4.154.268v8.174s-1.34-.268-3.216-.268c-5.227 0-15.143 1.876-15.143 16.884V28.4h17.286v7.638H599.3V95h-9.112V36.039h-.001zm35.737-8.442h9.112v40.469c0 10.586 1.608 19.966 14.607 19.966 15.41 0 24.925-13.534 24.925-28.141V27.597h9.112V95h-8.845V84.95c0-2.948.268-5.36.268-5.36h-.268c-2.68 6.566-11.525 17.018-26.398 17.018-15.812 0-22.513-8.576-22.513-26.13V27.597zm73.372 52.663s7.504 8.174 20.101 8.174c7.236 0 13.534-3.618 13.534-10.72 0-14.741-36.314-11.123-36.314-33.099 0-12.06 10.853-18.626 23.048-18.626 14.204 0 20.77 7.37 20.77 7.37l-4.154 6.968s-5.762-6.165-16.884-6.165c-6.834 0-13.4 2.948-13.4 10.453 0 14.874 36.315 10.854 36.315 33.099 0 10.988-9.514 18.894-23.048 18.894-16.349 0-24.925-9.782-24.925-9.782l4.957-6.566zm54.288-52.663h9.112V95h-9.112V27.597zm55.753-1.608c19.698 0 35.644 15.008 35.644 34.975 0 20.368-15.946 35.644-35.644 35.644s-35.645-15.276-35.645-35.644c.001-19.967 15.947-34.975 35.645-34.975zm0 62.445c14.473 0 26.265-11.792 26.265-27.471 0-15.276-11.792-26.667-26.265-26.667s-26.265 11.39-26.265 26.667c0 15.679 11.792 27.471 26.265 27.471zm44.939-60.837h8.979v10.05c0 2.948-.268 5.36-.268 5.36h.268c2.412-6.164 10.988-17.018 26.935-17.018 16.616 0 22.512 9.514 22.512 26.13V95h-9.112V54.531c0-10.586-1.607-19.966-14.605-19.966-11.524 0-21.44 7.906-24.522 19.028-.805 2.814-1.072 5.896-1.072 9.112V95h-9.112V27.597h-.003z" fill="#FFF"/><path d="M370.317 7.643a5.03 5.03 0 0 0-5.041 5.028 5.035 5.035 0 0 0 5.041 5.028 5.035 5.035 0 0 0 5.041-5.028 5.03 5.03 0 0 0-5.041-5.028" fill="#0AF"/><path d="M758.317 7.643a5.03 5.03 0 0 0-5.041 5.028 5.035 5.035 0 0 0 5.041 5.028 5.035 5.035 0 0 0 5.041-5.028 5.03 5.03 0 0 0-5.041-5.028" fill="#FFF"/></g></svg>