<svg width="220" height="34" xmlns="http://www.w3.org/2000/svg"><g fill="#023F2C"><path d="M150 22.2l-2.9-4.5h-2.4v4.5h-3v-14h6.3c3.2 0 5.2 1.7 5.2 4.6 0 2.3-1.2 3.7-2.9 4.3l3.3 5H150v.1zm.1-9.2c0-1.3-.9-2-2.4-2h-3v4h3c1.6 0 2.4-.8 2.4-2zm24.5 9.2H172l-5.6-14h3.3l3.6 9.9 3.6-9.9h3.2l-5.5 14zm-15.7-5.6h6.4v-2.8h-6.4V11h5.9l-.9-2.8h-8v14h10.4v-2.7h-7.4v-2.9zm32.6 0h6.5v-2.8h-6.5V11h6l-.9-2.8h-8v14H199v-2.7h-7.5v-2.9zm-9.3-8.4h3v14h-3v-14zm33.1 14h-2.6l-3.1-9-3.1 9h-2.6l-4.7-14h3.3l2.8 9.5 3.1-9.5h2.6l3 9.5 2.8-9.5h3.2l-4.7 14zM134.2 8.5c-1.9-3.8-5.1-6.5-8.8-7.7-1.6-.5-3.3-.8-4.9-.8-2.2 0-4.5.5-6.7 1.6-3.8 1.9-6.5 5.1-7.7 8.8-1.3 3.7-1.1 7.9.7 11.7v.1c1.9 3.7 5.1 6.4 8.7 7.6 1.6.5 3.3.8 5 .8 2 0 4-.4 5.9-1.2L135 34l-2.4-9.4c1.6-2.2 2.7-4.7 3-7.4.4-2.8-.1-5.9-1.4-8.7zm-1.3 8.4c-.3 2.2-1.2 4.3-2.5 6l-.8 1.1.3 1.3.8 3.3-3-1.6-1.2-.6-1.2.5c-1.6.7-3.2 1-4.8 1-1.4 0-2.7-.2-4.1-.7-3.1-1.1-5.7-3.3-7.2-6.2v-.1c-1.5-3-1.7-6.4-.6-9.5 1.1-3.2 3.3-5.7 6.3-7.2 1.7-.8 3.6-1.3 5.5-1.3 1.4 0 2.7.2 4.1.7 3.2 1.1 5.7 3.3 7.2 6.3 1.1 2.1 1.5 4.5 1.2 7z"/><path d="M119.5 13.7l-7.4-1.6s-.1 2 .2 4.4c.4 2.7.9 4 .9 4s1.1.6 3.7 1.6c2.1.8 4 1.1 4 1.1l-1.4-9.5zm8.6.4c-.4-2.9-1.1-4.3-1.1-4.3l-6.5 3.7 1.5 9.6s1.7-.9 3.7-2.3c2.3-1.7 2.7-2.2 2.7-2.2s.1-1.7-.3-4.5zm-1.9-5s-1.1-.5-3.4-1c-2.3-.4-3.7-.4-3.7-.4s-1.3.3-3.4 1.5c-2 1.2-3 2-3 2l7.2 1.5 6.3-3.6zM5.4 18H3.1v4.2H0v-14h5.7c3.3 0 5.4 2 5.4 4.8 0 3.4-2.5 5-5.7 5zM8 13.1C8 11.8 7 11 5.5 11H3.1v4.3h2.4c1.6 0 2.5-.9 2.5-2.2zm13.7 9.1l-3-4.5h-2.4v4.5h-3.1v-14h6.4c3.3 0 5.3 1.7 5.3 4.6 0 2.3-1.2 3.7-3 4.3l3.4 5h-3.6v.1zm.1-9.2c0-1.3-.9-2-2.4-2h-3.1v4h3.1c1.5 0 2.4-.8 2.4-2zm12.4 9.2c-4.2 0-7.2-3.1-7.2-7 0-3.8 3-7 7.2-7s7.2 3.1 7.2 7-3 7-7.2 7zm4.1-7c0-2.3-1.7-4.3-4.1-4.3-2.4 0-4.1 1.9-4.1 4.2 0 2.3 1.7 4.3 4.1 4.3 2.4.1 4.1-1.8 4.1-4.2zm11.1 7h-5.5v-14h5.5c4.4 0 7.4 3 7.4 7s-3 7-7.4 7zm4.2-7c0-2.5-1.7-4.2-4.2-4.2H47v8.4h2.4c2.5.1 4.2-1.6 4.2-4.2zm11.5 7c-3.7 0-6-2.1-6-6.1V8.2h3V16c0 2.2 1.1 3.4 3 3.4s3-1.1 3-3.3V8.2h3V16c.1 4.2-2.3 6.2-6 6.2zm15.5 0c-4 0-6.9-3.1-6.9-7 0-3.8 2.9-7 7.1-7 2.6 0 4.1.9 5.3 2.1l-1.9 2.2c-1-.9-2.1-1.5-3.5-1.5-2.3 0-3.9 1.9-3.9 4.2 0 2.3 1.6 4.3 3.9 4.3 1.5 0 2.5-.6 3.6-1.6l1.9 1.9c-1.4 1.5-3 2.4-5.6 2.4zm14.6-11.1v11.1h-3.1V11.1h-4.3V8.2h11.6v2.9h-4.2z"/></g></svg>