<svg width="147" height="24" xmlns="http://www.w3.org/2000/svg"><g fill="none"><path d="M11.78.81C5.604.827.609 5.844.62 12.02c.011 6.176 5.024 11.175 11.2 11.17C17.996 23.184 23 18.176 23 12A11.18 11.18 0 0 0 11.78.81zm5.25 19l-5.26-4-5.22 4 2-6.59-5.19-4h6.3l2.08-6.29 2.11 6.29h6.29L15 13.26l2.03 6.55z" fill="#4AB96A"/><path d="M28 4a1 1 0 0 1 1-1h6.74a7.07 7.07 0 0 1 5.16 1.8 5 5 0 0 1 1.39 3.55v.05c0 3-2 4.68-4.82 5.22L42 19.39a1 1 0 0 1-.69 1.75 1.2 1.2 0 0 1-1-.54L35.24 14h-5.18v6.1a1 1 0 0 1-2 0V4H28zm7.57 8.16c2.7 0 4.63-1.39 4.63-3.7V8.4c0-2.21-1.7-3.55-4.61-3.55h-5.53v7.31h5.51zM46.38 20V4a1 1 0 0 1 1-1h11.19a.93.93 0 1 1 0 1.85H48.41V11h9a.94.94 0 0 1 .93.92.92.92 0 0 1-.93.93h-9v6.3H58.7a.93.93 0 0 1 0 1.86H47.38a1 1 0 0 1-1-1.01zm22.76.36l-6.94-16a.9.9 0 0 1-.11-.46 1.05 1.05 0 0 1 1-1 1.13 1.13 0 0 1 1.06.77l6.22 14.92 6.26-15a1.2 1.2 0 0 1 1-.72 1 1 0 0 1 1 1 1.1 1.1 0 0 1-.07.41l-7 16.1a1.23 1.23 0 0 1-1.18.85h-.1a1.23 1.23 0 0 1-1.14-.87zM82.42 3.9a1 1 0 0 1 2 0v16.21a1 1 0 0 1-2 0V3.9zM89.47 20V4a1 1 0 0 1 1-1h11.19a.93.93 0 1 1 0 1.85H91.5V11h9a.94.94 0 0 1 .92.92.92.92 0 0 1-.92.93h-9v6.3h10.29a.93.93 0 1 1 0 1.86H90.47a1 1 0 0 1-1-1.01zm15.9-15.64a1.34 1.34 0 0 1-.11-.46 1.08 1.08 0 0 1 1.06-1 1.14 1.14 0 0 1 1.05.85l5 14.3 4.71-14.36a1 1 0 0 1 1-.79h.13a1 1 0 0 1 1 .79L123.89 18l5-14.36a1 1 0 0 1 1-.79c.54.03.97.46 1 1a1.78 1.78 0 0 1-.13.49l-5.76 16a1.14 1.14 0 0 1-1.06.88h-.15a1.15 1.15 0 0 1-1.06-.88L118.05 6.5l-4.66 13.84a1.14 1.14 0 0 1-1 .88h-.15a1.12 1.12 0 0 1-1.06-.88l-5.81-15.98zm28.07 14.49a.91.91 0 0 1-.39-.78 1 1 0 0 1 1-1 .92.92 0 0 1 .62.23 8.17 8.17 0 0 0 5.68 2.14c2.42 0 4-1.29 4-3.07v-.05c0-1.67-.9-2.62-4.69-3.42-4.14-.9-6-2.24-6-5.2 0-2.83 2.49-4.91 5.91-4.91a9.21 9.21 0 0 1 5.74 1.77c.27.192.432.5.44.83a1 1 0 0 1-1 1 .94.94 0 0 1-.59-.18 7.59 7.59 0 0 0-4.66-1.57c-2.34 0-3.83 1.29-3.83 2.91 0 1.7.92 2.65 4.89 3.5 3.97.85 5.86 2.34 5.86 5.1v.05c0 3.09-2.57 5.09-6.15 5.09a10.52 10.52 0 0 1-6.83-2.44z" fill="#010101"/></g></svg>