<svg width="156" height="38" xmlns="http://www.w3.org/2000/svg"><g fill="none"><path d="M152.5 10h-.8l-.4 2.1h-.3l.4-2.1h-.8l.1-.3h1.9l-.1.3zm.4-.3h.4l.3 2 1.2-2h.4l-.5 2.4h-.3l.5-2.1-1.2 2.1h-.3l-.3-2.1-.4 2.1h-.3l.5-2.4zM15.7 7.5s2.4-.2 6.3-1.4 8.8-5 8.8-5S35.9 4.7 40 6c4.1 1.2 6.8 2.1 6.8 2.1s2.7 22.7-16.1 29.5c-18.2-4.8-15-30.1-15-30.1zm15 27.2c16-5.7 13.7-25 13.7-25S42.1 9 38.7 8c-3.5-1-7.8-4.1-7.8-4.1s-4.2 3.2-7.5 4.3c-3.3 1-5.3 1.2-5.3 1.2s-2.7 21.4 12.6 25.3z" fill="#231F20"/><path d="M15.9 6.9s2.4-.2 6.3-1.4 8.8-5 8.8-5 5.1 3.6 9.2 4.9C44.3 6.6 47 7.5 47 7.5S49.7 30.2 30.9 37c-18.2-4.8-15-30.1-15-30.1zm15 27.2c16-5.7 13.7-25 13.7-25s-2.3-.7-5.8-1.8c-3.5-1-7.8-4.1-7.8-4.1s-4.2 3.2-7.5 4.3c-3.3 1-5.3 1.2-5.3 1.2s-2.7 21.5 12.7 25.4z" fill="#F3BE55"/><path d="M4.3 19.1c0 .4.1.7.3.9.3.2.6.3 1.1.3.3 0 .5 0 .7-.1.2-.1.3-.1.4-.2.1-.2.2-.4.2-.5 0-.2-.1-.4-.2-.5-.1-.1-.3-.2-.5-.3-.2-.1-.5-.1-.8-.2-.3 0-.7-.1-1.1-.1-.2 0-.4-.1-.7-.2-.3-.1-.6-.2-.9-.4-.3-.2-.5-.4-.8-.8-.2-.3-.3-.8-.3-1.3 0-.8.2-1.4.5-1.9s.7-.9 1.1-1.2c1-.5 2.2-.8 3.4-.7.6 0 1.1 0 1.7.1.5.1 1 .2 1.5.5.5.2.8.6 1.1 1 .2.4.3 1 .3 1.7H7.8c0-.4-.1-.7-.3-.8-.3-.2-.6-.3-.9-.3-.3 0-.5.1-.7.2-.3.1-.4.4-.4.7 0 .5.3.8.9.8 1.5.2 2.6.5 3.3.9.7.5 1.1 1.2 1.1 2.3 0 1.2-.5 2.1-1.4 2.8-.9.7-2.2 1-3.8 1-.5 0-1.1-.1-1.6-.2-.6-.1-1.1-.3-1.6-.5-.5-.3-.9-.6-1.1-1.1-.3-.5-.4-1.1-.4-1.8h3.4v-.1zm17.5 3.3h-3.7l.3-1.3c-.8 1-1.9 1.5-3.2 1.6-.9 0-1.6-.2-2.2-.7-.6-.4-.9-1.1-.9-2.1 0-.4.1-1.1.3-2.1.2-1 .6-2.9 1.2-5.7h3.8l-1.1 5.4c-.2.5-.3.9-.3 1.1 0 .3.1.5.3.6.2.2.5.3.7.3.4 0 .8-.1 1-.4.2-.2.4-.5.6-.8.1-.3.2-.7.3-1 .1-.4.1-.7.2-1l.9-4.2h3.8l-2 10.3zm4.3-10.3h3.7l-.2 1.2c.6-.9 1.5-1.4 2.7-1.4.7 0 1.3.1 1.8.4.5.3.8.6 1.1 1 .3.4.5.9.6 1.4.1.5.2 1 .2 1.5 0 1.6-.4 3.1-1.2 4.4-.4.7-.9 1.2-1.5 1.5-.6.4-1.4.6-2.2.6-.5 0-1.1-.1-1.6-.3-.5-.2-1-.6-1.4-1.2l-.9 4.6h-3.9l2.8-13.7zm4 7.7c.4 0 .7-.1 1-.4.2-.2.4-.5.6-.8.3-.7.4-1.4.4-2.1 0-.5-.1-1-.3-1.3-.2-.3-.6-.5-1.1-.5-.4 0-.8.1-1 .4-.3.3-.5.6-.6 1-.3.8-.4 1.5-.4 2.1 0 .1 0 .2.1.4 0 .2.1.4.2.6.1.2.2.3.4.5.1.1.4.1.7.1zm17.1-.4c0 .1-.1.2-.1.3-.1.1-.1.3-.2.5-.2.4-.4.7-.8 1.1-.4.4-.9.7-1.6 1-.7.3-1.6.4-2.6.4-1.7 0-3-.5-3.8-1.4-.8-.8-1.2-1.9-1.2-3.2 0-1.2.2-2.2.6-3 .4-.8.9-1.4 1.5-1.9s1.3-.8 1.9-1.1c.7-.2 1.3-.3 2-.3 1.2 0 2.3.3 3.3 1s1.5 1.9 1.6 3.5c0 .6-.1 1.2-.2 1.8h-7.1c0 .6.1 1 .3 1.4.2.4.6.6 1.2.6.8 0 1.3-.3 1.5-.7h3.7zm-3-3.3v-.3c0-.4-.1-.7-.3-1-.2-.3-.6-.4-1.1-.4-1.1 0-1.7.6-2 1.7h3.4zm6.4-4h3.8l-.3 1.6c.4-.6.8-1 1.4-1.4.6-.3 1.1-.5 1.6-.5.6 0 1.1.1 1.4.2l-.7 3.5c-.5-.2-1-.3-1.5-.3-.8 0-1.5.2-1.9.6-.5.4-.8 1.2-1 2.3l-.9 4.3h-3.9l2-10.3zm8.7.1h1.6l-.4 1.5c.5-.7 1-1.1 1.6-1.3.5-.2 1.1-.4 1.8-.4.6 0 1.2.1 1.7.3.5.2.9.5 1.3.9.3.4.6.8.8 1.3.2.5.3 1.1.3 1.7 0 .8-.1 1.6-.4 2.3-.3.8-.6 1.5-1.1 2.1-.5.6-1.1 1.1-1.8 1.5-.7.4-1.5.6-2.4.6-.3 0-.6 0-1-.1l-.9-.3c-.3-.1-.6-.3-.8-.6-.2-.2-.4-.5-.5-.9L58 26.3h-1.7l3-14.1zm7 3.9c0-.8-.2-1.5-.6-2-.4-.5-1.1-.7-2-.7-.6 0-1.2.2-1.7.5s-.9.7-1.3 1.2c-.3.5-.6 1.1-.8 1.7-.2.6-.3 1.2-.3 1.7 0 .8.2 1.4.7 1.9.4.5 1.1.8 1.9.8.7 0 1.3-.2 1.8-.5s.9-.7 1.3-1.2c.3-.5.6-1 .8-1.6.1-.6.2-1.2.2-1.8zm3.4-.8c.1-.6.3-1.1.5-1.5.3-.4.6-.8 1-1 .4-.3.8-.5 1.3-.6.5-.1 1-.2 1.6-.2.5 0 1 0 1.4.1.5.1.9.2 1.2.4.3.2.6.5.8.8.2.3.3.8.3 1.3 0 .3 0 .6-.1.9-.1.3-.1.6-.2.9l-.7 2.8c0 .2-.1.4-.2.7-.1.3-.1.5-.1.8 0 .2 0 .4.1.5.1.1.2.1.4.1.1 0 .2 0 .3-.1.1 0 .2-.1.3-.1l-.3 1.3c-.1.1-.3.1-.5.2-.2 0-.4.1-.5.1-.5 0-.8-.1-1.1-.4-.1-.3-.2-.6-.2-1.1-.4.5-.8.8-1.3 1.1-.5.3-1.2.4-2.1.4-.4 0-.8-.1-1.2-.2-.4-.1-.7-.3-1-.5-.3-.2-.5-.5-.7-.9-.2-.4-.2-.8-.2-1.3 0-.7.2-1.3.5-1.8.3-.4.7-.8 1.2-1 .5-.2 1.1-.4 1.7-.4.6-.1 1.2-.1 1.8-.2.4 0 .8-.1 1.2-.1.3 0 .6-.1.8-.2.2-.1.4-.3.5-.5.1-.2.1-.5.1-.8 0-.3-.1-.5-.2-.7-.1-.2-.3-.3-.5-.4-.2-.1-.4-.2-.7-.2-.2 0-.5-.1-.7-.1-.3 0-.6 0-.9.1-.3.1-.6.2-.8.3-.3.2-.5.3-.6.6-.2.2-.3.5-.3.8h-1.9v.1zm.4 4.4c0 .5.2.8.6 1.1.4.2.8.4 1.3.4 1.3 0 2.3-.4 2.9-1.3.3-.4.5-.8.6-1.2.1-.4.2-.9.3-1.4-.2.1-.4.2-.7.3-.3.1-.5.1-.8.2-.3.1-.6.1-.9.1-.3 0-.6.1-.9.1-.3 0-.6.1-.9.2-.3.1-.5.2-.7.3-.2.1-.4.3-.5.5-.2.1-.3.4-.3.7zm17.5 1.2c-.1.5-.2 1-.4 1.5-.1.5-.3.9-.4 1.3-.4 1-1 1.8-1.8 2.2-.8.4-1.7.7-2.8.7-.5 0-1-.1-1.5-.2s-.9-.3-1.3-.6-.7-.6-.9-1c-.2-.4-.4-.9-.4-1.5h1.7c0 .3.1.6.3.8.2.2.3.4.6.5.2.1.5.2.8.3.3 0 .6.1.9.1.6 0 1.2-.1 1.6-.4.4-.2.8-.6 1-.9.3-.4.5-.8.6-1.3.2-.5.3-1 .4-1.5-.4.6-.8 1-1.4 1.2-.6.2-1.2.4-1.8.4-.6 0-1.2-.1-1.7-.3-.5-.2-.9-.5-1.2-.9-.3-.4-.6-.8-.7-1.3-.2-.5-.2-1.1-.2-1.7 0-.8.1-1.5.4-2.3.2-.8.6-1.4 1.1-2 .5-.6 1-1.1 1.7-1.5.7-.4 1.4-.6 2.2-.6.4 0 .7 0 1.1.1.4.1.7.2 1 .4.3.2.5.4.8.7.2.3.3.5.4.9l.3-1.9h1.6l-2 8.8zm-7-2.6c0 .4.1.7.2 1 .1.3.3.6.5.9.2.3.5.5.8.6.3.2.7.2 1.1.2.6 0 1.2-.2 1.7-.5s.9-.7 1.2-1.2c.3-.5.5-1 .7-1.6.2-.6.2-1.1.2-1.6 0-.8-.2-1.5-.6-1.9-.4-.5-1.1-.7-2-.7-.6 0-1.1.2-1.6.5-.4.3-.8.7-1.1 1.2-.3.5-.5 1-.7 1.6-.3.5-.4 1-.4 1.5zm10.8-.5c0 .3-.1.6-.1.9 0 .4.1.7.2 1.1.1.3.3.6.6.8.3.2.5.4.9.5.3.1.6.2 1 .2.7 0 1.4-.2 1.9-.5s.9-.8 1.1-1.5h1.7c-.1.6-.3 1.1-.6 1.5-.3.4-.6.8-1.1 1.1-.4.3-.9.5-1.4.7-.5.1-1 .2-1.6.2-.8 0-1.5-.1-2.1-.4-.6-.3-1-.6-1.3-1-.3-.4-.6-.8-.7-1.3-.1-.5-.2-.9-.2-1.4 0-1 .1-1.9.4-2.7.3-.8.7-1.5 1.2-2.1.5-.6 1-1 1.7-1.3.6-.3 1.3-.5 2-.5 1.5 0 2.6.4 3.3 1.2.7.8 1 1.9 1 3.4 0 .3 0 .5-.1.8 0 .2-.1.4-.1.6h-7.7v-.3zm6.2-1.5c0-.4 0-.7-.1-1.1-.1-.3-.2-.7-.4-.9-.2-.3-.4-.5-.8-.7-.3-.2-.7-.2-1.2-.2s-.9.1-1.3.2c-.4.2-.7.4-1 .6-.3.3-.5.6-.7.9-.2.3-.4.7-.5 1.1h6v.1zm9.2-1.1c0-.3 0-.5-.1-.8-.1-.2-.3-.4-.5-.6-.2-.2-.4-.3-.7-.3-.3-.1-.5-.1-.8-.1-.3 0-.5 0-.8.1-.3 0-.5.1-.7.2-.2.1-.4.2-.5.4-.1.2-.2.4-.2.6 0 .2.1.4.2.6.2.2.4.3.6.5.3.1.5.3.9.4.3.1.6.3 1 .4.3.1.7.3 1 .5l.9.6c.3.2.5.5.6.8.2.3.2.6.2 1 0 .6-.1 1.1-.4 1.5-.3.4-.6.7-1 1-.4.3-.8.4-1.3.6-.5.1-1 .2-1.5.2-.6 0-1.1-.1-1.6-.2s-.9-.3-1.3-.6-.7-.6-.9-1.1c-.2-.4-.3-1-.3-1.7h1.7c0 .4 0 .7.2 1 .1.3.3.5.6.6.2.2.5.3.9.3.3.1.7.1 1 .1.3 0 .6 0 .8-.1.3-.1.5-.1.8-.3.2-.1.4-.3.5-.5.1-.2.2-.4.2-.7 0-.3-.1-.5-.2-.6-.2-.2-.4-.3-.6-.5-.3-.1-.5-.3-.9-.4-.3-.1-.7-.3-1-.4-.3-.1-.7-.3-1-.4-.3-.2-.6-.3-.9-.6-.3-.2-.5-.5-.6-.8-.2-.3-.2-.6-.2-1 0-.5.1-.9.3-1.3.2-.4.5-.7.9-.9l1.2-.6c.5-.1.9-.2 1.4-.2.5 0 .9.1 1.4.2.5.1.9.3 1.2.6.4.3.7.6.9 1 .2.4.3.9.3 1.5h-1.7zm2.8 5h2.2l-.5 2.2h-2.2l.5-2.2zm12.6-4.8c0-.6-.2-1.1-.6-1.5-.4-.3-.9-.5-1.6-.5-.6 0-1.2.1-1.7.4-.5.3-.9.7-1.2 1.1-.3.5-.6 1-.8 1.6-.2.6-.3 1.1-.3 1.7 0 .4 0 .8.1 1.1.1.4.2.7.4.9.2.3.5.5.8.6.3.2.7.2 1.2.2.7 0 1.3-.2 1.9-.6.5-.4.9-.9 1.1-1.5h1.7c-.3 1.1-.9 2-1.7 2.7-.8.6-1.8.9-3 .9-1.4 0-2.5-.4-3.2-1.2-.7-.8-1.1-1.9-1.1-3.3 0-.8.1-1.6.4-2.3.2-.8.6-1.4 1.1-2 .5-.6 1.1-1.1 1.8-1.4.7-.4 1.5-.5 2.4-.5 1.2 0 2.1.3 2.8.8.7.6 1 1.4 1.1 2.6h-1.6v.2zm2.3 3c0-.8.1-1.6.4-2.4.3-.8.6-1.5 1.1-2.1.5-.6 1.1-1.1 1.8-1.4.7-.4 1.5-.5 2.4-.5 1.4 0 2.4.4 3.2 1.1.7.7 1.1 1.8 1.1 3.2 0 .8-.1 1.6-.4 2.4-.3.8-.6 1.5-1.1 2.1-.5.6-1.1 1.1-1.8 1.4-.7.4-1.5.5-2.4.5-.7 0-1.3-.1-1.8-.3-.5-.2-1-.5-1.4-.9-.4-.4-.7-.8-.9-1.4-.1-.5-.2-1.1-.2-1.7zm1.7 0c0 .8.2 1.5.7 2 .5.5 1.2.8 2.1.8.6 0 1.1-.2 1.6-.5s.9-.7 1.2-1.2c.3-.5.6-1 .7-1.6.2-.6.2-1.1.2-1.6 0-.4-.1-.8-.2-1.1-.1-.4-.3-.7-.5-.9-.2-.3-.5-.5-.8-.6-.3-.2-.7-.2-1.2-.2-.6 0-1.2.2-1.7.5s-.9.7-1.2 1.2c-.3.5-.6 1-.7 1.6-.1.5-.2 1-.2 1.6zm11.1-6.2h1.6l-.4 1.5c.4-.5 1-1 1.6-1.3.6-.3 1.3-.5 2-.5.6 0 1.2.1 1.7.4.5.3.8.8.9 1.4.4-.6.9-1 1.5-1.3.6-.3 1.3-.5 2-.5.4 0 .7 0 1.1.1.3.1.7.2.9.4.3.2.5.4.6.7.2.3.2.7.2 1.1 0 .3 0 .6-.1 1s-.1.7-.2 1l-1.3 6.1h-1.7l1.4-6.5c0-.2.1-.3.1-.6v-.5c0-.4-.1-.7-.4-1-.3-.3-.7-.4-1.1-.4-.2 0-.5 0-.7.1-.2.1-.5.2-.7.3-.2.1-.4.3-.6.4-.2.2-.4.3-.5.5-.3.3-.5.7-.6 1.1l-.3 1.2-1.1 5.3h-1.7l1.2-5.8c.1-.4.2-.8.2-1.1.1-.3.1-.6.1-.7 0-.4-.1-.8-.4-1-.2-.2-.6-.4-1.1-.4-.2 0-.5 0-.7.1-.2.1-.5.2-.7.3-.2.1-.4.3-.6.4-.2.2-.4.3-.5.5-.4.3-.6.7-.7 1-.1.3-.3.8-.4 1.3l-1.1 5.4h-1.7l2.2-10z" fill="#231F20"/></g></svg>