<svg width="539" height="169" xmlns="http://www.w3.org/2000/svg"><g fill="none"><g fill="#0D88CA"><path d="M.9 168.2v-.8c5.1-7.6 12.7-13.1 19.8-19 7.1-5.8 13.8-12.1 21.1-17.7 10.7-8.3 21-17.5 30.4-27.8 4.4-4.8 8.8-8.5 10.8-15.2 4.5-.7 9.3-1.3 13.9-1.9 5.8 12.4 14.3 22 22.4 32.1v2.1c-.5 2.3-1.4 4.4-3.1 5.7-1.7 1.2-5.3 2.3-8 1.3-1.4-.6-3.5-3.8-4.6-5.3-4.3-5.4-9.6-12.3-12.6-17.3-11.6 13.3-24.9 26-39.6 37.5-12.7 10-26.8 18.1-42.9 24.9-2.3.8-6.5 3-7.6 1.4zm106.6-138h4.1c3.4-3.4 10.1-9.6 15.3-13-.9-.2-2-.3-3-.3H97.6c5.2 2.5 9 7.5 9.9 13.3z"/><path d="M83.9 117.6h12.3c-1.3-1.6-2.5-3.1-3.7-4.6-.7-.8-1.3-1.6-1.9-2.5l-6.7 7.1zm30-13.4h10.8V58.1c4.2-4.4 9.3-7.5 13.3-9.5v54.8c0 7.8-6.3 14-14 14h-.1l-10-13.2zm-49.3 0H50.7v-74h21.6c.9-5.8 4.8-10.8 10-13.3H51.4c-7.8 0-14 6.3-14 14v72.5c0 7.8 6.3 14 14 14h.2l13-13.2z"/></g><g transform="translate(60)" fill="#9DB33B"><path d="M118.6 1.2V2c-5.1 7.6-12.7 13.1-19.8 19-7.1 5.8-13.8 12.1-21.1 17.7C67 47 56.7 56.2 47.3 66.5c-4.4 4.8-8.8 8.5-10.8 15.2-4.5.7-9.3 1.3-13.9 1.9C16.8 71.2 8.3 61.6.2 51.5v-2.1c.5-2.3 1.4-4.4 3.1-5.7 1.7-1.2 5.3-2.3 8-1.3 1.4.6 3.5 3.8 4.6 5.3C20.2 53.1 25.5 60 28.5 65c11.6-13.3 24.9-26 39.6-37.5C80.8 17.5 94.9 9.4 111 2.6c2.2-.8 6.5-3 7.6-1.4z"/><circle cx="29.9" cy="33.1" r="14.6"/></g><path d="M154.5 79.1l11.9-1.2c.7 4.1 2.2 7 4.4 8.8 2.2 1.9 5.2 2.8 8.9 2.8 3.9 0 7-.8 8.9-2.5 2-1.6 3-3.6 3-5.9 0-1.4-.5-2.7-1.3-3.7s-2.3-1.9-4.4-2.7c-1.4-.5-4.8-1.4-9.8-2.7-6.6-1.6-11.2-3.6-13.9-6-3.7-3.4-5.6-7.4-5.6-12.3 0-3.1.9-6 2.7-8.7 1.8-2.7 4.3-4.8 7.6-6.1 3.4-1.4 7.3-2.1 11.9-2.1 7.6 0 13.3 1.6 17.3 5 3.8 3.4 5.9 7.8 6 13.4l-12.3.6c-.6-3.1-1.6-5.3-3.4-6.7-1.7-1.4-4.3-2.1-7.8-2.1-3.6 0-6.4.7-8.3 2.2-1.3.9-2 2.2-2 3.8 0 1.4.6 2.7 1.9 3.7 1.5 1.3 5.3 2.7 11.2 4.1 6 1.4 10.4 2.9 13.2 4.4 2.9 1.5 5.1 3.6 6.7 6.1 1.6 2.7 2.4 5.8 2.4 9.7 0 3.5-.9 6.7-2.9 9.7-2 3-4.6 5.3-8.2 6.8-3.6 1.5-8 2.2-13.2 2.2-7.6 0-13.6-1.7-17.7-5.3-4-3.4-6.6-8.5-7.2-15.3zm83.4 19.8v-6.6c-1.6 2.3-3.7 4.2-6.4 5.6-2.7 1.4-5.3 2.1-8.2 2.1-3 0-5.6-.7-8-2-2.3-1.3-4.1-3.1-5.1-5.4-1-2.3-1.6-5.6-1.6-9.7v-28h11.7v20.3c0 6.1.2 10 .7 11.4.5 1.4 1.2 2.5 2.3 3.4 1.2.8 2.5 1.3 4.3 1.3 2 0 3.8-.6 5.3-1.6 1.6-1 2.7-2.4 3.2-4.1.6-1.6.9-5.6.9-11.9V55h11.7v44h-10.9v-.1h.1zm27.9 0h-11.7v-44h10.8v6.3c1.9-3 3.5-4.9 5-5.8 1.5-.9 3.1-1.4 5-1.4 2.7 0 5.2.7 7.6 2.2l-3.6 10.2c-2-1.3-3.8-1.9-5.4-1.9-1.6 0-3 .5-4.2 1.4-1.2.9-2 2.5-2.7 4.9-.7 2.3-.9 7.3-.9 14.7l.1 13.4zm43.4-14l11.6 2c-1.5 4.3-3.8 7.5-7.1 9.7-3.3 2.2-7.3 3.4-12.1 3.4-7.6 0-13.3-2.5-17-7.5-2.9-4.1-4.4-9-4.4-15.2 0-7.3 1.9-13 5.7-17.2 3.8-4.2 8.7-6.3 14.5-6.3 6.6 0 11.7 2.2 15.5 6.5 3.8 4.3 5.6 11 5.4 19.9h-29.2c.1 3.5 1 6.1 2.8 8.1 1.9 2 4.1 2.9 6.7 2.9 1.9 0 3.4-.5 4.6-1.5 1.3-1 2.3-2.6 3-4.8zm.5-11.8c-.1-3.4-.9-5.9-2.7-7.6-1.6-1.7-3.7-2.7-6-2.7-2.5 0-4.6.9-6.3 2.8-1.6 1.9-2.4 4.4-2.4 7.5h17.4z" fill="#0D88CA"/><path d="M369.9 76.5l11.9 3.8c-1.9 6.6-4.9 11.6-9.2 14.8-4.3 3.2-9.6 4.9-16.1 4.9-8.1 0-14.7-2.8-19.9-8.2-5.2-5.6-7.8-13.1-7.8-22.6 0-10.1 2.7-18 7.9-23.5s12.1-8.3 20.6-8.3c7.4 0 13.4 2.2 18.1 6.6 2.8 2.5 4.9 6.4 6.3 11.2l-12.2 2.9c-.7-3.1-2.2-5.7-4.5-7.4-2.3-1.9-5.1-2.8-8.3-2.8-4.5 0-8.1 1.6-11 4.9-2.8 3.2-4.2 8.5-4.2 15.8 0 7.6 1.4 13.2 4.2 16.5 2.8 3.2 6.4 4.9 10.8 4.9 3.2 0 6-1 8.5-3.1 2.1-2.7 3.8-5.9 4.9-10.4zm28.4 22.4h-11.7v-44h10.8v6.3c1.9-3 3.5-4.9 5-5.8 1.5-.9 3.1-1.4 5-1.4 2.7 0 5.2.7 7.6 2.2l-3.6 10.2c-2-1.3-3.8-1.9-5.4-1.9-1.6 0-3 .5-4.2 1.4-1.2.9-2 2.5-2.7 4.9-.7 2.3-.9 7.3-.9 14.7l.1 13.4zm19.8-50V38.1h11.7v10.8h-11.7zm0 50v-44h11.7v44h-11.7zm40.6-44v9.3h-8v17.7c0 3.6.1 5.7.2 6.3.1.6.5 1 1 1.5.6.3 1.2.6 2 .6 1 0 2.7-.3 4.6-1.2l1 9c-2.7 1.2-5.8 1.7-9.2 1.7-2.1 0-3.9-.3-5.7-1-1.7-.7-2.9-1.6-3.7-2.8-.8-1.2-1.4-2.7-1.6-4.5-.2-1.4-.3-4.1-.3-8.2V64h-5.3v-9.3h5.3V46l11.7-6.8v15.5c.1.2 8 .2 8 .2zm5-6V38.1h11.7v10.8h-11.7zm0 50v-44h11.7v44h-11.7zm58-31L510.2 70c-.3-2.3-1.3-4.1-2.7-5.2-1.4-1.2-3.1-1.7-5.3-1.7-2.9 0-5.2 1-7 3-1.7 2-2.5 5.3-2.5 10.1 0 5.2.9 8.9 2.7 11.1 1.7 2.2 4.1 3.2 7.1 3.2 2.2 0 4.1-.6 5.4-1.9 1.4-1.3 2.4-3.5 3-6.5l11.5 2c-1.2 5.2-3.5 9.3-6.8 11.9-3.4 2.7-7.9 4.1-13.6 4.1-6.5 0-11.6-2.1-15.4-6.1-3.8-4-5.8-9.7-5.8-16.9 0-7.3 2-13 5.8-17s9-6 15.6-6c5.3 0 9.6 1.2 12.7 3.5 3.1 2 5.4 5.5 6.8 10.3z" fill="#9DB33B"/><path d="M532.3 53.7v.9h-1.7v4.5h-1v-4.5h-1.7v-.9h4.4zm5.9 5.5L538 56v-1.5h-.1c-.1.5-.3 1.2-.5 1.6l-1 3h-1.2l-1-3.1-.3-1.5h-.1V56l-.2 3.2h-1l.3-5.4h1.6l.9 2.7c.1.5.2.8.3 1.4.1-.5.2-.9.3-1.4l.9-2.7h1.6l.5 5.4h-.8z" fill="#56565A"/></g></svg>