<svg width="400" height="63" xmlns="http://www.w3.org/2000/svg"><g fill="none"><path d="M38.759 1.125c-.598.619-1.088 1.219-1.09 1.333-.001.115-.077.209-.169.209-.092 0-.167.15-.167.333 0 .183-.075.333-.166.333-.092 0-.167.114-.167.253 0 .138-.066.382-.147.541-.262.517-.494 1.775-.437 2.373.131 1.368.815 3.5 1.123 3.5.07 0 .128.085.128.189s.132.31.293.458c1.699 1.56 1.575 3.393-.31 4.603-.654.42-1.905 1.369-2.252 1.708-.21.207-.455.375-.543.375-.088 0-.186.058-.216.128-.089.204-1.574 1.372-1.744 1.372-.085 0-.263.15-.395.334-.132.183-.306.333-.387.333-.08 0-.346.214-.59.475a4.261 4.261 0 0 1-.942.736c-.31.17-.601.373-.866.608-.433.409-.924.448-1.217.096-.231-.279-1.577-.915-1.936-.915-.126 0-.229-.075-.229-.167 0-.091-.113-.166-.252-.166s-.401-.075-.583-.167l-.662-.333c-.182-.092-.557-.167-.834-.167-.276 0-.502-.068-.502-.152 0-.301-5.272-.643-5.555-.36-.098.098-.571.179-1.052.179-.48 0-.92.075-.976.166-.057.092-.324.167-.594.167-.269 0-.49.075-.49.167 0 .091-.183.166-.406.166-.224 0-.454.075-.51.167-.057.092-.286.167-.51.167-.224 0-.407.075-.407.166 0 .092-.12.167-.267.167-.322 0-1.899.865-1.899 1.042-.001.068-.104.125-.231.125-.335 0-1.58 1.26-1.682 1.704-.075.321-.061.662.06 1.512.029.204 28.789 28.905 29.167 29.107 1.052.563 3.172-.432 3.183-1.495.001-.14.152-.363.336-.495.183-.132.333-.336.333-.453 0-.118.075-.214.167-.214.091 0 .166-.15.166-.333 0-.183.075-.333.167-.333.092 0 .167-.15.167-.334 0-.183.075-.333.166-.333.092 0 .167-.141.167-.313 0-.172.123-.603.274-.958.319-.751.402-1.143.51-2.396.043-.504.147-.988.231-1.075.198-.206.198-3.925 0-3.925-.084 0-.192-.468-.24-1.041-.101-1.205-.102-1.208-.527-2.584-.177-.573-.38-1.041-.452-1.041-.071 0-.129-.15-.129-.334 0-.183-.057-.333-.126-.333-.07 0-.234-.244-.366-.542-.132-.298-.375-.687-.541-.864-.428-.461-.376-.779.241-1.458.813-.895 1.514-1.794 1.777-2.283.13-.24.448-.635.708-.878.261-.243.473-.488.473-.543 0-.056.225-.337.5-.625s.5-.579.5-.647c0-.069.225-.366.5-.66.275-.294.5-.6.5-.679 0-.079.263-.406.584-.727.32-.32.585-.642.588-.713.007-.202.926-1.165 1.303-1.367.597-.32 1.667-.22 2.086.194.209.207.589.525.844.709.256.183.564.427.685.541.134.12.303.194.482.209.144 0 .262.075.262.166 0 .092.145.167.323.167.178 0 .37.075.427.167.056.091.323.166.593.166.269 0 .49.075.49.167 0 .219 2.281.219 2.417 0 .056-.092.361-.167.676-.167.316 0 .574-.075.574-.166 0-.092.15-.167.333-.167.183 0 .333-.075.333-.167 0-.091.15-.166.334-.166.183 0 .333-.075.333-.167 0-.092.112-.167.25-.167.137 0 .25-.087.25-.194 0-.107.044-.15.099-.096.054.055.576-.379 1.16-.962C63.34 23 63.431 22.784 63.355 21.5c-.026-.438-1.397-2.069-1.582-1.884-.059.058-.107 0-.107-.13s-.225-.386-.499-.569c-.275-.184-.5-.389-.5-.457s-.788-.897-1.75-1.842c-.963-.945-1.75-1.707-1.75-1.693 0 .015-3.363-3.338-7.473-7.449L42.221 0h-2.375l-1.087 1.125m81.909 5.566c-.398.417-.501.673-.501 1.241 0 .393-.075.761-.167.818-.092.057-.167.511-.167 1.01s-.075.907-.166.907c-.092 0-.167.37-.167.823 0 .453-.06.861-.133.906-.074.046-.152.391-.174.768-.023.377-.11.867-.194 1.088-.084.221-.204 1.08-.266 1.909-.063.828-.178 1.506-.257 1.506-.078 0-.143.37-.143.823 0 .453-.075.87-.166.927-.092.056-.167.473-.167.926 0 .453-.075.824-.167.824-.091 0-.166.412-.166.916s-.075.917-.167.917c-.092 0-.167.36-.167.8 0 .44-.067.871-.15.958-.083.087-.193.496-.244.909a76.582 76.582 0 0 1-.522 3.333c-.044.229-.129.923-.188 1.542-.059.618-.173 1.125-.252 1.125-.079 0-.144.412-.144.916s-.075.917-.166.917c-.092 0-.167.371-.167.823 0 .453-.075.87-.167.927-.091.057-.166.511-.166 1.01s-.075.907-.167.907c-.092 0-.167.36-.167.8 0 .44-.067.871-.15.958-.083.087-.191.496-.241.908a45.47 45.47 0 0 1-.277 1.834c-.103.595-.219 1.271-.257 1.5-.039.229-.12.923-.179 1.541-.059.619-.173 1.125-.252 1.125-.079 0-.144.413-.144.917s-.075.917-.166.917c-.092 0-.167.412-.167.916s-.075.917-.167.917c-.091 0-.166.371-.166.823 0 .453-.075.87-.167.927-.092.057-.167.432-.167.833 0 .402-.075.777-.166.834-.241.148-.212 2.638.033 2.883.291.291 5.578.28 5.87-.012.116-.117.342-.511.502-.875.159-.365.358-.793.442-.952.084-.16.153-.403.153-.542s.075-.252.166-.252c.092 0 .167-.143.167-.317 0-.174.225-.744.5-1.267.275-.522.5-1.093.5-1.267 0-.174.075-.316.167-.316.091 0 .169-.131.172-.292.003-.16.115-.437.25-.615.134-.178.244-.459.244-.625 0-.166.059-.301.131-.301.071 0 .23-.338.351-.75.122-.413.289-.75.37-.75.082 0 .148-.15.148-.334 0-.183.075-.333.167-.333.092 0 .167-.15.167-.333 0-.184.056-.335.125-.336.068-.001.35-.487.625-1.079s.556-1.079.625-1.081c.068-.002.126-.136.128-.296.002-.16.151-.479.33-.708.179-.229.328-.469.33-.534.002-.064.219-.439.483-.833.264-.394.694-1.114.955-1.601.26-.486.607-1.026.77-1.201.162-.175.295-.389.295-.477 0-.088.058-.185.127-.215.182-.08 1.373-1.777 1.373-1.956 0-.083.244-.404.542-.715.298-.31.786-.872 1.085-1.249.485-.612 1.615-1.756 2.91-2.944.249-.229.605-.465.791-.524.187-.059.339-.177.339-.263 0-.085.146-.155.323-.155.178 0 .37-.075.427-.167.329-.532 2.083.371 2.083 1.072 0 .144.075.262.167.262.093 0 .167.444.167 1 0 .55-.062 1-.137 1-.075 0-.155.393-.176.875-.022.481-.11.946-.197 1.033-.086.087-.157.503-.157.925 0 .422-.068.838-.151.925-.084.087-.186.533-.228.992-.042.458-.123 1.021-.181 1.25-.057.229-.153.998-.213 1.708s-.172 1.292-.251 1.292c-.078 0-.143.412-.143.916s-.075.917-.166.917c-.092 0-.167.371-.167.823 0 .453-.075.87-.167.927-.091.057-.166.459-.166.893 0 .435-.069.862-.153.949-.288.299-.609 4.713-.361 4.961.099.099.18.465.18.814 0 .348.075.633.167.633.092 0 .167.171.167.38s.15.488.333.62c.183.132.333.332.333.445 0 .234 1.018 1.055 1.308 1.055.106 0 .192.059.192.13 0 .542 6.62.928 6.797.396.036-.106.269-.193.519-.193s.75-.139 1.111-.309c.361-.169.9-.413 1.198-.54.298-.128.542-.289.542-.358s.112-.126.25-.126c.137 0 .251-.056.252-.125.001-.069.298-.267.661-.441.363-.173.809-.455.991-.625.183-.17.41-.309.506-.309a.17.17 0 0 0 .173-.167c0-.452.662-.112.984.506.413.792 1.403 1.828 1.747 1.828.133 0 .267.059.297.133.33.788 5.994 1.412 6.672.734a.77.77 0 0 1 .475-.201c.151 0 .492-.104.758-.231.266-.128.784-.368 1.151-.534.366-.165.788-.436.936-.601.148-.165.36-.3.47-.3.11 0 .305-.094.433-.209.518-.464.736-.625.848-.625.165 0 3.092-3.002 3.396-3.483a5.8 5.8 0 0 1 .625-.782c.206-.212.375-.43.375-.484 0-.149.713-1.132 1.042-1.437.16-.148.291-.345.291-.438 0-.092.113-.262.25-.376a.77.77 0 0 0 .25-.52c0-.172.084-.313.185-.313.117 0 .15.199.09.542-.427 2.435-.532 5.261-.249 6.708.224 1.149 1.211 2.381 2.285 2.851.333.147.786.352 1.006.458.572.273 5.099.259 5.375-.017a.838.838 0 0 1 .516-.209c.17 0 .619-.15.998-.333.38-.183.789-.333.909-.333s.219-.061.219-.136c0-.074.262-.238.583-.364.321-.126.583-.279.583-.339 0-.061.3-.246.667-.411.367-.166.667-.365.667-.442 0-.078.106-.142.236-.142s.274-.093.32-.208c.046-.115.09.283.097.883.008.61.102 1.18.213 1.292.284.283 6.283.271 6.634-.014.377-.306 1.06-1.887.916-2.12-.049-.079-.012-.19.081-.248.093-.057.169-.283.169-.501 0-.219.075-.444.167-.5.092-.057.167-.286.167-.51 0-.224.075-.407.166-.407.092 0 .167-.183.167-.407 0-.224.075-.453.167-.51.091-.056.166-.286.166-.51 0-.223.075-.406.167-.406.092 0 .167-.182.167-.403 0-.222.057-.428.127-.458.07-.031.35-.731.622-1.556.272-.825.627-1.746.789-2.047.162-.3.295-.657.295-.791 0-.135.075-.245.167-.245.091 0 .166-.114.166-.253 0-.138.069-.382.153-.541.48-.914 1.014-2.194 1.014-2.431 0-.152.075-.275.167-.275.091 0 .166-.15.166-.334 0-.183.075-.333.167-.333.092 0 .167-.15.167-.333 0-.184.075-.334.166-.334.092 0 .167-.15.167-.333 0-.183.057-.333.126-.333s.232-.244.362-.542c.129-.298.284-.579.343-.625.06-.046.323-.552.585-1.125.262-.573.538-1.042.613-1.042.076 0 .138-.08.138-.178 0-.098.225-.505.5-.905s.5-.773.5-.829c0-.057.187-.29.416-.519.23-.23.417-.475.417-.546 0-.46 2.714-2.856 3.234-2.856.146 0 .266-.075.266-.167 0-.344.866-.152 1.316.292.84.83 1.062 3.303.609 6.792-.078.68-.143 1.36-.196 2.041-.06.757-.174 1.375-.253 1.375-.078 0-.143.333-.143.74 0 .408-.075.787-.166.844-.092.056-.167.469-.167.916 0 .448-.075.86-.167.917-.091.057-.166.432-.166.833 0 .402-.075.777-.167.834-.092.056-.167.473-.167.926 0 .453-.075.824-.166.824-.092 0-.167.36-.167.8 0 .44-.068.871-.151.958-.084.087-.192.533-.242.992-.048.445-.106.89-.173 1.333a36.12 36.12 0 0 0-.2 1.63c-.064.622-.18 1.17-.259 1.219-.242.15-.165 1.902.096 2.163.19.189.874.238 3.341.238 3.728 0 3.847-.058 4.148-2.038.025-.159.096-.34.159-.403s.114-.323.114-.577c0-.254.075-.509.167-.565.092-.057.167-.324.167-.594 0-.269.075-.49.166-.49.092 0 .167-.225.167-.5s.075-.5.167-.5c.091 0 .166-.183.166-.406 0-.224.075-.454.167-.51.092-.057.167-.286.167-.51 0-.224.075-.407.166-.407.092 0 .167-.173.167-.385 0-.212.159-.715.354-1.118.194-.403.392-1.017.438-1.365.047-.347.15-.632.23-.632.08 0 .145-.15.145-.333 0-.184.075-.334.166-.334.092 0 .167-.187.167-.416 0-.229.075-.417.167-.417.091 0 .166-.114.166-.252 0-.139.075-.402.167-.584l.333-.662c.092-.182.167-.444.167-.583 0-.139.06-.252.134-.252.073 0 .274-.394.446-.875.171-.482.46-1.138.642-1.459.181-.321.487-.883.679-1.25.192-.366.386-.704.432-.75.046-.046.253-.41.46-.809.705-1.362.957-1.774 1.249-2.044.16-.148.291-.364.291-.48 0-.116.132-.332.294-.48.161-.149.516-.57.788-.937.993-1.337 2.56-2.583 3.248-2.583.185 0 .337-.075.337-.167 0-.387 1.136-.162 1.663.33l.531.496-.087 2.046c-.098 2.289-.458 5.371-.649 5.56-.068.068-.125.486-.125.929 0 .443-.075.806-.166.806-.092 0-.167.412-.167.917 0 .504-.075.916-.167.916-.091 0-.166.371-.166.824 0 .453-.075.87-.167.926-.092.057-.167.474-.167.927 0 .453-.075.823-.166.823-.092 0-.167.371-.167.824 0 .453-.064.863-.143.912-.364.225-.617 4.722-.338 6.014.214.989.513 1.75.688 1.75.07 0 .126.094.127.209 0 .28.739 1.125.984 1.125.108 0 .357.15.554.333.197.183.478.333.626.333.148 0 .358.09.468.2.499.499 5.429.212 6.573-.383.16-.082.403-.15.542-.15s.252-.075.252-.167c0-.091.098-.166.217-.166.307 0 1.114-.392 1.115-.542.001-.069.114-.125.252-.125.137 0 .25-.075.25-.167 0-.091.15-.166.333-.166.183 0 .333-.07.333-.156 0-.085.169-.206.375-.269.207-.062.525-.251.709-.418.33-.303.333-.297.276.692-.087 1.522-.18 1.484 3.632 1.484 3.633 0 4.008-.113 4.008-1.209 0-.241.075-.484.167-.541.092-.057.167-.249.167-.427 0-.426.057-.412.702.171 1.114 1.006 1.559 1.349 2.006 1.549.252.113.458.262.458.331s.114.126.253.126c.138 0 .382.066.541.146 1.124.568 3.903.813 5.956.526 2.402-.335 2.584-.372 2.584-.523 0-.082.225-.149.5-.149s.5-.075.5-.167c0-.091.11-.166.245-.166.134 0 .528-.161.875-.357.346-.197.967-.546 1.38-.778.412-.231.973-.576 1.246-.768.669-.468 3.42-3.233 3.42-3.438 0-.089.207-.379.459-.644s.683-.938.958-1.496c.275-.558.556-1.015.625-1.017.069-.001.125-.148.125-.326 0-.178.075-.37.167-.426.091-.057.166-.249.166-.427s.075-.323.167-.323c.092 0 .167-.114.167-.253 0-.138.066-.382.147-.541.533-1.047 1.019-3.012 1.019-4.116 0-.416.075-.757.167-.757.097 0 .167-.552.167-1.323 0-.728.075-1.37.166-1.427.22-.136.22-3.864 0-4-.091-.057-.166-.582-.166-1.167 0-.585-.065-1.104-.145-1.153-.08-.049-.196-.472-.258-.941-.062-.468-.18-.976-.262-1.129-.23-.449-.455-.9-.674-1.354-.289-.592-.669-1.201-.844-1.353-.174-.151-.318-.342-.319-.423-.001-.08-.207-.312-.458-.515a44.468 44.468 0 0 1-1.04-.874c-.321-.279-.677-.507-.792-.507-.115 0-.208-.076-.208-.167 0-.092-.104-.167-.231-.167s-.446-.112-.709-.249a2.635 2.635 0 0 0-1.019-.25c-.298-.001-.541-.076-.541-.168 0-.091-.371-.166-.824-.166-.453 0-.87-.075-.926-.167-.136-.219-2.417-.219-2.417 0 0 .093-.444.167-1 .167-.55 0-1 .064-1 .143 0 .079-.358.186-.795.238-.741.087-2.886 1.029-3.011 1.321-.03.072-.134.131-.23.131s-.297.131-.446.292c-.263.282-.924.708-1.099.708-.047 0-.086-.3-.086-.667 0-.366.075-.666.167-.666.092 0 .167-.371.167-.824 0-.453.075-.87.166-.926.092-.057.167-.459.167-.894 0-.434.068-.861.151-.948.084-.087.186-.533.228-.992.042-.458.125-1.02.185-1.25.06-.229.157-.998.214-1.708.058-.71.169-1.292.247-1.292.078 0 .142-.412.142-.916 0-.505.075-.917.166-.917.092 0 .167-.371.167-.823 0-.453.075-.87.167-.927.091-.057.166-.432.166-.833 0-.402.075-.777.167-.834.092-.056.167-.506.167-1 0-.493.075-.943.166-1 .317-.196.188-1.276-.192-1.605-.62-.538-7.121-.468-7.716.083-.234.217-.425.55-.425.74 0 .19-.059.383-.132.427-.072.045-.149.368-.171.719-.022.35-.111.861-.197 1.136-.087.275-.16.65-.162.834-.011.998-.23 2.583-.357 2.583-.081 0-.148.371-.148.823 0 .453-.075.87-.166.927-.092.057-.167.474-.167.927 0 .452-.075.823-.167.823-.091 0-.166.412-.166.917 0 .504-.075.916-.167.916-.092 0-.167.371-.167.824 0 .453-.065.864-.145.913-.081.05-.191.486-.246.969-.076.629-.17 1.255-.284 1.878-.278 1.508-.312 1.739-.429 2.958-.059.619-.159 1.125-.222 1.125s-.132.394-.153.875c-.022.481-.11.9-.197.931-.086.03-.157.409-.157.841 0 .433-.068.858-.151.945-.084.087-.193.533-.244.991-.187 1.689-.294 2.341-.438 2.667-.082.183-.186.633-.233 1-.08.585-.17 1.168-.27 1.75-.102.596-.218 1.271-.256 1.5-.039.229-.12.925-.179 1.546-.06.621-.173 1.17-.252 1.218-.079.049-.144.46-.144.913 0 .452-.075.823-.166.823-.092 0-.167.413-.167.917s-.075.916-.167.916c-.091 0-.166.371-.166.824 0 .453-.075.87-.167.926-.092.057-.167.44-.167.851 0 .676-.081.829-.833 1.582-.458.458-.833.785-.833.725 0-.059-.267.05-.593.243-.326.192-.701.349-.834.349-.132 0-.24.075-.24.167 0 .092-.225.167-.5.167s-.5.075-.5.166c0 .092-.267.167-.593.167-.353 0-.552-.067-.49-.167.058-.095-.088-.166-.342-.166-.425 0-1.215-.735-1.117-1.039.023-.07-.033-.128-.125-.128-.095 0-.166-.5-.166-1.167 0-.666.071-1.166.166-1.166.092 0 .167-.408.167-.907 0-.499.066-.948.146-.997.08-.05.195-.523.255-1.052.06-.528.145-1.148.188-1.378.042-.229.125-.96.183-1.625.058-.664.171-1.208.25-1.208.08 0 .145-.333.145-.74s.075-.787.166-.843c.092-.057.167-.511.167-1.01s.075-.907.167-.907c.091 0 .166-.397.166-.883s.069-.955.153-1.042c.327-.34.64-6.81.338-6.997-.086-.054-.157-.341-.157-.638 0-.566-.328-1.436-.542-1.439-.069 0-.125-.151-.125-.334 0-.184-.062-.334-.139-.334-.076 0-.239-.189-.363-.421-.306-.57-1.613-1.412-2.193-1.412-.26 0-.472-.075-.472-.167 0-.091-.408-.166-.906-.166-.499 0-.954-.075-1.01-.167-.135-.217-1.75-.217-1.75 0 0 .094-.473.167-1.084.167-.596 0-1.083.065-1.083.144 0 .08-.317.188-.705.24-.387.052-.731.174-.764.272-.032.097-.203.177-.378.177-.176 0-.32.075-.32.167 0 .091-.15.166-.333.166-.183 0-.333.07-.333.156 0 .085-.141.2-.314.255-.172.054-.466.228-.652.386s-.626.522-.978.811c-.977.8-2.723 2.606-2.723 2.816 0 .044-.225.315-.5.603-.275.287-.5.624-.5.748s-.074.225-.163.225c-.09 0-.211.188-.269.417-.057.229-.162.417-.233.417-.07 0-.221.225-.335.5-.114.275-.273.5-.354.5-.08 0-.146.15-.146.333 0 .183-.066.333-.148.333-.081 0-.287.282-.458.625l-.311.625-.045-2.958c-.028-1.783-.11-2.958-.209-2.958-.089 0-.162-.226-.162-.503 0-.276-.064-.632-.142-.791-.079-.159-.284-.582-.457-.939-.545-1.128-1.814-2.213-2.776-2.373-.344-.057-.625-.169-.625-.249 0-.08-.446-.145-.99-.145-.545 0-1.037-.075-1.094-.167-.133-.216-.866-.216-1 0-.056.092-.544.167-1.083.167-.539 0-1.027.075-1.083.166-.057.092-.258.167-.446.167-.413 0-1.948.797-2.324 1.206-.148.162-.313.294-.367.294-.248 0-2.047 1.86-2.741 2.833-.424.596-.832 1.109-.905 1.139-.074.031-.134.183-.134.338 0 .156-.15.391-.333.523-.184.132-.334.368-.334.523 0 .156-.056.308-.125.338-.109.049-.477.758-1.217 2.348-.257.55-.58.616-.411.083.065-.206.191-.825.28-1.375.089-.55.194-1.187.232-1.417.039-.229.12-.925.179-1.546.06-.621.173-1.169.252-1.218.079-.049.144-.459.144-.912s.075-.824.166-.824c.092 0 .167-.3.167-.666 0-.367-.075-.667-.167-.667-.091 0-.166-.113-.166-.25 0-.215-.521-.249-3.709-.245-3.933.006-4.291.072-4.291.795 0 .191-.075.393-.167.45-.092.057-.167.432-.167.833 0 .402-.075.777-.166.834-.092.056-.167.458-.167.893 0 .434-.068.861-.151.948-.082.087-.195.515-.25.95l-.198 1.584c-.055.435-.168.863-.25.95-.083.087-.151.514-.151.948 0 .435-.075.837-.167.893-.091.057-.166.394-.166.749 0 .356-.072.836-.161 1.068-.088.231-.211 1.099-.273 1.927-.063.829-.178 1.506-.257 1.506-.078 0-.143.375-.143.834 0 .458-.075.833-.166.833-.092 0-.167.412-.167.917 0 .504-.075.916-.167.916-.091 0-.166.371-.166.824 0 .453-.075.87-.167.926-.092.057-.167.432-.167.834 0 .401-.075.776-.166.833-.092.057-.167.511-.167 1.01s-.075.907-.167.907c-.091 0-.166.198-.166.44 0 .479-.82 1.393-1.249 1.393-.138 0-.251.075-.251.167 0 .091-.098.166-.217.166s-.304.088-.411.195c-.252.252-1.349.633-1.831.636-.206.002-.375.078-.375.169 0 .092-.225.167-.5.167s-.5-.07-.5-.155c0-.085-.166-.179-.369-.208-.695-.101-1.167-1.082-1.067-2.22.157-1.779.299-2.664.452-2.825.083-.087.151-.504.151-.925 0-.422.068-.838.151-.925.084-.087.186-.534.228-.992.042-.458.123-1.021.181-1.25.057-.229.153-.998.213-1.708.06-.711.172-1.292.251-1.292.078 0 .143-.371.143-.823 0-.453.075-.87.166-.927.092-.057.167-.474.167-.927 0-.452.062-.823.137-.823.075 0 .155-.391.176-.87.022-.478.103-.947.179-1.042.134-.165.248-.861.446-2.713.051-.481.161-.875.244-.875.083 0 .151-.342.151-.761 0-.418.075-.9.165-1.069.282-.526.418-3.62.173-3.915-.175-.21-.701-.255-3.017-.255-3.035 0-3.528.106-3.798.813-.289.756-.689 2.307-.689 2.671 0 .192-.075.349-.167.349-.092 0-.167.221-.167.49 0 .27-.075.537-.166.594-.092.056-.167.248-.167.426s-.075.324-.167.324c-.091 0-.166.225-.166.5s-.075.5-.167.5c-.092 0-.167.187-.167.416 0 .23-.075.417-.166.417-.092 0-.167.146-.167.323 0 .178-.075.37-.167.427-.091.057-.166.237-.166.401 0 .272-.281.986-.678 1.722-.085.159-.156.44-.156.625 0 .184-.061.335-.135.335-.075 0-.239.263-.365.584-.126.32-.29.583-.364.583-.075 0-.136.114-.136.252 0 .291-.338.94-.583 1.12-.092.068-.112.124-.046.125.066.002-.102.381-.375.844-.273.462-.496.912-.496 1a.164.164 0 0 1-.166.159c-.092 0-.167.15-.167.333 0 .184-.065.334-.144.334-.078 0-.322.337-.541.75-.219.412-.437.75-.485.75-.048 0-.229.262-.402.583-.172.321-.377.583-.454.583-.077 0-.141.102-.141.226 0 .124-.206.442-.458.708-.252.266-.758.858-1.125 1.316-.775.969-2.399 2.584-2.598 2.584-.075 0-.324.187-.554.416-.229.23-.495.417-.59.417-.096 0-.175.056-.176.125-.002.15-.809.542-1.115.542-.119 0-.217.075-.217.166 0 .335-1.906.196-2.16-.157-.129-.179-.284-.294-.345-.256-.148.091-.695-1.899-.574-2.093.119-.194.213-.888.351-2.619.061-.756.174-1.375.253-1.375.078 0 .142-.375.142-.833 0-.458.075-.833.166-.833.092 0 .167-.371.167-.824 0-.453.075-.87.167-.926.091-.057.166-.511.166-1.01s.068-.907.151-.907c.083 0 .191-.356.241-.792.05-.435.167-1.204.26-1.708s.247-1.367.341-1.917c.094-.55.242-1.375.329-1.833.087-.458.163-1.185.168-1.615.006-.43.085-.828.177-.885.092-.057.167-.474.167-.927 0-.452.075-.823.166-.823.092 0 .167-.371.167-.823 0-.453.075-.87.167-.927.254-.157.199-.879-.103-1.339l-.269-.411-3.606.005c-4.345.007-4.522.089-4.522 2.089 0 .407-.075.739-.167.739-.092 0-.167.413-.167.917s-.075.917-.166.917c-.092 0-.167.37-.167.823 0 .453-.075.87-.167.927-.091.056-.166.469-.166.916 0 .448-.075.86-.167.917-.092.057-.167.469-.167.917 0 .447-.075.86-.166.916-.092.057-.167.398-.167.758 0 .6-.114 1.231-.513 2.833-.08.325-.197 1.244-.258 2.042-.061.798-.175 1.451-.254 1.451-.078 0-.142.37-.142.823 0 .453-.075.87-.166.927-.092.056-.167.469-.167.916 0 .448-.075.86-.167.917-.091.057-.166.796-.166 1.643 0 .918-.076 1.616-.188 1.728-.131.131-.137.33-.022.66.167.48-.039.886-.45.886-.096 0-.174.066-.174.147 0 .082-.281.274-.625.427-.343.153-.913.424-1.265.602-2.483 1.253-4.884-.617-3.949-3.076.088-.232.211-1.099.273-1.928.063-.828.178-1.506.257-1.506.078 0 .143-.37.143-.823 0-.453.075-.87.166-.927.092-.056.167-.473.167-.926 0-.453.075-.824.167-.824.091 0 .166-.412.166-.916 0-.505.075-.917.167-.917.092 0 .167-.413.167-.917s.075-.916.166-.916c.092 0 .167-.36.167-.8 0-.44.068-.872.151-.959.082-.087.188-.496.235-.908.047-.413.174-1.425.284-2.25.268-2.017.122-4.841-.293-5.69-.662-1.355-1.68-2.56-2.162-2.56-.118 0-.215-.074-.215-.165 0-.09-.3-.212-.667-.271-.366-.059-.666-.172-.666-.252 0-.08-.333-.145-.74-.145-.408 0-.787-.075-.844-.167-.056-.092-.736-.167-1.51-.167-.826 0-1.406.069-1.406.167 0 .092-.338.167-.75.167-.413 0-.75.075-.75.166 0 .092-.213.167-.473.167-.259 0-.528.056-.597.125a.52.52 0 0 1-.236.139c-.201.026-.776.293-.861.399-.046.057-.365.235-.709.395-.344.16-.809.475-1.034.7-.225.225-.453.409-.506.409-.191 0-4.084 3.73-4.084 3.913 0 .086-.257.416-1.042 1.341-.252.297-.458.607-.458.689 0 .082-.15.258-.334.39-.183.132-.333.357-.333.5 0 .143-.15.368-.333.5-.184.132-.334.296-.334.364 0 .069-.225.479-.5.913-.275.433-.5.666-.5.515 0-.15.075-.319.167-.375.092-.057.167-.474.167-.927 0-.453.075-.823.166-.823.092 0 .167-.413.167-.917s.068-.917.151-.917c.082 0 .193-.356.245-.791.257-2.14.314-2.47.453-2.617.083-.087.151-.503.151-.925 0-.422.068-.838.151-.925.084-.087.194-.533.245-.992.253-2.254.533-4.069.646-4.181.068-.068.125-.487.125-.93 0-.443.075-.805.166-.805.092 0 .167-.413.167-.917s.075-.917.167-.917c.091 0 .166-.37.166-.823 0-.453.075-.87.167-.927.092-.056.167-.473.167-.926 0-.453.061-.824.137-.824.075 0 .154-.392.176-.871.022-.479.1-.91.173-.958.074-.048.178-.462.233-.921.124-1.052.272-2.076.359-2.476.08-.373-.189-1.135-.464-1.309-.109-.07-1.753-.127-3.655-.129l-3.456-.002-.502.524m254.08-.355c-.057.093-.172.128-.254.077-.247-.152-.676 1.093-.778 2.254-.052.595-.16 1.108-.239 1.139-.079.03-.144.419-.144.865 0 .445-.075.856-.166.912-.092.057-.167.469-.167.917 0 .448-.075.86-.167.917-.091.056-.166.473-.166.926 0 .453-.075.824-.167.824-.092 0-.167.37-.167.823 0 .453-.075.87-.166.927-.092.056-.167.458-.167.893 0 .434-.068.861-.151.948-.084.087-.188.534-.231.992-.044.458-.119.983-.166 1.167-.047.183-.14.916-.207 1.628-.067.713-.187 1.336-.267 1.385-.079.049-.145.498-.145.997 0 .498-.075.906-.166.906-.092 0-.167.371-.167.824 0 .453-.075.87-.167.926-.091.057-.166.432-.166.834 0 .401-.075.776-.167.833-.092.057-.167.469-.167.917 0 .447-.075.86-.166.916-.092.057-.167.459-.167.894 0 .434-.068.861-.151.948-.082.087-.189.496-.237.908-.049.413-.211 1.575-.362 2.584a72.77 72.77 0 0 0-.361 2.708c-.048.482-.155.834-.238.782-.083-.051-.151.317-.151.823 0 .504-.075.963-.167 1.02-.091.057-.166.38-.166.719 0 .576-.861 1.698-1.302 1.698-.069 0-.233.15-.365.333-.132.183-.365.333-.516.333-.152 0-.37.113-.484.25-.114.138-.299.25-.411.25-.112 0-.34.15-.506.334-.166.183-.402.333-.525.333-.124 0-.225.075-.225.167 0 .091-.15.166-.333.166-.183 0-.333.07-.333.156s-.263.251-.584.367c-.321.116-.583.271-.583.344 0 .073-.12.133-.266.133-.249 0-1.108.33-1.773.681-.16.084-.403.153-.542.153s-.252.075-.252.166c0 .092-.183.167-.407.167-.224 0-.453.075-.51.167-.057.091-.357.166-.667.166-.31 0-.61.075-.666.167-.057.092-.474.167-.927.167-.453 0-.823.075-.823.166 0 .226-6.111.226-6.25 0-.057-.091-.399-.166-.76-.166S347 49.092 347 49c0-.092-.11-.167-.245-.167-.301 0-1.953-.894-2.385-1.291-.125-.115-.288-.209-.363-.209-.075 0-.268-.281-.429-.625-.162-.343-.339-.662-.394-.708-.222-.184-.517-.849-.517-1.164 0-.185-.075-.336-.167-.336-.092 0-.167-.334-.167-.742s-.089-.939-.199-1.179c-.139-.305-.147-.521-.028-.716.094-.154.19-.766.213-1.361.022-.595.1-1.12.173-1.167.072-.047.172-.348.221-.668.148-.965 1.029-3.607 1.279-3.834.051-.046.198-.289.328-.541.13-.252.299-.459.375-.459.076 0 .138-.11.138-.245 0-.215.873-1.285 1.692-2.073.553-.534 1.316-1.182 1.39-1.182.042 0 .472-.18.955-.401 1.389-.635 3.214-.935 3.858-.635.196.091.674.261 1.064.377.389.117.708.271.708.341 0 .071.137.173.305.226.654.208 1.028 1.538 1.028 3.658 0 1.475.059 2.017.238 2.196.291.29 6.929.359 6.929.072 0-.092.103-.167.23-.167.126 0 .32-.244.43-.542.111-.298.27-.672.354-.831.21-.398.198-3.627-.014-3.627-.092 0-.169-.319-.171-.708-.005-.768-.67-2.419-1.337-3.322-.482-.652-1.919-2.137-2.069-2.137-.057 0-.265-.15-.461-.333-.197-.183-.457-.333-.577-.333-.12 0-.218-.075-.218-.167 0-.092-.144-.167-.32-.167-.175 0-.344-.056-.375-.125-.091-.204-1.681-.71-2.23-.709-.28.001-.58-.069-.667-.154-.087-.085-.796-.19-1.575-.233-.779-.042-1.66-.131-1.958-.197-.359-.079-.542-.057-.542.066s-.531.186-1.583.186c-.871 0-1.584.064-1.584.143 0 .079-.423.187-.94.24-.517.054-1.02.177-1.117.274-.097.097-.344.176-.549.176-.206 0-.42.075-.477.167-.057.091-.249.166-.427.166-.177 0-.323.061-.323.136 0 .074-.262.238-.583.364-.321.126-.584.29-.584.365 0 .074-.133.135-.296.135-.163 0-.405.15-.537.334-.132.183-.334.333-.448.333-.114 0-.47.262-.791.583-.321.321-.643.584-.715.584-.073 0-.507.426-.964.947a42.8 42.8 0 0 1-1.207 1.326c-.206.208-.375.478-.375.599s-.146.326-.324.455c-.179.128-.292.286-.252.351.04.064-.039.21-.176.323-.136.113-.248.309-.248.436 0 .126-.056.23-.125.231-.069.001-.264.32-.435.709-.17.388-.377.836-.458.995-.082.16-.149.403-.149.542s-.075.252-.166.252c-.092 0-.167.151-.167.336 0 .185-.075.485-.167.667l-.333.662c-.104.233-.16.485-.167.74 0 .225-.075.455-.166.512-.092.057-.167.357-.167.667 0 .31-.066.604-.146.653-.376.233-.581 6.9-.279 9.098l.126.918-.824.832c-.867.874-2.373 1.756-2.992 1.751-.201-.001-.412.073-.468.164-.135.217-1.084.217-1.084 0 0-.091-.099-.166-.221-.166-.671 0-.945-.718-.945-2.469 0-1.021.066-1.698.166-1.698.092 0 .167-.413.167-.917s.075-.916.167-.916c.091 0 .166-.333.166-.739 0-.407.072-.928.159-1.157.088-.23.206-1.004.263-1.72.057-.715.168-1.451.248-1.634.135-.312.193-.653.435-2.584.052-.412.162-.821.245-.908.083-.087.15-.514.15-.948 0-.435.075-.837.167-.894.092-.056.167-.511.167-1.01 0-.498.067-.906.15-.906.083 0 .192-.357.241-.792.05-.435.17-1.242.268-1.792a60.7 60.7 0 0 0 .371-2.625c.107-.893.256-1.625.332-1.625.076 0 .138-.3.138-.666 0-.367-.075-.667-.167-.667-.092 0-.167-.113-.167-.25 0-.214-.487-.25-3.387-.25-4.033 0-4.07.016-4.235 1.839l-.094 1.036-.305-.396c-.168-.217-.306-.455-.308-.528-.006-.198-.795-.951-.996-.951a.172.172 0 0 1-.175-.167c0-.091-.085-.166-.188-.166-.104 0-.311-.135-.459-.3-.363-.405-1.387-.867-1.92-.867-.238 0-.433-.075-.433-.167 0-.094-.469-.166-1.073-.166-.591 0-1.12-.075-1.177-.167-.134-.217-1.199-.217-1.333 0-.057.092-.732.167-1.5.167s-1.437.064-1.485.143c-.049.078-.495.184-.992.236-1.392.143-4.252 1.522-5.375 2.591-.127.121-.231.169-.231.107 0-.062-.218.12-.484.405-.266.285-.538.518-.605.518-.181 0-.72.659-.834 1.019-.055.173-.169.314-.254.314-.233 0-1.157 1.018-1.157 1.275 0 .124-.066.225-.147.225-.082 0-.288.27-.459.599l-.475.917c-.09.175-.222.317-.292.317-.069 0-.127.15-.127.334 0 .183-.075.333-.166.333-.092 0-.167.15-.167.333 0 .184-.075.334-.167.334-.091 0-.166.187-.166.416 0 .23-.075.417-.167.417-.092 0-.167.15-.167.333 0 .184-.075.334-.166.334-.092 0-.167.225-.167.5s-.075.5-.167.5c-.091 0-.166.192-.166.427s-.076.57-.169.743c-.092.173-.216.768-.273 1.322-.058.554-.17 1.008-.249 1.008-.078 0-.143.445-.143.99 0 .544-.075 1.036-.166 1.093-.099.061-.167 1.082-.167 2.5s.068 2.439.167 2.5c.615.38-.097 2.75-.826 2.75a.17.17 0 0 0-.174.167c0 .091-.113.166-.25.166-.138 0-.25.075-.25.167 0 .092-.113.167-.25.167-.138 0-.25.057-.25.127 0 .152-1.235.706-1.575.706-.131 0-.285.075-.342.167-.057.091-.286.166-.51.166-.224 0-.407.075-.407.167 0 .092-.412.167-.916.167-.505 0-.917.075-.917.166 0 .092-.3.167-.667.167-.366 0-.666-.075-.666-.167 0-.091-.191-.166-.424-.166-.51 0-1.743-1.081-1.743-1.527 0-.169-.075-.307-.167-.307-.209 0-.223-2.373-.016-2.591.083-.087.191-.496.241-.909.05-.412.174-1.237.277-1.833.103-.596.219-1.271.257-1.5.039-.229.12-.923.179-1.542.059-.618.173-1.125.252-1.125.079 0 .144-.412.144-.916 0-.505.075-.917.166-.917.092 0 .167-.413.167-.917s.068-.916.151-.916c.083 0 .194-.394.246-.875.24-2.208.312-2.625.452-2.625.083 0 .151-.413.151-.917s.075-.917.167-.917c.091 0 .166-.262.166-.583v-.583h8.545l.394-.459c.228-.265.394-.672.394-.966.001-.28.069-.58.152-.667.083-.087.195-.571.249-1.075.053-.504.124-1.104.156-1.333.161-1.137.039-1.167-4.776-1.167-3.381 0-4.303-.044-4.147-.2.11-.11.2-.518.2-.907s.075-.753.167-.81c.091-.056.166-.469.166-.916 0-.448.075-.86.167-.917.092-.057.167-.459.167-.893 0-.435.067-.862.15-.949.083-.087.192-.496.242-.908.051-.413.165-1.162.254-1.667.491-2.779.568-3.682.348-4.093l-.217-.407h-3.613c-3.832 0-4.331.102-4.331.885 0 .144-.075.309-.167.365-.091.057-.166.511-.166 1.01s-.066.907-.146.907c-.081 0-.192.394-.247.875a28.95 28.95 0 0 1-.276 1.792c-.097.504-.248 1.329-.335 1.833-.088.504-.231 1.292-.318 1.75-.087.458-.163 1.19-.168 1.625-.006.435-.085.792-.177.792-.092 0-.167.187-.167.416v.417l-2.708.005c-3.211.007-3.436.118-3.691 1.828-.614 4.111-.812 3.834 2.737 3.834 2.551 0 2.662.014 2.662.333 0 .183-.075.333-.166.333-.092 0-.167.36-.167.8 0 .44-.068.872-.151.959-.084.087-.188.533-.231.991-.044.459-.119.984-.166 1.167-.047.183-.14.916-.207 1.629-.067.712-.187 1.335-.267 1.384-.079.05-.145.456-.145.904 0 .447-.075.86-.166.916-.092.057-.167.459-.167.894 0 .434-.068.861-.151.948-.141.149-.19.42-.445 2.492-.057.458-.171.904-.253.991-.083.087-.151.504-.151.925 0 .422-.085.852-.189.956-.511.511-.149 6.711.392 6.711.072 0 .13.15.13.333 0 .184.075.334.167.334.092 0 .167.106.167.236 0 .129.234.448.52.708.287.26.675.641.864.847.188.207.407.375.486.375.079 0 .305.15.501.334.197.183.519.333.716.333.196 0 .409.051.471.114.539.539 4.355.873 6.358.557 2.042-.323 2.25-.371 2.25-.523 0-.081.135-.148.3-.148.373 0 1.197-.373 1.199-.542.001-.068.151-.125.335-.125.183 0 .333-.075.333-.166 0-.092.15-.167.333-.167.184 0 .335-.056.336-.125.001-.069.319-.275.708-.458.388-.183.852-.464 1.029-.625.178-.161.381-.292.451-.292s.303-.169.518-.375c.467-.449 1.613-1.353 1.815-1.431.079-.03.143.064.143.209s.075.264.167.264c.092 0 .167.111.167.248 0 .42 1.915 2.578 2.291 2.582.115.002.209.059.209.128s.356.302.791.517c.436.215.922.459 1.081.541.16.083.426.15.592.15.166 0 .396.094.511.209.295.295 5.588.295 5.883 0 .115-.115.411-.209.659-.209.248 0 .777-.16 1.175-.356 1.425-.702 2.059-1.037 2.141-1.131.096-.111.546-.394 1.226-.774.262-.146.823-.612 1.245-1.035l.769-.768.101.49c.631 3.056 3.944 4.644 8.159 3.913.542-.095 1.083-.189 1.625-.282.298-.051.542-.16.542-.242 0-.081.113-.148.251-.148.316 0 1.813-.688 1.888-.867.03-.073.199-.133.375-.133.175 0 .319-.061.319-.136 0-.074.244-.262.542-.415.836-.433 1.161-.661 1.645-1.157.246-.252.521-.459.611-.459.09 0 .428-.272.751-.604l.587-.605.256.48c.473.889 2.394 2.563 2.94 2.563.092 0 .168.075.168.166 0 .092.15.167.333.167.184 0 .334.075.334.167 0 .091.15.166.333.166.183 0 .333.075.333.167 0 .092.183.167.407.167.224 0 .453.075.51.166.057.092.282.167.5.167.218 0 .438.067.489.149.326.528 7.734.842 9.479.403.201-.051.647-.129.991-.173.345-.045.668-.148.719-.23.05-.082.276-.149.501-.149.394 0 .546-.053 1.36-.474.205-.106.562-.193.792-.193.23 0 .419-.075.419-.166 0-.092.15-.167.333-.167.184 0 .334-.075.334-.167 0-.091.131-.169.291-.172.161-.003.438-.115.616-.25.177-.134.459-.244.625-.244.165 0 .301-.075.301-.167 0-.092.15-.167.333-.167.184 0 .334-.056.334-.126 0-.069.211-.219.468-.333.258-.114.63-.358.827-.541.196-.183.445-.333.553-.333.108 0 .336-.161.507-.359.171-.197.311-.305.311-.238 0 .066.218-.035.484-.225.267-.19.55-.345.63-.345.08 0 .254-.15.386-.333.132-.183.33-.333.44-.333.109 0 .411-.225.671-.5.768-.815.9-.681.778.791-.058.711-.17 1.317-.247 1.348-.078.03-.142.419-.142.865 0 .445-.075.856-.166.912-.241.149-.195 1.282.065 1.625.199.263.587.291 3.87.287 3.892-.006 4.098-.046 4.206-.828.031-.229.125-.442.208-.473.083-.03.151-.409.151-.841 0-.433.067-.858.15-.945.144-.151.249-.773.454-2.7.051-.481.161-.875.244-.875.084 0 .152-.412.152-.916s.075-.917.166-.917c.092 0 .167-.36.167-.8 0-.44.068-.871.151-.958.084-.087.19-.534.238-.992.267-2.591.42-2.864 2.542-4.542.609-.481.664-.474.929.125.122.275.264.5.316.5.052 0 .198.263.324.584.126.32.29.583.364.583.075 0 .136.112.136.25 0 .137.075.25.167.25.091 0 .166.15.166.333 0 .184.075.334.167.334.092 0 .167.114.167.253s.187.55.416.913c.23.363.417.737.417.83 0 .094.075.17.167.17.091 0 .166.15.166.334 0 .183.061.333.136.333.074 0 .238.262.364.583.126.321.29.584.365.584.074 0 .135.111.135.248 0 .136.132.401.292.588.16.188.285.395.276.461-.009.066.161.419.377.786.216.367.522.948.68 1.292.158.343.345.625.415.625s.127.112.127.25c0 .137.075.25.167.25.091 0 .166.112.166.25 0 .137.075.25.167.25.092 0 .167.104.167.233 0 .327 1.187 2.6 1.359 2.6.077 0 .141.118.141.262 0 .69.294.738 4.538.738 2.937 0 4.117-.055 4.262-.2.357-.357.225-1.412-.298-2.38-.274-.506-.443-.921-.375-.923.067-.001.047-.057-.046-.125-.093-.067-.349-.478-.568-.914-.22-.435-.462-.791-.54-.791-.077 0-.14-.15-.14-.334 0-.183-.075-.333-.167-.333-.091 0-.166-.113-.166-.25 0-.138-.075-.25-.167-.25-.092 0-.167-.121-.167-.269 0-.344-.84-1.898-1.026-1.898-.077 0-.14-.15-.14-.333 0-.183-.075-.333-.167-.333-.092 0-.167-.15-.167-.334 0-.183-.056-.333-.126-.333-.069 0-.232-.244-.361-.542-.13-.298-.279-.579-.333-.625-.053-.045-.321-.533-.596-1.083-.275-.55-.557-1.025-.625-1.056-.069-.03-.125-.199-.125-.375 0-.175-.061-.319-.136-.319-.074 0-.238-.263-.364-.583-.126-.321-.29-.584-.365-.584-.074 0-.135-.112-.135-.25 0-.137-.057-.25-.125-.25-.069-.001-.272-.357-.45-.792-.354-.861-1.266-2.424-1.467-2.513-.069-.031-.125-.2-.125-.375 0-.176-.075-.32-.167-.32-.091 0-.166-.15-.166-.333 0-.183-.075-.333-.167-.333-.092 0-.167-.113-.167-.25 0-.138-.075-.25-.166-.25-.092 0-.155-.057-.14-.125.015-.069-.033-.341-.107-.606-.103-.369-.07-.515.141-.634.152-.084.451-.329.664-.543.335-.334 1.084-.875 2.089-1.509a3.38 3.38 0 0 0 .537-.458c.149-.161.394-.292.544-.292.149 0 .272-.075.272-.167 0-.091.106-.166.236-.166s.261-.057.291-.125c.081-.181 1.125-.709 1.403-.709.13 0 .236-.075.236-.166 0-.092.15-.167.334-.167.183 0 .333-.075.333-.167 0-.091.188-.166.417-.166.229 0 .416-.075.416-.167 0-.092.221-.167.49-.167.27 0 .537-.075.594-.166.061-.099 1.113-.167 2.593-.167H400v-3.224c0-3.421-.118-3.943-.895-3.943-.149 0-.272-.075-.272-.166 0-.102-.774-.167-1.99-.167-1.147 0-2.034.071-2.093.167-.057.091-.282.166-.5.166-.218 0-.443.075-.5.167-.057.092-.324.167-.593.167-.27 0-.49.075-.49.166 0 .092-.15.167-.334.167-.183 0-.333.075-.333.167 0 .091-.154.166-.343.166-.189 0-.297.075-.24.167.056.092-.052.167-.24.167-.189 0-.344.075-.344.166 0 .092-.132.167-.294.167-.325 0-1.969 1.05-2.392 1.529-.148.167-.354.304-.458.304-.104 0-.189.075-.189.167 0 .092-.117.167-.26.167-.143 0-.213.075-.157.166.057.092.015.167-.093.167s-.468.229-.801.51c-.798.671-2.442 2.123-3.058 2.698-.269.252-.52.459-.557.459-.037 0-1.122 1.059-2.411 2.354-1.289 1.295-2.392 2.306-2.45 2.247-.059-.059-.019-.196.09-.304.108-.109.197-.553.197-.987 0-.435.06-.828.133-.873.074-.046.152-.391.174-.768.023-.377.11-.867.194-1.088.084-.221.204-1.083.267-1.914.063-.831.178-1.551.256-1.599.079-.048.143-.417.143-.818 0-.402.075-.777.166-.834.092-.056.167-.473.167-.926 0-.453.075-.824.167-.824.091 0 .166-.412.166-.916 0-.505.075-.917.167-.917.092 0 .167-.36.167-.8 0-.44.068-.871.151-.958.083-.087.192-.534.241-.992.078-.725.237-1.705.526-3.25.043-.229.127-.923.186-1.542.059-.618.173-1.125.252-1.125.079 0 .144-.412.144-.916 0-.505.075-.917.166-.917.092 0 .167-.371.167-.823 0-.453.075-.87.167-.927.304-.188.202-2.103-.125-2.351-.365-.277-7.126-.335-7.294-.063m-283.913.287c-.961.031-1.82.128-1.908.217-.088.088-.441.16-.784.16s-.67.075-.726.167c-.057.091-.286.166-.51.166-.224 0-.407.075-.407.167 0 .092-.225.167-.5.167s-.501.056-.501.125c-.002.134-.796.541-1.058.541-.088 0-.405.188-.706.417-.3.229-.622.417-.716.417-.255 0-3.186 2.985-3.186 3.246 0 .124-.059.251-.131.281-.241.102-1.035 1.917-1.035 2.364 0 .243-.075.442-.167.442-.092 0-.167.258-.167.573 0 .316-.075.62-.166.677-.095.058-.167.887-.167 1.917 0 1.029.072 1.858.167 1.916.091.057.166.296.166.532 0 .706.753 1.218 1.792 1.218.481 0 .875-.075.875-.166 0-.092.3-.167.667-.167.366 0 .666-.075.666-.167 0-.091.263-.166.584-.166.32 0 .583-.075.583-.167 0-.092.118-.167.262-.167.449 0 .738-.448.738-1.145 0-.367.075-.715.167-.771.091-.057.166-.325.166-.596 0-.271.067-.622.148-.782.081-.159.249-.513.375-.787.216-.472.696-1.127 1.061-1.446.677-.593 1.029-.828 1.364-.912.212-.053.386-.164.386-.245 0-.082.145-.149.323-.149.178 0 .37-.075.427-.167.056-.091.356-.166.666-.166.31 0 .61-.075.667-.167.062-.101 1.266-.167 3.052-.167h2.948l-.056 1c-.032.55-.125 1-.209 1-.083 0-.152.333-.152.74 0 .408-.075.787-.166.844-.092.056-.167.469-.167.916 0 .448-.075.86-.167.917-.091.057-.166.459-.166.893 0 .435-.068.862-.151.949-.083.087-.192.495-.242.908-.05.412-.17 1.181-.266 1.708-.424 2.329-.526 2.97-.712 4.5-.108.894-.257 1.625-.33 1.625-.073 0-.133.413-.133.917s-.075.917-.166.917c-.092 0-.167.37-.167.823 0 .453-.075.87-.167.927-.091.056-.166.473-.166.926 0 .453-.075.824-.167.824-.092 0-.167.412-.167.916s-.061.917-.135.917c-.075 0-.154.354-.176.786-.023.432-.104.864-.181.958-.077.095-.182.548-.233 1.006-.247 2.201-.537 4.071-.65 4.182-.068.068-.125.482-.125.919 0 .438-.075.842-.166.899-.092.057-.167.511-.167 1.01s-.068.907-.151.907c-.082 0-.193.356-.245.791-.257 2.14-.314 2.47-.453 2.617-.083.087-.151.556-.151 1.042 0 .485-.075.883-.167.883-.091 0-.166.295-.166.656 0 .361-.078.86-.173 1.11-.133.349-.111.584.091 1.011l.264.556h3.754c3.917 0 4.23-.054 4.23-.738 0-.144.075-.262.167-.262.092 0 .167-.412.167-.916s.061-.917.135-.917c.075 0 .154-.351.176-.781.022-.429.09-.861.151-.958.122-.194.272-1.149.575-3.636.108-.894.257-1.625.33-1.625.073 0 .133-.413.133-.917s.075-.916.166-.916c.092 0 .167-.408.167-.907 0-.499.075-.953.167-1.01.091-.057.166-.432.166-.833 0-.402.075-.777.167-.834.092-.056.167-.473.167-.926 0-.453.061-.824.137-.824.075 0 .154-.393.175-.875.022-.481.11-.9.197-.93.086-.031.157-.392.157-.803 0-.411.072-.88.159-1.044.087-.163.211-.983.274-1.822.063-.839.179-1.526.258-1.526.078 0 .143-.37.143-.823 0-.453.075-.87.166-.927.092-.056.167-.473.167-.926 0-.453.075-.824.167-.824.092 0 .166-.444.166-1 0-.55.068-1 .151-1 .083 0 .191-.356.241-.791.05-.436.169-1.223.266-1.75.425-2.318.505-2.76.657-3.625.089-.505.166-1.273.173-1.709.007-.435.087-.791.179-.791s.167-.413.167-.917.075-.917.166-.917c.092 0 .167-.37.167-.823 0-.453.075-.87.167-.927.091-.056.166-.248.166-.426 0-.313.162-.324 5-.324 3.223 0 5-.059 5-.166 0-.092.118-.167.262-.167.368 0 .664-.338.805-.92.239-.987.409-2.179.421-2.955.007-.435.087-.792.179-.792.292 0 .197-1.66-.113-1.97-.269-.269-19.165-.447-25.552-.24m171.415 22.71c.057.092.324.167.593.167.27 0 .49.067.49.149 0 .081.188.195.417.253.229.057.417.178.417.268 0 .09.125.163.277.163.153 0 .231.048.173.106-.058.057.117.313.389.566.272.254.494.582.494.729 0 .146.075.266.167.266.091 0 .166.15.166.333 0 .184.066.334.145.334.477 0 .475 7.303-.002 7.598-.079.048-.143.309-.143.578 0 .27-.075.49-.166.49-.092 0-.167.189-.167.419 0 .231-.067.549-.15.709-.082.159-.467.951-.854 1.761-.388.81-.886 1.653-1.108 1.875-.222.222-.36.403-.306.403.255 0-1.633 1.621-2.177 1.869-.223.101-.405.247-.405.324 0 .077-.146.14-.323.14-.178 0-.37.075-.427.167-.057.092-.324.167-.593.167-.27 0-.49.075-.49.166 0 .101-.695.167-1.75.167-1.056 0-1.75-.066-1.75-.167 0-.091-.174-.166-.386-.166-.211 0-.546-.15-.743-.334-.196-.183-.405-.333-.464-.333-.221 0-1.233-1.262-1.237-1.542-.002-.16-.079-.291-.17-.291-.092 0-.167-.15-.167-.334 0-.183-.075-.333-.167-.333-.091 0-.166-.263-.166-.583 0-.321-.075-.584-.167-.584-.103 0-.167-.885-.167-2.323 0-1.369.069-2.366.167-2.427.092-.056.167-.436.167-.843s.075-.74.166-.74c.092 0 .167-.3.167-.667 0-.366.075-.666.167-.666.091 0 .166-.188.166-.417 0-.229.075-.417.167-.417.092 0 .167-.106.167-.236 0-.301 1.154-2.495 1.351-2.569.082-.031.149-.162.149-.291 0-.299 2.301-2.57 2.605-2.57.125 0 .228-.064.228-.142 0-.077.319-.273.708-.433.39-.161.839-.36.998-.442.159-.083.474-.15.699-.15.225 0 .455-.075.512-.167.056-.091.581-.166 1.166-.166s1.11.075 1.167.166m54.833 0c.057.092.288.167.513.167.821 0 2.53 1.348 3.07 2.421.138.272.298.533.357.579.493.386.449 7.833-.047 7.833-.079 0-.143.221-.143.49 0 .27-.075.537-.166.594-.092.056-.167.286-.167.51 0 .223-.075.406-.167.406-.091 0-.166.144-.166.32 0 .175-.057.344-.125.375-.069.03-.383.573-.699 1.207-.315.633-.821 1.399-1.125 1.702-.303.304-.551.629-.551.724 0 .095-.057.172-.126.172s-.445.3-.834.667c-.389.367-.814.667-.943.667-.13 0-.261.056-.292.125-.092.207-1.481.875-1.821.875-.175 0-.318.075-.318.166 0 .101-.694.167-1.75.167-1.055 0-1.75-.066-1.75-.167 0-.091-.15-.166-.333-.166-.183 0-.333-.075-.333-.167 0-.092-.101-.167-.223-.167-.257 0-1.611-1.392-1.611-1.657 0-.097-.075-.176-.166-.176-.092 0-.167-.15-.167-.333 0-.184-.075-.334-.167-.334-.091 0-.166-.262-.166-.583 0-.321-.075-.583-.167-.583-.104 0-.167-1.025-.167-2.74 0-1.647.067-2.782.167-2.844.092-.056.167-.398.167-.76 0-.361.059-.656.131-.656.072 0 .149-.244.172-.542.022-.298.113-.567.202-.597.089-.031.161-.275.161-.542s.075-.486.167-.486c.092 0 .167-.15.167-.333 0-.184.075-.334.166-.334.092 0 .167-.187.167-.416 0-.229.064-.417.141-.417.078 0 .277-.3.442-.667.166-.366.365-.666.442-.666.078 0 .142-.092.142-.204 0-.272 2.015-2.296 2.287-2.296.117 0 .213-.067.213-.148 0-.198 1.963-1.015 2.541-1.058.252-.018.459-.092.459-.164 0-.193 2.296-.158 2.416.036m-299.93 9.625c-.13.252-.311.542-.403.645-.531.593-.917 1.077-.917 1.15 0 .046-.225.319-.5.607-.275.287-.5.576-.5.641 0 .066-.262.397-.583.738-.321.34-.583.691-.583.78 0 .09-.169.337-.375.55-.839.866-2.041 2.431-1.867 2.431.061 0-.123.218-.407.484-.285.265-.518.538-.518.605 0 .067-.134.243-.297.391-.163.149-.587.683-.942 1.187s-.709.941-.787.972c-.077.03-.141.132-.141.225s-.225.379-.5.636-.5.548-.5.647c0 .099-.262.451-.583.781-.321.33-.583.677-.583.769 0 .093-.225.379-.5.636s-.5.537-.5.621c0 .085-.193.335-.427.556-.235.22-.588.665-.783.987-.196.323-.492.708-.657.856-.165.148-.3.327-.3.397s-.134.249-.298.397c-.163.148-.666.795-1.117 1.436-.452.642-.924 1.272-1.05 1.401-.353.36-.535.965-.535 1.777V63h.766c.769 0 1.901-.409 1.901-.686 0-.081.078-.147.173-.147.096 0 .265-.077.375-.17.756-.638 1.018-.83 1.126-.83.068 0 .353-.207.633-.459l1.014-.91c.277-.249.712-.56.966-.692.255-.131.706-.472 1.003-.756.297-.284.586-.517.641-.517.056 0 .312-.225.569-.5.257-.275.536-.5.62-.5.084 0 .447-.262.808-.583.36-.321.719-.583.796-.583.078 0 .352-.225.609-.5s.531-.5.609-.5c.077 0 .469-.3.87-.667.402-.367.792-.667.868-.667.076 0 .311-.168.522-.375.211-.206.683-.597 1.049-.869.366-.271.764-.59.886-.708.121-.118.281-.214.355-.214.074 0 .5-.337.946-.749.447-.411.863-.749.925-.75.062-.001.212-.1.333-.22.121-.121.341-.29.489-.375.368-.213 1.452-1.078 1.899-1.514.202-.197.584-.471.85-.608.266-.138.626-.408.8-.601.175-.192.386-.35.47-.35.248 0 .629-.454.629-.749 0-.394-6.393-6.751-6.789-6.751-.182 0-.424.199-.558.458" fill="#F27802"/><path d="M98.458 6.458c3.14.026 8.277.026 11.417 0 3.14-.025.571-.046-5.708-.046s-8.848.021-5.709.046m222.914 29.375c0 .321.034.452.076.292.042-.16.042-.423 0-.583-.042-.161-.076-.03-.076.291" fill="#FF0"/></g></svg>