<svg width="345" height="83" xmlns="http://www.w3.org/2000/svg"><g fill="none"><path d="M6.4 47.596c.6-.3 1.3-.3 1.9-.6-1-1.1-2.1-2.1-2.9-3.4-.3-.4-.1-.5.1-.6.2 0 .1-.4.2-.6.4-.1.4-.6.6-.9 0-.1 0-.4.1-.5.1-.1.3-.2.5 0 .8 1 1.7 1.6 2.6 2.3 1.1.8 2.3 1.4 3.2 2.4.1 0 .4.2.4 0 .1-1 .5-2 .9-2.8.1-.3.2-.7.4-1 .3-.6 1-1 1.5-1.4.9-.5 1.9 0 2.6-.8.2-.2.6 0 .8 0 .6.3 1.4.1 1.9.6-.8 1.8-.8 3.7-1.4 5.6-.1.4-.3 1-.1 1.2.9.3 3.2-.1 3.3-.2 1.2 0 2.3 0 3.5.3.9.2 1.5.6 2.3 1.3 1.3 1 1.3 2.8 1.1 4.4 0 .1-.6.7-.8.6-.1 0-.1-.4-.2-.5-.5.4-1.4 1.3-1.7 1.3-.1 0-.7-.6-1-.8-1-.7-2.2-.5-3.3-.4-1.3.1-2.6-.1-3.9.5.5.9 1.3 1.4 2.1 2.1 1.2 1.2 2.4 2.1 3.6 3.3.8.9 1.6 1.5 2.1 2.5-.3.2 0 .3-.2.5-.2.1-.2-.3-.4-.3s-.3.3-.3.5c.1.1-.2.7-.4.7-.1.1-.6.4-.8.4-.1 0-.7-.3-.7-.2.2.3.4.7.3.8-.5-.1-.8-.1-1.1-.5-1.6-1.4-3.1-2.9-4.8-4.4-.6-.6-1-1.4-1.8-2-1.2 2.8-2 4.8-3.2 7.6-.3.5-.4 1.8-.7 1.9-.2.1-.9-.9-1.3-1.7 0-1.7.2-2.3.3-4.1v-.3c.1-2.3.8-4.3.7-6.7 0-.2-.3-.3-.6-.3-3-.3-5.9-.7-8.9-1.1-.7-.1-1.4-.1-2.1-.4-.1-.1-.5-.3-.6-.3-.1-.1-.1-.1-.2-.1 1.2-1.2 2.2-2.5 3.9-3.2.8 0 2-.5 2.5-.7z" fill="#F58025"/><path d="M34.3 63.796c-.2-.1-.1-.3-.1-.3.2-.3.6-.3.8-.3.8-.2 1.7 0 2.5-.2.2-.1.3-.3.4-.3.6-.3 1.2-.4 1.9-.6.2-.1.6-.3.4-.6-.7-.8-1.4-1.5-1.8-2.4-.2-.5-.6-.9-.6-1.4 0-.4.5-.5.9-.3 1.8 1 3 2.5 4.3 4.1.2.3.5-.4.6-.7.6-1.3 1-2.8 1.7-4.1.2-.4.5-.9.9-1 .6-.2 1-.6 1.5-.9.4-.2.7 0 1.1-.2.2-.1.6.3.9.2.5-.3.9-.1 1.4 0 .3.2.4.5.3.8-.5 1.2-.7 2.4-1.5 3.6-.6.9-1 1.8-1.7 2.7 0 .1-.1.3.1.3.4.1.9 0 1.2.2 1.2.4 2.4.3 3.7.5.6.2.6 1.1 1.2 1.6.3.2-.2.5-.6.6-.9.3-1.8-.1-2.7.2-1.5.3-3 0-4.4.6.5.5 1 .9 1.4 1.4l1.2 1.8c.4.7.6 1.3.8 2 .2.3.1.8.1 1.2-.2-.1-.2-.4-.3-.5-.2 0-.3.3-.6.3-.2-.1-.3-.3-.4-.4-.3-.3-.6-.8-.7-1.2-.6-1.3-1.7-2.1-2.7-2.9-1 2.1-1.7 4.2-3.1 6.2-.1.2-.3.2-.6.2-.1-.1-.2.2-.3.2-.1-.2-.2-.2-.3-.3-.4-.3-1-.7-1.1-1.2-.2-.5-.4-.9-.4-1.4 0-.1-.2-.3-.2-.3.2-.3.2-.8.3-1 .2-.3.6-.6.6-.9.4-1 1.1-1.8 1.3-2.8-1.9-.3-3.9-.2-5.8-.9-.4-.2-.9-.3-1.3-.6-.2-.7-.1-.9-.3-1z" fill="#FFF"/><path d="M36.6 32.696c.6-1.5 1.6-2.4 1.7-4.1-3.2-1.8-7-.7-9.4-4.9-.6-.9 0-5.1.3-5.6.7-1.5 2.1-1.5 3.4-.5.1-.1 1.1.2 1.3.3 1.3-.2 2.7.3 4.1.6 1.8.2 3.3.9 5 .7.1-.1.3-.5.3-1-.4-2.5-1-4.7-1.6-7.3-.3-.6-.2-1.4-.4-2-.1-1.5-1.1-3.8-.2-4.5.1-.1.3.3.4.2.3-.2.4-.6.7-.5 3.1 2.1 5.7 5.3 8.5 8.4.9.9 1.1-1.5 1.8-2.3.2-.4 0-1.3.2-1.6.7-1.3.8-2.9 1.4-4.1 1.1-1.5 1.7-3.8 3.3-4.4 1.1-.3 2.3.1 3.3 1.2.2.1.7 0 1 .3 1.1 1 2 2.3 3.2 3.5.4.5.6 1.4.4 1.8-.3 1.7-1.8 1.8-2.7 3-1.7 2.8-3.5 5.6-5.2 8.4-.2.4-.7 1.3-.3 1.7 2.4 2.4 4.5 4.9 7.2 6.8 1.7 1.1 3.5 1 5 2.5 1.1 1.3 1.9 2.7 2.4 4.4-6.1 3.9-13-2.5-19.5-2.4-.5.1-.4.8-.4 1.1.3 2.8.8 5.5 1.1 8.2.1 1.9 1.1 3.8 1.4 5.6.1.7.7 2.5-.2 2.4-1 0-2.4-.3-3.1-1.9-.9-2.1-1.8-4.3-2.5-6.6-.1-.7-.4-1.3-.1-1.9.1-1.1-.6-2.1-.9-2.9-.2-.4-.6.2-.9.4-.9 1.2-1.8 2.3-2.6 3.7-1.5 2.1-3.2 3.4-5.2 4.3-1.5.6-3.7.9-4.7-1.4.5-.1.9-1.2.6-1.5-2.3-3.5.9-5.6 1.9-8.1z" fill="#7BAED4"/><path d="M103.8 71.996h-5.6v-29.9h5.6v5c2.1-3.3 4.7-5.5 9.7-5.5h.4v4.8h-.4c-2.4 0-4.3.8-6 2.4-2.1 2-3.6 5.1-3.7 7.7v15.5zm22.3.6c-6.7 0-9.7-4.4-9.7-8.4 0-6.4 5.4-9.8 19.3-12.2v-1.3c0-3.3-2-5-5.9-5-5.2 0-7 3.3-7.5 4.3l-.1.4-5.1-2.2.2-.4c2.2-3.9 7.1-6.4 12.4-6.4 5.8 0 11.6 2.8 11.6 9.1v14.7c0 3 .3 4.6.7 6.2l.1.5h-5.8l-.4-3.6c-2.1 2.2-5.4 4.3-9.8 4.3zm9.5-16.3c-9.2 1.6-13.7 4.2-13.7 7.9 0 2.4 2.5 4.1 4.7 4.1 2.8 0 6.5-1.9 9-4.6v-7.4zm25.1 15.7h-6.8l-9.6-29.9h5.7l7.5 23.5 7.5-23.5h5.1zm49.8 0h-5.7v-39.8l5.7-2.4zm18.6.6c-8.1 0-13.5-6.2-13.5-15.5s5.4-15.5 13.5-15.5 13.5 6.2 13.5 15.5-5.4 15.5-13.5 15.5zm0-26.8c-4.9 0-7.9 4.2-7.9 11.3 0 7.1 3 11.3 7.9 11.3s7.9-4.2 7.9-11.3c0-7.1-3-11.3-7.9-11.3zm30.2 26.8c-8.1 0-13.5-6.2-13.5-15.5s5.4-15.5 13.5-15.5c5.8 0 9.9 2.7 12.1 8.1l.2.4-5.3 1.6-.1-.3c-.8-2.5-2.7-5.5-6.9-5.5-5 0-7.9 4.1-7.9 11.3 0 7.2 2.9 11.3 7.9 11.3 3.9 0 5.8-1.3 8.1-5.2l.2-.3 4.8 1.7-.2.4c-3.5 5.4-7.1 7.5-12.9 7.5zm22.8-.6h-5.6v-29.9h5.6zm-195.7.6c-4.2 0-7-.9-7.5-5.1v-21.1h-4.5v-4.2h4.5v-8.2l5.6-2.4v10.6h7.2l-1.1 4.2h-6v20.4c0 .8.4 1.6 3.1 1.6 1.4 0 2.5-.1 4.3-.4l.6-.1-1.1 4.2h-.2c-1.6.3-2.8.5-4.9.5zm226.2 10.4c-1.5 0-3.3-.2-4-.3l-.4-.1 1.3-4.2h.7c.5.1 1.1.1 1.8.1 2.8 0 6.2-.7 7.6-6.6l-10.8-29.9h5.3l.1.2 7.9 21.4 7-21.7h5.9l-10.9 32.3c-2.8 7.7-8.4 8.8-11.5 8.8zm-12.5-10.4c-4.2 0-7-.9-7.5-5.1v-21.2h-4.5v-4.2h4.5v-8.2l5.6-2.4v10.6h7.2l-1.1 4.2h-6v20.4c0 .8.4 1.6 3.1 1.6 1.4 0 2.5-.1 4.3-.4l.6-.1-1.1 4.2h-.2c-1.6.4-2.8.6-4.9.6zm-113.2 0c-3.8 0-7.2-1.3-9.8-3.7-3-2.8-4.5-6.9-4.5-11.8 0-9.3 5.4-15.5 13.5-15.5 3.4 0 6.6 1.1 8.8 3.2 2.5 2.4 3.9 6 3.9 10.4v3.1h-20.5c.2 5.8 3.8 10.1 8.6 10.1 3.4 0 6.3-1.6 8-4.6l.2-.4 3.6 3.5-.2.3c-3.6 5-5.8 5.4-11.6 5.4zm-8.5-18.6h14.7c-.1-5.1-2.7-8.2-6.9-8.2-4.5 0-7.3 3-7.8 8.2zm103.7-16.2h-5.6v-5.6h5.6z" fill="#FFF"/><g fill="#FFF"><path d="M337.2 44.296c.2-.4.5-.8.8-1.1.3-.3.7-.6 1.2-.8.4-.2.9-.3 1.4-.3.5 0 1 .1 1.4.3.4.2.8.4 1.2.8.3.3.6.7.8 1.1.2.4.3.9.3 1.4 0 .5-.1 1-.3 1.4-.2.4-.5.8-.8 1.2-.3.3-.7.6-1.2.8-.4.2-.9.3-1.4.3-.5 0-1-.1-1.4-.3-.4-.2-.8-.4-1.2-.8-.3-.3-.6-.7-.8-1.2-.2-.4-.3-.9-.3-1.4 0-.5.1-1 .3-1.4zm.6 2.7c.2.4.4.7.6 1 .3.3.6.5 1 .7.4.2.8.2 1.2.2.4 0 .8-.1 1.2-.2.4-.2.7-.4.9-.7.3-.3.5-.6.6-1 .2-.4.2-.8.2-1.2 0-.4-.1-.8-.2-1.2-.2-.4-.4-.7-.6-1-.3-.3-.6-.5-.9-.6-.4-.2-.8-.2-1.2-.2-.4 0-.8.1-1.2.2-.4.2-.7.4-1 .6-.3.3-.5.6-.6 1-.2.4-.2.8-.2 1.2 0 .4.1.8.2 1.2zm3-3.4c.5 0 .9.1 1.1.3.2.2.4.5.4.9s-.1.7-.3.8c-.2.2-.5.3-.8.3l1.2 1.9h-.7l-1.2-1.8h-.7v1.8h-.7v-4.2h1.7zm-.3 1.9h.4c.1 0 .3 0 .4-.1.1 0 .2-.1.2-.2.1-.1.1-.2.1-.4 0-.1 0-.3-.1-.3s-.1-.1-.2-.2c-.1 0-.2-.1-.3-.1h-1.2v1.3h.7z"/><path d="M337.2 44.296c.2-.4.5-.8.8-1.1.3-.3.7-.6 1.2-.8.4-.2.9-.3 1.4-.3.5 0 1 .1 1.4.3.4.2.8.4 1.2.8.3.3.6.7.8 1.1.2.4.3.9.3 1.4 0 .5-.1 1-.3 1.4-.2.4-.5.8-.8 1.2-.3.3-.7.6-1.2.8-.4.2-.9.3-1.4.3-.5 0-1-.1-1.4-.3-.4-.2-.8-.4-1.2-.8-.3-.3-.6-.7-.8-1.2-.2-.4-.3-.9-.3-1.4 0-.5.1-1 .3-1.4zm.6 2.7c.2.4.4.7.6 1 .3.3.6.5 1 .7.4.2.8.2 1.2.2.4 0 .8-.1 1.2-.2.4-.2.7-.4.9-.7.3-.3.5-.6.6-1 .2-.4.2-.8.2-1.2 0-.4-.1-.8-.2-1.2-.2-.4-.4-.7-.6-1-.3-.3-.6-.5-.9-.6-.4-.2-.8-.2-1.2-.2-.4 0-.8.1-1.2.2-.4.2-.7.4-1 .6-.3.3-.5.6-.6 1-.2.4-.2.8-.2 1.2 0 .4.1.8.2 1.2zm3-3.4c.5 0 .9.1 1.1.3.2.2.4.5.4.9s-.1.7-.3.8c-.2.2-.5.3-.8.3l1.2 1.9h-.7l-1.2-1.8h-.7v1.8h-.7v-4.2h1.7zm-.3 1.9h.4c.1 0 .3 0 .4-.1.1 0 .2-.1.2-.2.1-.1.1-.2.1-.4 0-.1 0-.3-.1-.3s-.1-.1-.2-.2c-.1 0-.2-.1-.3-.1h-1.2v1.3h.7z"/></g></g></svg>