<svg width="250" height="38" xmlns="http://www.w3.org/2000/svg"><g fill="none"><path d="M8.699 6.35c4.726-.61 18.135-1.03 14.461 18.346l4.167-.339C25.502 12.414 29.32 6.324 41.258 5.74c-19.8-10.965-31.074.418-32.56.61h.001z" fill="#FAC415"/><path d="M27.132 21.628c2.172 5.876 8.695 8.879 14.571 6.707 5.876-2.17 8.88-8.694 6.709-14.57-2.17-5.876-8.694-8.88-14.57-6.71-5.876 2.172-8.88 8.696-6.71 14.573z" fill="#FFF"/><circle fill="#FFF" cx="12.626" cy="17.651" r="11.345"/><circle fill="#EE6946" cx="12.463" cy="17.54" r="2.097"/><circle fill="#00AF87" cx="37.745" cy="17.54" r="2.096"/><path d="M47.898 10.18a16.25 16.25 0 0 1 2.481-5.044l-8.42-.007A30.66 30.66 0 0 0 25.145.461 31.367 31.367 0 0 0 7.9 5.189L0 5.193a16.339 16.339 0 0 1 2.47 5C-1.578 15.72-.47 23.468 4.965 27.639c5.435 4.17 13.206 3.236 17.497-2.105l2.685 4.02 2.711-4.054c4.268 5.41 12.09 6.394 17.564 2.208 5.475-4.185 6.577-11.99 2.476-17.528zM37.37 5.094a12.573 12.573 0 0 0-12.173 11.64A12.62 12.62 0 0 0 12.879 5.045 31.177 31.177 0 0 1 25.144 2.66 29.674 29.674 0 0 1 37.37 5.094zM12.626 27.719a10.07 10.07 0 1 1 10.069-10.067c-.007 5.558-4.511 10.06-10.069 10.067zm28.634-.571c-5.218 1.923-11.007-.744-12.935-5.96v-.003c-1.924-5.218.746-11.007 5.963-12.932 5.218-1.924 11.007.745 12.932 5.962 1.926 5.217-.743 11.007-5.96 12.933z" fill="#000"/><path d="M12.47 11.31a6.231 6.231 0 1 0 6.222 6.23 6.24 6.24 0 0 0-6.221-6.23h-.001zm0 10.315a4.085 4.085 0 1 1 4.078-4.086 4.095 4.095 0 0 1-4.077 4.086h-.001zM37.745 11.31a6.231 6.231 0 1 0 6.228 6.23 6.238 6.238 0 0 0-6.228-6.23zm0 10.315a4.085 4.085 0 1 1-.002-8.17 4.085 4.085 0 0 1 .002 8.17z" fill="#000"/><path d="M178.929 3.712a2.429 2.429 0 1 0 4.86-.002 2.429 2.429 0 0 0-4.861.002h.001z" fill="#00AF87"/><path d="M63.567 3.544l-3.68 1.268v4.806h-4.08v3.222h3.963v10.343c0 4.924 1.68 6.93 5.791 6.93 1.027.003 2.05-.132 3.042-.4l.16-.043-.045-3.337-.283.1a6.056 6.056 0 0 1-1.931.422c-1.93 0-2.65-1.092-2.65-4.025v-9.99h4.711V9.618h-4.71V3.445l-.288.099zm12.734 9.336V9.619h-3.73V29.76h4.082V19.65c0-4.241 1.779-6.576 5.008-6.576.498.005.994.082 1.47.228l.268.075.132-3.978-1.755-.135a6.006 6.006 0 0 0-5.475 3.617v-.001zm29.149-3.734a7.818 7.818 0 0 0-6.731 3.743V9.618h-3.732v28.35h4.085V26.974a7.417 7.417 0 0 0 6.223 3.097c5.164 0 8.5-4.229 8.5-10.776 0-6.071-3.353-10.15-8.346-10.15l.001.001zm-1.137 17.629c-3.23 0-5.24-2.76-5.24-7.205 0-4.28 2.119-7.046 5.398-7.046 3.158 0 5.043 2.62 5.043 7.009 0 4.467-1.993 7.242-5.2 7.242h-.001z" fill="#000"/><path d="M125.727 9.146c-2.31-.04-4.598.452-6.688 1.436l-.127.059.046 3.486.318-.178a11.17 11.17 0 0 1 5.391-1.62c2.957 0 4.652 1.695 4.652 4.652v.173h-2.334c-6.724 0-10.424 2.435-10.424 6.855 0 3.547 2.669 6.026 6.496 6.026a7.712 7.712 0 0 0 6.536-3.187v2.913h3.694V17.567c0-5.588-2.542-8.421-7.56-8.421zm3.592 12.113c0 3.472-2.087 5.711-5.32 5.711a3.12 3.12 0 0 1-3.356-3.16c0-2.443 2.335-3.787 6.576-3.787h2.1v1.236zM150.638 0v12.352a7.367 7.367 0 0 0-6.301-3.206c-4.99 0-8.342 4.11-8.342 10.228 0 6.3 3.397 10.698 8.264 10.698a7.505 7.505 0 0 0 6.693-3.76v3.45h3.771V0h-4.085zm-5.317 26.695c-3.113 0-5.046-2.714-5.046-7.085 0-4.376 1.95-7.203 4.966-7.203 3.38 0 5.397 2.693 5.397 7.203 0 4.305-2.088 7.085-5.317 7.085zm27.654-17.077l-5.795 11.625-5.351-11.625h-4.604l9.873 20.143 10.141-20.143h-4.264zm10.215 0h-3.869V29.76h4.087V9.618h-.218zm5.006 5.164c0 2.836 1.948 4.327 5.54 6.081 2.267 1.115 3.453 1.77 3.453 3.341 0 1.607-1.459 2.65-3.712 2.65a11.851 11.851 0 0 1-5.126-1.315l-.3-.145-.136 3.549.143.058a14.3 14.3 0 0 0 5.263.995c4.995 0 8.224-2.38 8.224-6.067 0-3.074-2.045-4.63-5.582-6.283-2.596-1.215-3.681-1.93-3.681-3.218 0-1.23 1.207-2.021 3.079-2.021a11.32 11.32 0 0 1 4.894 1.118l.292.139.185-3.479-.165-.05a17.627 17.627 0 0 0-4.97-.754c-4.427 0-7.401 2.17-7.401 5.401zm26.088-5.636c-6.139 0-9.952 4.04-9.952 10.543 0 6.503 3.813 10.544 9.952 10.544 6.164 0 9.995-4.04 9.995-10.544 0-6.504-3.83-10.543-9.995-10.543zm.04 17.748c-3.392 0-5.673-2.913-5.673-7.244 0-4.355 2.282-7.282 5.672-7.282 3.448 0 5.675 2.856 5.675 7.282 0 4.4-2.227 7.244-5.675 7.244h.001zm17.491-14.014V9.619h-3.73V29.76h4.083V19.65c0-4.241 1.781-6.576 5.007-6.576.498.004.994.081 1.47.228l.269.075.133-3.978-1.755-.135a6.01 6.01 0 0 0-5.477 3.617v-.001z" fill="#00AF87"/><path d="M90.812 9.618h-3.87V29.76h4.086V9.618h-.216zm-4.265-5.906a2.43 2.43 0 1 0 4.86 0 2.43 2.43 0 0 0-4.86 0z" fill="#000"/><path d="M248.979 6.771c.667.68 1.034 1.6 1.021 2.552a3.513 3.513 0 0 1-1.081 2.59 3.701 3.701 0 0 1-2.571 1.062c-.98 0-1.915-.402-2.59-1.112a3.616 3.616 0 0 1-1.05-2.54 3.686 3.686 0 0 1 1.108-2.623 3.542 3.542 0 0 1 2.532-1.03 3.594 3.594 0 0 1 2.631 1.101zm-4.701.4a3.02 3.02 0 0 0-.899 2.152 3.002 3.002 0 0 0 2.969 2.98 3.033 3.033 0 0 0 2.112-.86 3.007 3.007 0 0 0 .04-4.212 2.949 2.949 0 0 0-2.14-.901 2.89 2.89 0 0 0-2.082.841zm2.14.07c1.151 0 1.732.41 1.732 1.16.007.516-.347.967-.85 1.082l.888 1.759h-1.208l-.751-1.59h-.322v1.59h-1.099V7.24h1.61v.001zm-.51 1.76h.392c.48 0 .719-.17.719-.52 0-.389-.25-.549-.78-.549h-.332v1.07l.001-.001z" fill="#00AF87" opacity=".5"/></g></svg>