<svg width="1168" height="280" xmlns="http://www.w3.org/2000/svg"><g fill="none"><path d="M985 67.5h-37.5V215h45v-87.488c0-12.428 9.514-22.503 21.25-22.503s21.25 10.075 21.25 22.503V215h45v-87.491c0-12.426 9.514-22.5 21.25-22.5s21.25 10.074 21.25 22.5V215h45V115c0-28.995-25.184-52.5-56.25-52.5-15.65 0-29.807 5.965-40.005 15.593-10.196-9.623-24.35-15.584-39.995-15.584-13.53 0-25.944 4.457-35.648 11.886-.177.144-.352.279-.52.404a56.32 56.32 0 0 0-2.582 2.154V75a7.5 7.5 0 0 0-7.5-7.5m-140 110c19.33 0 35-16.23 35-36.25S864.33 105 845 105s-35 16.23-35 36.25 15.67 36.25 35 36.25zm0 42.5c-44.183 0-80-35.257-80-78.75s35.817-78.75 80-78.75 80 35.257 80 78.75S889.183 220 845 220zM752.361 83.933C738.038 70.645 718.735 62.5 697.5 62.5c-44.183 0-80 35.258-80 78.75 0 43.493 35.818 78.75 80 78.75 23.006 0 43.745-9.56 58.339-24.864l-29.717-33.018c-6.334 9.304-16.793 15.382-28.622 15.382-19.33 0-35-16.23-35-36.25s15.67-36.25 35-36.25c11.194 0 21.16 5.443 27.566 13.911l27.295-34.978" fill="#4874C3"/><path d="M572.5 167.5c16.569 0 30 12.873 30 28.75 0 15.879-13.431 28.75-30 28.75-16.569 0-30-12.871-30-28.75 0-15.877 13.431-28.75 30-28.75" fill="#F59E21"/><path d="M437.5 177.5c19.33 0 35-16.23 35-36.25S456.83 105 437.5 105s-35 16.23-35 36.25 15.67 36.25 35 36.25zM400 205.373V280h-45V67.5h37.5A7.5 7.5 0 0 1 400 75v2.128c12.686-9.21 28.22-14.628 45-14.628 42.803 0 77.5 35.258 77.5 78.75 0 43.493-34.697 78.75-77.5 78.75-16.78 0-32.314-5.419-45-14.627zM305 52.5c-15.188 0-27.5-11.752-27.5-26.25C277.5 11.753 289.812 0 305 0s27.5 11.753 27.5 26.25c0 14.498-12.312 26.25-27.5 26.25zm15 15h-37.5V215h45V75a7.5 7.5 0 0 0-7.5-7.5zm-62.5-5c-15.876 0-30.56 5.543-42.5 14.951V75a7.5 7.5 0 0 0-7.499-7.5H170V215h45v-75c0-19.33 16.789-35 37.5-35 3.463 0 6.816.438 10 1.259V62.683a68.742 68.742 0 0 0-5-.183m-95-50H0v40h62.5V215h45V52.5H170V20a7.5 7.5 0 0 0-7.5-7.5" fill="#4874C3"/></g></svg>