<svg width="680" height="114" viewBox="0 0 668 114" xmlns="http://www.w3.org/2000/svg" xmlns:xlink="http://www.w3.org/1999/xlink"><defs><radialGradient cy="89.497%" fx="50%" fy="89.497%" r="87.924%" id="a"><stop stop-color="#F5E405" offset="0%"/><stop stop-color="#F7B613" offset="100%"/></radialGradient><path d="M66.5 77.069c-4.703-1.03-8.625-2.129-11.758-3.293V4.218h16.262v58.94c.807.27 2.216.582 4.232.942 2.016.359 3.92.539 5.712.539 3.136 0 5.892-.246 8.265-.74s4.235-.967 5.578-1.413l2.823 13.709c-.806.27-1.883.561-3.227.874a57.151 57.151 0 0 1-4.165.806 70.533 70.533 0 0 1-4.3.54 41.535 41.535 0 0 1-3.764.199c-5.734 0-10.953-.515-15.658-1.545zm80.567.067V17.655c-1.076-.266-2.71-.492-4.906-.67a75.511 75.511 0 0 0-6.247-.269c-5.468 0-9.298 1.611-11.494 4.838-2.195 3.226-3.291 8.604-3.291 16.128v39.454h-16.263V35.13c0-4.753.492-9.118 1.477-13.104.987-3.991 2.622-7.416 4.904-10.284 2.287-2.868 5.333-5.105 9.142-6.717 3.809-1.614 8.534-2.419 14.178-2.419 6.003 0 11.512.425 16.533 1.273 5.015.853 9.094 1.682 12.23 2.488v70.77h-16.263zm89.68 21.177V32.17c0-4.659.404-8.805 1.21-12.43.807-3.63 2.197-6.722 4.167-9.275 1.97-2.555 4.635-4.502 7.996-5.847 3.36-1.344 7.549-2.013 12.567-2.013 4.12 0 7.704.425 10.75 1.273 3.047.853 5.512 1.682 7.392 2.488l-2.687 12.902c-1.344-.538-3.158-1.121-5.445-1.746-2.282-.628-4.904-.942-7.86-.942-4.302 0-7.348 1.21-9.14 3.63-1.793 2.419-2.687 6.449-2.687 12.094v31.258h24.999v13.573H253.01V101l-16.262-2.689zm-236.36 0V32.17c0-4.659.402-8.805 1.208-12.43.806-3.63 2.196-6.722 4.166-9.275C7.734 7.911 10.4 5.964 13.758 4.62c3.36-1.344 7.548-2.013 12.57-2.013 4.118 0 7.703.425 10.75 1.273 3.044.853 5.51 1.682 7.39 2.488L41.783 19.27c-1.346-.538-3.158-1.121-5.443-1.746-2.286-.628-4.906-.942-7.865-.942-4.299 0-7.345 1.21-9.138 3.63-1.793 2.419-2.686 6.449-2.686 12.094v31.258h24.996v13.573H16.65v23.865L.388 98.312zM184.291 70.26C179.43 66.454 177 61.255 177 54.654c0-3.395.528-6.259 1.583-8.597 1.052-2.338 2.496-4.33 4.332-5.983 1.834-1.651 4.009-3.093 6.53-4.33 2.523-1.239 5.295-2.409 8.323-3.505 4.95-1.836 8.503-3.534 10.657-5.089 2.152-1.561 3.231-3.534 3.231-5.916 0-2.567-1.008-4.38-3.025-5.433-2.02-1.055-5.225-1.581-9.626-1.581s-8.321.456-11.76 1.379c-3.439.915-6.395 1.873-8.871 2.885l-2.886-13.89c1.558-.643 4.263-1.489 8.116-2.543C187.452.995 192.544.47 198.866.47c9.444 0 16.706 1.767 21.796 5.296 5.088 3.526 7.637 8.733 7.637 15.61 0 3.205-.417 5.955-1.242 8.251-.825 2.289-2.13 4.33-3.918 6.118-1.79 1.787-4.058 3.39-6.809 4.812-2.748 1.42-6.098 2.868-10.039 4.333-2.386.825-4.4 1.626-6.047 2.407-1.653.778-2.983 1.556-3.99 2.339-1.009.776-1.72 1.624-2.13 2.544-.415.913-.62 1.968-.62 3.16 0 2.385 1.054 4.151 3.162 5.297 2.11 1.145 4.859 1.718 8.251 1.718 3.757 0 7.06-.344 9.903-1.03 2.84-.688 5.18-1.447 7.014-2.271l3.023 13.476c-1.926.737-4.81 1.49-8.662 2.271-3.85.778-7.885 1.168-12.102 1.168-8.344 0-14.944-1.903-19.802-5.707z" id="b"/><linearGradient x1="95.859%" y1="100%" x2="95.859%" y2="4.39%" id="c"><stop stop-color="#40B2DC" offset="0%"/><stop stop-color="#3096CC" offset="100%"/></linearGradient></defs><g fill="none" fill-rule="evenodd"><use fill="url(#a)" xlink:href="#b" transform="matrix(1 0 0 -1 0 113.75)"/><path d="M157.906 109.082V72.716c-1.88.987-4.125 1.883-6.719 2.689-2.598.806-5.603 1.209-9.005 1.209-5.022 0-9.454-.873-13.308-2.619-3.852-1.746-7.123-4.233-9.81-7.458-2.686-3.226-4.725-7.103-6.113-11.628-1.391-4.526-2.085-10.547-2.085-16.098 0-5.645.828-12.382 2.487-16.905 1.658-4.525 4.032-8.377 7.123-11.556 3.093-3.185 6.833-5.625 11.224-7.325 4.386-1.704 9.358-2.556 14.915-2.556 5.379 0 10.506.404 15.39 1.21 4.884.807 8.938 1.7 12.162 2.688V111.77l-16.26-2.687zM132.64 20.697c-3.406 4.076-5.105 11.346-5.105 18.515 0 6.898 1.361 13.348 4.097 17.379 2.733 4.032 7.053 6.049 12.97 6.049 2.688 0 5.22-.427 7.593-1.28s4.278-1.767 5.711-2.753V15.655c-1.166-.266-2.666-.512-4.505-.737-1.834-.224-4.052-.337-6.651-.337-6.005 0-10.705 2.037-14.11 6.115zm56.925 78.254c-1.787-1.627-2.681-3.858-2.681-6.7 0-2.764.894-4.956 2.681-6.576 1.781-1.626 3.94-2.439 6.456-2.439 2.434 0 4.547.813 6.334 2.439 1.788 1.62 2.681 3.813 2.681 6.576 0 2.841-.893 5.073-2.681 6.7-1.787 1.622-3.9 2.435-6.334 2.435-2.516 0-4.675-.813-6.456-2.435zM59.009 75.809c-3.945-.72-6.945-1.434-9.005-2.15l2.014-13.173c1.972.719 4.524 1.345 7.663 1.883 3.133.536 6.585.806 10.345.806 2.779 0 5.085-.356 6.924-1.075 1.834-.718 3.313-1.726 4.432-3.024a11.154 11.154 0 0 0 2.354-4.501c.447-1.704.673-3.494.673-5.379V44.62c-2.24.54-4.347.921-6.318 1.144a50.156 50.156 0 0 1-5.646.336c-3.851 0-7.545-.383-11.084-1.143-3.543-.762-6.651-2.016-9.343-3.762a19.284 19.284 0 0 1-6.383-6.789c-1.569-2.779-2.351-6.92-2.351-10.953 0-4.212.692-7.75 2.081-10.616 1.387-2.872 3.314-5.199 5.78-6.991 2.465-1.794 5.444-3.09 8.936-3.897 3.494-.805 7.345-1.21 11.558-1.21 6.364 0 12.076.38 17.136 1.14 5.064.762 8.849 1.413 11.355 2.692v45.233c0 3.38-.466 7.168-1.406 10.617-.94 3.449-2.511 6.384-4.705 8.802-2.199 2.42-5.132 4.3-8.804 5.647-3.672 1.342-8.198 2.015-13.576 2.015-4.479 0-8.69-.359-12.63-1.075zm4.165-59.95c-2.419 1.476-3.627 4.142-3.627 7.996 0 1.97.448 4.344 1.342 5.645.892 1.297 2.085 2.304 3.565 3.024 1.474.716 3.132 1.212 4.971 1.478a37.59 37.59 0 0 0 5.439.403c2.06 0 3.946-.135 5.646-.403 1.7-.266 3.004-.538 3.899-.806V14.448c-2.6-.54-6.407-.807-11.425-.807-4.118 0-7.391.74-9.81 2.218zm-51.005 59.21C7.466 74.039 3.545 72.94.41 71.776V2.218h16.261v58.94c.806.27 2.219.582 4.233.942 2.017.359 3.919.539 5.711.539 3.139 0 5.891-.247 8.268-.74 2.372-.494 4.234-.967 5.576-1.413l2.825 13.709c-.808.27-1.883.561-3.227.874a57.543 57.543 0 0 1-4.165.806 70.53 70.53 0 0 1-4.305.54 41.482 41.482 0 0 1-3.76.199c-5.737 0-10.956-.515-15.658-1.545zm280.192-4.808c-4.861-3.807-7.291-9.006-7.291-15.607 0-3.395.526-6.259 1.582-8.597 1.053-2.338 2.497-4.33 4.333-5.983 1.834-1.651 4.007-3.093 6.53-4.33 2.523-1.239 5.294-2.409 8.321-3.505 4.952-1.836 8.504-3.534 10.659-5.089 2.152-1.561 3.23-3.534 3.23-5.916 0-2.567-1.009-4.38-3.025-5.433-2.019-1.055-5.224-1.581-9.626-1.581-4.401 0-8.322.456-11.759 1.379-3.44.915-6.395 1.873-8.871 2.885l-2.887-13.89c1.56-.643 4.263-1.489 8.117-2.543C295.523.995 300.613.47 306.936.47c9.443 0 16.707 1.767 21.795 5.296 5.089 3.526 7.638 8.733 7.638 15.61 0 3.205-.417 5.955-1.242 8.251-.825 2.289-2.132 4.33-3.92 6.118-1.79 1.787-4.057 3.39-6.808 4.812-2.747 1.42-6.096 2.868-10.038 4.333-2.386.825-4.4 1.626-6.05 2.407-1.65.778-2.981 1.556-3.987 2.339-1.009.776-1.72 1.624-2.132 2.544-.413.913-.62 1.968-.62 3.16 0 2.385 1.054 4.151 3.162 5.297 2.112 1.145 4.86 1.718 8.252 1.718 3.758 0 7.06-.344 9.904-1.03 2.84-.688 5.18-1.447 7.014-2.271l3.022 13.476c-1.925.737-4.81 1.49-8.662 2.271-3.85.778-7.885 1.168-12.101 1.168-8.346 0-14.944-1.903-19.802-5.707zm-34.076 4.875V15.655c-1.073-.266-2.706-.492-4.905-.67a75.436 75.436 0 0 0-6.246-.269c-5.465 0-9.296 1.612-11.489 4.838-2.2 3.226-3.293 8.604-3.293 16.128v39.454h-16.268V33.13c0-4.753.493-9.118 1.48-13.104.986-3.991 2.625-7.416 4.905-10.284 2.286-2.868 5.331-5.105 9.142-6.717 3.806-1.614 8.533-2.419 14.178-2.419 6.004 0 11.511.425 16.529 1.273 5.018.853 9.096 1.682 12.23 2.488v70.77h-16.263zM187.829 2.217h16.261v72.918h-16.261V2.217z" transform="matrix(1 0 0 -1 293.5 111.75)" fill="url(#c)"/><text font-family="Alef" font-size="48" fill="#40B2DC"><tspan x="631" y="65">™</tspan></text></g></svg>