<svg width="239" height="82" xmlns="http://www.w3.org/2000/svg"><g fill="none"><path fill="#007D9E" d="M238.4 0v81.6H.01V0"/><path d="M122.81 60.7a1.8 1.8 0 0 1-2-1.58V23.7H109.2v2c0 1.5.1 2.7.1 2.7h-.2s-3.3-5.7-13.4-5.7c-12.3 0-21.2 9.6-21.2 24.4 0 14.4 8.1 24.4 20.81 24.4 10.69 0 14.5-7.6 14.5-7.6h.2v1.7c0 2.7 1.6 4.8 5.81 4.8h10.69v-9.8h-3.7v.1zm-25 1.1c-6.9 0-11.5-5.8-11.5-14.6 0-9.2 5.3-14.5 11.7-14.5 7.81 0 11.5 7.1 11.5 14.3-.01 10.4-5.7 14.8-11.7 14.8zM3.61 35.3a2.33 2.33 0 0 0-2.6-1.6h-1v-9.9h6.7c3.9 0 5.7 1.2 6.9 4.4l8.8 24.6c.7 2.2 1.3 4.4 1.8 6.7h.2a49.81 49.81 0 0 1 1.7-6.7l8.77-24.6c1.2-3.2 3.09-4.4 6.9-4.4h6.23v9.9h-1.13a2.58 2.58 0 0 0-2.6 1.7L30.8 70.5H17.01L3.61 35.3zm53.3.3a1.82 1.82 0 0 0-1.6-2h-4.1v-9.9h11.1c4.3 0 6.19 1.9 6.19 6.2v28.7a1.89 1.89 0 0 0 1.7 2h4v9.8H63.01c-4.3 0-6.19-1.8-6.19-6.2l.09-28.6zm74.2-2.6h-6.1v-9.3h6.31V10.9h11.39v12.8h10.6V33H142.7v18.9c0 7.7 6.11 8.8 9.3 8.8a14.92 14.92 0 0 0 2.11-.2v10.1c-1.193.2-2.4.3-3.61.3-6.5 0-19.5-2-19.5-17.6V33h.11z" fill="#FFF"/><path d="M179.5 22.6c14.31 0 25.7 10.2 25.7 24.5s-11.39 24.5-25.7 24.5c-14.31 0-25.62-10.1-25.62-24.5s11.43-24.5 25.62-24.5zm0 39.1c7.61 0 14-5.9 14-14.6s-6.3-14.6-14-14.6-13.89 6-13.89 14.6 6.4 14.6 13.89 14.6zm30.81-26.1a1.82 1.82 0 0 0-1.6-2h-4.11v-9.9h10.6c4.11 0 6.2 1.8 6.2 5.7v2.7a25.53 25.53 0 0 1-.2 2.9h.2c2.1-6.7 7.7-12 14.9-12a14.78 14.78 0 0 1 2.1.2v11.5a26.17 26.17 0 0 0-2.8-.2 13.27 13.27 0 0 0-12.8 9.8 28.28 28.28 0 0 0-1 7.6v18.5h-11.6V35.6h.11z" fill="#FFF"/><path d="M67.7 8.4a8.4 8.4 0 1 0-8.4 8.4h8.4V8.4z" fill="#EB7200"/></g></svg>