<svg width="714" height="206" xmlns="http://www.w3.org/2000/svg"><g fill="#3D1152"><path d="M112.2 46.9h42.1L98 202.9H56.8L.6 46.9h42l34.8 99.5zm56 0h39.9v156h-39.9zm157.1 120v36h-38.4c-27.8 0-39.9-14.8-39.9-39.9V82.9h-22.1v-36H247V.1h39.9v46.8h38.4v36h-38.4v71.7c0 7.3 1.8 12.4 11.5 12.4h26.9v-.1zm113-65.6c-2.7-13.9-12.7-22.7-29.1-22.7-13.9 0-23.6 6.7-27.5 17.2h-40.2c6.4-32.7 29.7-53.3 67.7-53.3 44.8 0 69.6 28.5 69.6 71.7v88.6h-39.9V185c-7.2 11.8-19.7 20.9-43.6 20.9-35.7 0-56.9-17.5-56.9-46.2 0-22.7 7.9-36.3 29.6-46.6 15.4-7.2 46.6-9.7 70.2-11.5v-.3h.1zm-59.9 53.9c0 7.5 5.7 15.7 23.6 15.7 20.6 0 36.9-11.5 36.9-31.2v-5.1c-22.7 1.5-44.4 3.3-52 7.3-6.7 3.2-8.5 6.6-8.5 13.3zm176.4 11.7v36h-19.4c-27.8 0-39.9-14.8-39.9-39.9V.1h39.9v154.5c0 7.3 1.8 12.4 11.5 12.4h7.9v-.1zm6.4-14.5h39.9c1.8 12.1 16 17.5 29.1 17.5 7.8 0 19.7-1.8 19.7-12.1 0-6.4-4.5-10-13.9-12.1l-32.7-7.3c-16.9-3.9-38.4-17.2-38.4-47.8 0-30.5 27.5-48.1 59.6-48.1 31.8 0 57.8 15.1 60.5 50.5h-40.8c-2.1-10-10.8-14.5-20.9-14.5-11.5 0-18.1 4.5-18.4 11.8 0 6.7 5.4 10 12.1 11.5l35.1 7.8c16.9 3.9 37.8 15.7 37.8 48.1 0 34.8-28.1 48.1-60.8 48.1-32.5.1-66.3-16.5-67.9-53.4M168.2.1h39.9v35.4h-39.9zm533 40.3c-6.8 0-12.3 5.3-12.3 11.9 0 6.8 5.4 12.1 12.3 12.1s12.2-5.3 12.2-12.1c0-6.6-5.3-11.9-12.2-11.9zm.1 21.4c-5.4 0-9.3-4.2-9.3-9.5 0-5.2 3.9-9.5 9.2-9.5 5.3 0 9.1 4.3 9.1 9.6 0 5.2-3.8 9.4-9 9.4z"/><path d="M706.1 55.6c-.4-1.6-1-2.5-2.2-2.9v-.1c1.4-.4 2.5-1.4 2.5-2.8 0-1.2-.5-2.1-1.2-2.6-.9-.5-1.9-.9-4.1-.9-2 0-3.5.1-4.6.4v11.9h2.8v-4.8h1.3c1.5 0 2.3.6 2.5 1.9.4 1.4.6 2.5.9 2.9h3c-.3-.5-.5-1.2-.9-3zm-5.4-3.8h-1.3v-3.4c.3-.1.8-.1 1.5-.1 1.7 0 2.5.7 2.5 1.8.1 1.2-1.2 1.7-2.7 1.7z"/></g></svg>