<svg width="3954" height="996" xmlns="http://www.w3.org/2000/svg"><g fill="none"><path d="M286.829 990.217h-6.438c-5.364 0-10.193-.537-15.558-1.61-6.438-1.073-12.339-2.682-17.704-6.438-2.682-1.61-5.364-3.755-6.974-5.901-2.682-3.755-5.364-8.047-6.438-12.339-2.146-8.047-3.755-16.631-5.901-24.678-1.61-6.438-3.219-13.412-4.292-19.849-1.61-6.974-2.682-13.412-3.755-20.386-1.073-5.364-2.146-11.266-2.682-16.631-.537-5.901-1.61-11.266-2.146-17.167-1.073-7.511-1.61-14.485-2.682-21.996-.537-5.364-1.073-10.73-1.073-16.631-.537-7.511-1.073-15.022-1.073-22.532-.537-5.364-.537-10.193-.537-15.558 0-10.73-.537-20.923-.537-31.652 0-25.215-.537-50.428-.537-75.643v-23.068c0-12.875 0-26.287.537-39.163v-.537c.537-4.829 1.073-9.656 1.073-15.022.537-4.829.537-9.656.537-14.485v-1.073c.537-4.292 1.073-8.584 1.073-12.875.537-4.292.537-8.047.537-12.339 0-2.682.537-5.364.537-7.511.537-5.901 1.073-11.266 2.146-17.167.537-4.829.537-9.12 1.61-13.948 1.073-7.511 2.682-15.558 3.755-23.068a252.256 252.256 0 0 1 6.438-27.36c1.61-4.829 3.219-10.193 4.292-15.022 2.682-10.193 4.829-20.923 7.511-31.116 3.755-13.948 6.974-28.434 10.73-42.382 4.292-17.167 8.584-33.798 12.875-50.965 3.755-15.558 8.047-31.116 12.339-47.21 4.829-18.777 9.656-37.017 14.485-55.794 2.682-11.266 5.901-21.996 8.584-33.261 2.683-11.265 5.901-23.068 8.584-34.334 1.073-5.364 2.146-11.266 3.219-16.631 1.073-5.901 2.146-11.803 2.682-17.704 1.073-5.901 1.61-11.803 2.682-17.167.537-4.829 1.073-9.656 1.61-13.948 1.073-7.511 2.146-14.485 3.219-21.996l3.219-22.532c2.146-10.193 3.755-19.849 6.438-29.506 2.146-8.047 4.292-16.631 10.73-23.068.537-.537.537-.537 1.073-.537 1.61 0 4.292.537 5.901.537 13.412 3.219 25.215 9.656 35.408 19.849 13.412 12.875 21.996 29.506 27.36 47.21 5.364 17.167 6.974 34.334 7.511 52.575.537 17.704-1.073 34.871-2.682 52.575-1.61 14.485-2.682 28.434-4.292 42.919-2.146 16.094-4.292 31.652-6.438 47.21-3.219 20.386-6.974 40.772-10.73 61.158-3.755 21.459-7.511 42.919-11.803 64.377-3.219 16.631-5.901 33.261-9.12 49.893 0 1.073.537 0 .537 1.61 2.682-2.146 10.73-11.803 15.558-16.094 17.167-17.704 33.798-26.824 49.893-36.48 13.412-7.511 20.386-9.656 31.652-13.948 20.386-7.511 41.309-10.193 62.768-5.364 26.824 5.901 48.82 19.313 68.132 39.163 8.047 8.584 15.558 17.704 21.459 27.36 13.948 21.459 28.434 41.845 44.527 61.695 1.073 1.61 2.682 2.682 3.755 3.755 10.193 8.584 20.923 17.167 31.116 25.751 6.438 5.364 11.803 11.266 14.485 19.313 1.073 3.219 1.61 5.901.537 9.12-1.073 2.682-1.61 5.364-2.682 8.047-10.193 33.261.537 72.424-13.412 104.613-15.558 42.919-35.944 75.643-53.647 102.467-8.047 13.948-24.678 33.798-27.36 36.48-33.261 39.163-24.678 27.36-41.845 45.601-10.73 9.656-28.434 25.751-39.163 33.798-19.849 15.558-39.7 27.897-54.721 37.017-28.97 17.704-52.575 26.287-78.862 38.09-17.167 7.511-34.871 12.875-53.112 18.241-17.704 5.364-35.408 8.584-53.647 11.266h-11.266l-.005-.004zM523.415 640.97c7.511-1.073 11.266-1.61 16.631-3.219 8.584-2.146 17.167-5.364 25.215-9.656 9.12-4.829 18.241-10.193 26.287-17.167 6.438-5.901 12.339-12.339 17.167-19.313 4.292-6.438 7.511-12.875 9.656-19.849.537-2.146 2.146-4.292 1.073-6.974-25.215-12.875-53.647-43.991-70.279-82.617-5.901 1.073-11.266 2.146-16.631 3.755-3.219 1.073-6.438 2.146-9.12 3.219-8.047 2.682-15.022 6.438-22.532 11.266-4.292 2.682-9.12 5.901-12.875 9.656-3.755 3.219-8.047 6.438-11.803 10.193-2.682 2.682-5.364 5.364-7.511 8.584-3.755 4.829-8.047 10.193-11.803 15.022-7.511 10.73-12.875 21.996-17.704 34.334-3.755 9.12-6.974 18.777-9.12 28.97-.537 1.61-.537 3.755 0 5.901 1.073.537 2.146 1.61 3.219 2.682 5.901 3.755 11.266 7.511 17.167 11.266 4.829 2.682 10.193 5.901 15.558 8.047 12.875 4.829 25.751 7.511 39.7 7.511l17.705-1.611zM213.868 995.582c-.537-.537-1.073-1.61-1.61-2.146-31.116-61.695-59.013-124.999-82.617-190.449a2930.076 2930.076 0 0 1-46.674-136.801c-10.193-32.189-20.386-64.914-30.042-97.639-15.022-50.428-28.97-101.395-42.919-152.36-2.682-9.656-4.829-19.313-7.511-28.434-.537-1.073-.537-1.61-1.073-3.755-.537-3.219-.537-3.219-.537-4.292l11.266-1.61c16.631-2.146 31.652 2.682 44.527 13.948 10.193 9.12 17.704 20.386 24.141 32.726 8.047 15.558 12.875 31.652 17.704 48.283 5.901 22.532 9.656 45.064 12.875 67.596 2.682 18.241 5.364 36.48 8.047 54.184 2.146 15.022 4.292 30.579 6.974 45.601 5.901 40.235 12.339 80.472 21.459 120.171 7.511 32.726 15.558 64.914 25.215 96.566 11.266 37.553 22.532 74.57 33.798 112.124l6.977 26.287z" fill="#1699BA"/><path d="M189.727 756.85c.537 7.511 1.073 15.558 1.61 23.068.537 6.974 1.073 15.022 2.146 21.996 1.073 9.656 1.073 18.241 2.682 27.897 2.682 15.558-.537 19.313 2.682 34.334l-9.12-107.295z" fill="#FFF"/><path d="M202.602 894.724c-16.094-40.772-19.849-76.18-30.579-118.562-8.047-31.116-15.022-62.768-20.923-94.42-3.219-16.631-5.901-33.798-8.584-50.428-1.61-11.266-2.682-22.532-3.755-33.261-.537-6.974-1.61-13.412-2.146-20.386-.537-5.364-1.073-10.73-1.073-16.094-.537-5.901-1.073-11.266-1.61-17.167-.537-3.219-.537-6.438-.537-9.656-.537-4.829-1.073-9.656-1.073-14.485v-3.755c-.537-5.901-1.073-11.266-1.073-17.167v-4.292c-1.073-8.047 0-16.631-1.073-24.678-.537-6.438-.537-13.412-.537-19.849v-97.102c0-4.829.537-10.193.537-15.022 0-6.974.537-13.948.537-20.923 0-4.829.537-9.12 1.073-13.948l1.61-20.923c.537-5.364 1.073-10.193 1.61-15.558l1.61-11.266c.537-4.829 1.073-10.193 1.61-15.558.537-4.829 1.073-10.193 2.146-15.022l1.61-16.094c.537-6.438 1.61-12.875 2.682-19.313 1.073-9.656 2.682-19.313 4.292-28.97 2.146-12.339 3.755-24.141 5.901-36.48.537-3.755 1.073-8.047 2.146-11.803.537-2.682.537-2.682 3.755-3.755 5.364-1.073 10.193 0 15.022 1.61 5.901 2.146 10.193 5.901 15.022 9.656 6.974 5.901 11.803 12.875 16.094 20.923 2.682 5.364 4.292 10.73 5.364 16.094 1.61 8.047 2.682 16.631 3.755 24.678 1.073 5.901 1.61 11.803 2.146 18.241.537 5.364 1.073 10.73 1.61 16.631.537 5.364.537 11.266.537 16.631 1.073 16.094.537 32.726.537 48.82 0 15.558 0 31.652-.537 47.21-.537 11.266 0 22.532-.537 34.334 0 5.364-1.073 10.193-1.073 15.558-.537 17.167-4.829 33.261-7.511 49.893-3.219 19.849-6.974 40.235-10.193 60.086-1.61 10.193-2.682 20.923-4.292 31.116l-1.61 17.704c-.537 7.511-1.073 15.022-2.146 22.532-.537 5.901-1.073 12.339-1.073 18.241-.537 7.511-1.073 15.558-1.073 23.068-.537 6.438-.537 12.875-.537 19.313-.537 11.266-.537 22.532-.537 33.798v10.193c.537 9.12 0 17.167.537 26.287 0 5.901.537 11.803.537 17.704 0 4.829 0 9.656.537 13.948l11.265 171.668z" fill="#1699BA"/><path d="M671.484 500.413c-57.939-27.36-121.781-18.241-121.781-18.241s10.73 26.287 26.287 44.527c15.558 18.241 19.313 21.459 31.116 30.579 9.656 6.974 12.875 8.047 12.875 8.047l97.639-17.704c-5.901-22.532-46.137-47.21-46.137-47.21l.001.002z" fill="#1C7393"/><path d="M1089.399 514.362L976.203 767.043c-4.829 10.73-16.094 18.241-27.897 18.241-11.803 0-22.532-7.511-27.36-18.241L807.213 513.826c-2.146-4.292-2.682-8.584-2.682-12.339 0-12.339 7.511-23.068 18.241-27.897 3.755-1.61 8.584-2.682 12.339-2.682 11.803 0 23.068 6.974 27.897 18.241l85.3 191.523 85.836-191.523c4.829-11.266 16.094-18.241 27.897-18.241 4.292 0 7.511.537 11.266 2.146 11.266 4.829 18.777 16.631 18.777 29.506.537 3.755-.537 7.511-2.682 11.803l-.003-.001zm160.407 273.603c-88.518 0-159.87-71.351-159.87-159.87s71.351-159.87 159.87-159.87 159.87 71.351 159.87 159.87c.537 88.518-70.815 159.87-159.87 159.87zm0-259.118c-55.794 0-92.274 44.527-92.274 99.248 0 54.721 36.48 99.248 92.274 99.248 55.794 0 92.274-44.527 92.274-99.248 0-54.721-35.944-99.248-92.274-99.248zm461.907 256.435c-18.777 0-34.334-16.094-34.334-34.871v-15.558c-20.386 30.579-59.549 53.112-99.785 53.112-79.935 0-125.536-60.621-125.536-142.703V504.169c0-18.777 14.485-33.798 33.798-33.798 19.313 0 34.334 14.485 34.334 33.798v139.484c0 47.746 26.824 83.691 76.716 83.691 51.502 0 81.008-39.7 81.008-84.764V504.169c0-18.777 14.485-33.798 33.798-33.798 18.777 0 34.334 14.485 34.334 33.798v246.243c-1.073 18.777-15.558 34.871-34.334 34.871l.001-.001zm355.147-46.673c-24.678 27.36-71.351 49.356-115.88 49.356-88.518 0-159.87-71.351-159.87-159.87s71.351-159.87 159.87-159.87c39.163 0 71.351 8.584 103.54 34.871 6.438 5.364 10.73 14.485 10.73 23.605 0 5.364-2.146 11.803-6.438 17.704-5.364 6.974-13.948 11.266-22.532 11.266-6.438 0-13.412-2.146-18.777-6.438-20.923-15.558-43.454-21.459-66.523-21.459-55.794 0-92.81 46.137-92.81 100.858 0 54.721 37.017 100.858 92.81 100.858 33.798 0 57.403-13.412 78.325-32.189 5.364-4.829 11.803-6.974 18.241-6.974 7.511 0 16.094 2.682 21.459 9.12 4.829 4.829 6.974 11.266 6.974 17.704 0 6.438-2.682 14.485-9.12 21.459l.001-.001zm313.304 46.673c-18.777 0-33.798-14.485-33.798-33.798V612.536c0-47.746-26.287-83.691-76.716-83.691-51.502 0-81.544 39.7-81.544 84.764V752.02c0 18.777-14.485 33.798-33.798 33.798-19.313 0-33.798-14.485-33.798-33.798V341.615c0-18.777 14.485-33.798 33.798-33.798 18.241 0 33.798 14.485 33.798 33.798v178.111c19.313-30.042 58.476-51.502 99.785-51.502 79.399 0 125.536 60.621 125.536 142.703V752.02c0 18.777-14.485 33.261-33.261 33.261l-.002.001zm361.585-136.264h-216.201c3.755 46.674 41.309 81.544 91.737 81.544 35.408 0 66.523-14.485 90.665-38.627 4.829-4.829 10.73-6.438 16.631-6.438 8.584 0 16.631 4.292 22.532 11.266 3.755 4.829 5.364 10.73 5.364 16.094 0 7.511-3.755 16.094-9.656 22.532-29.506 31.652-78.862 52.575-127.682 52.575-88.518 0-159.87-71.351-159.87-159.87s69.206-159.87 157.724-159.87c87.983 0 153.97 68.669 153.97 158.797 0 12.875-12.339 21.996-25.215 21.996l.001.001zm-128.754-123.391c-46.674 0-78.862 30.579-85.836 75.643h171.672c-6.438-42.919-39.7-75.643-85.836-75.643zm466.735 259.655c-18.777 0-34.334-15.558-34.334-34.334v-16.094c-19.313 33.798-56.867 53.112-99.785 53.112-88.518 0-151.823-68.669-151.823-159.87 0-91.737 60.621-159.87 151.823-159.87 44.527 0 82.617 21.459 99.785 53.647V341.617c0-18.777 15.558-33.798 34.334-33.798 18.776 0 34.334 14.485 34.334 33.798V750.95c0 18.777-15.558 34.334-34.334 34.334v-.002zm-125.536-256.435c-55.794 0-91.737 44.527-91.737 99.248 0 54.721 35.408 99.248 91.737 99.248 56.329 0 91.737-42.382 91.737-99.248-.537-56.867-35.944-99.248-91.737-99.248z" fill="#1699BA"/><path d="M3354.943 361.466h-19.849c-35.944 0-53.112 17.167-53.112 56.867v55.794h60.086c15.558 0 28.434 12.875 28.434 28.434 0 15.559-12.875 28.97-28.434 28.97h-60.086v219.42c0 18.777-15.558 34.334-34.334 34.334-18.776 0-34.334-15.558-34.334-34.334v-219.42h-42.382c-15.558 0-28.434-13.412-28.434-28.97 0-15.558 12.875-28.434 28.434-28.434h42.382v-48.82c0-74.034 33.798-121.244 116.415-121.244h25.215c15.558 0 28.434 13.412 28.434 28.97 0 16.094-12.875 28.434-28.434 28.434l-.001-.001zm184.012 426.499a160.958 160.958 0 0 1-161.479-161.479 160.959 160.959 0 0 1 161.479-161.479 160.958 160.958 0 0 1 161.479 161.479 160.959 160.959 0 0 1-161.479 161.479zm0-261.265c-56.33 0-92.81 45.064-92.81 100.321s36.48 100.321 92.81 100.321c56.33 0 92.81-45.064 92.81-100.321s-36.48-100.321-92.81-100.321zm383.044 0c-55.794 0-108.369 30.579-108.369 91.202v133.047c0 18.777-15.558 34.334-34.334 34.334-18.776 0-34.334-15.558-34.334-34.334V502.56c0-18.777 15.022-34.334 33.798-34.334 18.776 0 35.408 15.558 35.408 34.334v15.022c28.434-37.553 60.086-52.038 108.369-52.038 17.167 0 30.579 13.412 30.579 30.579s-14.485 30.579-31.116 30.579l-.001-.002zM922.018 843.222h61.158v12.339h-46.674v37.553h42.919v12.339h-42.919v51.502h-14.485V843.222zm96.03 9.12c0 4.829-3.755 9.12-9.656 9.12-5.364 0-9.12-4.292-9.12-9.12 0-5.364 3.755-9.12 9.12-9.12 5.901 0 9.656 4.292 9.656 9.12zm-16.631 104.614v-81.544h15.022v81.544h-15.022zm37.553-59.55c0-8.584 0-15.558-.537-21.996h13.412l1.073 13.412h.537c4.292-7.511 13.412-15.558 26.824-15.558 11.266 0 28.97 6.974 28.97 34.871v48.82h-15.022v-47.21c0-12.875-4.829-24.141-18.777-24.141-9.656 0-17.167 6.974-19.849 15.022-.537 1.61-1.073 4.292-1.073 6.974v48.82h-15.022v-59.013l-.536-.001zm136.802 59.55l-1.073-10.193h-.537c-4.292 6.438-13.412 12.339-24.678 12.339-16.631 0-24.678-11.803-24.678-23.605 0-19.849 17.704-30.579 48.82-30.579v-1.61c0-6.974-1.61-18.777-18.777-18.777-7.511 0-15.558 2.146-21.459 5.901l-3.219-9.656c6.974-4.292 16.631-7.511 26.824-7.511 24.678 0 31.116 17.167 31.116 33.261v30.579c0 6.974.537 13.948 1.61 19.313h-13.948l-.001.538zm-2.145-41.846c-16.094-.537-34.334 2.682-34.334 18.241 0 9.656 6.438 13.948 13.948 13.948 10.73 0 17.167-6.974 19.849-13.412.537-1.61 1.073-3.219 1.073-4.829V915.11h-.536zm36.48-17.704c0-8.584 0-15.558-.537-21.996h13.412l1.073 13.412h.537c4.292-7.511 13.412-15.558 26.824-15.558 11.266 0 28.97 6.974 28.97 34.871v48.82h-15.022v-47.21c0-12.875-4.829-24.141-18.777-24.141-9.656 0-17.167 6.974-19.849 15.022-.537 1.61-1.073 4.292-1.073 6.974v48.82h-15.022v-59.013l-.536-.001zm149.677 56.331c-3.755 2.146-12.339 4.829-23.605 4.829-24.678 0-40.772-16.631-40.772-41.845s17.167-43.454 43.991-43.454c8.584 0 16.631 2.146 20.386 4.292l-3.219 11.266c-3.755-2.146-9.12-3.755-17.167-3.755-18.777 0-28.97 13.948-28.97 30.579 0 18.777 12.339 30.579 28.434 30.579 8.584 0 13.948-2.146 18.241-4.292l2.682 11.803-.001-.002zm32.188-101.395c0 4.829-3.755 9.12-9.656 9.12-5.364 0-9.12-4.292-9.12-9.12 0-5.364 3.755-9.12 9.12-9.12 5.901 0 9.656 4.292 9.656 9.12zm-16.631 104.614v-81.544h15.022v81.544h-15.022zm82.618 0l-1.073-10.193h-.537c-4.292 6.438-13.412 12.339-24.678 12.339-16.631 0-24.678-11.803-24.678-23.605 0-19.849 17.704-30.579 48.82-30.579v-1.61c0-6.974-1.61-18.777-18.777-18.777-7.511 0-15.558 2.146-21.459 5.901l-3.219-9.656c6.974-4.292 16.631-7.511 26.824-7.511 24.678 0 31.116 17.167 31.116 33.261v30.579c0 6.974.537 13.948 1.61 19.313h-13.948l-.001.538zm-2.146-41.846c-16.094-.537-34.334 2.682-34.334 18.241 0 9.656 6.438 13.948 13.948 13.948 10.73 0 17.167-6.974 19.849-13.412.537-1.61 1.073-3.219 1.073-4.829V915.11h-.536zm36.48-77.79h15.022v119.634h-15.022zm90.665 83.691l-11.803 35.944h-15.022l38.627-113.733h17.704l38.627 113.733h-15.558l-12.339-35.944h-40.236zm37.018-11.266l-11.266-32.726c-2.682-7.511-4.292-13.948-5.901-20.923h-.537c-1.61 6.974-3.755 13.412-5.901 20.386l-11.266 32.726h34.871v.537zm115.878-72.425v98.711c0 7.511 0 15.558.537 20.923h-13.412l-.537-13.948h-.537c-4.292 9.12-14.485 16.094-27.897 16.094-19.849 0-34.871-16.631-34.871-41.309 0-27.36 16.631-43.991 36.48-43.991 12.339 0 20.923 5.901 24.678 12.339h.537v-48.82h15.022v.001zm-15.021 71.353c0-1.61 0-4.292-.537-6.438-2.146-9.656-10.193-17.167-21.459-17.167-15.558 0-24.678 13.412-24.678 31.652 0 16.631 8.047 30.042 24.141 30.042 10.193 0 18.777-6.438 21.996-17.704.537-2.146.537-4.292.537-6.438v-13.948.001zm43.455-33.263l16.094 45.601c2.682 7.511 4.829 13.948 6.438 20.923h.537c1.61-6.974 4.292-13.412 6.974-20.923l16.094-45.601h15.558l-32.189 81.544h-13.948l-31.116-81.544h15.558zm90.128-23.068c0 4.829-3.755 9.12-9.656 9.12-5.364 0-9.12-4.292-9.12-9.12 0-5.364 3.755-9.12 9.12-9.12 5.901 0 9.656 4.292 9.656 9.12zm-16.631 104.614v-81.544h15.022v81.544h-15.022zm35.407-15.022c4.292 2.682 12.339 5.901 19.313 5.901 10.73 0 16.094-5.364 16.094-12.339 0-6.975-4.292-10.73-15.022-15.022-14.485-5.364-21.459-13.412-21.459-23.068 0-13.412 10.73-24.141 27.897-24.141 8.047 0 15.558 2.146 19.849 4.829l-3.755 10.73c-3.219-2.146-9.12-4.829-16.631-4.829-8.584 0-13.412 4.829-13.412 11.266 0 6.974 4.829 9.656 15.558 13.948 13.948 5.364 21.459 12.339 21.459 24.678 0 14.485-11.266 24.678-30.579 24.678-9.12 0-17.167-2.146-23.068-5.364l3.755-11.266.001-.001zm75.108-23.068c.537 19.849 12.875 28.434 27.897 28.434 10.73 0 17.167-1.61 22.532-4.292l2.682 10.73c-5.364 2.146-13.948 4.829-27.36 4.829-25.215 0-40.235-16.631-40.235-41.309 0-24.678 14.485-43.991 38.09-43.991 26.824 0 33.798 23.605 33.798 38.627 0 3.219-.537 5.364-.537 6.974H1948.3v-.002zm43.454-10.73c0-9.656-3.755-24.141-20.386-24.141-15.022 0-21.459 13.948-22.532 24.141h42.919-.001zm31.116-7.511c0-9.656 0-17.704-.537-25.215h12.875l.537 16.094h.537c3.755-10.73 12.875-17.704 22.532-17.704 1.61 0 2.682 0 4.292.537v13.948c-1.61-.537-3.219-.537-4.829-.537-10.193 0-17.704 8.047-19.849 18.777-.537 2.146-.537 4.292-.537 6.974v43.454h-14.485v-56.33l-.536.002zm50.965 41.309c4.292 2.682 12.339 5.901 19.313 5.901 10.73 0 16.094-5.364 16.094-12.339 0-6.975-4.292-10.73-15.022-15.022-14.485-5.364-21.459-13.412-21.459-23.068 0-13.412 10.73-24.141 27.897-24.141 8.047 0 15.558 2.146 19.849 4.829l-3.755 10.73c-3.219-2.146-9.12-4.829-16.631-4.829-8.584 0-13.412 4.829-13.412 11.266 0 6.974 4.829 9.656 15.558 13.948 13.948 5.364 21.459 12.339 21.459 24.678 0 14.485-11.266 24.678-30.579 24.678-9.12 0-17.167-2.146-23.068-5.364l3.755-11.266.001-.001zm167.381-2.682c6.438 4.292 16.094 7.511 26.287 7.511 15.022 0 23.605-8.047 23.605-19.313 0-10.73-5.901-16.631-21.459-22.532-18.777-6.438-30.042-16.094-30.042-32.189 0-17.704 14.485-30.579 36.48-30.579 11.803 0 19.849 2.682 25.215 5.364l-4.292 11.803c-3.755-2.146-11.266-5.364-21.459-5.364-15.558 0-21.459 9.12-21.459 17.167 0 10.73 6.974 16.094 22.532 21.996 19.313 7.511 28.97 16.631 28.97 33.261 0 17.704-12.875 32.726-39.7 32.726-10.73 0-23.068-3.219-28.97-7.511l4.292-12.339v-.001zm156.115-23.605c0 30.042-20.923 43.454-40.772 43.454-21.996 0-39.163-16.094-39.163-41.845 0-27.36 17.704-43.454 40.235-43.454 24.141 0 39.7 16.631 39.7 41.845zm-64.377.536c0 17.704 10.193 31.116 24.678 31.116 13.948 0 24.678-13.412 24.678-31.652 0-13.948-6.974-31.116-24.678-31.116s-24.678 16.094-24.678 31.652zm81.544-78.863h15.022v119.634h-15.022zm54.184 15.022c0 4.829-3.755 9.12-9.656 9.12-5.364 0-9.12-4.292-9.12-9.12 0-5.364 3.755-9.12 9.12-9.12 6.438 0 9.656 4.292 9.656 9.12zm-16.631 104.614v-81.544h15.022v81.544h-15.022zm96.03-3.219c-3.755 2.146-12.339 4.829-23.605 4.829-24.678 0-40.772-16.631-40.772-41.845s17.167-43.454 43.991-43.454c8.584 0 16.631 2.146 20.386 4.292l-3.219 11.266c-3.755-2.146-9.12-3.755-17.167-3.755-18.777 0-28.97 13.948-28.97 30.579 0 18.777 12.339 30.579 28.434 30.579 8.584 0 13.948-2.146 18.241-4.292l2.682 11.803-.001-.002zm31.652-101.395c0 4.829-3.755 9.12-9.656 9.12-5.364 0-9.12-4.292-9.12-9.12 0-5.364 3.755-9.12 9.12-9.12 6.438 0 9.656 4.292 9.656 9.12zm-16.094 104.614v-81.544h15.022v81.544h-15.022zm55.257-105.15v23.605h21.459v11.266h-21.459v43.991c0 10.193 2.682 16.094 11.266 16.094 3.755 0 6.974-.537 8.584-1.073l.537 11.266c-2.682 1.073-7.511 2.146-12.875 2.146-6.974 0-12.339-2.146-16.094-6.438-4.292-4.292-5.901-11.803-5.901-21.459v-44.527h-12.875v-11.266h12.875v-19.313l14.485-4.292h-.002zm109.978 63.841c0 30.042-20.923 43.454-40.772 43.454-21.996 0-39.163-16.094-39.163-41.845 0-27.36 17.704-43.454 40.235-43.454 23.605 0 39.7 16.631 39.7 41.845zm-64.914.536c0 17.704 10.193 31.116 24.678 31.116 13.948 0 24.678-13.412 24.678-31.652 0-13.948-6.974-31.116-24.678-31.116-17.167 0-24.678 16.094-24.678 31.652zm81.544-15.558c0-9.656 0-17.704-.537-25.215h12.875l.537 16.094h.537c3.755-10.73 12.875-17.704 22.532-17.704 1.61 0 2.682 0 4.292.537v13.948c-1.61-.537-3.219-.537-4.829-.537-10.193 0-17.704 8.047-19.849 18.777-.537 2.146-.537 4.292-.537 6.974v43.454h-14.485v-56.33l-.536.002zm51.503 41.309c4.292 2.682 12.339 5.901 19.313 5.901 10.73 0 16.094-5.364 16.094-12.339 0-6.975-4.292-10.73-15.022-15.022-14.485-5.364-21.459-13.412-21.459-23.068 0-13.412 10.73-24.141 27.897-24.141 8.047 0 15.558 2.146 19.849 4.829l-3.755 10.73c-3.219-2.146-9.12-4.829-16.631-4.829-8.584 0-13.412 4.829-13.412 11.266 0 6.974 4.829 9.656 15.558 13.948 13.948 5.364 21.459 12.339 21.459 24.678 0 14.485-11.266 24.678-30.579 24.678-9.12 0-17.167-2.146-23.068-5.364l3.755-11.266.001-.001zm187.23-20.923l-11.803 35.944h-15.022l38.627-113.733h17.704l38.627 113.733h-15.558l-12.339-35.944h-40.236zm37.017-11.266l-11.266-32.726c-2.682-7.511-4.292-13.948-5.901-20.923h-.537c-1.61 6.974-3.755 13.412-5.901 20.386l-11.266 32.726h34.871v.537zm103.541 43.992c-3.755 2.146-12.339 4.829-23.605 4.829-24.678 0-40.772-16.631-40.772-41.845s17.167-43.454 43.991-43.454c8.584 0 16.631 2.146 20.386 4.292l-3.219 11.266c-3.755-2.146-9.12-3.755-17.167-3.755-18.777 0-28.97 13.948-28.97 30.579 0 18.777 12.339 30.579 28.434 30.579 8.584 0 13.948-2.146 18.241-4.292l2.682 11.803-.001-.002zm73.497 0c-3.755 2.146-12.339 4.829-23.605 4.829-24.678 0-40.772-16.631-40.772-41.845s17.167-43.454 43.991-43.454c8.584 0 16.631 2.146 20.386 4.292l-3.219 11.266c-3.755-2.146-9.12-3.755-17.167-3.755-18.777 0-28.97 13.948-28.97 30.579 0 18.777 12.339 30.579 28.434 30.579 8.584 0 13.948-2.146 18.241-4.292l2.682 11.803-.001-.002zm89.592-38.09c0 30.042-20.923 43.454-40.772 43.454-21.996 0-39.163-16.094-39.163-41.845 0-27.36 17.704-43.454 40.235-43.454 23.605 0 39.7 16.631 39.7 41.845zm-64.915.536c0 17.704 10.193 31.116 24.678 31.116 13.948 0 24.678-13.412 24.678-31.652 0-13.948-6.974-31.116-24.678-31.116-17.167 0-24.678 16.094-24.678 31.652zm149.678 18.777c0 8.584 0 16.094.537 21.996h-12.875l-1.073-13.412h-.537c-3.755 6.438-12.339 15.022-26.824 15.022-12.875 0-27.897-6.974-27.897-35.944v-47.746H3319v45.064c0 15.558 4.829 25.751 18.241 25.751 10.193 0 16.631-6.974 19.313-13.412 1.073-2.146 1.61-4.829 1.61-7.511v-49.893h15.022v60.086l-.539-.001zm23.069-37.554c0-8.584 0-15.558-.537-21.996h13.412l1.073 13.412h.537c4.292-7.511 13.412-15.558 26.824-15.558 11.266 0 28.97 6.974 28.97 34.871v48.82h-15.022v-47.21c0-12.875-4.829-24.141-18.777-24.141-9.656 0-17.167 6.974-19.849 15.022-.537 1.61-1.073 4.292-1.073 6.974v48.82h-15.022v-59.013l-.536-.001zm109.441-45.6v23.605h21.459v11.266h-21.459v43.991c0 10.193 2.682 16.094 11.266 16.094 3.755 0 6.974-.537 8.584-1.073l.537 11.266c-2.682 1.073-7.511 2.146-12.875 2.146-6.974 0-12.339-2.146-16.094-6.438-4.292-4.292-5.901-11.803-5.901-21.459v-44.527h-12.875v-11.266h12.875v-19.313l14.485-4.292h-.002zm81.008 105.15l-1.073-10.193h-.537c-4.292 6.438-13.412 12.339-24.678 12.339-16.631 0-24.678-11.803-24.678-23.605 0-19.849 17.704-30.579 48.82-30.579v-1.61c0-6.974-1.61-18.777-18.777-18.777-7.511 0-15.558 2.146-21.459 5.901l-3.219-9.656c6.974-4.292 16.631-7.511 26.824-7.511 24.678 0 31.116 17.167 31.116 33.261v30.579c0 6.974.537 13.948 1.61 19.313h-13.948l-.001.538zm-2.146-41.846c-16.094-.537-34.334 2.682-34.334 18.241 0 9.656 6.438 13.948 13.948 13.948 10.73 0 17.167-6.974 19.849-13.412.537-1.61 1.073-3.219 1.073-4.829V915.11h-.536zm36.481-17.704c0-8.584 0-15.558-.537-21.996h13.412l1.073 13.412h.537c4.292-7.511 13.412-15.558 26.824-15.558 11.266 0 28.97 6.974 28.97 34.871v48.82h-15.022v-47.21c0-12.875-4.829-24.141-18.777-24.141-9.656 0-17.167 6.974-19.849 15.022-.537 1.61-1.073 4.292-1.073 6.974v48.82h-15.022v-59.013l-.536-.001zm109.441-45.6v23.605h21.459v11.266h-21.459v43.991c0 10.193 2.682 16.094 11.266 16.094 3.755 0 6.974-.537 8.584-1.073l.537 11.266c-2.682 1.073-7.511 2.146-13.412 2.146-6.974 0-12.339-2.146-16.094-6.438-4.292-4.292-5.901-11.803-5.901-21.459v-44.527h-11.803v-11.266h12.875v-19.313l13.948-4.292zm34.334 90.128c4.292 2.682 12.339 5.901 19.313 5.901 10.73 0 16.094-5.364 16.094-12.339 0-6.975-4.292-10.73-15.022-15.022-14.485-5.364-21.459-13.412-21.459-23.068 0-13.412 10.73-24.141 27.897-24.141 8.047 0 15.558 2.146 19.849 4.829l-3.755 10.73c-3.219-2.146-9.12-4.829-16.631-4.829-8.584 0-13.412 4.829-13.412 11.266 0 6.974 4.829 9.656 15.558 13.948 13.948 5.364 21.459 12.339 21.459 24.678 0 14.485-11.266 24.678-30.579 24.678-9.12 0-17.167-2.146-23.068-5.364l3.755-11.266.001-.001zm-1561.149-24.142c0 10.666-8.647 19.313-19.313 19.313-10.666 0-19.313-8.647-19.313-19.313 0-10.666 8.647-19.313 19.313-19.313 10.666 0 19.313 8.647 19.313 19.313zm721.563 0c0 10.666-8.647 19.313-19.313 19.313-10.666 0-19.313-8.647-19.313-19.313 0-10.666 8.647-19.313 19.313-19.313 10.666 0 19.313 8.647 19.313 19.313z" fill="#595958"/></g></svg>