<svg width="409" height="97" xmlns="http://www.w3.org/2000/svg"><g fill="none"><path d="M236.7 51.2c0-9.5-4.1-17.8-17.8-17.8-7 0-12.6 2-15.7 3.7l2.2 7.6c2.8-1.8 7.2-3.2 11.4-3.2 6.9 0 8.1 3.9 8.1 6.5v.6c-15.1 0-24.7 5.2-24.7 15.9 0 6.5 4.9 12.6 13.4 12.6 5.2 0 9.6-2.1 12.2-5.4h.3s1.7 7.2 11.3 4.5c-.5-3-.7-6.2-.7-10.1V51.2zm-11.3 10c0 .8-.1 1.6-.3 2.3-.9 2.9-3.9 5.4-7.6 5.4-3.1 0-5.6-1.8-5.6-5.5 0-5.8 6.3-7.3 13.5-7.3v5.1zM.7 20.5s9.9 40.6 11.5 47.1c1.8 7.7 5.2 10.5 14.7 8.6l6.2-25.1c1.6-6.2 2.6-10.7 3.6-17.1h.2c.7 6.4 1.7 10.8 3 17.1 0 0 2.5 11.4 3.8 17.4 1.3 6 4.9 9.8 14.3 7.7l14.7-55.7H60.8l-5 24.1c-1.4 7-2.6 12.5-3.5 18.9h-.2c-.9-6.4-2-11.6-3.3-18.5l-5.2-24.6H31.1l-5.6 23.9c-1.6 7.3-3.1 13.2-4 19.3h-.2c-1-5.8-2.3-13.2-3.6-20.3 0 0-3.3-17.1-4.5-23H.7v.2zm105.8 30.7c0-9.5-4.1-17.8-17.8-17.8-7 0-12.6 2-15.7 3.7l2.2 7.6c2.8-1.8 7.2-3.2 11.4-3.2 7 0 8.1 3.9 8.1 6.5v.6C79.5 48.6 70 53.8 70 64.5c0 6.5 4.9 12.6 13.3 12.6 5.2 0 9.6-2.1 12.2-5.4h.3s1.7 7.2 11.3 4.5c-.5-3-.7-6.2-.7-10.1V51.2h.1zm-11.3 10c0 .8-.1 1.6-.3 2.3-.9 2.9-3.9 5.4-7.6 5.4-3.1 0-5.6-1.8-5.6-5.5 0-5.8 6.3-7.3 13.5-7.3v5.1zm30.1 3.2V20.5H114v55.7h11.3V64.4zm148.2-43.9v41.1c0 5.7 1.1 9.6 3.4 12.1 2 2.1 5.3 3.5 9.2 3.5 3.4 0 6.6-.6 8.2-1.2l-.1-8.8c-1.2.3-2.5.5-4.3.5-3.9 0-5.1-2.5-5.1-7.6V44.4h9.9V33.7h-9.9V20.5h-11.3zm-29.3 13.8v41.9h11.7V54.8c0-1.2.1-2.2.3-3.1.9-4.5 4.3-7.4 9.2-7.4 1.4 0 2.3.1 3.4.3v-11c-.9-.2-1.5-.3-2.6-.3-4.4 0-9.3 2.8-11.4 8.8h-.3v-7.9h-10.3v.1zm-110.9 0v41.9h11.4V51.6c0-1.2.1-2.4.5-3.4.9-2.5 3.2-5.4 6.9-5.4 4.6 0 6.7 3.9 6.7 9.5v23.9h11.4V51.3c0-1.1.2-2.4.5-3.4.9-2.8 3.4-5.1 6.8-5.1 4.7 0 6.9 3.8 6.9 10.4v22.9h11.4V51.4c0-13-6.6-18.2-14.1-18.2-3.3 0-5.9.8-8.3 2.3-2 1.2-3.8 2.9-5.3 5.2h-.1c-1.8-4.5-6-7.5-11.5-7.5-7.1 0-10.3 3.6-12.2 6.6h-.2v-5.7h-10.8v.2z" fill="#1479BF"/><path d="M355.7 32.6c2.3 0 4.1-1.2 4.4-2.7l2.2-25.1c0-2.5-2.9-4.5-6.6-4.5-3.7 0-6.6 2-6.6 4.5l2.2 25.1c.3 1.6 2.1 2.7 4.4 2.7zm-13.6 7.9c1.1-1.9 1-4.1-.1-5.1l-20.7-14.5c-2.1-1.2-5.4.3-7.2 3.4-1.8 3.2-1.5 6.7.6 7.9l22.9 10.7c1.4.5 3.4-.5 4.5-2.4zm27.2 0c1.1 1.9 3.1 3 4.5 2.4l22.9-10.7c2.2-1.2 2.5-4.8.6-7.9-1.8-3.2-5.1-4.7-7.2-3.4l-20.7 14.5c-1.2 1-1.2 3.1-.1 5.1zM355.7 64c2.3 0 4.1 1.2 4.4 2.7l2.2 25.1c0 2.5-2.9 4.5-6.6 4.5-3.7 0-6.6-2-6.6-4.5l2.2-25.1c.3-1.5 2.1-2.7 4.4-2.7zm13.6-7.8c1.1-2 3.1-3 4.5-2.4l22.9 10.6c2.2 1.2 2.5 4.8.6 8-1.8 3.2-5.1 4.7-7.2 3.4l-20.7-14.5c-1.2-1-1.2-3.2-.1-5.1zm-27.2 0c1.1 1.9 1 4.1-.1 5.1l-20.7 14.5c-2.1 1.2-5.4-.3-7.2-3.4-1.8-3.2-1.5-6.7.6-8l22.9-10.6c1.4-.6 3.4.4 4.5 2.4zm62.6 14.4c2 0 3.6 1.6 3.6 3.6 0 2.1-1.6 3.6-3.6 3.6s-3.7-1.6-3.7-3.6 1.6-3.6 3.7-3.6zm0 .7c-1.6 0-2.9 1.3-2.9 2.9 0 1.7 1.2 3 2.9 3 1.6 0 2.8-1.3 2.8-2.9 0-1.7-1.2-3-2.8-3zm-.7 4.9h-.7v-3.8c.4-.1.8-.1 1.3-.1.6 0 .9.1 1.2.3.2.2.4.5.4.8 0 .5-.3.8-.7.9.3.1.5.4.6.9.1.6.2.8.3.9h-.7c-.1-.1-.2-.5-.3-1-.1-.4-.3-.6-.9-.6h-.5v1.7zm0-2.1h.5c.5 0 1-.2 1-.6 0-.4-.2-.6-.9-.6h-.5v1.2h-.1z" fill="#FCBB30"/></g></svg>