<svg width="605" height="84" xmlns="http://www.w3.org/2000/svg"><path d="M11.96 81.92L-.04 6.5h19.23l4.3 30.11a122 122 0 0 1 1.26 17l.32.1 10.06-40.48h15.63l9.55 40.59.31-.11a131.48 131.48 0 0 1 1.26-16.47L66.3 6.46h19.2L73.44 81.88H55.07l-8.08-27.17a141.34 141.34 0 0 1-4.09-16.68h-.31a166.73 166.73 0 0 1-4.09 17.1l-8.18 26.75H11.96v.04zm129.35-44.9a56 56 0 0 1 .41 7.14v37.76h-19.4V46.57a23 23 0 0 0-.11-2.83c-.31-2.84-2.09-3.46-4-3.46a12.47 12.47 0 0 0-6.4 2v39.65H92.32V6.46h19.51v21.82a25.58 25.58 0 0 1 13.85-3.82c10.17 0 14.51 5 15.63 12.56zm12.28-9.64c4-1.47 13.53-2.94 20.46-2.94 16.47 0 23.5 5.87 23.5 23.7v17.2c0 2.62.73 4.51 3.15 4.51a9.61 9.61 0 0 0 2.62-.53l1.56 11.14a22.38 22.38 0 0 1-10.49 2.52c-6.4 0-10-2.1-12.16-6.29-4 3.46-7.87 6.29-15.63 6.29-11.85 0-17.52-7.87-17.52-18 0-12.48 6.92-19.72 21.92-19.72a31.65 31.65 0 0 1 8.19 1v-.74c0-5.45-4.72-7-9.76-7a50.43 50.43 0 0 0-14 2.41l-1.84-13.55zm25.6 30.08a9.32 9.32 0 0 0-4.83-1.26c-3.87 0-6.5 1.89-6.5 6.72 0 4.41 1.79 6.4 5 6.4a8.11 8.11 0 0 0 6.29-3.57v-8.29h.04zm51.5-18.65v22.76c0 3.46.84 5.66 4.51 5.66a14.2 14.2 0 0 0 6.3-1.57l2.31 14.48c-3.88 1.89-10.08 2.94-15 2.94-12.9 0-17.62-7.24-17.62-17.2V38.81h-7.34V25.38h7.34v-9.65l19.51-8.71v18.36h10.91V38.8h-10.92v.01zm75.33 39.02a51 51 0 0 1-24 5.56c-25.48 0-33.46-20.56-33.46-38.6 0-20.25 7.14-39.86 31.68-39.86 19.71 0 25.59 11.33 27.69 21.71l-18.57 4.51c-1.46-7.13-4.4-10.91-9-10.91-9.64 0-10.8 13.74-10.8 23.81 0 14.58 4.51 23.08 15.84 23.08 6.19 0 11.54-2.1 17.41-5.14l3.21 15.84zm8.17-71.37h19.51v55.8c0 3.57 1.46 4.93 3.88 4.93 1.57 0 2.93-.21 5.87-1.57l2.31 14.48a33.87 33.87 0 0 1-14.15 2.94c-13.74 0-17.41-7.45-17.41-18V6.46h-.01zM361.1 0c6.7 0 10.9 3.56 10.9 10.49s-4.72 10.38-10.8 10.38c-6.3 0-10.7-3.88-10.7-10.28C350.5 3.56 355.12 0 361.1 0zm9.85 25.39v56.54h-19.4V25.38h19.4v.01zm59.48 11.63a55.61 55.61 0 0 1 .42 7.14v37.76h-19.4V46.57a22.91 22.91 0 0 0-.11-2.83c-.31-2.84-2.1-3.46-4-3.46a13.5 13.5 0 0 0-6.39 2v39.65h-19.5V25.38h16.89l.85 4.08a25 25 0 0 1 15.21-5c10.58 0 14.88 5 16.03 12.56zM450.89 0c6.72 0 10.92 3.56 10.92 10.49S457.09 20.87 451 20.87c-6.29 0-10.7-3.88-10.7-10.28C440.31 3.56 444.92 0 450.89 0zm9.87 25.39v56.54h-19.41V25.38h19.41v.01zm51.82 38.49l.94 15.73A43.62 43.62 0 0 1 496 83.18c-21.4 0-27.37-15.52-27.37-29.58 0-14.37 6.3-29.16 26.43-29.16 12.6 0 19.2 7 21.08 17l-15.84 4.93c-.84-3.77-1.68-6.81-5.66-6.81-4.31 0-6 5.14-6 12.8 0 9.44 2.62 15.21 10.6 15.21 4.32-.02 9.67-1.8 13.34-3.69zm9.87 10.51a3.65 3.65 0 0 1 3.84 4 3.78 3.78 0 0 1-3.92 4c-2.37 0-3.73-1.62-3.73-3.93a3.77 3.77 0 0 1 3.81-4.07zm24.74.41l.37 6.21a17.2 17.2 0 0 1-6.91 1.4c-8.45 0-10.82-6.13-10.82-11.68s2.49-11.51 10.43-11.51c5 0 7.58 2.78 8.33 6.71l-6.25 2c-.33-1.5-.66-2.69-2.23-2.69-1.57 0-2.36 2-2.36 5 0 3.73 1 6 4.18 6a12.9 12.9 0 0 0 5.26-1.44zm2.42-3.93c0-6.55 3.4-11.64 10.52-11.64 7.82 0 10.06 5.22 10.06 11.31 0 6.29-2.86 11.93-10.52 11.93s-10.06-5.69-10.06-11.6zm12.68-.13c0-3.56-.37-5.63-2.28-5.63-1.91 0-2.48 2.11-2.48 5.71 0 3.89.49 5.71 2.36 5.71 1.87 0 2.39-2.23 2.39-5.79h.01zm29.15-9.36a11.28 11.28 0 0 1 6.63-2.16c4.18 0 5.88 2 6.34 5 .114.936.167 1.878.16 2.82v14.91h-7.66v-14c.02-.373.02-.747 0-1.12a1.39 1.39 0 0 0-1.62-1.37 5.09 5.09 0 0 0-2.49.79V81.9h-7.61v-14c.02-.373.02-.747 0-1.12a1.39 1.39 0 0 0-1.58-1.37 5.3 5.3 0 0 0-2.52.79v15.65h-7.71V59.6h6.67l.33 1.61a9.68 9.68 0 0 1 6-2 6.21 6.21 0 0 1 5.06 2.17z" fill="#FFF"/></svg>