<svg width="301" height="148" xmlns="http://www.w3.org/2000/svg"><g fill="none" fill-rule="evenodd"><path d="M294.725 82.832c-1.916-1.449-2.231-1.67-13.748-5.463 9.975-2.454 10.404-2.715 12.172-3.877 4.005-2.714 6.143-7.217 5.832-12.094l-.039-.532c-.813-7.827-10.896-22.596-17.685-25.91-4.477-2.139-9.458-1.838-13.379.797-1.847 1.222-2.093 1.39-9.675 11.739-.738-12.093-2.162-33.418-2.512-35.413l-.074-.459-.113-.443c-1.296-4.685-4.97-8.202-9.837-9.424-8.123-2.024-29.606 4.03-35.37 9.97-3.384 3.533-4.684 8.286-3.517 12.745l.237.886.399.823c.551 1.138 2.005 3.547 14.472 23.108l4.596 7.241c-11.162-4.566-11.605-4.58-13.916-4.6-4.399-.193-8.807 2.162-11.463 6.32l-.049.078c-1.37 2.207-2.217 5.207-2.744 8.35-3.596-4.847-9.01-8.734-17.216-10.345-5.818-1.167-11.276-.463-16.419 1.616-4.71-3.005-11.182-3.354-16.596-.266a13.64 13.64 0 0 0-3.901 3.29v-6.64l-.518-3.945-.157-.71c-1.089-4.28-4.32-7.891-8.645-9.665l-.04-.02c-4.749-1.916-10.074-1.457-14.59 1.247-4.814 2.842-7.282 7.561-7.282 14.015v13.541a26.665 26.665 0 0 0-6.34-6.886c-6.758-5.123-15.822-6.852-26.196-4.99-6.015 1.044-11.045 3.67-15.03 7.522l-.192-.4c-2.024-3.625-5.31-6.117-9.517-7.22-7.025-1.927-15.94.462-19.62 13.024l-1.414 4.803c-1.611-2.956-5.788-11.03-5.96-11.271-3.764-5.705-11.301-8.178-18.04-5.498C4.127 60.33.359 66.058.359 72.792c0 2.123.369 4.335 1.142 6.582l.192.546 17.251 35.138c-6.221 1.64-10.655 6.28-11.374 12.645a14.547 14.547 0 0 0 4.65 12.572c4.68 4.32 11.95 5.748 20.488 4 9.275-1.823 14.61-7.414 18.35-19.271l5.689-17.877c1.852 7.527 5.222 12.443 8.419 15.596 4.596 4.547 13.014 9.576 26.95 7.695 10.355-1.449 17.522-6.084 21.394-11.532l.251 1.315c1.104 3.887 4.104 7.34 8.133 9.177a15.793 15.793 0 0 0 13.365-.089c2.231-.97 4.123-2.502 5.596-4.418v5.635c0 9.315 5.389 13.276 8.6 14.813a16.103 16.103 0 0 0 13.582.38c4.128-1.789 7.192-5.193 8.394-9.326l.187-.635.561-3.843v-1.65c5.601.572 11.449-.34 16.596-3.01a27.79 27.79 0 0 0 6.045-4.241h3.783c2.059 1.084 4.399 1.759 6.916 1.759 2.527 0 4.862-.675 6.916-1.76h10.97c7.267 4.09 17.887 7.188 23.572 6.213 4.896-.867 8.754-4.02 10.384-8.439l.084-.221c.69-2.01.803-2.385.852-13.74 6.227 10.06 6.552 10.326 8.3 11.705 3.76 2.931 8.7 3.577 13.261 1.74 7.326-2.942 18.518-17.168 19.64-24.976.094-.68.148-1.37.148-2.044 0-4.089-1.763-7.877-4.92-10.4zM181.056 56.32c.015.01.025.01.04.01.01.01.02.01.034.01l-.074-.02zm98.812 63.93h-.01c-.014 0-.02.015-.034.02l.044-.02z" fill="#FFF" fill-rule="nonzero"/><path d="M294.725 82.832c-1.916-1.449-2.231-1.67-13.748-5.463 9.975-2.454 10.404-2.715 12.172-3.877 4.005-2.714 6.143-7.217 5.832-12.094l-.039-.532c-.813-7.827-10.896-22.596-17.685-25.91-4.477-2.139-9.458-1.838-13.379.797-1.847 1.222-2.093 1.39-9.675 11.739-.738-12.093-2.162-33.418-2.512-35.413l-.074-.459-.113-.443c-1.296-4.685-4.97-8.202-9.837-9.424-8.123-2.024-29.606 4.03-35.37 9.97-3.384 3.533-4.684 8.286-3.517 12.745l.237.886.399.823c.551 1.138 2.005 3.547 14.472 23.108l4.596 7.241c-11.162-4.566-11.605-4.58-13.916-4.6-4.399-.193-8.807 2.162-11.463 6.32l-.049.078c-1.37 2.207-2.217 5.207-2.744 8.35-3.596-4.847-9.01-8.734-17.216-10.345-5.818-1.167-11.276-.463-16.419 1.616-4.71-3.005-11.182-3.354-16.596-.266a13.64 13.64 0 0 0-3.901 3.29v-6.64l-.518-3.945-.157-.71c-1.089-4.28-4.32-7.891-8.645-9.665l-.04-.02c-4.749-1.916-10.074-1.457-14.59 1.247-4.814 2.842-7.282 7.561-7.282 14.015v13.541a26.665 26.665 0 0 0-6.34-6.886c-6.758-5.123-15.822-6.852-26.196-4.99-6.015 1.044-11.045 3.67-15.03 7.522l-.192-.4c-2.024-3.625-5.31-6.117-9.517-7.22-7.025-1.927-15.94.462-19.62 13.024l-1.414 4.803c-1.611-2.956-5.788-11.03-5.96-11.271-3.764-5.705-11.301-8.178-18.04-5.498C4.127 60.33.359 66.058.359 72.792c0 2.123.369 4.335 1.142 6.582l.192.546 17.251 35.138c-6.221 1.64-10.655 6.28-11.374 12.645a14.547 14.547 0 0 0 4.65 12.572c4.68 4.32 11.95 5.748 20.488 4 9.275-1.823 14.61-7.414 18.35-19.271l5.689-17.877c1.852 7.527 5.222 12.443 8.419 15.596 4.596 4.547 13.014 9.576 26.95 7.695 10.355-1.449 17.522-6.084 21.394-11.532l.251 1.315c1.104 3.887 4.104 7.34 8.133 9.177a15.793 15.793 0 0 0 13.365-.089c2.231-.97 4.123-2.502 5.596-4.418v5.635c0 9.315 5.389 13.276 8.6 14.813a16.103 16.103 0 0 0 13.582.38c4.128-1.789 7.192-5.193 8.394-9.326l.187-.635.561-3.843v-1.65c5.601.572 11.449-.34 16.596-3.01a27.79 27.79 0 0 0 6.045-4.241h3.783c2.059 1.084 4.399 1.759 6.916 1.759 2.527 0 4.862-.675 6.916-1.76h10.97c7.267 4.09 17.887 7.188 23.572 6.213 4.896-.867 8.754-4.02 10.384-8.439l.084-.221c.69-2.01.803-2.385.852-13.74 6.227 10.06 6.552 10.326 8.3 11.705 3.76 2.931 8.7 3.577 13.261 1.74 7.326-2.942 18.518-17.168 19.64-24.976.094-.68.148-1.37.148-2.044 0-4.089-1.763-7.877-4.92-10.4z" stroke="#BDBCBC" stroke-width=".714" stroke-linecap="round" stroke-linejoin="round"/><path d="M181.056 56.32l.04.01c.014.01.02.01.04.01l-.08-.02zm98.817 63.93h-.015c-.01 0-.014.015-.03.02l.045-.02z" stroke="#BDBCBC" stroke-width=".714" stroke-linecap="round" stroke-linejoin="round"/><path d="M206.592 67.059c-1.778 2.847-2.522 11.793-1.907 17.738.212 1.96.562 3.596 1.09 4.567.709 1.354 1.9 2.162 3.26 2.207.862.044 1.41-.099 17.803-5.385 0 0 7.286-2.315 7.325-2.33 1.803-.468 3.035-2.133 3.153-4.266.118-2.192-1.02-4.118-2.872-4.817l-5.143-2.099c-17.625-7.27-18.409-7.546-19.305-7.556-1.355-.064-2.562.63-3.404 1.94m39.404 54.148c.29-.828.32-1.394.364-18.616 0 0 .044-7.61.06-7.694.108-1.852-1.094-3.557-3.075-4.32-2.034-.789-4.226-.306-5.463 1.231 0 0-3.586 4.256-3.6 4.261-12.34 14.507-12.858 15.168-13.153 16.035a3.423 3.423 0 0 0-.202 1.576c.079.763.418 1.537 1.005 2.226 2.857 3.414 16.586 8.463 20.96 7.715 1.522-.276 2.636-1.143 3.104-2.414m27.832-5.996c4.148-1.65 13.182-13.137 13.812-17.55.217-1.543-.26-2.863-1.325-3.715-.684-.522-1.231-.724-17.6-6.103 0 0-7.197-2.375-7.276-2.414-1.749-.68-3.73-.054-5.064 1.596-1.39 1.69-1.606 3.911-.488 5.6l2.892 4.705c9.729 15.803 10.463 16.916 11.162 17.468 1.084.842 2.468.995 3.887.414m-8.448-40.67c18.62-4.502 19.334-4.739 20.073-5.221 1.128-.769 1.685-2.03 1.591-3.591 0-.055.005-.099 0-.153-.482-4.567-8.487-16.463-12.433-18.394-1.404-.665-2.803-.62-3.956.148-.719.482-1.256 1.172-11.216 14.817 0 0-4.508 6.138-4.562 6.192-1.187 1.439-1.202 3.513-.05 5.29 1.198 1.838 3.237 2.735 5.1 2.218 0 0-.084.128-.1.157.912-.35 2.567-.753 5.553-1.463m-18.7-15.374c-.325-7.38-2.537-40.231-2.798-41.748-.38-1.39-1.458-2.37-3.01-2.759-4.743-1.182-22.916 3.916-26.28 7.39-1.074 1.122-1.478 2.516-1.158 3.748.527 1.084 23.034 36.497 23.034 36.497 3.33 5.399 6.045 4.557 6.931 4.28.887-.275 3.587-1.117 3.281-7.408" fill="#E9E9E9" fill-rule="nonzero"/><path d="M208.08 63.334c-1.774 2.843-2.523 11.793-1.907 17.734.217 1.96.572 3.596 1.089 4.572.71 1.35 1.901 2.152 3.26 2.202.873.044 1.415-.104 17.809-5.375 0 0 7.285-2.325 7.315-2.34 1.818-.463 3.04-2.133 3.157-4.266.119-2.187-1.01-4.118-2.871-4.817 0 0-5.138-2.094-5.148-2.094-17.616-7.266-18.409-7.551-19.296-7.561-1.36-.055-2.566.63-3.408 1.945m39.408 54.138c.286-.828.32-1.394.37-18.616 0 0 .039-7.61.044-7.684.118-1.867-1.089-3.567-3.064-4.325-2.035-.784-4.227-.3-5.458 1.231 0 0-3.596 4.266-3.606 4.266-12.34 14.497-12.857 15.167-13.158 16.025a3.518 3.518 0 0 0-.197 1.58c.074.77.424 1.528 1 2.237 2.862 3.4 16.586 8.448 20.97 7.7 1.523-.276 2.631-1.133 3.1-2.414m27.841-5.995c4.138-1.65 13.163-13.133 13.798-17.552.222-1.537-.26-2.862-1.32-3.709-.695-.522-1.222-.724-17.606-6.103 0 0-7.187-2.375-7.28-2.42-1.74-.674-3.725-.048-5.06 1.597-1.389 1.69-1.596 3.921-.487 5.606l2.891 4.71c9.724 15.792 10.468 16.91 11.168 17.457 1.083.852 2.463.99 3.896.414m-8.468-40.66c18.62-4.512 19.34-4.749 20.074-5.231 1.128-.759 1.695-2.03 1.596-3.577 0-.049.01-.103 0-.157-.478-4.572-8.488-16.463-12.433-18.394-1.4-.67-2.798-.626-3.96.152-.72.468-1.247 1.178-11.218 14.813 0 0-4.502 6.133-4.556 6.192-1.187 1.444-1.207 3.513-.044 5.286 1.202 1.837 3.231 2.734 5.093 2.217 0 0-.074.133-.093.157.916-.345 2.556-.748 5.541-1.458m-18.689-15.374c-.32-7.38-2.542-40.236-2.803-41.758-.374-1.38-1.453-2.365-3-2.754-4.754-1.177-22.921 3.911-26.286 7.384-1.083 1.128-1.482 2.517-1.157 3.749.532 1.089 23.039 36.502 23.039 36.502 3.325 5.394 6.04 4.557 6.931 4.276.882-.271 3.581-1.109 3.276-7.4" fill="#BF2519" fill-rule="nonzero"/><path d="M17.623 133.324c2.345 2.172 6.788 2.788 12.187 1.69 5.06-1 8.197-3.261 11.217-12.862L56.066 74.9c.778-2.508.72-4.685-.172-6.3-.725-1.301-1.931-2.183-3.636-2.636-2.68-.734-6.024-.66-8.133 6.542L36.234 99.31S20.16 68.945 20.15 68.94c-1.015-2.03-3.99-3.482-7.02-2.28-3.95 1.502-5.266 5.054-3.69 9.63 0 0 19.552 39.788 19.597 39.896 0 0 .532 1.419.532 1.65 0 0 .177 1.08.177 1.119-.04 1.532-.552 2.822-1.468 3.684-.901.848-2.153 1.291-3.616 1.232 0 0-3.049-.07-3.28-.07-3.133.385-5.104 2.183-5.42 4.961-.22 1.789.356 3.36 1.661 4.562zm77.039-44.803H73.726c-.567-.413-.842-1.108-.419-3.197.266-1.098.552-2.083 1.39-3.463.27-.413.551-.837.822-1.26 1.532-1.937 3.606-3.178 5.966-3.73 7.36-1.798 12.492 1.941 13.325 8.32.399 2.784.137 3.33-.148 3.33zm12.867-3.645c-.675-6.827-3.31-12.157-7.63-15.423-4.602-3.493-11.114-4.606-18.823-3.227-9.665 1.675-15.468 8.581-16.798 20-1.636 13.65.61 23.936 6.517 29.753 4.453 4.4 11.04 6.148 19.05 5.064 11.423-1.606 16.56-7.876 16.56-11.842 0-2.916-1.763-5.212-4.354-5.561-1.483-.296-2.734 0-5.503 2.477-3.99 3.478-8.615 4.877-12.714 3.838-3.123-.793-5.561-2.946-6.665-5.897 0 0-.492-1.95-.463-1.734-.335-1.758-.487-3.502.596-4.212l.29-.197h25.094c2.316 0 3.488-.3 4.163-1.03 1.38-1.531 1.27-5.905.68-12.009zm22.748-36.108c-1.985-.808-4.226-.591-6.192.581-1.891 1.119-2.68 2.823-2.68 5.902v59.832s.33 2.138.365 2.231c.424 1.493 1.527 2.764 3.059 3.458 1.7.789 3.66.774 5.414-.049 2.182-.946 3.468-3.128 3.468-5.832V54.945s-.38-2.896-.38-2.95c-.35-1.39-1.497-2.591-3.054-3.227zm47.35 60.773c-8.286 0-9.606-7.355-9.867-12.906-.015-.015-.109-3.252-.109-3.252s.094-2.403.094-2.497c.537-9.606 2.522-13.394 7.591-14.448 3.404-.788 6.005-.404 7.956 1.167 2.93 2.36 4.221 7.355 4.103 15.69-.084 9.758-1.783 16.246-9.768 16.246zm.615-43.93c-5.551-1.134-10.3-.183-14.867 2.91 0 0-.512.414-.709.533l-.409.207-1.25.561-.356-1.404-.3-.507-.104-.315-.034-.094s-.305-.409-.35-.473c-1.31-2.04-4.872-2.975-8.083-1.143-1.572.892-2.473 2.148-2.473 5.897v58.723c0 3.217 1.01 5.217 3.216 6.271 1.862.936 3.956 1.01 5.754.237 1.527-.67 2.65-1.853 3.069-3.291l.37-2.517v-10.163l-.109-1.635.044-.483.064-.231.606-1.936 1.838 1.221s.463.306.66.513l.552.364c.004.005.64.375.64.375.01 0 .591.285.591.285 4.926 2.325 11.517 2.054 16.823-.68 6.68-3.487 9.98-9.674 10.743-20.063 1.596-20.764-3.182-30.685-15.926-33.163v.001zm25.744 48.526h.685c.556 0 1.079-.03 1.079-.655 0-.562-.478-.62-.907-.62h-.857v1.275zm-.562-1.778h1.468c.961 0 1.41.35 1.41 1.147 0 .72-.459 1.02-1.06 1.084l1.158 1.769h-.606l-1.094-1.72h-.714v1.72h-.562v-4zm1.296 4.926c1.62 0 2.926-1.276 2.926-2.966 0-1.66-1.305-2.94-2.926-2.94-1.626 0-2.931 1.28-2.931 2.975a2.904 2.904 0 0 0 2.931 2.93v.001zm0-6.404c1.892 0 3.483 1.488 3.483 3.438 0 1.985-1.591 3.468-3.483 3.468-1.897 0-3.483-1.483-3.483-3.433 0-1.985 1.586-3.473 3.483-3.473z" fill="#231F20" fill-rule="nonzero"/></g></svg>