<svg width="154" height="38" xmlns="http://www.w3.org/2000/svg"><path d="M0 0h38v38H0V0zm20.7 7.3c-1.7.8-6.4 4.5-9 6.4 3.1-1 10.6-2.7 14.5-2.8-1.2-.9-4.6-3.2-5.5-3.6zm-15 23.8c1.1-.5 11.1-3.8 20.4-4.4.2-.8 1.2-3.4 1.4-4.1-9.6.7-17.4 3.5-20.5 5l-1.3 3.5zm21.2-19.7s-9.3 9.4-10.8 10.7c2.8-1 8.6-2.2 12.3-2.5.4-1.3.9-2.3.9-2.3l4.9-.5c.1.1-3.7-3-7.3-5.4zM7.3 26.6c2.9-3 13.5-12.8 13.5-12.8-5.5 1.3-11.2 3-13.3 4L4.4 21c2.6-.6 3.4-.7 5.3-1l-2.4 6.6zm57.9 6.6l1.4-4.4H55.2s.4-.8 1-1.8L66.5 9V5.1H50.4l-1.2 4.5h10.5s-.4 1-1.1 2.2L48.4 29.4v3.8h16.8zm7.6-19.8c1.8 0 3.2-1.4 3.2-3.2C76 8.4 74.6 7 72.8 7c-1.8 0-3.3 1.4-3.3 3.2.1 1.7 1.6 3.2 3.3 3.2zm-2.6 19.8h5.2V14.5l-5.2 1.2v17.5zm10.3 0V5.6l5.3-1.2v28.8h-5.3zm10.4 0V5.6l5.3-1.2v28.8h-5.3zm50 0l5.7-19.9h-5.4l-1.5 7.1c-.5 2.5-1 5.6-1.1 6.5 0 0-.6-3.3-1.5-7l-1.6-6.6h-4.9l-1.9 6.7c-.9 3.4-1.4 6.9-1.4 6.9s-.6-3.9-1.1-6.2l-1.6-7.4h-5.3l5.5 19.9h4.9l1-4.1c.5-1.9 1.3-5.3 1.7-7 .3-1.4.3-1.7.5-2.6.1.8.2 1 .3 2 .2 1.3.7 3.2 1.1 4.8l1.8 6.8h4.8v.1zm-29.4-15.4c.7.9 1 2.6 1 5.3 0 4.7-1 6.7-3.2 6.7-1 0-2.2-.5-2.6-1.6-.4-1-.7-2.7-.7-5 0-2 .2-3.4.5-4.4.4-1.2 1.4-2 2.7-2 .9-.1 1.8.3 2.3 1zm4.2 13c1.7-1.9 2.5-4.3 2.5-7.7 0-3.2-.7-5.4-2.3-7.3-1.7-2-3.9-3-6.8-3-5.4 0-8.9 4.2-8.9 10.4 0 6.3 3.5 10.3 8.9 10.3 3.1.1 5.1-1 6.6-2.7zM150.9 9v.9h.2c.2 0 .4 0 .5-.1.1-.1.1-.2.1-.3 0-.3-.2-.4-.6-.4h-.2V9zm.9 2.5l-.2-.4c-.2-.3-.3-.5-.5-.7-.1-.1-.1-.1-.2-.1v1.2h-.5V8.6h.9c.6 0 .9.4.9.8s-.3.8-.7.8c.1.1.3.3.4.6l.4.7h-.5zm-.5-3.6c-1.1 0-2 .9-2 2.1 0 1.2.9 2.1 2 2.1s2-.9 2-2.1c0-1.1-.9-2.1-2-2.1zm0 4.7c-1.4 0-2.5-1.1-2.5-2.5s1.1-2.5 2.5-2.5 2.5 1.1 2.5 2.5-1.2 2.5-2.5 2.5z" fill="#3871B7"/></svg>