<svg width="500" height="119" xmlns="http://www.w3.org/2000/svg"><g fill="none" fill-rule="evenodd"><path d="M12 .3h94c6.6 0 12 5.4 12 12v94c0 6.6-5.4 12-12 12H12c-6.6 0-12-5.4-12-12v-94C0 5.7 5.4.3 12 .3z" fill="#CD202F" fill-rule="nonzero"/><path d="M0 56.3c5.5 0 11-.1 16.5.1s10.3-1.6 13.7-5.8C44.9 32 65.7 34.4 83.3 41.4c5 1.9 9.5 5 12.9 9.1 5.2 6.4 5.2 11.6-.1 17.9-14.8 17.8-48.7 18.7-64.2 1.4-4.5-5-9.8-7.9-16.6-7.6-5.1.4-10.3-.4-15.3 1.1v-7zm70.3-12.5c-7.8-2.2-15.5-2.7-23.2.6-.9.4-2.1.9-1.6 2.1.5 1.2 1.6.8 2.5.4 7.1-3.8 14.7-3.1 22.3-3.1z" fill="#F5F5F5" fill-rule="nonzero"/><path d="M70.3 43.8c-7.6 0-15.2-.7-22.3 3-.9.5-2 .9-2.5-.3s.7-1.7 1.6-2.1c7.7-3.3 15.4-2.8 23.2-.6z" fill="#CC2130" fill-rule="nonzero"/><text fill="#2D2E2A" font-family="Helvetica" font-size="111.86" transform="translate(0 -23)"><tspan x="138" y="108.993">zomato</tspan></text></g></svg>